<svg width="24" height="24" viewBox="0 0 24 24" fill="none" xmlns="http://www.w3.org/2000/svg">
<rect width="24" height="24" rx="6" fill="#3F79AD"/>
<g filter="url(#filter0_d_101_1180)">
<path d="M10.224 9.44898H12.8182V10.7676H12.8466C13.2421 10.0566 14.4103 9.3346 15.8546 9.3346C18.6268 9.3346 19.4004 11.0888 19.4004 13.521V18.5996H16.6475V14.0216C16.6475 12.6746 16.1602 11.7366 15.0205 11.7366C13.6367 11.7366 12.9769 12.8292 12.9769 14.2046V18.5996H10.224V9.44898ZM5.63583 18.5996H8.38875V9.44898H5.63583V18.5996ZM7.01321 7.89338C7.23333 7.89855 7.45228 7.85979 7.65716 7.77936C7.86204 7.69893 8.04873 7.57847 8.20625 7.42505C8.36377 7.27163 8.48894 7.08836 8.5744 6.886C8.65986 6.68364 8.70388 6.46629 8.70388 6.24672C8.70388 6.02715 8.65986 5.8098 8.5744 5.60744C8.48894 5.40509 8.36377 5.22181 8.20625 5.06839C8.04873 4.91497 7.86204 4.79451 7.65716 4.71408C7.45228 4.63366 7.23333 4.59489 7.01321 4.60007C6.582 4.6102 6.17187 4.78814 5.87049 5.09584C5.56911 5.40355 5.40039 5.8166 5.40039 6.24672C5.40039 6.67684 5.56911 7.0899 5.87049 7.3976C6.17187 7.7053 6.582 7.88324 7.01321 7.89338Z" fill="#F4F5F7"/>
</g>
<defs>
<filter id="filter0_d_101_1180" x="5.40039" y="4.59961" width="14.8" height="14.8" filterUnits="userSpaceOnUse" color-interpolation-filters="sRGB">
<feFlood flood-opacity="0" result="BackgroundImageFix"/>
<feColorMatrix in="SourceAlpha" type="matrix" values="0 0 0 0 0 0 0 0 0 0 0 0 0 0 0 0 0 0 127 0" result="hardAlpha"/>
<feOffset dx="0.4" dy="0.4"/>
<feGaussianBlur stdDeviation="0.2"/>
<feComposite in2="hardAlpha" operator="out"/>
<feColorMatrix type="matrix" values="0 0 0 0 0 0 0 0 0 0 0 0 0 0 0 0 0 0 0.25 0"/>
<feBlend mode="normal" in2="BackgroundImageFix" result="effect1_dropShadow_101_1180"/>
<feBlend mode="normal" in="SourceGraphic" in2="effect1_dropShadow_101_1180" result="shape"/>
</filter>
</defs>
</svg>
