<svg width="24" height="24" viewBox="0 0 24 24" fill="none" xmlns="http://www.w3.org/2000/svg">
<g clip-path="url(#clip0_101_1146)">
<path d="M8.46849 0.943861L17.6049 -0.950195C21.5914 -0.950195 24.8008 2.261 24.8008 6.2498L25.7508 17.7998C25.7508 21.7886 22.5414 24.9998 18.5549 24.9998L7.26289 23.1606C3.2917 22.8114 0.876209 20.369 0.853304 16.3802L0.800886 7.25225C0.777981 3.26352 4.50728 1.39245 8.46849 0.943861Z" fill="#C07FA0"/>
<path d="M5.99923 -1.2998C1.99939 -1.2998 -1.2207 1.9114 -1.2207 5.9002L-0.000765973 12.0002H1.50339C8.88715 11.9937 15.3729 7.10899 17.3992 0.0283203C17.216 0.0145461 17.0327 0.000195332 16.8458 0.000195332L5.99923 -1.2998Z" fill="#6B58A7"/>
<path d="M1.50434 12H0.00089648L-1.76562 18.45C-1.76562 22.4388 1.45294 25.65 5.4509 25.65L16.8395 24C17.029 24 17.2151 23.986 17.4009 23.9719C15.3747 16.8883 8.88766 12.0028 1.50434 12Z" fill="#D2945A"/>
<g filter="url(#filter0_d_101_1146)">
<path d="M15.3704 5H8.62963C6.62504 5 5 6.62504 5 8.62963V15.3704C5 17.375 6.62504 19 8.62963 19H15.3704C17.375 19 19 17.375 19 15.3704V8.62963C19 6.62504 17.375 5 15.3704 5Z" stroke="#F4F5F7" stroke-width="1.2" stroke-linecap="round" stroke-linejoin="round" shape-rendering="crispEdges"/>
</g>
<g filter="url(#filter1_d_101_1146)">
<path d="M11.9993 15.3706C13.8607 15.3706 15.3696 13.8617 15.3696 12.0003C15.3696 10.1388 13.8607 8.62988 11.9993 8.62988C10.1379 8.62988 8.62891 10.1388 8.62891 12.0003C8.62891 13.8617 10.1379 15.3706 11.9993 15.3706Z" stroke="#F4F5F7" stroke-width="1.2" stroke-linecap="round" stroke-linejoin="round" shape-rendering="crispEdges"/>
</g>
<g filter="url(#filter2_d_101_1146)">
<path d="M16.1484 8.88853C16.7211 8.88853 17.1854 8.42423 17.1854 7.85149C17.1854 7.27875 16.7211 6.81445 16.1484 6.81445C15.5756 6.81445 15.1113 7.27875 15.1113 7.85149C15.1113 8.42423 15.5756 8.88853 16.1484 8.88853Z" fill="#F4F5F7"/>
</g>
</g>
<defs>
<filter id="filter0_d_101_1146" x="4.40039" y="4.40039" width="15.9992" height="15.9992" filterUnits="userSpaceOnUse" color-interpolation-filters="sRGB">
<feFlood flood-opacity="0" result="BackgroundImageFix"/>
<feColorMatrix in="SourceAlpha" type="matrix" values="0 0 0 0 0 0 0 0 0 0 0 0 0 0 0 0 0 0 127 0" result="hardAlpha"/>
<feOffset dx="0.4" dy="0.4"/>
<feGaussianBlur stdDeviation="0.2"/>
<feComposite in2="hardAlpha" operator="out"/>
<feColorMatrix type="matrix" values="0 0 0 0 0 0 0 0 0 0 0 0 0 0 0 0 0 0 0.25 0"/>
<feBlend mode="normal" in2="BackgroundImageFix" result="effect1_dropShadow_101_1146"/>
<feBlend mode="normal" in="SourceGraphic" in2="effect1_dropShadow_101_1146" result="shape"/>
</filter>
<filter id="filter1_d_101_1146" x="8.0293" y="8.03027" width="8.73945" height="8.74043" filterUnits="userSpaceOnUse" color-interpolation-filters="sRGB">
<feFlood flood-opacity="0" result="BackgroundImageFix"/>
<feColorMatrix in="SourceAlpha" type="matrix" values="0 0 0 0 0 0 0 0 0 0 0 0 0 0 0 0 0 0 127 0" result="hardAlpha"/>
<feOffset dx="0.4" dy="0.4"/>
<feGaussianBlur stdDeviation="0.2"/>
<feComposite in2="hardAlpha" operator="out"/>
<feColorMatrix type="matrix" values="0 0 0 0 0 0 0 0 0 0 0 0 0 0 0 0 0 0 0.25 0"/>
<feBlend mode="normal" in2="BackgroundImageFix" result="effect1_dropShadow_101_1146"/>
<feBlend mode="normal" in="SourceGraphic" in2="effect1_dropShadow_101_1146" result="shape"/>
</filter>
<filter id="filter2_d_101_1146" x="15.1113" y="6.81445" width="2.87422" height="2.87422" filterUnits="userSpaceOnUse" color-interpolation-filters="sRGB">
<feFlood flood-opacity="0" result="BackgroundImageFix"/>
<feColorMatrix in="SourceAlpha" type="matrix" values="0 0 0 0 0 0 0 0 0 0 0 0 0 0 0 0 0 0 127 0" result="hardAlpha"/>
<feOffset dx="0.4" dy="0.4"/>
<feGaussianBlur stdDeviation="0.2"/>
<feComposite in2="hardAlpha" operator="out"/>
<feColorMatrix type="matrix" values="0 0 0 0 0 0 0 0 0 0 0 0 0 0 0 0 0 0 0.25 0"/>
<feBlend mode="normal" in2="BackgroundImageFix" result="effect1_dropShadow_101_1146"/>
<feBlend mode="normal" in="SourceGraphic" in2="effect1_dropShadow_101_1146" result="shape"/>
</filter>
<clipPath id="clip0_101_1146">
<rect width="24" height="24" rx="6" fill="white"/>
</clipPath>
</defs>
</svg>
