<svg width="24" height="24" viewBox="0 0 24 24" fill="none" xmlns="http://www.w3.org/2000/svg">
<rect width="24" height="24" rx="6" fill="#32363B"/>
<g filter="url(#filter0_d_101_1215)">
<path d="M15.3377 11.4887C15.2777 11.4598 15.2166 11.432 15.1548 11.4054C15.0471 9.41423 13.9632 8.27431 12.1431 8.26265C12.1349 8.2626 12.1267 8.2626 12.1184 8.2626C11.0298 8.2626 10.1244 8.72902 9.56708 9.57775L10.5681 10.267C10.9844 9.63299 11.6377 9.49784 12.1189 9.49784C12.1245 9.49784 12.13 9.49784 12.1355 9.49789C12.7348 9.50173 13.187 9.67662 13.4797 10.0177C13.6927 10.266 13.8352 10.6091 13.9057 11.0421C13.3744 10.9515 12.7998 10.9236 12.1855 10.959C10.455 11.059 9.34253 12.072 9.41725 13.4796C9.45517 14.1936 9.80955 14.8079 10.4151 15.2091C10.927 15.5483 11.5864 15.7142 12.2717 15.6767C13.1767 15.6269 13.8867 15.2803 14.382 14.6466C14.7582 14.1653 14.9961 13.5417 15.1011 12.7558C15.5324 13.0171 15.8521 13.3609 16.0286 13.7742C16.3288 14.4768 16.3463 15.6312 15.4078 16.5724C14.5855 17.397 13.5971 17.7537 12.1033 17.7647C10.4463 17.7524 9.19308 17.219 8.3783 16.1794C7.61533 15.2058 7.22102 13.7997 7.20631 12C7.22102 10.2002 7.61533 8.79411 8.3783 7.8206C9.19308 6.78097 10.4462 6.2476 12.1032 6.23524C13.7723 6.24769 15.0473 6.78363 15.8933 7.82828C16.3081 8.34057 16.6208 8.9848 16.827 9.73595L18 9.42182C17.7501 8.49723 17.3569 7.70051 16.8218 7.03976C15.7372 5.70048 14.1511 5.01422 12.1073 4.99999H12.0992C10.0596 5.01417 8.49119 5.70304 7.43755 7.04744C6.49994 8.24379 6.0163 9.90843 6.00005 11.9951L6 12L6.00005 12.0049C6.0163 14.0915 6.49994 15.7562 7.43755 16.9526C8.49119 18.2969 10.0596 18.9858 12.0992 19H12.1073C13.9206 18.9874 15.1988 18.5109 16.2517 17.455C17.6293 16.0736 17.5878 14.342 17.1338 13.279C16.808 12.5168 16.187 11.8976 15.3377 11.4887ZM12.2069 14.4432C11.4485 14.4861 10.6606 14.1444 10.6217 13.4125C10.5929 12.8699 11.0065 12.2644 12.2535 12.1923C12.3963 12.184 12.5364 12.1799 12.6741 12.1799C13.127 12.1799 13.5508 12.2241 13.936 12.3086C13.7923 14.1098 12.9495 14.4023 12.2069 14.4432Z" fill="#F4F5F7"/>
</g>
<defs>
<filter id="filter0_d_101_1215" x="6" y="5" width="12.8" height="14.8" filterUnits="userSpaceOnUse" color-interpolation-filters="sRGB">
<feFlood flood-opacity="0" result="BackgroundImageFix"/>
<feColorMatrix in="SourceAlpha" type="matrix" values="0 0 0 0 0 0 0 0 0 0 0 0 0 0 0 0 0 0 127 0" result="hardAlpha"/>
<feOffset dx="0.4" dy="0.4"/>
<feGaussianBlur stdDeviation="0.2"/>
<feComposite in2="hardAlpha" operator="out"/>
<feColorMatrix type="matrix" values="0 0 0 0 0 0 0 0 0 0 0 0 0 0 0 0 0 0 0.25 0"/>
<feBlend mode="normal" in2="BackgroundImageFix" result="effect1_dropShadow_101_1215"/>
<feBlend mode="normal" in="SourceGraphic" in2="effect1_dropShadow_101_1215" result="shape"/>
</filter>
</defs>
</svg>
