<svg width="24" height="24" viewBox="0 0 24 24" fill="none" xmlns="http://www.w3.org/2000/svg">
<rect width="24" height="24" rx="6" fill="#4F5F9F"/>
<g filter="url(#filter0_d_101_1208)">
<path d="M18.7304 9.00201C18.4384 8.97542 18.2245 9.20361 17.4191 10.2567C16.9769 10.8351 16.5572 11.3436 16.4864 11.3867C16.4156 11.4298 16.1374 11.5135 15.868 11.5726C14.5099 11.8706 13.1531 12.6647 12.1569 13.7448C12.0032 13.9114 11.8207 14.0788 11.7512 14.1167C11.6817 14.1547 11.0066 14.2747 10.2508 14.3837C8.76472 14.5979 8.63076 14.646 8.52325 15.0018C8.49416 15.0981 8.49206 15.268 8.51869 15.3796C8.55124 15.516 9.05302 16.4075 10.0495 18.0992C11.6852 20.876 11.6942 20.8888 12.4715 21.4765C13.8994 22.5561 16.0972 22.8061 18.0385 22.1096C18.6206 21.9007 19.7479 21.2527 20.2326 20.8485C21.2503 19.9997 22.0074 18.8404 22.3303 17.636C22.6441 16.4655 22.5679 15.3799 22.094 14.2673C21.8806 13.7664 19.4181 9.46246 19.2088 9.22461C19.1425 9.14926 18.9867 9.06059 18.8625 9.02736C18.8156 9.01482 18.7721 9.0058 18.7304 9.00201ZM18.8846 15.6202C19.16 15.6202 19.4241 15.7296 19.6189 15.9243C19.8136 16.1191 19.923 16.3832 19.923 16.6586C19.923 16.9341 19.8136 17.1982 19.6189 17.3929C19.4241 17.5877 19.16 17.6971 18.8846 17.6971C18.6091 17.6971 18.345 17.5877 18.1502 17.3929C17.9555 17.1982 17.8461 16.9341 17.8461 16.6586C17.8461 16.3832 17.9555 16.1191 18.1502 15.9243C18.345 15.7296 18.6091 15.6202 18.8846 15.6202ZM14.9903 17.8269C15.2657 17.8269 15.5299 17.9363 15.7246 18.1311C15.9194 18.3258 16.0288 18.59 16.0288 18.8654C16.0288 19.1408 15.9194 19.4049 15.7246 19.5997C15.5299 19.7944 15.2657 19.9038 14.9903 19.9038C14.7149 19.9038 14.4508 19.7944 14.256 19.5997C14.0613 19.4049 13.9519 19.1408 13.9519 18.8654C13.9519 18.59 14.0613 18.3258 14.256 18.1311C14.4508 17.9363 14.7149 17.8269 14.9903 17.8269Z" fill="#F4F5F7"/>
</g>
<defs>
<filter id="filter0_d_101_1208" x="8.5" y="9" width="15.1195" height="14.3" filterUnits="userSpaceOnUse" color-interpolation-filters="sRGB">
<feFlood flood-opacity="0" result="BackgroundImageFix"/>
<feColorMatrix in="SourceAlpha" type="matrix" values="0 0 0 0 0 0 0 0 0 0 0 0 0 0 0 0 0 0 127 0" result="hardAlpha"/>
<feOffset dx="0.7" dy="0.4"/>
<feGaussianBlur stdDeviation="0.2"/>
<feComposite in2="hardAlpha" operator="out"/>
<feColorMatrix type="matrix" values="0 0 0 0 0 0 0 0 0 0 0 0 0 0 0 0 0 0 0.25 0"/>
<feBlend mode="normal" in2="BackgroundImageFix" result="effect1_dropShadow_101_1208"/>
<feBlend mode="normal" in="SourceGraphic" in2="effect1_dropShadow_101_1208" result="shape"/>
</filter>
</defs>
</svg>
