<svg width="24" height="24" viewBox="0 0 24 24" fill="none" xmlns="http://www.w3.org/2000/svg">
<rect width="24" height="24" rx="6" fill="#6B58A7"/>
<g filter="url(#filter0_d_101_1194)">
<path d="M13.2018 5C12.8944 5 12.6393 5.24557 12.6363 5.54315C12.6346 5.84209 12.8897 6.09347 13.1994 6.09501C14.5357 6.10504 15.6344 6.52738 16.5204 7.3603C17.396 8.18547 17.8524 9.32871 17.864 10.8205V10.8218C17.8671 11.1186 18.1225 11.3637 18.4307 11.3637C18.4307 11.3637 18.4366 11.3626 18.437 11.3624C18.7459 11.3596 19.0025 11.1105 19 10.8118V10.8105C18.9928 9.94101 18.8514 9.14154 18.5749 8.43791C18.295 7.72702 17.8696 7.09797 17.3146 6.57481C16.2185 5.54396 14.8183 5.01145 13.2068 5.00006L13.2018 5ZM7.46219 6.28642C7.24659 6.24977 7.01305 6.28985 6.77982 6.40201H6.76117L6.73507 6.41692C6.30289 6.66259 5.89775 6.99194 5.51829 7.40501L5.48846 7.43733V7.46716C5.2259 7.7945 5.05236 8.12395 5.01243 8.45404C4.99969 8.50997 5 8.5604 5 8.61437C5 8.76453 5.02207 8.91713 5.06836 9.06679L5.08079 9.10905L5.10689 9.12397C5.25677 9.63821 5.59689 10.4385 6.34111 11.7937C6.83679 12.692 7.34325 13.4423 7.84623 14.0745C8.11121 14.4067 8.41137 14.7526 8.75973 15.1011C8.76387 15.1053 8.77856 15.1203 8.79453 15.1347C8.80007 15.1402 8.80781 15.1517 8.82685 15.1707L8.86165 15.2055H8.86413C8.87639 15.2178 8.88467 15.2267 8.88651 15.2291L8.89274 15.2366L8.89898 15.2428C9.24735 15.5874 9.59096 15.8894 9.92683 16.1527C10.558 16.6557 11.3082 17.1662 12.2063 17.6628C13.563 18.4113 14.3707 18.7495 14.8822 18.897L14.9009 18.9194L14.932 18.9306C15.0769 18.9789 15.2276 19.0012 15.3769 18.9989C15.4375 19.0022 15.4911 18.998 15.5422 18.9865C15.8925 18.9455 16.2393 18.7797 16.5825 18.4918L16.5863 18.4868L16.59 18.4844C16.5953 18.4791 16.5922 18.4816 16.595 18.4781C16.5981 18.4754 16.5994 18.4722 16.6025 18.4694C17.0086 18.0987 17.3364 17.6955 17.5831 17.2638L17.5993 17.2365V17.2104C17.8258 16.7386 17.7361 16.257 17.3681 15.9501C17.3591 15.9423 17.1823 15.7945 16.9629 15.6157C16.7386 15.4329 16.4725 15.218 16.2929 15.0862C15.953 14.8348 15.4277 14.5096 15.1283 14.3429H15.127C14.5519 14.0209 13.9509 14.208 13.6865 14.5505L13.2229 15.1309C13.0359 15.3665 12.6623 15.3441 12.6524 15.3435C9.50787 14.5345 8.66246 11.3725 8.65648 11.35C8.65592 11.3401 8.63331 10.9658 8.86901 10.7758L9.44695 10.3134C9.79024 10.0505 9.98324 9.44962 9.65948 8.87288C9.49059 8.57473 9.16397 8.04547 8.91622 7.70826H8.91494C8.78213 7.52927 8.56792 7.26164 8.38547 7.03708C8.29425 6.92481 8.2112 6.82204 8.15056 6.74873C8.12025 6.71207 8.09587 6.68246 8.07848 6.66173C8.06978 6.65136 8.06245 6.64407 8.05735 6.63811C8.0548 6.63512 8.05334 6.63315 8.05111 6.63066C7.89095 6.44046 7.68681 6.32459 7.46198 6.28637L7.46219 6.28642ZM13.2354 7.54675C12.9322 7.52536 12.6597 7.75259 12.6376 8.04515C12.6155 8.33804 12.8518 8.59926 13.1547 8.62062C13.9037 8.67356 14.4092 8.89378 14.7891 9.29549V9.29676C15.1768 9.70594 15.3532 10.1732 15.3385 10.8119V10.8144C15.3318 11.1082 15.5784 11.3573 15.8828 11.3637H15.8965C16.1965 11.3637 16.4466 11.1269 16.4533 10.8367C16.4738 9.95898 16.1879 9.17573 15.6119 8.56838C15.0331 7.95802 14.2133 7.61624 13.2354 7.54675Z" fill="#F4F5F7"/>
</g>
<defs>
<filter id="filter0_d_101_1194" x="5" y="5" width="14.8" height="14.8" filterUnits="userSpaceOnUse" color-interpolation-filters="sRGB">
<feFlood flood-opacity="0" result="BackgroundImageFix"/>
<feColorMatrix in="SourceAlpha" type="matrix" values="0 0 0 0 0 0 0 0 0 0 0 0 0 0 0 0 0 0 127 0" result="hardAlpha"/>
<feOffset dx="0.4" dy="0.4"/>
<feGaussianBlur stdDeviation="0.2"/>
<feComposite in2="hardAlpha" operator="out"/>
<feColorMatrix type="matrix" values="0 0 0 0 0 0 0 0 0 0 0 0 0 0 0 0 0 0 0.25 0"/>
<feBlend mode="normal" in2="BackgroundImageFix" result="effect1_dropShadow_101_1194"/>
<feBlend mode="normal" in="SourceGraphic" in2="effect1_dropShadow_101_1194" result="shape"/>
</filter>
</defs>
</svg>
