<svg width="24" height="24" viewBox="0 0 24 24" fill="none" xmlns="http://www.w3.org/2000/svg">
<rect width="24" height="24" rx="6" fill="#4F5F9F"/>
<g filter="url(#filter0_d_101_1196)">
<path d="M9.99433 6.60039C8.99444 6.77469 8.03717 7.07984 7.14433 7.49479C7.1366 7.49819 7.13084 7.50331 7.12645 7.51061C5.3115 10.255 4.81392 12.9323 5.05783 15.5761C5.05896 15.589 5.06577 15.6009 5.07571 15.6088C6.27316 16.4988 7.43304 17.0394 8.57143 17.3976C8.58965 17.4032 8.60927 17.3969 8.62086 17.3818C8.89015 17.0096 9.13018 16.7788 9.33599 16.3661C9.34814 16.3419 9.33664 16.3134 9.3118 16.3038C8.93105 16.1576 8.56893 15.9799 8.22018 15.7775C8.19259 15.7612 8.18956 15.7207 8.2149 15.7016C8.28829 15.6459 8.36252 15.5881 8.4326 15.5297C8.44528 15.519 8.46291 15.5166 8.47782 15.5233C10.769 16.5821 13.2493 16.5821 15.5134 15.5233C15.5283 15.516 15.5454 15.5179 15.5587 15.5286C15.6288 15.5871 15.7024 15.6459 15.7764 15.7016C15.8017 15.7207 15.7997 15.7612 15.7722 15.7775C15.4234 15.9839 15.0608 16.1582 14.6795 16.3038C14.6547 16.3134 14.6442 16.3419 14.6563 16.3661C14.8666 16.7782 15.1061 17.0085 15.3704 17.3807C15.3815 17.3965 15.4016 17.4032 15.4198 17.3976C16.5638 17.0394 17.7234 16.4988 18.9208 15.6088C18.9313 15.6009 18.9387 15.589 18.9398 15.5761C19.2317 12.5196 18.45 9.86531 16.869 7.51168C16.8652 7.50382 16.8589 7.49817 16.8512 7.4948C15.9589 7.08041 15.0027 6.77526 14.0022 6.6004C13.984 6.597 13.9653 6.60467 13.9559 6.62149C13.8329 6.84302 13.697 7.02401 13.6015 7.25116C12.5255 7.08811 11.4542 7.08811 10.4003 7.25116C10.3048 7.01896 10.1642 6.84302 10.0406 6.62149C10.0312 6.60519 10.0126 6.59757 9.99433 6.60039ZM9.57577 11.4595C10.3313 11.4595 10.9348 12.0707 10.923 12.8095C10.923 13.5537 10.3254 14.1596 9.57577 14.1596C8.83789 14.1596 8.23069 13.5537 8.23069 12.8095C8.23069 12.0654 8.82609 11.4595 9.57577 11.4595ZM14.4229 11.4595C15.1785 11.4595 15.7808 12.0707 15.769 12.8095C15.769 13.5537 15.1785 14.1596 14.4229 14.1596C13.685 14.1596 13.0768 13.5537 13.0768 12.8095C13.0768 12.0654 13.6732 11.4595 14.4229 11.4595Z" fill="#F4F5F7"/>
</g>
<defs>
<filter id="filter0_d_101_1196" x="5" y="6.59961" width="14.8" height="11.5998" filterUnits="userSpaceOnUse" color-interpolation-filters="sRGB">
<feFlood flood-opacity="0" result="BackgroundImageFix"/>
<feColorMatrix in="SourceAlpha" type="matrix" values="0 0 0 0 0 0 0 0 0 0 0 0 0 0 0 0 0 0 127 0" result="hardAlpha"/>
<feOffset dx="0.4" dy="0.4"/>
<feGaussianBlur stdDeviation="0.2"/>
<feComposite in2="hardAlpha" operator="out"/>
<feColorMatrix type="matrix" values="0 0 0 0 0 0 0 0 0 0 0 0 0 0 0 0 0 0 0.25 0"/>
<feBlend mode="normal" in2="BackgroundImageFix" result="effect1_dropShadow_101_1196"/>
<feBlend mode="normal" in="SourceGraphic" in2="effect1_dropShadow_101_1196" result="shape"/>
</filter>
</defs>
</svg>
