<svg width="24" height="24" viewBox="0 0 24 24" fill="none" xmlns="http://www.w3.org/2000/svg">
<rect width="24" height="24" rx="6" fill="#4F9B7A"/>
<g filter="url(#filter0_d_101_1157)">
<path d="M12 4C11.8072 4 11.6172 4.0094 11.428 4.02264C11.4044 4.0244 11.3808 4.02616 11.3572 4.02812C8.4992 4.25364 6.0788 5.96944 4.8564 8.40172C4.85596 8.40212 4.85572 8.40292 4.85548 8.40332C4.77636 8.56052 4.6954 8.71732 4.62656 8.88052C4.25204 9.72612 4.04868 10.6237 4.01172 11.5633C4.01008 11.5937 4.00988 11.6245 4.0086 11.6549C4.00612 11.7445 4.00096 11.8337 4.00156 11.9245C4.00132 11.9497 4 11.9745 4 12.0001C4 12.9305 4.16532 13.8185 4.45468 14.6477C4.57116 15.0193 4.70532 15.3949 4.8672 15.7753C5.2704 16.7225 5.32048 16.9809 5.25704 17.7721C5.21284 18.3233 5.0634 18.8861 4.87656 19.2033C4.7072 19.4905 4.56876 19.7873 4.56876 19.8625C4.56876 20.0961 5.91964 20.0145 7.1132 19.7085C8.5116 19.3505 8.634 19.3513 9.7804 19.7109C10.3048 19.8757 10.9036 19.9645 11.5788 19.9893C11.6072 19.9905 11.6356 19.9905 11.664 19.9917C11.7564 19.9941 11.8452 20.0001 11.9408 20.0001C11.9484 20.0001 11.9556 19.9993 11.9632 19.9993C11.9756 19.9993 11.9876 20.0001 12 20.0001C12.2232 20.0001 12.444 19.9889 12.6624 19.9713C14.6404 19.8305 16.2288 19.0985 17.6584 17.6713C18.8364 16.4953 19.5664 15.0433 19.8548 13.5245C19.8812 13.3853 19.9032 13.2453 19.9228 13.1041C19.9344 13.0173 19.9468 12.9309 19.9556 12.8437C19.9748 12.6573 19.9864 12.4677 19.9928 12.2773C19.9944 12.2293 19.9964 12.1817 19.9968 12.1337C19.9976 12.0889 20 12.0449 20 12.0001C20 7.64212 16.5492 4.12212 12.2204 4.00572C12.1868 4.0046 12.1532 4.00376 12.1196 4.00324C12.0796 4.00268 12.04 4.00012 12 4.00012V4Z" fill="#6FBF9A"/>
</g>
<g filter="url(#filter1_d_101_1157)">
<path d="M15.0004 15.4153C15.6001 15.1377 15.8789 14.7894 15.9751 14.1978C16.0483 13.7469 16.0145 13.6316 15.1022 13.2058C13.9422 12.6645 14.0137 12.6619 13.514 13.2633C13.203 13.6375 13.0694 13.7589 12.9684 13.7589C11.7863 13.4492 10.5834 12.5543 10.2009 11.3792C10.2009 11.3289 10.3267 11.1448 10.4805 10.9701C10.9327 10.4565 10.9332 10.4439 10.5383 9.50113C10.0838 8.41579 9.93009 8.42316 9.43493 8.40331C8.9282 8.38299 8.76807 8.46106 8.44745 8.8847C8.11575 9.32301 7.99731 9.67561 8.00005 10.2168C8.00365 10.9036 8.23588 11.4551 8.90847 12.3728C10.0631 13.9482 11.1896 14.8033 12.8126 15.3361C13.8052 15.662 14.4194 15.6842 15.0004 15.4153Z" fill="#F4F5F7"/>
</g>
<defs>
<filter id="filter0_d_101_1157" x="4" y="4" width="16.8" height="16.8" filterUnits="userSpaceOnUse" color-interpolation-filters="sRGB">
<feFlood flood-opacity="0" result="BackgroundImageFix"/>
<feColorMatrix in="SourceAlpha" type="matrix" values="0 0 0 0 0 0 0 0 0 0 0 0 0 0 0 0 0 0 127 0" result="hardAlpha"/>
<feOffset dx="0.4" dy="0.4"/>
<feGaussianBlur stdDeviation="0.2"/>
<feComposite in2="hardAlpha" operator="out"/>
<feColorMatrix type="matrix" values="0 0 0 0 0 0 0 0 0 0 0 0 0 0 0 0 0 0 0.25 0"/>
<feBlend mode="normal" in2="BackgroundImageFix" result="effect1_dropShadow_101_1157"/>
<feBlend mode="normal" in="SourceGraphic" in2="effect1_dropShadow_101_1157" result="shape"/>
</filter>
<filter id="filter1_d_101_1157" x="8" y="8.40039" width="8.8" height="8.0002" filterUnits="userSpaceOnUse" color-interpolation-filters="sRGB">
<feFlood flood-opacity="0" result="BackgroundImageFix"/>
<feColorMatrix in="SourceAlpha" type="matrix" values="0 0 0 0 0 0 0 0 0 0 0 0 0 0 0 0 0 0 127 0" result="hardAlpha"/>
<feOffset dx="0.4" dy="0.4"/>
<feGaussianBlur stdDeviation="0.2"/>
<feComposite in2="hardAlpha" operator="out"/>
<feColorMatrix type="matrix" values="0 0 0 0 0 0 0 0 0 0 0 0 0 0 0 0 0 0 0.25 0"/>
<feBlend mode="normal" in2="BackgroundImageFix" result="effect1_dropShadow_101_1157"/>
<feBlend mode="normal" in="SourceGraphic" in2="effect1_dropShadow_101_1157" result="shape"/>
</filter>
</defs>
</svg>
