<svg width="24" height="24" viewBox="0 0 24 24" fill="none" xmlns="http://www.w3.org/2000/svg">
<rect width="24" height="24" rx="6" fill="#4F5F9F"/>
<g filter="url(#filter0_d_101_1175)">
<path d="M11.9991 17.4436C15.006 17.4436 17.4436 15.006 17.4436 11.9991C17.4436 8.99225 15.006 6.55469 11.9991 6.55469C8.99225 6.55469 6.55469 8.99225 6.55469 11.9991C6.55469 15.006 8.99225 17.4436 11.9991 17.4436Z" fill="#F4F5F7"/>
<path d="M7.80512 12.7773L11.2213 16.1936L6.55469 17.444L7.80512 12.7773Z" fill="#F4F5F7"/>
<path d="M11.3065 5.03418L11.267 5.03798L10.6123 5.139L10.5743 5.14659L10.3624 5.20128L10.5576 5.95399L10.7452 5.90538L11.368 5.80968L12.0197 5.77626L11.9802 5L11.3065 5.03418ZM12.6684 5.45877L12.6145 5.80664L13.2548 5.90538L13.851 6.06033L14.0485 6.13325L14.3166 5.40332L14.0948 5.32129L14.0584 5.3099L13.4257 5.14659L13.3877 5.139L12.733 5.03798L12.6935 5.03418H12.6896L12.6684 5.45877ZM9.29828 5.5446L9.26334 5.55979L8.68533 5.83854L8.65267 5.85677L8.13086 6.17426L8.5357 6.83887L9.04079 6.53049L9.59071 6.26541L9.85123 6.1697L9.58311 5.43978L9.29828 5.5446ZM14.729 6.4196L14.9592 6.53049L15.4772 6.84646L15.9663 7.21332L16.1555 6.96039L16.4661 6.61936L16.4608 6.6148L16.4327 6.59125L15.9231 6.2092L15.8927 6.18869L15.3473 5.85677L15.3147 5.83854L15.0678 5.71929L14.729 6.4196ZM7.06901 7.04166L7.04242 7.06825L6.61556 7.53841L6.59201 7.56651L6.35275 7.88552L6.97482 8.35188L7.20421 8.04578L7.60601 7.60525L7.97743 7.26649L7.45486 6.69151L7.06901 7.04166ZM16.4821 7.70171L16.7958 8.04579L17.1528 8.52202L17.3715 8.88129L18.0361 8.47645L17.8105 8.10655L17.79 8.07617L17.408 7.56651L17.3844 7.53841L17.0578 7.17838L16.4821 7.70171ZM5.85753 8.65191L5.8393 8.68456L5.56055 9.26258L5.54536 9.29752L5.32205 9.9044L5.31066 9.94086L5.26812 10.1057L6.02159 10.3001L6.06109 10.1475L6.26617 9.58995L6.53125 9.04003L6.57226 8.97319L5.90842 8.56836L5.85753 8.65191ZM17.7095 9.53906L17.7331 9.58919L17.9389 10.1475L18.0938 10.7445L18.1204 10.9146L18.8891 10.7969L18.8602 10.6115L18.8526 10.5736L18.6893 9.94086L18.6779 9.9044L18.4546 9.29752L18.4394 9.26258L18.4098 9.2003L17.7095 9.53906ZM5.03874 11.2663L5.03494 11.3058L5.00076 11.9795L5 12.0129L5.01291 12.3775L5.01443 12.4026L5.02962 12.5499L5.8036 12.4724L5.78917 12.335L5.77778 11.997L5.81044 11.3673L5.86361 11.0209L5.09494 10.9024L5.03874 11.2663ZM18.204 11.6476L18.2222 11.9992L18.1895 12.6312L18.1151 13.1173L18.8838 13.235L18.9612 12.7322L18.9651 12.6927L18.9992 12.019V11.9795L18.9803 11.6081L18.204 11.6476ZM5.16026 13.3626L5.19292 13.5107L5.20128 13.5411L5.41243 14.227L5.42535 14.2627L5.68891 14.8954L6.40744 14.5961L6.15072 13.9801L5.94944 13.33L5.91905 13.194L5.16026 13.3626ZM17.9442 13.8351H17.9434L17.9396 13.8487L17.7338 14.4085L17.4687 14.9584L17.354 15.146L18.0186 15.5509L18.1424 15.3466L18.1606 15.3139L18.4394 14.7359L18.4546 14.7009L18.6779 14.0941L18.6893 14.0576L18.6961 14.0295L18.0414 13.8601L17.948 13.8259L17.9442 13.8351ZM5.09115 16.8968L5.84234 17.0988L6.24566 15.5957L5.49447 15.3944L5.09115 16.8968ZM16.795 15.9534L16.394 16.3932L15.9534 16.795L15.9451 16.8011L15.9459 16.8019L15.9383 16.8087L16.0097 16.8877L16.4115 17.4239L16.4327 17.4072L16.4608 17.3837L16.931 16.9568L16.9576 16.9302L17.3845 16.4601L17.408 16.432L17.5629 16.2254L16.9401 15.759L16.795 15.9534ZM14.9592 17.468L14.4093 17.7331L14.0166 17.8774L14.2847 18.6073L14.7017 18.4539L14.7366 18.4387L15.3147 18.1599L15.3473 18.1417L15.7484 17.8971L15.3443 17.2333L14.9592 17.468ZM5.43446 17.7627L5.05165 17.8455V17.8462L5.0752 17.9184L5.19293 18.1911L5.24306 18.2754L5.42383 18.5078L5.49143 18.5754L5.72385 18.7562L5.80816 18.8063L6.08084 18.924L6.15299 18.9476L6.30111 18.9795L6.35275 18.9871L6.50618 18.9992L6.55935 19L6.62619 18.9962L6.58138 18.2199L6.54568 18.2222L6.43934 18.2139L6.35351 18.1949L6.16211 18.1121L6.00792 17.9913L5.88715 17.8371L5.78841 17.6093L5.43446 17.7627ZM7.25965 18.0604L7.46093 18.8116L8.96332 18.4091L8.76204 17.6579L7.25965 18.0604ZM9.44715 18.4546L9.73578 18.5746L9.77072 18.5875L10.4581 18.7987L10.4885 18.8071L10.8394 18.8845L10.8614 18.8891L11.024 18.9149L11.1478 18.147L11.0073 18.125L11.0027 18.1242L10.6677 18.0498L10.0145 17.8485L9.74641 17.7368L9.44715 18.4546ZM13.254 18.0931L12.6319 18.1888L12.0008 18.2214L11.8724 18.2169L11.8458 18.9939L11.9848 18.9992L12.0182 18.9984L12.6935 18.9643L12.733 18.9605L13.3877 18.8594L13.4257 18.8518L13.5009 18.8321L13.3064 18.0794L13.254 18.0931Z" fill="#F4F5F7"/>
</g>
<defs>
<filter id="filter0_d_101_1175" x="5" y="5" width="14.8" height="14.8" filterUnits="userSpaceOnUse" color-interpolation-filters="sRGB">
<feFlood flood-opacity="0" result="BackgroundImageFix"/>
<feColorMatrix in="SourceAlpha" type="matrix" values="0 0 0 0 0 0 0 0 0 0 0 0 0 0 0 0 0 0 127 0" result="hardAlpha"/>
<feOffset dx="0.4" dy="0.4"/>
<feGaussianBlur stdDeviation="0.2"/>
<feComposite in2="hardAlpha" operator="out"/>
<feColorMatrix type="matrix" values="0 0 0 0 0 0 0 0 0 0 0 0 0 0 0 0 0 0 0.25 0"/>
<feBlend mode="normal" in2="BackgroundImageFix" result="effect1_dropShadow_101_1175"/>
<feBlend mode="normal" in="SourceGraphic" in2="effect1_dropShadow_101_1175" result="shape"/>
</filter>
</defs>
</svg>
