<svg width="24" height="24" viewBox="0 0 24 24" fill="none" xmlns="http://www.w3.org/2000/svg">
<rect width="24" height="24" rx="6" fill="#B0733F"/>
<g filter="url(#filter0_d_101_1182)">
<path d="M12.508 5.59974C12.3816 5.60674 12.2618 5.65791 12.1695 5.74429C12.0772 5.83066 12.0183 5.94672 12.0032 6.07211L11.5236 9.91824C10.1704 9.99827 8.89616 10.4133 7.91421 11.0939C7.76426 10.8907 7.56862 10.7255 7.34303 10.6116C7.11745 10.4976 6.86821 10.4381 6.61538 10.4378C6.40325 10.4378 6.19319 10.4796 5.9972 10.5606C5.80122 10.6416 5.62314 10.7604 5.47313 10.9101C5.32313 11.0598 5.20414 11.2376 5.12296 11.4332C5.04178 11.6288 5 11.8385 5 12.0502C5.00043 12.3952 5.1117 12.7309 5.31747 13.0081C5.52324 13.2853 5.81265 13.4893 6.14318 13.5901C6.10117 13.792 6.07903 13.9958 6.07692 14.2C6.07692 14.7646 6.23013 15.3237 6.52779 15.8454C6.82545 16.367 7.26174 16.841 7.81175 17.2403C8.36176 17.6395 9.01471 17.9562 9.73334 18.1723C10.452 18.3884 11.2222 18.4996 12 18.4996C12.7778 18.4996 13.548 18.3884 14.2667 18.1723C14.9853 17.9562 15.6382 17.6395 16.1882 17.2403C16.7383 16.841 17.1745 16.367 17.4722 15.8454C17.7699 15.3237 17.9231 14.7646 17.9231 14.2C17.9209 13.9962 17.8988 13.7927 17.8568 13.5912C18.1875 13.4903 18.4771 13.2861 18.6828 13.0087C18.8886 12.7313 18.9998 12.3954 19 12.0502C19 11.8385 18.9582 11.6288 18.877 11.4332C18.7959 11.2376 18.6769 11.0598 18.5269 10.9101C18.3769 10.7604 18.1988 10.6416 18.0028 10.5606C17.8068 10.4796 17.5967 10.4378 17.3846 10.4378C17.1323 10.4382 16.8836 10.4975 16.6584 10.6111C16.4333 10.7247 16.2379 10.8893 16.0879 11.0918C15.1371 10.4348 13.9127 10.0257 12.6068 9.92874L13.0044 6.74602L15.3086 7.07458C15.3884 7.27398 15.5263 7.44494 15.7043 7.56543C15.8824 7.68591 16.0926 7.75041 16.3077 7.75059C16.4491 7.75059 16.5892 7.72279 16.7198 7.66877C16.8505 7.61475 16.9692 7.53557 17.0692 7.43576C17.1692 7.33595 17.2485 7.21745 17.3026 7.08704C17.3568 6.95662 17.3846 6.81685 17.3846 6.67569C17.3846 6.53453 17.3568 6.39476 17.3026 6.26434C17.2485 6.13393 17.1692 6.01543 17.0692 5.91562C16.9692 5.81581 16.8505 5.73663 16.7198 5.68261C16.5892 5.62859 16.4491 5.60079 16.3077 5.60079C16.1447 5.60106 15.984 5.63823 15.8375 5.70951C15.6911 5.78079 15.5627 5.88431 15.4621 6.01228L12.6152 5.60814C12.5798 5.60177 12.5439 5.59896 12.508 5.59974ZM9.84615 12.0502C10.1318 12.0502 10.4057 12.1634 10.6077 12.365C10.8096 12.5666 10.9231 12.84 10.9231 13.1251C10.9231 13.2663 10.8952 13.406 10.8411 13.5364C10.787 13.6669 10.7077 13.7854 10.6077 13.8852C10.5077 13.985 10.3889 14.0642 10.2583 14.1182C10.1276 14.1722 9.98758 14.2 9.84615 14.2C9.70473 14.2 9.56469 14.1722 9.43403 14.1182C9.30337 14.0642 9.18465 13.985 9.08465 13.8852C8.98465 13.7854 8.90533 13.6669 8.85121 13.5364C8.79709 13.406 8.76923 13.2663 8.76923 13.1251C8.76923 12.84 8.88269 12.5666 9.08465 12.365C9.28662 12.1634 9.56054 12.0502 9.84615 12.0502ZM14.1538 12.0502C14.2953 12.0502 14.4353 12.078 14.566 12.132C14.6966 12.186 14.8153 12.2652 14.9153 12.365C15.0153 12.4648 15.0947 12.5833 15.1488 12.7138C15.2029 12.8442 15.2308 12.9839 15.2308 13.1251C15.2308 13.2663 15.2029 13.406 15.1488 13.5364C15.0947 13.6669 15.0153 13.7854 14.9153 13.8852C14.8153 13.985 14.6966 14.0642 14.566 14.1182C14.4353 14.1722 14.2953 14.2 14.1538 14.2C13.8682 14.2 13.5943 14.0868 13.3923 13.8852C13.1904 13.6836 13.0769 13.4102 13.0769 13.1251C13.0769 12.84 13.1904 12.5666 13.3923 12.365C13.5943 12.1634 13.8682 12.0502 14.1538 12.0502ZM14.6807 15.2592C14.7757 15.2559 14.8699 15.2778 14.9537 15.3225C15.0376 15.3671 15.1081 15.4331 15.1582 15.5137C15.2084 15.5943 15.2363 15.6867 15.2393 15.7815C15.2422 15.8763 15.2201 15.9702 15.175 16.0538C15.175 16.0538 14.9472 16.466 14.4515 16.7959C13.9557 17.1258 13.1656 17.4226 11.9989 17.4226C10.8323 17.4226 10.0422 17.1258 9.54642 16.7959C9.05067 16.466 8.82707 16.0538 8.82707 16.0538C8.78579 15.9751 8.76467 15.8875 8.7656 15.7987C8.76652 15.71 8.78947 15.6228 8.83239 15.545C8.8753 15.4672 8.93685 15.4013 9.01153 15.3531C9.08622 15.3048 9.17171 15.2758 9.26037 15.2686C9.27855 15.267 9.2968 15.2663 9.31505 15.2665C9.41447 15.2684 9.5114 15.2978 9.59512 15.3513C9.67884 15.4049 9.74607 15.4805 9.78936 15.5699C9.78936 15.5699 9.83078 15.6961 10.1427 15.9037C10.4547 16.1112 11.0118 16.3519 11.9989 16.3519C12.9861 16.3519 13.5432 16.1112 13.8552 15.9037C14.1671 15.6961 14.2096 15.5699 14.2096 15.5699C14.2518 15.4798 14.3181 15.403 14.4013 15.3482C14.4844 15.2934 14.5811 15.2625 14.6807 15.2592Z" fill="#F4F5F7"/>
</g>
<defs>
<filter id="filter0_d_101_1182" x="5" y="5.59961" width="14.8" height="13.7004" filterUnits="userSpaceOnUse" color-interpolation-filters="sRGB">
<feFlood flood-opacity="0" result="BackgroundImageFix"/>
<feColorMatrix in="SourceAlpha" type="matrix" values="0 0 0 0 0 0 0 0 0 0 0 0 0 0 0 0 0 0 127 0" result="hardAlpha"/>
<feOffset dx="0.4" dy="0.4"/>
<feGaussianBlur stdDeviation="0.2"/>
<feComposite in2="hardAlpha" operator="out"/>
<feColorMatrix type="matrix" values="0 0 0 0 0 0 0 0 0 0 0 0 0 0 0 0 0 0 0.25 0"/>
<feBlend mode="normal" in2="BackgroundImageFix" result="effect1_dropShadow_101_1182"/>
<feBlend mode="normal" in="SourceGraphic" in2="effect1_dropShadow_101_1182" result="shape"/>
</filter>
</defs>
</svg>
