<svg width="24" height="24" viewBox="0 0 24 24" fill="none" xmlns="http://www.w3.org/2000/svg">
<rect width="24" height="24" rx="6" fill="#32363B"/>
<g filter="url(#filter0_d_101_1210)">
<path d="M15.1992 4C14.8014 4 14.4199 4.15804 14.1386 4.43934C13.8573 4.72064 13.6992 5.10218 13.6992 5.5V18.5C13.6992 18.8978 13.8573 19.2794 14.1386 19.5607C14.4199 19.842 14.8014 20 15.1992 20C15.597 20 15.9786 19.842 16.2599 19.5607C16.5412 19.2794 16.6992 18.8978 16.6992 18.5V5.5C16.6992 5.10218 16.5412 4.72064 16.2599 4.43934C15.9786 4.15804 15.597 4 15.1992 4Z" fill="#4F9B7A"/>
</g>
<g filter="url(#filter1_d_101_1210)">
<path d="M8.80078 4C8.40296 4 8.02143 4.15804 7.74012 4.43934C7.45882 4.72064 7.30078 5.10218 7.30078 5.5V18.5C7.30078 18.8978 7.45882 19.2794 7.74012 19.5607C8.02143 19.842 8.40296 20 8.80078 20C9.19861 20 9.58014 19.842 9.86144 19.5607C10.1427 19.2794 10.3008 18.8978 10.3008 18.5V5.5C10.3008 5.10218 10.1427 4.72064 9.86144 4.43934C9.58014 4.15804 9.19861 4 8.80078 4Z" fill="#4F9B7A"/>
</g>
<g filter="url(#filter2_d_101_1210)">
<path d="M5.5 13.7002C5.10218 13.7002 4.72064 13.8582 4.43934 14.1395C4.15804 14.4208 4 14.8024 4 15.2002C4 15.598 4.15804 15.9796 4.43934 16.2609C4.72064 16.5422 5.10218 16.7002 5.5 16.7002H18.5C18.8978 16.7002 19.2794 16.5422 19.5607 16.2609C19.842 15.9796 20 15.598 20 15.2002C20 14.8024 19.842 14.4208 19.5607 14.1395C19.2794 13.8582 18.8978 13.7002 18.5 13.7002H5.5Z" fill="#6FBF9A"/>
</g>
<g filter="url(#filter3_d_101_1210)">
<path d="M5.5 7.2998C5.10218 7.2998 4.72064 7.45784 4.43934 7.73914C4.15804 8.02045 4 8.40198 4 8.7998C4 9.19763 4.15804 9.57916 4.43934 9.86047C4.72064 10.1418 5.10218 10.2998 5.5 10.2998H18.5C18.8978 10.2998 19.2794 10.1418 19.5607 9.86047C19.842 9.57916 20 9.19763 20 8.7998C20 8.40198 19.842 8.02045 19.5607 7.73914C19.2794 7.45784 18.8978 7.2998 18.5 7.2998H5.5Z" fill="#6FBF9A"/>
</g>
<defs>
<filter id="filter0_d_101_1210" x="13.6992" y="4" width="3.8" height="16.8" filterUnits="userSpaceOnUse" color-interpolation-filters="sRGB">
<feFlood flood-opacity="0" result="BackgroundImageFix"/>
<feColorMatrix in="SourceAlpha" type="matrix" values="0 0 0 0 0 0 0 0 0 0 0 0 0 0 0 0 0 0 127 0" result="hardAlpha"/>
<feOffset dx="0.4" dy="0.4"/>
<feGaussianBlur stdDeviation="0.2"/>
<feComposite in2="hardAlpha" operator="out"/>
<feColorMatrix type="matrix" values="0 0 0 0 0 0 0 0 0 0 0 0 0 0 0 0 0 0 0.25 0"/>
<feBlend mode="normal" in2="BackgroundImageFix" result="effect1_dropShadow_101_1210"/>
<feBlend mode="normal" in="SourceGraphic" in2="effect1_dropShadow_101_1210" result="shape"/>
</filter>
<filter id="filter1_d_101_1210" x="7.30078" y="4" width="3.8" height="16.8" filterUnits="userSpaceOnUse" color-interpolation-filters="sRGB">
<feFlood flood-opacity="0" result="BackgroundImageFix"/>
<feColorMatrix in="SourceAlpha" type="matrix" values="0 0 0 0 0 0 0 0 0 0 0 0 0 0 0 0 0 0 127 0" result="hardAlpha"/>
<feOffset dx="0.4" dy="0.4"/>
<feGaussianBlur stdDeviation="0.2"/>
<feComposite in2="hardAlpha" operator="out"/>
<feColorMatrix type="matrix" values="0 0 0 0 0 0 0 0 0 0 0 0 0 0 0 0 0 0 0.25 0"/>
<feBlend mode="normal" in2="BackgroundImageFix" result="effect1_dropShadow_101_1210"/>
<feBlend mode="normal" in="SourceGraphic" in2="effect1_dropShadow_101_1210" result="shape"/>
</filter>
<filter id="filter2_d_101_1210" x="4" y="13.7002" width="16.8" height="3.8" filterUnits="userSpaceOnUse" color-interpolation-filters="sRGB">
<feFlood flood-opacity="0" result="BackgroundImageFix"/>
<feColorMatrix in="SourceAlpha" type="matrix" values="0 0 0 0 0 0 0 0 0 0 0 0 0 0 0 0 0 0 127 0" result="hardAlpha"/>
<feOffset dx="0.4" dy="0.4"/>
<feGaussianBlur stdDeviation="0.2"/>
<feComposite in2="hardAlpha" operator="out"/>
<feColorMatrix type="matrix" values="0 0 0 0 0 0 0 0 0 0 0 0 0 0 0 0 0 0 0.25 0"/>
<feBlend mode="normal" in2="BackgroundImageFix" result="effect1_dropShadow_101_1210"/>
<feBlend mode="normal" in="SourceGraphic" in2="effect1_dropShadow_101_1210" result="shape"/>
</filter>
<filter id="filter3_d_101_1210" x="4" y="7.2998" width="16.8" height="3.8" filterUnits="userSpaceOnUse" color-interpolation-filters="sRGB">
<feFlood flood-opacity="0" result="BackgroundImageFix"/>
<feColorMatrix in="SourceAlpha" type="matrix" values="0 0 0 0 0 0 0 0 0 0 0 0 0 0 0 0 0 0 127 0" result="hardAlpha"/>
<feOffset dx="0.4" dy="0.4"/>
<feGaussianBlur stdDeviation="0.2"/>
<feComposite in2="hardAlpha" operator="out"/>
<feColorMatrix type="matrix" values="0 0 0 0 0 0 0 0 0 0 0 0 0 0 0 0 0 0 0.25 0"/>
<feBlend mode="normal" in2="BackgroundImageFix" result="effect1_dropShadow_101_1210"/>
<feBlend mode="normal" in="SourceGraphic" in2="effect1_dropShadow_101_1210" result="shape"/>
</filter>
</defs>
</svg>
