<svg width="24" height="24" viewBox="0 0 24 24" fill="none" xmlns="http://www.w3.org/2000/svg">
<rect width="24" height="24" rx="6" fill="#6B58A7"/>
<g filter="url(#filter0_d_131_126)">
<path d="M11.3762 5.58993C11.79 5.46999 12.2298 5.47005 12.6437 5.58993C13.1133 5.72994 13.5331 6.09524 14.3713 6.83017L17.5207 9.58017C17.8932 9.87168 18.2286 10.2075 18.5197 10.5802C18.695 10.8353 18.8237 11.1197 18.8996 11.42C18.9888 11.8926 19.0191 12.3745 18.9894 12.8546V15.1143C18.9894 16.2993 18.9894 16.8898 18.7648 17.3448C18.5975 17.6747 18.3475 17.9527 18.0422 18.1563C17.9818 18.1966 17.9203 18.2356 17.8557 18.2696C17.4112 18.4995 16.8276 18.5001 15.6642 18.5001H8.33612C7.31865 18.5001 6.74359 18.4998 6.31854 18.3458C6.25762 18.3237 6.19943 18.2984 6.14374 18.2696C6.09501 18.2438 6.04754 18.216 6.00116 18.1866C5.95473 18.1573 5.9093 18.1265 5.86542 18.0938C5.82141 18.061 5.77878 18.0264 5.73749 17.9903L5.61835 17.878C5.58007 17.8391 5.5432 17.7987 5.508 17.7569L5.40741 17.627C5.34328 17.5379 5.28567 17.4437 5.23554 17.3448C5.2075 17.288 5.18279 17.229 5.16132 17.1671C5.11836 17.0432 5.08754 16.9072 5.06561 16.752C5.04364 16.5966 5.03055 16.4219 5.02265 16.2208C5.01081 15.9196 5.01093 15.5586 5.01093 15.1143V12.8546C4.98122 12.3744 5.01237 11.8926 5.10077 11.42C5.17665 11.1198 5.30449 10.8353 5.47968 10.5802C5.77385 10.207 6.11294 9.871 6.48847 9.58017L6.70819 9.38974C6.71504 9.38889 6.72185 9.38765 6.7287 9.38681L9.64862 6.83017C10.4868 6.09025 10.9066 5.72994 11.3762 5.58993Z" fill="#F4F5F7"/>
</g>
<defs>
<filter id="filter0_d_131_126" x="5" y="5.5" width="14.8" height="13.8" filterUnits="userSpaceOnUse" color-interpolation-filters="sRGB">
<feFlood flood-opacity="0" result="BackgroundImageFix"/>
<feColorMatrix in="SourceAlpha" type="matrix" values="0 0 0 0 0 0 0 0 0 0 0 0 0 0 0 0 0 0 127 0" result="hardAlpha"/>
<feOffset dx="0.4" dy="0.4"/>
<feGaussianBlur stdDeviation="0.2"/>
<feComposite in2="hardAlpha" operator="out"/>
<feColorMatrix type="matrix" values="0 0 0 0 0 0 0 0 0 0 0 0 0 0 0 0 0 0 0.25 0"/>
<feBlend mode="normal" in2="BackgroundImageFix" result="effect1_dropShadow_131_126"/>
<feBlend mode="normal" in="SourceGraphic" in2="effect1_dropShadow_131_126" result="shape"/>
</filter>
</defs>
</svg>
