<svg width="24" height="24" viewBox="0 0 24 24" fill="none" xmlns="http://www.w3.org/2000/svg">
<rect width="24" height="24" rx="6" fill="#32363B"/>
<g filter="url(#filter0_d_112_199)">
<path fill-rule="evenodd" clip-rule="evenodd" d="M12.632 12.9895C12.7821 12.91 12.9566 13.0418 12.9212 13.2079L11.576 19.5278C11.5515 19.6427 11.631 19.7539 11.7477 19.768L11.8636 19.7819C11.9515 19.7925 12.0358 19.7441 12.071 19.663L14.675 13.663C14.7476 13.4956 14.988 13.5049 15.0475 13.6774L16.5701 18.0902C16.6116 18.2104 16.7533 18.2619 16.8623 18.1964L16.8736 18.1895C16.9426 18.148 16.98 18.0692 16.9685 17.9895L16.3296 13.5724C16.3014 13.3776 16.542 13.2635 16.675 13.4086L18.8114 15.7386C18.8921 15.8266 19.0341 15.8156 19.1003 15.7161C19.1386 15.6585 19.1414 15.5844 19.1076 15.5241L17.3283 12.3497C17.2376 12.1878 17.397 12.0004 17.5713 12.064L19.7244 12.8494C19.8568 12.8977 19.9963 12.7961 19.9928 12.6552C19.9913 12.5921 19.96 12.5329 19.9085 12.4964L17.7683 10.9797C17.6277 10.8801 17.6704 10.6612 17.8381 10.6218L19.6759 10.1899C19.7679 10.1683 19.8298 10.0822 19.821 9.98808C19.8131 9.9028 19.7488 9.8335 19.6643 9.81914L17.472 9.44628C17.3228 9.42088 17.2547 9.24523 17.348 9.12593L18.6076 7.5148C18.6666 7.43933 18.6613 7.332 18.5952 7.2627C18.5375 7.20232 18.4476 7.18582 18.3723 7.22179L16.5705 8.08247C16.4291 8.15005 16.2684 8.03599 16.2855 7.88015L16.5407 5.55962C16.5489 5.48468 16.509 5.41268 16.4411 5.37991C16.3582 5.33986 16.2583 5.36978 16.2111 5.44887L15.1248 7.26621C15.0418 7.40504 14.8369 7.39307 14.7707 7.24553L13.4513 4.3075C13.4243 4.24745 13.3655 4.20805 13.2997 4.20599C13.1943 4.20268 13.1107 4.2941 13.1235 4.39879L13.436 6.96599C13.4574 7.14229 13.2556 7.25702 13.1151 7.14837L9.66082 4.47704C9.60925 4.43716 9.53955 4.4299 9.48086 4.45829C9.38064 4.50678 9.35228 4.63632 9.42309 4.72225L11.7978 7.604C11.9247 7.758 11.7725 7.98248 11.5825 7.92168L6.47119 6.28652C6.39291 6.26148 6.30728 6.28688 6.25532 6.35055L6.21123 6.40456C6.13227 6.50129 6.16028 6.64592 6.26964 6.70619L10.7416 9.17064C10.9157 9.2666 10.8584 9.5303 10.6601 9.54524L4.2093 10.0314C4.11128 10.0388 4.03316 10.1163 4.02502 10.2143L4.01623 10.32C4.00721 10.4285 4.08656 10.5242 4.19479 10.5355L11.0439 11.2499C11.2213 11.2685 11.2876 11.4924 11.1488 11.6045L5.38722 16.2578C5.30353 16.3254 5.2883 16.4471 5.35275 16.5332L5.41669 16.6187C5.47571 16.6975 5.58337 16.7217 5.67042 16.6756L12.632 12.9895Z" fill="#D1C06A"/>
</g>
<defs>
<filter id="filter0_d_112_199" x="4.01562" y="4.20605" width="16.7766" height="16.3771" filterUnits="userSpaceOnUse" color-interpolation-filters="sRGB">
<feFlood flood-opacity="0" result="BackgroundImageFix"/>
<feColorMatrix in="SourceAlpha" type="matrix" values="0 0 0 0 0 0 0 0 0 0 0 0 0 0 0 0 0 0 127 0" result="hardAlpha"/>
<feOffset dx="0.4" dy="0.4"/>
<feGaussianBlur stdDeviation="0.2"/>
<feComposite in2="hardAlpha" operator="out"/>
<feColorMatrix type="matrix" values="0 0 0 0 0 0 0 0 0 0 0 0 0 0 0 0 0 0 0.25 0"/>
<feBlend mode="normal" in2="BackgroundImageFix" result="effect1_dropShadow_112_199"/>
<feBlend mode="normal" in="SourceGraphic" in2="effect1_dropShadow_112_199" result="shape"/>
</filter>
</defs>
</svg>
