<svg width="24" height="24" viewBox="0 0 24 24" fill="none" xmlns="http://www.w3.org/2000/svg">
<g clip-path="url(#clip0_128_191)">
<rect width="24" height="24" rx="6" fill="#32363B"/>
<g filter="url(#filter0_d_128_191)">
<path fill-rule="evenodd" clip-rule="evenodd" d="M18.782 10.9827C18.5415 10.4229 18.0917 9.97928 17.5287 9.74644C17.5948 9.45279 17.6325 9.19226 17.654 8.97702C17.671 8.80684 17.5339 8.66403 17.3629 8.66403H16.9316C16.7738 8.66403 16.6439 8.78634 16.6253 8.94299C16.6044 9.119 16.575 9.29397 16.5374 9.46729C15.7399 9.35335 14.8398 9.46729 13.9738 9.77492C13.877 9.21663 13.8143 8.69251 13.7801 8.23676C16.2279 8.10102 17.8779 7.61314 18.4962 7.3981C18.6484 7.34517 18.7156 7.17934 18.6533 7.03079L18.4547 6.55775C18.408 6.44635 18.3037 6.40039 18.1892 6.43879C17.668 6.6135 16.0895 7.08973 13.7459 7.2284C13.7459 6.93442 13.7418 6.76685 13.7397 6.65322C13.7363 6.47161 13.5958 6.3094 13.4141 6.30739L13.0017 6.3028C12.8483 6.3011 12.7187 6.41557 12.7163 6.56895C12.7138 6.72369 12.7171 6.93275 12.7205 7.26828H12.6237C11.9341 7.26828 11.2827 7.23012 10.9118 7.20369C10.758 7.19273 10.6198 7.29833 10.5919 7.44996L10.5137 7.87417C10.4813 8.04957 10.6083 8.2138 10.7863 8.22385C11.2121 8.24787 11.8852 8.27664 12.504 8.27664H12.6294L12.7604 8.27094C12.8003 8.84063 12.8743 9.50147 13.011 10.2193C11.6495 11.0169 10.5614 12.555 11.1197 13.8083C11.3475 14.3325 11.7976 14.6743 12.373 14.7597C12.4755 14.7711 12.5781 14.7825 12.6806 14.7825C13.2674 14.7825 13.9396 14.5489 14.5834 14.1502C14.7576 14.414 14.9519 14.664 15.1643 14.8978C15.2772 15.022 15.4706 15.0194 15.5869 14.8984L15.7992 14.6776C15.9393 14.5318 15.9345 14.2403 15.8053 14.0847C15.6922 13.9485 15.5518 13.7655 15.3981 13.5349C16.2253 12.7588 16.8611 11.8013 17.2553 10.7377C17.4831 10.8687 17.711 11.0624 17.8363 11.3587C18.1942 12.2286 17.7888 13.2199 17.3087 13.7915C17.2002 13.9207 17.1914 14.1145 17.3074 14.2371L17.5945 14.5406C17.7067 14.6592 17.894 14.6671 18.0049 14.5473C18.81 13.6764 19.3081 12.2495 18.7877 10.9827H18.782ZM12.5268 13.7571C12.4229 13.7483 12.3235 13.7105 12.2399 13.6481C12.1563 13.5856 12.0919 13.501 12.054 13.4039C11.8033 12.8285 12.3502 11.8828 13.2503 11.2561C13.4782 12.0537 13.763 12.7373 14.0536 13.2842C13.5067 13.626 12.9427 13.8197 12.5268 13.7571ZM15.0961 12.3898L14.8682 12.6291C14.6176 12.1164 14.3669 11.5011 14.1846 10.7719C14.8441 10.5071 15.5548 10.3941 16.264 10.4415C15.9959 11.158 15.6002 11.82 15.0961 12.3955V12.3898Z" fill="#F4F5F7"/>
</g>
<g filter="url(#filter1_d_128_191)">
<path d="M-0.000782161 -5.96046e-07H6.79593L17.1992 24H-0.000782161V-5.96046e-07Z" fill="#B04F58"/>
</g>
<g filter="url(#filter2_d_128_191)">
<path fill-rule="evenodd" clip-rule="evenodd" d="M8.53545 9.89453C8.41583 9.89453 8.30764 9.96559 8.26013 10.0754L5.18141 17.189C5.09568 17.3871 5.24089 17.6082 5.45673 17.6082H6.16394C6.28672 17.6082 6.3971 17.5333 6.44259 17.4193L7.11229 15.7404C7.15778 15.6264 7.26816 15.5516 7.39094 15.5516H10.3626C10.4854 15.5516 10.5957 15.6264 10.6412 15.7404L11.3109 17.4193C11.3564 17.5333 11.4668 17.6082 11.5896 17.6082H12.2968C12.5126 17.6082 12.6578 17.3871 12.5721 17.189L9.49338 10.0754C9.44587 9.96559 9.33768 9.89453 9.21806 9.89453H8.53545ZM8.59702 12.1584C8.69878 11.9105 9.04972 11.9103 9.15188 12.158L9.95063 14.0947C10.0321 14.2921 9.8869 14.509 9.67329 14.509H8.07944C7.86604 14.509 7.72087 14.2925 7.80192 14.0951L8.59702 12.1584Z" fill="#F4F5F7"/>
</g>
</g>
<defs>
<filter id="filter0_d_128_191" x="10.5078" y="6.30273" width="9.29219" height="9.48726" filterUnits="userSpaceOnUse" color-interpolation-filters="sRGB">
<feFlood flood-opacity="0" result="BackgroundImageFix"/>
<feColorMatrix in="SourceAlpha" type="matrix" values="0 0 0 0 0 0 0 0 0 0 0 0 0 0 0 0 0 0 127 0" result="hardAlpha"/>
<feOffset dx="0.4" dy="0.4"/>
<feGaussianBlur stdDeviation="0.2"/>
<feComposite in2="hardAlpha" operator="out"/>
<feColorMatrix type="matrix" values="0 0 0 0 0 0 0 0 0 0 0 0 0 0 0 0 0 0 0.25 0"/>
<feBlend mode="normal" in2="BackgroundImageFix" result="effect1_dropShadow_128_191"/>
<feBlend mode="normal" in="SourceGraphic" in2="effect1_dropShadow_128_191" result="shape"/>
</filter>
<filter id="filter1_d_128_191" x="0" y="0" width="17.9992" height="24.8" filterUnits="userSpaceOnUse" color-interpolation-filters="sRGB">
<feFlood flood-opacity="0" result="BackgroundImageFix"/>
<feColorMatrix in="SourceAlpha" type="matrix" values="0 0 0 0 0 0 0 0 0 0 0 0 0 0 0 0 0 0 127 0" result="hardAlpha"/>
<feOffset dx="0.4" dy="0.4"/>
<feGaussianBlur stdDeviation="0.2"/>
<feComposite in2="hardAlpha" operator="out"/>
<feColorMatrix type="matrix" values="0 0 0 0 0 0 0 0 0 0 0 0 0 0 0 0 0 0 0.25 0"/>
<feBlend mode="normal" in2="BackgroundImageFix" result="effect1_dropShadow_128_191"/>
<feBlend mode="normal" in="SourceGraphic" in2="effect1_dropShadow_128_191" result="shape"/>
</filter>
<filter id="filter2_d_128_191" x="5.15625" y="9.89453" width="8.24141" height="8.51362" filterUnits="userSpaceOnUse" color-interpolation-filters="sRGB">
<feFlood flood-opacity="0" result="BackgroundImageFix"/>
<feColorMatrix in="SourceAlpha" type="matrix" values="0 0 0 0 0 0 0 0 0 0 0 0 0 0 0 0 0 0 127 0" result="hardAlpha"/>
<feOffset dx="0.4" dy="0.4"/>
<feGaussianBlur stdDeviation="0.2"/>
<feComposite in2="hardAlpha" operator="out"/>
<feColorMatrix type="matrix" values="0 0 0 0 0 0 0 0 0 0 0 0 0 0 0 0 0 0 0.25 0"/>
<feBlend mode="normal" in2="BackgroundImageFix" result="effect1_dropShadow_128_191"/>
<feBlend mode="normal" in="SourceGraphic" in2="effect1_dropShadow_128_191" result="shape"/>
</filter>
<clipPath id="clip0_128_191">
<rect width="24" height="24" rx="6" fill="white"/>
</clipPath>
</defs>
</svg>
