<svg width="24" height="24" viewBox="0 0 24 24" fill="none" xmlns="http://www.w3.org/2000/svg">
<g clip-path="url(#clip0_112_210)">
<rect width="24" height="24" rx="6" fill="#32363B"/>
<g filter="url(#filter0_d_112_210)">
<path fill-rule="evenodd" clip-rule="evenodd" d="M18.782 10.9827C18.5415 10.4229 18.0917 9.97929 17.5287 9.74644C17.6313 9.29069 17.6654 8.91469 17.6768 8.66403H16.6514C16.6329 8.93419 16.5949 9.20265 16.5374 9.46729C15.7399 9.35335 14.8398 9.46729 13.9738 9.77492C13.877 9.21663 13.8143 8.69251 13.7801 8.23676C16.8622 8.06585 18.6795 7.33664 18.7649 7.29677L18.3775 6.37386C18.3605 6.37386 16.6343 7.05749 13.7459 7.2284C13.7459 6.53908 13.7232 6.54477 13.7573 6.3112L12.7319 6.2998C12.7091 6.4935 12.7148 6.69859 12.7205 7.26828H12.6237C11.7008 7.26828 10.8462 7.19992 10.6411 7.18283L10.4531 8.20258C10.7551 8.22536 11.678 8.27664 12.504 8.27664H12.6294L12.7604 8.27094C12.8003 8.84063 12.8743 9.50147 13.011 10.2193C11.6495 11.0169 10.5614 12.555 11.1197 13.8083C11.3475 14.3325 11.7976 14.6743 12.373 14.7597C12.4755 14.7711 12.5781 14.7825 12.6806 14.7825C13.2674 14.7825 13.9396 14.5489 14.5834 14.1502C14.8138 14.4991 15.0791 14.8236 15.3753 15.1186L16.0817 14.3837C16.0703 14.378 15.7741 14.0989 15.3981 13.5349C16.2253 12.7588 16.8611 11.8013 17.2553 10.7377C17.4831 10.8687 17.711 11.0624 17.8363 11.3587C18.2465 12.3556 17.654 13.5121 17.0957 14.0134L17.7965 14.754C18.7194 13.9166 19.3517 12.3556 18.7877 10.9827H18.782ZM12.5268 13.7571C12.4229 13.7483 12.3235 13.7105 12.2399 13.6481C12.1563 13.5856 12.0919 13.501 12.054 13.4039C11.8033 12.8285 12.3502 11.8828 13.2503 11.2561C13.4782 12.0537 13.763 12.7373 14.0536 13.2842C13.5067 13.626 12.9427 13.8197 12.5268 13.7571ZM15.0961 12.3898L14.8682 12.6291C14.6176 12.1164 14.3669 11.5011 14.1846 10.7719C14.8441 10.5071 15.5548 10.3941 16.264 10.4415C15.9959 11.158 15.6002 11.82 15.0961 12.3955V12.3898Z" fill="#F4F5F7"/>
</g>
<g filter="url(#filter1_d_112_210)">
<path d="M-0.000782161 -5.96046e-07H6.79593L17.1992 24H-0.000782161V-5.96046e-07Z" fill="#B04F58"/>
</g>
<g filter="url(#filter2_d_112_210)">
<path fill-rule="evenodd" clip-rule="evenodd" d="M8.3384 9.89453L5 17.6082H6.36726L7.18762 15.5516H10.5659L11.3863 17.6082H12.7535L9.41512 9.89453H8.3327H8.3384ZM8.87391 11.484L10.1215 14.509H7.63198L8.87391 11.484Z" fill="#F4F5F7"/>
</g>
</g>
<defs>
<filter id="filter0_d_112_210" x="10.4531" y="6.2998" width="9.34688" height="9.61885" filterUnits="userSpaceOnUse" color-interpolation-filters="sRGB">
<feFlood flood-opacity="0" result="BackgroundImageFix"/>
<feColorMatrix in="SourceAlpha" type="matrix" values="0 0 0 0 0 0 0 0 0 0 0 0 0 0 0 0 0 0 127 0" result="hardAlpha"/>
<feOffset dx="0.4" dy="0.4"/>
<feGaussianBlur stdDeviation="0.2"/>
<feComposite in2="hardAlpha" operator="out"/>
<feColorMatrix type="matrix" values="0 0 0 0 0 0 0 0 0 0 0 0 0 0 0 0 0 0 0.25 0"/>
<feBlend mode="normal" in2="BackgroundImageFix" result="effect1_dropShadow_112_210"/>
<feBlend mode="normal" in="SourceGraphic" in2="effect1_dropShadow_112_210" result="shape"/>
</filter>
<filter id="filter1_d_112_210" x="0" y="0" width="17.9992" height="24.8" filterUnits="userSpaceOnUse" color-interpolation-filters="sRGB">
<feFlood flood-opacity="0" result="BackgroundImageFix"/>
<feColorMatrix in="SourceAlpha" type="matrix" values="0 0 0 0 0 0 0 0 0 0 0 0 0 0 0 0 0 0 127 0" result="hardAlpha"/>
<feOffset dx="0.4" dy="0.4"/>
<feGaussianBlur stdDeviation="0.2"/>
<feComposite in2="hardAlpha" operator="out"/>
<feColorMatrix type="matrix" values="0 0 0 0 0 0 0 0 0 0 0 0 0 0 0 0 0 0 0.25 0"/>
<feBlend mode="normal" in2="BackgroundImageFix" result="effect1_dropShadow_112_210"/>
<feBlend mode="normal" in="SourceGraphic" in2="effect1_dropShadow_112_210" result="shape"/>
</filter>
<filter id="filter2_d_112_210" x="5" y="9.89453" width="8.55391" height="8.51387" filterUnits="userSpaceOnUse" color-interpolation-filters="sRGB">
<feFlood flood-opacity="0" result="BackgroundImageFix"/>
<feColorMatrix in="SourceAlpha" type="matrix" values="0 0 0 0 0 0 0 0 0 0 0 0 0 0 0 0 0 0 127 0" result="hardAlpha"/>
<feOffset dx="0.4" dy="0.4"/>
<feGaussianBlur stdDeviation="0.2"/>
<feComposite in2="hardAlpha" operator="out"/>
<feColorMatrix type="matrix" values="0 0 0 0 0 0 0 0 0 0 0 0 0 0 0 0 0 0 0.25 0"/>
<feBlend mode="normal" in2="BackgroundImageFix" result="effect1_dropShadow_112_210"/>
<feBlend mode="normal" in="SourceGraphic" in2="effect1_dropShadow_112_210" result="shape"/>
</filter>
<clipPath id="clip0_112_210">
<rect width="24" height="24" rx="6" fill="white"/>
</clipPath>
</defs>
</svg>
