<svg width="24" height="24" viewBox="0 0 24 24" fill="none" xmlns="http://www.w3.org/2000/svg">
<rect width="24" height="24" rx="6" fill="#F4F5F7"/>
<g filter="url(#filter0_d_279_823)">
<path d="M13.922 7.15292C14.7342 5.88656 16.4179 5.51922 17.6827 6.33242L17.7487 6.37476C19.0135 7.18799 19.3803 8.87389 18.5681 10.1403L14.3308 16.7471C13.5186 18.0135 11.8348 18.3808 10.57 17.5676C10.57 17.5676 10.5099 17.529 10.5041 17.5253C10.4984 17.5216 10.487 17.514 10.487 17.514C10.487 17.514 9.79535 17.0034 9.55061 16.6218L5.43185 10.1999C4.61967 8.93356 4.98655 7.24774 6.25133 6.43451L6.31727 6.39217C7.58207 5.57895 9.26577 5.94629 10.078 7.21267L11.9808 10.1795L13.922 7.15292Z" fill="#4F5F9F"/>
</g>
<defs>
<filter id="filter0_d_279_823" x="5" y="5.90002" width="14.8" height="12.9" filterUnits="userSpaceOnUse" color-interpolation-filters="sRGB">
<feFlood flood-opacity="0" result="BackgroundImageFix"/>
<feColorMatrix in="SourceAlpha" type="matrix" values="0 0 0 0 0 0 0 0 0 0 0 0 0 0 0 0 0 0 127 0" result="hardAlpha"/>
<feOffset dx="0.4" dy="0.4"/>
<feGaussianBlur stdDeviation="0.2"/>
<feComposite in2="hardAlpha" operator="out"/>
<feColorMatrix type="matrix" values="0 0 0 0 0 0 0 0 0 0 0 0 0 0 0 0 0 0 0.25 0"/>
<feBlend mode="normal" in2="BackgroundImageFix" result="effect1_dropShadow_279_823"/>
<feBlend mode="normal" in="SourceGraphic" in2="effect1_dropShadow_279_823" result="shape"/>
</filter>
</defs>
</svg>
