<svg width="24" height="24" viewBox="0 0 24 24" fill="none" xmlns="http://www.w3.org/2000/svg">
<rect width="24" height="24" rx="6" fill="#32363B"/>
<g filter="url(#filter0_d_189_165)">
<path d="M17.422 17.6099C17.422 18.3777 16.7996 19 16.0319 19H8.6844C7.47799 19 6.5 18.022 6.5 16.8156V16.5177C6.5 15.3113 7.47799 14.3333 8.6844 14.3333H10.5709C11.3386 14.3333 11.961 13.711 11.961 12.9433L11.9328 11.0778C11.921 10.3019 12.5467 9.66668 13.3227 9.66668H16.0319C16.7996 9.66668 17.422 9.04433 17.422 8.27661V17.6099Z" fill="#6B58A7"/>
</g>
<g opacity="0.75" filter="url(#filter1_d_189_165)">
<path d="M17.4214 12.9433C17.4214 13.711 16.799 14.3333 16.0313 14.3333H10.5703C11.338 14.3333 11.9604 13.711 11.9604 12.9433L11.9322 11.0778C11.9204 10.3019 12.5461 9.66668 13.322 9.66668H16.0313C16.799 9.66668 17.4214 9.04433 17.4214 8.27661V12.9433Z" fill="#8A78C8"/>
</g>
<g filter="url(#filter2_d_189_165)">
<path d="M16.0319 5C16.7996 5 17.422 5.62236 17.422 6.39007V8.2766C17.422 9.04431 16.7996 9.66667 16.0319 9.66667H13.3226C12.5467 9.66667 11.921 10.3019 11.9327 11.0778L11.961 12.9433C11.961 13.711 11.3386 14.3333 10.5709 14.3333H8.6844C7.47799 14.3333 6.5 15.3113 6.5 16.5177V7.1844C6.5 5.97799 7.47799 5 8.6844 5H16.0319Z" fill="#8A78C8"/>
</g>
<defs>
<filter id="filter0_d_189_165" x="6.5" y="8.27661" width="11.7219" height="11.5234" filterUnits="userSpaceOnUse" color-interpolation-filters="sRGB">
<feFlood flood-opacity="0" result="BackgroundImageFix"/>
<feColorMatrix in="SourceAlpha" type="matrix" values="0 0 0 0 0 0 0 0 0 0 0 0 0 0 0 0 0 0 127 0" result="hardAlpha"/>
<feOffset dx="0.4" dy="0.4"/>
<feGaussianBlur stdDeviation="0.2"/>
<feComposite in2="hardAlpha" operator="out"/>
<feColorMatrix type="matrix" values="0 0 0 0 0 0 0 0 0 0 0 0 0 0 0 0 0 0 0.25 0"/>
<feBlend mode="normal" in2="BackgroundImageFix" result="effect1_dropShadow_189_165"/>
<feBlend mode="normal" in="SourceGraphic" in2="effect1_dropShadow_189_165" result="shape"/>
</filter>
<filter id="filter1_d_189_165" x="10.1703" y="8.27661" width="7.65156" height="6.85664" filterUnits="userSpaceOnUse" color-interpolation-filters="sRGB">
<feFlood flood-opacity="0" result="BackgroundImageFix"/>
<feColorMatrix in="SourceAlpha" type="matrix" values="0 0 0 0 0 0 0 0 0 0 0 0 0 0 0 0 0 0 127 0" result="hardAlpha"/>
<feOffset dy="0.4"/>
<feGaussianBlur stdDeviation="0.2"/>
<feComposite in2="hardAlpha" operator="out"/>
<feColorMatrix type="matrix" values="0 0 0 0 0 0 0 0 0 0 0 0 0 0 0 0 0 0 0.25 0"/>
<feBlend mode="normal" in2="BackgroundImageFix" result="effect1_dropShadow_189_165"/>
<feBlend mode="normal" in="SourceGraphic" in2="effect1_dropShadow_189_165" result="shape"/>
</filter>
<filter id="filter2_d_189_165" x="6.5" y="5" width="11.7219" height="12.3178" filterUnits="userSpaceOnUse" color-interpolation-filters="sRGB">
<feFlood flood-opacity="0" result="BackgroundImageFix"/>
<feColorMatrix in="SourceAlpha" type="matrix" values="0 0 0 0 0 0 0 0 0 0 0 0 0 0 0 0 0 0 127 0" result="hardAlpha"/>
<feOffset dx="0.4" dy="0.4"/>
<feGaussianBlur stdDeviation="0.2"/>
<feComposite in2="hardAlpha" operator="out"/>
<feColorMatrix type="matrix" values="0 0 0 0 0 0 0 0 0 0 0 0 0 0 0 0 0 0 0.25 0"/>
<feBlend mode="normal" in2="BackgroundImageFix" result="effect1_dropShadow_189_165"/>
<feBlend mode="normal" in="SourceGraphic" in2="effect1_dropShadow_189_165" result="shape"/>
</filter>
</defs>
</svg>
