<svg width="24" height="24" viewBox="0 0 24 24" fill="none" xmlns="http://www.w3.org/2000/svg">
<rect width="24" height="24" rx="6" fill="#32363B"/>
<g filter="url(#filter0_d_291_3351)">
<path d="M14.4517 15.9759V17.4442C14.4517 18.3032 13.7573 19 12.9007 19C12.044 19 11.3496 18.304 11.3496 17.4442V13.6L12.9007 14.1879L14.4517 15.9759Z" fill="#4F9B7A"/>
<path d="M14.4517 6.55579V15.9758L11.3496 13.5999V9.55355L13.8878 7.45526C14.26 7.14823 14.0006 7.04995 14.4517 6.55579Z" fill="#3F79AD"/>
</g>
<g filter="url(#filter1_d_291_3351)">
<path d="M14.4501 6.50173C14.4509 6.51923 14.4509 6.53673 14.4509 6.55502C14.4509 7.00284 14.2592 7.44747 13.887 7.7545L11.3488 9.85279C11.1202 9.3385 11.0479 8.97298 11.0488 8.2043V6.55582C11.0488 6.04676 11.593 5.59338 11.9724 5.30941C11.9995 5.28873 12.0265 5.26964 12.0559 5.25135C12.0695 5.2426 12.0822 5.23385 12.0957 5.2259C12.1204 5.20999 12.1466 5.19567 12.1705 5.18294L12.2389 5.14874L12.2962 5.12249C12.3192 5.11295 12.3423 5.1034 12.367 5.09465C12.39 5.0859 12.4147 5.07795 12.4385 5.07C12.4831 5.05647 12.5284 5.04375 12.5753 5.0342C12.5889 5.03102 12.6032 5.02863 12.6183 5.02545C12.6286 5.02386 12.639 5.02227 12.6493 5.02068C12.6676 5.0175 12.6859 5.01511 12.7042 5.01273C12.7257 5.00954 12.7472 5.00716 12.7694 5.00557C12.7869 5.00398 12.8044 5.00239 12.8219 5.00159C12.8474 5.0008 12.8736 5 12.8999 5H12.9007C12.9571 5 13.012 5.00318 13.0677 5.00875C13.0948 5.01193 13.1226 5.01591 13.1512 5.02068C13.1783 5.02466 13.2053 5.03023 13.2339 5.03659C13.261 5.04216 13.288 5.04932 13.3151 5.05727C13.3374 5.06284 13.3604 5.07 13.3827 5.07795C13.4264 5.09227 13.4702 5.10818 13.5115 5.12647C13.5322 5.13522 13.5529 5.14476 13.5736 5.15431C13.5998 5.16704 13.6261 5.18056 13.6515 5.19408C13.6897 5.21556 13.7263 5.23783 13.7629 5.26248C13.7669 5.26567 13.7708 5.26805 13.7748 5.27044C13.8138 5.29748 13.8512 5.32691 13.8886 5.35714C13.9069 5.37305 13.9252 5.38816 13.9435 5.40486L13.945 5.40645C13.9625 5.42316 13.98 5.43986 13.9975 5.45736C14.015 5.47486 14.0325 5.49315 14.0492 5.51065C14.0834 5.54724 14.1145 5.58622 14.1439 5.62599C14.1646 5.65303 14.1837 5.68167 14.202 5.7095C14.2107 5.72303 14.2195 5.73575 14.2274 5.74928C14.2433 5.77393 14.2576 5.80018 14.2704 5.82404C14.2799 5.84313 14.295 5.87415 14.3046 5.89245C14.3133 5.91154 14.3221 5.93063 14.33 5.94972C14.3396 5.97279 14.3491 5.99665 14.3579 6.02051C14.3666 6.04358 14.3746 6.06823 14.3817 6.0921C14.3921 6.1263 14.4008 6.1605 14.4088 6.19391C14.4135 6.20982 14.4167 6.22493 14.4191 6.24084C14.4239 6.26311 14.4279 6.28459 14.4318 6.30606C14.435 6.32356 14.4366 6.34106 14.439 6.35856C14.4422 6.38003 14.4446 6.40151 14.4462 6.42378C14.4477 6.44128 14.4493 6.45878 14.4501 6.47628C14.4493 6.48423 14.4501 6.49298 14.4501 6.50173Z" fill="#B04F58"/>
<path d="M11.9122 5.35479C11.9312 5.33888 11.9511 5.32377 11.971 5.30945C11.5932 5.59341 11.349 6.046 11.349 6.55585V9.85362L10.0318 10.9441C9.74387 11.1835 9.39548 11.2989 9.04789 11.2989C8.60166 11.2989 8.15862 11.1064 7.85318 10.7333C7.30992 10.07 7.40378 9.09003 8.06317 8.54438L11.9122 5.35479Z" fill="#B8A64F"/>
</g>
<defs>
<filter id="filter0_d_291_3351" x="11.3496" y="6.55579" width="3.90156" height="13.2442" filterUnits="userSpaceOnUse" color-interpolation-filters="sRGB">
<feFlood flood-opacity="0" result="BackgroundImageFix"/>
<feColorMatrix in="SourceAlpha" type="matrix" values="0 0 0 0 0 0 0 0 0 0 0 0 0 0 0 0 0 0 127 0" result="hardAlpha"/>
<feOffset dx="0.4" dy="0.4"/>
<feGaussianBlur stdDeviation="0.2"/>
<feComposite in2="hardAlpha" operator="out"/>
<feColorMatrix type="matrix" values="0 0 0 0 0 0 0 0 0 0 0 0 0 0 0 0 0 0 0.25 0"/>
<feBlend mode="normal" in2="BackgroundImageFix" result="effect1_dropShadow_291_3351"/>
<feBlend mode="normal" in="SourceGraphic" in2="effect1_dropShadow_291_3351" result="shape"/>
</filter>
<filter id="filter1_d_291_3351" x="7.5" y="5" width="7.75117" height="7.09883" filterUnits="userSpaceOnUse" color-interpolation-filters="sRGB">
<feFlood flood-opacity="0" result="BackgroundImageFix"/>
<feColorMatrix in="SourceAlpha" type="matrix" values="0 0 0 0 0 0 0 0 0 0 0 0 0 0 0 0 0 0 127 0" result="hardAlpha"/>
<feOffset dx="0.4" dy="0.4"/>
<feGaussianBlur stdDeviation="0.2"/>
<feComposite in2="hardAlpha" operator="out"/>
<feColorMatrix type="matrix" values="0 0 0 0 0 0 0 0 0 0 0 0 0 0 0 0 0 0 0.25 0"/>
<feBlend mode="normal" in2="BackgroundImageFix" result="effect1_dropShadow_291_3351"/>
<feBlend mode="normal" in="SourceGraphic" in2="effect1_dropShadow_291_3351" result="shape"/>
</filter>
</defs>
</svg>
