<svg width="24" height="24" viewBox="0 0 24 24" fill="none" xmlns="http://www.w3.org/2000/svg">
<rect width="24" height="24" rx="6" fill="#32363B"/>
<g filter="url(#filter0_d_101_1170)">
<path d="M12.3937 4.40042C11.2962 4.40012 10.1993 4.40182 9.10121 4.40666C8.75676 4.40908 8.40795 4.44032 8.07083 4.51231C7.66286 4.59869 7.27153 4.74532 6.91243 4.96846C6.61439 5.15321 6.33523 5.35672 6.09583 5.61105C5.73184 5.99495 5.45113 6.42699 5.26059 6.92606C5.136 7.25237 5.06841 7.58821 5.02443 7.92412C4.95115 8.46878 5.05092 8.75203 5.2146 9.27269C5.32209 9.6158 5.48042 9.9386 5.68318 10.2409C5.98854 10.6968 6.35253 11.0957 6.81424 11.3956C7.06097 11.5564 7.3184 11.6978 7.5749 11.8418C7.78255 11.9594 7.99245 12.0671 8.20009 12.1799L8.74946 12.4757C9.08658 12.658 9.42648 12.838 9.75871 13.0275C9.85887 13.0851 10.0027 13.1036 10.0222 13.2811C9.96603 13.2835 9.91699 13.2886 9.87057 13.2911C9.33314 13.2911 8.79599 13.2816 8.26099 13.2935C7.83593 13.3031 7.41117 13.3246 7.00565 13.4974C6.71738 13.6197 6.44079 13.759 6.19651 13.9486C5.74457 14.2989 5.41492 14.7456 5.2146 15.2735C5.08268 15.6214 4.99983 15.9856 5.01449 16.3623C5.02182 16.559 5.05366 17.0107 5.09031 17.205C5.12206 17.3706 5.1561 17.5412 5.22206 17.6947C5.3784 18.0642 5.58873 18.4051 5.8721 18.7002C6.29961 19.1417 6.81979 19.436 7.41829 19.5728C7.71633 19.6423 8.03149 19.6672 8.3393 19.6672C10.5306 19.6744 12.7218 19.6769 14.9131 19.6697C15.5165 19.6673 16.1025 19.5688 16.6619 19.3217C17.043 19.1537 17.387 18.9351 17.6972 18.6592C18.0197 18.3713 18.2937 18.0428 18.4989 17.6661C18.6211 17.4406 18.7216 17.1999 18.8022 16.9552C18.873 16.7464 18.9096 16.5235 18.9389 16.3051C18.9682 16.0868 18.9996 15.861 18.9849 15.6426C18.9556 15.2228 18.8804 15.0652 18.7313 14.667C18.5897 14.2927 18.4065 13.942 18.1695 13.6229C17.852 13.1934 17.4727 12.8265 17.0012 12.5602C16.6323 12.3515 16.2663 12.1377 15.895 11.9338C15.6287 11.785 15.3521 11.6489 15.0834 11.505C14.7511 11.325 14.4164 11.1427 14.0866 10.9556C14.0426 10.9316 14.0239 10.8708 13.9921 10.8276C14.0336 10.8108 14.0749 10.7828 14.1164 10.7828C14.5366 10.7804 14.959 10.7851 15.3792 10.7804C15.8409 10.7756 16.308 10.8156 16.7501 10.6548C17.0189 10.5564 17.2852 10.4485 17.5319 10.3118C17.8715 10.1222 18.1596 9.86383 18.3721 9.53992C18.5285 9.29998 18.6774 9.05197 18.7923 8.79044C18.8753 8.60089 18.8901 8.38535 18.9414 8.18141C19.0782 7.64635 18.9557 6.87833 18.7773 6.38166C18.6454 6.01211 18.4208 5.685 18.1472 5.39227C17.7246 4.94119 17.2021 4.65359 16.6084 4.50483C16.3104 4.43045 15.9952 4.40664 15.6874 4.40664C14.5894 4.40301 13.4912 4.40074 12.3937 4.40042ZM12.3937 5.67317C13.4896 5.67349 14.5867 5.67578 15.6837 5.67941C15.685 5.67941 15.6862 5.67941 15.6875 5.67941C15.9296 5.67941 16.1448 5.70152 16.3002 5.74031C16.6885 5.8379 16.9698 5.99665 17.2187 6.26234C17.4058 6.46274 17.5213 6.64702 17.5792 6.80922V6.8117C17.828 7.7424 17.6745 8.2148 17.307 8.84263C17.2137 8.98437 17.0884 9.10196 16.9117 9.20059C16.7568 9.28612 16.5525 9.3713 16.3127 9.45912C16.204 9.49809 15.9082 9.50199 15.3655 9.50759H15.3643C14.3883 9.52736 13.6496 9.49142 12.6361 9.49142H11.9997C11.3634 9.49142 11.3633 10.1079 11.3633 10.1079V12.4856C10.5084 11.972 10.1223 11.7706 9.35476 11.357C9.35393 11.3566 9.35311 11.3562 9.35228 11.3558L8.80291 11.06L8.80787 11.0612C8.58287 10.939 8.38031 10.835 8.20257 10.7343L8.19761 10.7319C7.93454 10.5842 7.70269 10.4553 7.50903 10.3292H7.50776C6.47389 9.52934 6.17338 8.43995 6.45003 7.37971C6.57931 7.0411 6.75855 6.76229 7.01929 6.48729C7.02056 6.48608 7.02177 6.48481 7.02304 6.48354C7.15624 6.34203 7.3388 6.2015 7.5836 6.04976C7.80294 5.91346 8.05056 5.81775 8.33432 5.75767C8.33515 5.75726 8.33598 5.75684 8.3368 5.7564C8.5714 5.70631 8.83483 5.6814 9.10741 5.67934C10.2031 5.6745 11.2978 5.67293 12.3937 5.67317ZM12.6361 11.577C13.2476 11.9427 13.9073 12.313 14.4768 12.6236C14.4785 12.6249 14.4801 12.6261 14.4818 12.6273C14.7767 12.7853 15.0476 12.9181 15.2748 13.045C15.2773 13.0462 15.2797 13.0474 15.2822 13.0487C15.634 13.2419 15.9958 13.4533 16.3748 13.6677V13.669C16.6649 13.8329 16.9111 14.0613 17.1466 14.3799L17.1479 14.3812C17.306 14.594 17.4344 14.8362 17.5407 15.117C17.6974 15.5348 17.6945 15.4417 17.7147 15.731C17.7171 15.771 17.707 15.9154 17.6774 16.1362C17.6514 16.3295 17.6216 16.4726 17.5966 16.5463C17.5953 16.5501 17.5941 16.5538 17.5928 16.5575C17.533 16.7392 17.4611 16.9104 17.3803 17.0597C17.2542 17.2905 17.0798 17.5042 16.8496 17.7097C16.6394 17.8964 16.4148 18.0398 16.1486 18.1572H16.1473C15.7744 18.3219 15.377 18.395 14.9093 18.3971C12.7218 18.4042 10.5325 18.4018 8.343 18.3946C8.34172 18.3946 8.34051 18.3946 8.33924 18.3946C8.10003 18.3946 7.87785 18.3734 7.70784 18.3337C7.70574 18.3333 7.7037 18.3328 7.7016 18.3324C7.33459 18.2484 7.0539 18.0891 6.7893 17.8166C6.62802 17.6481 6.49984 17.4489 6.39405 17.1989C6.39322 17.1968 6.3924 17.1947 6.39157 17.1926C6.39787 17.2073 6.37114 17.1243 6.34061 16.9652C6.34487 16.9848 6.29081 16.4464 6.28592 16.3151V16.3138V16.3126C6.27974 16.1542 6.31425 15.963 6.404 15.7259V15.7246C6.52449 15.4076 6.70138 15.1679 6.97574 14.9553L6.97701 14.954C7.09224 14.8646 7.26467 14.7704 7.50277 14.6694L7.50404 14.6681C7.64975 14.606 7.88824 14.5752 8.28956 14.5662C8.79041 14.555 9.31811 14.5637 9.87056 14.5637C9.89252 14.5639 9.91449 14.5635 9.93643 14.5624C10.3886 14.5637 10.8678 14.5824 11.3633 14.5824H11.9612C11.9612 14.5824 12.6361 14.5821 12.6361 13.9784V13.3097V11.577Z" fill="#6FBF9A"/>
</g>
<defs>
<filter id="filter0_d_101_1170" x="5" y="4.40039" width="14.8" height="16.0734" filterUnits="userSpaceOnUse" color-interpolation-filters="sRGB">
<feFlood flood-opacity="0" result="BackgroundImageFix"/>
<feColorMatrix in="SourceAlpha" type="matrix" values="0 0 0 0 0 0 0 0 0 0 0 0 0 0 0 0 0 0 127 0" result="hardAlpha"/>
<feOffset dx="0.4" dy="0.4"/>
<feGaussianBlur stdDeviation="0.2"/>
<feComposite in2="hardAlpha" operator="out"/>
<feColorMatrix type="matrix" values="0 0 0 0 0 0 0 0 0 0 0 0 0 0 0 0 0 0 0.25 0"/>
<feBlend mode="normal" in2="BackgroundImageFix" result="effect1_dropShadow_101_1170"/>
<feBlend mode="normal" in="SourceGraphic" in2="effect1_dropShadow_101_1170" result="shape"/>
</filter>
</defs>
</svg>
