<svg width="24" height="24" viewBox="0 0 24 24" fill="none" xmlns="http://www.w3.org/2000/svg">
<rect width="24" height="24" rx="6" fill="#32363B"/>
<g filter="url(#filter0_d_291_3378)">
<path d="M16.1 19C16.8732 19 17.5 18.3732 17.5 17.6V8.27661C17.05 8.95002 16.8732 9.36665 16.1 9.36665L13.35 9.3667C12.2089 9.3102 11.5869 9.32263 10.6 9.66675C11.35 10 11.7 10.2891 11.7 11.0568V12.9433C11.7 13.711 11.3732 14.0333 10.6 14.0333H8.7C7.48497 14.0333 6.5 15.0114 6.5 16.2178V16.8C6.50001 18.0151 7.48498 19 8.7 19H16.1Z" fill="#4F9B7A"/>
</g>
<g filter="url(#filter1_d_291_3378)">
<path d="M10.6 9.66666C11.3732 9.66666 12 10.289 12 11.0567V12.9433C12 13.711 11.3732 14.3333 10.6 14.3333H8.7C7.48497 14.3333 6.5 15.3113 6.5 16.5177V11.5511C6.5 10.3447 7.48497 9.36666 8.7 9.36666H9.65C10.2164 9.3621 10.4038 9.43159 10.6 9.66666Z" fill="#6FBF9A"/>
</g>
<g filter="url(#filter2_d_291_3378)">
<path d="M16.1 5C16.8732 5 17.5 5.62236 17.5 6.39007V8.2766C17.5 9.04431 16.8732 9.66667 16.1 9.66667H8.7C7.48497 9.66667 6.5 10.6447 6.5 11.8511V7.1844C6.5 5.97799 7.48497 5 8.7 5H16.1Z" fill="#6FBF9A"/>
</g>
<defs>
<filter id="filter0_d_291_3378" x="6.5" y="8.27661" width="11.8" height="11.5234" filterUnits="userSpaceOnUse" color-interpolation-filters="sRGB">
<feFlood flood-opacity="0" result="BackgroundImageFix"/>
<feColorMatrix in="SourceAlpha" type="matrix" values="0 0 0 0 0 0 0 0 0 0 0 0 0 0 0 0 0 0 127 0" result="hardAlpha"/>
<feOffset dx="0.4" dy="0.4"/>
<feGaussianBlur stdDeviation="0.2"/>
<feComposite in2="hardAlpha" operator="out"/>
<feColorMatrix type="matrix" values="0 0 0 0 0 0 0 0 0 0 0 0 0 0 0 0 0 0 0.25 0"/>
<feBlend mode="normal" in2="BackgroundImageFix" result="effect1_dropShadow_291_3378"/>
<feBlend mode="normal" in="SourceGraphic" in2="effect1_dropShadow_291_3378" result="shape"/>
</filter>
<filter id="filter1_d_291_3378" x="6.5" y="9.36646" width="6.3" height="7.95125" filterUnits="userSpaceOnUse" color-interpolation-filters="sRGB">
<feFlood flood-opacity="0" result="BackgroundImageFix"/>
<feColorMatrix in="SourceAlpha" type="matrix" values="0 0 0 0 0 0 0 0 0 0 0 0 0 0 0 0 0 0 127 0" result="hardAlpha"/>
<feOffset dx="0.4" dy="0.4"/>
<feGaussianBlur stdDeviation="0.2"/>
<feComposite in2="hardAlpha" operator="out"/>
<feColorMatrix type="matrix" values="0 0 0 0 0 0 0 0 0 0 0 0 0 0 0 0 0 0 0.25 0"/>
<feBlend mode="normal" in2="BackgroundImageFix" result="effect1_dropShadow_291_3378"/>
<feBlend mode="normal" in="SourceGraphic" in2="effect1_dropShadow_291_3378" result="shape"/>
</filter>
<filter id="filter2_d_291_3378" x="6.5" y="5" width="11.8" height="7.65107" filterUnits="userSpaceOnUse" color-interpolation-filters="sRGB">
<feFlood flood-opacity="0" result="BackgroundImageFix"/>
<feColorMatrix in="SourceAlpha" type="matrix" values="0 0 0 0 0 0 0 0 0 0 0 0 0 0 0 0 0 0 127 0" result="hardAlpha"/>
<feOffset dx="0.4" dy="0.4"/>
<feGaussianBlur stdDeviation="0.2"/>
<feComposite in2="hardAlpha" operator="out"/>
<feColorMatrix type="matrix" values="0 0 0 0 0 0 0 0 0 0 0 0 0 0 0 0 0 0 0.25 0"/>
<feBlend mode="normal" in2="BackgroundImageFix" result="effect1_dropShadow_291_3378"/>
<feBlend mode="normal" in="SourceGraphic" in2="effect1_dropShadow_291_3378" result="shape"/>
</filter>
</defs>
</svg>
