<svg width="24" height="24" viewBox="0 0 24 24" fill="none" xmlns="http://www.w3.org/2000/svg">
<rect width="24" height="24" rx="6" fill="#F4F5F7"/>
<g filter="url(#filter0_d_101_960)">
<path d="M10.6992 4.40078C10.6992 4.06941 10.9678 3.80078 11.2992 3.80078H12.6992C13.0306 3.80078 13.2992 4.06941 13.2992 4.40078V19.6008C13.2992 19.9322 13.0306 20.2008 12.6992 20.2008H11.2992C10.9678 20.2008 10.6992 19.9322 10.6992 19.6008V4.40078Z" fill="#3F79AD"/>
<path d="M19.5992 10.7002C19.9306 10.7002 20.1992 10.9688 20.1992 11.3002V12.7002C20.1992 13.0316 19.9306 13.3002 19.5992 13.3002H4.39922C4.06785 13.3002 3.79922 13.0316 3.79922 12.7002V11.3002C3.79922 10.9688 4.06785 10.7002 4.39922 10.7002H19.5992Z" fill="#3F79AD"/>
</g>
<g filter="url(#filter1_d_101_960)">
<path d="M14.7547 12.9163L18.2902 16.4518C18.5245 16.6862 18.5245 17.0661 18.2902 17.3004L17.3002 18.2903C17.0659 18.5246 16.686 18.5246 16.4517 18.2903L12.9162 14.7548C12.4085 14.2471 11.5854 14.2471 11.0777 14.7548L7.54217 18.2903C7.30785 18.5246 6.92795 18.5246 6.69364 18.2903L5.70369 17.3004C5.46938 17.0661 5.46938 16.6862 5.70369 16.4518L9.23922 12.9163C9.74691 12.4086 9.74691 11.5855 9.23922 11.0778L5.70369 7.5423C5.46938 7.30798 5.46938 6.92808 5.70369 6.69377L6.69364 5.70382C6.92795 5.46951 7.30785 5.46951 7.54217 5.70382L11.0777 9.23935C11.5854 9.74704 12.4085 9.74703 12.9162 9.23935L16.4517 5.70382C16.686 5.46951 17.0659 5.46951 17.3002 5.70382L18.2902 6.69377C18.5245 6.92808 18.5245 7.30798 18.2902 7.5423L14.7547 11.0778C14.247 11.5855 14.247 12.4086 14.7547 12.9163Z" fill="#5F97C9"/>
</g>
<defs>
<filter id="filter0_d_101_960" x="3.79883" y="3.80078" width="17.2004" height="17.2004" filterUnits="userSpaceOnUse" color-interpolation-filters="sRGB">
<feFlood flood-opacity="0" result="BackgroundImageFix"/>
<feColorMatrix in="SourceAlpha" type="matrix" values="0 0 0 0 0 0 0 0 0 0 0 0 0 0 0 0 0 0 127 0" result="hardAlpha"/>
<feOffset dx="0.4" dy="0.4"/>
<feGaussianBlur stdDeviation="0.2"/>
<feComposite in2="hardAlpha" operator="out"/>
<feColorMatrix type="matrix" values="0 0 0 0 0 0 0 0 0 0 0 0 0 0 0 0 0 0 0.25 0"/>
<feBlend mode="normal" in2="BackgroundImageFix" result="effect1_dropShadow_101_960"/>
<feBlend mode="normal" in="SourceGraphic" in2="effect1_dropShadow_101_960" result="shape"/>
</filter>
<filter id="filter1_d_101_960" x="5.52734" y="5.52832" width="13.7395" height="13.7375" filterUnits="userSpaceOnUse" color-interpolation-filters="sRGB">
<feFlood flood-opacity="0" result="BackgroundImageFix"/>
<feColorMatrix in="SourceAlpha" type="matrix" values="0 0 0 0 0 0 0 0 0 0 0 0 0 0 0 0 0 0 127 0" result="hardAlpha"/>
<feOffset dx="0.4" dy="0.4"/>
<feGaussianBlur stdDeviation="0.2"/>
<feComposite in2="hardAlpha" operator="out"/>
<feColorMatrix type="matrix" values="0 0 0 0 0 0 0 0 0 0 0 0 0 0 0 0 0 0 0.25 0"/>
<feBlend mode="normal" in2="BackgroundImageFix" result="effect1_dropShadow_101_960"/>
<feBlend mode="normal" in="SourceGraphic" in2="effect1_dropShadow_101_960" result="shape"/>
</filter>
</defs>
</svg>
