<svg width="24" height="24" viewBox="0 0 24 24" fill="none" xmlns="http://www.w3.org/2000/svg">
<rect width="24" height="24" rx="6" fill="#F4F5F7"/>
<g filter="url(#filter0_d_157_272)">
<path d="M14.1966 6.52902C15.1248 5.08474 17.0491 4.66579 18.4945 5.59324L18.5699 5.64153C20.0154 6.56902 20.4347 8.49178 19.5064 9.93608L14.6638 17.4712C13.7355 18.9155 11.8112 19.3344 10.3657 18.4069C10.3657 18.4069 10.297 18.3629 10.2904 18.3586C10.2839 18.3544 10.2709 18.3458 10.2709 18.3458C10.2709 18.3458 9.4804 17.7635 9.20069 17.3283L4.49355 10.0041C3.56534 8.55984 3.98463 6.63716 5.43009 5.70968L5.50545 5.66139C6.95093 4.73391 8.87517 5.15286 9.8034 6.59716L11.978 9.98084L14.1966 6.52902Z" fill="#4F5F9F"/>
</g>
<defs>
<filter id="filter0_d_157_272" x="4" y="5.1001" width="16.8" height="14.5998" filterUnits="userSpaceOnUse" color-interpolation-filters="sRGB">
<feFlood flood-opacity="0" result="BackgroundImageFix"/>
<feColorMatrix in="SourceAlpha" type="matrix" values="0 0 0 0 0 0 0 0 0 0 0 0 0 0 0 0 0 0 127 0" result="hardAlpha"/>
<feOffset dx="0.4" dy="0.4"/>
<feGaussianBlur stdDeviation="0.2"/>
<feComposite in2="hardAlpha" operator="out"/>
<feColorMatrix type="matrix" values="0 0 0 0 0 0 0 0 0 0 0 0 0 0 0 0 0 0 0.25 0"/>
<feBlend mode="normal" in2="BackgroundImageFix" result="effect1_dropShadow_157_272"/>
<feBlend mode="normal" in="SourceGraphic" in2="effect1_dropShadow_157_272" result="shape"/>
</filter>
</defs>
</svg>
