<svg width="24" height="24" viewBox="0 0 24 24" fill="none" xmlns="http://www.w3.org/2000/svg">
<rect width="24" height="24" rx="6" fill="#6B7078"/>
<g filter="url(#filter0_d_279_802)">
<path d="M8.10039 5C7.71259 5 7.40039 5.3122 7.40039 5.7V6.4H16.5004V5.7C16.5004 5.3122 16.1882 5 15.8004 5H8.10039ZM7.40039 16.9V18.3C7.40039 18.6878 7.71259 19 8.10039 19H15.8004C16.1882 19 16.5004 18.6878 16.5004 18.3V16.9H7.40039Z" fill="#E4E4E4"/>
</g>
<path d="M12.8254 5.69995H11.0754C10.9787 5.69995 10.9004 5.7783 10.9004 5.87495C10.9004 5.9716 10.9787 6.04995 11.0754 6.04995H12.8254C12.922 6.04995 13.0004 5.9716 13.0004 5.87495C13.0004 5.7783 12.922 5.69995 12.8254 5.69995Z" fill="#32363B"/>
<g filter="url(#filter1_d_279_802)">
<path d="M16.5004 6.40002H7.40039V16.9H16.5004V6.40002Z" fill="#32363B"/>
</g>
<path d="M12.3 17.25H11.6C11.4067 17.25 11.25 17.4067 11.25 17.6V18.3C11.25 18.4933 11.4067 18.65 11.6 18.65H12.3C12.4933 18.65 12.65 18.4933 12.65 18.3V17.6C12.65 17.4067 12.4933 17.25 12.3 17.25Z" fill="#32363B"/>
<path d="M14.7492 17.6H14.0492C13.8559 17.6 13.6992 17.7567 13.6992 17.95C13.6992 18.1433 13.8559 18.3 14.0492 18.3H14.7492C14.9425 18.3 15.0992 18.1433 15.0992 17.95C15.0992 17.7567 14.9425 17.6 14.7492 17.6Z" fill="#32363B"/>
<path d="M9.85078 17.6H9.15078C8.95748 17.6 8.80078 17.7567 8.80078 17.95C8.80078 18.1433 8.95748 18.3 9.15078 18.3H9.85078C10.0441 18.3 10.2008 18.1433 10.2008 17.95C10.2008 17.7567 10.0441 17.6 9.85078 17.6Z" fill="#32363B"/>
<path d="M13.5246 6.04995C13.6213 6.04995 13.6996 5.9716 13.6996 5.87495C13.6996 5.7783 13.6213 5.69995 13.5246 5.69995C13.428 5.69995 13.3496 5.7783 13.3496 5.87495C13.3496 5.9716 13.428 6.04995 13.5246 6.04995Z" fill="#32363B"/>
<g filter="url(#filter2_d_279_802)">
<path d="M12.6492 8.38255C12.6492 8.26018 12.5403 8.1665 12.4193 8.1848L11.4193 8.33605C11.3215 8.35084 11.2492 8.43489 11.2492 8.5338V13.1651C11.2492 13.2967 11.374 13.3924 11.5011 13.3583L12.5011 13.0898C12.5885 13.0663 12.6492 12.9871 12.6492 12.8966V11.8085C12.6492 11.6062 12.9152 11.5318 13.0202 11.7047L13.9632 13.2583C14.0131 13.3405 14.1144 13.3756 14.2044 13.3418L15.1855 12.9739C15.3144 12.9256 15.357 12.7644 15.2689 12.6586L13.8018 10.8981C13.7418 10.8262 13.7398 10.7223 13.7969 10.6481L15.2652 8.74067C15.3527 8.627 15.2956 8.46089 15.1567 8.42503L14.2331 8.18657C14.1488 8.16481 14.0601 8.20009 14.0138 8.27382L13.0186 9.85782C12.9118 10.0278 12.6492 9.95211 12.6492 9.75142V8.38255ZM9.79847 9.52342C9.76557 9.52342 9.73232 9.53637 9.70712 9.56157L9.15657 10.1118C9.10582 10.1629 9.11807 10.2353 9.15657 10.2959L9.66631 11.0964C9.70344 11.1547 9.70723 11.2278 9.68035 11.2915C9.65703 11.3467 9.63586 11.4029 9.61682 11.46C9.61415 11.4673 9.6073 11.4726 9.59967 11.4742L8.57907 11.7011C8.50907 11.7169 8.44922 11.7592 8.44922 11.8313V12.175V12.5187C8.44922 12.5908 8.50907 12.6332 8.57907 12.6489L9.5911 12.8739C9.60408 12.8768 9.61572 12.8856 9.62032 12.8981C9.63841 12.9526 9.65857 13.0064 9.68072 13.0594C9.70735 13.123 9.70349 13.196 9.66641 13.2542L9.15657 14.0542C9.11807 14.1147 9.10582 14.1872 9.15657 14.2383L9.70712 14.7885C9.75261 14.834 9.82284 14.8387 9.87346 14.8026C9.88532 14.7942 9.89636 14.7845 9.90865 14.7767L10.6887 14.2798C10.7473 14.2425 10.8208 14.2388 10.8848 14.2661C10.9402 14.2897 10.9965 14.3111 11.0536 14.3303C11.065 14.3342 11.073 14.3452 11.0756 14.357L11.2956 15.3488C11.2987 15.363 11.2997 15.3776 11.3021 15.392C11.3125 15.4533 11.3659 15.5 11.4305 15.5H12.2075C12.2793 15.5 12.322 15.4402 12.3374 15.3702L12.5436 14.4131C12.558 14.3467 12.6053 14.2926 12.6677 14.2657C12.6988 14.2523 12.7295 14.2382 12.76 14.2234C12.8295 14.1897 12.9122 14.1938 12.975 14.2387L13.7303 14.7789C13.7392 14.7853 13.7474 14.7927 13.756 14.7994C13.8069 14.8389 13.8799 14.8353 13.9267 14.7885L14.4773 14.2383C14.528 14.1872 14.5158 14.1147 14.4773 14.0542L14.1658 13.5821C14.1539 13.564 14.1311 13.5566 14.1108 13.5642C14.0321 13.5936 13.9432 13.5631 13.8994 13.491L13.7547 13.2526C13.6699 13.1128 13.4557 13.1264 13.3633 13.2613C13.0165 13.7676 12.4342 14.1 11.7742 14.1C10.7109 14.1 9.84922 13.2383 9.84922 12.175C9.84922 11.3689 10.3457 10.6803 11.0487 10.3936C11.064 10.3873 11.0742 10.3725 11.0742 10.3559V10.0116C11.0742 10.01 11.0719 10.0098 11.0716 10.0113C11.0715 10.0118 11.0712 10.0121 11.0707 10.0123C11.0633 10.0151 11.0565 10.0191 11.049 10.0218C10.9929 10.0403 10.9375 10.0611 10.883 10.084C10.8193 10.1108 10.7462 10.107 10.6879 10.0699L9.90863 9.57334C9.89636 9.56552 9.88533 9.55589 9.87347 9.54745C9.85114 9.53155 9.8248 9.52342 9.79847 9.52342Z" fill="white"/>
</g>
<defs>
<filter id="filter0_d_279_802" x="7.40039" y="5" width="9.89961" height="14.8" filterUnits="userSpaceOnUse" color-interpolation-filters="sRGB">
<feFlood flood-opacity="0" result="BackgroundImageFix"/>
<feColorMatrix in="SourceAlpha" type="matrix" values="0 0 0 0 0 0 0 0 0 0 0 0 0 0 0 0 0 0 127 0" result="hardAlpha"/>
<feOffset dx="0.4" dy="0.4"/>
<feGaussianBlur stdDeviation="0.2"/>
<feComposite in2="hardAlpha" operator="out"/>
<feColorMatrix type="matrix" values="0 0 0 0 0 0 0 0 0 0 0 0 0 0 0 0 0 0 0.25 0"/>
<feBlend mode="normal" in2="BackgroundImageFix" result="effect1_dropShadow_279_802"/>
<feBlend mode="normal" in="SourceGraphic" in2="effect1_dropShadow_279_802" result="shape"/>
</filter>
<filter id="filter1_d_279_802" x="7.40039" y="6.00002" width="9.89961" height="11.3" filterUnits="userSpaceOnUse" color-interpolation-filters="sRGB">
<feFlood flood-opacity="0" result="BackgroundImageFix"/>
<feColorMatrix in="SourceAlpha" type="matrix" values="0 0 0 0 0 0 0 0 0 0 0 0 0 0 0 0 0 0 127 0" result="hardAlpha"/>
<feOffset dx="0.4"/>
<feGaussianBlur stdDeviation="0.2"/>
<feComposite in2="hardAlpha" operator="out"/>
<feColorMatrix type="matrix" values="0 0 0 0 0 0 0 0 0 0 0 0 0 0 0 0 0 0 0.25 0"/>
<feBlend mode="normal" in2="BackgroundImageFix" result="effect1_dropShadow_279_802"/>
<feBlend mode="normal" in="SourceGraphic" in2="effect1_dropShadow_279_802" result="shape"/>
</filter>
<filter id="filter2_d_279_802" x="8.44922" y="8.18018" width="7.66523" height="8.11982" filterUnits="userSpaceOnUse" color-interpolation-filters="sRGB">
<feFlood flood-opacity="0" result="BackgroundImageFix"/>
<feColorMatrix in="SourceAlpha" type="matrix" values="0 0 0 0 0 0 0 0 0 0 0 0 0 0 0 0 0 0 127 0" result="hardAlpha"/>
<feOffset dx="0.4" dy="0.4"/>
<feGaussianBlur stdDeviation="0.2"/>
<feComposite in2="hardAlpha" operator="out"/>
<feColorMatrix type="matrix" values="0 0 0 0 0 0 0 0 0 0 0 0 0 0 0 0 0 0 0.25 0"/>
<feBlend mode="normal" in2="BackgroundImageFix" result="effect1_dropShadow_279_802"/>
<feBlend mode="normal" in="SourceGraphic" in2="effect1_dropShadow_279_802" result="shape"/>
</filter>
</defs>
</svg>
