<svg width="24" height="24" viewBox="0 0 24 24" fill="none" xmlns="http://www.w3.org/2000/svg">
<rect width="24" height="24" rx="6" fill="#32363B"/>
<g filter="url(#filter0_d_279_867)">
<path d="M17.7271 18.0455V9.24667L14.4604 9.2C13.8998 9.2 13.5912 8.54991 13.5912 8.02273L13.5271 5H7.91539C7.35482 5 6.90039 5.42736 6.90039 5.95455V18.0455C6.90039 18.5726 7.35482 19 7.91539 19H16.7121C17.2726 19 17.7271 18.5726 17.7271 18.0455Z" fill="#4F9B7A"/>
</g>
<g filter="url(#filter1_d_279_867)">
<path d="M13.5261 5C13.8669 5.01336 14.1823 5.15563 14.4243 5.39765L17.3624 8.33569C17.6044 8.57771 17.7128 8.90596 17.7261 9.24667L14.5358 9.24243C13.9734 9.24243 13.5176 8.78657 13.5176 8.22424L13.5261 5Z" fill="#6FBF9A"/>
</g>
<g filter="url(#filter2_d_279_867)">
<path d="M15.7243 15.291C15.7243 15.5119 15.5452 15.691 15.3243 15.691H9.25156C9.03065 15.691 8.85156 15.5119 8.85156 15.291V11.1698C8.85156 10.9489 9.03065 10.7698 9.25156 10.7698H15.3243C15.5452 10.7698 15.7243 10.9489 15.7243 11.1698V15.291ZM10.1849 13.6546C9.96398 13.6546 9.7849 13.8337 9.7849 14.0546V14.4425C9.7849 14.6634 9.96398 14.8425 10.1849 14.8425H11.5061C11.727 14.8425 11.9061 14.6634 11.9061 14.4425V14.0546C11.9061 13.8337 11.727 13.6546 11.5061 13.6546H10.1849ZM12.7546 14.4425C12.7546 14.6634 12.9337 14.8425 13.1546 14.8425H14.4758C14.6967 14.8425 14.8758 14.6634 14.8758 14.4425V14.0546C14.8758 13.8337 14.6967 13.6546 14.4758 13.6546H13.1546C12.9337 13.6546 12.7546 13.8337 12.7546 14.0546V14.4425ZM9.7849 12.4061C9.7849 12.6271 9.96398 12.8061 10.1849 12.8061H11.5061C11.727 12.8061 11.9061 12.6271 11.9061 12.4061V12.0183C11.9061 11.7973 11.727 11.6183 11.5061 11.6183H10.1849C9.96398 11.6183 9.7849 11.7973 9.7849 12.0183V12.4061ZM12.7546 12.4061C12.7546 12.6271 12.9337 12.8061 13.1546 12.8061H14.4758C14.6967 12.8061 14.8758 12.6271 14.8758 12.4061V12.0183C14.8758 11.7973 14.6967 11.6183 14.4758 11.6183H13.1546C12.9337 11.6183 12.7546 11.7973 12.7546 12.0183V12.4061Z" fill="#F4F5F7"/>
</g>
<defs>
<filter id="filter0_d_279_867" x="6.90039" y="5" width="11.6262" height="14.8" filterUnits="userSpaceOnUse" color-interpolation-filters="sRGB">
<feFlood flood-opacity="0" result="BackgroundImageFix"/>
<feColorMatrix in="SourceAlpha" type="matrix" values="0 0 0 0 0 0 0 0 0 0 0 0 0 0 0 0 0 0 127 0" result="hardAlpha"/>
<feOffset dx="0.4" dy="0.4"/>
<feGaussianBlur stdDeviation="0.2"/>
<feComposite in2="hardAlpha" operator="out"/>
<feColorMatrix type="matrix" values="0 0 0 0 0 0 0 0 0 0 0 0 0 0 0 0 0 0 0.25 0"/>
<feBlend mode="normal" in2="BackgroundImageFix" result="effect1_dropShadow_279_867"/>
<feBlend mode="normal" in="SourceGraphic" in2="effect1_dropShadow_279_867" result="shape"/>
</filter>
<filter id="filter1_d_279_867" x="13.5176" y="5" width="5.00898" height="5.04658" filterUnits="userSpaceOnUse" color-interpolation-filters="sRGB">
<feFlood flood-opacity="0" result="BackgroundImageFix"/>
<feColorMatrix in="SourceAlpha" type="matrix" values="0 0 0 0 0 0 0 0 0 0 0 0 0 0 0 0 0 0 127 0" result="hardAlpha"/>
<feOffset dx="0.4" dy="0.4"/>
<feGaussianBlur stdDeviation="0.2"/>
<feComposite in2="hardAlpha" operator="out"/>
<feColorMatrix type="matrix" values="0 0 0 0 0 0 0 0 0 0 0 0 0 0 0 0 0 0 0.25 0"/>
<feBlend mode="normal" in2="BackgroundImageFix" result="effect1_dropShadow_279_867"/>
<feBlend mode="normal" in="SourceGraphic" in2="effect1_dropShadow_279_867" result="shape"/>
</filter>
<filter id="filter2_d_279_867" x="8.85156" y="10.7698" width="7.67305" height="5.72114" filterUnits="userSpaceOnUse" color-interpolation-filters="sRGB">
<feFlood flood-opacity="0" result="BackgroundImageFix"/>
<feColorMatrix in="SourceAlpha" type="matrix" values="0 0 0 0 0 0 0 0 0 0 0 0 0 0 0 0 0 0 127 0" result="hardAlpha"/>
<feOffset dx="0.4" dy="0.4"/>
<feGaussianBlur stdDeviation="0.2"/>
<feComposite in2="hardAlpha" operator="out"/>
<feColorMatrix type="matrix" values="0 0 0 0 0 0 0 0 0 0 0 0 0 0 0 0 0 0 0.25 0"/>
<feBlend mode="normal" in2="BackgroundImageFix" result="effect1_dropShadow_279_867"/>
<feBlend mode="normal" in="SourceGraphic" in2="effect1_dropShadow_279_867" result="shape"/>
</filter>
</defs>
</svg>
