<svg width="24" height="24" viewBox="0 0 24 24" fill="none" xmlns="http://www.w3.org/2000/svg">
<rect width="24" height="24" rx="6" fill="#32363B"/>
<g filter="url(#filter0_d_291_3259)">
<path d="M12.2192 8.75L15.2498 8.85L18.0603 8.50002C17.4461 7.43584 16.5626 6.55212 15.4985 5.93772C14.4345 5.32333 13.2274 4.99991 11.9987 5C10.77 5.00009 9.56294 5.32367 8.49896 5.93821C7.43498 6.55276 6.55155 7.4366 5.9375 8.50087L7.2528 11.3255L8.9681 13.75L8.97081 13.7493C8.66252 13.2177 8.71989 12.8642 8.7192 12.2496C8.71851 11.6351 8.87985 11.0312 9.18694 10.4989C9.49404 9.96655 9.93605 9.52459 10.4684 9.21755C11.0008 8.91051 11.6047 8.74924 12.2192 8.75Z" fill="#B04F58"/>
<path d="M14.4151 13.8754L12.8998 16.5L11.9993 19C13.228 19.0001 14.4351 18.6768 15.4992 18.0625C16.5633 17.4482 17.4469 16.5645 18.0612 15.5004C18.6755 14.4363 18.9987 13.2292 18.9985 12.0005C18.9983 10.7718 18.6746 9.56477 18.0599 8.50085H11.9988L11.998 8.50357C12.6126 8.50238 12.6018 8.78781 13.1344 9.09449C13.6669 9.40116 14.1093 9.84282 14.4167 10.3749C14.7242 10.9071 14.8859 11.5108 14.8856 12.1254C14.8853 12.7399 14.7231 13.3436 14.4151 13.8754Z" fill="#B8A64F"/>
<path d="M8.9687 13.7509L5.9381 8.50171C5.32359 9.56571 5.00005 10.7728 5 12.0015C4.99995 13.2302 5.32341 14.4372 5.93783 15.5013C6.55226 16.5653 7.43601 17.4489 8.50021 18.063C9.56441 18.6772 10.7716 19.0003 12.0003 19L15.0309 13.7508L15.0289 13.7488C12.3782 15.3364 11.0709 15.3047 8.9687 13.7509Z" fill="#4F9B7A"/>
</g>
<g filter="url(#filter1_d_291_3259)">
<path d="M12 15.4984C13.933 15.4984 15.5 13.9314 15.5 11.9984C15.5 10.0654 13.933 8.49841 12 8.49841C10.067 8.49841 8.5 10.0654 8.5 11.9984C8.5 13.9314 10.067 15.4984 12 15.4984Z" fill="#F4F5F7"/>
<path d="M11.9994 14.7709C13.5297 14.7709 14.7702 13.5304 14.7702 12.0001C14.7702 10.4698 13.5297 9.22925 11.9994 9.22925C10.4691 9.22925 9.22852 10.4698 9.22852 12.0001C9.22852 13.5304 10.4691 14.7709 11.9994 14.7709Z" fill="#3F79AD"/>
</g>
<defs>
<filter id="filter0_d_291_3259" x="5" y="5" width="14.798" height="14.8" filterUnits="userSpaceOnUse" color-interpolation-filters="sRGB">
<feFlood flood-opacity="0" result="BackgroundImageFix"/>
<feColorMatrix in="SourceAlpha" type="matrix" values="0 0 0 0 0 0 0 0 0 0 0 0 0 0 0 0 0 0 127 0" result="hardAlpha"/>
<feOffset dx="0.4" dy="0.4"/>
<feGaussianBlur stdDeviation="0.2"/>
<feComposite in2="hardAlpha" operator="out"/>
<feColorMatrix type="matrix" values="0 0 0 0 0 0 0 0 0 0 0 0 0 0 0 0 0 0 0.25 0"/>
<feBlend mode="normal" in2="BackgroundImageFix" result="effect1_dropShadow_291_3259"/>
<feBlend mode="normal" in="SourceGraphic" in2="effect1_dropShadow_291_3259" result="shape"/>
</filter>
<filter id="filter1_d_291_3259" x="8.5" y="8.49841" width="7.8" height="7.8" filterUnits="userSpaceOnUse" color-interpolation-filters="sRGB">
<feFlood flood-opacity="0" result="BackgroundImageFix"/>
<feColorMatrix in="SourceAlpha" type="matrix" values="0 0 0 0 0 0 0 0 0 0 0 0 0 0 0 0 0 0 127 0" result="hardAlpha"/>
<feOffset dx="0.4" dy="0.4"/>
<feGaussianBlur stdDeviation="0.2"/>
<feComposite in2="hardAlpha" operator="out"/>
<feColorMatrix type="matrix" values="0 0 0 0 0 0 0 0 0 0 0 0 0 0 0 0 0 0 0.25 0"/>
<feBlend mode="normal" in2="BackgroundImageFix" result="effect1_dropShadow_291_3259"/>
<feBlend mode="normal" in="SourceGraphic" in2="effect1_dropShadow_291_3259" result="shape"/>
</filter>
</defs>
</svg>
