<svg width="24" height="24" viewBox="0 0 24 24" fill="none" xmlns="http://www.w3.org/2000/svg">
<rect width="24" height="24" rx="6" fill="#32363B"/>
<g filter="url(#filter0_d_291_3198)">
<path d="M18.0692 19C18.5812 19 19.0006 18.5874 19.0006 18.082V8.71806C19.0006 8.21273 18.5812 7.80005 18.0692 7.80005H8.97852L13.0543 14.1448L12.6268 19H18.0692Z" fill="#F4F5F7"/>
</g>
<g filter="url(#filter1_d_291_3198)">
<path d="M15.0226 16.2L13.3941 15.7L11.7656 16.2L12.6269 19L15.0226 16.2Z" fill="#3F79AD"/>
</g>
<g filter="url(#filter2_d_291_3198)">
<path d="M14.55 10.25C14.4948 10.25 14.45 10.2948 14.45 10.35V10.85C14.45 10.9052 14.4052 10.95 14.35 10.95H12.8656C12.8104 10.95 12.7656 10.9948 12.7656 11.05V11.5507C12.7656 11.6059 12.8104 11.6507 12.8656 11.6507H13.0497C13.0498 11.6507 13.05 11.6505 13.05 11.6503C13.05 11.6502 13.0502 11.65 13.0503 11.65H15.1496C15.1498 11.65 15.15 11.6502 15.15 11.6503C15.15 11.6505 15.1502 11.6507 15.1503 11.6507H15.9906C16.0571 11.6507 16.105 11.7144 16.0839 11.7775C15.9033 12.3152 15.5707 12.8302 15.2346 13.2427C15.1957 13.2904 15.123 13.2905 15.0835 13.2432C14.7254 12.8147 14.5783 12.5573 14.517 12.4166C14.4999 12.3773 14.4622 12.35 14.4193 12.35H13.9153C13.8473 12.35 13.8001 12.416 13.8284 12.4778C13.9246 12.6878 14.1522 13.0744 14.6895 13.7035C14.7235 13.7433 14.7216 13.8027 14.6843 13.8394C14.4904 14.0303 14.3328 14.1662 14.2544 14.2316C14.2222 14.2584 14.2091 14.3021 14.222 14.3419L14.3732 14.8085C14.3952 14.8761 14.4782 14.8995 14.5311 14.852C14.6499 14.7452 14.8531 14.557 15.0903 14.3135C15.1303 14.2724 15.1966 14.2726 15.236 14.3143C15.6261 14.7269 16.1176 15.2141 16.7377 15.7856C16.7769 15.8217 16.8375 15.8207 16.8754 15.7833L17.1823 15.4811C17.2234 15.4406 17.2217 15.3737 17.1788 15.3352C16.5141 14.7383 16.013 14.2548 15.6344 13.8589C15.5991 13.8219 15.5978 13.7643 15.6307 13.7251C16.1264 13.1358 16.6157 12.4046 16.7521 11.7332C16.7619 11.685 16.8035 11.6493 16.8527 11.6493H17.8507C17.9059 11.6493 17.9507 11.6045 17.9507 11.5493V11.05C17.9507 10.9948 17.9059 10.95 17.8507 10.95H15.25C15.1948 10.95 15.15 10.9052 15.15 10.85V10.35C15.15 10.2948 15.1052 10.25 15.05 10.25H14.55Z" fill="#6B7078"/>
</g>
<g filter="url(#filter3_d_291_3198)">
<path d="M5.93137 5C5.4194 5 5 5.41348 5 5.91962V15.2818C5 15.7865 5.4194 16.2 5.93137 16.2H15.022L11.5086 5.41416C11.4282 5.16717 11.1979 5 10.9381 5H5.93137Z" fill="#5F97C9"/>
</g>
<g filter="url(#filter4_d_291_3198)">
<path d="M8.89238 8.84998C7.70985 8.84998 6.75 9.79094 6.75 10.95C6.75 12.109 7.70985 13.05 8.89238 13.05C10.1312 13.05 10.95 12.1979 10.95 10.9958C10.95 10.8599 10.9365 10.7725 10.9166 10.6783C10.9069 10.6324 10.8661 10.6 10.8193 10.6H10.2056H8.95C8.89477 10.6 8.85 10.6447 8.85 10.7V11.1994C8.85 11.2546 8.89471 11.2993 8.94989 11.2994L9.49668 11.3H10.0729C10.1385 11.3 10.1864 11.3622 10.1638 11.4239C10.1169 11.5516 10.0516 11.672 9.96973 11.7812C9.96171 11.7933 9.95304 11.8049 9.94443 11.8168C9.93572 11.8283 9.92683 11.8397 9.91777 11.851C9.84368 11.9452 9.75116 12.0331 9.63613 12.1052C9.40454 12.2638 9.13065 12.349 8.85 12.35C8.4787 12.35 8.1226 12.2025 7.86005 11.9399C7.5975 11.6774 7.45 11.3213 7.45 10.95C7.45 10.5787 7.5975 10.2226 7.86005 9.96003C8.1226 9.69748 8.4787 9.54998 8.85 9.54998C9.16426 9.55015 9.46838 9.65601 9.71411 9.84907C9.75497 9.88117 9.81356 9.88081 9.85141 9.8452L10.249 9.47114C10.2915 9.43112 10.291 9.36313 10.2458 9.32613C9.88537 9.03111 9.42896 8.84998 8.89238 8.84998Z" fill="#F4F5F7"/>
</g>
<defs>
<filter id="filter0_d_291_3198" x="8.97852" y="7.80005" width="10.8215" height="12" filterUnits="userSpaceOnUse" color-interpolation-filters="sRGB">
<feFlood flood-opacity="0" result="BackgroundImageFix"/>
<feColorMatrix in="SourceAlpha" type="matrix" values="0 0 0 0 0 0 0 0 0 0 0 0 0 0 0 0 0 0 127 0" result="hardAlpha"/>
<feOffset dx="0.4" dy="0.4"/>
<feGaussianBlur stdDeviation="0.2"/>
<feComposite in2="hardAlpha" operator="out"/>
<feColorMatrix type="matrix" values="0 0 0 0 0 0 0 0 0 0 0 0 0 0 0 0 0 0 0.25 0"/>
<feBlend mode="normal" in2="BackgroundImageFix" result="effect1_dropShadow_291_3198"/>
<feBlend mode="normal" in="SourceGraphic" in2="effect1_dropShadow_291_3198" result="shape"/>
</filter>
<filter id="filter1_d_291_3198" x="11.7656" y="15.7" width="4.05781" height="4.10005" filterUnits="userSpaceOnUse" color-interpolation-filters="sRGB">
<feFlood flood-opacity="0" result="BackgroundImageFix"/>
<feColorMatrix in="SourceAlpha" type="matrix" values="0 0 0 0 0 0 0 0 0 0 0 0 0 0 0 0 0 0 127 0" result="hardAlpha"/>
<feOffset dx="0.4" dy="0.4"/>
<feGaussianBlur stdDeviation="0.2"/>
<feComposite in2="hardAlpha" operator="out"/>
<feColorMatrix type="matrix" values="0 0 0 0 0 0 0 0 0 0 0 0 0 0 0 0 0 0 0.25 0"/>
<feBlend mode="normal" in2="BackgroundImageFix" result="effect1_dropShadow_291_3198"/>
<feBlend mode="normal" in="SourceGraphic" in2="effect1_dropShadow_291_3198" result="shape"/>
</filter>
<filter id="filter2_d_291_3198" x="12.7656" y="10.25" width="5.98555" height="6.36201" filterUnits="userSpaceOnUse" color-interpolation-filters="sRGB">
<feFlood flood-opacity="0" result="BackgroundImageFix"/>
<feColorMatrix in="SourceAlpha" type="matrix" values="0 0 0 0 0 0 0 0 0 0 0 0 0 0 0 0 0 0 127 0" result="hardAlpha"/>
<feOffset dx="0.4" dy="0.4"/>
<feGaussianBlur stdDeviation="0.2"/>
<feComposite in2="hardAlpha" operator="out"/>
<feColorMatrix type="matrix" values="0 0 0 0 0 0 0 0 0 0 0 0 0 0 0 0 0 0 0.25 0"/>
<feBlend mode="normal" in2="BackgroundImageFix" result="effect1_dropShadow_291_3198"/>
<feBlend mode="normal" in="SourceGraphic" in2="effect1_dropShadow_291_3198" result="shape"/>
</filter>
<filter id="filter3_d_291_3198" x="5" y="5" width="10.8215" height="12" filterUnits="userSpaceOnUse" color-interpolation-filters="sRGB">
<feFlood flood-opacity="0" result="BackgroundImageFix"/>
<feColorMatrix in="SourceAlpha" type="matrix" values="0 0 0 0 0 0 0 0 0 0 0 0 0 0 0 0 0 0 127 0" result="hardAlpha"/>
<feOffset dx="0.4" dy="0.4"/>
<feGaussianBlur stdDeviation="0.2"/>
<feComposite in2="hardAlpha" operator="out"/>
<feColorMatrix type="matrix" values="0 0 0 0 0 0 0 0 0 0 0 0 0 0 0 0 0 0 0.25 0"/>
<feBlend mode="normal" in2="BackgroundImageFix" result="effect1_dropShadow_291_3198"/>
<feBlend mode="normal" in="SourceGraphic" in2="effect1_dropShadow_291_3198" result="shape"/>
</filter>
<filter id="filter4_d_291_3198" x="6.75" y="8.84998" width="4.99922" height="4.99995" filterUnits="userSpaceOnUse" color-interpolation-filters="sRGB">
<feFlood flood-opacity="0" result="BackgroundImageFix"/>
<feColorMatrix in="SourceAlpha" type="matrix" values="0 0 0 0 0 0 0 0 0 0 0 0 0 0 0 0 0 0 127 0" result="hardAlpha"/>
<feOffset dx="0.4" dy="0.4"/>
<feGaussianBlur stdDeviation="0.2"/>
<feComposite in2="hardAlpha" operator="out"/>
<feColorMatrix type="matrix" values="0 0 0 0 0 0 0 0 0 0 0 0 0 0 0 0 0 0 0.25 0"/>
<feBlend mode="normal" in2="BackgroundImageFix" result="effect1_dropShadow_291_3198"/>
<feBlend mode="normal" in="SourceGraphic" in2="effect1_dropShadow_291_3198" result="shape"/>
</filter>
</defs>
</svg>
