<svg width="24" height="24" viewBox="0 0 24 24" fill="none" xmlns="http://www.w3.org/2000/svg">
<rect width="24" height="24" rx="6" fill="#32363B"/>
<g filter="url(#filter0_d_291_3283)">
<path d="M6.37261 15.8181C6.08704 15.8158 5.81739 15.9438 5.6408 16.1825L5.5 16.3726L6.41318 16.5969L6.94136 17.3414L8.06374 15.8181H6.37261Z" fill="#B04F58"/>
<path d="M11.8944 18.9999C11.6048 18.9975 11.3336 18.8687 11.1594 18.6348L9.36007 16.2063C9.18587 15.9716 8.91462 15.8213 8.62507 15.8181H6.45508C6.74462 15.8205 7.01587 15.9518 7.19008 16.1856L8.98939 18.6141C9.16359 18.8488 9.43484 18.9967 9.72439 18.9999H11.8944Z" fill="#D06F78"/>
<path d="M12.6476 18.6404C12.4686 18.8734 12.1926 19.0023 11.9022 19H10.1816L11.4046 17.3976L11.752 17.8505C11.9405 18.0971 12.2205 18.2196 12.5005 18.2196V18.2195C12.7804 18.2195 13.0604 18.0963 13.2489 17.8505L14.3534 16.4104L12.6476 18.6404Z" fill="#B04F58"/>
</g>
<g filter="url(#filter1_d_291_3283)">
<path d="M6.45508 10.5658C6.46144 10.4576 6.4861 10.3502 6.52985 10.2492C6.58156 10.1299 6.65792 10.0193 6.75974 9.92624L11.8618 5.24818C12.0415 5.08273 12.2698 5 12.4989 5L12.8155 7.86602V10.6328H9.95666L6.45508 10.5658Z" fill="#6B7078"/>
<path d="M18.5431 10.5658C18.5367 10.4576 18.512 10.3502 18.4683 10.2492C18.4166 10.1299 18.3402 10.0193 18.2384 9.92624L13.1364 5.24818C12.9566 5.08273 12.7283 5 12.5 5V10.0909L15.3764 10.7328L18.5431 10.5658Z" fill="#8A8F98"/>
<path d="M18.5437 10.5658L15.6188 10.3097L12.4998 10.0909L12.1816 12C12.1816 12 12.4998 13.851 12.4998 13.9091C12.4998 13.9521 13.771 14.2193 13.771 14.2193L16.1016 14.1287L16.5853 13.4987L18.3504 11.1966C18.4944 11.0105 18.5572 10.7854 18.5437 10.5658Z" fill="#D06F78"/>
<path d="M6.45687 10.5658C6.44335 10.7854 6.50619 11.0105 6.65017 11.1974L8.41528 13.4995L8.89891 14.1295L10.9058 14.2353L12.5007 13.9091V11.8386V10.0909L6.45687 10.5658Z" fill="#B04F58"/>
<path d="M12.501 13.9091C12.3189 13.9091 8.89844 14.1294 8.89844 14.1294L11.7525 17.8505C11.941 18.0971 12.221 18.2196 12.501 18.2196L12.824 15.5031C12.824 15.5039 12.5766 13.9091 12.501 13.9091Z" fill="#6B7078"/>
<path d="M12.5 18.2196C12.78 18.2196 13.06 18.0963 13.2485 17.8505L16.1026 14.1294L12.5 13.9091V18.2196Z" fill="#8A8F98"/>
</g>
<defs>
<filter id="filter0_d_291_3283" x="5.5" y="15.8181" width="9.65352" height="3.98188" filterUnits="userSpaceOnUse" color-interpolation-filters="sRGB">
<feFlood flood-opacity="0" result="BackgroundImageFix"/>
<feColorMatrix in="SourceAlpha" type="matrix" values="0 0 0 0 0 0 0 0 0 0 0 0 0 0 0 0 0 0 127 0" result="hardAlpha"/>
<feOffset dx="0.4" dy="0.4"/>
<feGaussianBlur stdDeviation="0.2"/>
<feComposite in2="hardAlpha" operator="out"/>
<feColorMatrix type="matrix" values="0 0 0 0 0 0 0 0 0 0 0 0 0 0 0 0 0 0 0.25 0"/>
<feBlend mode="normal" in2="BackgroundImageFix" result="effect1_dropShadow_291_3283"/>
<feBlend mode="normal" in="SourceGraphic" in2="effect1_dropShadow_291_3283" result="shape"/>
</filter>
<filter id="filter1_d_291_3283" x="6.45508" y="5" width="12.8898" height="14.0196" filterUnits="userSpaceOnUse" color-interpolation-filters="sRGB">
<feFlood flood-opacity="0" result="BackgroundImageFix"/>
<feColorMatrix in="SourceAlpha" type="matrix" values="0 0 0 0 0 0 0 0 0 0 0 0 0 0 0 0 0 0 127 0" result="hardAlpha"/>
<feOffset dx="0.4" dy="0.4"/>
<feGaussianBlur stdDeviation="0.2"/>
<feComposite in2="hardAlpha" operator="out"/>
<feColorMatrix type="matrix" values="0 0 0 0 0 0 0 0 0 0 0 0 0 0 0 0 0 0 0.25 0"/>
<feBlend mode="normal" in2="BackgroundImageFix" result="effect1_dropShadow_291_3283"/>
<feBlend mode="normal" in="SourceGraphic" in2="effect1_dropShadow_291_3283" result="shape"/>
</filter>
</defs>
</svg>
