<svg width="24" height="24" viewBox="0 0 24 24" fill="none" xmlns="http://www.w3.org/2000/svg">
<rect width="24" height="24" rx="6" fill="#32363B"/>
<g filter="url(#filter0_d_259_980)">
<path d="M8.52581 17.6227C8.72619 17.6227 8.91275 17.5814 9.05094 17.5194C9.54152 17.2646 9.887 16.9134 10.2325 15.8805C10.5849 14.8062 11.2482 14.3035 11.8839 13.8146C12.4297 13.3945 12.9963 12.9607 13.4869 12.0723C13.8531 11.4112 14.0535 10.6882 14.0535 10.0477C14.0535 8.11954 12.5334 6.60454 10.5987 6.60454C8.82983 6.60454 7.39955 7.87852 7.17844 9.57256C7.13699 9.84802 6.89515 10.0477 6.61186 10.0477H6.37693C6.03145 10.0477 5.76198 9.74472 5.80344 9.4004C6.11437 7.01084 8.10433 5.22727 10.5987 5.22727C13.3141 5.22727 15.4354 7.34138 15.4354 10.0477C15.4354 10.9154 15.1728 11.8726 14.6961 12.7334C14.0673 13.8697 13.328 14.4412 12.7268 14.9026C12.1672 15.3296 11.7664 15.6395 11.5453 16.3143C11.1307 17.5676 10.5987 18.27 9.65898 18.759C9.30659 18.9174 8.91966 19 8.52581 19C7.25445 19 6.18346 18.1461 5.85871 16.9823C5.76198 16.6104 6.03145 16.2455 6.41839 16.2455H6.66023C6.92279 16.2455 7.13008 16.4314 7.2199 16.6793C7.39955 17.2233 7.91777 17.6227 8.52581 17.6227ZM15.4561 5.20661C15.7532 4.91049 16.23 4.93804 16.4926 5.25481C17.5566 6.56322 18.1992 8.22972 18.1992 10.0477C18.1992 11.8657 17.5566 13.5322 16.4926 14.8337C16.23 15.1505 15.7532 15.1781 15.463 14.8888C15.2143 14.6409 15.1936 14.2484 15.4147 13.9798C16.2853 12.9125 16.8173 11.5421 16.8173 10.0477C16.8173 8.55338 16.2853 7.18299 15.4077 6.12249C15.1797 5.84704 15.2074 5.45452 15.4561 5.20661ZM12.3261 10.0477C12.3261 10.998 11.5522 11.7693 10.5987 11.7693C9.64516 11.7693 8.87129 10.998 8.87129 10.0477C8.87129 9.0974 9.64516 8.32613 10.5987 8.32613C11.5522 8.32613 12.3261 9.0974 12.3261 10.0477Z" fill="#E3E3E3"/>
</g>
<defs>
<filter id="filter0_d_259_980" x="5.80078" y="5" width="13.1984" height="14.8" filterUnits="userSpaceOnUse" color-interpolation-filters="sRGB">
<feFlood flood-opacity="0" result="BackgroundImageFix"/>
<feColorMatrix in="SourceAlpha" type="matrix" values="0 0 0 0 0 0 0 0 0 0 0 0 0 0 0 0 0 0 127 0" result="hardAlpha"/>
<feOffset dx="0.4" dy="0.4"/>
<feGaussianBlur stdDeviation="0.2"/>
<feComposite in2="hardAlpha" operator="out"/>
<feColorMatrix type="matrix" values="0 0 0 0 0 0 0 0 0 0 0 0 0 0 0 0 0 0 0.25 0"/>
<feBlend mode="normal" in2="BackgroundImageFix" result="effect1_dropShadow_259_980"/>
<feBlend mode="normal" in="SourceGraphic" in2="effect1_dropShadow_259_980" result="shape"/>
</filter>
</defs>
</svg>
