<svg width="24" height="24" viewBox="0 0 24 24" fill="none" xmlns="http://www.w3.org/2000/svg">
<rect width="24" height="24" rx="6" fill="#32363B"/>
<g filter="url(#filter0_d_279_703)">
<path d="M17.281 10.7032H6.80083C6.25823 10.7032 5.81836 11.1318 5.81836 11.6605V18.0428C5.81836 18.5714 6.25823 19 6.80083 19H17.281C17.8236 19 18.2635 18.5714 18.2635 18.0428V11.6605C18.2635 11.1318 17.8236 10.7032 17.281 10.7032Z" fill="#5F97C9"/>
</g>
<g opacity="0.5" filter="url(#filter1_d_279_703)">
<path d="M12.041 11.7411C10.326 11.7411 8.92969 13.1374 8.92969 14.8524C8.92969 16.5673 10.326 17.9637 12.041 17.9637C13.7559 17.9637 15.1522 16.5673 15.1522 14.8524C15.1522 13.1374 13.7559 11.7411 12.041 11.7411ZM12.041 12.4318C13.3807 12.4318 14.4609 13.512 14.4609 14.8517C14.4609 16.1914 13.3807 17.2723 12.041 17.2723C10.7013 17.2723 9.62108 16.1914 9.62108 14.8517C9.62108 13.512 10.7013 12.4318 12.041 12.4318ZM12.041 13.1239C11.6428 13.1242 11.257 13.262 10.9487 13.514C10.6404 13.7659 10.4286 14.1166 10.3489 14.5067H11.0646C11.136 14.3047 11.2682 14.1298 11.4431 14.006C11.6179 13.8822 11.8268 13.8156 12.041 13.8153C12.316 13.8153 12.5798 13.9245 12.7743 14.119C12.9688 14.3135 13.0781 14.5773 13.0781 14.8524C13.0781 15.1274 12.9688 15.3912 12.7743 15.5857C12.5798 15.7802 12.316 15.8895 12.041 15.8895C11.8266 15.8893 11.6176 15.8227 11.4427 15.6989C11.2677 15.5751 11.1354 15.4001 11.064 15.1981H10.3476C10.4273 15.5884 10.6393 15.9392 10.9479 16.1912C11.2565 16.4432 11.6426 16.5808 12.041 16.5809C12.4994 16.5809 12.939 16.3988 13.2632 16.0746C13.5873 15.7504 13.7695 15.3108 13.7695 14.8524C13.7695 14.3939 13.5873 13.9543 13.2632 13.6301C12.939 13.306 12.4994 13.1239 12.041 13.1239Z" fill="#32363B"/>
</g>
<g filter="url(#filter2_d_279_703)">
<path fill-rule="evenodd" clip-rule="evenodd" d="M18.7822 5L17.5723 6.90134Z" fill="#4F9B7A"/>
<path d="M18.7822 5L17.5723 6.90134" stroke="#4F9B7A" stroke-width="1.2" stroke-linecap="round"/>
</g>
<g filter="url(#filter3_d_279_703)">
<path fill-rule="evenodd" clip-rule="evenodd" d="M5.30078 5L6.51072 6.90134Z" fill="#4F9B7A"/>
<path d="M5.30078 5L6.51072 6.90134" stroke="#4F9B7A" stroke-width="1.2" stroke-linecap="round"/>
</g>
<g filter="url(#filter4_d_279_703)">
<path d="M17.281 6.20923H6.80083C6.25823 6.20923 5.81836 6.6378 5.81836 7.16647V9.40037C5.81836 9.92903 6.25823 10.3576 6.80083 10.3576H17.281C17.8236 10.3576 18.2635 9.92903 18.2635 9.40037V7.16647C18.2635 6.6378 17.8236 6.20923 17.281 6.20923Z" fill="#6FBF9A"/>
</g>
<g filter="url(#filter5_d_279_703)">
<path d="M8.92967 9.32114C9.50244 9.32114 9.96677 8.85681 9.96677 8.28404C9.96677 7.71127 9.50244 7.24695 8.92967 7.24695C8.3569 7.24695 7.89258 7.71127 7.89258 8.28404C7.89258 8.85681 8.3569 9.32114 8.92967 9.32114Z" fill="#F4F5F7"/>
</g>
<g filter="url(#filter6_d_279_703)">
<path d="M15.1523 9.32114C15.7251 9.32114 16.1894 8.85681 16.1894 8.28404C16.1894 7.71127 15.7251 7.24695 15.1523 7.24695C14.5796 7.24695 14.1152 7.71127 14.1152 8.28404C14.1152 8.85681 14.5796 9.32114 15.1523 9.32114Z" fill="#F4F5F7"/>
</g>
<defs>
<filter id="filter0_d_279_703" x="5.81836" y="10.7032" width="13.2453" height="9.09675" filterUnits="userSpaceOnUse" color-interpolation-filters="sRGB">
<feFlood flood-opacity="0" result="BackgroundImageFix"/>
<feColorMatrix in="SourceAlpha" type="matrix" values="0 0 0 0 0 0 0 0 0 0 0 0 0 0 0 0 0 0 127 0" result="hardAlpha"/>
<feOffset dx="0.4" dy="0.4"/>
<feGaussianBlur stdDeviation="0.2"/>
<feComposite in2="hardAlpha" operator="out"/>
<feColorMatrix type="matrix" values="0 0 0 0 0 0 0 0 0 0 0 0 0 0 0 0 0 0 0.25 0"/>
<feBlend mode="normal" in2="BackgroundImageFix" result="effect1_dropShadow_279_703"/>
<feBlend mode="normal" in="SourceGraphic" in2="effect1_dropShadow_279_703" result="shape"/>
</filter>
<filter id="filter1_d_279_703" x="8.92969" y="11.7411" width="7.02266" height="7.02253" filterUnits="userSpaceOnUse" color-interpolation-filters="sRGB">
<feFlood flood-opacity="0" result="BackgroundImageFix"/>
<feColorMatrix in="SourceAlpha" type="matrix" values="0 0 0 0 0 0 0 0 0 0 0 0 0 0 0 0 0 0 127 0" result="hardAlpha"/>
<feOffset dx="0.4" dy="0.4"/>
<feGaussianBlur stdDeviation="0.2"/>
<feComposite in2="hardAlpha" operator="out"/>
<feColorMatrix type="matrix" values="0 0 0 0 0 0 0 0 0 0 0 0 0 0 0 0 0 0 0.25 0"/>
<feBlend mode="normal" in2="BackgroundImageFix" result="effect1_dropShadow_279_703"/>
<feBlend mode="normal" in="SourceGraphic" in2="effect1_dropShadow_279_703" result="shape"/>
</filter>
<filter id="filter2_d_279_703" x="16.9727" y="4.3999" width="3.21016" height="3.90156" filterUnits="userSpaceOnUse" color-interpolation-filters="sRGB">
<feFlood flood-opacity="0" result="BackgroundImageFix"/>
<feColorMatrix in="SourceAlpha" type="matrix" values="0 0 0 0 0 0 0 0 0 0 0 0 0 0 0 0 0 0 127 0" result="hardAlpha"/>
<feOffset dx="0.4" dy="0.4"/>
<feGaussianBlur stdDeviation="0.2"/>
<feComposite in2="hardAlpha" operator="out"/>
<feColorMatrix type="matrix" values="0 0 0 0 0 0 0 0 0 0 0 0 0 0 0 0 0 0 0.25 0"/>
<feBlend mode="normal" in2="BackgroundImageFix" result="effect1_dropShadow_279_703"/>
<feBlend mode="normal" in="SourceGraphic" in2="effect1_dropShadow_279_703" result="shape"/>
</filter>
<filter id="filter3_d_279_703" x="4.70117" y="4.3999" width="3.21016" height="3.90156" filterUnits="userSpaceOnUse" color-interpolation-filters="sRGB">
<feFlood flood-opacity="0" result="BackgroundImageFix"/>
<feColorMatrix in="SourceAlpha" type="matrix" values="0 0 0 0 0 0 0 0 0 0 0 0 0 0 0 0 0 0 127 0" result="hardAlpha"/>
<feOffset dx="0.4" dy="0.4"/>
<feGaussianBlur stdDeviation="0.2"/>
<feComposite in2="hardAlpha" operator="out"/>
<feColorMatrix type="matrix" values="0 0 0 0 0 0 0 0 0 0 0 0 0 0 0 0 0 0 0.25 0"/>
<feBlend mode="normal" in2="BackgroundImageFix" result="effect1_dropShadow_279_703"/>
<feBlend mode="normal" in="SourceGraphic" in2="effect1_dropShadow_279_703" result="shape"/>
</filter>
<filter id="filter4_d_279_703" x="5.81836" y="6.20923" width="13.2453" height="4.94832" filterUnits="userSpaceOnUse" color-interpolation-filters="sRGB">
<feFlood flood-opacity="0" result="BackgroundImageFix"/>
<feColorMatrix in="SourceAlpha" type="matrix" values="0 0 0 0 0 0 0 0 0 0 0 0 0 0 0 0 0 0 127 0" result="hardAlpha"/>
<feOffset dx="0.4" dy="0.4"/>
<feGaussianBlur stdDeviation="0.2"/>
<feComposite in2="hardAlpha" operator="out"/>
<feColorMatrix type="matrix" values="0 0 0 0 0 0 0 0 0 0 0 0 0 0 0 0 0 0 0.25 0"/>
<feBlend mode="normal" in2="BackgroundImageFix" result="effect1_dropShadow_279_703"/>
<feBlend mode="normal" in="SourceGraphic" in2="effect1_dropShadow_279_703" result="shape"/>
</filter>
<filter id="filter5_d_279_703" x="7.89258" y="7.24695" width="2.87422" height="2.87422" filterUnits="userSpaceOnUse" color-interpolation-filters="sRGB">
<feFlood flood-opacity="0" result="BackgroundImageFix"/>
<feColorMatrix in="SourceAlpha" type="matrix" values="0 0 0 0 0 0 0 0 0 0 0 0 0 0 0 0 0 0 127 0" result="hardAlpha"/>
<feOffset dx="0.4" dy="0.4"/>
<feGaussianBlur stdDeviation="0.2"/>
<feComposite in2="hardAlpha" operator="out"/>
<feColorMatrix type="matrix" values="0 0 0 0 0 0 0 0 0 0 0 0 0 0 0 0 0 0 0.25 0"/>
<feBlend mode="normal" in2="BackgroundImageFix" result="effect1_dropShadow_279_703"/>
<feBlend mode="normal" in="SourceGraphic" in2="effect1_dropShadow_279_703" result="shape"/>
</filter>
<filter id="filter6_d_279_703" x="14.1152" y="7.24695" width="2.87422" height="2.87422" filterUnits="userSpaceOnUse" color-interpolation-filters="sRGB">
<feFlood flood-opacity="0" result="BackgroundImageFix"/>
<feColorMatrix in="SourceAlpha" type="matrix" values="0 0 0 0 0 0 0 0 0 0 0 0 0 0 0 0 0 0 127 0" result="hardAlpha"/>
<feOffset dx="0.4" dy="0.4"/>
<feGaussianBlur stdDeviation="0.2"/>
<feComposite in2="hardAlpha" operator="out"/>
<feColorMatrix type="matrix" values="0 0 0 0 0 0 0 0 0 0 0 0 0 0 0 0 0 0 0.25 0"/>
<feBlend mode="normal" in2="BackgroundImageFix" result="effect1_dropShadow_279_703"/>
<feBlend mode="normal" in="SourceGraphic" in2="effect1_dropShadow_279_703" result="shape"/>
</filter>
</defs>
</svg>
