<svg width="24" height="24" viewBox="0 0 24 24" fill="none" xmlns="http://www.w3.org/2000/svg">
<rect width="24" height="24" rx="6" fill="#4F9B7A"/>
<g filter="url(#filter0_d_279_825)">
<path fill-rule="evenodd" clip-rule="evenodd" d="M5.88443 15.6516C5.90141 15.5223 5.87502 15.3914 5.81399 15.2761C5.06817 13.8679 4.82422 12.2452 5.12627 10.6765C5.441 9.0419 6.32793 7.57298 7.62792 6.5333C8.9279 5.49361 10.5558 4.95122 12.2196 5.00345C13.8834 5.05568 15.4741 5.6991 16.7063 6.81827C17.9386 7.93744 18.7316 9.4591 18.9432 11.1102C19.1548 12.7613 18.7711 14.4338 17.8609 15.8275C16.9507 17.2212 15.5736 18.245 13.9768 18.715C12.4353 19.1688 10.7863 19.078 9.30638 18.461C9.20217 18.4175 9.0884 18.4009 8.97662 18.4168L5.8467 18.8616C5.65018 18.8895 5.48121 18.7223 5.50705 18.5255L5.88443 15.6516ZM13.6177 17.4951C12.3672 17.8632 10.5885 17.6304 9.34752 17.1233C9.23957 17.0792 9.1221 17.0631 9.00696 17.0816L7.25017 17.3639C7.05533 17.3952 6.88385 17.2332 6.90416 17.0369L7.09268 15.2144C7.10552 15.0903 7.07857 14.9659 7.02072 14.8553C6.41173 13.6914 6.12954 12.1922 6.37508 10.9169C6.63263 9.57933 7.35843 8.37728 8.42223 7.52648C9.48604 6.67569 10.8182 6.23183 12.1797 6.27457C13.5412 6.31731 14.8429 6.84384 15.8513 7.75968C16.8596 8.67552 17.5086 9.92073 17.6818 11.2719C17.8549 12.623 17.5409 13.9916 16.7961 15.1321C16.0513 16.2726 14.9244 17.1104 13.6177 17.4951Z" fill="#F4F5F7"/>
</g>
<g filter="url(#filter1_d_279_825)">
<path d="M14.5985 13.3338L13.6263 13.2228C13.3928 13.196 13.1632 13.2764 12.9986 13.441C12.7251 13.7145 12.3024 13.7866 11.9795 13.5736C11.3317 13.1461 10.7748 12.5909 10.3462 11.9425C10.131 11.617 10.2042 11.1907 10.4801 10.9148C10.6447 10.7502 10.725 10.5205 10.6982 10.287L10.5872 9.3225C10.5413 8.93592 10.216 8.64502 9.82557 8.64502H9.1634C8.73089 8.64502 8.3711 9.00481 8.39789 9.43733C8.60075 12.7061 11.215 15.3165 14.4799 15.5193C14.9124 15.5461 15.2722 15.1863 15.2722 14.7538V14.0917C15.276 13.7051 14.9851 13.3797 14.5985 13.3338Z" fill="#F4F5F7"/>
</g>
<defs>
<filter id="filter0_d_279_825" x="5" y="5" width="14.8" height="14.8" filterUnits="userSpaceOnUse" color-interpolation-filters="sRGB">
<feFlood flood-opacity="0" result="BackgroundImageFix"/>
<feColorMatrix in="SourceAlpha" type="matrix" values="0 0 0 0 0 0 0 0 0 0 0 0 0 0 0 0 0 0 127 0" result="hardAlpha"/>
<feOffset dx="0.4" dy="0.4"/>
<feGaussianBlur stdDeviation="0.2"/>
<feComposite in2="hardAlpha" operator="out"/>
<feColorMatrix type="matrix" values="0 0 0 0 0 0 0 0 0 0 0 0 0 0 0 0 0 0 0.25 0"/>
<feBlend mode="normal" in2="BackgroundImageFix" result="effect1_dropShadow_279_825"/>
<feBlend mode="normal" in="SourceGraphic" in2="effect1_dropShadow_279_825" result="shape"/>
</filter>
<filter id="filter1_d_279_825" x="8.39648" y="8.64502" width="7.675" height="7.67573" filterUnits="userSpaceOnUse" color-interpolation-filters="sRGB">
<feFlood flood-opacity="0" result="BackgroundImageFix"/>
<feColorMatrix in="SourceAlpha" type="matrix" values="0 0 0 0 0 0 0 0 0 0 0 0 0 0 0 0 0 0 127 0" result="hardAlpha"/>
<feOffset dx="0.4" dy="0.4"/>
<feGaussianBlur stdDeviation="0.2"/>
<feComposite in2="hardAlpha" operator="out"/>
<feColorMatrix type="matrix" values="0 0 0 0 0 0 0 0 0 0 0 0 0 0 0 0 0 0 0.25 0"/>
<feBlend mode="normal" in2="BackgroundImageFix" result="effect1_dropShadow_279_825"/>
<feBlend mode="normal" in="SourceGraphic" in2="effect1_dropShadow_279_825" result="shape"/>
</filter>
</defs>
</svg>
