<svg width="24" height="24" viewBox="0 0 24 24" fill="none" xmlns="http://www.w3.org/2000/svg">
<rect width="24" height="24" rx="6" fill="#32363B"/>
<g filter="url(#filter0_d_289_1152)">
<path d="M17.2077 10.3218C18.0047 10.1529 18.8277 10.6096 18.9402 11.4165C19.0767 12.3947 18.9873 13.3448 18.6163 14.3556C18.0728 15.8364 17.0466 17.091 15.7031 17.9175C15.2566 18.1922 14.7836 18.4141 14.2937 18.5815C14.7518 17.9043 15.9558 14.9845 15.7801 11.9094C15.9782 11.1559 16.4546 10.4814 17.2077 10.3218ZM9.58047 5.35157C10.5807 4.98044 11.5634 4.92671 12.5592 5.08077C13.3882 5.20903 13.8518 6.06183 13.6585 6.87813C13.5219 7.45468 12.7479 7.98653 12.7479 7.98653C12.7479 7.98653 12.6862 7.94802 12.6549 7.92901C10.4511 7.23971 8.4453 7.1199 6.8457 7.19122C7.59413 6.37448 8.52982 5.74141 9.58047 5.35157Z" fill="#8A78C8"/>
</g>
<g filter="url(#filter1_d_289_1152)">
<path fill-rule="evenodd" clip-rule="evenodd" d="M6.84502 7.1913C8.65013 6.62743 10.6632 6.71885 12.6542 7.929C12.6855 7.94802 12.7164 7.9673 12.7472 7.98652C12.3879 8.17598 11.9646 8.27787 11.5452 8.29326C11.2625 8.30363 10.9863 8.35026 10.728 8.44609C9.94424 8.73691 9.2812 9.28317 8.8457 9.99677C8.41019 10.7104 8.22758 11.5499 8.32734 12.38C8.42711 13.21 8.80341 13.9823 9.3956 14.5724C9.9878 15.1625 10.7614 15.536 11.5918 15.6328C12.4222 15.7296 13.261 15.5441 13.973 15.1061C14.6851 14.668 15.229 14.0031 15.5171 13.2183C15.6076 12.9716 15.6623 12.7087 15.6867 12.4395C15.7028 12.2621 15.7336 12.0836 15.7795 11.9093C16.538 14.7577 15.2176 17.7233 14.293 18.5815C13.3087 18.9178 12.2556 19.0334 11.2096 18.9114C9.64279 18.7287 8.18307 18.0239 7.06572 16.9104C5.94838 15.7971 5.23842 14.3399 5.05019 12.7738C4.86197 11.2077 5.20642 9.62379 6.02812 8.27734C6.26603 7.8875 6.54001 7.52416 6.84502 7.1913Z" fill="#4F5F9F"/>
</g>
<g filter="url(#filter2_d_289_1152)">
<path d="M10.8117 11.2954C10.7844 10.6131 11.3394 10.045 12.0222 10.045C12.7051 10.045 13.26 10.6131 13.2327 11.2954L13.2182 11.6598C13.2034 12.0284 12.9276 12.3338 12.5625 12.386V13.2864C12.5625 13.5847 12.3206 13.8266 12.0222 13.8266C11.7239 13.8266 11.482 13.5847 11.482 13.2864V12.386C11.1169 12.3338 10.8411 12.0284 10.8263 11.6598L10.8117 11.2954Z" fill="#4F5F9F"/>
</g>
<defs>
<filter id="filter0_d_289_1152" x="6.8457" y="5" width="12.9543" height="14.3814" filterUnits="userSpaceOnUse" color-interpolation-filters="sRGB">
<feFlood flood-opacity="0" result="BackgroundImageFix"/>
<feColorMatrix in="SourceAlpha" type="matrix" values="0 0 0 0 0 0 0 0 0 0 0 0 0 0 0 0 0 0 127 0" result="hardAlpha"/>
<feOffset dx="0.4" dy="0.4"/>
<feGaussianBlur stdDeviation="0.2"/>
<feComposite in2="hardAlpha" operator="out"/>
<feColorMatrix type="matrix" values="0 0 0 0 0 0 0 0 0 0 0 0 0 0 0 0 0 0 0.25 0"/>
<feBlend mode="normal" in2="BackgroundImageFix" result="effect1_dropShadow_289_1152"/>
<feBlend mode="normal" in="SourceGraphic" in2="effect1_dropShadow_289_1152" result="shape"/>
</filter>
<filter id="filter1_d_289_1152" x="5" y="6.85779" width="11.8059" height="12.9008" filterUnits="userSpaceOnUse" color-interpolation-filters="sRGB">
<feFlood flood-opacity="0" result="BackgroundImageFix"/>
<feColorMatrix in="SourceAlpha" type="matrix" values="0 0 0 0 0 0 0 0 0 0 0 0 0 0 0 0 0 0 127 0" result="hardAlpha"/>
<feOffset dx="0.4" dy="0.4"/>
<feGaussianBlur stdDeviation="0.2"/>
<feComposite in2="hardAlpha" operator="out"/>
<feColorMatrix type="matrix" values="0 0 0 0 0 0 0 0 0 0 0 0 0 0 0 0 0 0 0.3 0"/>
<feBlend mode="normal" in2="BackgroundImageFix" result="effect1_dropShadow_289_1152"/>
<feBlend mode="normal" in="SourceGraphic" in2="effect1_dropShadow_289_1152" result="shape"/>
</filter>
<filter id="filter2_d_289_1152" x="10.8105" y="10.045" width="3.22383" height="4.58149" filterUnits="userSpaceOnUse" color-interpolation-filters="sRGB">
<feFlood flood-opacity="0" result="BackgroundImageFix"/>
<feColorMatrix in="SourceAlpha" type="matrix" values="0 0 0 0 0 0 0 0 0 0 0 0 0 0 0 0 0 0 127 0" result="hardAlpha"/>
<feOffset dx="0.4" dy="0.4"/>
<feGaussianBlur stdDeviation="0.2"/>
<feComposite in2="hardAlpha" operator="out"/>
<feColorMatrix type="matrix" values="0 0 0 0 0 0 0 0 0 0 0 0 0 0 0 0 0 0 0.3 0"/>
<feBlend mode="normal" in2="BackgroundImageFix" result="effect1_dropShadow_289_1152"/>
<feBlend mode="normal" in="SourceGraphic" in2="effect1_dropShadow_289_1152" result="shape"/>
</filter>
</defs>
</svg>
