<svg width="24" height="24" viewBox="0 0 24 24" fill="none" xmlns="http://www.w3.org/2000/svg">
<rect width="24" height="24" rx="6" fill="#32363B"/>
<g filter="url(#filter0_d_259_905)">
<path d="M20.0002 14.9028C20.0002 15.1048 19.8365 15.2685 19.6345 15.2685H18.9945C18.7926 15.2685 18.6288 15.1048 18.6288 14.9028V14.4914C18.6288 14.0622 18.2809 13.7142 17.8517 13.7142C17.4225 13.7142 17.0745 14.0622 17.0745 14.4914V14.9028C17.0745 15.1048 16.9108 15.2685 16.7088 15.2685H16.0688C15.8669 15.2685 15.7031 15.1048 15.7031 14.9028V13.0742H20.0002V14.9028Z" fill="#6FBF9A"/>
<path d="M15.7031 13.0744V10.8801H19.6345C19.8365 10.8801 20.0002 11.0439 20.0002 11.2458V13.0744H15.7031Z" fill="#4F9B7A"/>
<path d="M11.5898 13.0744V10.8801H15.7041V13.0744H11.5898Z" fill="#B8A64F"/>
<path d="M11.9542 11.9771C11.9542 14.1737 10.1736 15.9543 7.97711 15.9543C5.78061 15.9543 4 14.1737 4 11.9771C4 9.78063 5.78061 8 7.97711 8C10.1736 8 11.9542 9.78063 11.9542 11.9771ZM6.18741 11.9771C6.18741 12.9656 6.98869 13.7669 7.97711 13.7669C8.96554 13.7669 9.76681 12.9656 9.76681 11.9771C9.76681 10.9887 8.96554 10.1874 7.97711 10.1874C6.98869 10.1874 6.18741 10.9887 6.18741 11.9771Z" fill="#3F79AD"/>
<path d="M11.8003 10.8801C11.9001 11.2286 11.9537 11.5967 11.9537 11.9773C11.9537 12.3578 11.9001 12.7259 11.8003 13.0744H9.39062C9.62607 12.7714 9.76634 12.3907 9.76634 11.9773C9.76634 11.5638 9.62607 11.1831 9.39062 10.8801H11.8003Z" fill="#B04F58"/>
</g>
<defs>
<filter id="filter0_d_259_905" x="4" y="8" width="16.8" height="8.75435" filterUnits="userSpaceOnUse" color-interpolation-filters="sRGB">
<feFlood flood-opacity="0" result="BackgroundImageFix"/>
<feColorMatrix in="SourceAlpha" type="matrix" values="0 0 0 0 0 0 0 0 0 0 0 0 0 0 0 0 0 0 127 0" result="hardAlpha"/>
<feOffset dx="0.4" dy="0.4"/>
<feGaussianBlur stdDeviation="0.2"/>
<feComposite in2="hardAlpha" operator="out"/>
<feColorMatrix type="matrix" values="0 0 0 0 0 0 0 0 0 0 0 0 0 0 0 0 0 0 0.25 0"/>
<feBlend mode="normal" in2="BackgroundImageFix" result="effect1_dropShadow_259_905"/>
<feBlend mode="normal" in="SourceGraphic" in2="effect1_dropShadow_259_905" result="shape"/>
</filter>
</defs>
</svg>
