<svg width="24" height="24" viewBox="0 0 24 24" fill="none" xmlns="http://www.w3.org/2000/svg">
<rect width="24" height="24" rx="6" fill="#32363B"/>
<g filter="url(#filter0_d_291_3359)">
<path d="M20.0002 14.9029C20.0002 15.1048 19.8365 15.2686 19.6345 15.2686H18.9945C18.7926 15.2686 18.6288 15.1048 18.6288 14.9029V14.4914C18.6288 14.0622 18.2809 13.7143 17.8517 13.7143C17.4225 13.7143 17.0745 14.0622 17.0745 14.4914V14.9029C17.0745 15.1048 16.9108 15.2686 16.7088 15.2686H16.0688C15.8669 15.2686 15.7031 15.1048 15.7031 14.9029V13.0743L17.8517 12.7743L20.0002 13.0743V14.9029Z" fill="#6FBF9A"/>
<path d="M15.7023 13.0743L15.4023 11.9771L15.7023 10.88H19.6337C19.8357 10.88 19.9995 11.0437 19.9995 11.2457V13.0743H15.7023Z" fill="#4F9B7A"/>
<path d="M11.5879 13.0743V10.88H15.7021V13.0743H11.5879Z" fill="#B8A64F"/>
<path d="M11.9542 11.9771C11.9542 14.1737 10.1736 15.9543 7.97711 15.9543C5.78061 15.9543 4 14.1737 4 11.9771C4 9.78063 5.78061 8 7.97711 8C10.1736 8 11.9542 9.78063 11.9542 11.9771ZM6.18741 11.9771C6.18741 12.9656 6.98869 13.7669 7.97711 13.7669C8.96554 13.7669 9.76681 12.9656 9.76681 11.9771C9.76681 10.9887 8.96554 10.1874 7.97711 10.1874C6.98869 10.1874 6.18741 10.9887 6.18741 11.9771Z" fill="#3F79AD"/>
<path d="M11.8003 10.88C11.9001 11.2285 11.9537 11.5966 11.9537 11.9771C11.9537 12.3577 11.9001 12.7258 11.8003 13.0743H9.39062C9.62607 12.7713 9.76634 12.3906 9.76634 11.9771C9.76634 11.5637 9.62607 11.183 9.39062 10.88H11.8003Z" fill="#B04F58"/>
</g>
<defs>
<filter id="filter0_d_291_3359" x="4" y="8" width="16.8" height="8.75435" filterUnits="userSpaceOnUse" color-interpolation-filters="sRGB">
<feFlood flood-opacity="0" result="BackgroundImageFix"/>
<feColorMatrix in="SourceAlpha" type="matrix" values="0 0 0 0 0 0 0 0 0 0 0 0 0 0 0 0 0 0 127 0" result="hardAlpha"/>
<feOffset dx="0.4" dy="0.4"/>
<feGaussianBlur stdDeviation="0.2"/>
<feComposite in2="hardAlpha" operator="out"/>
<feColorMatrix type="matrix" values="0 0 0 0 0 0 0 0 0 0 0 0 0 0 0 0 0 0 0.25 0"/>
<feBlend mode="normal" in2="BackgroundImageFix" result="effect1_dropShadow_291_3359"/>
<feBlend mode="normal" in="SourceGraphic" in2="effect1_dropShadow_291_3359" result="shape"/>
</filter>
</defs>
</svg>
