<svg width="24" height="24" viewBox="0 0 24 24" fill="none" xmlns="http://www.w3.org/2000/svg">
<rect width="24" height="24" rx="6" fill="#32363B"/>
<g filter="url(#filter0_d_227_308)">
<path d="M18.8745 15.7161C18.8066 15.8654 18.712 16.0028 18.5938 16.1211L16.1199 18.595C15.9231 18.7918 15.7148 18.8754 15.7148 18.8754V15.7161H18.8745Z" fill="#B04F58"/>
<path d="M18.9988 15.1433C18.9988 15.3428 18.9556 15.5379 18.8745 15.716H15.7148V8.28394H18.9988V15.1433Z" fill="#B8A64F"/>
<path d="M15.7173 18.8756C15.5391 18.9567 15.3441 19 15.1446 19H8.28516V15.7161H15.7173V18.8756Z" fill="#6FBF9A"/>
<path d="M15.7148 5H17.3988C18.2825 5 18.9988 5.71634 18.9988 6.6V8.28395H15.7148V5Z" fill="#4F5F9F"/>
<path d="M5 15.7161H8.28395V19H6.6C5.71634 19 5 18.2837 5 17.4V15.7161Z" fill="#4F9B7A"/>
<path d="M8.28395 15.716H5V6.6C5 5.71634 5.71634 5 6.6 5H15.716V8.28395H8.28395V15.716Z" fill="#3F79AD"/>
</g>
<g filter="url(#filter1_d_227_308)">
<path d="M14.3762 9.97314C14.4867 9.97314 14.5762 10.0627 14.5762 10.1731V14.047C14.5762 14.1575 14.4867 14.247 14.3762 14.247H14.002C13.8915 14.247 13.802 14.1575 13.802 14.047V11.0868C13.802 10.9298 13.6294 10.834 13.4962 10.9171L13.0831 11.1745C12.9499 11.2575 12.7773 11.1617 12.7773 11.0048V10.7648C12.7773 10.6967 12.812 10.6333 12.8692 10.5965L13.7902 10.0049C13.8224 9.98416 13.8599 9.97314 13.8983 9.97314H14.3762Z" fill="#F4F5F7"/>
<path d="M10.5438 14.3053C10.2433 14.3053 9.97616 14.2538 9.74243 14.1508C9.5101 14.0479 9.32646 13.9046 9.19151 13.7209C9.09635 13.5915 9.03266 13.4478 9.00045 13.2899C8.97783 13.179 9.07044 13.0845 9.18362 13.0845H9.5729C9.67869 13.0845 9.76157 13.1698 9.80334 13.267C9.82171 13.3098 9.84593 13.3498 9.87599 13.3871C9.94555 13.4719 10.0381 13.538 10.1535 13.5853C10.269 13.6326 10.3984 13.6563 10.5417 13.6563C10.6947 13.6563 10.8304 13.6298 10.9486 13.577C11.0669 13.5227 11.1594 13.4476 11.2262 13.3516C11.293 13.2556 11.3256 13.145 11.3243 13.0198C11.3256 12.8904 11.2923 12.7763 11.2241 12.6775C11.1559 12.5788 11.0571 12.5015 10.9278 12.4459C10.7998 12.3902 10.6453 12.3624 10.4645 12.3624H10.2868C10.1763 12.3624 10.0868 12.2729 10.0868 12.1624V11.9656C10.0868 11.8551 10.1763 11.7656 10.2868 11.7656H10.4645C10.6133 11.7656 10.7434 11.7398 10.8547 11.6884C10.9674 11.6369 11.0558 11.5645 11.1197 11.4713C11.1837 11.3767 11.215 11.2675 11.2137 11.1437C11.215 11.0227 11.1879 10.9176 11.1323 10.8286C11.078 10.7382 11.0008 10.6679 10.9006 10.6178C10.8019 10.5677 10.6857 10.5427 10.5521 10.5427C10.4214 10.5427 10.3003 10.5663 10.189 10.6136C10.0777 10.6609 9.98798 10.7284 9.91981 10.8161C9.8905 10.8532 9.8671 10.8933 9.84962 10.9366C9.80926 11.0365 9.7259 11.1249 9.61815 11.1249H9.271C9.15872 11.1249 9.06637 11.0318 9.0876 10.9215C9.1178 10.7647 9.17956 10.6224 9.27289 10.4947C9.40645 10.3124 9.58453 10.1705 9.80712 10.069C10.0297 9.96603 10.2794 9.91455 10.5563 9.91455C10.8415 9.91455 11.0891 9.96811 11.2992 10.0752C11.5107 10.181 11.6742 10.3236 11.7896 10.503C11.9051 10.6825 11.9628 10.8808 11.9628 11.0978C11.9642 11.3385 11.8933 11.5402 11.75 11.703C11.6081 11.8657 11.4216 11.9722 11.1907 12.0223V12.0556C11.4912 12.0974 11.7215 12.2087 11.8814 12.3895C12.0428 12.569 12.1228 12.7923 12.1214 13.0594C12.1214 13.2987 12.0533 13.513 11.9169 13.7022C11.782 13.89 11.5955 14.0375 11.3576 14.1446C11.1211 14.2517 10.8498 14.3053 10.5438 14.3053Z" fill="#F4F5F7"/>
</g>
<defs>
<filter id="filter0_d_227_308" x="5" y="5" width="14.8" height="14.8" filterUnits="userSpaceOnUse" color-interpolation-filters="sRGB">
<feFlood flood-opacity="0" result="BackgroundImageFix"/>
<feColorMatrix in="SourceAlpha" type="matrix" values="0 0 0 0 0 0 0 0 0 0 0 0 0 0 0 0 0 0 127 0" result="hardAlpha"/>
<feOffset dx="0.4" dy="0.4"/>
<feGaussianBlur stdDeviation="0.2"/>
<feComposite in2="hardAlpha" operator="out"/>
<feColorMatrix type="matrix" values="0 0 0 0 0 0 0 0 0 0 0 0 0 0 0 0 0 0 0.25 0"/>
<feBlend mode="normal" in2="BackgroundImageFix" result="effect1_dropShadow_227_308"/>
<feBlend mode="normal" in="SourceGraphic" in2="effect1_dropShadow_227_308" result="shape"/>
</filter>
<filter id="filter1_d_227_308" x="8.99609" y="9.91455" width="6.38203" height="5.19063" filterUnits="userSpaceOnUse" color-interpolation-filters="sRGB">
<feFlood flood-opacity="0" result="BackgroundImageFix"/>
<feColorMatrix in="SourceAlpha" type="matrix" values="0 0 0 0 0 0 0 0 0 0 0 0 0 0 0 0 0 0 127 0" result="hardAlpha"/>
<feOffset dx="0.4" dy="0.4"/>
<feGaussianBlur stdDeviation="0.2"/>
<feComposite in2="hardAlpha" operator="out"/>
<feColorMatrix type="matrix" values="0 0 0 0 0 0 0 0 0 0 0 0 0 0 0 0 0 0 0.25 0"/>
<feBlend mode="normal" in2="BackgroundImageFix" result="effect1_dropShadow_227_308"/>
<feBlend mode="normal" in="SourceGraphic" in2="effect1_dropShadow_227_308" result="shape"/>
</filter>
</defs>
</svg>
