<svg width="24" height="24" viewBox="0 0 24 24" fill="none" xmlns="http://www.w3.org/2000/svg">
<rect width="24" height="24" rx="6" fill="#32363B"/>
<g filter="url(#filter0_d_180_105)">
<path d="M16.3171 5C17.0534 5 17.6504 5.59695 17.6504 6.33333V17.6667C17.6504 18.403 17.0534 19 16.3171 19H8.56706C7.37044 19 6.40039 18.03 6.40039 16.8333V7.16667C6.40039 5.97005 7.37044 5 8.56706 5H16.3171Z" fill="#4F9B7A"/>
</g>
<g opacity="0.75" filter="url(#filter1_d_180_105)">
<path d="M13.4004 9.66663C12.664 9.66663 12.0671 10.2636 12.0671 11V13.1666C12.0671 13.811 11.5447 14.3333 10.9004 14.3333H8.56706C8.54918 14.3333 8.53136 14.3335 8.51359 14.3339C8.50751 14.3341 8.50143 14.3344 8.49536 14.3346C8.48288 14.335 8.47043 14.3354 8.45801 14.336C8.45361 14.3362 8.44922 14.3365 8.44482 14.3368C8.43117 14.3376 8.41755 14.3384 8.40397 14.3394C8.3977 14.3399 8.39143 14.3404 8.38517 14.3409C8.37507 14.3418 8.36497 14.3426 8.3549 14.3435C8.34544 14.3445 8.336 14.3455 8.32658 14.3466C8.31761 14.3475 8.30866 14.3486 8.29972 14.3497C8.29307 14.3505 8.28642 14.3514 8.27979 14.3523C8.26823 14.3538 8.2567 14.3553 8.2452 14.3571C8.23878 14.358 8.23239 14.3591 8.22599 14.3601C8.21558 14.3617 8.20519 14.3634 8.19482 14.3652C8.18787 14.3664 8.18093 14.3677 8.17399 14.3689C8.16314 14.3709 8.15231 14.373 8.14152 14.3751C8.13544 14.3763 8.12936 14.3775 8.12329 14.3788C8.11197 14.3811 8.10069 14.3837 8.08944 14.3862C8.08333 14.3876 8.07722 14.3889 8.07113 14.3903C8.06144 14.3926 8.05179 14.395 8.04215 14.3974C8.03469 14.3993 8.02721 14.4011 8.01978 14.403C8.00924 14.4058 7.99875 14.4086 7.98828 14.4115C7.98244 14.4131 7.9766 14.4147 7.97078 14.4164C7.95948 14.4196 7.94824 14.423 7.93701 14.4264C7.93153 14.4281 7.92603 14.4297 7.92057 14.4314C7.87149 14.4467 7.82315 14.4637 7.77563 14.4824C7.76871 14.4851 7.76185 14.488 7.75496 14.4908C7.7478 14.4937 7.74061 14.4965 7.73348 14.4995L7.72371 14.5035C7.71758 14.5061 7.71151 14.5089 7.7054 14.5115C7.69769 14.5149 7.68996 14.5182 7.68229 14.5216C7.67411 14.5253 7.666 14.5291 7.65788 14.5328C7.65133 14.5359 7.64477 14.5389 7.63827 14.542C7.62946 14.5461 7.62072 14.5504 7.61198 14.5547C7.60469 14.5583 7.59741 14.5619 7.59017 14.5656C7.58282 14.5693 7.5755 14.5731 7.5682 14.5769C7.56164 14.5803 7.5551 14.5837 7.54858 14.5872C7.53855 14.5926 7.52857 14.598 7.51864 14.6035C7.51467 14.6057 7.5107 14.6078 7.50675 14.6101C7.49741 14.6153 7.4881 14.6206 7.47884 14.626C7.47309 14.6294 7.46739 14.6328 7.46167 14.6362C7.41011 14.6668 7.35988 14.6995 7.3112 14.7342C7.30582 14.738 7.30051 14.7419 7.29517 14.7458C7.27846 14.7579 7.26195 14.7703 7.24561 14.7829C7.22757 14.7968 7.20972 14.8109 7.19214 14.8254C7.18303 14.8329 7.17402 14.8405 7.16504 14.8481C7.16187 14.8508 7.15867 14.8535 7.15552 14.8562C7.14642 14.864 7.13746 14.872 7.1285 14.8799C7.12489 14.8831 7.12126 14.8863 7.11768 14.8895C7.10974 14.8967 7.1019 14.9039 7.09408 14.9112C7.08946 14.9155 7.08482 14.9197 7.08024 14.924C7.07255 14.9313 7.06495 14.9386 7.05737 14.946C7.05341 14.9499 7.04942 14.9537 7.04549 14.9576C7.03772 14.9652 7.03003 14.973 7.02238 14.9808C7.01812 14.9851 7.01383 14.9894 7.0096 14.9938C7.00227 15.0014 6.99502 15.009 6.98779 15.0167C6.98419 15.0206 6.98062 15.0244 6.97705 15.0283C6.96862 15.0374 6.96026 15.0465 6.95199 15.0558C6.95 15.058 6.94802 15.0602 6.94604 15.0625C6.93797 15.0716 6.92996 15.0807 6.92204 15.09C6.91723 15.0956 6.91247 15.1012 6.90771 15.1069C6.90194 15.1138 6.89615 15.1206 6.89046 15.1276C6.88528 15.1339 6.8802 15.1403 6.87508 15.1467C6.86986 15.1532 6.86461 15.1597 6.85946 15.1663C6.85587 15.1709 6.85235 15.1755 6.8488 15.1801C6.79384 15.2516 6.74319 15.3265 6.69735 15.4046C6.69583 15.4072 6.69429 15.4097 6.69279 15.4123C6.67803 15.4377 6.66381 15.4634 6.65007 15.4895C6.64829 15.4928 6.64653 15.4962 6.64478 15.4996C6.63868 15.5112 6.63268 15.523 6.62679 15.5348C6.62568 15.537 6.62456 15.5392 6.62345 15.5415C6.61735 15.5538 6.61135 15.5662 6.60547 15.5787C6.60406 15.5817 6.60272 15.5848 6.60132 15.5878C6.58866 15.615 6.57649 15.6425 6.56494 15.6704C6.56391 15.6729 6.56295 15.6754 6.56193 15.6779C6.50115 15.826 6.45632 15.9822 6.42952 16.1447C6.4291 16.1473 6.42864 16.1499 6.42822 16.1525C6.42302 16.1847 6.41856 16.2172 6.41479 16.25H6.40039V11.8333C6.40039 11.7487 6.40537 11.6653 6.41479 11.5833C6.41855 11.5506 6.42302 11.5181 6.42822 11.4858C6.42864 11.4832 6.4291 11.4806 6.42952 11.478C6.45632 11.3156 6.50116 11.1593 6.56193 11.0112C6.56295 11.0087 6.56391 11.0062 6.56494 11.0037C6.57649 10.9759 6.58866 10.9483 6.60132 10.9211C6.61677 10.8879 6.63301 10.8551 6.65007 10.8228C6.66381 10.7968 6.67803 10.771 6.69279 10.7456C6.69429 10.7431 6.69583 10.7405 6.69735 10.7379C6.74319 10.6598 6.79385 10.5849 6.8488 10.5135C6.96335 10.3645 7.0968 10.2309 7.24561 10.1163C7.26195 10.1037 7.27846 10.0913 7.29517 10.0791C7.30051 10.0753 7.30582 10.0713 7.3112 10.0675C7.35988 10.0328 7.41011 10.0002 7.46167 9.96952C7.7853 9.77717 8.16326 9.66663 8.56706 9.66663H13.4004Z" fill="#6FBF9A"/>
</g>
<g filter="url(#filter2_d_180_105)">
<path d="M16.2504 5C17.0236 5 17.6504 5.6268 17.6504 6.4V8.26664C17.6504 9.03984 17.0236 9.66664 16.2504 9.66664H8.56704C7.45499 9.66665 6.53879 10.5045 6.41483 11.5833H6.40039V7.16665C6.4004 5.97005 7.37044 5.00001 8.56704 5H16.2504Z" fill="#6FBF9A"/>
</g>
<defs>
<filter id="filter0_d_180_105" x="6.40039" y="5" width="12.05" height="14.8" filterUnits="userSpaceOnUse" color-interpolation-filters="sRGB">
<feFlood flood-opacity="0" result="BackgroundImageFix"/>
<feColorMatrix in="SourceAlpha" type="matrix" values="0 0 0 0 0 0 0 0 0 0 0 0 0 0 0 0 0 0 127 0" result="hardAlpha"/>
<feOffset dx="0.4" dy="0.4"/>
<feGaussianBlur stdDeviation="0.2"/>
<feComposite in2="hardAlpha" operator="out"/>
<feColorMatrix type="matrix" values="0 0 0 0 0 0 0 0 0 0 0 0 0 0 0 0 0 0 0.25 0"/>
<feBlend mode="normal" in2="BackgroundImageFix" result="effect1_dropShadow_180_105"/>
<feBlend mode="normal" in="SourceGraphic" in2="effect1_dropShadow_180_105" result="shape"/>
</filter>
<filter id="filter1_d_180_105" x="6.40039" y="9.66663" width="7.8" height="7.38337" filterUnits="userSpaceOnUse" color-interpolation-filters="sRGB">
<feFlood flood-opacity="0" result="BackgroundImageFix"/>
<feColorMatrix in="SourceAlpha" type="matrix" values="0 0 0 0 0 0 0 0 0 0 0 0 0 0 0 0 0 0 127 0" result="hardAlpha"/>
<feOffset dx="0.4" dy="0.4"/>
<feGaussianBlur stdDeviation="0.2"/>
<feComposite in2="hardAlpha" operator="out"/>
<feColorMatrix type="matrix" values="0 0 0 0 0 0 0 0 0 0 0 0 0 0 0 0 0 0 0.25 0"/>
<feBlend mode="normal" in2="BackgroundImageFix" result="effect1_dropShadow_180_105"/>
<feBlend mode="normal" in="SourceGraphic" in2="effect1_dropShadow_180_105" result="shape"/>
</filter>
<filter id="filter2_d_180_105" x="6.40039" y="5" width="12.05" height="7.38337" filterUnits="userSpaceOnUse" color-interpolation-filters="sRGB">
<feFlood flood-opacity="0" result="BackgroundImageFix"/>
<feColorMatrix in="SourceAlpha" type="matrix" values="0 0 0 0 0 0 0 0 0 0 0 0 0 0 0 0 0 0 127 0" result="hardAlpha"/>
<feOffset dx="0.4" dy="0.4"/>
<feGaussianBlur stdDeviation="0.2"/>
<feComposite in2="hardAlpha" operator="out"/>
<feColorMatrix type="matrix" values="0 0 0 0 0 0 0 0 0 0 0 0 0 0 0 0 0 0 0.25 0"/>
<feBlend mode="normal" in2="BackgroundImageFix" result="effect1_dropShadow_180_105"/>
<feBlend mode="normal" in="SourceGraphic" in2="effect1_dropShadow_180_105" result="shape"/>
</filter>
</defs>
</svg>
