<svg width="24" height="24" viewBox="0 0 24 24" fill="none" xmlns="http://www.w3.org/2000/svg">
<rect width="24" height="24" rx="6" fill="#32363B"/>
<g filter="url(#filter0_d_148_240)">
<path d="M17.5 6.2002C18.3284 6.2002 19 6.87177 19 7.7002V12.6475H15.042C14.3793 12.6476 13.8418 13.185 13.8418 13.8477V17.8057H6.5C5.67164 17.8057 5.00011 17.134 5 16.3057V7.7002C5 6.87177 5.67157 6.2002 6.5 6.2002H17.5Z" fill="#8A78C8"/>
</g>
<g filter="url(#filter1_d_148_240)">
<path d="M14.5527 7.9502C15.3811 7.95025 16.0527 8.6218 16.0527 9.4502V12.6475H15.0273C14.6574 12.6475 14.3075 12.8185 14.0801 13.1104L11.6084 16.2822C11.4442 16.493 11.3555 16.7533 11.3555 17.0205V17.8057H6.5C5.67164 17.8057 5.00011 17.134 5 16.3057V9.4502C5 8.62177 5.67157 7.9502 6.5 7.9502H14.5527Z" fill="#4F5F9F"/>
</g>
<g filter="url(#filter2_d_148_240)">
<path d="M17.5204 16.4779C17.4652 16.4779 17.4204 16.4331 17.4204 16.3779V14.5881C17.4204 14.5328 17.3756 14.4881 17.3204 14.4881H17.0648C17.0096 14.4881 16.9648 14.4433 16.9648 14.3881V14.2211C16.9648 14.1659 17.0096 14.1211 17.0648 14.1211H17.7506C17.8058 14.1211 17.8506 14.1659 17.8506 14.2211V16.3779C17.8506 16.4331 17.8058 16.4779 17.7506 16.4779H17.5204Z" fill="#8A78C8"/>
<path d="M15.8647 16.5158C15.7361 16.5158 15.6138 16.4926 15.4978 16.4462C15.3839 16.3977 15.2858 16.3302 15.2036 16.2438C15.1433 16.1772 15.0974 16.1016 15.0657 16.0171C15.0477 15.969 15.076 15.9175 15.1245 15.9004L15.3212 15.831C15.3733 15.8126 15.4294 15.8406 15.4559 15.8891C15.4907 15.9531 15.5353 16.0049 15.5895 16.0445C15.6675 16.0993 15.7593 16.1267 15.8647 16.1267C15.9491 16.1267 16.0218 16.1109 16.083 16.0793C16.1463 16.0476 16.1958 16.0023 16.2317 15.9432C16.2675 15.8821 16.2855 15.8104 16.2855 15.7281C16.2855 15.6459 16.2675 15.5763 16.2317 15.5193C16.1979 15.4603 16.1494 15.4149 16.0862 15.3833C16.0229 15.3517 15.948 15.3359 15.8616 15.3359C15.8215 15.3359 15.7793 15.3401 15.735 15.3485C15.7289 15.3497 15.7229 15.3511 15.7169 15.3525C15.6625 15.3653 15.6014 15.345 15.5773 15.2945L15.5514 15.2403C15.5342 15.2042 15.5402 15.1614 15.5665 15.1313L15.988 14.6508C16.0447 14.5862 15.9988 14.4849 15.9129 14.4849H15.2719C15.2167 14.4849 15.1719 14.4401 15.1719 14.3849V14.2211C15.1719 14.1659 15.2167 14.1211 15.2719 14.1211H16.5176C16.5729 14.1211 16.6176 14.1659 16.6176 14.2211V14.4227C16.6176 14.4465 16.6091 14.4695 16.5936 14.4876L16.0039 15.1777L16.0102 15.0164C16.1515 15.0185 16.2749 15.049 16.3804 15.1081C16.4858 15.1671 16.5681 15.2483 16.6271 15.3517C16.6862 15.455 16.7157 15.5763 16.7157 15.7155C16.7157 15.8673 16.6788 16.0044 16.605 16.1267C16.5312 16.2469 16.4299 16.3418 16.3013 16.4114C16.1726 16.481 16.0271 16.5158 15.8647 16.5158Z" fill="#8A78C8"/>
</g>
<defs>
<filter id="filter0_d_148_240" x="5" y="6.2002" width="14.8" height="12.4055" filterUnits="userSpaceOnUse" color-interpolation-filters="sRGB">
<feFlood flood-opacity="0" result="BackgroundImageFix"/>
<feColorMatrix in="SourceAlpha" type="matrix" values="0 0 0 0 0 0 0 0 0 0 0 0 0 0 0 0 0 0 127 0" result="hardAlpha"/>
<feOffset dx="0.4" dy="0.4"/>
<feGaussianBlur stdDeviation="0.2"/>
<feComposite in2="hardAlpha" operator="out"/>
<feColorMatrix type="matrix" values="0 0 0 0 0 0 0 0 0 0 0 0 0 0 0 0 0 0 0.25 0"/>
<feBlend mode="normal" in2="BackgroundImageFix" result="effect1_dropShadow_148_240"/>
<feBlend mode="normal" in="SourceGraphic" in2="effect1_dropShadow_148_240" result="shape"/>
</filter>
<filter id="filter1_d_148_240" x="5" y="7.9502" width="11.8527" height="10.6555" filterUnits="userSpaceOnUse" color-interpolation-filters="sRGB">
<feFlood flood-opacity="0" result="BackgroundImageFix"/>
<feColorMatrix in="SourceAlpha" type="matrix" values="0 0 0 0 0 0 0 0 0 0 0 0 0 0 0 0 0 0 127 0" result="hardAlpha"/>
<feOffset dx="0.4" dy="0.4"/>
<feGaussianBlur stdDeviation="0.2"/>
<feComposite in2="hardAlpha" operator="out"/>
<feColorMatrix type="matrix" values="0 0 0 0 0 0 0 0 0 0 0 0 0 0 0 0 0 0 0.3 0"/>
<feBlend mode="normal" in2="BackgroundImageFix" result="effect1_dropShadow_148_240"/>
<feBlend mode="normal" in="SourceGraphic" in2="effect1_dropShadow_148_240" result="shape"/>
</filter>
<filter id="filter2_d_148_240" x="15.0605" y="14.1211" width="3.59102" height="3.19453" filterUnits="userSpaceOnUse" color-interpolation-filters="sRGB">
<feFlood flood-opacity="0" result="BackgroundImageFix"/>
<feColorMatrix in="SourceAlpha" type="matrix" values="0 0 0 0 0 0 0 0 0 0 0 0 0 0 0 0 0 0 127 0" result="hardAlpha"/>
<feOffset dx="0.4" dy="0.4"/>
<feGaussianBlur stdDeviation="0.2"/>
<feComposite in2="hardAlpha" operator="out"/>
<feColorMatrix type="matrix" values="0 0 0 0 0 0 0 0 0 0 0 0 0 0 0 0 0 0 0.25 0"/>
<feBlend mode="normal" in2="BackgroundImageFix" result="effect1_dropShadow_148_240"/>
<feBlend mode="normal" in="SourceGraphic" in2="effect1_dropShadow_148_240" result="shape"/>
</filter>
</defs>
</svg>
