<svg width="24" height="24" viewBox="0 0 24 24" fill="none" xmlns="http://www.w3.org/2000/svg">
<rect width="24" height="24" rx="6" fill="#32363B"/>
<g filter="url(#filter0_d_291_3423)">
<path d="M17.7271 18.0455V9.24667C16.6217 8.7465 15.9676 8.71867 14.7604 8.9C14.1998 8.9 13.8912 8.24991 13.8912 7.72273C14.0614 6.60182 13.5271 5 13.5271 5H7.91539C7.35482 5 6.90039 5.42736 6.90039 5.95455V18.0455C6.90039 18.5726 7.35482 19 7.91539 19H16.7121C17.2726 19 17.7271 18.5726 17.7271 18.0455Z" fill="#4F9B7A"/>
</g>
<g filter="url(#filter1_d_291_3423)">
<path d="M13.5261 5C13.8669 5.01336 14.1823 5.15563 14.4243 5.39765L17.3624 8.33569C17.6044 8.57771 17.7128 8.90596 17.7261 9.24667L14.5358 9.24243C13.9734 9.24243 13.5176 8.78657 13.5176 8.22424L13.5261 5Z" fill="#6FBF9A"/>
</g>
<g filter="url(#filter2_d_291_3423)">
<path d="M15.7243 15.2909C15.7243 15.5118 15.5452 15.6909 15.3243 15.6909H9.25156C9.03065 15.6909 8.85156 15.5118 8.85156 15.2909V11.1697C8.85156 10.9487 9.03065 10.7697 9.25156 10.7697H15.3243C15.5452 10.7697 15.7243 10.9487 15.7243 11.1697V15.2909ZM10.1849 13.6545C9.96398 13.6545 9.7849 13.8336 9.7849 14.0545V14.4424C9.7849 14.6633 9.96398 14.8424 10.1849 14.8424H11.5061C11.727 14.8424 11.9061 14.6633 11.9061 14.4424V14.0545C11.9061 13.8336 11.727 13.6545 11.5061 13.6545H10.1849ZM12.7546 14.4424C12.7546 14.6633 12.9337 14.8424 13.1546 14.8424H14.4758C14.6967 14.8424 14.8758 14.6633 14.8758 14.4424V14.0545C14.8758 13.8336 14.6967 13.6545 14.4758 13.6545H13.1546C12.9337 13.6545 12.7546 13.8336 12.7546 14.0545V14.4424ZM9.7849 12.406C9.7849 12.6269 9.96398 12.806 10.1849 12.806H11.5061C11.727 12.806 11.9061 12.6269 11.9061 12.406V12.0181C11.9061 11.7972 11.727 11.6181 11.5061 11.6181H10.1849C9.96398 11.6181 9.7849 11.7972 9.7849 12.0181V12.406ZM12.7546 12.406C12.7546 12.6269 12.9337 12.806 13.1546 12.806H14.4758C14.6967 12.806 14.8758 12.6269 14.8758 12.406V12.0181C14.8758 11.7972 14.6967 11.6181 14.4758 11.6181H13.1546C12.9337 11.6181 12.7546 11.7972 12.7546 12.0181V12.406Z" fill="#F4F5F7"/>
</g>
<defs>
<filter id="filter0_d_291_3423" x="6.90039" y="5" width="11.6262" height="14.8" filterUnits="userSpaceOnUse" color-interpolation-filters="sRGB">
<feFlood flood-opacity="0" result="BackgroundImageFix"/>
<feColorMatrix in="SourceAlpha" type="matrix" values="0 0 0 0 0 0 0 0 0 0 0 0 0 0 0 0 0 0 127 0" result="hardAlpha"/>
<feOffset dx="0.4" dy="0.4"/>
<feGaussianBlur stdDeviation="0.2"/>
<feComposite in2="hardAlpha" operator="out"/>
<feColorMatrix type="matrix" values="0 0 0 0 0 0 0 0 0 0 0 0 0 0 0 0 0 0 0.25 0"/>
<feBlend mode="normal" in2="BackgroundImageFix" result="effect1_dropShadow_291_3423"/>
<feBlend mode="normal" in="SourceGraphic" in2="effect1_dropShadow_291_3423" result="shape"/>
</filter>
<filter id="filter1_d_291_3423" x="13.5176" y="5" width="5.00898" height="5.0467" filterUnits="userSpaceOnUse" color-interpolation-filters="sRGB">
<feFlood flood-opacity="0" result="BackgroundImageFix"/>
<feColorMatrix in="SourceAlpha" type="matrix" values="0 0 0 0 0 0 0 0 0 0 0 0 0 0 0 0 0 0 127 0" result="hardAlpha"/>
<feOffset dx="0.4" dy="0.4"/>
<feGaussianBlur stdDeviation="0.2"/>
<feComposite in2="hardAlpha" operator="out"/>
<feColorMatrix type="matrix" values="0 0 0 0 0 0 0 0 0 0 0 0 0 0 0 0 0 0 0.25 0"/>
<feBlend mode="normal" in2="BackgroundImageFix" result="effect1_dropShadow_291_3423"/>
<feBlend mode="normal" in="SourceGraphic" in2="effect1_dropShadow_291_3423" result="shape"/>
</filter>
<filter id="filter2_d_291_3423" x="8.85156" y="10.7697" width="7.67305" height="5.72126" filterUnits="userSpaceOnUse" color-interpolation-filters="sRGB">
<feFlood flood-opacity="0" result="BackgroundImageFix"/>
<feColorMatrix in="SourceAlpha" type="matrix" values="0 0 0 0 0 0 0 0 0 0 0 0 0 0 0 0 0 0 127 0" result="hardAlpha"/>
<feOffset dx="0.4" dy="0.4"/>
<feGaussianBlur stdDeviation="0.2"/>
<feComposite in2="hardAlpha" operator="out"/>
<feColorMatrix type="matrix" values="0 0 0 0 0 0 0 0 0 0 0 0 0 0 0 0 0 0 0.25 0"/>
<feBlend mode="normal" in2="BackgroundImageFix" result="effect1_dropShadow_291_3423"/>
<feBlend mode="normal" in="SourceGraphic" in2="effect1_dropShadow_291_3423" result="shape"/>
</filter>
</defs>
</svg>
