<svg width="24" height="24" viewBox="0 0 24 24" fill="none" xmlns="http://www.w3.org/2000/svg">
<rect width="24" height="24" rx="6" fill="#32363B"/>
<path d="M5 8.94939C5 8.28665 5.53726 7.74939 6.2 7.74939H12.2998V13.7842H5V8.94939Z" fill="#4F9B7A"/>
<g filter="url(#filter0_d_291_3224)">
<path d="M17.988 6.40002C18.5469 6.40003 19 6.85313 19 7.41205V16.5203C19 17.0792 18.5469 17.5323 17.988 17.5323H6.01202C5.4531 17.5323 5 17.0792 5 16.5203V13.3999L11.5002 12.8999L12.0002 6.40002H17.988Z" fill="#3F79AD"/>
</g>
<g filter="url(#filter1_d_291_3224)">
<path d="M11.9998 6.40002V12.3999C11.9998 12.9521 11.5521 13.3999 10.9998 13.3999H5L11.9998 6.40002Z" fill="#B04F58"/>
</g>
<g filter="url(#filter2_d_291_3224)">
<path d="M11.9998 6.40002L10.419 11.0674C10.2991 11.4213 10.0212 11.6991 9.66735 11.819L5 13.3999L11.9998 6.40002Z" fill="#B8A64F"/>
</g>
<defs>
<filter id="filter0_d_291_3224" x="5" y="6.40002" width="14.8" height="11.9323" filterUnits="userSpaceOnUse" color-interpolation-filters="sRGB">
<feFlood flood-opacity="0" result="BackgroundImageFix"/>
<feColorMatrix in="SourceAlpha" type="matrix" values="0 0 0 0 0 0 0 0 0 0 0 0 0 0 0 0 0 0 127 0" result="hardAlpha"/>
<feOffset dx="0.4" dy="0.4"/>
<feGaussianBlur stdDeviation="0.2"/>
<feComposite in2="hardAlpha" operator="out"/>
<feColorMatrix type="matrix" values="0 0 0 0 0 0 0 0 0 0 0 0 0 0 0 0 0 0 0.25 0"/>
<feBlend mode="normal" in2="BackgroundImageFix" result="effect1_dropShadow_291_3224"/>
<feBlend mode="normal" in="SourceGraphic" in2="effect1_dropShadow_291_3224" result="shape"/>
</filter>
<filter id="filter1_d_291_3224" x="5" y="6.40002" width="7.8" height="7.79988" filterUnits="userSpaceOnUse" color-interpolation-filters="sRGB">
<feFlood flood-opacity="0" result="BackgroundImageFix"/>
<feColorMatrix in="SourceAlpha" type="matrix" values="0 0 0 0 0 0 0 0 0 0 0 0 0 0 0 0 0 0 127 0" result="hardAlpha"/>
<feOffset dx="0.4" dy="0.4"/>
<feGaussianBlur stdDeviation="0.2"/>
<feComposite in2="hardAlpha" operator="out"/>
<feColorMatrix type="matrix" values="0 0 0 0 0 0 0 0 0 0 0 0 0 0 0 0 0 0 0.25 0"/>
<feBlend mode="normal" in2="BackgroundImageFix" result="effect1_dropShadow_291_3224"/>
<feBlend mode="normal" in="SourceGraphic" in2="effect1_dropShadow_291_3224" result="shape"/>
</filter>
<filter id="filter2_d_291_3224" x="5" y="6.40002" width="7.8" height="7.79988" filterUnits="userSpaceOnUse" color-interpolation-filters="sRGB">
<feFlood flood-opacity="0" result="BackgroundImageFix"/>
<feColorMatrix in="SourceAlpha" type="matrix" values="0 0 0 0 0 0 0 0 0 0 0 0 0 0 0 0 0 0 127 0" result="hardAlpha"/>
<feOffset dx="0.4" dy="0.4"/>
<feGaussianBlur stdDeviation="0.2"/>
<feComposite in2="hardAlpha" operator="out"/>
<feColorMatrix type="matrix" values="0 0 0 0 0 0 0 0 0 0 0 0 0 0 0 0 0 0 0.25 0"/>
<feBlend mode="normal" in2="BackgroundImageFix" result="effect1_dropShadow_291_3224"/>
<feBlend mode="normal" in="SourceGraphic" in2="effect1_dropShadow_291_3224" result="shape"/>
</filter>
</defs>
</svg>
