<svg width="24" height="24" viewBox="0 0 24 24" fill="none" xmlns="http://www.w3.org/2000/svg">
<rect width="24" height="24" rx="6" fill="#32363B"/>
<g filter="url(#filter0_d_101_955)">
<path fill-rule="evenodd" clip-rule="evenodd" d="M6.24558 5H11.6262C11.9563 5.00101 12.2726 5.13258 12.506 5.36599C12.7395 5.59941 12.871 5.91569 12.872 6.24579V6.45282H8.1044C7.8865 6.45305 7.67078 6.49627 7.4696 6.57998C7.26842 6.6637 7.08574 6.78628 6.932 6.9407L6.93073 6.94218C6.7763 7.09592 6.65372 7.2786 6.57 7.47978C6.48628 7.68095 6.44307 7.89667 6.44285 8.11457V12.8725H6.24579C5.91566 12.8716 5.59931 12.74 5.36587 12.5066C5.13243 12.2731 5.0009 11.9568 5 11.6267V6.24579C5.00095 5.91571 5.13248 5.59943 5.36586 5.36601C5.59924 5.13259 5.9155 5.00101 6.24558 5Z" fill="#5F97C9"/>
<path fill-rule="evenodd" clip-rule="evenodd" d="M8.10513 6.81934H13.7002C14.0435 6.82034 14.3724 6.95715 14.6151 7.19987C14.8579 7.44259 14.9947 7.7715 14.9957 8.11476V8.26834H10.0745C9.82054 8.25535 9.56689 8.29871 9.3317 8.39531C9.09651 8.4919 8.88562 8.63935 8.71413 8.82706C8.38153 9.2474 8.21398 9.77478 8.24301 10.31V15.0053H8.10598C7.76274 15.0042 7.43385 14.8674 7.19115 14.6247C6.94844 14.382 6.81161 14.0531 6.81055 13.7099V8.11497C6.8115 7.77182 6.94816 7.44299 7.19071 7.20025C7.43325 6.9575 7.76198 6.82057 8.10513 6.81934Z" fill="#4F9B7A"/>
<path fill-rule="evenodd" clip-rule="evenodd" d="M10.0728 8.63519H17.5082C17.8965 8.63631 18.2686 8.79105 18.5432 9.06561C18.8177 9.34017 18.9725 9.71224 18.9736 10.1005V17.5354C18.9725 17.9237 18.8177 18.2957 18.5432 18.5703C18.2686 18.8448 17.8965 18.9996 17.5082 19.0007H10.0728C9.68447 18.9996 9.31241 18.8448 9.03785 18.5703C8.76329 18.2957 8.60854 17.9237 8.60742 17.5354V10.3105C8.60742 9.26243 9.10527 8.63477 10.0728 8.63477V8.63519ZM12.2245 15.4263C12.1261 15.3166 11.8228 14.4579 11.3703 14.2233C11.1416 14.1047 10.4932 14.6503 10.4198 14.9539C10.3818 15.1115 10.5407 15.2417 10.616 15.341C10.8992 15.6861 11.1395 16.0642 11.3317 16.4671C11.5207 16.8101 11.5466 16.955 12.009 17.0138C12.5701 16.9951 12.6082 17.0384 12.8363 16.6757C13.0134 16.4387 13.1754 16.1907 13.3212 15.9332C14.5631 13.7728 15.6121 12.5435 17.4098 10.816L17.5352 10.3432C15.5791 11.5879 13.8819 13.1987 12.537 15.0873C12.4568 15.2042 12.3862 15.4118 12.2245 15.4263Z" fill="#3F79AD"/>
</g>
<defs>
<filter id="filter0_d_101_955" x="5" y="5" width="14.7727" height="14.801" filterUnits="userSpaceOnUse" color-interpolation-filters="sRGB">
<feFlood flood-opacity="0" result="BackgroundImageFix"/>
<feColorMatrix in="SourceAlpha" type="matrix" values="0 0 0 0 0 0 0 0 0 0 0 0 0 0 0 0 0 0 127 0" result="hardAlpha"/>
<feOffset dx="0.4" dy="0.4"/>
<feGaussianBlur stdDeviation="0.2"/>
<feComposite in2="hardAlpha" operator="out"/>
<feColorMatrix type="matrix" values="0 0 0 0 0 0 0 0 0 0 0 0 0 0 0 0 0 0 0.25 0"/>
<feBlend mode="normal" in2="BackgroundImageFix" result="effect1_dropShadow_101_955"/>
<feBlend mode="normal" in="SourceGraphic" in2="effect1_dropShadow_101_955" result="shape"/>
</filter>
</defs>
</svg>
