<svg width="24" height="24" viewBox="0 0 24 24" fill="none" xmlns="http://www.w3.org/2000/svg">
<rect width="24" height="24" rx="6" fill="#32363B"/>
<g filter="url(#filter0_d_214_829)">
<path d="M9.51577 13.6663C6.78849 10.0581 3.98848 12.7999 4.71939 15.3218C5.97485 18.0809 8.77668 20 11.9958 20C14.8503 20 17.3185 18.5118 18.7203 16.3454C16.6113 18.319 12.7831 17.989 9.51577 13.6663Z" fill="#4F5F9F"/>
</g>
<g filter="url(#filter1_d_214_829)">
<path d="M11.9555 11.1819C8.20456 5.49282 4 8.52465 4 12.0019C4 13.1947 4.26 14.3201 4.72637 15.3365C4.22818 12.981 6.93456 11.1647 9.45457 14.5456C13.1137 19.4547 16.7046 18.591 18.7137 16.3574C19.2564 15.5483 19.7855 14.3074 19.9337 13.0738L19.9309 13.0892C19.071 15.7638 15.2637 16.1992 11.9555 11.1819Z" fill="#3F79AD"/>
</g>
<g filter="url(#filter2_d_214_829)">
<path d="M14.5264 8.63625C11.7409 4.04078 8.20911 4.45441 5.82092 6.91715C4.68546 8.29806 4 10.0681 4 11.9999C4.25 8.63261 8.3182 6.29533 12 11.9999C15.2773 17.0772 19.3501 15.7545 19.9301 13.1017L19.9337 13.0763C19.9919 12.7117 19.9982 12.3635 19.9982 11.989C19.9982 11.8681 20.0028 11.7481 19.9973 11.629C18.5773 12.6363 16.7137 12.2444 14.5264 8.63625Z" fill="#5F97C9"/>
</g>
<g filter="url(#filter3_d_214_829)">
<path d="M14.5476 9.45466C17.0985 13.5556 19.2976 12.5065 19.9995 11.6292C19.9722 11.0038 19.8704 10.3983 19.7067 9.81921C18.5176 9.84375 18.2404 9.64557 17.0749 7.86375C15.2822 5.12283 13.0294 3.27464 9.09669 4.54465C7.80941 5.04737 6.68395 5.87283 5.82031 6.92102C8.52487 4.43192 11.8431 5.10737 14.5476 9.45466Z" fill="#63A8C2"/>
</g>
<g filter="url(#filter4_d_214_829)">
<path d="M16.8956 8.21547C18.0611 9.99729 18.7711 10.0918 19.7065 9.81911C18.7547 6.45637 15.6692 4 11.9992 4C10.9747 4 9.99375 4.19546 9.09375 4.54546C12.6092 3.43636 15.1029 5.47455 16.8956 8.21547Z" fill="#F4F5F7"/>
</g>
<defs>
<filter id="filter0_d_214_829" x="4.60156" y="11.9294" width="14.9172" height="8.87056" filterUnits="userSpaceOnUse" color-interpolation-filters="sRGB">
<feFlood flood-opacity="0" result="BackgroundImageFix"/>
<feColorMatrix in="SourceAlpha" type="matrix" values="0 0 0 0 0 0 0 0 0 0 0 0 0 0 0 0 0 0 127 0" result="hardAlpha"/>
<feOffset dx="0.4" dy="0.4"/>
<feGaussianBlur stdDeviation="0.2"/>
<feComposite in2="hardAlpha" operator="out"/>
<feColorMatrix type="matrix" values="0 0 0 0 0 0 0 0 0 0 0 0 0 0 0 0 0 0 0.25 0"/>
<feBlend mode="normal" in2="BackgroundImageFix" result="effect1_dropShadow_214_829"/>
<feBlend mode="normal" in="SourceGraphic" in2="effect1_dropShadow_214_829" result="shape"/>
</filter>
<filter id="filter1_d_214_829" x="4" y="8.01123" width="16.7336" height="10.9309" filterUnits="userSpaceOnUse" color-interpolation-filters="sRGB">
<feFlood flood-opacity="0" result="BackgroundImageFix"/>
<feColorMatrix in="SourceAlpha" type="matrix" values="0 0 0 0 0 0 0 0 0 0 0 0 0 0 0 0 0 0 127 0" result="hardAlpha"/>
<feOffset dx="0.4" dy="0.4"/>
<feGaussianBlur stdDeviation="0.2"/>
<feComposite in2="hardAlpha" operator="out"/>
<feColorMatrix type="matrix" values="0 0 0 0 0 0 0 0 0 0 0 0 0 0 0 0 0 0 0.25 0"/>
<feBlend mode="normal" in2="BackgroundImageFix" result="effect1_dropShadow_214_829"/>
<feBlend mode="normal" in="SourceGraphic" in2="effect1_dropShadow_214_829" result="shape"/>
</filter>
<filter id="filter2_d_214_829" x="4" y="5.10693" width="16.8" height="11.1433" filterUnits="userSpaceOnUse" color-interpolation-filters="sRGB">
<feFlood flood-opacity="0" result="BackgroundImageFix"/>
<feColorMatrix in="SourceAlpha" type="matrix" values="0 0 0 0 0 0 0 0 0 0 0 0 0 0 0 0 0 0 127 0" result="hardAlpha"/>
<feOffset dx="0.4" dy="0.4"/>
<feGaussianBlur stdDeviation="0.2"/>
<feComposite in2="hardAlpha" operator="out"/>
<feColorMatrix type="matrix" values="0 0 0 0 0 0 0 0 0 0 0 0 0 0 0 0 0 0 0.25 0"/>
<feBlend mode="normal" in2="BackgroundImageFix" result="effect1_dropShadow_214_829"/>
<feBlend mode="normal" in="SourceGraphic" in2="effect1_dropShadow_214_829" result="shape"/>
</filter>
<filter id="filter3_d_214_829" x="5.82031" y="4.1355" width="14.9797" height="9.0981" filterUnits="userSpaceOnUse" color-interpolation-filters="sRGB">
<feFlood flood-opacity="0" result="BackgroundImageFix"/>
<feColorMatrix in="SourceAlpha" type="matrix" values="0 0 0 0 0 0 0 0 0 0 0 0 0 0 0 0 0 0 127 0" result="hardAlpha"/>
<feOffset dx="0.4" dy="0.4"/>
<feGaussianBlur stdDeviation="0.2"/>
<feComposite in2="hardAlpha" operator="out"/>
<feColorMatrix type="matrix" values="0 0 0 0 0 0 0 0 0 0 0 0 0 0 0 0 0 0 0.25 0"/>
<feBlend mode="normal" in2="BackgroundImageFix" result="effect1_dropShadow_214_829"/>
<feBlend mode="normal" in="SourceGraphic" in2="effect1_dropShadow_214_829" result="shape"/>
</filter>
<filter id="filter4_d_214_829" x="9.09375" y="4" width="11.4133" height="6.73433" filterUnits="userSpaceOnUse" color-interpolation-filters="sRGB">
<feFlood flood-opacity="0" result="BackgroundImageFix"/>
<feColorMatrix in="SourceAlpha" type="matrix" values="0 0 0 0 0 0 0 0 0 0 0 0 0 0 0 0 0 0 127 0" result="hardAlpha"/>
<feOffset dx="0.4" dy="0.4"/>
<feGaussianBlur stdDeviation="0.2"/>
<feComposite in2="hardAlpha" operator="out"/>
<feColorMatrix type="matrix" values="0 0 0 0 0 0 0 0 0 0 0 0 0 0 0 0 0 0 0.25 0"/>
<feBlend mode="normal" in2="BackgroundImageFix" result="effect1_dropShadow_214_829"/>
<feBlend mode="normal" in="SourceGraphic" in2="effect1_dropShadow_214_829" result="shape"/>
</filter>
</defs>
</svg>
