<svg width="24" height="24" viewBox="0 0 24 24" fill="none" xmlns="http://www.w3.org/2000/svg">
<rect width="24" height="24" rx="6" fill="#4F9B7A"/>
<g filter="url(#filter0_d_157_253)">
<path fill-rule="evenodd" clip-rule="evenodd" d="M5.01452 16.1448C5.03149 16.0155 5.00521 15.8845 4.94377 15.7695C4.08085 14.1543 3.7973 12.2897 4.14431 10.4874C4.504 8.61933 5.51764 6.94056 7.00334 5.75234C8.48904 4.56413 10.3496 3.94425 12.251 4.00394C14.1525 4.06363 15.9705 4.79897 17.3787 6.07803C18.787 7.35708 19.6933 9.09612 19.9351 10.9831C20.177 12.8701 19.7384 14.7815 18.6982 16.3743C17.658 17.9671 16.0842 19.1371 14.2592 19.6744C12.4896 20.1953 10.5961 20.0882 8.89881 19.3744C8.79473 19.3307 8.68095 19.3142 8.56916 19.33L4.91179 19.8497C4.71527 19.8777 4.5463 19.7105 4.57214 19.5137L5.01452 16.1448ZM13.8488 18.2801C12.4117 18.7031 10.3643 18.4318 8.94509 17.8456C8.8373 17.801 8.71975 17.785 8.6046 17.8035L6.51645 18.1391C6.32161 18.1704 6.15013 18.0083 6.17044 17.812L6.39447 15.6464C6.4073 15.5223 6.38045 15.3978 6.32215 15.2875C5.61735 13.9539 5.28921 12.2285 5.57153 10.7622C5.86587 9.23352 6.69536 7.85975 7.91114 6.88741C9.12691 5.91507 10.6494 5.40781 12.2054 5.45666C13.7614 5.5055 15.2491 6.10725 16.4015 7.15393C17.5539 8.2006 18.2956 9.6237 18.4935 11.1678C18.6914 12.712 18.3325 14.2761 17.4813 15.5796C16.6301 16.883 15.3422 17.8405 13.8488 18.2801Z" fill="#F4F5F7"/>
</g>
<g filter="url(#filter1_d_157_253)">
<path d="M14.9689 13.5241L13.8578 13.3973C13.591 13.3667 13.3285 13.4585 13.1404 13.6466C12.8278 13.9593 12.3448 14.0417 11.9757 13.7982C11.2354 13.3096 10.5989 12.6751 10.1091 11.9341C9.86322 11.562 9.94679 11.0749 10.2621 10.7595C10.4502 10.5714 10.5421 10.309 10.5115 10.0421L10.3846 8.93979C10.3321 8.49798 9.96029 8.16553 9.5141 8.16553H8.75734C8.26304 8.16553 7.85185 8.57672 7.88247 9.07102C8.11431 12.8067 11.102 15.7901 14.8333 16.0219C15.3276 16.0525 15.7388 15.6413 15.7388 15.147V14.3903C15.7432 13.9485 15.4107 13.5766 14.9689 13.5241Z" fill="#F4F5F7"/>
</g>
<defs>
<filter id="filter0_d_157_253" x="4" y="4" width="16.8" height="16.8" filterUnits="userSpaceOnUse" color-interpolation-filters="sRGB">
<feFlood flood-opacity="0" result="BackgroundImageFix"/>
<feColorMatrix in="SourceAlpha" type="matrix" values="0 0 0 0 0 0 0 0 0 0 0 0 0 0 0 0 0 0 127 0" result="hardAlpha"/>
<feOffset dx="0.4" dy="0.4"/>
<feGaussianBlur stdDeviation="0.2"/>
<feComposite in2="hardAlpha" operator="out"/>
<feColorMatrix type="matrix" values="0 0 0 0 0 0 0 0 0 0 0 0 0 0 0 0 0 0 0.25 0"/>
<feBlend mode="normal" in2="BackgroundImageFix" result="effect1_dropShadow_157_253"/>
<feBlend mode="normal" in="SourceGraphic" in2="effect1_dropShadow_157_253" result="shape"/>
</filter>
<filter id="filter1_d_157_253" x="7.88086" y="8.16553" width="8.65742" height="8.65791" filterUnits="userSpaceOnUse" color-interpolation-filters="sRGB">
<feFlood flood-opacity="0" result="BackgroundImageFix"/>
<feColorMatrix in="SourceAlpha" type="matrix" values="0 0 0 0 0 0 0 0 0 0 0 0 0 0 0 0 0 0 127 0" result="hardAlpha"/>
<feOffset dx="0.4" dy="0.4"/>
<feGaussianBlur stdDeviation="0.2"/>
<feComposite in2="hardAlpha" operator="out"/>
<feColorMatrix type="matrix" values="0 0 0 0 0 0 0 0 0 0 0 0 0 0 0 0 0 0 0.25 0"/>
<feBlend mode="normal" in2="BackgroundImageFix" result="effect1_dropShadow_157_253"/>
<feBlend mode="normal" in="SourceGraphic" in2="effect1_dropShadow_157_253" result="shape"/>
</filter>
</defs>
</svg>
