<svg width="24" height="24" viewBox="0 0 24 24" fill="none" xmlns="http://www.w3.org/2000/svg">
<rect width="24" height="24" rx="6" fill="#32363B"/>
<g filter="url(#filter0_d_289_1101)">
<path d="M12.0079 4C14.3479 4 16.2725 5.77816 16.5043 8.05694L15.5998 8.35L14.6186 7.9774C14.3681 6.76509 13.2945 5.85381 12.0079 5.85381C10.7214 5.85381 9.64779 6.76509 9.39723 7.9774L8.4498 8.23716L7.51367 8.03716C7.75455 5.76788 9.67476 4 12.0079 4Z" fill="#4F5F9F"/>
</g>
<g filter="url(#filter1_d_289_1101)">
<path d="M15.8077 7.97742C17.3555 7.97742 18.6689 9.12973 18.7141 10.6769C18.7461 11.773 18.7165 13.0089 18.5159 13.9886C18.3474 14.8118 18.0001 15.7376 17.6088 16.6116C17.2959 17.3101 16.3092 18.3992 16.3092 18.3992L12.0492 15.95L7.68942 18.4657C7.68942 18.4657 6.64261 17.3419 6.31559 16.6116C5.92423 15.7377 5.57708 14.8118 5.40856 13.9886C5.20797 13.0089 5.17821 11.773 5.21022 10.6769C5.2554 9.12974 6.56881 7.97743 8.11666 7.97742H15.8077Z" fill="#3F79AD"/>
</g>
<g filter="url(#filter2_d_289_1101)">
<path d="M14.1769 12.1356C14.1769 13.3337 13.2056 14.305 12.0074 14.305C10.8092 14.305 9.83789 13.3337 9.83789 12.1356C9.83789 10.9374 10.8092 9.96606 12.0074 9.96606C13.2056 9.96606 14.1769 10.9374 14.1769 12.1356Z" fill="#63A8C2"/>
</g>
<g filter="url(#filter3_d_289_1101)">
<path d="M12.0072 15.0282C14.0887 15.0282 15.8347 16.464 16.3092 18.3991C15.1613 19.442 13.5879 19.9999 11.9621 20C10.3713 20 8.8305 19.4658 7.68945 18.4657C8.13985 16.497 9.90198 15.0282 12.0072 15.0282Z" fill="#63A8C2"/>
</g>
<defs>
<filter id="filter0_d_289_1101" x="7.51367" y="4" width="9.79023" height="5.14998" filterUnits="userSpaceOnUse" color-interpolation-filters="sRGB">
<feFlood flood-opacity="0" result="BackgroundImageFix"/>
<feColorMatrix in="SourceAlpha" type="matrix" values="0 0 0 0 0 0 0 0 0 0 0 0 0 0 0 0 0 0 127 0" result="hardAlpha"/>
<feOffset dx="0.4" dy="0.4"/>
<feGaussianBlur stdDeviation="0.2"/>
<feComposite in2="hardAlpha" operator="out"/>
<feColorMatrix type="matrix" values="0 0 0 0 0 0 0 0 0 0 0 0 0 0 0 0 0 0 0.25 0"/>
<feBlend mode="normal" in2="BackgroundImageFix" result="effect1_dropShadow_289_1101"/>
<feBlend mode="normal" in="SourceGraphic" in2="effect1_dropShadow_289_1101" result="shape"/>
</filter>
<filter id="filter1_d_289_1101" x="5.19922" y="7.97742" width="14.3254" height="11.2883" filterUnits="userSpaceOnUse" color-interpolation-filters="sRGB">
<feFlood flood-opacity="0" result="BackgroundImageFix"/>
<feColorMatrix in="SourceAlpha" type="matrix" values="0 0 0 0 0 0 0 0 0 0 0 0 0 0 0 0 0 0 127 0" result="hardAlpha"/>
<feOffset dx="0.4" dy="0.4"/>
<feGaussianBlur stdDeviation="0.2"/>
<feComposite in2="hardAlpha" operator="out"/>
<feColorMatrix type="matrix" values="0 0 0 0 0 0 0 0 0 0 0 0 0 0 0 0 0 0 0.25 0"/>
<feBlend mode="normal" in2="BackgroundImageFix" result="effect1_dropShadow_289_1101"/>
<feBlend mode="normal" in="SourceGraphic" in2="effect1_dropShadow_289_1101" result="shape"/>
</filter>
<filter id="filter2_d_289_1101" x="9.83789" y="9.96606" width="5.13984" height="5.13899" filterUnits="userSpaceOnUse" color-interpolation-filters="sRGB">
<feFlood flood-opacity="0" result="BackgroundImageFix"/>
<feColorMatrix in="SourceAlpha" type="matrix" values="0 0 0 0 0 0 0 0 0 0 0 0 0 0 0 0 0 0 127 0" result="hardAlpha"/>
<feOffset dx="0.4" dy="0.4"/>
<feGaussianBlur stdDeviation="0.2"/>
<feComposite in2="hardAlpha" operator="out"/>
<feColorMatrix type="matrix" values="0 0 0 0 0 0 0 0 0 0 0 0 0 0 0 0 0 0 0.25 0"/>
<feBlend mode="normal" in2="BackgroundImageFix" result="effect1_dropShadow_289_1101"/>
<feBlend mode="normal" in="SourceGraphic" in2="effect1_dropShadow_289_1101" result="shape"/>
</filter>
<filter id="filter3_d_289_1101" x="7.68945" y="15.0282" width="9.41914" height="5.7718" filterUnits="userSpaceOnUse" color-interpolation-filters="sRGB">
<feFlood flood-opacity="0" result="BackgroundImageFix"/>
<feColorMatrix in="SourceAlpha" type="matrix" values="0 0 0 0 0 0 0 0 0 0 0 0 0 0 0 0 0 0 127 0" result="hardAlpha"/>
<feOffset dx="0.4" dy="0.4"/>
<feGaussianBlur stdDeviation="0.2"/>
<feComposite in2="hardAlpha" operator="out"/>
<feColorMatrix type="matrix" values="0 0 0 0 0 0 0 0 0 0 0 0 0 0 0 0 0 0 0.25 0"/>
<feBlend mode="normal" in2="BackgroundImageFix" result="effect1_dropShadow_289_1101"/>
<feBlend mode="normal" in="SourceGraphic" in2="effect1_dropShadow_289_1101" result="shape"/>
</filter>
</defs>
</svg>
