<svg width="24" height="24" viewBox="0 0 24 24" fill="none" xmlns="http://www.w3.org/2000/svg">
<rect width="24" height="24" rx="6" fill="#32363B"/>
<g filter="url(#filter0_d_101_1116)">
<path d="M6.39961 4C5.95641 4 5.59961 4.3568 5.59961 4.8V19.2C5.59961 19.6432 5.95641 20 6.39961 20H17.5996C18.0428 20 18.3996 19.6432 18.3996 19.2V8.8L13.9996 8.4L13.5996 4H6.39961Z" fill="#B8A64F"/>
</g>
<g filter="url(#filter1_d_101_1116)">
<path d="M13.5996 4V8C13.5996 8.44184 13.9578 8.8 14.3996 8.8H18.3996L13.5996 4Z" fill="#D1C06A"/>
</g>
<g filter="url(#filter2_d_101_1116)">
<path fill-rule="evenodd" clip-rule="evenodd" d="M9.60078 11.1992C9.15758 11.1992 8.80078 11.556 8.80078 11.9992V16.7992C8.80078 17.2424 9.15758 17.5992 9.60078 17.5992H14.4008C14.844 17.5992 15.2008 17.2424 15.2008 16.7992V11.9992C15.2008 11.556 14.844 11.1992 14.4008 11.1992H9.60078ZM9.60078 13.1992C9.60078 12.9783 9.77987 12.7992 10.0008 12.7992H14.0008C14.2217 12.7992 14.4008 12.9783 14.4008 13.1992V15.5992C14.4008 15.8201 14.2217 15.9992 14.0008 15.9992H10.0008C9.77987 15.9992 9.60078 15.8201 9.60078 15.5992V13.1992Z" fill="#F4F5F7"/>
</g>
<defs>
<filter id="filter0_d_101_1116" x="5.59961" y="4" width="13.6008" height="16.8" filterUnits="userSpaceOnUse" color-interpolation-filters="sRGB">
<feFlood flood-opacity="0" result="BackgroundImageFix"/>
<feColorMatrix in="SourceAlpha" type="matrix" values="0 0 0 0 0 0 0 0 0 0 0 0 0 0 0 0 0 0 127 0" result="hardAlpha"/>
<feOffset dx="0.4" dy="0.4"/>
<feGaussianBlur stdDeviation="0.2"/>
<feComposite in2="hardAlpha" operator="out"/>
<feColorMatrix type="matrix" values="0 0 0 0 0 0 0 0 0 0 0 0 0 0 0 0 0 0 0.25 0"/>
<feBlend mode="normal" in2="BackgroundImageFix" result="effect1_dropShadow_101_1116"/>
<feBlend mode="normal" in="SourceGraphic" in2="effect1_dropShadow_101_1116" result="shape"/>
</filter>
<filter id="filter1_d_101_1116" x="13.5996" y="4" width="5.60078" height="5.5998" filterUnits="userSpaceOnUse" color-interpolation-filters="sRGB">
<feFlood flood-opacity="0" result="BackgroundImageFix"/>
<feColorMatrix in="SourceAlpha" type="matrix" values="0 0 0 0 0 0 0 0 0 0 0 0 0 0 0 0 0 0 127 0" result="hardAlpha"/>
<feOffset dx="0.4" dy="0.4"/>
<feGaussianBlur stdDeviation="0.2"/>
<feComposite in2="hardAlpha" operator="out"/>
<feColorMatrix type="matrix" values="0 0 0 0 0 0 0 0 0 0 0 0 0 0 0 0 0 0 0.25 0"/>
<feBlend mode="normal" in2="BackgroundImageFix" result="effect1_dropShadow_101_1116"/>
<feBlend mode="normal" in="SourceGraphic" in2="effect1_dropShadow_101_1116" result="shape"/>
</filter>
<filter id="filter2_d_101_1116" x="8.80078" y="11.1992" width="7.20039" height="7.20039" filterUnits="userSpaceOnUse" color-interpolation-filters="sRGB">
<feFlood flood-opacity="0" result="BackgroundImageFix"/>
<feColorMatrix in="SourceAlpha" type="matrix" values="0 0 0 0 0 0 0 0 0 0 0 0 0 0 0 0 0 0 127 0" result="hardAlpha"/>
<feOffset dx="0.4" dy="0.4"/>
<feGaussianBlur stdDeviation="0.2"/>
<feComposite in2="hardAlpha" operator="out"/>
<feColorMatrix type="matrix" values="0 0 0 0 0 0 0 0 0 0 0 0 0 0 0 0 0 0 0.25 0"/>
<feBlend mode="normal" in2="BackgroundImageFix" result="effect1_dropShadow_101_1116"/>
<feBlend mode="normal" in="SourceGraphic" in2="effect1_dropShadow_101_1116" result="shape"/>
</filter>
</defs>
</svg>
