<svg width="24" height="24" viewBox="0 0 24 24" fill="none" xmlns="http://www.w3.org/2000/svg">
<rect width="24" height="24" rx="6" fill="#32363B"/>
<g filter="url(#filter0_d_101_1200)">
<path d="M14.1332 4C13.7089 4 13.3019 4.16857 13.0018 4.46863C12.7018 4.76869 12.5332 5.17565 12.5332 5.6V9.86666C12.5332 10.291 12.7018 10.698 13.0018 10.998C13.3019 11.2981 13.7089 11.4667 14.1332 11.4667C14.5576 11.4667 14.9645 11.2981 15.2646 10.998C15.5646 10.698 15.7332 10.291 15.7332 9.86666V5.6C15.7332 5.17565 15.5646 4.76869 15.2646 4.46863C14.9645 4.16857 14.5576 4 14.1332 4ZM18.3999 8.26666C18.8242 8.26666 19.2312 8.43523 19.5313 8.73529C19.8313 9.03535 19.9999 9.44232 19.9999 9.86666C19.9999 10.291 19.8313 10.698 19.5313 10.998C19.2312 11.2981 18.8242 11.4667 18.3999 11.4667H16.7999V9.86666C16.7999 9.44232 16.9685 9.03535 17.2685 8.73529C17.5686 8.43523 17.9755 8.26666 18.3999 8.26666Z" fill="#4F9B7A"/>
<path d="M9.86669 12.5332C9.44235 12.5332 9.03538 12.7018 8.73532 13.0018C8.43526 13.3019 8.26669 13.7089 8.26669 14.1332V18.3999C8.26669 18.8242 8.43526 19.2312 8.73532 19.5312C9.03538 19.8313 9.44235 19.9999 9.86669 19.9999C10.291 19.9999 10.698 19.8313 10.9981 19.5312C11.2981 19.2312 11.4667 18.8242 11.4667 18.3999V14.1332C11.4667 13.7089 11.2981 13.3019 10.9981 13.0018C10.698 12.7018 10.291 12.5332 9.86669 12.5332ZM5.60001 15.7332C5.17566 15.7332 4.76869 15.5646 4.46863 15.2646C4.16857 14.9645 4 14.5575 4 14.1332C4 13.7089 4.16857 13.3019 4.46863 13.0018C4.76869 12.7018 5.17566 12.5332 5.60001 12.5332H7.20001V14.1332C7.20001 14.5575 7.03144 14.9645 6.73138 15.2646C6.43132 15.5646 6.02436 15.7332 5.60001 15.7332Z" fill="#B04F58"/>
<path d="M19.9999 14.1332C19.9999 13.7089 19.8313 13.3019 19.5313 13.0018C19.2312 12.7018 18.8242 12.5332 18.3999 12.5332H14.1332C13.7089 12.5332 13.3019 12.7018 13.0018 13.0018C12.7018 13.3019 12.5332 13.7089 12.5332 14.1332C12.5332 14.5575 12.7018 14.9645 13.0018 15.2646C13.3019 15.5646 13.7089 15.7332 14.1332 15.7332H18.3999C18.8242 15.7332 19.2312 15.5646 19.5313 15.2646C19.8313 14.9645 19.9999 14.5575 19.9999 14.1332ZM14.1332 19.9999C14.5576 19.9999 14.9645 19.8313 15.2646 19.5312C15.5646 19.2312 15.7332 18.8242 15.7332 18.3999C15.7332 17.9755 15.5646 17.5686 15.2646 17.2685C14.9645 16.9684 14.5576 16.7999 14.1332 16.7999H12.5332V18.3999C12.5332 18.8242 12.7018 19.2312 13.0018 19.5312C13.3019 19.8313 13.7089 19.9999 14.1332 19.9999Z" fill="#B8A64F"/>
<path d="M11.4667 9.86666C11.4667 9.44232 11.2981 9.03535 10.9981 8.73529C10.698 8.43523 10.291 8.26666 9.86669 8.26666H5.60001C5.17566 8.26666 4.76869 8.43523 4.46863 8.73529C4.16857 9.03535 4 9.44232 4 9.86666C4 10.291 4.16857 10.698 4.46863 10.998C4.76869 11.2981 5.17566 11.4667 5.60001 11.4667H9.86669C10.291 11.4667 10.698 11.2981 10.9981 10.998C11.2981 10.698 11.4667 10.291 11.4667 9.86666ZM9.86669 4C9.44235 4 9.03538 4.16857 8.73532 4.46863C8.43526 4.76869 8.26669 5.17565 8.26669 5.6C8.26669 6.02435 8.43526 6.43131 8.73532 6.73137C9.03538 7.03143 9.44235 7.2 9.86669 7.2H11.4667V5.6C11.4667 5.17565 11.2981 4.76869 10.9981 4.46863C10.698 4.16857 10.291 4 9.86669 4Z" fill="#3F79AD"/>
</g>
<defs>
<filter id="filter0_d_101_1200" x="4" y="4" width="16.8" height="16.8" filterUnits="userSpaceOnUse" color-interpolation-filters="sRGB">
<feFlood flood-opacity="0" result="BackgroundImageFix"/>
<feColorMatrix in="SourceAlpha" type="matrix" values="0 0 0 0 0 0 0 0 0 0 0 0 0 0 0 0 0 0 127 0" result="hardAlpha"/>
<feOffset dx="0.4" dy="0.4"/>
<feGaussianBlur stdDeviation="0.2"/>
<feComposite in2="hardAlpha" operator="out"/>
<feColorMatrix type="matrix" values="0 0 0 0 0 0 0 0 0 0 0 0 0 0 0 0 0 0 0.25 0"/>
<feBlend mode="normal" in2="BackgroundImageFix" result="effect1_dropShadow_101_1200"/>
<feBlend mode="normal" in="SourceGraphic" in2="effect1_dropShadow_101_1200" result="shape"/>
</filter>
</defs>
</svg>
