<svg width="24" height="24" viewBox="0 0 24 24" fill="none" xmlns="http://www.w3.org/2000/svg">
<rect width="24" height="24" rx="6" fill="#32363B"/>
<g filter="url(#filter0_d_148_221)">
<path d="M5.72348 8.97498C5.72348 8.97498 2.88212 12.3461 4.80846 15.1393C5.34818 15.9219 6.12985 16.4928 6.97552 16.9092V18.992H17.016V17.0443C17.9691 16.6351 18.8036 16.0557 19.256 15.2356C20.7971 12.4424 18.4373 9.16761 18.4373 9.16761L18.0577 6.03621C17.9633 5.25742 17.1074 4.82494 16.4244 5.21095L14.5364 6.27809C14.5364 6.27809 12.9329 5.88424 11.8877 5.89282C10.8983 5.90095 9.38353 6.27809 9.38353 6.27809L7.7888 5.2909C7.11193 4.8719 6.22789 5.28837 6.11998 6.07709L5.72348 8.97498Z" fill="#4F5F9F"/>
</g>
<g filter="url(#filter1_d_148_221)">
<path d="M16.4247 5.21129C17.1075 4.82535 17.9629 5.25786 18.0575 6.03648L18.4374 9.16832C18.452 9.18865 20.7925 12.4513 19.2567 15.2357C17.7233 18.0149 11.8033 18.0296 11.744 18.0296C11.744 18.0296 6.73483 17.9332 4.80846 15.14C2.88211 12.3468 5.7235 8.97496 5.7235 8.97496L6.11998 6.0775C6.22789 5.28881 7.11207 4.87245 7.78893 5.29137L9.38365 6.27867C9.38365 6.27867 10.8981 5.90115 11.8876 5.89293C12.9328 5.88434 14.537 6.27867 14.537 6.27867L16.4247 5.21129ZM7.12975 6.63414C7.01037 6.55661 6.85032 6.62507 6.82408 6.765L6.63658 7.76402C6.61992 7.85305 6.72165 7.91708 6.79479 7.86363L7.72545 7.18297C7.7819 7.14172 7.78001 7.05616 7.72155 7.01793L7.12975 6.63414ZM17.1444 6.765C17.1182 6.62507 16.9581 6.55661 16.8387 6.63414L16.2469 7.01793C16.1885 7.05616 16.1866 7.14172 16.243 7.18297L17.1737 7.86363C17.2468 7.91708 17.3486 7.85305 17.3319 7.76402L17.1444 6.765Z" fill="#8A78C8"/>
</g>
<g filter="url(#filter2_d_148_221)">
<path d="M13.1408 10.6606C13.9455 9.82152 16.0924 9.62889 16.8971 10.468C17.6563 11.2596 17.4155 13.0475 16.6563 13.8391C15.8516 14.6782 13.7443 14.7713 12.9396 13.9322C12.1804 13.1406 12.3816 11.4522 13.1408 10.6606Z" fill="#F4F5F7"/>
</g>
<g filter="url(#filter3_d_148_221)">
<path d="M9.46271 10.6723C8.65799 9.83324 6.51111 9.64061 5.70638 10.4797C4.9472 11.2713 5.188 13.0592 5.94718 13.8508C6.7519 14.6899 8.85918 14.783 9.66391 13.9439C10.4231 13.1523 10.2219 11.4639 9.46271 10.6723Z" fill="#F4F5F7"/>
</g>
<g filter="url(#filter4_d_148_221)">
<path d="M15.1152 10.9014C15.2383 10.9014 15.3543 10.9473 15.459 11.0273C15.3417 11.0801 15.2598 11.198 15.2598 11.335C15.2598 11.521 15.4107 11.6717 15.5967 11.6719C15.6852 11.6719 15.7651 11.6368 15.8252 11.5811C15.8938 11.7783 15.9346 12.0064 15.9346 12.25C15.9345 12.9947 15.5674 13.5986 15.1152 13.5986C14.6632 13.5984 14.2969 12.9945 14.2969 12.25C14.2969 11.5054 14.6632 10.9016 15.1152 10.9014Z" fill="#32363B"/>
</g>
<g filter="url(#filter5_d_148_221)">
<path d="M7.80176 10.9131C7.92467 10.9131 8.0409 10.9581 8.14551 11.0381C8.0278 11.0907 7.94629 11.2094 7.94629 11.3467C7.9465 11.5327 8.09715 11.6836 8.2832 11.6836C8.37192 11.6835 8.45155 11.6479 8.51172 11.5918C8.5804 11.7891 8.62012 12.018 8.62012 12.2617C8.61999 13.0061 8.25372 13.6092 7.80176 13.6094C7.34968 13.6094 6.98255 13.0063 6.98242 12.2617C6.98242 11.517 7.3496 10.9131 7.80176 10.9131Z" fill="#32363B"/>
</g>
<g filter="url(#filter6_d_148_221)">
<path d="M10.4434 14.2632C10.4434 14.2132 10.4802 14.171 10.53 14.1677C10.5909 14.1638 10.6719 14.1625 10.7323 14.176C10.8252 14.1969 10.9344 14.2675 11.0027 14.3172C11.0421 14.3458 11.0967 14.3458 11.1361 14.3172C11.2045 14.2675 11.3136 14.1969 11.4065 14.176C11.4669 14.1625 11.5479 14.1638 11.6088 14.1677C11.6586 14.171 11.6955 14.2132 11.6955 14.2632V14.3068C11.6955 14.3447 11.6741 14.3794 11.6402 14.3963L11.3435 14.5446C11.322 14.5554 11.3051 14.5735 11.2959 14.5956L11.1617 14.9177C11.1275 14.9997 11.0113 14.9997 10.9771 14.9177L10.8429 14.5956C10.8337 14.5735 10.8168 14.5554 10.7954 14.5446L10.4986 14.3963C10.4648 14.3794 10.4434 14.3447 10.4434 14.3068V14.2632Z" fill="#F4F5F7"/>
</g>
<g filter="url(#filter7_d_148_221)">
<path d="M13.7193 19.7144C13.7193 20.6453 12.772 21.3999 11.8411 21.3999C10.9102 21.3999 9.96289 20.6453 9.96289 19.7144C9.96289 18.7835 10.9102 18.0288 11.8411 18.0288C12.772 18.0288 13.7193 18.7835 13.7193 19.7144Z" fill="#B8A64F"/>
</g>
<g filter="url(#filter8_d_148_221)">
<ellipse cx="11.6484" cy="19.7144" rx="1.68555" ry="1.68555" fill="#D1C06A"/>
</g>
<g filter="url(#filter9_d_148_221)">
<path d="M11.3258 19.5667C11.3175 19.3582 11.4871 19.1846 11.6958 19.1846C11.9045 19.1846 12.0741 19.3582 12.0658 19.5667L12.0613 19.6781C12.0568 19.7908 11.9725 19.8841 11.8609 19.9001V20.1753C11.8609 20.2665 11.787 20.3404 11.6958 20.3404C11.6046 20.3404 11.5307 20.2665 11.5307 20.1753V19.9001C11.4191 19.8841 11.3348 19.7908 11.3303 19.6781L11.3258 19.5667Z" fill="#32363B"/>
</g>
<defs>
<filter id="filter0_d_148_221" x="4.13867" y="5.06738" width="16.4406" height="14.7248" filterUnits="userSpaceOnUse" color-interpolation-filters="sRGB">
<feFlood flood-opacity="0" result="BackgroundImageFix"/>
<feColorMatrix in="SourceAlpha" type="matrix" values="0 0 0 0 0 0 0 0 0 0 0 0 0 0 0 0 0 0 127 0" result="hardAlpha"/>
<feOffset dx="0.4" dy="0.4"/>
<feGaussianBlur stdDeviation="0.2"/>
<feComposite in2="hardAlpha" operator="out"/>
<feColorMatrix type="matrix" values="0 0 0 0 0 0 0 0 0 0 0 0 0 0 0 0 0 0 0.25 0"/>
<feBlend mode="normal" in2="BackgroundImageFix" result="effect1_dropShadow_148_221"/>
<feBlend mode="normal" in="SourceGraphic" in2="effect1_dropShadow_148_221" result="shape"/>
</filter>
<filter id="filter1_d_148_221" x="4.13867" y="5.06787" width="16.4406" height="13.7619" filterUnits="userSpaceOnUse" color-interpolation-filters="sRGB">
<feFlood flood-opacity="0" result="BackgroundImageFix"/>
<feColorMatrix in="SourceAlpha" type="matrix" values="0 0 0 0 0 0 0 0 0 0 0 0 0 0 0 0 0 0 127 0" result="hardAlpha"/>
<feOffset dx="0.4" dy="0.4"/>
<feGaussianBlur stdDeviation="0.2"/>
<feComposite in2="hardAlpha" operator="out"/>
<feColorMatrix type="matrix" values="0 0 0 0 0 0 0 0 0 0 0 0 0 0 0 0 0 0 0.25 0"/>
<feBlend mode="normal" in2="BackgroundImageFix" result="effect1_dropShadow_148_221"/>
<feBlend mode="normal" in="SourceGraphic" in2="effect1_dropShadow_148_221" result="shape"/>
</filter>
<filter id="filter2_d_148_221" x="12.4609" y="9.92676" width="5.69844" height="5.39033" filterUnits="userSpaceOnUse" color-interpolation-filters="sRGB">
<feFlood flood-opacity="0" result="BackgroundImageFix"/>
<feColorMatrix in="SourceAlpha" type="matrix" values="0 0 0 0 0 0 0 0 0 0 0 0 0 0 0 0 0 0 127 0" result="hardAlpha"/>
<feOffset dx="0.4" dy="0.4"/>
<feGaussianBlur stdDeviation="0.2"/>
<feComposite in2="hardAlpha" operator="out"/>
<feColorMatrix type="matrix" values="0 0 0 0 0 0 0 0 0 0 0 0 0 0 0 0 0 0 0.25 0"/>
<feBlend mode="normal" in2="BackgroundImageFix" result="effect1_dropShadow_148_221"/>
<feBlend mode="normal" in="SourceGraphic" in2="effect1_dropShadow_148_221" result="shape"/>
</filter>
<filter id="filter3_d_148_221" x="5.24414" y="9.93848" width="5.69844" height="5.39033" filterUnits="userSpaceOnUse" color-interpolation-filters="sRGB">
<feFlood flood-opacity="0" result="BackgroundImageFix"/>
<feColorMatrix in="SourceAlpha" type="matrix" values="0 0 0 0 0 0 0 0 0 0 0 0 0 0 0 0 0 0 127 0" result="hardAlpha"/>
<feOffset dx="0.4" dy="0.4"/>
<feGaussianBlur stdDeviation="0.2"/>
<feComposite in2="hardAlpha" operator="out"/>
<feColorMatrix type="matrix" values="0 0 0 0 0 0 0 0 0 0 0 0 0 0 0 0 0 0 0.25 0"/>
<feBlend mode="normal" in2="BackgroundImageFix" result="effect1_dropShadow_148_221"/>
<feBlend mode="normal" in="SourceGraphic" in2="effect1_dropShadow_148_221" result="shape"/>
</filter>
<filter id="filter4_d_148_221" x="14.2969" y="10.9014" width="2.43672" height="3.49727" filterUnits="userSpaceOnUse" color-interpolation-filters="sRGB">
<feFlood flood-opacity="0" result="BackgroundImageFix"/>
<feColorMatrix in="SourceAlpha" type="matrix" values="0 0 0 0 0 0 0 0 0 0 0 0 0 0 0 0 0 0 127 0" result="hardAlpha"/>
<feOffset dx="0.4" dy="0.4"/>
<feGaussianBlur stdDeviation="0.2"/>
<feComposite in2="hardAlpha" operator="out"/>
<feColorMatrix type="matrix" values="0 0 0 0 0 0 0 0 0 0 0 0 0 0 0 0 0 0 0.25 0"/>
<feBlend mode="normal" in2="BackgroundImageFix" result="effect1_dropShadow_148_221"/>
<feBlend mode="normal" in="SourceGraphic" in2="effect1_dropShadow_148_221" result="shape"/>
</filter>
<filter id="filter5_d_148_221" x="6.98242" y="10.9131" width="2.43867" height="3.49629" filterUnits="userSpaceOnUse" color-interpolation-filters="sRGB">
<feFlood flood-opacity="0" result="BackgroundImageFix"/>
<feColorMatrix in="SourceAlpha" type="matrix" values="0 0 0 0 0 0 0 0 0 0 0 0 0 0 0 0 0 0 127 0" result="hardAlpha"/>
<feOffset dx="0.4" dy="0.4"/>
<feGaussianBlur stdDeviation="0.2"/>
<feComposite in2="hardAlpha" operator="out"/>
<feColorMatrix type="matrix" values="0 0 0 0 0 0 0 0 0 0 0 0 0 0 0 0 0 0 0.25 0"/>
<feBlend mode="normal" in2="BackgroundImageFix" result="effect1_dropShadow_148_221"/>
<feBlend mode="normal" in="SourceGraphic" in2="effect1_dropShadow_148_221" result="shape"/>
</filter>
<filter id="filter6_d_148_221" x="10.4434" y="14.165" width="2.05195" height="1.61396" filterUnits="userSpaceOnUse" color-interpolation-filters="sRGB">
<feFlood flood-opacity="0" result="BackgroundImageFix"/>
<feColorMatrix in="SourceAlpha" type="matrix" values="0 0 0 0 0 0 0 0 0 0 0 0 0 0 0 0 0 0 127 0" result="hardAlpha"/>
<feOffset dx="0.4" dy="0.4"/>
<feGaussianBlur stdDeviation="0.2"/>
<feComposite in2="hardAlpha" operator="out"/>
<feColorMatrix type="matrix" values="0 0 0 0 0 0 0 0 0 0 0 0 0 0 0 0 0 0 0.25 0"/>
<feBlend mode="normal" in2="BackgroundImageFix" result="effect1_dropShadow_148_221"/>
<feBlend mode="normal" in="SourceGraphic" in2="effect1_dropShadow_148_221" result="shape"/>
</filter>
<filter id="filter7_d_148_221" x="9.96289" y="18.0288" width="4.55586" height="4.17109" filterUnits="userSpaceOnUse" color-interpolation-filters="sRGB">
<feFlood flood-opacity="0" result="BackgroundImageFix"/>
<feColorMatrix in="SourceAlpha" type="matrix" values="0 0 0 0 0 0 0 0 0 0 0 0 0 0 0 0 0 0 127 0" result="hardAlpha"/>
<feOffset dx="0.4" dy="0.4"/>
<feGaussianBlur stdDeviation="0.2"/>
<feComposite in2="hardAlpha" operator="out"/>
<feColorMatrix type="matrix" values="0 0 0 0 0 0 0 0 0 0 0 0 0 0 0 0 0 0 0.25 0"/>
<feBlend mode="normal" in2="BackgroundImageFix" result="effect1_dropShadow_148_221"/>
<feBlend mode="normal" in="SourceGraphic" in2="effect1_dropShadow_148_221" result="shape"/>
</filter>
<filter id="filter8_d_148_221" x="9.96289" y="18.0288" width="4.17109" height="4.17109" filterUnits="userSpaceOnUse" color-interpolation-filters="sRGB">
<feFlood flood-opacity="0" result="BackgroundImageFix"/>
<feColorMatrix in="SourceAlpha" type="matrix" values="0 0 0 0 0 0 0 0 0 0 0 0 0 0 0 0 0 0 127 0" result="hardAlpha"/>
<feOffset dx="0.4" dy="0.4"/>
<feGaussianBlur stdDeviation="0.2"/>
<feComposite in2="hardAlpha" operator="out"/>
<feColorMatrix type="matrix" values="0 0 0 0 0 0 0 0 0 0 0 0 0 0 0 0 0 0 0.25 0"/>
<feBlend mode="normal" in2="BackgroundImageFix" result="effect1_dropShadow_148_221"/>
<feBlend mode="normal" in="SourceGraphic" in2="effect1_dropShadow_148_221" result="shape"/>
</filter>
<filter id="filter9_d_148_221" x="11.3262" y="19.1846" width="1.54023" height="1.95576" filterUnits="userSpaceOnUse" color-interpolation-filters="sRGB">
<feFlood flood-opacity="0" result="BackgroundImageFix"/>
<feColorMatrix in="SourceAlpha" type="matrix" values="0 0 0 0 0 0 0 0 0 0 0 0 0 0 0 0 0 0 127 0" result="hardAlpha"/>
<feOffset dx="0.4" dy="0.4"/>
<feGaussianBlur stdDeviation="0.2"/>
<feComposite in2="hardAlpha" operator="out"/>
<feColorMatrix type="matrix" values="0 0 0 0 0 0 0 0 0 0 0 0 0 0 0 0 0 0 0.25 0"/>
<feBlend mode="normal" in2="BackgroundImageFix" result="effect1_dropShadow_148_221"/>
<feBlend mode="normal" in="SourceGraphic" in2="effect1_dropShadow_148_221" result="shape"/>
</filter>
</defs>
</svg>
