<svg width="24" height="24" viewBox="0 0 24 24" fill="none" xmlns="http://www.w3.org/2000/svg">
<rect width="24" height="24" rx="6" fill="#32363B"/>
<g filter="url(#filter0_d_291_3438)">
<path d="M17.4263 18.0455V9.24667C17.4263 9.24667 14.8202 8.9 14.2596 8.9C13.699 8.9 13.5904 8.44991 13.5904 7.92273C13.5904 7.39555 13.2263 5 13.2263 5H7.61461C7.05404 5 6.59961 5.42736 6.59961 5.95455V18.0455C6.59961 18.5726 7.05404 19 7.61461 19H16.4113C16.9718 19 17.4263 18.5726 17.4263 18.0455Z" fill="#3F79AD"/>
</g>
<g filter="url(#filter1_d_291_3438)">
<path d="M13.2273 5C13.568 5.01336 13.8835 5.15563 14.1255 5.39765L17.0635 8.33569C17.3055 8.57771 17.414 8.90596 17.4273 9.24667L14.2369 9.24243C13.6746 9.24243 13.2188 8.78657 13.2188 8.22424L13.2273 5Z" fill="#5F97C9"/>
</g>
<g filter="url(#filter2_d_291_3438)">
<path d="M15.4236 12.7751C15.4236 12.996 15.2445 13.1751 15.0236 13.1751H8.95084C8.72993 13.1751 8.55084 12.996 8.55084 12.7751V12.7266C8.55084 12.5057 8.72993 12.3266 8.95084 12.3266H15.0236C15.2445 12.3266 15.4236 12.5057 15.4236 12.7266V12.7751Z" fill="#D9D9D9"/>
<path d="M8.55084 11.1697C8.55084 10.9487 8.72993 10.7697 8.95084 10.7697H15.0236C15.2445 10.7697 15.4236 10.9487 15.4236 11.1697V11.2733C15.4236 11.4942 15.2445 11.6733 15.0236 11.6733H8.95084C8.72993 11.6733 8.55084 11.4942 8.55084 11.2733V11.1697Z" fill="#D9D9D9"/>
<path d="M13.7393 14.26C13.7393 14.4809 13.5603 14.66 13.3393 14.66H8.95078C8.72987 14.66 8.55078 14.4809 8.55078 14.26V14.2115C8.55078 13.9906 8.72987 13.8115 8.95078 13.8115H13.3393C13.5603 13.8115 13.7393 13.9906 13.7393 14.2115V14.26Z" fill="#D9D9D9"/>
</g>
<defs>
<filter id="filter0_d_291_3438" x="6.59961" y="5" width="11.6262" height="14.8" filterUnits="userSpaceOnUse" color-interpolation-filters="sRGB">
<feFlood flood-opacity="0" result="BackgroundImageFix"/>
<feColorMatrix in="SourceAlpha" type="matrix" values="0 0 0 0 0 0 0 0 0 0 0 0 0 0 0 0 0 0 127 0" result="hardAlpha"/>
<feOffset dx="0.4" dy="0.4"/>
<feGaussianBlur stdDeviation="0.2"/>
<feComposite in2="hardAlpha" operator="out"/>
<feColorMatrix type="matrix" values="0 0 0 0 0 0 0 0 0 0 0 0 0 0 0 0 0 0 0.25 0"/>
<feBlend mode="normal" in2="BackgroundImageFix" result="effect1_dropShadow_291_3438"/>
<feBlend mode="normal" in="SourceGraphic" in2="effect1_dropShadow_291_3438" result="shape"/>
</filter>
<filter id="filter1_d_291_3438" x="13.2188" y="5" width="5.00898" height="5.0467" filterUnits="userSpaceOnUse" color-interpolation-filters="sRGB">
<feFlood flood-opacity="0" result="BackgroundImageFix"/>
<feColorMatrix in="SourceAlpha" type="matrix" values="0 0 0 0 0 0 0 0 0 0 0 0 0 0 0 0 0 0 127 0" result="hardAlpha"/>
<feOffset dx="0.4" dy="0.4"/>
<feGaussianBlur stdDeviation="0.2"/>
<feComposite in2="hardAlpha" operator="out"/>
<feColorMatrix type="matrix" values="0 0 0 0 0 0 0 0 0 0 0 0 0 0 0 0 0 0 0.25 0"/>
<feBlend mode="normal" in2="BackgroundImageFix" result="effect1_dropShadow_291_3438"/>
<feBlend mode="normal" in="SourceGraphic" in2="effect1_dropShadow_291_3438" result="shape"/>
</filter>
<filter id="filter2_d_291_3438" x="8.55078" y="10.7697" width="7.67305" height="4.69026" filterUnits="userSpaceOnUse" color-interpolation-filters="sRGB">
<feFlood flood-opacity="0" result="BackgroundImageFix"/>
<feColorMatrix in="SourceAlpha" type="matrix" values="0 0 0 0 0 0 0 0 0 0 0 0 0 0 0 0 0 0 127 0" result="hardAlpha"/>
<feOffset dx="0.4" dy="0.4"/>
<feGaussianBlur stdDeviation="0.2"/>
<feComposite in2="hardAlpha" operator="out"/>
<feColorMatrix type="matrix" values="0 0 0 0 0 0 0 0 0 0 0 0 0 0 0 0 0 0 0.25 0"/>
<feBlend mode="normal" in2="BackgroundImageFix" result="effect1_dropShadow_291_3438"/>
<feBlend mode="normal" in="SourceGraphic" in2="effect1_dropShadow_291_3438" result="shape"/>
</filter>
</defs>
</svg>
