<svg width="24" height="24" viewBox="0 0 24 24" fill="none" xmlns="http://www.w3.org/2000/svg">
<rect width="24" height="24" rx="6" fill="#32363B"/>
<g filter="url(#filter0_d_289_1173)">
<path d="M16.2 5C16.3657 5 16.5 5.13431 16.5 5.3V18.6459C16.5 18.8313 16.3276 18.9675 16.1507 18.9418C16.1131 18.9363 16.0578 18.9126 16.0578 18.9126C16.221 18.897 16.4074 18.6648 16.3807 18.4966L14.4 15.6L13.5 11.8852V5.3C13.5 5.13431 13.6343 5 13.8 5H16.2Z" fill="#B04F58"/>
</g>
<g filter="url(#filter1_d_289_1173)">
<path d="M7.8 5C7.63431 5 7.5 5.13431 7.5 5.3V18.6459C7.5 18.8312 7.66646 18.9723 7.84932 18.9418L10.2493 18.5418C10.394 18.5177 10.5 18.3925 10.5 18.2459V5.3C10.5 5.13431 10.3657 5 10.2 5H7.8Z" fill="#B04F58"/>
</g>
<g filter="url(#filter2_d_289_1173)">
<path d="M7.86515 5C7.64725 5 7.50204 5.22496 7.59176 5.42353L13.434 18.353C13.4754 18.4448 13.5602 18.5096 13.6596 18.5257L16.0582 18.9126C16.2925 18.9503 16.4758 18.7141 16.381 18.4965L10.5789 5.18017C10.5312 5.07075 10.4232 5 10.3039 5H7.86515Z" fill="#D06F78"/>
</g>
<defs>
<filter id="filter0_d_289_1173" x="13.5" y="5" width="3.8" height="14.7449" filterUnits="userSpaceOnUse" color-interpolation-filters="sRGB">
<feFlood flood-opacity="0" result="BackgroundImageFix"/>
<feColorMatrix in="SourceAlpha" type="matrix" values="0 0 0 0 0 0 0 0 0 0 0 0 0 0 0 0 0 0 127 0" result="hardAlpha"/>
<feOffset dx="0.4" dy="0.4"/>
<feGaussianBlur stdDeviation="0.2"/>
<feComposite in2="hardAlpha" operator="out"/>
<feColorMatrix type="matrix" values="0 0 0 0 0 0 0 0 0 0 0 0 0 0 0 0 0 0 0.25 0"/>
<feBlend mode="normal" in2="BackgroundImageFix" result="effect1_dropShadow_289_1173"/>
<feBlend mode="normal" in="SourceGraphic" in2="effect1_dropShadow_289_1173" result="shape"/>
</filter>
<filter id="filter1_d_289_1173" x="7.5" y="5" width="3.8" height="14.7459" filterUnits="userSpaceOnUse" color-interpolation-filters="sRGB">
<feFlood flood-opacity="0" result="BackgroundImageFix"/>
<feColorMatrix in="SourceAlpha" type="matrix" values="0 0 0 0 0 0 0 0 0 0 0 0 0 0 0 0 0 0 127 0" result="hardAlpha"/>
<feOffset dx="0.4" dy="0.4"/>
<feGaussianBlur stdDeviation="0.2"/>
<feComposite in2="hardAlpha" operator="out"/>
<feColorMatrix type="matrix" values="0 0 0 0 0 0 0 0 0 0 0 0 0 0 0 0 0 0 0.25 0"/>
<feBlend mode="normal" in2="BackgroundImageFix" result="effect1_dropShadow_289_1173"/>
<feBlend mode="normal" in="SourceGraphic" in2="effect1_dropShadow_289_1173" result="shape"/>
</filter>
<filter id="filter2_d_289_1173" x="7.56445" y="5" width="9.6418" height="14.7165" filterUnits="userSpaceOnUse" color-interpolation-filters="sRGB">
<feFlood flood-opacity="0" result="BackgroundImageFix"/>
<feColorMatrix in="SourceAlpha" type="matrix" values="0 0 0 0 0 0 0 0 0 0 0 0 0 0 0 0 0 0 127 0" result="hardAlpha"/>
<feOffset dx="0.4" dy="0.4"/>
<feGaussianBlur stdDeviation="0.2"/>
<feComposite in2="hardAlpha" operator="out"/>
<feColorMatrix type="matrix" values="0 0 0 0 0 0 0 0 0 0 0 0 0 0 0 0 0 0 0.25 0"/>
<feBlend mode="normal" in2="BackgroundImageFix" result="effect1_dropShadow_289_1173"/>
<feBlend mode="normal" in="SourceGraphic" in2="effect1_dropShadow_289_1173" result="shape"/>
</filter>
</defs>
</svg>
