<svg width="24" height="24" viewBox="0 0 24 24" fill="none" xmlns="http://www.w3.org/2000/svg">
<rect width="24" height="24" rx="6" fill="#32363B"/>
<g filter="url(#filter0_d_214_808)">
<path d="M15.9368 11.7688L11.9981 15.8985L9.64302 13.4294L7.91406 15.1707C7.91567 15.1723 7.91691 15.1737 7.91853 15.1753C8.68968 15.9613 9.44055 16.7189 10.0857 17.3649C10.2241 17.5032 10.3822 17.6627 10.5057 17.7853C10.7309 18.0092 10.9384 18.2146 11.1013 18.3732C11.1489 18.4194 11.207 18.4765 11.2481 18.5159C11.2942 18.5603 11.3322 18.5963 11.3697 18.6317C11.4761 18.7319 11.5644 18.813 11.59 18.8292C11.693 18.8944 11.8457 18.9263 11.9981 18.9283C12.1505 18.9263 12.3031 18.8944 12.4062 18.8292C12.5248 18.7542 13.5924 17.6949 14.8572 16.417C15.8183 15.446 16.8243 14.4157 17.6835 13.5279L15.9368 11.7688Z" fill="#4F9B7A"/>
<path d="M10.3614 9.45386L8.06303 11.7686L6.31641 13.5277C6.82062 14.0488 7.3313 14.5731 7.91757 15.1706L9.64672 13.4292L11.9776 11.0816L10.3614 9.45386Z" fill="#D1C06A"/>
<path d="M7.96022 5.5001C7.83788 5.50096 7.71632 5.5074 7.59601 5.5194C7.35546 5.54339 7.11944 5.58925 6.89066 5.6554C6.66183 5.72157 6.44024 5.80811 6.2281 5.91337C6.01596 6.01862 5.81337 6.14268 5.62282 6.28392C5.47907 6.39047 5.34467 6.50988 5.21565 6.63537C5.17368 6.67618 5.12998 6.71497 5.08972 6.7577C4.92567 6.93183 4.77596 7.1216 4.6433 7.32552C4.51064 7.52943 4.39498 7.74741 4.29862 7.97801V7.97821C4.28568 8.00918 4.27589 8.04214 4.26365 8.07356C4.13926 8.39303 4.04865 8.73387 4.00398 9.09549C3.99677 9.32263 3.99941 9.53298 4.01143 9.72925C4.03545 10.1218 4.09714 10.4578 4.19316 10.7589C4.28917 11.0599 4.41955 11.3259 4.58099 11.5781C4.82314 11.9564 5.13513 12.3039 5.50601 12.6924C5.72397 12.9205 6.0431 13.2471 6.31459 13.5277L8.06122 11.7686L7.35271 11.0258C7.35271 11.0258 6.94958 10.6471 6.78575 10.47C6.52905 10.1903 6.38209 9.82093 6.381 9.4325C6.38263 8.72445 6.86503 8.10943 7.54858 7.94392C7.58217 7.93518 7.61632 7.92766 7.65126 7.92144C7.67202 7.91769 7.69286 7.91438 7.71376 7.91151C7.77575 7.90336 7.83899 7.89783 7.90479 7.89783C7.92253 7.89796 7.94026 7.8984 7.95799 7.89914C7.96441 7.89888 7.97051 7.89804 7.97696 7.89783C8.88273 7.91253 9.60765 8.76813 10.3596 9.45386L12 7.80192C11.9813 7.80697 11.5937 7.42543 11.1427 7.00105C10.7039 6.58827 10.4005 6.32274 10.1326 6.13461H10.1324C9.99847 6.04055 9.87348 5.96578 9.74479 5.90156C9.61609 5.83735 9.48378 5.78375 9.33538 5.73184C9.10547 5.6514 8.87465 5.59266 8.64473 5.55443C8.52979 5.53531 8.41516 5.52129 8.30098 5.51228C8.1868 5.50327 8.07314 5.4993 7.96022 5.5001Z" fill="#B04F58"/>
<path d="M16.0395 5.5001C15.7008 5.4977 15.3551 5.53876 15.0096 5.6273C14.8944 5.65681 14.7793 5.69163 14.6644 5.73184C14.516 5.78375 14.3837 5.83735 14.255 5.90156C14.1263 5.96578 14.0013 6.04054 13.8673 6.13461H13.8671C13.5992 6.32274 13.2958 6.58827 12.8571 7.00105C12.5188 7.31934 12.2161 7.61353 12.0781 7.73859C12.0321 7.78028 12.0045 7.80318 11.9998 7.80191C11.985 7.80591 11.715 7.54568 11.3901 7.23634L11.9756 7.82608L10.3594 9.45386L11.9756 11.0816L13.2887 9.7594C13.2887 9.7594 14.9768 7.9148 16.0228 7.89783C16.0292 7.89803 16.0354 7.89888 16.0418 7.89914C16.0595 7.89839 16.0772 7.89796 16.095 7.89783C16.1608 7.89783 16.224 7.90336 16.286 7.91151C16.3069 7.91438 16.3277 7.91769 16.3485 7.92144C16.3834 7.92766 16.4176 7.93517 16.4512 7.94392C17.1347 8.10943 17.6171 8.72445 17.6188 9.4325C17.6177 9.82092 17.4707 10.1903 17.214 10.47C17.0502 10.6471 16.647 11.0258 16.647 11.0258L15.9385 11.7688L17.6852 13.5279C17.9567 13.2473 18.2757 12.9205 18.4937 12.6924C18.8646 12.3038 19.1766 11.9564 19.4188 11.5781C19.5802 11.3259 19.7106 11.0599 19.8066 10.7588C19.9026 10.4578 19.9643 10.1218 19.9883 9.72924C20.0003 9.53298 20.003 9.32262 19.9958 9.09548C19.9511 8.73386 19.8605 8.39302 19.7361 8.07355C19.7238 8.04207 19.7141 8.00904 19.7011 7.97801C19.6048 7.7474 19.4891 7.52943 19.3565 7.32552C19.2238 7.1216 19.0741 6.93182 18.91 6.7577C18.8698 6.71497 18.8261 6.67618 18.7841 6.63536C18.6551 6.50987 18.5207 6.39047 18.3769 6.28392C18.1864 6.14268 17.9838 6.01862 17.7717 5.91337C17.5595 5.80811 17.3379 5.72157 17.1091 5.6554C16.8803 5.58925 16.6443 5.54338 16.4037 5.51939H16.4036C16.2832 5.5074 16.1619 5.50096 16.0395 5.5001Z" fill="#3F79AD"/>
</g>
<defs>
<filter id="filter0_d_214_808" x="4" y="5.5" width="16.8" height="14.2282" filterUnits="userSpaceOnUse" color-interpolation-filters="sRGB">
<feFlood flood-opacity="0" result="BackgroundImageFix"/>
<feColorMatrix in="SourceAlpha" type="matrix" values="0 0 0 0 0 0 0 0 0 0 0 0 0 0 0 0 0 0 127 0" result="hardAlpha"/>
<feOffset dx="0.4" dy="0.4"/>
<feGaussianBlur stdDeviation="0.2"/>
<feComposite in2="hardAlpha" operator="out"/>
<feColorMatrix type="matrix" values="0 0 0 0 0 0 0 0 0 0 0 0 0 0 0 0 0 0 0.25 0"/>
<feBlend mode="normal" in2="BackgroundImageFix" result="effect1_dropShadow_214_808"/>
<feBlend mode="normal" in="SourceGraphic" in2="effect1_dropShadow_214_808" result="shape"/>
</filter>
</defs>
</svg>
