<svg width="24" height="24" viewBox="0 0 24 24" fill="none" xmlns="http://www.w3.org/2000/svg">
<rect width="24" height="24" rx="6" fill="#32363B"/>
<g filter="url(#filter0_d_279_747)">
<path d="M13.7129 5C13.4716 5.4459 13.2258 5.86196 12.9756 6.25H9.0498C7.50359 6.25013 6.25013 7.50359 6.25 9.0498V11.3945C5.82449 11.5056 5.40661 11.5893 5 11.6562V9.02539C5 6.80244 6.80244 5 9.02539 5H13.7129ZM11.1982 8.50684C10.4156 9.30926 9.61215 9.90693 8.8125 10.3613C9.28933 9.43572 10.1574 8.74472 11.1982 8.50684Z" fill="#6B58A7"/>
<path d="M14.9746 5C17.1976 5 19 6.80244 19 9.02539V14.9746C19 17.1976 17.1976 19 14.9746 19H14.3486C14.1705 18.5531 13.9741 18.1368 13.7588 17.75H14.9502C14.9983 17.75 15.0462 17.7485 15.0938 17.7461C15.1175 17.7449 15.1415 17.744 15.165 17.7422C15.236 17.7368 15.3066 17.7284 15.376 17.7178C15.399 17.7142 15.4224 17.7101 15.4453 17.7061C15.905 17.6239 16.3261 17.4295 16.6787 17.1523C16.7315 17.1108 16.7834 17.0676 16.833 17.0225C16.8991 16.9624 16.9624 16.8991 17.0225 16.833C17.0676 16.7834 17.1108 16.7315 17.1523 16.6787C17.4295 16.3261 17.6239 15.905 17.7061 15.4453C17.7101 15.4224 17.7142 15.399 17.7178 15.376C17.7284 15.3066 17.7368 15.236 17.7422 15.165C17.744 15.1415 17.7449 15.1175 17.7461 15.0938C17.7485 15.0462 17.75 14.9983 17.75 14.9502V9.0498C17.75 9.00167 17.7485 8.95379 17.7461 8.90625C17.7449 8.88254 17.744 8.85851 17.7422 8.83496C17.7368 8.76402 17.7284 8.69339 17.7178 8.62402C17.7142 8.60096 17.7101 8.57757 17.7061 8.55469C17.6239 8.09504 17.4295 7.6739 17.1523 7.32129C17.1108 7.26848 17.0676 7.21664 17.0225 7.16699C16.9624 7.10088 16.8991 7.03764 16.833 6.97754C16.7834 6.93241 16.7315 6.88916 16.6787 6.84766C16.3261 6.57055 15.905 6.37605 15.4453 6.29395C15.4224 6.28986 15.399 6.28575 15.376 6.28223C15.3066 6.27164 15.236 6.26321 15.165 6.25781C15.1415 6.25602 15.1175 6.25511 15.0938 6.25391C15.0462 6.2515 14.9983 6.25 14.9502 6.25H12.9756C13.2258 5.86195 13.4716 5.4459 13.7129 5H14.9746ZM12 8.41699C13.979 8.41704 15.583 10.021 15.583 12C15.583 13.9447 14.0341 15.5257 12.1025 15.5801C11.0906 14.6003 9.9253 13.935 8.73047 13.4678C8.52903 13.0198 8.41699 12.5231 8.41699 12C8.417 11.4095 8.55951 10.8524 8.8125 10.3613C9.61216 9.90694 10.4156 9.30926 11.1982 8.50684C11.456 8.44793 11.7244 8.41699 12 8.41699ZM12 9.66113C10.7081 9.66114 9.66114 10.7081 9.66113 12C9.66113 13.292 10.708 14.3389 12 14.3389C13.2919 14.3388 14.3389 13.2919 14.3389 12C14.3389 10.7081 13.2919 9.66118 12 9.66113ZM6.25 12.748C5.8244 12.6606 5.40583 12.5895 5 12.5293V11.6562C5.40661 11.5893 5.82449 11.5055 6.25 11.3945V12.748ZM15.75 7.41699C16.2102 7.41699 16.583 7.78978 16.583 8.25C16.583 8.71023 16.2102 9.08301 15.75 9.08301C15.2898 9.08298 14.917 8.71021 14.917 8.25C14.917 7.7898 15.2898 7.41702 15.75 7.41699Z" fill="#C07FA0"/>
<path d="M5 12.5298C5.40584 12.59 5.82439 12.6611 6.25 12.7485V14.9497C6.25 16.496 7.50351 17.7494 9.0498 17.7495H13.7578C13.9732 18.1364 14.1704 18.5525 14.3486 18.9995H9.02539C6.80248 18.9995 5.00006 17.198 5 14.9751V12.5298ZM8.73047 13.4663C9.92538 13.9335 11.0896 14.6008 12.1016 15.5806C12.0678 15.5815 12.034 15.5835 12 15.5835C10.5436 15.5835 9.29091 14.714 8.73047 13.4663Z" fill="#D2945A"/>
</g>
<defs>
<filter id="filter0_d_279_747" x="5" y="5" width="14.8" height="14.8" filterUnits="userSpaceOnUse" color-interpolation-filters="sRGB">
<feFlood flood-opacity="0" result="BackgroundImageFix"/>
<feColorMatrix in="SourceAlpha" type="matrix" values="0 0 0 0 0 0 0 0 0 0 0 0 0 0 0 0 0 0 127 0" result="hardAlpha"/>
<feOffset dx="0.4" dy="0.4"/>
<feGaussianBlur stdDeviation="0.2"/>
<feComposite in2="hardAlpha" operator="out"/>
<feColorMatrix type="matrix" values="0 0 0 0 0 0 0 0 0 0 0 0 0 0 0 0 0 0 0.25 0"/>
<feBlend mode="normal" in2="BackgroundImageFix" result="effect1_dropShadow_279_747"/>
<feBlend mode="normal" in="SourceGraphic" in2="effect1_dropShadow_279_747" result="shape"/>
</filter>
</defs>
</svg>
