<svg width="24" height="24" viewBox="0 0 24 24" fill="none" xmlns="http://www.w3.org/2000/svg">
<rect width="24" height="24" rx="6" fill="#32363B"/>
<g filter="url(#filter0_d_101_1092)">
<path d="M12.1202 5C11.8962 5 11.6813 5.08901 11.5228 5.24744C11.3644 5.40588 11.2754 5.62077 11.2754 5.84483V6.93103C11.2754 7.1551 11.3644 7.36998 11.5228 7.52842C11.6813 7.68685 11.8962 7.77586 12.1202 7.77586C12.3443 7.77586 12.5592 7.68685 12.7176 7.52842C12.876 7.36998 12.965 7.1551 12.965 6.93103V5.84483C12.965 5.62077 12.876 5.40588 12.7176 5.24744C12.5592 5.08901 12.3443 5 12.1202 5ZM12.1202 8.6214C11.8962 8.6214 11.6813 8.71041 11.5228 8.86884C11.3644 9.02728 11.2754 9.24216 11.2754 9.46622V14.5352C11.2754 14.7593 11.3644 14.9741 11.5228 15.1326C11.6813 15.291 11.8962 15.38 12.1202 15.38C12.3443 15.38 12.5592 15.291 12.7176 15.1326C12.876 14.9741 12.965 14.7593 12.965 14.5352V9.46622C12.965 9.24216 12.876 9.02728 12.7176 8.86884C12.5592 8.71041 12.3443 8.6214 12.1202 8.6214ZM12.1202 16.2248C11.8962 16.2248 11.6813 16.3139 11.5228 16.4723C11.3644 16.6307 11.2754 16.8456 11.2754 17.0697V18.1559C11.2754 18.3799 11.3644 18.5948 11.5228 18.7533C11.6813 18.9117 11.8962 19.0007 12.1202 19.0007C12.3443 19.0007 12.5592 18.9117 12.7176 18.7533C12.876 18.5948 12.965 18.3799 12.965 18.1559V17.0697C12.965 16.8456 12.876 16.6307 12.7176 16.4723C12.5592 16.3139 12.3443 16.2248 12.1202 16.2248Z" fill="#B8A64F"/>
<path d="M8.9835 7.77637C8.75944 7.77637 8.54455 7.86538 8.38612 8.02381C8.22768 8.18225 8.13867 8.39713 8.13867 8.62119V11.7591C8.13867 11.9832 8.22768 12.1981 8.38612 12.3565C8.54455 12.5149 8.75944 12.604 8.9835 12.604C9.20756 12.604 9.42245 12.5149 9.58088 12.3565C9.73932 12.1981 9.82833 11.9832 9.82833 11.7591V8.62119C9.82833 8.39713 9.73932 8.18225 9.58088 8.02381C9.42245 7.86538 9.20756 7.77637 8.9835 7.77637ZM8.9835 13.4488C8.75944 13.4488 8.54455 13.5378 8.38612 13.6962C8.22768 13.8547 8.13867 14.0695 8.13867 14.2936V15.3798C8.13867 15.6039 8.22768 15.8188 8.38612 15.9772C8.54455 16.1356 8.75944 16.2246 8.9835 16.2246C9.20756 16.2246 9.42245 16.1356 9.58088 15.9772C9.73932 15.8188 9.82833 15.6039 9.82833 15.3798V14.2936C9.82833 14.0695 9.73932 13.8547 9.58088 13.6962C9.42245 13.5378 9.20756 13.4488 8.9835 13.4488Z" fill="#B04F58"/>
<path d="M5.84483 10.5518C5.62077 10.5518 5.40588 10.6408 5.24744 10.7992C5.08901 10.9576 5 11.1725 5 11.3966V12.4828C5 12.7069 5.08901 12.9217 5.24744 13.0802C5.40588 13.2386 5.62077 13.3276 5.84483 13.3276C6.06889 13.3276 6.28378 13.2386 6.44221 13.0802C6.60065 12.9217 6.68966 12.7069 6.68966 12.4828V11.3966C6.68966 11.1725 6.60065 10.9576 6.44221 10.7992C6.28378 10.6408 6.06889 10.5518 5.84483 10.5518Z" fill="#3F79AD"/>
<path d="M18.1554 10.5518C17.9313 10.5518 17.7164 10.6408 17.558 10.7992C17.3996 10.9576 17.3105 11.1725 17.3105 11.3966V12.4828C17.3105 12.7069 17.3996 12.9217 17.558 13.0802C17.7164 13.2386 17.9313 13.3276 18.1554 13.3276C18.3794 13.3276 18.5943 13.2386 18.7528 13.0802C18.9112 12.9217 19.0002 12.7069 19.0002 12.4828V11.3966C19.0002 11.1725 18.9112 10.9576 18.7528 10.7992C18.5943 10.6408 18.3794 10.5518 18.1554 10.5518Z" fill="#428AA3"/>
<path d="M15.2589 7.77637C15.0348 7.77637 14.8199 7.86538 14.6615 8.02381C14.5031 8.18225 14.4141 8.39713 14.4141 8.62119V9.7074C14.4141 9.93146 14.5031 10.1463 14.6615 10.3048C14.8199 10.4632 15.0348 10.5522 15.2589 10.5522C15.483 10.5522 15.6978 10.4632 15.8563 10.3048C16.0147 10.1463 16.1037 9.93146 16.1037 9.7074V8.62119C16.1037 8.39713 16.0147 8.18225 15.8563 8.02381C15.6978 7.86538 15.483 7.77637 15.2589 7.77637ZM15.2589 11.3971C15.0348 11.3971 14.8199 11.4861 14.6615 11.6445C14.5031 11.8029 14.4141 12.0178 14.4141 12.2419V15.3798C14.4141 15.6039 14.5031 15.8188 14.6615 15.9772C14.8199 16.1356 15.0348 16.2246 15.2589 16.2246C15.483 16.2246 15.6978 16.1356 15.8563 15.9772C16.0147 15.8188 16.1037 15.6039 16.1037 15.3798V12.2419C16.1037 12.0178 16.0147 11.8029 15.8563 11.6445C15.6978 11.4861 15.483 11.3971 15.2589 11.3971Z" fill="#4F9B7A"/>
</g>
<defs>
<filter id="filter0_d_101_1092" x="5" y="5" width="14.8" height="14.801" filterUnits="userSpaceOnUse" color-interpolation-filters="sRGB">
<feFlood flood-opacity="0" result="BackgroundImageFix"/>
<feColorMatrix in="SourceAlpha" type="matrix" values="0 0 0 0 0 0 0 0 0 0 0 0 0 0 0 0 0 0 127 0" result="hardAlpha"/>
<feOffset dx="0.4" dy="0.4"/>
<feGaussianBlur stdDeviation="0.2"/>
<feComposite in2="hardAlpha" operator="out"/>
<feColorMatrix type="matrix" values="0 0 0 0 0 0 0 0 0 0 0 0 0 0 0 0 0 0 0.25 0"/>
<feBlend mode="normal" in2="BackgroundImageFix" result="effect1_dropShadow_101_1092"/>
<feBlend mode="normal" in="SourceGraphic" in2="effect1_dropShadow_101_1092" result="shape"/>
</filter>
</defs>
</svg>
