<svg width="24" height="24" viewBox="0 0 24 24" fill="none" xmlns="http://www.w3.org/2000/svg">
<rect width="24" height="24" rx="6" fill="#32363B"/>
<g filter="url(#filter0_d_288_476)">
<path d="M7.57168 17.4999C7.14893 16.9246 6.9004 16.223 6.90039 15.4656V5.51063C6.9004 5.08497 7.41203 4.84685 7.76045 5.11034L9.64355 6.53446C10.0034 6.80661 10.2135 7.22205 10.2135 7.66171V16.0001L9.20039 17.05L7.57168 17.4999Z" fill="#4F5F9F"/>
</g>
<g filter="url(#filter1_d_288_476)">
<path d="M13.9003 13.9062C15.0451 14.2568 16.346 15.2284 16.6338 15.7173C16.602 15.7715 16.6706 15.663 16.6338 15.7173C16.4198 16.0872 15.349 17 15.349 17C15.349 17 13.6484 18.4304 11.7006 18.8329C11.2273 18.9307 10.7422 19 10.4743 19C9.27979 19 8.22174 18.3857 7.57031 17.5L13.9003 13.9062Z" fill="#3F79AD"/>
</g>
<g filter="url(#filter2_d_288_476)">
<path d="M12.0374 9.79939C12.0253 9.39502 12.4005 9.13295 12.702 9.33526L15.6607 11.331C16.5248 11.8623 17.1073 12.871 17.1073 14.0191C17.1073 14.6465 17 15.179 16.6346 15.7172C15.9356 15.4026 12.7249 13.0611 12.7223 13.0592C12.3496 12.8091 12.1141 12.3534 12.0991 11.8534L12.0374 9.79939Z" fill="#5F97C9"/>
</g>
<defs>
<filter id="filter0_d_288_476" x="6.90039" y="5" width="4.1125" height="13.3" filterUnits="userSpaceOnUse" color-interpolation-filters="sRGB">
<feFlood flood-opacity="0" result="BackgroundImageFix"/>
<feColorMatrix in="SourceAlpha" type="matrix" values="0 0 0 0 0 0 0 0 0 0 0 0 0 0 0 0 0 0 127 0" result="hardAlpha"/>
<feOffset dx="0.4" dy="0.4"/>
<feGaussianBlur stdDeviation="0.2"/>
<feComposite in2="hardAlpha" operator="out"/>
<feColorMatrix type="matrix" values="0 0 0 0 0 0 0 0 0 0 0 0 0 0 0 0 0 0 0.25 0"/>
<feBlend mode="normal" in2="BackgroundImageFix" result="effect1_dropShadow_288_476"/>
<feBlend mode="normal" in="SourceGraphic" in2="effect1_dropShadow_288_476" result="shape"/>
</filter>
<filter id="filter1_d_288_476" x="7.57031" y="13.9062" width="9.87422" height="5.89375" filterUnits="userSpaceOnUse" color-interpolation-filters="sRGB">
<feFlood flood-opacity="0" result="BackgroundImageFix"/>
<feColorMatrix in="SourceAlpha" type="matrix" values="0 0 0 0 0 0 0 0 0 0 0 0 0 0 0 0 0 0 127 0" result="hardAlpha"/>
<feOffset dx="0.4" dy="0.4"/>
<feGaussianBlur stdDeviation="0.2"/>
<feComposite in2="hardAlpha" operator="out"/>
<feColorMatrix type="matrix" values="0 0 0 0 0 0 0 0 0 0 0 0 0 0 0 0 0 0 0.25 0"/>
<feBlend mode="normal" in2="BackgroundImageFix" result="effect1_dropShadow_288_476"/>
<feBlend mode="normal" in="SourceGraphic" in2="effect1_dropShadow_288_476" result="shape"/>
</filter>
<filter id="filter2_d_288_476" x="12.0371" y="9.26538" width="5.87031" height="7.2519" filterUnits="userSpaceOnUse" color-interpolation-filters="sRGB">
<feFlood flood-opacity="0" result="BackgroundImageFix"/>
<feColorMatrix in="SourceAlpha" type="matrix" values="0 0 0 0 0 0 0 0 0 0 0 0 0 0 0 0 0 0 127 0" result="hardAlpha"/>
<feOffset dx="0.4" dy="0.4"/>
<feGaussianBlur stdDeviation="0.2"/>
<feComposite in2="hardAlpha" operator="out"/>
<feColorMatrix type="matrix" values="0 0 0 0 0 0 0 0 0 0 0 0 0 0 0 0 0 0 0.25 0"/>
<feBlend mode="normal" in2="BackgroundImageFix" result="effect1_dropShadow_288_476"/>
<feBlend mode="normal" in="SourceGraphic" in2="effect1_dropShadow_288_476" result="shape"/>
</filter>
</defs>
</svg>
