<svg width="24" height="24" viewBox="0 0 24 24" fill="none" xmlns="http://www.w3.org/2000/svg">
<rect width="24" height="24" rx="6" fill="#F4F5F7"/>
<g filter="url(#filter0_d_214_844)">
<path d="M5.4217 7.22171C7.22461 5.41881 10.0929 5.33073 12 6.95725C11.902 7.04089 11.8064 7.129 11.7137 7.22171L8.58899 10.3464C6.69337 12.242 6.69339 15.3154 8.58899 17.211C9.53137 18.1534 10.7649 18.6272 12 18.6326C10.7507 18.638 9.4996 18.1642 8.54637 17.211L5.4217 14.0864C3.52611 12.1907 3.52609 9.11732 5.4217 7.22171ZM15.5075 12.2344C15.4934 12.2348 15.4794 12.2351 15.4653 12.2352C15.4794 12.2351 15.4934 12.2348 15.5075 12.2344ZM15.5732 12.2312C15.5606 12.2321 15.5479 12.2328 15.5352 12.2334C15.5479 12.2328 15.5606 12.2321 15.5732 12.2312ZM15.6461 12.225C15.6313 12.2266 15.6165 12.228 15.6016 12.2292C15.6165 12.228 15.6313 12.2266 15.6461 12.225ZM15.7219 12.2155C15.7052 12.218 15.6884 12.2202 15.6716 12.2222C15.6884 12.2202 15.7052 12.218 15.7219 12.2155ZM15.7877 12.2046C15.768 12.2082 15.7483 12.2116 15.7284 12.2146C15.7483 12.2116 15.768 12.2082 15.7877 12.2046ZM15.8558 12.1908C15.8384 12.1946 15.8209 12.1983 15.8034 12.2017C15.8209 12.1983 15.8384 12.1947 15.8558 12.1908ZM15.9208 12.1749C15.9014 12.1799 15.882 12.1848 15.8624 12.1893C15.882 12.1848 15.9014 12.18 15.9208 12.1749ZM15.988 12.1559C15.9701 12.1613 15.9521 12.1664 15.934 12.1713C15.9521 12.1664 15.9701 12.1613 15.988 12.1559ZM16.0527 12.1349C16.0326 12.1418 16.0124 12.1484 15.992 12.1547C16.0124 12.1484 16.0326 12.1418 16.0527 12.1349ZM16.1146 12.1123C16.0958 12.1196 16.0767 12.1265 16.0576 12.1332C16.0767 12.1265 16.0958 12.1196 16.1146 12.1123ZM16.4682 11.9299C16.3591 12.0021 16.2418 12.063 16.1182 12.1109C16.2418 12.0629 16.3591 12.002 16.4682 11.9298V11.9299ZM13.6033 10.3402C13.6029 10.3561 13.6027 10.372 13.6027 10.3879C13.6027 10.551 13.624 10.7091 13.6637 10.8597C13.624 10.7091 13.6027 10.5509 13.6027 10.3879C13.6027 10.3719 13.6029 10.356 13.6033 10.3402ZM13.7591 9.64313C13.6768 9.82985 13.6244 10.0327 13.6082 10.2458C13.6244 10.0327 13.6768 9.82984 13.7591 9.64313ZM13.773 9.61245C13.7707 9.61742 13.7683 9.62233 13.7661 9.62732C13.7683 9.62233 13.7707 9.61742 13.773 9.61245Z" fill="#32363B"/>
</g>
<g filter="url(#filter1_d_214_844)">
<path d="M11.7144 7.22176C13.61 5.32614 16.6834 5.32614 18.579 7.22176C20.4747 9.11738 20.4747 12.1908 18.579 14.0864L15.4544 17.2111C13.5587 19.1067 10.4853 19.1067 8.58969 17.2111C6.69406 15.3154 6.69406 12.242 8.58969 10.3464L11.7144 7.22176ZM15.451 8.54034C14.4306 8.54034 13.6034 9.36753 13.6034 10.3879C13.6034 11.4083 14.4306 12.2355 15.451 12.2355C16.4714 12.2355 17.2986 11.4083 17.2986 10.3879C17.2986 9.36753 16.4714 8.54034 15.451 8.54034Z" fill="#3F79AD"/>
</g>
<defs>
<filter id="filter0_d_214_844" x="3.6" y="5.80005" width="13.2688" height="13.6325" filterUnits="userSpaceOnUse" color-interpolation-filters="sRGB">
<feFlood flood-opacity="0" result="BackgroundImageFix"/>
<feColorMatrix in="SourceAlpha" type="matrix" values="0 0 0 0 0 0 0 0 0 0 0 0 0 0 0 0 0 0 127 0" result="hardAlpha"/>
<feOffset dy="0.4"/>
<feGaussianBlur stdDeviation="0.2"/>
<feComposite in2="hardAlpha" operator="out"/>
<feColorMatrix type="matrix" values="0 0 0 0 0 0 0 0 0 0 0 0 0 0 0 0 0 0 0.25 0"/>
<feBlend mode="normal" in2="BackgroundImageFix" result="effect1_dropShadow_214_844"/>
<feBlend mode="normal" in="SourceGraphic" in2="effect1_dropShadow_214_844" result="shape"/>
</filter>
<filter id="filter1_d_214_844" x="6.76797" y="5.80005" width="13.632" height="13.6328" filterUnits="userSpaceOnUse" color-interpolation-filters="sRGB">
<feFlood flood-opacity="0" result="BackgroundImageFix"/>
<feColorMatrix in="SourceAlpha" type="matrix" values="0 0 0 0 0 0 0 0 0 0 0 0 0 0 0 0 0 0 127 0" result="hardAlpha"/>
<feOffset dy="0.4"/>
<feGaussianBlur stdDeviation="0.2"/>
<feComposite in2="hardAlpha" operator="out"/>
<feColorMatrix type="matrix" values="0 0 0 0 0 0 0 0 0 0 0 0 0 0 0 0 0 0 0.25 0"/>
<feBlend mode="normal" in2="BackgroundImageFix" result="effect1_dropShadow_214_844"/>
<feBlend mode="normal" in="SourceGraphic" in2="effect1_dropShadow_214_844" result="shape"/>
</filter>
</defs>
</svg>
