<svg width="24" height="24" viewBox="0 0 24 24" fill="none" xmlns="http://www.w3.org/2000/svg">
<rect width="24" height="24" rx="6" fill="#32363B"/>
<g filter="url(#filter0_d_291_3461)">
<path d="M17.4263 18.0455V9.24667C16.1666 8.73788 15.4456 8.66535 14.1596 9C13.599 9 13.4904 8.54991 13.4904 8.02273L13.2263 5H7.61461C7.05404 5 6.59961 5.42736 6.59961 5.95455V18.0455C6.59961 18.5726 7.05404 19 7.61461 19H16.4113C16.9718 19 17.4263 18.5726 17.4263 18.0455Z" fill="#B8A64F"/>
</g>
<g filter="url(#filter1_d_291_3461)">
<path d="M13.2273 5C13.568 5.01336 13.8835 5.15563 14.1255 5.39765L17.0635 8.33569C17.3055 8.57771 17.414 8.90596 17.4273 9.24667L14.2369 9.24243C13.6746 9.24243 13.2188 8.78657 13.2188 8.22424L13.2273 5Z" fill="#D1C06A"/>
</g>
<g filter="url(#filter2_d_291_3461)">
<path d="M11.4527 14.7067C11.2987 14.7067 11.1669 14.6519 11.0572 14.5422C10.9476 14.4325 10.8927 14.3007 10.8927 14.1467V13.7967C10.6267 13.6147 10.4202 13.3814 10.2732 13.0967C10.1262 12.812 10.0527 12.5087 10.0527 12.1867C10.0527 11.6407 10.2429 11.1775 10.6232 10.7972C11.0036 10.4169 11.4667 10.2267 12.0127 10.2267C12.5587 10.2267 13.0219 10.4169 13.4022 10.7972C13.7826 11.1775 13.9727 11.6407 13.9727 12.1867C13.9727 12.5087 13.8992 12.8109 13.7522 13.0932C13.6052 13.3755 13.3987 13.61 13.1327 13.7967V14.1467C13.1327 14.3007 13.0779 14.4325 12.9682 14.5422C12.8586 14.6519 12.7267 14.7067 12.5727 14.7067H11.4527ZM11.4527 15.8267C11.3734 15.8267 11.3069 15.7999 11.2532 15.7462C11.1996 15.6925 11.1727 15.626 11.1727 15.5467C11.1727 15.4674 11.1996 15.4009 11.2532 15.3472C11.3069 15.2935 11.3734 15.2667 11.4527 15.2667H12.5727C12.6521 15.2667 12.7186 15.2935 12.7722 15.3472C12.8259 15.4009 12.8527 15.4674 12.8527 15.5467C12.8527 15.626 12.8259 15.6925 12.7722 15.7462C12.7186 15.7999 12.6521 15.8267 12.5727 15.8267H11.4527Z" fill="#F4F5F7"/>
</g>
<defs>
<filter id="filter0_d_291_3461" x="6.59961" y="5" width="11.6262" height="14.8" filterUnits="userSpaceOnUse" color-interpolation-filters="sRGB">
<feFlood flood-opacity="0" result="BackgroundImageFix"/>
<feColorMatrix in="SourceAlpha" type="matrix" values="0 0 0 0 0 0 0 0 0 0 0 0 0 0 0 0 0 0 127 0" result="hardAlpha"/>
<feOffset dx="0.4" dy="0.4"/>
<feGaussianBlur stdDeviation="0.2"/>
<feComposite in2="hardAlpha" operator="out"/>
<feColorMatrix type="matrix" values="0 0 0 0 0 0 0 0 0 0 0 0 0 0 0 0 0 0 0.25 0"/>
<feBlend mode="normal" in2="BackgroundImageFix" result="effect1_dropShadow_291_3461"/>
<feBlend mode="normal" in="SourceGraphic" in2="effect1_dropShadow_291_3461" result="shape"/>
</filter>
<filter id="filter1_d_291_3461" x="13.2188" y="5" width="5.00898" height="5.0467" filterUnits="userSpaceOnUse" color-interpolation-filters="sRGB">
<feFlood flood-opacity="0" result="BackgroundImageFix"/>
<feColorMatrix in="SourceAlpha" type="matrix" values="0 0 0 0 0 0 0 0 0 0 0 0 0 0 0 0 0 0 127 0" result="hardAlpha"/>
<feOffset dx="0.4" dy="0.4"/>
<feGaussianBlur stdDeviation="0.2"/>
<feComposite in2="hardAlpha" operator="out"/>
<feColorMatrix type="matrix" values="0 0 0 0 0 0 0 0 0 0 0 0 0 0 0 0 0 0 0.25 0"/>
<feBlend mode="normal" in2="BackgroundImageFix" result="effect1_dropShadow_291_3461"/>
<feBlend mode="normal" in="SourceGraphic" in2="effect1_dropShadow_291_3461" result="shape"/>
</filter>
<filter id="filter2_d_291_3461" x="10.0527" y="10.2267" width="4.71992" height="6.39998" filterUnits="userSpaceOnUse" color-interpolation-filters="sRGB">
<feFlood flood-opacity="0" result="BackgroundImageFix"/>
<feColorMatrix in="SourceAlpha" type="matrix" values="0 0 0 0 0 0 0 0 0 0 0 0 0 0 0 0 0 0 127 0" result="hardAlpha"/>
<feOffset dx="0.4" dy="0.4"/>
<feGaussianBlur stdDeviation="0.2"/>
<feComposite in2="hardAlpha" operator="out"/>
<feColorMatrix type="matrix" values="0 0 0 0 0 0 0 0 0 0 0 0 0 0 0 0 0 0 0.25 0"/>
<feBlend mode="normal" in2="BackgroundImageFix" result="effect1_dropShadow_291_3461"/>
<feBlend mode="normal" in="SourceGraphic" in2="effect1_dropShadow_291_3461" result="shape"/>
</filter>
</defs>
</svg>
