<svg width="24" height="24" viewBox="0 0 24 24" fill="none" xmlns="http://www.w3.org/2000/svg">
<g clip-path="url(#clip0_148_193)">
<rect width="24" height="24" rx="6" fill="#32363B"/>
<g filter="url(#filter0_d_148_193)">
<path d="M5.19819 8.65932C4.56644 7.52314 5.48045 6.14755 6.77194 6.29081L17.5531 7.48675C18.7406 7.61848 19.3701 8.95888 18.7134 9.95736L13.2317 18.2921C12.5713 19.2961 11.0817 19.2405 10.4976 18.19L5.19819 8.65932Z" fill="#8A78C8"/>
</g>
<g filter="url(#filter1_d_148_193)">
<path d="M5.19297 8.6458L14.7535 9.54875C15.3523 9.6053 15.6769 10.278 15.3487 10.7822L11.0556 17.3775C10.8091 17.7562 10.2484 17.7366 10.0287 17.3416L5.19297 8.6458Z" fill="#4F5F9F"/>
</g>
</g>
<defs>
<filter id="filter0_d_148_193" x="4.99414" y="6.28027" width="14.7844" height="13.5324" filterUnits="userSpaceOnUse" color-interpolation-filters="sRGB">
<feFlood flood-opacity="0" result="BackgroundImageFix"/>
<feColorMatrix in="SourceAlpha" type="matrix" values="0 0 0 0 0 0 0 0 0 0 0 0 0 0 0 0 0 0 127 0" result="hardAlpha"/>
<feOffset dx="0.4" dy="0.4"/>
<feGaussianBlur stdDeviation="0.2"/>
<feComposite in2="hardAlpha" operator="out"/>
<feColorMatrix type="matrix" values="0 0 0 0 0 0 0 0 0 0 0 0 0 0 0 0 0 0 0.25 0"/>
<feBlend mode="normal" in2="BackgroundImageFix" result="effect1_dropShadow_148_193"/>
<feBlend mode="normal" in="SourceGraphic" in2="effect1_dropShadow_148_193" result="shape"/>
</filter>
<filter id="filter1_d_148_193" x="5.19336" y="8.646" width="11.0852" height="9.80391" filterUnits="userSpaceOnUse" color-interpolation-filters="sRGB">
<feFlood flood-opacity="0" result="BackgroundImageFix"/>
<feColorMatrix in="SourceAlpha" type="matrix" values="0 0 0 0 0 0 0 0 0 0 0 0 0 0 0 0 0 0 127 0" result="hardAlpha"/>
<feOffset dx="0.4" dy="0.4"/>
<feGaussianBlur stdDeviation="0.2"/>
<feComposite in2="hardAlpha" operator="out"/>
<feColorMatrix type="matrix" values="0 0 0 0 0 0 0 0 0 0 0 0 0 0 0 0 0 0 0.3 0"/>
<feBlend mode="normal" in2="BackgroundImageFix" result="effect1_dropShadow_148_193"/>
<feBlend mode="normal" in="SourceGraphic" in2="effect1_dropShadow_148_193" result="shape"/>
</filter>
<clipPath id="clip0_148_193">
<rect width="24" height="24" rx="6" fill="white"/>
</clipPath>
</defs>
</svg>
