<svg width="24" height="24" viewBox="0 0 24 24" fill="none" xmlns="http://www.w3.org/2000/svg">
<rect width="24" height="24" rx="6" fill="#32363B"/>
<g filter="url(#filter0_d_291_3326)">
<path d="M15.8023 19H8.15742L7.85742 17.4927L8.15742 15.9855H15.8023L16.1023 17.4927L15.8023 19Z" fill="#4F9B7A"/>
<path d="M11.9794 5C11.7726 5 11.5529 5.10824 11.4277 5.23285L5.29883 11.2782C5.18645 11.389 5.09961 11.5891 5.09961 11.7489V15.7036L6.92461 14.3018L8.14961 12.7L11.9496 8.94258L13.2385 7.97501L14.1273 6.80744L12.5323 5.23294C12.4058 5.10834 12.1861 5.00009 11.9793 5.00009L11.9794 5Z" fill="#B04F58"/>
<path d="M8.15708 18.9999V17.4918V15.9838V12.6902L5.09961 15.7033V18.2458C5.09961 18.6939 5.40867 18.9997 5.86463 18.9997L8.15708 18.9999Z" fill="#B8A64F"/>
<path d="M14.1286 6.80737L11.9805 8.92315L15.8029 12.6903V19H18.0967C18.5513 19 18.8617 18.6954 18.8617 18.2461V11.7491C18.8617 11.5893 18.7748 11.3904 18.6624 11.2797L14.1286 6.80737Z" fill="#3F79AD"/>
</g>
<defs>
<filter id="filter0_d_291_3326" x="5.09961" y="5" width="14.5617" height="14.8" filterUnits="userSpaceOnUse" color-interpolation-filters="sRGB">
<feFlood flood-opacity="0" result="BackgroundImageFix"/>
<feColorMatrix in="SourceAlpha" type="matrix" values="0 0 0 0 0 0 0 0 0 0 0 0 0 0 0 0 0 0 127 0" result="hardAlpha"/>
<feOffset dx="0.4" dy="0.4"/>
<feGaussianBlur stdDeviation="0.2"/>
<feComposite in2="hardAlpha" operator="out"/>
<feColorMatrix type="matrix" values="0 0 0 0 0 0 0 0 0 0 0 0 0 0 0 0 0 0 0.25 0"/>
<feBlend mode="normal" in2="BackgroundImageFix" result="effect1_dropShadow_291_3326"/>
<feBlend mode="normal" in="SourceGraphic" in2="effect1_dropShadow_291_3326" result="shape"/>
</filter>
</defs>
</svg>
