<svg width="24" height="24" viewBox="0 0 24 24" fill="none" xmlns="http://www.w3.org/2000/svg">
<rect width="24" height="24" rx="6" fill="#32363B"/>
<g filter="url(#filter0_d_239_399)">
<path d="M6.02439 5.8999H16.439V8.46088H7.56098V10.6804H5V6.92429C5 6.35854 5.45864 5.8999 6.02439 5.8999Z" fill="#B04F58"/>
<path d="M5 10.6804H7.56098V15.4609H16.439H19V16.9975C19 17.5632 18.5414 18.0219 17.9756 18.0219H6.02439C5.45864 18.0219 5 17.5632 5 16.9975V10.6804Z" fill="#3F79AD"/>
<path d="M19.0004 15.4609H16.4395V8.46088V5.8999H17.976C18.5418 5.8999 19.0004 6.35854 19.0004 6.92429V15.4609Z" fill="#B8A64F"/>
<path d="M11.5727 15.4659L14.3705 15.462C14.2164 14.9369 13.9991 14.4313 13.7217 13.9576C13.117 12.9246 12.2503 12.0824 11.2155 11.522C10.3245 11.0395 8.7307 10.7294 7.56055 10.6804V13.2045C8.3067 13.255 9.47186 13.6014 10.0125 13.8941C10.6284 14.2277 11.1442 14.729 11.5041 15.3438C11.5277 15.3841 11.5506 15.4248 11.5727 15.4659Z" fill="#4F9B7A"/>
<path d="M15.67 10.6805C15.67 11.482 15.0203 12.1317 14.2188 12.1317C13.4173 12.1317 12.7676 11.482 12.7676 10.6805C12.7676 9.87898 13.4173 9.22925 14.2188 9.22925C15.0203 9.22925 15.67 9.87898 15.67 10.6805Z" fill="#B8A64F"/>
</g>
<defs>
<filter id="filter0_d_239_399" x="5" y="5.8999" width="14.8" height="12.9221" filterUnits="userSpaceOnUse" color-interpolation-filters="sRGB">
<feFlood flood-opacity="0" result="BackgroundImageFix"/>
<feColorMatrix in="SourceAlpha" type="matrix" values="0 0 0 0 0 0 0 0 0 0 0 0 0 0 0 0 0 0 127 0" result="hardAlpha"/>
<feOffset dx="0.4" dy="0.4"/>
<feGaussianBlur stdDeviation="0.2"/>
<feComposite in2="hardAlpha" operator="out"/>
<feColorMatrix type="matrix" values="0 0 0 0 0 0 0 0 0 0 0 0 0 0 0 0 0 0 0.25 0"/>
<feBlend mode="normal" in2="BackgroundImageFix" result="effect1_dropShadow_239_399"/>
<feBlend mode="normal" in="SourceGraphic" in2="effect1_dropShadow_239_399" result="shape"/>
</filter>
</defs>
</svg>
