<svg width="24" height="24" viewBox="0 0 24 24" fill="none" xmlns="http://www.w3.org/2000/svg">
<rect width="24" height="24" rx="6" fill="#D1C06A"/>
<g filter="url(#filter0_d_101_1137)">
<path d="M12.0675 18.8496C12.0257 18.8496 11.9858 18.8481 11.9555 18.8467C11.9314 18.8487 11.9065 18.8496 11.8817 18.8496C11.0034 18.8496 10.4162 18.4373 9.89798 18.0733C9.52655 17.8128 9.17626 17.5668 8.76589 17.4991C8.56435 17.4659 8.36386 17.449 8.17014 17.449C7.8211 17.449 7.54527 17.5028 7.34388 17.5419C7.21995 17.5659 7.11309 17.5865 7.0305 17.5865C6.94399 17.5865 6.83889 17.5675 6.79509 17.419C6.76037 17.3018 6.73548 17.1883 6.71144 17.079C6.65132 16.8059 6.60772 16.6392 6.50473 16.6234C5.40322 16.4546 4.75239 16.206 4.62275 15.905C4.60917 15.8733 4.60157 15.8415 4.59989 15.81C4.59484 15.7203 4.65864 15.6416 4.74773 15.6269C5.6225 15.4839 6.4003 15.0623 7.05966 14.2994C7.57043 13.7089 7.82126 13.1446 7.84819 13.0823C7.84931 13.0795 7.85074 13.0765 7.85214 13.0738C7.97924 12.8178 8.00452 12.5965 7.92753 12.4164C7.7856 12.084 7.30307 11.9359 6.99208 11.838C6.91474 11.8137 6.84158 11.7907 6.7833 11.7677C6.50761 11.6596 6.05422 11.4311 6.11462 11.1158C6.15862 10.8858 6.46491 10.7257 6.71245 10.7257C6.78118 10.7257 6.84209 10.7377 6.89337 10.7616C7.17308 10.8917 7.41224 10.9577 7.62866 10.9577C7.89781 10.9577 8.0278 10.8559 8.05923 10.827C8.05148 10.6844 8.04201 10.5337 8.03285 10.3911C8.03285 10.391 8.0326 10.3893 8.0326 10.3893C7.96942 9.39137 7.89063 8.11202 8.21054 7.39987C9.16805 5.26814 11.2236 5.10237 11.823 5.10237C11.8389 5.10237 12.0842 5.09996 12.0842 5.09996C12.0953 5.09976 12.1073 5.09961 12.1197 5.09961C12.7207 5.09961 14.7806 5.26557 15.7387 7.39858C16.0586 8.1112 15.9798 9.40408 15.9164 10.403L15.9134 10.4508C15.9047 10.5865 15.8967 10.7149 15.8899 10.8393C15.9195 10.8664 16.0385 10.9596 16.2805 10.9691C16.4868 10.9612 16.7114 10.8956 16.9725 10.7742C17.0532 10.7366 17.1426 10.7288 17.2032 10.7288C17.2949 10.7288 17.3883 10.7465 17.466 10.7787L17.4702 10.7803C17.6917 10.8584 17.8368 11.0145 17.8399 11.1784C17.8427 11.3312 17.7284 11.5596 17.1658 11.7802C17.1082 11.8029 17.0347 11.8261 16.957 11.8505C16.6457 11.9486 16.1635 12.0966 16.0216 12.4288C15.9445 12.6089 15.9699 12.8301 16.097 13.0861C16.0984 13.0889 16.0996 13.0917 16.101 13.0947C16.1401 13.1858 17.0876 15.2809 19.2014 15.6267C19.2905 15.6415 19.3544 15.7202 19.3493 15.8098C19.3474 15.842 19.3396 15.8742 19.3259 15.9056C19.1972 16.205 18.5464 16.4533 17.4446 16.6223C17.3411 16.6381 17.2976 16.8041 17.238 17.0758C17.2133 17.188 17.1882 17.298 17.154 17.4136C17.1219 17.5223 17.0506 17.5754 16.9361 17.5754H16.9188C16.8443 17.5754 16.7386 17.5619 16.6054 17.5361C16.3725 17.4911 16.1113 17.4492 15.7791 17.4492C15.5854 17.4492 15.385 17.466 15.1832 17.4992C14.7733 17.567 14.423 17.8125 14.0522 18.0728C13.533 18.4373 12.9457 18.8496 12.0675 18.8496Z" stroke="#32363B" stroke-width="1.2" stroke-linecap="round" stroke-linejoin="round" shape-rendering="crispEdges"/>
</g>
<g filter="url(#filter1_d_101_1137)">
<path d="M12.0675 18.8496C12.0257 18.8496 11.9858 18.8481 11.9555 18.8467C11.9314 18.8487 11.9065 18.8496 11.8817 18.8496C11.0034 18.8496 10.4162 18.4373 9.89798 18.0733C9.52655 17.8128 9.17626 17.5668 8.76589 17.4991C8.56435 17.4659 8.36386 17.449 8.17014 17.449C7.8211 17.449 7.54527 17.5028 7.34388 17.5419C7.21995 17.5659 7.11309 17.5865 7.0305 17.5865C6.94399 17.5865 6.83889 17.5675 6.79509 17.419C6.76037 17.3018 6.73548 17.1883 6.71144 17.079C6.65132 16.8059 6.60772 16.6392 6.50473 16.6234C5.40322 16.4546 4.75239 16.206 4.62275 15.905C4.60917 15.8733 4.60157 15.8415 4.59989 15.81C4.59484 15.7203 4.65864 15.6416 4.74773 15.6269C5.6225 15.4839 6.4003 15.0623 7.05966 14.2994C7.57043 13.7089 7.82126 13.1446 7.84819 13.0823C7.84931 13.0795 7.85074 13.0765 7.85214 13.0738C7.97924 12.8178 8.00452 12.5965 7.92753 12.4164C7.7856 12.084 7.30307 11.9359 6.99208 11.838C6.91474 11.8137 6.84158 11.7907 6.7833 11.7677C6.50761 11.6596 6.05422 11.4311 6.11462 11.1158C6.15862 10.8858 6.46491 10.7257 6.71245 10.7257C6.78118 10.7257 6.84209 10.7377 6.89337 10.7616C7.17308 10.8917 7.41224 10.9577 7.62866 10.9577C7.89781 10.9577 8.0278 10.8559 8.05923 10.827C8.05148 10.6844 8.04201 10.5337 8.03285 10.3911C8.03285 10.391 8.0326 10.3893 8.0326 10.3893C7.96942 9.39137 7.89063 8.11202 8.21054 7.39987C9.16805 5.26814 11.2236 5.10237 11.823 5.10237C11.8389 5.10237 12.0842 5.09996 12.0842 5.09996C12.0953 5.09976 12.1073 5.09961 12.1197 5.09961C12.7207 5.09961 14.7806 5.26557 15.7387 7.39858C16.0586 8.1112 15.9798 9.40408 15.9164 10.403L15.9134 10.4508C15.9047 10.5865 15.8967 10.7149 15.8899 10.8393C15.9195 10.8664 16.0385 10.9596 16.2805 10.9691C16.4868 10.9612 16.7114 10.8956 16.9725 10.7742C17.0532 10.7366 17.1426 10.7288 17.2032 10.7288C17.2949 10.7288 17.3883 10.7465 17.466 10.7787L17.4702 10.7803C17.6917 10.8584 17.8368 11.0145 17.8399 11.1784C17.8427 11.3312 17.7284 11.5596 17.1658 11.7802C17.1082 11.8029 17.0347 11.8261 16.957 11.8505C16.6457 11.9486 16.1635 12.0966 16.0216 12.4288C15.9445 12.6089 15.9699 12.8301 16.097 13.0861C16.0984 13.0889 16.0996 13.0917 16.101 13.0947C16.1401 13.1858 17.0876 15.2809 19.2014 15.6267C19.2905 15.6415 19.3544 15.7202 19.3493 15.8098C19.3474 15.842 19.3396 15.8742 19.3259 15.9056C19.1972 16.205 18.5464 16.4533 17.4446 16.6223C17.3411 16.6381 17.2976 16.8041 17.238 17.0758C17.2133 17.188 17.1882 17.298 17.154 17.4136C17.1219 17.5223 17.0506 17.5754 16.9361 17.5754H16.9188C16.8443 17.5754 16.7386 17.5619 16.6054 17.5361C16.3725 17.4911 16.1113 17.4492 15.7791 17.4492C15.5854 17.4492 15.385 17.466 15.1832 17.4992C14.7733 17.567 14.423 17.8125 14.0522 18.0728C13.533 18.4373 12.9457 18.8496 12.0675 18.8496Z" fill="#F4F5F7"/>
</g>
<defs>
<filter id="filter0_d_101_1137" x="4" y="4.5" width="16.7492" height="15.7492" filterUnits="userSpaceOnUse" color-interpolation-filters="sRGB">
<feFlood flood-opacity="0" result="BackgroundImageFix"/>
<feColorMatrix in="SourceAlpha" type="matrix" values="0 0 0 0 0 0 0 0 0 0 0 0 0 0 0 0 0 0 127 0" result="hardAlpha"/>
<feOffset dx="0.4" dy="0.4"/>
<feGaussianBlur stdDeviation="0.2"/>
<feComposite in2="hardAlpha" operator="out"/>
<feColorMatrix type="matrix" values="0 0 0 0 0 0 0 0 0 0 0 0 0 0 0 0 0 0 0.25 0"/>
<feBlend mode="normal" in2="BackgroundImageFix" result="effect1_dropShadow_101_1137"/>
<feBlend mode="normal" in="SourceGraphic" in2="effect1_dropShadow_101_1137" result="shape"/>
</filter>
<filter id="filter1_d_101_1137" x="4.59961" y="5.09961" width="15.55" height="14.55" filterUnits="userSpaceOnUse" color-interpolation-filters="sRGB">
<feFlood flood-opacity="0" result="BackgroundImageFix"/>
<feColorMatrix in="SourceAlpha" type="matrix" values="0 0 0 0 0 0 0 0 0 0 0 0 0 0 0 0 0 0 127 0" result="hardAlpha"/>
<feOffset dx="0.4" dy="0.4"/>
<feGaussianBlur stdDeviation="0.2"/>
<feComposite in2="hardAlpha" operator="out"/>
<feColorMatrix type="matrix" values="0 0 0 0 0 0 0 0 0 0 0 0 0 0 0 0 0 0 0.25 0"/>
<feBlend mode="normal" in2="BackgroundImageFix" result="effect1_dropShadow_101_1137"/>
<feBlend mode="normal" in="SourceGraphic" in2="effect1_dropShadow_101_1137" result="shape"/>
</filter>
</defs>
</svg>
