<svg width="24" height="24" viewBox="0 0 24 24" fill="none" xmlns="http://www.w3.org/2000/svg">
<rect width="24" height="24" rx="6" fill="#32363B"/>
<g filter="url(#filter0_d_148_214)">
<path d="M17.2071 10.3218C18.0041 10.1528 18.8271 10.6096 18.9396 11.4165C19.0761 12.3947 18.9867 13.3448 18.6157 14.3555C18.0722 15.8363 17.046 17.091 15.7025 17.9175C14.359 18.744 12.7763 19.0941 11.2095 18.9114C9.64276 18.7287 8.18311 18.0239 7.06575 16.9105C5.9484 15.7971 5.23841 14.3399 5.05019 12.7738C4.86196 11.2077 5.20646 9.62381 6.02818 8.27735C6.8499 6.9309 8.10098 5.90028 9.57985 5.35156C10.5801 4.98042 11.5628 4.92672 12.5586 5.08078C13.3876 5.20904 13.8513 6.0618 13.6579 6.8781C13.4415 7.79189 12.4837 8.25882 11.5452 8.29325C11.2625 8.30362 10.9863 8.35033 10.7281 8.44615C9.94427 8.73698 9.2812 9.2832 8.84569 9.99682C8.41018 10.7104 8.22759 11.5499 8.32735 12.3799C8.42711 13.21 8.8034 13.9823 9.3956 14.5724C9.9878 15.1625 10.7614 15.5361 11.5918 15.6329C12.4222 15.7297 13.261 15.5441 13.9731 15.1061C14.6852 14.6681 15.229 14.0031 15.5171 13.2183C15.6076 12.9716 15.6623 12.7087 15.6867 12.4395C15.7723 11.4954 16.2797 10.5183 17.2071 10.3218Z" fill="#8A78C8"/>
</g>
<g filter="url(#filter1_d_148_214)">
<path d="M6.84505 7.19162C8.65025 6.62763 10.6635 6.71871 12.6546 7.92893C12.6853 7.94754 12.7153 7.96676 12.7454 7.98557C12.3865 8.17458 11.9642 8.27782 11.5452 8.29318C11.2628 8.30357 10.9869 8.34986 10.7288 8.44553C9.94511 8.73633 9.28154 9.28278 8.84603 9.99631C8.41052 10.7099 8.22771 11.5501 8.32747 12.3801C8.4273 13.21 8.80373 13.9825 9.39583 14.5725C9.98801 15.1625 10.7618 15.5362 11.5921 15.633C12.4224 15.7298 13.261 15.5436 13.973 15.1057C14.685 14.6677 15.2289 14.0027 15.5169 13.218C15.6074 12.9715 15.6624 12.7087 15.6868 12.4397C15.7028 12.2638 15.7334 12.0862 15.7786 11.9133C16.535 14.7606 15.2165 17.7224 14.2923 18.5803C13.3083 18.9163 12.256 19.0332 11.2103 18.9113C9.64351 18.7287 8.18311 18.0238 7.06575 16.9104C5.94846 15.797 5.23836 14.3397 5.05013 12.7737C4.86192 11.2076 5.20706 9.62395 6.02865 8.27756C6.26645 7.8879 6.54022 7.52435 6.84505 7.19162Z" fill="#4F5F9F"/>
</g>
<g filter="url(#filter2_d_148_214)">
<path d="M10.8117 11.2953C10.7844 10.613 11.3394 10.0449 12.0222 10.0449C12.7051 10.0449 13.26 10.613 13.2327 11.2953L13.2182 11.6597C13.2034 12.0282 12.9276 12.3337 12.5625 12.3859V13.2862C12.5625 13.5846 12.3206 13.8265 12.0222 13.8265C11.7239 13.8265 11.482 13.5846 11.482 13.2862V12.3859C11.1169 12.3337 10.8411 12.0282 10.8263 11.6597L10.8117 11.2953Z" fill="#4F5F9F"/>
</g>
<defs>
<filter id="filter0_d_148_214" x="5" y="5" width="14.8" height="14.7585" filterUnits="userSpaceOnUse" color-interpolation-filters="sRGB">
<feFlood flood-opacity="0" result="BackgroundImageFix"/>
<feColorMatrix in="SourceAlpha" type="matrix" values="0 0 0 0 0 0 0 0 0 0 0 0 0 0 0 0 0 0 127 0" result="hardAlpha"/>
<feOffset dx="0.4" dy="0.4"/>
<feGaussianBlur stdDeviation="0.2"/>
<feComposite in2="hardAlpha" operator="out"/>
<feColorMatrix type="matrix" values="0 0 0 0 0 0 0 0 0 0 0 0 0 0 0 0 0 0 0.25 0"/>
<feBlend mode="normal" in2="BackgroundImageFix" result="effect1_dropShadow_148_214"/>
<feBlend mode="normal" in="SourceGraphic" in2="effect1_dropShadow_148_214" result="shape"/>
</filter>
<filter id="filter1_d_148_214" x="5" y="6.85791" width="11.8039" height="12.9006" filterUnits="userSpaceOnUse" color-interpolation-filters="sRGB">
<feFlood flood-opacity="0" result="BackgroundImageFix"/>
<feColorMatrix in="SourceAlpha" type="matrix" values="0 0 0 0 0 0 0 0 0 0 0 0 0 0 0 0 0 0 127 0" result="hardAlpha"/>
<feOffset dx="0.4" dy="0.4"/>
<feGaussianBlur stdDeviation="0.2"/>
<feComposite in2="hardAlpha" operator="out"/>
<feColorMatrix type="matrix" values="0 0 0 0 0 0 0 0 0 0 0 0 0 0 0 0 0 0 0.3 0"/>
<feBlend mode="normal" in2="BackgroundImageFix" result="effect1_dropShadow_148_214"/>
<feBlend mode="normal" in="SourceGraphic" in2="effect1_dropShadow_148_214" result="shape"/>
</filter>
<filter id="filter2_d_148_214" x="10.8105" y="10.0449" width="3.22383" height="4.58174" filterUnits="userSpaceOnUse" color-interpolation-filters="sRGB">
<feFlood flood-opacity="0" result="BackgroundImageFix"/>
<feColorMatrix in="SourceAlpha" type="matrix" values="0 0 0 0 0 0 0 0 0 0 0 0 0 0 0 0 0 0 127 0" result="hardAlpha"/>
<feOffset dx="0.4" dy="0.4"/>
<feGaussianBlur stdDeviation="0.2"/>
<feComposite in2="hardAlpha" operator="out"/>
<feColorMatrix type="matrix" values="0 0 0 0 0 0 0 0 0 0 0 0 0 0 0 0 0 0 0.3 0"/>
<feBlend mode="normal" in2="BackgroundImageFix" result="effect1_dropShadow_148_214"/>
<feBlend mode="normal" in="SourceGraphic" in2="effect1_dropShadow_148_214" result="shape"/>
</filter>
</defs>
</svg>
