<svg width="24" height="24" viewBox="0 0 24 24" fill="none" xmlns="http://www.w3.org/2000/svg">
<rect width="24" height="24" rx="6" fill="#3F79AD"/>
<g filter="url(#filter0_d_291_3467)">
<path d="M12.2812 9.97167C12.4393 9.71179 12.6425 9.4632 12.8683 9.23721C13.1958 8.90953 13.5571 8.64964 13.9522 8.45755C13.4554 8.18637 12.8796 8.00558 12.2812 7.97168V9.97167Z" fill="#D1C06A"/>
<path d="M11.718 11.7119V7.96049C10.3571 7.51561 9.30338 8.05703 8.81641 9.48591C8.97447 9.93789 9.24544 10.356 9.61802 10.7288C10.2277 11.3277 10.9051 11.6554 11.718 11.7119Z" fill="#D1C06A"/>
<path d="M9.62831 5.98305C8.96218 6.64971 8.63477 7.42937 8.63477 8.35592C8.63477 8.8305 8.7138 9.25987 8.88315 9.65535C8.86057 9.59885 8.83799 9.54236 8.81541 9.48586C9.50412 8.61581 10.5428 8.03954 11.717 7.96044V5C10.9041 5.0565 10.2267 5.38418 9.62831 5.98305Z" fill="#B8A64F"/>
<path d="M12.293 11.7232H16.0526C16.4698 10.4471 15.8341 9.41672 14.5172 8.81921C14.0655 8.97741 13.6478 9.24859 13.2752 9.62147C12.6768 10.2316 12.3494 10.9209 12.293 11.7232Z" fill="#D1C06A"/>
<path d="M18.0176 9.63277C17.3514 8.96611 16.5724 8.63843 15.6466 8.63843C15.2402 8.63843 14.8676 8.69492 14.5176 8.81922C15.3869 9.50848 15.974 10.548 16.0531 11.7232H18.9998C18.9434 10.9209 18.616 10.2316 18.0176 9.63277Z" fill="#B8A64F"/>
<path d="M11.7056 12.2881H7.94592C7.30512 13.573 7.923 14.6131 9.45882 15.192C9.92173 15.0338 10.3395 14.7627 10.7233 14.3785C11.3217 13.7796 11.6491 13.1016 11.7056 12.2881Z" fill="#D1C06A"/>
<path d="M9.45968 15.192C8.59032 14.5028 8.01452 13.4632 7.94677 12.2881H5C5.05645 13.1016 5.38387 13.7796 5.98226 14.3785C6.64839 15.0451 7.42742 15.3728 8.35323 15.3728C8.95161 15.3728 9.48226 15.2372 9.95645 14.9773C9.79839 15.0564 9.62903 15.1355 9.45968 15.192Z" fill="#B8A64F"/>
<path d="M14.0312 12.2882C14.2909 12.4463 14.5393 12.6497 14.7651 12.8757C15.1038 13.2147 15.3635 13.5763 15.5554 13.9718C15.8377 13.4633 16.0071 12.887 16.0522 12.2769H14.0312V12.2882Z" fill="#D1C06A"/>
<path d="M12.3008 12.3V16.074C13.6577 16.4725 14.6783 15.8371 15.2024 14.5373C15.0443 14.0741 14.7734 13.656 14.3895 13.2718C13.7911 12.6842 13.1024 12.3565 12.3008 12.3Z" fill="#D1C06A"/>
<path d="M14.9571 14.0508C15.0474 14.209 15.1151 14.3785 15.1829 14.548C14.4942 15.418 13.4554 15.9943 12.2812 16.0847V19.0338C13.0942 18.9773 13.7942 18.6383 14.37 18.0508C15.0361 17.3841 15.3635 16.6044 15.3635 15.6666C15.3635 15.0564 15.228 14.5254 14.9571 14.0508Z" fill="#B8A64F"/>
<path d="M9.96671 11.7232C9.70703 11.565 9.45864 11.3616 9.23284 11.1356C8.90542 10.808 8.64574 10.4464 8.45381 10.0509C8.17155 10.5594 8.00219 11.1243 7.95703 11.7345H9.96671V11.7232Z" fill="#D1C06A"/>
<path d="M11.717 14.0396C11.5589 14.2994 11.3557 14.548 11.1299 14.774C10.7912 15.113 10.4299 15.3729 10.0234 15.565C10.5315 15.8475 11.1073 16.0282 11.717 16.0621V14.0396Z" fill="#D1C06A"/>
</g>
<defs>
<filter id="filter0_d_291_3467" x="5" y="5" width="14.8" height="14.8338" filterUnits="userSpaceOnUse" color-interpolation-filters="sRGB">
<feFlood flood-opacity="0" result="BackgroundImageFix"/>
<feColorMatrix in="SourceAlpha" type="matrix" values="0 0 0 0 0 0 0 0 0 0 0 0 0 0 0 0 0 0 127 0" result="hardAlpha"/>
<feOffset dx="0.4" dy="0.4"/>
<feGaussianBlur stdDeviation="0.2"/>
<feComposite in2="hardAlpha" operator="out"/>
<feColorMatrix type="matrix" values="0 0 0 0 0 0 0 0 0 0 0 0 0 0 0 0 0 0 0.25 0"/>
<feBlend mode="normal" in2="BackgroundImageFix" result="effect1_dropShadow_291_3467"/>
<feBlend mode="normal" in="SourceGraphic" in2="effect1_dropShadow_291_3467" result="shape"/>
</filter>
</defs>
</svg>
