<svg width="24" height="24" viewBox="0 0 24 24" fill="none" xmlns="http://www.w3.org/2000/svg">
<rect width="24" height="24" rx="6" fill="#32363B"/>
<g filter="url(#filter0_d_259_974)">
<path d="M5.31687 15.8096C5.14352 15.7807 5 15.9265 5 16.1029V17.3807C5 17.5571 5.14245 17.7001 5.31818 17.7001H6.59091C6.76664 17.7001 6.91187 17.556 6.88305 17.382C6.74976 16.5769 6.11875 15.9434 5.31687 15.8096Z" fill="#D06F78"/>
<path d="M5.31823 13.239C5.14294 13.2266 5 13.3708 5 13.5473V14.1862C5 14.3626 5.14287 14.5039 5.31773 14.5214C6.82059 14.6712 8.01691 15.8722 8.16613 17.3811C8.18349 17.5566 8.32427 17.7 8.5 17.7H9.13636C9.31209 17.7 9.45572 17.5565 9.44339 17.3806C9.28796 15.1631 7.52695 13.3951 5.31823 13.239Z" fill="#B8A64F"/>
<path d="M5.31831 10.6793C5.14276 10.6714 5 10.8151 5 10.9916V11.6305C5 11.8069 5.1427 11.949 5.31817 11.9586C8.22762 12.1186 10.5592 14.4595 10.7186 17.3805C10.7282 17.5566 10.8697 17.6999 11.0455 17.6999H11.6818C11.8575 17.6999 12.0007 17.5566 11.9929 17.3803C11.8312 13.7506 8.92826 10.8416 5.31831 10.6793Z" fill="#4F9B7A"/>
<path d="M17.7273 6.19995H6.27273C5.57273 6.19995 5 6.77495 5 7.47773V9.07495C5 9.25138 5.14245 9.3944 5.31818 9.3944H5.95455C6.13027 9.3944 6.27273 9.25138 6.27273 9.07495V7.79717C6.27273 7.62075 6.41518 7.47773 6.59091 7.47773H17.4091C17.5848 7.47773 17.7273 7.62075 17.7273 7.79717V16.1027C17.7273 16.2792 17.5848 16.4222 17.4091 16.4222H13.5909C13.4152 16.4222 13.2727 16.5652 13.2727 16.7416V17.3805C13.2727 17.5569 13.4152 17.7 13.5909 17.7H17.7273C18.4273 17.7 19 17.125 19 16.4222V7.47773C19 6.77495 18.4273 6.19995 17.7273 6.19995Z" fill="#3F79AD"/>
</g>
<defs>
<filter id="filter0_d_259_974" x="5" y="6.19995" width="14.8" height="12.3002" filterUnits="userSpaceOnUse" color-interpolation-filters="sRGB">
<feFlood flood-opacity="0" result="BackgroundImageFix"/>
<feColorMatrix in="SourceAlpha" type="matrix" values="0 0 0 0 0 0 0 0 0 0 0 0 0 0 0 0 0 0 127 0" result="hardAlpha"/>
<feOffset dx="0.4" dy="0.4"/>
<feGaussianBlur stdDeviation="0.2"/>
<feComposite in2="hardAlpha" operator="out"/>
<feColorMatrix type="matrix" values="0 0 0 0 0 0 0 0 0 0 0 0 0 0 0 0 0 0 0.25 0"/>
<feBlend mode="normal" in2="BackgroundImageFix" result="effect1_dropShadow_259_974"/>
<feBlend mode="normal" in="SourceGraphic" in2="effect1_dropShadow_259_974" result="shape"/>
</filter>
</defs>
</svg>
