<svg width="24" height="24" viewBox="0 0 24 24" fill="none" xmlns="http://www.w3.org/2000/svg">
<rect width="24" height="24" rx="6" fill="#32363B"/>
<g filter="url(#filter0_d_291_3433)">
<path fill-rule="evenodd" clip-rule="evenodd" d="M7.45037 13.4C7.1679 13.4001 6.91313 13.5699 6.80443 13.8307L5.05458 18.0307C4.86249 18.4918 5.2011 18.9999 5.70052 19H18.2995C18.7989 18.9998 19.1375 18.4917 18.9454 18.0307L17.1956 13.8307C17.0869 13.57 16.8321 13.4001 16.5496 13.4H7.45037Z" fill="#B0733F"/>
<path fill-rule="evenodd" clip-rule="evenodd" d="M12.0007 5.00017C11.6828 4.9966 11.3585 5.05057 11.0382 5.17917C10.8398 5.25895 10.6887 5.42504 10.6281 5.6301L9.98415 7.80547C12.0234 10.9478 13.7992 8.2 14.0147 7.80547L13.3707 5.63007C13.3067 5.41301 13.1411 5.24045 12.9269 5.16685C12.6305 5.06478 12.3186 5.00367 12.0008 5.00014L12.0007 5.00017ZM9.15563 10.604L8.37891 13.2275C11.1888 16.5619 14.6356 15.1077 15.5935 13.1382L14.8432 10.604C13.8992 10.5 13.3797 8.93422 9.15563 10.604Z" fill="#B0733F"/>
<path fill-rule="evenodd" clip-rule="evenodd" d="M9.9856 7.80554L9.15708 10.604C10.1627 11.0552 11.0528 11.2978 11.9132 11.3C12.8869 11.3026 13.8226 11.0102 14.8446 10.604L14.0161 7.80554C13.515 8.16868 12.7083 8.33889 11.9132 8.32505C11.1765 8.31222 10.4497 8.14201 9.98546 7.80554H9.9856ZM9.15708 10.604L7.82953 15.0864C7.74415 15.3751 7.85319 15.6861 8.10023 15.8584C9.17907 16.6103 10.5802 16.913 11.9747 16.8996C13.3694 16.8863 14.7684 16.555 15.8671 15.881C16.1367 15.7154 16.2617 15.3897 16.172 15.0864L15.595 13.1379C14.4229 13.8474 13.1966 14.0957 12.0883 14.1C10.3153 14.107 8.84437 13.4992 8.38047 13.2274L9.15705 10.6038L9.15708 10.604Z" fill="#F4F5F7"/>
</g>
<defs>
<filter id="filter0_d_291_3433" x="5" y="5" width="14.8" height="14.8" filterUnits="userSpaceOnUse" color-interpolation-filters="sRGB">
<feFlood flood-opacity="0" result="BackgroundImageFix"/>
<feColorMatrix in="SourceAlpha" type="matrix" values="0 0 0 0 0 0 0 0 0 0 0 0 0 0 0 0 0 0 127 0" result="hardAlpha"/>
<feOffset dx="0.4" dy="0.4"/>
<feGaussianBlur stdDeviation="0.2"/>
<feComposite in2="hardAlpha" operator="out"/>
<feColorMatrix type="matrix" values="0 0 0 0 0 0 0 0 0 0 0 0 0 0 0 0 0 0 0.25 0"/>
<feBlend mode="normal" in2="BackgroundImageFix" result="effect1_dropShadow_291_3433"/>
<feBlend mode="normal" in="SourceGraphic" in2="effect1_dropShadow_291_3433" result="shape"/>
</filter>
</defs>
</svg>
