<svg width="24" height="24" viewBox="0 0 24 24" fill="none" xmlns="http://www.w3.org/2000/svg">
<rect width="24" height="24" rx="6" fill="#B8A64F"/>
<g filter="url(#filter0_d_259_936)">
<rect x="3" y="3" width="18" height="18" rx="4" fill="#4F9B7A"/>
</g>
<g filter="url(#filter1_d_259_936)">
<path d="M12 12.4375C12.9508 12.4375 13.7908 12.665 14.4733 12.9625C15.1033 13.2425 15.5 13.8725 15.5 14.555V14.9167C15.5 15.2375 15.2375 15.5 14.9167 15.5H9.08333C8.7625 15.5 8.5 15.2375 8.5 14.9167V14.5608C8.5 13.8725 8.89667 13.2425 9.52667 12.9683C10.2092 12.665 11.0492 12.4375 12 12.4375ZM7.33333 12.5833C7.975 12.5833 8.5 12.0583 8.5 11.4167C8.5 10.775 7.975 10.25 7.33333 10.25C6.69167 10.25 6.16667 10.775 6.16667 11.4167C6.16667 12.0583 6.69167 12.5833 7.33333 12.5833ZM7.9925 13.225C7.77667 13.19 7.56083 13.1667 7.33333 13.1667C6.75583 13.1667 6.2075 13.2892 5.71167 13.505C5.28 13.6917 5 14.1117 5 14.5842V14.9167C5 15.2375 5.2625 15.5 5.58333 15.5H7.625V14.5608C7.625 14.0767 7.75917 13.6217 7.9925 13.225ZM16.6667 12.5833C17.3083 12.5833 17.8333 12.0583 17.8333 11.4167C17.8333 10.775 17.3083 10.25 16.6667 10.25C16.025 10.25 15.5 10.775 15.5 11.4167C15.5 12.0583 16.025 12.5833 16.6667 12.5833ZM19 14.5842C19 14.1117 18.72 13.6917 18.2883 13.505C17.7925 13.2892 17.2442 13.1667 16.6667 13.1667C16.4392 13.1667 16.2233 13.19 16.0075 13.225C16.2408 13.6217 16.375 14.0767 16.375 14.5608V15.5H18.4167C18.7375 15.5 19 15.2375 19 14.9167V14.5842ZM12 8.5C12.9683 8.5 13.75 9.28167 13.75 10.25C13.75 11.2183 12.9683 12 12 12C11.0317 12 10.25 11.2183 10.25 10.25C10.25 9.28167 11.0317 8.5 12 8.5Z" fill="#F4F5F7"/>
</g>
<g filter="url(#filter2_d_259_936)">
<rect x="12.1992" y="19.8" width="5.2" height="1.2" rx="0.6" fill="#F4F5F7"/>
</g>
<defs>
<filter id="filter0_d_259_936" x="3" y="3" width="18.8" height="18.8" filterUnits="userSpaceOnUse" color-interpolation-filters="sRGB">
<feFlood flood-opacity="0" result="BackgroundImageFix"/>
<feColorMatrix in="SourceAlpha" type="matrix" values="0 0 0 0 0 0 0 0 0 0 0 0 0 0 0 0 0 0 127 0" result="hardAlpha"/>
<feOffset dx="0.4" dy="0.4"/>
<feGaussianBlur stdDeviation="0.2"/>
<feComposite in2="hardAlpha" operator="out"/>
<feColorMatrix type="matrix" values="0 0 0 0 0 0 0 0 0 0 0 0 0 0 0 0 0 0 0.25 0"/>
<feBlend mode="normal" in2="BackgroundImageFix" result="effect1_dropShadow_259_936"/>
<feBlend mode="normal" in="SourceGraphic" in2="effect1_dropShadow_259_936" result="shape"/>
</filter>
<filter id="filter1_d_259_936" x="5" y="8.5" width="14.8" height="7.8" filterUnits="userSpaceOnUse" color-interpolation-filters="sRGB">
<feFlood flood-opacity="0" result="BackgroundImageFix"/>
<feColorMatrix in="SourceAlpha" type="matrix" values="0 0 0 0 0 0 0 0 0 0 0 0 0 0 0 0 0 0 127 0" result="hardAlpha"/>
<feOffset dx="0.4" dy="0.4"/>
<feGaussianBlur stdDeviation="0.2"/>
<feComposite in2="hardAlpha" operator="out"/>
<feColorMatrix type="matrix" values="0 0 0 0 0 0 0 0 0 0 0 0 0 0 0 0 0 0 0.25 0"/>
<feBlend mode="normal" in2="BackgroundImageFix" result="effect1_dropShadow_259_936"/>
<feBlend mode="normal" in="SourceGraphic" in2="effect1_dropShadow_259_936" result="shape"/>
</filter>
<filter id="filter2_d_259_936" x="12.1992" y="19.8" width="5.99922" height="1.99995" filterUnits="userSpaceOnUse" color-interpolation-filters="sRGB">
<feFlood flood-opacity="0" result="BackgroundImageFix"/>
<feColorMatrix in="SourceAlpha" type="matrix" values="0 0 0 0 0 0 0 0 0 0 0 0 0 0 0 0 0 0 127 0" result="hardAlpha"/>
<feOffset dx="0.4" dy="0.4"/>
<feGaussianBlur stdDeviation="0.2"/>
<feComposite in2="hardAlpha" operator="out"/>
<feColorMatrix type="matrix" values="0 0 0 0 0 0 0 0 0 0 0 0 0 0 0 0 0 0 0.25 0"/>
<feBlend mode="normal" in2="BackgroundImageFix" result="effect1_dropShadow_259_936"/>
<feBlend mode="normal" in="SourceGraphic" in2="effect1_dropShadow_259_936" result="shape"/>
</filter>
</defs>
</svg>
