<svg width="24" height="24" viewBox="0 0 24 24" fill="none" xmlns="http://www.w3.org/2000/svg">
<rect width="24" height="24" rx="6" fill="#32363B"/>
<g filter="url(#filter0_d_279_670)">
<path d="M9.82727 13.4581C7.4409 10.3009 4.99089 12.7 5.63044 14.9066C6.72897 17.3208 9.18056 19 11.9973 19C14.495 19 16.6547 17.6979 17.8813 15.8023C16.0358 17.5292 12.6861 17.2405 9.82727 13.4581Z" fill="#4F5F9F"/>
</g>
<g filter="url(#filter1_d_279_670)">
<path d="M11.961 11.2841C8.67899 6.30616 5 8.959 5 12.0016C5 13.0453 5.2275 14.03 5.63557 14.9194C5.19966 12.8583 7.56773 11.269 9.77274 14.2273C12.9744 18.5228 16.1165 17.7671 17.8745 15.8127C18.3493 15.1047 18.8123 14.0189 18.942 12.9395L18.9395 12.953C18.1871 15.2932 14.8557 15.6742 11.961 11.2841Z" fill="#3F79AD"/>
</g>
<g filter="url(#filter2_d_279_670)">
<path d="M14.2106 9.05677C11.7733 5.03574 8.68296 5.39767 6.5933 7.55257C5.59977 8.76086 5 10.3096 5 12C5.21875 9.05359 8.77842 7.00847 12 12C14.8676 16.4426 18.4313 15.2852 18.9388 12.9641L18.942 12.9418C18.9929 12.6228 18.9984 12.3181 18.9984 11.9904C18.9984 11.8846 19.0024 11.7796 18.9977 11.6754C17.7552 12.5568 16.1245 12.2139 14.2106 9.05677Z" fill="#5F97C9"/>
</g>
<g filter="url(#filter3_d_279_670)">
<path d="M14.2282 9.77267C16.4602 13.361 18.3844 12.443 18.9985 11.6754C18.9747 11.1281 18.8856 10.5984 18.7424 10.0916C17.7019 10.1131 17.4593 9.93972 16.4395 8.38062C14.8709 5.98232 12.8998 4.36516 9.45862 5.47641C8.33226 5.9163 7.34748 6.63857 6.5918 7.55573C8.95828 5.37778 11.8617 5.9688 14.2282 9.77267Z" fill="#63A8C2"/>
</g>
<g filter="url(#filter4_d_279_670)">
<path d="M16.2817 8.68853C17.3015 10.2476 17.9227 10.3304 18.7412 10.0917C17.9084 7.14932 15.2086 5 11.9974 5C11.1009 5 10.2426 5.17102 9.45508 5.47727C12.5311 4.50682 14.713 6.29023 16.2817 8.68853Z" fill="#F4F5F7"/>
</g>
<defs>
<filter id="filter0_d_279_670" x="5.52734" y="11.9384" width="13.1535" height="7.86165" filterUnits="userSpaceOnUse" color-interpolation-filters="sRGB">
<feFlood flood-opacity="0" result="BackgroundImageFix"/>
<feColorMatrix in="SourceAlpha" type="matrix" values="0 0 0 0 0 0 0 0 0 0 0 0 0 0 0 0 0 0 127 0" result="hardAlpha"/>
<feOffset dx="0.4" dy="0.4"/>
<feGaussianBlur stdDeviation="0.2"/>
<feComposite in2="hardAlpha" operator="out"/>
<feColorMatrix type="matrix" values="0 0 0 0 0 0 0 0 0 0 0 0 0 0 0 0 0 0 0.25 0"/>
<feBlend mode="normal" in2="BackgroundImageFix" result="effect1_dropShadow_279_670"/>
<feBlend mode="normal" in="SourceGraphic" in2="effect1_dropShadow_279_670" result="shape"/>
</filter>
<filter id="filter1_d_279_670" x="5" y="8.50977" width="14.7414" height="9.66438" filterUnits="userSpaceOnUse" color-interpolation-filters="sRGB">
<feFlood flood-opacity="0" result="BackgroundImageFix"/>
<feColorMatrix in="SourceAlpha" type="matrix" values="0 0 0 0 0 0 0 0 0 0 0 0 0 0 0 0 0 0 127 0" result="hardAlpha"/>
<feOffset dx="0.4" dy="0.4"/>
<feGaussianBlur stdDeviation="0.2"/>
<feComposite in2="hardAlpha" operator="out"/>
<feColorMatrix type="matrix" values="0 0 0 0 0 0 0 0 0 0 0 0 0 0 0 0 0 0 0.25 0"/>
<feBlend mode="normal" in2="BackgroundImageFix" result="effect1_dropShadow_279_670"/>
<feBlend mode="normal" in="SourceGraphic" in2="effect1_dropShadow_279_670" result="shape"/>
</filter>
<filter id="filter2_d_279_670" x="5" y="5.96863" width="14.8" height="9.85029" filterUnits="userSpaceOnUse" color-interpolation-filters="sRGB">
<feFlood flood-opacity="0" result="BackgroundImageFix"/>
<feColorMatrix in="SourceAlpha" type="matrix" values="0 0 0 0 0 0 0 0 0 0 0 0 0 0 0 0 0 0 127 0" result="hardAlpha"/>
<feOffset dx="0.4" dy="0.4"/>
<feGaussianBlur stdDeviation="0.2"/>
<feComposite in2="hardAlpha" operator="out"/>
<feColorMatrix type="matrix" values="0 0 0 0 0 0 0 0 0 0 0 0 0 0 0 0 0 0 0.25 0"/>
<feBlend mode="normal" in2="BackgroundImageFix" result="effect1_dropShadow_279_670"/>
<feBlend mode="normal" in="SourceGraphic" in2="effect1_dropShadow_279_670" result="shape"/>
</filter>
<filter id="filter3_d_279_670" x="6.5918" y="5.11841" width="13.2063" height="8.06086" filterUnits="userSpaceOnUse" color-interpolation-filters="sRGB">
<feFlood flood-opacity="0" result="BackgroundImageFix"/>
<feColorMatrix in="SourceAlpha" type="matrix" values="0 0 0 0 0 0 0 0 0 0 0 0 0 0 0 0 0 0 127 0" result="hardAlpha"/>
<feOffset dx="0.4" dy="0.4"/>
<feGaussianBlur stdDeviation="0.2"/>
<feComposite in2="hardAlpha" operator="out"/>
<feColorMatrix type="matrix" values="0 0 0 0 0 0 0 0 0 0 0 0 0 0 0 0 0 0 0.25 0"/>
<feBlend mode="normal" in2="BackgroundImageFix" result="effect1_dropShadow_279_670"/>
<feBlend mode="normal" in="SourceGraphic" in2="effect1_dropShadow_279_670" result="shape"/>
</filter>
<filter id="filter4_d_279_670" x="9.45508" y="5" width="10.0871" height="5.99238" filterUnits="userSpaceOnUse" color-interpolation-filters="sRGB">
<feFlood flood-opacity="0" result="BackgroundImageFix"/>
<feColorMatrix in="SourceAlpha" type="matrix" values="0 0 0 0 0 0 0 0 0 0 0 0 0 0 0 0 0 0 127 0" result="hardAlpha"/>
<feOffset dx="0.4" dy="0.4"/>
<feGaussianBlur stdDeviation="0.2"/>
<feComposite in2="hardAlpha" operator="out"/>
<feColorMatrix type="matrix" values="0 0 0 0 0 0 0 0 0 0 0 0 0 0 0 0 0 0 0.25 0"/>
<feBlend mode="normal" in2="BackgroundImageFix" result="effect1_dropShadow_279_670"/>
<feBlend mode="normal" in="SourceGraphic" in2="effect1_dropShadow_279_670" result="shape"/>
</filter>
</defs>
</svg>
