<svg width="24" height="24" viewBox="0 0 24 24" fill="none" xmlns="http://www.w3.org/2000/svg">
<rect width="24" height="24" rx="6" fill="#32363B"/>
<g filter="url(#filter0_d_180_100)">
<path d="M17.6504 17.6667C17.6504 17.6954 17.6493 17.724 17.6475 17.7523C17.6443 17.8028 17.6384 17.8526 17.6297 17.9015C17.6269 17.9174 17.6237 17.9331 17.6203 17.9488C17.6167 17.9653 17.613 17.9817 17.6088 17.998C17.6077 18.0023 17.6065 18.0067 17.6053 18.0111C17.5981 18.038 17.5902 18.0646 17.5814 18.0908C17.5659 18.1368 17.5481 18.1817 17.5279 18.2253C17.5212 18.2399 17.5142 18.2544 17.5069 18.2687C17.4128 18.4543 17.2766 18.6149 17.1108 18.738C17.0957 18.7491 17.0804 18.76 17.0649 18.7706C17.0455 18.7837 17.0258 18.7965 17.0057 18.8086C16.9907 18.8176 16.9755 18.8263 16.9601 18.8348C16.9285 18.8523 16.896 18.8686 16.8629 18.8835C16.8471 18.8906 16.8311 18.8973 16.815 18.9038C16.7816 18.9173 16.7476 18.9294 16.7129 18.9402C16.6735 18.9524 16.6334 18.9628 16.5925 18.9714C16.5898 18.9719 16.587 18.9726 16.5842 18.9731C16.5648 18.9771 16.5453 18.9806 16.5256 18.9836C16.5235 18.984 16.5215 18.9844 16.5194 18.9847C16.478 18.991 16.436 18.9953 16.3935 18.9977C16.3795 18.9985 16.3655 18.9992 16.3515 18.9996L16.3171 19H8.56706C7.37044 19 6.40039 18.0299 6.40039 16.8333V16.5C6.40039 16.4154 6.40537 16.332 6.41479 16.25C6.41855 16.2173 6.42302 16.1848 6.42822 16.1525C6.42864 16.1499 6.4291 16.1473 6.42952 16.1447C6.45632 15.9823 6.50116 15.826 6.56193 15.6779C6.56295 15.6754 6.56391 15.6729 6.56494 15.6704C6.57649 15.6426 6.58866 15.615 6.60132 15.5878C6.61677 15.5546 6.63301 15.5218 6.65007 15.4895C6.66381 15.4635 6.67803 15.4377 6.69279 15.4124C6.69429 15.4098 6.69583 15.4072 6.69735 15.4046C6.74319 15.3265 6.79385 15.2516 6.8488 15.1802C6.96335 15.0313 7.0968 14.8977 7.24561 14.783C7.26195 14.7704 7.27846 14.758 7.29517 14.7458C7.30051 14.742 7.30582 14.738 7.3112 14.7342C7.35988 14.6995 7.41011 14.6669 7.46167 14.6362C7.7853 14.4439 8.16326 14.3333 8.56706 14.3333H16.3171L16.3515 14.3329C17.072 14.3147 17.6504 13.7249 17.6504 13V17.6667Z" fill="#3F79AD"/>
</g>
<g filter="url(#filter1_d_180_100)">
<path d="M17.6504 13C17.6504 13.7249 17.072 14.3147 16.3515 14.333L16.3171 14.3334H8.56706C7.455 14.3334 6.53875 15.1712 6.41479 16.25H6.40039V11.8334C6.40039 11.7488 6.40537 11.6654 6.41479 11.5834C6.41855 11.5506 6.42302 11.5181 6.42822 11.4859C6.42864 11.4833 6.4291 11.4807 6.42952 11.4781C6.45632 11.3157 6.50116 11.1594 6.56193 11.0113C6.56295 11.0088 6.56391 11.0063 6.56494 11.0038C6.57649 10.9759 6.58866 10.9484 6.60132 10.9212C6.61677 10.888 6.63301 10.8552 6.65007 10.8229C6.66381 10.7968 6.67803 10.7711 6.69279 10.7457C6.69429 10.7431 6.69583 10.7406 6.69735 10.738C6.74319 10.6599 6.79385 10.585 6.8488 10.5135C6.96335 10.3646 7.0968 10.231 7.24561 10.1163C7.26195 10.1037 7.27846 10.0914 7.29517 10.0792C7.30051 10.0753 7.30582 10.0714 7.3112 10.0676C7.35988 10.0329 7.41011 10.0003 7.46167 9.9696C7.7853 9.77725 8.16326 9.66671 8.56706 9.66671H16.3171L16.3515 9.6663C17.072 9.64804 17.6504 9.05824 17.6504 8.33337V13Z" fill="#5F97C9"/>
</g>
<g filter="url(#filter2_d_180_100)">
<path d="M16.3171 5C17.0534 5 17.6504 5.59695 17.6504 6.33333V8.33333C17.6504 9.0582 17.072 9.648 16.3515 9.66626L16.3171 9.66667H8.56706C7.455 9.66667 6.53875 10.5045 6.41479 11.5833H6.40039V7.16667C6.40039 5.97005 7.37044 5 8.56706 5H16.3171Z" fill="#63A8C2"/>
</g>
<defs>
<filter id="filter0_d_180_100" x="6.40039" y="13" width="12.05" height="6.8" filterUnits="userSpaceOnUse" color-interpolation-filters="sRGB">
<feFlood flood-opacity="0" result="BackgroundImageFix"/>
<feColorMatrix in="SourceAlpha" type="matrix" values="0 0 0 0 0 0 0 0 0 0 0 0 0 0 0 0 0 0 127 0" result="hardAlpha"/>
<feOffset dx="0.4" dy="0.4"/>
<feGaussianBlur stdDeviation="0.2"/>
<feComposite in2="hardAlpha" operator="out"/>
<feColorMatrix type="matrix" values="0 0 0 0 0 0 0 0 0 0 0 0 0 0 0 0 0 0 0.25 0"/>
<feBlend mode="normal" in2="BackgroundImageFix" result="effect1_dropShadow_180_100"/>
<feBlend mode="normal" in="SourceGraphic" in2="effect1_dropShadow_180_100" result="shape"/>
</filter>
<filter id="filter1_d_180_100" x="6.40039" y="8.33337" width="12.05" height="8.71663" filterUnits="userSpaceOnUse" color-interpolation-filters="sRGB">
<feFlood flood-opacity="0" result="BackgroundImageFix"/>
<feColorMatrix in="SourceAlpha" type="matrix" values="0 0 0 0 0 0 0 0 0 0 0 0 0 0 0 0 0 0 127 0" result="hardAlpha"/>
<feOffset dx="0.4" dy="0.4"/>
<feGaussianBlur stdDeviation="0.2"/>
<feComposite in2="hardAlpha" operator="out"/>
<feColorMatrix type="matrix" values="0 0 0 0 0 0 0 0 0 0 0 0 0 0 0 0 0 0 0.25 0"/>
<feBlend mode="normal" in2="BackgroundImageFix" result="effect1_dropShadow_180_100"/>
<feBlend mode="normal" in="SourceGraphic" in2="effect1_dropShadow_180_100" result="shape"/>
</filter>
<filter id="filter2_d_180_100" x="6.40039" y="5" width="12.05" height="7.38337" filterUnits="userSpaceOnUse" color-interpolation-filters="sRGB">
<feFlood flood-opacity="0" result="BackgroundImageFix"/>
<feColorMatrix in="SourceAlpha" type="matrix" values="0 0 0 0 0 0 0 0 0 0 0 0 0 0 0 0 0 0 127 0" result="hardAlpha"/>
<feOffset dx="0.4" dy="0.4"/>
<feGaussianBlur stdDeviation="0.2"/>
<feComposite in2="hardAlpha" operator="out"/>
<feColorMatrix type="matrix" values="0 0 0 0 0 0 0 0 0 0 0 0 0 0 0 0 0 0 0.25 0"/>
<feBlend mode="normal" in2="BackgroundImageFix" result="effect1_dropShadow_180_100"/>
<feBlend mode="normal" in="SourceGraphic" in2="effect1_dropShadow_180_100" result="shape"/>
</filter>
</defs>
</svg>
