<svg width="24" height="24" viewBox="0 0 24 24" fill="none" xmlns="http://www.w3.org/2000/svg">
<g clip-path="url(#clip0_291_3230)">
<rect width="24" height="24" rx="6" fill="#3F79AD"/>
<path d="M6.84473 16.656L16.4431 17.4851L19.3678 19.8391L22.2925 22.1931C21.7497 23.4243 20.2808 24.4275 18.001 24.3H6.00098C3.8647 24.5345 2.24311 23.4712 1.51562 21.9852L3.20098 18.3L6.84473 16.656Z" fill="#4F9B7A"/>
<path d="M6.4346 8.57104C6.37551 8.67245 6.31886 8.77538 6.26487 8.87983C5.78018 9.81983 5.49925 10.88 5.49925 12C5.49925 13.16 5.80035 14.2499 6.31566 15.2099C6.5961 15.734 6.44245 16.2195 6.843 16.656L1.5139 21.9852C0.564319 21.3185 -0.306693 19.8492 -0.300752 18V5.99995C-0.300752 5.4493 0.0734256 4.91598 0.212334 4.40942C3.45823 4.53807 5.23127 5.43655 6.4346 8.57104Z" fill="#B8A64F"/>
<path d="M17.9998 -0.199959C19.6686 -0.403718 21.0959 0.269128 21.9065 1.44623L16.8363 6.87006C16.1642 7.64248 6.44002 7.284 5.93516 8.57113L0.212891 4.40951C0.472495 1.8567 2.88712 -0.208813 5.9998 -0.199959H17.9998Z" fill="#B04F58"/>
<g filter="url(#filter0_d_291_3230)">
<path d="M18.9316 10.9766L18.9258 11.0166C18.9702 11.3383 19 11.664 19 12C19 14.065 18.1424 15.93 16.7598 17.21L16.7028 17.2619C15.5004 18.3459 13.9163 19 12.1484 19C9.43925 19 7.02049 17.46 5.81641 15.21C5.3011 14.25 5 13.16 5 12C5 10.88 5.28093 9.81988 5.76563 8.87988C6.9544 6.57988 9.40354 5 12.1484 5C13.9852 5 15.6275 5.715 16.8418 6.875L14.75 9.10156C14.0081 8.39595 13.0239 8.0017 12 8C11.1911 8.00088 10.4014 8.24698 9.73525 8.70586C9.06908 9.16474 8.55768 9.81482 8.26855 10.5703C8.0924 11.0265 8.00138 11.511 8 12C8.00022 12.5039 8.09564 13.0032 8.28125 13.4717C8.57661 14.2164 9.09082 14.8583 9.75352 15.3086C10.4162 15.7588 11.1988 15.9997 12 16C12.8096 15.9984 13.5996 15.7512 14.2656 15.291L14.2665 15.2916C14.9103 14.8479 15.4104 14.2252 15.7041 13.5H12V10.5H18.8496L18.9316 10.9766Z" fill="#F4F5F7"/>
</g>
</g>
<defs>
<filter id="filter0_d_291_3230" x="5" y="5" width="14.8" height="14.8" filterUnits="userSpaceOnUse" color-interpolation-filters="sRGB">
<feFlood flood-opacity="0" result="BackgroundImageFix"/>
<feColorMatrix in="SourceAlpha" type="matrix" values="0 0 0 0 0 0 0 0 0 0 0 0 0 0 0 0 0 0 127 0" result="hardAlpha"/>
<feOffset dx="0.4" dy="0.4"/>
<feGaussianBlur stdDeviation="0.2"/>
<feComposite in2="hardAlpha" operator="out"/>
<feColorMatrix type="matrix" values="0 0 0 0 0 0 0 0 0 0 0 0 0 0 0 0 0 0 0.25 0"/>
<feBlend mode="normal" in2="BackgroundImageFix" result="effect1_dropShadow_291_3230"/>
<feBlend mode="normal" in="SourceGraphic" in2="effect1_dropShadow_291_3230" result="shape"/>
</filter>
<clipPath id="clip0_291_3230">
<rect width="24" height="24" rx="6" fill="white"/>
</clipPath>
</defs>
</svg>
