<svg width="24" height="24" viewBox="0 0 24 24" fill="none" xmlns="http://www.w3.org/2000/svg">
<rect width="24" height="24" rx="6" fill="#32363B"/>
<g filter="url(#filter0_d_214_840)">
<path d="M10.6844 17.5898C8.03984 17.5396 6.96645 17.4952 6.31008 17.409C5.82874 17.3457 5.59236 17.2841 5.32576 17.1523C4.88543 16.9346 4.61158 16.631 4.41395 16.1415C4.23326 15.694 4.15969 15.3385 4.09217 14.5868C4.01598 13.7385 4.01002 13.585 4.00211 12.2633C3.99279 10.709 4.01155 10.1997 4.11593 9.16799C4.17066 8.62714 4.25044 8.2677 4.40034 7.88654C4.53686 7.53942 4.66149 7.34785 4.88816 7.13674C5.17304 6.87142 5.48591 6.71012 5.88088 6.62498C6.47041 6.49789 9.13502 6.3999 12.0014 6.3999C14.8677 6.3999 17.5323 6.49789 18.1219 6.62498C18.5482 6.71689 18.8611 6.88666 19.1664 7.1917C19.4054 7.43045 19.5285 7.64739 19.6749 8.08803C19.8258 8.54207 19.8837 8.94389 19.9695 10.133C20.0102 10.6976 20.0102 13.297 19.9695 13.8614C19.9218 14.5217 19.8634 15.1096 19.8244 15.32C19.7243 15.8609 19.5278 16.3674 19.3061 16.6553C19.1541 16.8528 18.8539 17.0882 18.6029 17.2067C18.3487 17.3268 18.1066 17.3863 17.7162 17.4246C16.5065 17.5435 12.8125 17.6303 10.6844 17.5898Z" fill="#B04F58"/>
</g>
<g filter="url(#filter1_d_214_840)">
<path d="M13.7133 11.4067C13.9345 11.5173 13.9345 11.8328 13.7133 11.9434L10.9342 13.333C10.7347 13.4327 10.5 13.2877 10.5 13.0646V10.2855C10.5 10.0624 10.7347 9.9174 10.9342 10.0171L13.7133 11.4067Z" fill="#F4F5F7"/>
</g>
<defs>
<filter id="filter0_d_214_840" x="4" y="6.3999" width="16.8" height="12" filterUnits="userSpaceOnUse" color-interpolation-filters="sRGB">
<feFlood flood-opacity="0" result="BackgroundImageFix"/>
<feColorMatrix in="SourceAlpha" type="matrix" values="0 0 0 0 0 0 0 0 0 0 0 0 0 0 0 0 0 0 127 0" result="hardAlpha"/>
<feOffset dx="0.4" dy="0.4"/>
<feGaussianBlur stdDeviation="0.2"/>
<feComposite in2="hardAlpha" operator="out"/>
<feColorMatrix type="matrix" values="0 0 0 0 0 0 0 0 0 0 0 0 0 0 0 0 0 0 0.25 0"/>
<feBlend mode="normal" in2="BackgroundImageFix" result="effect1_dropShadow_214_840"/>
<feBlend mode="normal" in="SourceGraphic" in2="effect1_dropShadow_214_840" result="shape"/>
</filter>
<filter id="filter1_d_214_840" x="10.5" y="9.98511" width="4.17891" height="4.17988" filterUnits="userSpaceOnUse" color-interpolation-filters="sRGB">
<feFlood flood-opacity="0" result="BackgroundImageFix"/>
<feColorMatrix in="SourceAlpha" type="matrix" values="0 0 0 0 0 0 0 0 0 0 0 0 0 0 0 0 0 0 127 0" result="hardAlpha"/>
<feOffset dx="0.4" dy="0.4"/>
<feGaussianBlur stdDeviation="0.2"/>
<feComposite in2="hardAlpha" operator="out"/>
<feColorMatrix type="matrix" values="0 0 0 0 0 0 0 0 0 0 0 0 0 0 0 0 0 0 0.25 0"/>
<feBlend mode="normal" in2="BackgroundImageFix" result="effect1_dropShadow_214_840"/>
<feBlend mode="normal" in="SourceGraphic" in2="effect1_dropShadow_214_840" result="shape"/>
</filter>
</defs>
</svg>
