<svg width="24" height="24" viewBox="0 0 24 24" fill="none" xmlns="http://www.w3.org/2000/svg">
<rect width="24" height="24" rx="6" fill="#32363B"/>
<g filter="url(#filter0_d_259_942)">
<path d="M13.3281 12.9671L18.1857 17.8247V7.91113L13.3281 12.7687V12.9671Z" fill="#B8A64F"/>
<path d="M13.328 12.7752L7.35682 6.80396H6.67202C6.13442 6.80396 5.69922 7.21356 5.69922 7.75116V11.1816C5.69922 11.5272 5.98082 11.8088 6.32642 11.8088C6.48002 11.8088 6.62082 11.7512 6.72322 11.6616L6.82562 11.5784C7.12002 11.3224 7.50402 11.1688 7.92642 11.1688C8.84802 11.1688 9.59682 11.924 9.59682 12.8456C9.59682 13.7672 8.84802 14.5096 7.92642 14.5096C7.50402 14.5096 7.12002 14.356 6.82562 14.1L6.72322 14.0168C6.60802 13.9208 6.46722 13.8696 6.32642 13.8696C5.98082 13.8696 5.69922 14.1512 5.69922 14.4968V17.8888C5.69922 18.4264 6.13442 18.8936 6.67202 18.8936H7.40162L13.3344 12.9608V12.7752H13.328Z" fill="#3F79AD"/>
<path d="M18.1865 8.0135V7.7511C18.1865 7.2135 17.7513 6.8039 17.2137 6.8039H13.6041C13.2585 6.8039 12.9769 6.5351 12.9769 6.1895C12.9769 6.0359 13.0345 5.8887 13.1241 5.7799L13.2073 5.6775C13.4633 5.3831 13.6169 4.9991 13.6169 4.5767C13.6169 3.6487 12.8681 2.8999 11.9465 2.8999C11.0249 2.8999 10.2697 3.6487 10.2697 4.5703C10.2697 4.9927 10.4233 5.3767 10.6793 5.6711L10.7625 5.7735C10.8521 5.8823 10.9097 6.0295 10.9097 6.1767C10.9097 6.5223 10.6281 6.7911 10.2825 6.7911H7.26172L13.3289 12.8583L18.1865 8.0135Z" fill="#4F9B7A"/>
<path d="M7.30078 18.8999H17.2208C17.7584 18.8999 18.1936 18.4327 18.1936 17.8951V17.7287L13.336 12.8711L7.30078 18.8999Z" fill="#B04F58"/>
</g>
<defs>
<filter id="filter0_d_259_942" x="5.69922" y="2.8999" width="13.2961" height="16.8" filterUnits="userSpaceOnUse" color-interpolation-filters="sRGB">
<feFlood flood-opacity="0" result="BackgroundImageFix"/>
<feColorMatrix in="SourceAlpha" type="matrix" values="0 0 0 0 0 0 0 0 0 0 0 0 0 0 0 0 0 0 127 0" result="hardAlpha"/>
<feOffset dx="0.4" dy="0.4"/>
<feGaussianBlur stdDeviation="0.2"/>
<feComposite in2="hardAlpha" operator="out"/>
<feColorMatrix type="matrix" values="0 0 0 0 0 0 0 0 0 0 0 0 0 0 0 0 0 0 0.25 0"/>
<feBlend mode="normal" in2="BackgroundImageFix" result="effect1_dropShadow_259_942"/>
<feBlend mode="normal" in="SourceGraphic" in2="effect1_dropShadow_259_942" result="shape"/>
</filter>
</defs>
</svg>
