<svg width="24" height="24" viewBox="0 0 24 24" fill="none" xmlns="http://www.w3.org/2000/svg">
<rect width="24" height="24" rx="6" fill="#32363B"/>
<g filter="url(#filter0_d_227_351)">
<path d="M9.79297 15.3737C10.198 15.8898 10.5666 16.4335 10.8961 17.0007C11.1775 17.5343 11.2948 17.8961 11.5004 18.5389C11.6265 18.894 11.7405 19 11.9855 19C12.2526 19 12.3737 18.8197 12.4673 18.5408C12.6617 17.9338 12.8142 17.4704 13.0548 17.0327C13.527 16.1875 14.1137 15.4364 14.6902 14.7146C14.8463 14.5103 15.8553 13.3201 16.3095 12.3811C16.3095 12.3811 16.8679 11.3495 16.8679 9.90878C16.8679 8.56114 16.3172 7.62646 16.3172 7.62646L14.732 8.05099L13.7693 10.5866L13.5311 10.9362L13.4835 10.9996L13.4202 11.0788L13.3089 11.2055L13.1501 11.3643L12.2928 12.0628L10.1495 13.3003L9.79297 15.3737Z" fill="#4F9B7A"/>
<path d="M7.58203 12.2076C8.10512 13.4024 9.11385 14.4527 9.79634 15.3745L13.4213 11.0805C13.4213 11.0805 12.9106 11.7484 11.9842 11.7484C10.9524 11.7484 10.1187 10.9244 10.1187 9.88535C10.1187 9.17285 10.5474 8.68335 10.5474 8.68335L8.08667 9.34272L7.58203 12.2076Z" fill="#B8A64F"/>
<path d="M13.4599 5.2207C14.6639 5.60889 15.6943 6.4238 16.3176 7.62553L13.4206 11.0779C13.4206 11.0779 13.8492 10.5796 13.8492 9.8715C13.8492 8.80826 12.9539 8.01399 11.9867 8.01399C11.0722 8.01399 10.5469 8.68079 10.5469 8.68079V6.50585L13.4599 5.2207Z" fill="#5F97C9"/>
<path d="M8.24609 6.74629C8.9652 5.88595 10.2305 5 11.9749 5C12.8212 5 13.4588 5.22217 13.4588 5.22217L10.546 8.68281H8.48231L8.24609 6.74629Z" fill="#3F79AD"/>
<path d="M7.5828 12.2076C7.5828 12.2076 7.10156 11.2653 7.10156 9.90001C7.10156 8.60963 7.60318 7.48169 8.24685 6.74634L10.5484 8.68314L7.5828 12.2076Z" fill="#B04F58"/>
</g>
<defs>
<filter id="filter0_d_227_351" x="7.10156" y="5" width="10.5656" height="14.8" filterUnits="userSpaceOnUse" color-interpolation-filters="sRGB">
<feFlood flood-opacity="0" result="BackgroundImageFix"/>
<feColorMatrix in="SourceAlpha" type="matrix" values="0 0 0 0 0 0 0 0 0 0 0 0 0 0 0 0 0 0 127 0" result="hardAlpha"/>
<feOffset dx="0.4" dy="0.4"/>
<feGaussianBlur stdDeviation="0.2"/>
<feComposite in2="hardAlpha" operator="out"/>
<feColorMatrix type="matrix" values="0 0 0 0 0 0 0 0 0 0 0 0 0 0 0 0 0 0 0.25 0"/>
<feBlend mode="normal" in2="BackgroundImageFix" result="effect1_dropShadow_227_351"/>
<feBlend mode="normal" in="SourceGraphic" in2="effect1_dropShadow_227_351" result="shape"/>
</filter>
</defs>
</svg>
