<svg width="24" height="24" viewBox="0 0 24 24" fill="none" xmlns="http://www.w3.org/2000/svg">
<rect width="24" height="24" rx="6" fill="#D1C06A"/>
<g filter="url(#filter0_d_279_819)">
<path d="M12.0882 18.5509C12.0485 18.5509 12.0106 18.5494 11.9818 18.5481C11.959 18.55 11.9354 18.5509 11.9118 18.5509C11.0782 18.5509 10.5208 18.1596 10.029 17.814C9.67642 17.5668 9.34395 17.3333 8.95444 17.269C8.76314 17.2375 8.57285 17.2215 8.38898 17.2215C8.05769 17.2215 7.79588 17.2725 7.60473 17.3096C7.48711 17.3324 7.38568 17.352 7.30729 17.352C7.22518 17.352 7.12542 17.3339 7.08385 17.1929C7.0509 17.0818 7.02727 16.974 7.00446 16.8703C6.94739 16.6111 6.906 16.4529 6.80825 16.4378C5.76275 16.2777 5.14501 16.0417 5.02196 15.756C5.00907 15.7259 5.00186 15.6957 5.00027 15.6658C4.99547 15.5806 5.05603 15.5059 5.14059 15.492C5.97088 15.3563 6.70913 14.9561 7.33496 14.232C7.81977 13.6715 8.05784 13.1359 8.0834 13.0768C8.08447 13.0741 8.08582 13.0713 8.08715 13.0688C8.20778 12.8257 8.23179 12.6157 8.15871 12.4447C8.02399 12.1293 7.566 11.9887 7.27083 11.8957C7.19741 11.8727 7.12797 11.8508 7.07265 11.829C6.81099 11.7264 6.38065 11.5096 6.43798 11.2103C6.47974 10.992 6.77046 10.84 7.00541 10.84C7.07065 10.84 7.12846 10.8514 7.17713 10.8741C7.44262 10.9976 7.66962 11.0602 7.87504 11.0602C8.1305 11.0602 8.25388 10.9636 8.28371 10.9362C8.27635 10.8009 8.26736 10.6578 8.25867 10.5225C8.25867 10.5224 8.25843 10.5207 8.25843 10.5207C8.19847 9.57354 8.12368 8.35924 8.42733 7.6833C9.33615 5.65996 11.2872 5.50262 11.8561 5.50262C11.8712 5.50262 12.104 5.50033 12.104 5.50033C12.1145 5.50014 12.1259 5.5 12.1378 5.5C12.7082 5.5 14.6633 5.65752 15.5727 7.68208C15.8764 8.35847 15.8015 9.5856 15.7414 10.5338L15.7385 10.5791C15.7303 10.7079 15.7227 10.8297 15.7162 10.9479C15.7443 10.9735 15.8572 11.0621 16.0869 11.071C16.2828 11.0636 16.4959 11.0013 16.7438 10.8861C16.8204 10.8504 16.9052 10.8429 16.9628 10.8429C17.0498 10.8429 17.1384 10.8598 17.2122 10.8903L17.2161 10.8919C17.4264 10.966 17.5641 11.1141 17.5671 11.2697C17.5698 11.4148 17.4612 11.6316 16.9272 11.8409C16.8725 11.8625 16.8028 11.8844 16.7291 11.9076C16.4336 12.0008 15.9759 12.1412 15.8412 12.4565C15.768 12.6275 15.7921 12.8374 15.9128 13.0804C15.9141 13.0831 15.9153 13.0858 15.9166 13.0886C15.9537 13.175 16.853 15.1636 18.8594 15.4919C18.9439 15.5058 19.0046 15.5806 18.9997 15.6656C18.998 15.6962 18.9905 15.7267 18.9775 15.7566C18.8553 16.0407 18.2376 16.2764 17.1918 16.4368C17.0937 16.4518 17.0523 16.6093 16.9958 16.8672C16.9724 16.9737 16.9485 17.0781 16.916 17.1878C16.8856 17.291 16.8179 17.3414 16.7092 17.3414H16.6928C16.622 17.3414 16.5218 17.3287 16.3953 17.3041C16.1742 17.2614 15.9263 17.2216 15.6111 17.2216C15.4272 17.2216 15.237 17.2376 15.0454 17.2691C14.6563 17.3334 14.3239 17.5665 13.972 17.8135C13.4792 18.1595 12.9217 18.5509 12.0882 18.5509Z" stroke="#32363B" stroke-width="1.2" stroke-linecap="round" stroke-linejoin="round" shape-rendering="crispEdges"/>
</g>
<g filter="url(#filter1_d_279_819)">
<path d="M12.0882 18.5509C12.0485 18.5509 12.0106 18.5494 11.9818 18.5481C11.959 18.55 11.9354 18.5509 11.9118 18.5509C11.0782 18.5509 10.5208 18.1596 10.029 17.814C9.67642 17.5668 9.34395 17.3333 8.95444 17.269C8.76314 17.2375 8.57285 17.2215 8.38898 17.2215C8.05769 17.2215 7.79588 17.2725 7.60473 17.3096C7.48711 17.3324 7.38568 17.352 7.30729 17.352C7.22518 17.352 7.12542 17.3339 7.08385 17.1929C7.0509 17.0818 7.02727 16.974 7.00446 16.8703C6.94739 16.6111 6.906 16.4529 6.80825 16.4378C5.76275 16.2777 5.14501 16.0417 5.02196 15.756C5.00907 15.7259 5.00186 15.6957 5.00027 15.6658C4.99547 15.5806 5.05603 15.5059 5.14059 15.492C5.97088 15.3563 6.70913 14.9561 7.33496 14.232C7.81977 13.6715 8.05784 13.1359 8.0834 13.0768C8.08447 13.0741 8.08582 13.0713 8.08715 13.0688C8.20778 12.8257 8.23179 12.6157 8.15871 12.4447C8.02399 12.1293 7.566 11.9887 7.27083 11.8957C7.19741 11.8727 7.12797 11.8508 7.07265 11.829C6.81099 11.7264 6.38065 11.5096 6.43798 11.2103C6.47974 10.992 6.77046 10.84 7.00541 10.84C7.07065 10.84 7.12846 10.8514 7.17713 10.8741C7.44262 10.9976 7.66962 11.0602 7.87504 11.0602C8.1305 11.0602 8.25388 10.9636 8.28371 10.9362C8.27635 10.8009 8.26736 10.6578 8.25867 10.5225C8.25867 10.5224 8.25843 10.5207 8.25843 10.5207C8.19847 9.57354 8.12368 8.35924 8.42733 7.6833C9.33615 5.65996 11.2872 5.50262 11.8561 5.50262C11.8712 5.50262 12.104 5.50033 12.104 5.50033C12.1145 5.50014 12.1259 5.5 12.1378 5.5C12.7082 5.5 14.6633 5.65752 15.5727 7.68208C15.8764 8.35847 15.8015 9.5856 15.7414 10.5338L15.7385 10.5791C15.7303 10.7079 15.7227 10.8297 15.7162 10.9479C15.7443 10.9735 15.8572 11.0621 16.0869 11.071C16.2828 11.0636 16.4959 11.0013 16.7438 10.8861C16.8204 10.8504 16.9052 10.8429 16.9628 10.8429C17.0498 10.8429 17.1384 10.8598 17.2122 10.8903L17.2161 10.8919C17.4264 10.966 17.5641 11.1141 17.5671 11.2697C17.5698 11.4148 17.4612 11.6316 16.9272 11.8409C16.8725 11.8625 16.8028 11.8844 16.7291 11.9076C16.4336 12.0008 15.9759 12.1412 15.8412 12.4565C15.768 12.6275 15.7921 12.8374 15.9128 13.0804C15.9141 13.0831 15.9153 13.0858 15.9166 13.0886C15.9537 13.175 16.853 15.1636 18.8594 15.4919C18.9439 15.5058 19.0046 15.5806 18.9997 15.6656C18.998 15.6962 18.9905 15.7267 18.9775 15.7566C18.8553 16.0407 18.2376 16.2764 17.1918 16.4368C17.0937 16.4518 17.0523 16.6093 16.9958 16.8672C16.9724 16.9737 16.9485 17.0781 16.916 17.1878C16.8856 17.291 16.8179 17.3414 16.7092 17.3414H16.6928C16.622 17.3414 16.5218 17.3287 16.3953 17.3041C16.1742 17.2614 15.9263 17.2216 15.6111 17.2216C15.4272 17.2216 15.237 17.2376 15.0454 17.2691C14.6563 17.3334 14.3239 17.5665 13.972 17.8135C13.4792 18.1595 12.9217 18.5509 12.0882 18.5509Z" fill="#F4F5F7"/>
</g>
<defs>
<filter id="filter0_d_279_819" x="4.40039" y="4.90002" width="15.9992" height="15.0509" filterUnits="userSpaceOnUse" color-interpolation-filters="sRGB">
<feFlood flood-opacity="0" result="BackgroundImageFix"/>
<feColorMatrix in="SourceAlpha" type="matrix" values="0 0 0 0 0 0 0 0 0 0 0 0 0 0 0 0 0 0 127 0" result="hardAlpha"/>
<feOffset dx="0.4" dy="0.4"/>
<feGaussianBlur stdDeviation="0.2"/>
<feComposite in2="hardAlpha" operator="out"/>
<feColorMatrix type="matrix" values="0 0 0 0 0 0 0 0 0 0 0 0 0 0 0 0 0 0 0.25 0"/>
<feBlend mode="normal" in2="BackgroundImageFix" result="effect1_dropShadow_279_819"/>
<feBlend mode="normal" in="SourceGraphic" in2="effect1_dropShadow_279_819" result="shape"/>
</filter>
<filter id="filter1_d_279_819" x="5" y="5.5" width="14.8" height="13.8508" filterUnits="userSpaceOnUse" color-interpolation-filters="sRGB">
<feFlood flood-opacity="0" result="BackgroundImageFix"/>
<feColorMatrix in="SourceAlpha" type="matrix" values="0 0 0 0 0 0 0 0 0 0 0 0 0 0 0 0 0 0 127 0" result="hardAlpha"/>
<feOffset dx="0.4" dy="0.4"/>
<feGaussianBlur stdDeviation="0.2"/>
<feComposite in2="hardAlpha" operator="out"/>
<feColorMatrix type="matrix" values="0 0 0 0 0 0 0 0 0 0 0 0 0 0 0 0 0 0 0.25 0"/>
<feBlend mode="normal" in2="BackgroundImageFix" result="effect1_dropShadow_279_819"/>
<feBlend mode="normal" in="SourceGraphic" in2="effect1_dropShadow_279_819" result="shape"/>
</filter>
</defs>
</svg>
