<svg width="24" height="24" viewBox="0 0 24 24" fill="none" xmlns="http://www.w3.org/2000/svg">
<rect width="24" height="24" rx="6" fill="#32363B"/>
<g filter="url(#filter0_d_291_3383)">
<path d="M19 12.0205C19 12.6719 18.472 13.1999 17.8207 13.1999H14.0325L12.8162 11.6307L12 9.66145L13.8889 6.38991C14.2145 5.82586 14.9358 5.63259 15.4998 5.95822L15.5001 5.95835C16.0642 6.28399 16.2575 7.00527 15.9318 7.56936L14.0429 10.8412H17.8207C18.472 10.8412 19 11.3692 19 12.0205Z" fill="#3F79AD"/>
<path d="M15.5002 18.0827L15.5 18.0829C14.9359 18.4085 14.2147 18.2152 13.889 17.6512L12.0001 14.3796L10.1113 17.6512C9.7856 18.2152 9.06437 18.4085 8.5003 18.0829L8.50008 18.0827C7.93598 17.7571 7.74268 17.0358 8.06834 16.4717L9.95721 13.1999L12.0001 12.8999L14.0431 13.1999L15.9319 16.4717C16.2576 17.0358 16.0643 17.7571 15.5002 18.0827Z" fill="#B04F58"/>
<path d="M12.0001 9.66145L11.4876 11.0625L9.95721 10.8412L8.06834 7.56937C7.74268 7.00528 7.93598 6.28399 8.50008 5.95835L8.50031 5.95822C9.06437 5.63259 9.7856 5.82586 10.1113 6.38991L12.0001 9.66145Z" fill="#B8A64F"/>
<path d="M11.3438 10.8313L10.859 12.1106L9.97418 13.19L6.17935 13.1999C5.52801 13.1999 5 12.6719 5 12.0205C5 11.3692 5.52801 10.8412 6.17935 10.8412L11.3438 10.8313Z" fill="#4F9B7A"/>
<path d="M14.0429 13.1998H9.95703L12 9.66138L14.0429 13.1998Z" fill="#6B58A7"/>
</g>
<defs>
<filter id="filter0_d_291_3383" x="5" y="5.80005" width="14.8" height="13.241" filterUnits="userSpaceOnUse" color-interpolation-filters="sRGB">
<feFlood flood-opacity="0" result="BackgroundImageFix"/>
<feColorMatrix in="SourceAlpha" type="matrix" values="0 0 0 0 0 0 0 0 0 0 0 0 0 0 0 0 0 0 127 0" result="hardAlpha"/>
<feOffset dx="0.4" dy="0.4"/>
<feGaussianBlur stdDeviation="0.2"/>
<feComposite in2="hardAlpha" operator="out"/>
<feColorMatrix type="matrix" values="0 0 0 0 0 0 0 0 0 0 0 0 0 0 0 0 0 0 0.25 0"/>
<feBlend mode="normal" in2="BackgroundImageFix" result="effect1_dropShadow_291_3383"/>
<feBlend mode="normal" in="SourceGraphic" in2="effect1_dropShadow_291_3383" result="shape"/>
</filter>
</defs>
</svg>
