<svg width="24" height="24" viewBox="0 0 24 24" fill="none" xmlns="http://www.w3.org/2000/svg">
<rect width="24" height="24" rx="6" fill="#32363B"/>
<g filter="url(#filter0_d_260_1346)">
<path d="M19 12.0203C19 12.6716 18.472 13.1996 17.8207 13.1996H14.0325L12 9.66121L13.8889 6.38966C14.2145 5.82562 14.9358 5.63235 15.4998 5.95797L15.5001 5.9581C16.0642 6.28375 16.2575 7.00503 15.9318 7.56912L14.0429 10.8409H17.8207C18.472 10.8409 19 11.3689 19 12.0203Z" fill="#3F79AD"/>
<path d="M15.5002 18.0825L15.5 18.0827C14.9359 18.4083 14.2147 18.215 13.889 17.651L12.0001 14.3794L10.1113 17.651C9.7856 18.215 9.06437 18.4083 8.5003 18.0827L8.50008 18.0825C7.93598 17.7569 7.74268 17.0356 8.06834 16.4715L9.95721 13.1997L12.0001 13.1997L14.0431 13.1997L15.932 16.4715C16.2576 17.0356 16.0643 17.7569 15.5002 18.0825Z" fill="#B04F58"/>
<path d="M12.0001 9.66121L11.3876 10.9623L9.95721 10.8409L8.06834 7.56912C7.74268 7.00503 7.93598 6.28375 8.50008 5.9581L8.50031 5.95797C9.06437 5.63235 9.7856 5.82562 10.1113 6.38966L12.0001 9.66121Z" fill="#B8A64F"/>
<path d="M11.3437 10.8311L9.97418 13.1897L6.17935 13.1996C5.52801 13.1996 5 12.6716 5 12.0203C5 11.369 5.52801 10.841 6.17935 10.841L11.3437 10.8311Z" fill="#4F9B7A"/>
<path d="M14.0429 13.2H9.95703L12 9.66162L14.0429 13.2Z" fill="#6B58A7"/>
</g>
<defs>
<filter id="filter0_d_260_1346" x="5" y="5.7998" width="14.8" height="13.2409" filterUnits="userSpaceOnUse" color-interpolation-filters="sRGB">
<feFlood flood-opacity="0" result="BackgroundImageFix"/>
<feColorMatrix in="SourceAlpha" type="matrix" values="0 0 0 0 0 0 0 0 0 0 0 0 0 0 0 0 0 0 127 0" result="hardAlpha"/>
<feOffset dx="0.4" dy="0.4"/>
<feGaussianBlur stdDeviation="0.2"/>
<feComposite in2="hardAlpha" operator="out"/>
<feColorMatrix type="matrix" values="0 0 0 0 0 0 0 0 0 0 0 0 0 0 0 0 0 0 0.25 0"/>
<feBlend mode="normal" in2="BackgroundImageFix" result="effect1_dropShadow_260_1346"/>
<feBlend mode="normal" in="SourceGraphic" in2="effect1_dropShadow_260_1346" result="shape"/>
</filter>
</defs>
</svg>
