<svg width="24" height="24" viewBox="0 0 24 24" fill="none" xmlns="http://www.w3.org/2000/svg">
<rect width="24" height="24" rx="6" fill="#F4F5F7"/>
<g filter="url(#filter0_d_279_682)">
<path d="M6.24399 7.64398C7.82154 6.06644 10.3313 5.98937 12 7.41258C11.9142 7.48576 11.8306 7.56286 11.7495 7.64398L9.01537 10.378C7.3567 12.0367 7.35672 14.7259 9.01537 16.3846C9.83996 17.2092 10.9193 17.6238 12 17.6285C10.9068 17.6333 9.81215 17.2187 8.97808 16.3846L6.24399 13.6505C4.58535 11.9919 4.58533 9.30263 6.24399 7.64398ZM15.069 12.0301C15.0568 12.0305 15.0445 12.0307 15.0321 12.0308C15.0445 12.0307 15.0568 12.0305 15.069 12.0301ZM15.1265 12.0273C15.1155 12.028 15.1044 12.0287 15.0933 12.0292C15.1044 12.0287 15.1155 12.028 15.1265 12.0273ZM15.1904 12.0219C15.1774 12.0233 15.1645 12.0245 15.1514 12.0256C15.1645 12.0245 15.1774 12.0233 15.1904 12.0219ZM15.2567 12.0135C15.2421 12.0157 15.2274 12.0176 15.2126 12.0194C15.2274 12.0176 15.2421 12.0157 15.2567 12.0135ZM15.3143 12.004C15.297 12.0072 15.2797 12.0102 15.2623 12.0128C15.2797 12.0102 15.297 12.0072 15.3143 12.004ZM15.3738 11.9919C15.3586 11.9953 15.3433 11.9985 15.3279 12.0014C15.3433 11.9985 15.3586 11.9953 15.3738 11.9919ZM15.4307 11.978C15.4138 11.9824 15.3968 11.9867 15.3796 11.9906C15.3968 11.9867 15.4138 11.9824 15.4307 11.978ZM15.4895 11.9614C15.4738 11.9661 15.4581 11.9706 15.4422 11.9749C15.4581 11.9706 15.4738 11.9661 15.4895 11.9614ZM15.5461 11.943C15.5286 11.9491 15.5109 11.9549 15.493 11.9603C15.5109 11.9549 15.5286 11.9491 15.5461 11.943ZM15.6003 11.9233C15.5838 11.9296 15.5672 11.9357 15.5504 11.9415C15.5672 11.9357 15.5838 11.9296 15.6003 11.9233ZM15.9097 11.7637C15.8142 11.8268 15.7116 11.8801 15.6034 11.9221C15.7116 11.88 15.8142 11.8267 15.9097 11.7636V11.7637ZM13.4029 10.3726C13.4026 10.3865 13.4024 10.4005 13.4024 10.4144C13.4024 10.5571 13.421 10.6955 13.4557 10.8272C13.421 10.6954 13.4024 10.5571 13.4024 10.4144C13.4024 10.4004 13.4026 10.3865 13.4029 10.3726ZM13.5392 9.76272C13.4672 9.9261 13.4213 10.1036 13.4071 10.29C13.4213 10.1036 13.4672 9.92609 13.5392 9.76272ZM13.5514 9.73588C13.5494 9.74022 13.5473 9.74452 13.5453 9.74888C13.5473 9.74452 13.5494 9.74022 13.5514 9.73588Z" fill="#32363B"/>
</g>
<g filter="url(#filter1_d_279_682)">
<path d="M11.7496 7.64403C13.4083 5.98536 16.0975 5.98536 17.7562 7.64403C19.4149 9.30269 19.4149 11.9919 17.7562 13.6506L15.0221 16.3847C13.3634 18.0433 10.6742 18.0433 9.01549 16.3847C7.35681 14.726 7.35681 12.0368 9.01549 10.3781L11.7496 7.64403ZM15.0192 8.79778C14.1263 8.79778 13.4025 9.52157 13.4025 10.4144C13.4025 11.3072 14.1263 12.031 15.0192 12.031C15.912 12.031 16.6358 11.3072 16.6358 10.4144C16.6358 9.52157 15.912 8.79778 15.0192 8.79778Z" fill="#3F79AD"/>
</g>
<defs>
<filter id="filter0_d_279_682" x="4.6" y="6.40002" width="11.7102" height="12.0285" filterUnits="userSpaceOnUse" color-interpolation-filters="sRGB">
<feFlood flood-opacity="0" result="BackgroundImageFix"/>
<feColorMatrix in="SourceAlpha" type="matrix" values="0 0 0 0 0 0 0 0 0 0 0 0 0 0 0 0 0 0 127 0" result="hardAlpha"/>
<feOffset dy="0.4"/>
<feGaussianBlur stdDeviation="0.2"/>
<feComposite in2="hardAlpha" operator="out"/>
<feColorMatrix type="matrix" values="0 0 0 0 0 0 0 0 0 0 0 0 0 0 0 0 0 0 0.25 0"/>
<feBlend mode="normal" in2="BackgroundImageFix" result="effect1_dropShadow_279_682"/>
<feBlend mode="normal" in="SourceGraphic" in2="effect1_dropShadow_279_682" result="shape"/>
</filter>
<filter id="filter1_d_279_682" x="7.37148" y="6.40002" width="12.0285" height="12.0286" filterUnits="userSpaceOnUse" color-interpolation-filters="sRGB">
<feFlood flood-opacity="0" result="BackgroundImageFix"/>
<feColorMatrix in="SourceAlpha" type="matrix" values="0 0 0 0 0 0 0 0 0 0 0 0 0 0 0 0 0 0 127 0" result="hardAlpha"/>
<feOffset dy="0.4"/>
<feGaussianBlur stdDeviation="0.2"/>
<feComposite in2="hardAlpha" operator="out"/>
<feColorMatrix type="matrix" values="0 0 0 0 0 0 0 0 0 0 0 0 0 0 0 0 0 0 0.25 0"/>
<feBlend mode="normal" in2="BackgroundImageFix" result="effect1_dropShadow_279_682"/>
<feBlend mode="normal" in="SourceGraphic" in2="effect1_dropShadow_279_682" result="shape"/>
</filter>
</defs>
</svg>
