<svg width="24" height="24" viewBox="0 0 24 24" fill="none" xmlns="http://www.w3.org/2000/svg">
<rect width="24" height="24" rx="6" fill="#32363B"/>
<g filter="url(#filter0_d_279_766)">
<path d="M13.8668 5C13.4955 5 13.1394 5.1475 12.8769 5.41005C12.6143 5.6726 12.4668 6.0287 12.4668 6.4V10.1333C12.4668 10.5046 12.6143 10.8607 12.8769 11.1233C13.1394 11.3858 13.4955 11.5333 13.8668 11.5333C14.2381 11.5333 14.5942 11.3858 14.8568 11.1233C15.1193 10.8607 15.2668 10.5046 15.2668 10.1333V6.4C15.2668 6.0287 15.1193 5.6726 14.8568 5.41005C14.5942 5.1475 14.2381 5 13.8668 5ZM17.6002 8.73333C17.9715 8.73333 18.3276 8.88083 18.5901 9.14338C18.8527 9.40593 19.0002 9.76202 19.0002 10.1333C19.0002 10.5046 18.8527 10.8607 18.5901 11.1233C18.3276 11.3858 17.9715 11.5333 17.6002 11.5333H16.2002V10.1333C16.2002 9.76202 16.3477 9.40593 16.6102 9.14338C16.8728 8.88083 17.2289 8.73333 17.6002 8.73333Z" fill="#4F9B7A"/>
<path d="M10.1334 12.4667C9.76208 12.4667 9.40598 12.6142 9.14343 12.8767C8.88087 13.1393 8.73337 13.4954 8.73337 13.8667V17.6C8.73337 17.9713 8.88087 18.3274 9.14343 18.5899C9.40598 18.8525 9.76208 19 10.1334 19C10.5047 19 10.8608 18.8525 11.1233 18.5899C11.3859 18.3274 11.5334 17.9713 11.5334 17.6V13.8667C11.5334 13.4954 11.3859 13.1393 11.1233 12.8767C10.8608 12.6142 10.5047 12.4667 10.1334 12.4667ZM6.40001 15.2667C6.02871 15.2667 5.67261 15.1192 5.41005 14.8566C5.1475 14.5941 5 14.238 5 13.8667C5 13.4954 5.1475 13.1393 5.41005 12.8767C5.67261 12.6142 6.02871 12.4667 6.40001 12.4667H7.80003V13.8667C7.80003 14.238 7.65253 14.5941 7.38998 14.8566C7.12742 15.1192 6.77132 15.2667 6.40001 15.2667Z" fill="#B04F58"/>
<path d="M19.0002 13.8667C19.0002 13.4954 18.8527 13.1393 18.5901 12.8767C18.3276 12.6142 17.9715 12.4667 17.6002 12.4667H13.8668C13.4955 12.4667 13.1394 12.6142 12.8769 12.8767C12.6143 13.1393 12.4668 13.4954 12.4668 13.8667C12.4668 14.238 12.6143 14.5941 12.8769 14.8566C13.1394 15.1192 13.4955 15.2667 13.8668 15.2667H17.6002C17.9715 15.2667 18.3276 15.1192 18.5901 14.8566C18.8527 14.5941 19.0002 14.238 19.0002 13.8667ZM13.8668 19C14.2381 19 14.5942 18.8525 14.8568 18.5899C15.1193 18.3274 15.2668 17.9713 15.2668 17.6C15.2668 17.2287 15.1193 16.8726 14.8568 16.6101C14.5942 16.3475 14.2381 16.2 13.8668 16.2H12.4668V17.6C12.4668 17.9713 12.6143 18.3274 12.8769 18.5899C13.1394 18.8525 13.4955 19 13.8668 19Z" fill="#B8A64F"/>
<path d="M11.5334 10.1333C11.5334 9.76202 11.3859 9.40593 11.1233 9.14338C10.8608 8.88083 10.5047 8.73333 10.1334 8.73333H6.40001C6.02871 8.73333 5.67261 8.88083 5.41005 9.14338C5.1475 9.40593 5 9.76202 5 10.1333C5 10.5046 5.1475 10.8607 5.41005 11.1233C5.67261 11.3858 6.02871 11.5333 6.40001 11.5333H10.1334C10.5047 11.5333 10.8608 11.3858 11.1233 11.1233C11.3859 10.8607 11.5334 10.5046 11.5334 10.1333ZM10.1334 5C9.76208 5 9.40598 5.1475 9.14343 5.41005C8.88087 5.6726 8.73337 6.0287 8.73337 6.4C8.73337 6.7713 8.88087 7.1274 9.14343 7.38995C9.40598 7.6525 9.76208 7.8 10.1334 7.8H11.5334V6.4C11.5334 6.0287 11.3859 5.6726 11.1233 5.41005C10.8608 5.1475 10.5047 5 10.1334 5Z" fill="#3F79AD"/>
</g>
<defs>
<filter id="filter0_d_279_766" x="5" y="5" width="14.8" height="14.8" filterUnits="userSpaceOnUse" color-interpolation-filters="sRGB">
<feFlood flood-opacity="0" result="BackgroundImageFix"/>
<feColorMatrix in="SourceAlpha" type="matrix" values="0 0 0 0 0 0 0 0 0 0 0 0 0 0 0 0 0 0 127 0" result="hardAlpha"/>
<feOffset dx="0.4" dy="0.4"/>
<feGaussianBlur stdDeviation="0.2"/>
<feComposite in2="hardAlpha" operator="out"/>
<feColorMatrix type="matrix" values="0 0 0 0 0 0 0 0 0 0 0 0 0 0 0 0 0 0 0.25 0"/>
<feBlend mode="normal" in2="BackgroundImageFix" result="effect1_dropShadow_279_766"/>
<feBlend mode="normal" in="SourceGraphic" in2="effect1_dropShadow_279_766" result="shape"/>
</filter>
</defs>
</svg>
