<svg width="24" height="24" viewBox="0 0 24 24" fill="none" xmlns="http://www.w3.org/2000/svg">
<rect width="24" height="24" rx="6" fill="#32363B"/>
<path d="M5 8.94927C5 8.28653 5.53726 7.74927 6.2 7.74927H11.9998V13.4841H5V8.94927Z" fill="#4F9B7A"/>
<g filter="url(#filter0_d_214_876)">
<path d="M17.988 6.3999C18.5469 6.39991 19 6.85301 19 7.41193V16.5201C19 17.0791 18.5469 17.5322 17.988 17.5322H6.01202C5.4531 17.5322 5 17.0791 5 16.5201V13.3997H10.9878C11.5467 13.3997 11.9998 12.9466 11.9998 12.3877V9.90015L12.0002 9.89982V6.3999H17.988Z" fill="#3F79AD"/>
</g>
<g filter="url(#filter1_d_214_876)">
<path d="M11.9998 6.3999V12.1997C11.9998 12.8625 11.4626 13.3997 10.7998 13.3997H5L11.9998 6.3999Z" fill="#B04F58"/>
</g>
<g filter="url(#filter2_d_214_876)">
<path d="M11.9998 6.3999L10.419 11.0673C10.2991 11.4211 10.0212 11.699 9.66735 11.8189L5 13.3997L11.9998 6.3999Z" fill="#B8A64F"/>
</g>
<defs>
<filter id="filter0_d_214_876" x="5" y="6.3999" width="14.8" height="11.9323" filterUnits="userSpaceOnUse" color-interpolation-filters="sRGB">
<feFlood flood-opacity="0" result="BackgroundImageFix"/>
<feColorMatrix in="SourceAlpha" type="matrix" values="0 0 0 0 0 0 0 0 0 0 0 0 0 0 0 0 0 0 127 0" result="hardAlpha"/>
<feOffset dx="0.4" dy="0.4"/>
<feGaussianBlur stdDeviation="0.2"/>
<feComposite in2="hardAlpha" operator="out"/>
<feColorMatrix type="matrix" values="0 0 0 0 0 0 0 0 0 0 0 0 0 0 0 0 0 0 0.25 0"/>
<feBlend mode="normal" in2="BackgroundImageFix" result="effect1_dropShadow_214_876"/>
<feBlend mode="normal" in="SourceGraphic" in2="effect1_dropShadow_214_876" result="shape"/>
</filter>
<filter id="filter1_d_214_876" x="5" y="6.3999" width="7.8" height="7.79976" filterUnits="userSpaceOnUse" color-interpolation-filters="sRGB">
<feFlood flood-opacity="0" result="BackgroundImageFix"/>
<feColorMatrix in="SourceAlpha" type="matrix" values="0 0 0 0 0 0 0 0 0 0 0 0 0 0 0 0 0 0 127 0" result="hardAlpha"/>
<feOffset dx="0.4" dy="0.4"/>
<feGaussianBlur stdDeviation="0.2"/>
<feComposite in2="hardAlpha" operator="out"/>
<feColorMatrix type="matrix" values="0 0 0 0 0 0 0 0 0 0 0 0 0 0 0 0 0 0 0.25 0"/>
<feBlend mode="normal" in2="BackgroundImageFix" result="effect1_dropShadow_214_876"/>
<feBlend mode="normal" in="SourceGraphic" in2="effect1_dropShadow_214_876" result="shape"/>
</filter>
<filter id="filter2_d_214_876" x="5" y="6.3999" width="7.8" height="7.79976" filterUnits="userSpaceOnUse" color-interpolation-filters="sRGB">
<feFlood flood-opacity="0" result="BackgroundImageFix"/>
<feColorMatrix in="SourceAlpha" type="matrix" values="0 0 0 0 0 0 0 0 0 0 0 0 0 0 0 0 0 0 127 0" result="hardAlpha"/>
<feOffset dx="0.4" dy="0.4"/>
<feGaussianBlur stdDeviation="0.2"/>
<feComposite in2="hardAlpha" operator="out"/>
<feColorMatrix type="matrix" values="0 0 0 0 0 0 0 0 0 0 0 0 0 0 0 0 0 0 0.25 0"/>
<feBlend mode="normal" in2="BackgroundImageFix" result="effect1_dropShadow_214_876"/>
<feBlend mode="normal" in="SourceGraphic" in2="effect1_dropShadow_214_876" result="shape"/>
</filter>
</defs>
</svg>
