<svg width="24" height="24" viewBox="0 0 24 24" fill="none" xmlns="http://www.w3.org/2000/svg">
<rect width="24" height="24" rx="6" fill="#32363B"/>
<g filter="url(#filter0_d_195_187)">
<path d="M11.8206 10.7527C11.9262 10.6694 12.0737 10.6695 12.1793 10.7529C14.3074 12.4346 17.6607 16.1891 16.6085 17.274C15.3691 18.3549 13.7631 19 12 19C10.2369 19 8.61347 18.3549 7.39152 17.274C6.32257 16.1894 9.70653 12.42 11.8206 10.7527ZM15.6484 6.02864C14.5835 5.38356 13.414 5 12 5C10.586 5 9.41646 5.38356 8.35162 6.02864C8.33417 6.02864 8.33416 6.04608 8.33416 6.06351C8.33416 6.08095 8.35162 6.08095 8.36908 6.08095C9.55382 5.82306 11.2804 6.67393 11.8355 6.97972C11.9374 7.03587 12.0626 7.03587 12.1645 6.97972C12.7196 6.67393 14.4462 5.82306 15.6309 6.08095C15.6484 6.08095 15.6658 6.06351 15.6658 6.06351C15.6658 6.06351 15.6658 6.02864 15.6484 6.02864ZM7.09476 7.00498C7.07731 7.00498 7.07731 7.02242 7.05985 7.02242C5.78554 8.29514 5 10.056 5 11.9913C5 13.5778 5.54115 15.0598 6.43142 16.2279C6.43142 16.2453 6.44888 16.2453 6.46633 16.2453C6.48379 16.2453 6.48379 16.2279 6.46633 16.2105C5.94687 14.6205 8.46757 10.8618 9.92112 9.08262C10.0201 8.96144 10.0117 8.78534 9.899 8.6768C7.90465 6.75646 7.21312 6.95432 7.09476 7.00498ZM14.0999 8.65631C13.9864 8.76469 13.9776 8.94145 14.0768 9.06305C15.5294 10.8428 18.0363 14.6034 17.5337 16.193V16.2279C17.5511 16.2279 17.5686 16.2279 17.5686 16.2105C18.4589 15.0423 19 13.5604 19 11.9738C19 10.0386 18.2145 8.27771 16.9227 7.00498C16.9052 6.98755 16.9052 6.98755 16.8878 6.98755C16.7864 6.95378 16.0932 6.75369 14.0999 8.65631Z" fill="#4F9B7A"/>
</g>
<defs>
<filter id="filter0_d_195_187" x="5" y="5" width="14.8" height="14.8" filterUnits="userSpaceOnUse" color-interpolation-filters="sRGB">
<feFlood flood-opacity="0" result="BackgroundImageFix"/>
<feColorMatrix in="SourceAlpha" type="matrix" values="0 0 0 0 0 0 0 0 0 0 0 0 0 0 0 0 0 0 127 0" result="hardAlpha"/>
<feOffset dx="0.4" dy="0.4"/>
<feGaussianBlur stdDeviation="0.2"/>
<feComposite in2="hardAlpha" operator="out"/>
<feColorMatrix type="matrix" values="0 0 0 0 0 0 0 0 0 0 0 0 0 0 0 0 0 0 0.25 0"/>
<feBlend mode="normal" in2="BackgroundImageFix" result="effect1_dropShadow_195_187"/>
<feBlend mode="normal" in="SourceGraphic" in2="effect1_dropShadow_195_187" result="shape"/>
</filter>
</defs>
</svg>
