<svg width="240" height="240" viewBox="0 0 240 240" fill="none" xmlns="http://www.w3.org/2000/svg">
<g clip-path="url(#clip0_201_1905)">
<rect width="240" height="240" rx="60" fill="#32363B"/>
<g filter="url(#filter0_d_201_1905)">
<path d="M39.1719 170.56C43.2984 167.496 51.6476 170.464 56.9258 176.782C66.1385 187.983 69.6897 190.951 74.9678 192.1C79.6702 193.057 83.9889 192.673 90.5147 190.759C91.3784 190.471 92.5297 188.462 93.1055 186.164C93.6813 183.962 95.2173 180.612 96.4649 178.793L98.376 176.012C98.5704 176.037 98.7602 176.06 98.9443 176.079C115.034 177.75 124.6 177.559 140.705 175.982C140.786 175.974 140.869 175.963 140.952 175.954L143.585 180.611C143.585 180.611 146.388 185.998 146.655 189.753C147.25 198.088 147.5 198 147.5 207.5C147.5 216.187 147.326 228.637 147.327 228.669V244H91.4746V205.885L83.0293 206.363C73.1447 206.842 65.4668 205.119 60.8604 201.194C59.2289 199.854 56.0627 195.259 53.8555 191.047C50.2087 183.963 47.5216 180.707 40.0361 174.102C37.541 171.9 37.4446 171.804 39.1719 170.56Z" fill="#F4F5F7"/>
</g>
<g filter="url(#filter1_d_201_1905)">
<path d="M98.9444 176.079C95.8721 175.76 91.1861 174.539 91.1861 174.539C74.9032 171.169 64.8462 165.297 58.2372 155.285C52.1072 146.043 50.0958 138.053 50 123.131C50 109.076 51.5325 103.299 57.5668 95.4054C60.2486 91.9397 60.536 90.8807 59.7697 88.8591C58.333 85.3934 58.7161 70.7605 60.2486 66.3321C61.4938 63.059 62.1643 62.4813 64.7504 62.1925C69.0605 61.7112 77.1062 64.503 85.2476 69.1239L92.2397 73.1672L98.3697 71.7232C107.086 69.7015 133.234 69.7978 141.088 71.7232L147.027 73.2635L152.582 69.8941C159.957 65.4657 169.344 62 174.037 62C177.743 62 177.772 62.0947 179.269 66.8893L179.305 67.006C180.933 72.6859 181.221 82.9866 179.784 87.8964C179.018 90.7844 179.209 91.6509 181.317 94.4427C191.757 108.305 192.906 131.314 184.094 150.182C178.156 162.601 165.608 171.265 148.751 174.442C148.751 174.442 143.889 175.671 140.705 175.983C124.6 177.559 115.034 177.75 98.9444 176.079Z" fill="#F4F5F7"/>
</g>
</g>
<defs>
<filter id="filter0_d_201_1905" x="38" y="169.344" width="117.5" height="82.6555" filterUnits="userSpaceOnUse" color-interpolation-filters="sRGB">
<feFlood flood-opacity="0" result="BackgroundImageFix"/>
<feColorMatrix in="SourceAlpha" type="matrix" values="0 0 0 0 0 0 0 0 0 0 0 0 0 0 0 0 0 0 127 0" result="hardAlpha"/>
<feOffset dx="4" dy="4"/>
<feGaussianBlur stdDeviation="2"/>
<feComposite in2="hardAlpha" operator="out"/>
<feColorMatrix type="matrix" values="0 0 0 0 0 0 0 0 0 0 0 0 0 0 0 0 0 0 0.25 0"/>
<feBlend mode="normal" in2="BackgroundImageFix" result="effect1_dropShadow_201_1905"/>
<feBlend mode="normal" in="SourceGraphic" in2="effect1_dropShadow_201_1905" result="shape"/>
</filter>
<filter id="filter1_d_201_1905" x="50" y="62" width="148" height="123.251" filterUnits="userSpaceOnUse" color-interpolation-filters="sRGB">
<feFlood flood-opacity="0" result="BackgroundImageFix"/>
<feColorMatrix in="SourceAlpha" type="matrix" values="0 0 0 0 0 0 0 0 0 0 0 0 0 0 0 0 0 0 127 0" result="hardAlpha"/>
<feOffset dx="4" dy="4"/>
<feGaussianBlur stdDeviation="2"/>
<feComposite in2="hardAlpha" operator="out"/>
<feColorMatrix type="matrix" values="0 0 0 0 0 0 0 0 0 0 0 0 0 0 0 0 0 0 0.25 0"/>
<feBlend mode="normal" in2="BackgroundImageFix" result="effect1_dropShadow_201_1905"/>
<feBlend mode="normal" in="SourceGraphic" in2="effect1_dropShadow_201_1905" result="shape"/>
</filter>
<clipPath id="clip0_201_1905">
<rect width="240" height="240" rx="60" fill="white"/>
</clipPath>
</defs>
</svg>
