<svg width="24" height="24" viewBox="0 0 24 24" fill="none" xmlns="http://www.w3.org/2000/svg">
<rect width="24" height="24" rx="6" fill="#3F79AD"/>
<g filter="url(#filter0_d_279_812)">
<path fill-rule="evenodd" clip-rule="evenodd" d="M5.81894 11.8714C6.61101 11.7413 7.40267 12.1999 7.68641 12.9532C8.06978 13.9709 7.43432 15.0752 6.36395 15.251C5.57188 15.3812 4.78014 14.9227 4.4965 14.1694C4.11302 13.1516 4.7486 12.0473 5.81894 11.8714ZM6.44036 14.405C6.81851 14.2502 7.04961 13.8485 6.99428 13.4426C6.91293 12.8471 6.29733 12.4904 5.74255 12.7176C5.36441 12.8724 5.13321 13.2741 5.18864 13.68C5.26998 14.2755 5.88558 14.6321 6.44036 14.405ZM10.6062 10.6588C10.6978 10.6342 10.7782 10.7254 10.7424 10.8135L9.66477 13.4696L10.9728 13.1191C11.2112 13.0552 11.4573 13.2224 11.4742 13.4836C11.4866 13.675 11.3499 13.8448 11.165 13.8943L8.54421 14.5965C8.45347 14.6209 8.3739 14.5306 8.40927 14.4433L9.48782 11.7853L8.41417 12.073C8.22935 12.1225 8.02606 12.0439 7.94105 11.8718C7.82516 11.6372 7.95463 11.3693 8.19303 11.3054L10.6062 10.6588ZM18.668 8.50808C18.9029 8.38883 19.1728 8.51908 19.2372 8.75948L19.9504 11.4211C19.9752 11.5139 19.8822 11.5944 19.7941 11.5561L17.2686 10.4578L17.6157 11.7532C17.6801 11.9936 17.5115 12.2413 17.2484 12.2555C17.0598 12.2657 16.8928 12.1319 16.8438 11.949L16.1332 9.29706C16.1083 9.20423 16.2013 9.12372 16.2893 9.16199L18.8149 10.2604L18.4707 8.97586C18.4217 8.79299 18.4996 8.59359 18.668 8.50808ZM13.2255 9.87791C14.5 9.5364 15.7315 9.99945 15.9761 10.9122C16.2207 11.8249 15.3857 12.8417 14.1111 13.1832C12.8366 13.5247 11.6052 13.0616 11.3607 12.1489C11.1161 11.2362 11.951 10.2194 13.2255 9.87791ZM12.1299 11.9428C12.2414 12.3588 13.0239 12.6478 13.9045 12.4119C14.785 12.1759 15.3182 11.5344 15.2067 11.1184C15.0953 10.7024 14.3127 10.4133 13.4322 10.6493C12.5516 10.8852 12.0184 11.5267 12.1299 11.9428Z" fill="#F4F5F7"/>
</g>
<defs>
<filter id="filter0_d_279_812" x="4.38477" y="8.46326" width="16.3703" height="7.60981" filterUnits="userSpaceOnUse" color-interpolation-filters="sRGB">
<feFlood flood-opacity="0" result="BackgroundImageFix"/>
<feColorMatrix in="SourceAlpha" type="matrix" values="0 0 0 0 0 0 0 0 0 0 0 0 0 0 0 0 0 0 127 0" result="hardAlpha"/>
<feOffset dx="0.4" dy="0.4"/>
<feGaussianBlur stdDeviation="0.2"/>
<feComposite in2="hardAlpha" operator="out"/>
<feColorMatrix type="matrix" values="0 0 0 0 0 0 0 0 0 0 0 0 0 0 0 0 0 0 0.25 0"/>
<feBlend mode="normal" in2="BackgroundImageFix" result="effect1_dropShadow_279_812"/>
<feBlend mode="normal" in="SourceGraphic" in2="effect1_dropShadow_279_812" result="shape"/>
</filter>
</defs>
</svg>
