<svg width="24" height="24" viewBox="0 0 24 24" fill="none" xmlns="http://www.w3.org/2000/svg">
<rect width="24" height="24" rx="6" fill="#32363B"/>
<g filter="url(#filter0_d_279_815)">
<path d="M19 12C19 13.8565 18.2625 15.637 16.9497 16.9497C15.637 18.2625 13.8565 19 12 19C11.0807 19 10.1705 18.8189 9.32122 18.4672C8.47194 18.1154 7.70026 17.5998 7.05025 16.9497C5.7375 15.637 5 13.8565 5 12C5 10.1435 5.7375 8.36301 7.05025 7.05025C8.36301 5.7375 10.1435 5 12 5C12.9193 5 13.8295 5.18106 14.6788 5.53284C15.5281 5.88463 16.2997 6.40024 16.9497 7.05025C17.5998 7.70026 18.1154 8.47194 18.4672 9.32122C18.8189 10.1705 19 11.0807 19 12Z" fill="#B04F58"/>
</g>
<g filter="url(#filter1_d_279_815)">
<path d="M12.1541 7.625C9.1386 7.625 7.53711 9.64986 7.53711 11.858C7.53711 12.8846 8.08285 14.1629 8.95557 14.5698C9.088 14.6315 9.15871 14.6043 9.18918 14.4761C9.21233 14.3788 9.33028 13.9034 9.38333 13.6823C9.40034 13.6116 9.3919 13.5508 9.33479 13.4815C9.0461 13.1308 8.84961 12.4858 8.84961 11.8841C8.84961 10.3402 9.9818 8.85 11.97 8.85C13.6867 8.85 14.8871 10.0181 14.8871 11.6941C14.8871 13.5877 13.9342 14.8875 12.6923 14.8875C12.0063 14.8875 11.493 14.3314 11.6576 13.6346C11.8546 12.8025 12.2621 11.9045 12.2621 11.3039C12.2621 10.7663 11.9482 10.3375 11.3521 10.3375C10.6509 10.3375 10.0746 11.0446 10.0746 12.0179C10.0746 12.6379 10.2968 13.0573 10.2968 13.0573C10.2968 13.0573 9.60431 15.9903 9.47732 16.5367C9.34033 17.1262 9.38982 17.9464 9.44895 18.5006C9.61248 18.5688 9.77854 18.6308 9.94678 18.6864C10.2314 18.2195 10.644 17.4764 10.799 16.879C10.884 16.5515 11.2345 15.2149 11.2345 15.2149C11.4624 15.6502 12.1279 16.025 12.836 16.025C14.9435 16.025 16.4621 14.0773 16.4621 11.6649C16.4621 9.35237 14.5781 7.625 12.1541 7.625Z" fill="#F4F5F7"/>
</g>
<defs>
<filter id="filter0_d_279_815" x="5" y="5" width="14.8" height="14.8" filterUnits="userSpaceOnUse" color-interpolation-filters="sRGB">
<feFlood flood-opacity="0" result="BackgroundImageFix"/>
<feColorMatrix in="SourceAlpha" type="matrix" values="0 0 0 0 0 0 0 0 0 0 0 0 0 0 0 0 0 0 127 0" result="hardAlpha"/>
<feOffset dx="0.4" dy="0.4"/>
<feGaussianBlur stdDeviation="0.2"/>
<feComposite in2="hardAlpha" operator="out"/>
<feColorMatrix type="matrix" values="0 0 0 0 0 0 0 0 0 0 0 0 0 0 0 0 0 0 0.25 0"/>
<feBlend mode="normal" in2="BackgroundImageFix" result="effect1_dropShadow_279_815"/>
<feBlend mode="normal" in="SourceGraphic" in2="effect1_dropShadow_279_815" result="shape"/>
</filter>
<filter id="filter1_d_279_815" x="7.13711" y="7.625" width="9.72578" height="11.8615" filterUnits="userSpaceOnUse" color-interpolation-filters="sRGB">
<feFlood flood-opacity="0" result="BackgroundImageFix"/>
<feColorMatrix in="SourceAlpha" type="matrix" values="0 0 0 0 0 0 0 0 0 0 0 0 0 0 0 0 0 0 127 0" result="hardAlpha"/>
<feOffset dy="0.4"/>
<feGaussianBlur stdDeviation="0.2"/>
<feComposite in2="hardAlpha" operator="out"/>
<feColorMatrix type="matrix" values="0 0 0 0 0 0 0 0 0 0 0 0 0 0 0 0 0 0 0.25 0"/>
<feBlend mode="normal" in2="BackgroundImageFix" result="effect1_dropShadow_279_815"/>
<feBlend mode="normal" in="SourceGraphic" in2="effect1_dropShadow_279_815" result="shape"/>
</filter>
</defs>
</svg>
