<svg width="24" height="24" viewBox="0 0 24 24" fill="none" xmlns="http://www.w3.org/2000/svg">
<rect width="24" height="24" rx="6" fill="#32363B"/>
<g filter="url(#filter0_d_291_3268)">
<path d="M12.6 10.5C12.2686 10.5 12 10.7686 12 11.1V12.9C12 13.2314 12.2686 13.5 12.6 13.5H15.7041C15.4062 14.2354 14.8963 14.8657 14.2393 15.3105L15 16.85L16.7598 17.21C18.1424 15.93 19 14.065 19 12C19 11.664 18.9702 11.3383 18.9258 11.0166C18.8824 10.7222 18.6292 10.5 18.3316 10.5H17.6768H12.6Z" fill="#3F79AD"/>
<path d="M12.1475 5C9.40256 5 6.95831 6.57988 5.76953 8.87988L6.69902 10.5703H8.26758C8.55671 9.81482 9.0681 9.16475 9.73427 8.70587C10.4004 8.24699 11.1901 8.00088 11.999 8C12.8204 8.00136 13.6162 8.25534 14.2819 8.72002C14.5548 8.91051 14.9345 8.90414 15.1624 8.66158L16.4334 7.30866C16.659 7.06857 16.6503 6.68917 16.3932 6.48321C15.236 5.55614 13.7674 5 12.1475 5Z" fill="#B04F58"/>
<path d="M5.76563 8.87988C5.28093 9.81988 5 10.88 5 12C5 13.16 5.29622 14.25 5.81152 15.21L7.43945 14.9L8.28125 13.4717C8.09564 13.0032 8.00022 12.5039 8 12C8.00138 11.511 8.0924 11.0265 8.26855 10.5703L7.43945 10.0098L5.76563 8.87988Z" fill="#B8A64F"/>
<path d="M8.2832 13.4746L5.81641 15.21C7.02049 17.46 9.43925 19 12.1484 19C13.9444 19 15.5506 18.325 16.7598 17.21L14.2656 15.291C13.5996 15.7512 12.8096 15.9984 12 16C11.1988 15.9997 10.4162 15.7588 9.75347 15.3085C9.09077 14.8583 8.57857 14.2194 8.2832 13.4746Z" fill="#4F9B7A"/>
</g>
<defs>
<filter id="filter0_d_291_3268" x="5" y="5" width="14.8" height="14.8" filterUnits="userSpaceOnUse" color-interpolation-filters="sRGB">
<feFlood flood-opacity="0" result="BackgroundImageFix"/>
<feColorMatrix in="SourceAlpha" type="matrix" values="0 0 0 0 0 0 0 0 0 0 0 0 0 0 0 0 0 0 127 0" result="hardAlpha"/>
<feOffset dx="0.4" dy="0.4"/>
<feGaussianBlur stdDeviation="0.2"/>
<feComposite in2="hardAlpha" operator="out"/>
<feColorMatrix type="matrix" values="0 0 0 0 0 0 0 0 0 0 0 0 0 0 0 0 0 0 0.25 0"/>
<feBlend mode="normal" in2="BackgroundImageFix" result="effect1_dropShadow_291_3268"/>
<feBlend mode="normal" in="SourceGraphic" in2="effect1_dropShadow_291_3268" result="shape"/>
</filter>
</defs>
</svg>
