<svg width="24" height="24" viewBox="0 0 24 24" fill="none" xmlns="http://www.w3.org/2000/svg">
<rect width="24" height="24" rx="6" fill="#32363B"/>
<g filter="url(#filter0_d_291_3332)">
<path fill-rule="evenodd" clip-rule="evenodd" d="M9.73911 14.0003L9.47815 13.9133L7.49729 17.5142L7.63479 17.8182C7.81141 17.9371 8.01874 18.0005 8.23079 18.0005H15.7693C16.1294 18.0006 16.4657 17.8183 16.6655 17.5148L18.8195 14.2419C18.8686 14.1666 18.9082 14.0855 18.9376 14.0003L18.9195 13.7478H14.3406L14.1923 14.0003H9.73911Z" fill="#3F79AD"/>
</g>
<g filter="url(#filter1_d_291_3332)">
<path fill-rule="evenodd" clip-rule="evenodd" d="M9.84634 6C9.46331 5.99995 9.10908 6.20595 8.91599 6.54104L5.14673 13.0869C4.93941 13.447 4.95267 13.8952 5.18091 14.2419L7.33495 17.5149C7.41417 17.6352 7.51621 17.7383 7.63512 17.8183L13.5165 7.30035L14.1508 6.16668L9.84634 6Z" fill="#4F9B7A"/>
</g>
<g filter="url(#filter2_d_291_3332)">
<path fill-rule="evenodd" clip-rule="evenodd" d="M9.84601 6C9.82631 6.00032 9.80662 6.00119 9.78697 6.0026L14.1945 14.0004H18.9376C19.0435 13.6982 19.0128 13.3641 18.8537 13.0869L15.0844 6.54104C14.8914 6.20595 14.5371 5.99995 14.1541 6H9.84601ZM18.9357 14.005C18.9227 14.0423 18.9073 14.0787 18.8904 14.1143C18.9074 14.0787 18.9226 14.0422 18.9357 14.005ZM18.8835 14.1287C18.8643 14.1675 18.8432 14.2056 18.8195 14.2419C18.8431 14.2055 18.8644 14.1677 18.8835 14.1287Z" fill="#B8A64F"/>
</g>
<defs>
<filter id="filter0_d_291_3332" x="7.49805" y="13.7478" width="12.2395" height="5.05269" filterUnits="userSpaceOnUse" color-interpolation-filters="sRGB">
<feFlood flood-opacity="0" result="BackgroundImageFix"/>
<feColorMatrix in="SourceAlpha" type="matrix" values="0 0 0 0 0 0 0 0 0 0 0 0 0 0 0 0 0 0 127 0" result="hardAlpha"/>
<feOffset dx="0.4" dy="0.4"/>
<feGaussianBlur stdDeviation="0.2"/>
<feComposite in2="hardAlpha" operator="out"/>
<feColorMatrix type="matrix" values="0 0 0 0 0 0 0 0 0 0 0 0 0 0 0 0 0 0 0.25 0"/>
<feBlend mode="normal" in2="BackgroundImageFix" result="effect1_dropShadow_291_3332"/>
<feBlend mode="normal" in="SourceGraphic" in2="effect1_dropShadow_291_3332" result="shape"/>
</filter>
<filter id="filter1_d_291_3332" x="5" y="6" width="9.95039" height="12.6184" filterUnits="userSpaceOnUse" color-interpolation-filters="sRGB">
<feFlood flood-opacity="0" result="BackgroundImageFix"/>
<feColorMatrix in="SourceAlpha" type="matrix" values="0 0 0 0 0 0 0 0 0 0 0 0 0 0 0 0 0 0 127 0" result="hardAlpha"/>
<feOffset dx="0.4" dy="0.4"/>
<feGaussianBlur stdDeviation="0.2"/>
<feComposite in2="hardAlpha" operator="out"/>
<feColorMatrix type="matrix" values="0 0 0 0 0 0 0 0 0 0 0 0 0 0 0 0 0 0 0.25 0"/>
<feBlend mode="normal" in2="BackgroundImageFix" result="effect1_dropShadow_291_3332"/>
<feBlend mode="normal" in="SourceGraphic" in2="effect1_dropShadow_291_3332" result="shape"/>
</filter>
<filter id="filter2_d_291_3332" x="9.78711" y="6" width="10.0129" height="9.04194" filterUnits="userSpaceOnUse" color-interpolation-filters="sRGB">
<feFlood flood-opacity="0" result="BackgroundImageFix"/>
<feColorMatrix in="SourceAlpha" type="matrix" values="0 0 0 0 0 0 0 0 0 0 0 0 0 0 0 0 0 0 127 0" result="hardAlpha"/>
<feOffset dx="0.4" dy="0.4"/>
<feGaussianBlur stdDeviation="0.2"/>
<feComposite in2="hardAlpha" operator="out"/>
<feColorMatrix type="matrix" values="0 0 0 0 0 0 0 0 0 0 0 0 0 0 0 0 0 0 0.25 0"/>
<feBlend mode="normal" in2="BackgroundImageFix" result="effect1_dropShadow_291_3332"/>
<feBlend mode="normal" in="SourceGraphic" in2="effect1_dropShadow_291_3332" result="shape"/>
</filter>
</defs>
</svg>
