<svg width="24" height="24" viewBox="0 0 24 24" fill="none" xmlns="http://www.w3.org/2000/svg">
<rect width="24" height="24" rx="6" fill="#32363B"/>
<g filter="url(#filter0_d_157_240)">
<path d="M13.957 4C13.6812 4.50967 13.4003 4.98518 13.1143 5.42871H8.62891C6.8616 5.42871 5.42871 6.8616 5.42871 8.62891V11.3086C4.9424 11.4355 4.46471 11.5309 4 11.6074V8.59961C4.00021 6.05941 6.05941 4.00021 8.59961 4H13.957ZM11.083 8.00879C10.1872 8.92703 9.26971 9.61432 8.35449 10.1338C8.89861 9.07307 9.89155 8.28138 11.083 8.00879Z" fill="#6B58A7"/>
<path d="M15.4004 4C17.9406 4.00021 19.9998 6.05941 20 8.59961V15.4004C19.9998 17.9406 17.9406 19.9998 15.4004 20H14.6846C14.4809 19.4891 14.2559 19.0135 14.0098 18.5713H15.3711C15.4263 18.5713 15.4816 18.5701 15.5361 18.5674C15.5634 18.566 15.5911 18.5646 15.6182 18.5625C15.6992 18.5563 15.7792 18.5463 15.8584 18.5342C15.8847 18.5302 15.9114 18.5261 15.9375 18.5215C16.4628 18.4277 16.9437 18.2053 17.3467 17.8887C17.4071 17.8412 17.4666 17.7919 17.5234 17.7402C17.5991 17.6715 17.6715 17.5991 17.7402 17.5234C17.7919 17.4666 17.8412 17.4071 17.8887 17.3467C18.2053 16.9437 18.4277 16.4628 18.5215 15.9375C18.5261 15.9114 18.5302 15.8847 18.5342 15.8584C18.5463 15.7792 18.5563 15.6992 18.5625 15.6182C18.5646 15.5911 18.566 15.5634 18.5674 15.5361C18.5701 15.4816 18.5713 15.4263 18.5713 15.3711V8.62891C18.5713 8.57367 18.5701 8.51842 18.5674 8.46387C18.566 8.43677 18.5645 8.40973 18.5625 8.38281C18.5563 8.30167 18.5463 8.22094 18.5342 8.1416C18.5302 8.11526 18.5261 8.08863 18.5215 8.0625C18.4277 7.53725 18.2053 7.05628 17.8887 6.65332C17.8412 6.59288 17.7919 6.53338 17.7402 6.47656C17.6715 6.40091 17.5991 6.32854 17.5234 6.25977C17.4666 6.20812 17.4071 6.15882 17.3467 6.11133C16.9437 5.79469 16.4628 5.57234 15.9375 5.47852C15.9114 5.47385 15.8847 5.46985 15.8584 5.46582C15.7792 5.45373 15.6992 5.44368 15.6182 5.4375C15.5911 5.43544 15.5634 5.434 15.5361 5.43262C15.4816 5.42985 15.4263 5.42871 15.3711 5.42871H13.1143C13.4003 4.98518 13.6812 4.50967 13.957 4H15.4004ZM12 7.90527C14.2617 7.90533 16.0947 9.73831 16.0947 12C16.0947 14.2225 14.3247 16.0297 12.1172 16.0918C10.9602 14.9715 9.62891 14.2078 8.2627 13.6738C8.03341 13.1627 7.9043 12.5965 7.9043 12C7.9043 11.3277 8.06737 10.6935 8.35449 10.1338C9.26971 9.61432 10.1872 8.92703 11.083 8.00879C11.3778 7.94133 11.6847 7.90528 12 7.90527ZM12 9.32617C10.5235 9.32618 9.32618 10.5235 9.32617 12C9.32617 13.4765 10.5235 14.6738 12 14.6738C13.4765 14.6738 14.6738 13.4765 14.6738 12C14.6738 10.5235 13.4765 9.32622 12 9.32617ZM5.42871 12.8555C4.9422 12.7555 4.4639 12.6733 4 12.6045V11.6074C4.46471 11.5309 4.9424 11.4355 5.42871 11.3086V12.8555ZM16.2861 6.76172C16.8118 6.76193 17.2381 7.18821 17.2383 7.71387C17.2383 8.23972 16.8119 8.66678 16.2861 8.66699C15.7602 8.66697 15.333 8.23984 15.333 7.71387C15.3332 7.18809 15.7603 6.76174 16.2861 6.76172Z" fill="#C07FA0"/>
<path d="M4 12.6045C4.46391 12.6733 4.9422 12.7555 5.42871 12.8555V15.3711C5.42871 17.1384 6.8616 18.5713 8.62891 18.5713H14.0088C14.255 19.0136 14.4809 19.489 14.6846 20H8.59961C6.05941 19.9998 4.00021 17.9406 4 15.4004V12.6045ZM8.2627 13.6738C9.62872 14.2077 10.9593 14.9718 12.1162 16.0918C12.0776 16.0929 12.0389 16.0957 12 16.0957C10.3348 16.0957 8.90278 15.1008 8.2627 13.6738Z" fill="#D2945A"/>
</g>
<defs>
<filter id="filter0_d_157_240" x="4" y="4" width="16.8" height="16.8" filterUnits="userSpaceOnUse" color-interpolation-filters="sRGB">
<feFlood flood-opacity="0" result="BackgroundImageFix"/>
<feColorMatrix in="SourceAlpha" type="matrix" values="0 0 0 0 0 0 0 0 0 0 0 0 0 0 0 0 0 0 127 0" result="hardAlpha"/>
<feOffset dx="0.4" dy="0.4"/>
<feGaussianBlur stdDeviation="0.2"/>
<feComposite in2="hardAlpha" operator="out"/>
<feColorMatrix type="matrix" values="0 0 0 0 0 0 0 0 0 0 0 0 0 0 0 0 0 0 0.25 0"/>
<feBlend mode="normal" in2="BackgroundImageFix" result="effect1_dropShadow_157_240"/>
<feBlend mode="normal" in="SourceGraphic" in2="effect1_dropShadow_157_240" result="shape"/>
</filter>
</defs>
</svg>
