<svg width="24" height="24" viewBox="0 0 24 24" fill="none" xmlns="http://www.w3.org/2000/svg">
<rect width="24" height="24" rx="6" fill="#32363B"/>
<g filter="url(#filter0_d_291_3205)">
<path d="M9.15078 12.4499C9.56498 12.4499 10.0008 12.8857 10.0008 13.2999C10.0008 13.7142 9.56499 14.1499 9.15078 14.1499C8.73657 14.1499 8.30078 13.7142 8.30078 13.2999C8.3008 12.8857 8.73658 12.4499 9.15078 12.4499ZM7.85078 11.0999C8.26498 11.0999 8.70076 11.5357 8.70078 11.9499C8.70078 12.3642 8.26499 12.7999 7.85078 12.7999C7.43657 12.7999 7.00078 12.3642 7.00078 11.9499C7.0008 11.5357 7.43658 11.0999 7.85078 11.0999ZM10.4508 11.0999C10.865 11.0999 11.3008 11.5357 11.3008 11.9499C11.3008 12.3642 10.865 12.7999 10.4508 12.7999C10.0366 12.7999 9.60078 12.3642 9.60078 11.9499C9.6008 11.5357 10.0366 11.0999 10.4508 11.0999ZM9.15078 9.69994C9.56498 9.69994 10.0008 10.1357 10.0008 10.5499C10.0008 10.9642 9.56499 11.3999 9.15078 11.3999C8.73657 11.3999 8.30078 10.9642 8.30078 10.5499C8.3008 10.1357 8.73658 9.69994 9.15078 9.69994Z" fill="#4F9B7A"/>
<path d="M7.32432 5.00024C7.49166 5.00425 7.65534 5.04986 7.80029 5.13285L13.0506 8.13754L15.7642 9.69057L18.3008 11.1423C18.4526 11.2293 18.5787 11.3544 18.6663 11.505C18.754 11.6556 18.8001 11.8265 18.8001 12.0003C18.8001 12.1742 18.754 12.345 18.6663 12.4956C18.5787 12.6462 18.4526 12.7713 18.3008 12.8583L15.7366 14.3258L13.5117 15.599L12.5299 11.2157C12.3404 9.99799 11.5919 9.39994 10.3596 9.39994H6.30078V5.99086C6.30087 5.84384 6.33397 5.69864 6.39766 5.56586C6.46134 5.43308 6.55406 5.31597 6.66904 5.22309L6.66973 5.22377C6.85376 5.07465 7.08578 4.99507 7.32432 5.00024Z" fill="#4F9B7A"/>
<path d="M11.5008 16.75L7.8002 18.8678C7.62295 18.9689 7.41867 19.0138 7.21494 18.9962C7.0112 18.9787 6.81775 18.8997 6.66074 18.7698L6.66094 18.7695C6.55913 18.6855 6.47494 18.5821 6.41357 18.4651C6.33981 18.3245 6.3011 18.1683 6.30078 18.0098V14.4999H8.82295C9.03302 14.4999 9.46909 14.7487 9.61875 14.8961L11.5008 16.75Z" fill="#4F9B7A"/>
</g>
<g filter="url(#filter1_d_291_3205)">
<path d="M10.3596 9.09998C11.5919 9.09998 12.6405 9.998 12.8299 11.2157L13.5117 15.599L13.0504 15.8631L11.2664 16.884L9.38438 15.0301C9.23471 14.8826 9.03303 14.8 8.82295 14.8H6.30078V9.09998H10.3596ZM9.15078 12.55C8.73657 12.55 8.40078 12.8858 8.40078 13.3C8.40078 13.7142 8.73657 14.05 9.15078 14.05C9.56499 14.05 9.90078 13.7142 9.90078 13.3C9.90078 12.8858 9.56499 12.55 9.15078 12.55ZM7.85078 11.2C7.43657 11.2 7.10078 11.5358 7.10078 11.95C7.10078 12.3642 7.43657 12.7 7.85078 12.7C8.26499 12.7 8.60078 12.3642 8.60078 11.95C8.60078 11.5358 8.26499 11.2 7.85078 11.2ZM10.4508 11.2C10.0366 11.2 9.70078 11.5358 9.70078 11.95C9.70078 12.3642 10.0366 12.7 10.4508 12.7C10.865 12.7 11.2008 12.3642 11.2008 11.95C11.2008 11.5358 10.865 11.2 10.4508 11.2ZM9.15078 9.79998C8.73657 9.79998 8.40078 10.1358 8.40078 10.55C8.40078 10.9642 8.73657 11.3 9.15078 11.3C9.56499 11.3 9.90078 10.9642 9.90078 10.55C9.90078 10.1358 9.56499 9.79998 9.15078 9.79998Z" fill="#F4F5F7"/>
</g>
<defs>
<filter id="filter0_d_291_3205" x="6.30078" y="5" width="13.3" height="14.8" filterUnits="userSpaceOnUse" color-interpolation-filters="sRGB">
<feFlood flood-opacity="0" result="BackgroundImageFix"/>
<feColorMatrix in="SourceAlpha" type="matrix" values="0 0 0 0 0 0 0 0 0 0 0 0 0 0 0 0 0 0 127 0" result="hardAlpha"/>
<feOffset dx="0.4" dy="0.4"/>
<feGaussianBlur stdDeviation="0.2"/>
<feComposite in2="hardAlpha" operator="out"/>
<feColorMatrix type="matrix" values="0 0 0 0 0 0 0 0 0 0 0 0 0 0 0 0 0 0 0.25 0"/>
<feBlend mode="normal" in2="BackgroundImageFix" result="effect1_dropShadow_291_3205"/>
<feBlend mode="normal" in="SourceGraphic" in2="effect1_dropShadow_291_3205" result="shape"/>
</filter>
<filter id="filter1_d_291_3205" x="6.30078" y="9.09998" width="8.01094" height="8.58394" filterUnits="userSpaceOnUse" color-interpolation-filters="sRGB">
<feFlood flood-opacity="0" result="BackgroundImageFix"/>
<feColorMatrix in="SourceAlpha" type="matrix" values="0 0 0 0 0 0 0 0 0 0 0 0 0 0 0 0 0 0 127 0" result="hardAlpha"/>
<feOffset dx="0.4" dy="0.4"/>
<feGaussianBlur stdDeviation="0.2"/>
<feComposite in2="hardAlpha" operator="out"/>
<feColorMatrix type="matrix" values="0 0 0 0 0 0 0 0 0 0 0 0 0 0 0 0 0 0 0.25 0"/>
<feBlend mode="normal" in2="BackgroundImageFix" result="effect1_dropShadow_291_3205"/>
<feBlend mode="normal" in="SourceGraphic" in2="effect1_dropShadow_291_3205" result="shape"/>
</filter>
</defs>
</svg>
