<svg width="24" height="24" viewBox="0 0 24 24" fill="none" xmlns="http://www.w3.org/2000/svg">
<rect width="24" height="24" rx="6" fill="#F4F5F7"/>
<g filter="url(#filter0_d_157_226)">
<path d="M16.5 6.3718C16.5 6.64794 16.2761 6.87179 16 6.87179H15.0273C13.988 6.87179 13.1455 7.71671 13.1455 8.75897V9.65385C13.1455 9.92999 13.3693 10.1538 13.6455 10.1538H15.8969C16.2101 10.1538 16.4463 10.4387 16.3882 10.7465L16.0041 12.7824C15.9595 13.0187 15.7532 13.1897 15.5128 13.1897H13.6455C13.3693 13.1897 13.1455 13.4136 13.1455 13.6897V19.5C13.1455 19.7761 12.9216 20 12.6455 20H10.0455C9.76931 20 9.54545 19.7761 9.54545 19.5V13.6897C9.54545 13.4136 9.3216 13.1897 9.04545 13.1897H8C7.72386 13.1897 7.5 12.9659 7.5 12.6897V10.6538C7.5 10.3777 7.72386 10.1538 8 10.1538H9.04545C9.3216 10.1538 9.54545 9.92999 9.54545 9.65385V8.02051C9.54545 5.80005 11.3404 4 13.5545 4H16C16.2761 4 16.5 4.22386 16.5 4.5V6.3718Z" fill="#3F79AD"/>
</g>
<defs>
<filter id="filter0_d_157_226" x="7.5" y="4" width="9.8" height="16.8" filterUnits="userSpaceOnUse" color-interpolation-filters="sRGB">
<feFlood flood-opacity="0" result="BackgroundImageFix"/>
<feColorMatrix in="SourceAlpha" type="matrix" values="0 0 0 0 0 0 0 0 0 0 0 0 0 0 0 0 0 0 127 0" result="hardAlpha"/>
<feOffset dx="0.4" dy="0.4"/>
<feGaussianBlur stdDeviation="0.2"/>
<feComposite in2="hardAlpha" operator="out"/>
<feColorMatrix type="matrix" values="0 0 0 0 0 0 0 0 0 0 0 0 0 0 0 0 0 0 0.25 0"/>
<feBlend mode="normal" in2="BackgroundImageFix" result="effect1_dropShadow_157_226"/>
<feBlend mode="normal" in="SourceGraphic" in2="effect1_dropShadow_157_226" result="shape"/>
</filter>
</defs>
</svg>
