<svg width="24" height="24" viewBox="0 0 24 24" fill="none" xmlns="http://www.w3.org/2000/svg">
<rect width="24" height="24" rx="6" fill="#32363B"/>
<g filter="url(#filter0_d_101_703)">
<path fill-rule="evenodd" clip-rule="evenodd" d="M19 12.0501C19 14.7633 14.6941 19.1 12 19.1C9.30595 19.1 5 14.7633 5 12.0501C5 9.33683 9.30595 5 12 5C14.6941 5 19 9.33683 19 12.0501ZM14.8 12.0501C14.8 13.1354 13.0776 14.87 12 14.87C10.9224 14.87 9.2 13.1354 9.2 12.0501C9.2 10.9648 10.9224 9.23003 12 9.23003C13.0776 9.23003 14.8 10.9648 14.8 12.0501Z" fill="#3F79AD"/>
</g>
<defs>
<filter id="filter0_d_101_703" x="5" y="5" width="14.8" height="14.8996" filterUnits="userSpaceOnUse" color-interpolation-filters="sRGB">
<feFlood flood-opacity="0" result="BackgroundImageFix"/>
<feColorMatrix in="SourceAlpha" type="matrix" values="0 0 0 0 0 0 0 0 0 0 0 0 0 0 0 0 0 0 127 0" result="hardAlpha"/>
<feOffset dx="0.4" dy="0.4"/>
<feGaussianBlur stdDeviation="0.2"/>
<feComposite in2="hardAlpha" operator="out"/>
<feColorMatrix type="matrix" values="0 0 0 0 0 0 0 0 0 0 0 0 0 0 0 0 0 0 0.25 0"/>
<feBlend mode="normal" in2="BackgroundImageFix" result="effect1_dropShadow_101_703"/>
<feBlend mode="normal" in="SourceGraphic" in2="effect1_dropShadow_101_703" result="shape"/>
</filter>
</defs>
</svg>
