<svg width="24" height="24" viewBox="0 0 24 24" fill="none" xmlns="http://www.w3.org/2000/svg">
<g clip-path="url(#clip0_202_1922)">
<rect width="24" height="24" rx="6" fill="#32363B"/>
<g filter="url(#filter0_d_202_1922)">
<path d="M3.91797 17.056C4.33062 16.7496 5.16554 17.0464 5.69336 17.6782C6.61464 18.7983 6.96975 19.0951 7.49756 19.21C7.9678 19.3057 8.39967 19.2673 9.05225 19.0759C9.13862 19.0471 9.25375 18.8462 9.31133 18.6164C9.36891 18.3962 9.52251 18.0612 9.64727 17.8793L9.83838 17.6012C9.85782 17.6037 9.8768 17.606 9.89522 17.6079C11.5042 17.775 12.4608 17.7559 14.0713 17.5982C14.0794 17.5974 14.0877 17.5963 14.096 17.5954L14.3593 18.0611C14.3593 18.0611 14.6395 18.5998 14.6663 18.9753C14.7258 19.8088 14.7508 19.8 14.7508 20.75C14.7508 21.6187 14.7333 22.8637 14.7335 22.8669V24.4H9.14824V20.5885L8.30371 20.6363C7.31525 20.6842 6.54746 20.5119 6.08682 20.1194C5.92368 19.9854 5.60705 19.5259 5.38633 19.1047C5.02165 18.3963 4.75294 18.0707 4.00439 17.4102C3.75489 17.19 3.74524 17.1804 3.91797 17.056Z" fill="#F4F5F7"/>
</g>
<g filter="url(#filter1_d_202_1922)">
<path d="M9.89444 17.6079C9.58721 17.576 9.11861 17.4539 9.11861 17.4539C7.49032 17.1169 6.48462 16.5297 5.82372 15.5285C5.21072 14.6043 5.00958 13.8053 5 12.3131C5 10.9076 5.15325 10.3299 5.75668 9.54054C6.02486 9.19397 6.0536 9.08808 5.97697 8.88591C5.8333 8.53934 5.87161 7.07605 6.02486 6.63322C6.14938 6.3059 6.21643 6.24814 6.47504 6.21926C6.90605 6.17112 7.71062 6.45031 8.52476 6.9124L9.22397 7.31673L9.83697 7.17232C10.7086 6.97016 13.3234 6.97979 14.1088 7.17232L14.7027 7.32635L15.2582 6.98941C15.9957 6.54657 16.9344 6.20001 17.4037 6.20001C17.7743 6.20001 17.7772 6.20948 17.9269 6.68894L17.9305 6.7006C18.0933 7.26859 18.1221 8.29867 17.9784 8.78964C17.9018 9.07845 17.9209 9.16509 18.1317 9.44427C19.1757 10.8305 19.2906 13.1314 18.4094 15.0183C17.8156 16.2601 16.5608 17.1265 14.8751 17.4442C14.8751 17.4442 14.3889 17.5671 14.0705 17.5983C12.46 17.7559 11.5034 17.775 9.89444 17.6079Z" fill="#F4F5F7"/>
</g>
</g>
<defs>
<filter id="filter0_d_202_1922" x="3.80078" y="16.9344" width="11.7492" height="8.26555" filterUnits="userSpaceOnUse" color-interpolation-filters="sRGB">
<feFlood flood-opacity="0" result="BackgroundImageFix"/>
<feColorMatrix in="SourceAlpha" type="matrix" values="0 0 0 0 0 0 0 0 0 0 0 0 0 0 0 0 0 0 127 0" result="hardAlpha"/>
<feOffset dx="0.4" dy="0.4"/>
<feGaussianBlur stdDeviation="0.2"/>
<feComposite in2="hardAlpha" operator="out"/>
<feColorMatrix type="matrix" values="0 0 0 0 0 0 0 0 0 0 0 0 0 0 0 0 0 0 0.25 0"/>
<feBlend mode="normal" in2="BackgroundImageFix" result="effect1_dropShadow_202_1922"/>
<feBlend mode="normal" in="SourceGraphic" in2="effect1_dropShadow_202_1922" result="shape"/>
</filter>
<filter id="filter1_d_202_1922" x="5" y="6.20001" width="14.8" height="12.3251" filterUnits="userSpaceOnUse" color-interpolation-filters="sRGB">
<feFlood flood-opacity="0" result="BackgroundImageFix"/>
<feColorMatrix in="SourceAlpha" type="matrix" values="0 0 0 0 0 0 0 0 0 0 0 0 0 0 0 0 0 0 127 0" result="hardAlpha"/>
<feOffset dx="0.4" dy="0.4"/>
<feGaussianBlur stdDeviation="0.2"/>
<feComposite in2="hardAlpha" operator="out"/>
<feColorMatrix type="matrix" values="0 0 0 0 0 0 0 0 0 0 0 0 0 0 0 0 0 0 0.25 0"/>
<feBlend mode="normal" in2="BackgroundImageFix" result="effect1_dropShadow_202_1922"/>
<feBlend mode="normal" in="SourceGraphic" in2="effect1_dropShadow_202_1922" result="shape"/>
</filter>
<clipPath id="clip0_202_1922">
<rect width="24" height="24" rx="6" fill="white"/>
</clipPath>
</defs>
</svg>
