<svg width="24" height="24" viewBox="0 0 24 24" fill="none" xmlns="http://www.w3.org/2000/svg">
<rect width="24" height="24" rx="6" fill="#32363B"/>
<g filter="url(#filter0_d_101_789)">
<path d="M4.1812 12.6865C4.1478 12.6865 4.12131 12.7125 4.11701 12.7496L4 13.6449L4.11701 14.5248C4.12151 14.5618 4.14781 14.5877 4.1812 14.5877C4.21355 14.5877 4.23987 14.562 4.24503 14.5251L4.38373 13.6449L4.24503 12.7495C4.24003 12.7125 4.21338 12.6865 4.1812 12.6865ZM4.83921 12.1974C4.83371 12.1589 4.80636 12.1324 4.77261 12.1324C4.73871 12.1324 4.71067 12.1598 4.70602 12.1974C4.70602 12.1977 4.54875 13.6449 4.54875 13.6449L4.70602 15.0603C4.71052 15.0983 4.73852 15.1256 4.77261 15.1256C4.80617 15.1256 4.83354 15.099 4.83904 15.0607L5.01799 13.6449L4.83921 12.1974ZM7.31774 10.8622C7.25321 10.8622 7.19986 10.9154 7.19676 10.983L7.0715 13.6461L7.19676 15.3671C7.20026 15.4343 7.25321 15.4874 7.31774 15.4874C7.38192 15.4874 7.43509 15.4342 7.43888 15.3667V15.3682L7.58049 13.647L7.43888 10.984C7.43488 10.9164 7.38192 10.8632 7.31774 10.8632V10.8622ZM6.03492 11.7878C5.98537 11.7878 5.94492 11.8277 5.94096 11.8809L5.79986 13.6454L5.94096 15.3526C5.94496 15.4055 5.98536 15.4453 6.03492 15.4453C6.08397 15.4453 6.1244 15.4054 6.1287 15.3526L6.28907 13.6454L6.1287 11.8805C6.1242 11.8277 6.08395 11.7878 6.03492 11.7878ZM8.62135 15.4872C8.70136 15.4872 8.76641 15.4223 8.76968 15.3391L8.89254 13.647L8.76985 10.1015C8.76635 10.0183 8.70153 9.95327 8.62152 9.95327C8.54082 9.95327 8.4756 10.0184 8.47302 10.1016C8.47302 10.1019 8.3641 13.6468 8.3641 13.6468L8.47302 15.3396C8.47552 15.4221 8.54082 15.4872 8.62135 15.4872ZM11.2902 15.4951C11.4003 15.4951 11.4912 15.4038 11.4932 15.2914L11.5789 13.6479L11.4932 9.55309C11.4917 9.44095 11.4003 9.34943 11.2902 9.34943C11.1799 9.34943 11.0889 9.44078 11.0871 9.55327L11.0106 13.6465C11.0106 13.649 11.0871 15.2925 11.0871 15.2925C11.0886 15.4037 11.1801 15.4951 11.2902 15.4951ZM9.94562 15.4888C10.0415 15.4888 10.1187 15.4113 10.1213 15.3125V15.314L10.2256 13.6476L10.1211 10.0764C10.1186 9.97762 10.0413 9.90031 9.94545 9.90031C9.84892 9.90031 9.77165 9.97762 9.76959 10.0764L9.67684 13.6478L9.76976 15.3139C9.77176 15.4116 9.84909 15.4891 9.94562 15.4891V15.4888ZM6.67383 15.4732C6.73079 15.4732 6.7769 15.4273 6.7812 15.3668L6.93228 13.6454L6.7812 12.008C6.7772 11.9475 6.73096 11.9019 6.67383 11.9019C6.61602 11.9019 6.5699 11.9478 6.56629 12.0087L6.43328 13.6454L6.56629 15.3666C6.57029 15.4273 6.61604 15.4732 6.67383 15.4732ZM5.40116 15.3789C5.44281 15.3789 5.47653 15.3458 5.48135 15.3L5.65102 13.6451L5.48152 11.9277C5.47652 11.8817 5.44282 11.8486 5.40116 11.8486C5.35901 11.8486 5.32528 11.8819 5.32098 11.9277C5.32098 11.9279 5.17162 13.6451 5.17162 13.6451L5.32098 15.2997C5.32498 15.3456 5.35883 15.3789 5.40116 15.3789ZM10.6152 10.0166C10.5111 10.0166 10.4277 10.0999 10.4256 10.2067L10.3409 13.6475L10.4256 15.3032C10.4276 15.4086 10.511 15.492 10.6152 15.492C10.7192 15.492 10.8021 15.4088 10.8045 15.302V15.3035L10.8995 13.6478L10.8045 10.2067C10.802 10.1002 10.7192 10.0169 10.6152 10.0169V10.0166ZM7.96704 15.4905C8.03897 15.4905 8.09834 15.4314 8.10178 15.356L8.23393 13.6464L8.10178 10.3743C8.09828 10.2987 8.03897 10.2398 7.96704 10.2398C7.89443 10.2398 7.83524 10.2989 7.83214 10.3743C7.83214 10.3745 7.71513 13.6464 7.71513 13.6464L7.83232 15.3567C7.83532 15.4314 7.89443 15.4905 7.96704 15.4905ZM9.44276 15.3291V15.3276L9.55633 13.6463L9.44276 9.98141C9.43976 9.89041 9.36877 9.819 9.28084 9.819C9.19239 9.819 9.12116 9.89025 9.11875 9.98141L9.01791 13.6462L9.11892 15.3284C9.12142 15.4185 9.19256 15.4898 9.28084 15.4898C9.36895 15.4898 9.43984 15.4185 9.44276 15.3279V15.3294V15.3291ZM18.0324 11.5344C17.7627 11.5344 17.5055 11.5893 17.2711 11.6883C17.1145 9.90159 15.6271 8.5 13.8128 8.5C13.3688 8.5 12.9361 8.58805 12.5539 8.73694C12.4054 8.79483 12.3658 8.85447 12.3644 8.97008V15.2622C12.3659 15.3835 12.4594 15.4846 12.5769 15.4965C12.5819 15.498 17.997 15.5 18.032 15.5C19.1188 15.5 20 14.6124 20 13.5174C20 12.4225 19.119 11.5346 18.0322 11.5346L18.0324 11.5344ZM11.9623 8.96469C11.8441 8.96469 11.747 9.06245 11.7453 9.18256L11.6565 13.6485L11.7455 15.2693C11.747 15.3877 11.8441 15.4853 11.9623 15.4853C12.0802 15.4853 12.1772 15.3877 12.1789 15.2676V15.2691L12.2755 13.648L12.1789 9.18178C12.1774 9.06201 12.0802 8.96425 11.9623 8.96425V8.96469Z" fill="#B0733F"/>
</g>
<defs>
<filter id="filter0_d_101_789" x="4" y="8.5" width="16.8" height="7.8" filterUnits="userSpaceOnUse" color-interpolation-filters="sRGB">
<feFlood flood-opacity="0" result="BackgroundImageFix"/>
<feColorMatrix in="SourceAlpha" type="matrix" values="0 0 0 0 0 0 0 0 0 0 0 0 0 0 0 0 0 0 127 0" result="hardAlpha"/>
<feOffset dx="0.4" dy="0.4"/>
<feGaussianBlur stdDeviation="0.2"/>
<feComposite in2="hardAlpha" operator="out"/>
<feColorMatrix type="matrix" values="0 0 0 0 0 0 0 0 0 0 0 0 0 0 0 0 0 0 0.25 0"/>
<feBlend mode="normal" in2="BackgroundImageFix" result="effect1_dropShadow_101_789"/>
<feBlend mode="normal" in="SourceGraphic" in2="effect1_dropShadow_101_789" result="shape"/>
</filter>
</defs>
</svg>
