<svg width="24" height="24" viewBox="0 0 24 24" fill="none" xmlns="http://www.w3.org/2000/svg">
<rect width="24" height="24" rx="6" fill="#32363B"/>
<g filter="url(#filter0_d_227_381)">
<path d="M6.37261 15.8181C6.08704 15.8158 5.81739 15.9438 5.6408 16.1825L5.5 16.3726L6.41318 16.5969L6.94136 17.3414L8.06374 15.8181H6.37261Z" fill="#B04F58"/>
<path d="M11.8924 18.9999C11.6029 18.9975 11.3316 18.8687 11.1574 18.6348L9.35812 16.2063C9.18391 15.9716 8.91266 15.8213 8.62312 15.8181H6.45312C6.74267 15.8205 7.01392 15.9518 7.18812 16.1856L8.98744 18.6141C9.16164 18.8488 9.43289 18.9967 9.72244 18.9999H11.8924Z" fill="#D06F78"/>
<path d="M12.6494 18.6409C12.4704 18.8739 12.1936 19.0026 11.9033 19.0002H10.1836L11.4062 17.3977L11.7539 17.8508C11.9189 18.0664 12.1538 18.1873 12.3975 18.2141L12.502 18.22C12.7818 18.22 13.0615 18.0964 13.25 17.8508L14.4336 16.3069L12.6494 18.6409Z" fill="#B04F58"/>
</g>
<g filter="url(#filter1_d_227_381)">
<path d="M6.45703 10.5658C6.46339 10.4576 6.48805 10.3502 6.5318 10.2492C6.58351 10.1299 6.65987 10.0193 6.76169 9.92624L11.8637 5.24818C12.0435 5.08273 12.2718 5 12.5009 5L12.8175 7.86602L12.5009 10.0909L9.95861 10.7328L6.45703 10.5658Z" fill="#6B7078"/>
<path d="M18.5431 10.5658C18.5367 10.4576 18.512 10.3502 18.4683 10.2492C18.4166 10.1299 18.3402 10.0193 18.2384 9.92624L13.1364 5.24818C12.9566 5.08273 12.7283 5 12.5 5V10.0909L15.3764 10.7328L18.5431 10.5658Z" fill="#8A8F98"/>
<path d="M18.5417 10.5657L15.6168 10.3096L12.4979 10.0908L12.1797 11.9999C12.1797 11.9999 12.4979 13.8509 12.4979 13.909C12.4979 13.9519 13.769 14.2192 13.769 14.2192L16.0997 14.1285L16.5833 13.4985L18.3484 11.1965C18.4924 11.0104 18.5552 10.7853 18.5417 10.5657Z" fill="#D06F78"/>
<path d="M6.45492 10.5657C6.44139 10.7853 6.50424 11.0104 6.64821 11.1973L8.41332 13.4993L8.89696 14.1293L10.9039 14.2351L12.4988 13.909V11.8384V10.0908L6.45492 10.5657Z" fill="#B04F58"/>
<path d="M12.501 13.9092C12.3189 13.9092 8.89844 14.1295 8.89844 14.1295L11.7525 17.8506C11.941 18.0972 12.221 18.2197 12.501 18.2197L12.824 15.5033C12.824 15.5041 12.5766 13.9092 12.501 13.9092Z" fill="#6B7078"/>
<path d="M12.5 18.2197C12.78 18.2197 13.06 18.0964 13.2485 17.8506L16.1026 14.1295L12.5 13.9092V18.2197Z" fill="#8A8F98"/>
</g>
<defs>
<filter id="filter0_d_227_381" x="5.5" y="15.8181" width="9.73359" height="3.98213" filterUnits="userSpaceOnUse" color-interpolation-filters="sRGB">
<feFlood flood-opacity="0" result="BackgroundImageFix"/>
<feColorMatrix in="SourceAlpha" type="matrix" values="0 0 0 0 0 0 0 0 0 0 0 0 0 0 0 0 0 0 127 0" result="hardAlpha"/>
<feOffset dx="0.4" dy="0.4"/>
<feGaussianBlur stdDeviation="0.2"/>
<feComposite in2="hardAlpha" operator="out"/>
<feColorMatrix type="matrix" values="0 0 0 0 0 0 0 0 0 0 0 0 0 0 0 0 0 0 0.25 0"/>
<feBlend mode="normal" in2="BackgroundImageFix" result="effect1_dropShadow_227_381"/>
<feBlend mode="normal" in="SourceGraphic" in2="effect1_dropShadow_227_381" result="shape"/>
</filter>
<filter id="filter1_d_227_381" x="6.45312" y="5" width="12.8898" height="14.0197" filterUnits="userSpaceOnUse" color-interpolation-filters="sRGB">
<feFlood flood-opacity="0" result="BackgroundImageFix"/>
<feColorMatrix in="SourceAlpha" type="matrix" values="0 0 0 0 0 0 0 0 0 0 0 0 0 0 0 0 0 0 127 0" result="hardAlpha"/>
<feOffset dx="0.4" dy="0.4"/>
<feGaussianBlur stdDeviation="0.2"/>
<feComposite in2="hardAlpha" operator="out"/>
<feColorMatrix type="matrix" values="0 0 0 0 0 0 0 0 0 0 0 0 0 0 0 0 0 0 0.25 0"/>
<feBlend mode="normal" in2="BackgroundImageFix" result="effect1_dropShadow_227_381"/>
<feBlend mode="normal" in="SourceGraphic" in2="effect1_dropShadow_227_381" result="shape"/>
</filter>
</defs>
</svg>
