<svg width="24" height="24" viewBox="0 0 24 24" fill="none" xmlns="http://www.w3.org/2000/svg">
<rect width="24" height="24" rx="6" fill="#32363B"/>
<g filter="url(#filter0_d_279_660)">
<path d="M14.8008 5C14.4527 5 14.1188 5.13828 13.8727 5.38442C13.6266 5.63056 13.4883 5.9644 13.4883 6.3125V17.6875C13.4883 18.0356 13.6266 18.3694 13.8727 18.6156C14.1188 18.8617 14.4527 19 14.8008 19C15.1489 19 15.4827 18.8617 15.7289 18.6156C15.975 18.3694 16.1133 18.0356 16.1133 17.6875V6.3125C16.1133 5.9644 15.975 5.63056 15.7289 5.38442C15.4827 5.13828 15.1489 5 14.8008 5Z" fill="#4F9B7A"/>
</g>
<g filter="url(#filter1_d_279_660)">
<path d="M9.19922 5C8.85112 5 8.51728 5.13828 8.27114 5.38442C8.025 5.63056 7.88672 5.9644 7.88672 6.3125V17.6875C7.88672 18.0356 8.025 18.3694 8.27114 18.6156C8.51728 18.8617 8.85112 19 9.19922 19C9.54732 19 9.88116 18.8617 10.1273 18.6156C10.3734 18.3694 10.5117 18.0356 10.5117 17.6875V6.3125C10.5117 5.9644 10.3734 5.63056 10.1273 5.38442C9.88116 5.13828 9.54732 5 9.19922 5Z" fill="#4F9B7A"/>
</g>
<g filter="url(#filter2_d_279_660)">
<path d="M6.3125 13.4875C5.9644 13.4875 5.63056 13.6258 5.38442 13.872C5.13828 14.1181 5 14.452 5 14.8C5 15.1481 5.13828 15.482 5.38442 15.7281C5.63056 15.9743 5.9644 16.1125 6.3125 16.1125H17.6875C18.0356 16.1125 18.3694 15.9743 18.6156 15.7281C18.8617 15.482 19 15.1481 19 14.8C19 14.452 18.8617 14.1181 18.6156 13.872C18.3694 13.6258 18.0356 13.4875 17.6875 13.4875H6.3125Z" fill="#6FBF9A"/>
</g>
<g filter="url(#filter3_d_279_660)">
<path d="M6.3125 7.88745C5.9644 7.88745 5.63056 8.02573 5.38442 8.27187C5.13828 8.51802 5 8.85185 5 9.19995C5 9.54805 5.13828 9.88189 5.38442 10.128C5.63056 10.3742 5.9644 10.5125 6.3125 10.5125H17.6875C18.0356 10.5125 18.3694 10.3742 18.6156 10.128C18.8617 9.88189 19 9.54805 19 9.19995C19 8.85185 18.8617 8.51802 18.6156 8.27187C18.3694 8.02573 18.0356 7.88745 17.6875 7.88745H6.3125Z" fill="#6FBF9A"/>
</g>
<defs>
<filter id="filter0_d_279_660" x="13.4883" y="5" width="3.425" height="14.8" filterUnits="userSpaceOnUse" color-interpolation-filters="sRGB">
<feFlood flood-opacity="0" result="BackgroundImageFix"/>
<feColorMatrix in="SourceAlpha" type="matrix" values="0 0 0 0 0 0 0 0 0 0 0 0 0 0 0 0 0 0 127 0" result="hardAlpha"/>
<feOffset dx="0.4" dy="0.4"/>
<feGaussianBlur stdDeviation="0.2"/>
<feComposite in2="hardAlpha" operator="out"/>
<feColorMatrix type="matrix" values="0 0 0 0 0 0 0 0 0 0 0 0 0 0 0 0 0 0 0.25 0"/>
<feBlend mode="normal" in2="BackgroundImageFix" result="effect1_dropShadow_279_660"/>
<feBlend mode="normal" in="SourceGraphic" in2="effect1_dropShadow_279_660" result="shape"/>
</filter>
<filter id="filter1_d_279_660" x="7.88672" y="5" width="3.425" height="14.8" filterUnits="userSpaceOnUse" color-interpolation-filters="sRGB">
<feFlood flood-opacity="0" result="BackgroundImageFix"/>
<feColorMatrix in="SourceAlpha" type="matrix" values="0 0 0 0 0 0 0 0 0 0 0 0 0 0 0 0 0 0 127 0" result="hardAlpha"/>
<feOffset dx="0.4" dy="0.4"/>
<feGaussianBlur stdDeviation="0.2"/>
<feComposite in2="hardAlpha" operator="out"/>
<feColorMatrix type="matrix" values="0 0 0 0 0 0 0 0 0 0 0 0 0 0 0 0 0 0 0.25 0"/>
<feBlend mode="normal" in2="BackgroundImageFix" result="effect1_dropShadow_279_660"/>
<feBlend mode="normal" in="SourceGraphic" in2="effect1_dropShadow_279_660" result="shape"/>
</filter>
<filter id="filter2_d_279_660" x="5" y="13.4875" width="14.8" height="3.425" filterUnits="userSpaceOnUse" color-interpolation-filters="sRGB">
<feFlood flood-opacity="0" result="BackgroundImageFix"/>
<feColorMatrix in="SourceAlpha" type="matrix" values="0 0 0 0 0 0 0 0 0 0 0 0 0 0 0 0 0 0 127 0" result="hardAlpha"/>
<feOffset dx="0.4" dy="0.4"/>
<feGaussianBlur stdDeviation="0.2"/>
<feComposite in2="hardAlpha" operator="out"/>
<feColorMatrix type="matrix" values="0 0 0 0 0 0 0 0 0 0 0 0 0 0 0 0 0 0 0.25 0"/>
<feBlend mode="normal" in2="BackgroundImageFix" result="effect1_dropShadow_279_660"/>
<feBlend mode="normal" in="SourceGraphic" in2="effect1_dropShadow_279_660" result="shape"/>
</filter>
<filter id="filter3_d_279_660" x="5" y="7.88745" width="14.8" height="3.425" filterUnits="userSpaceOnUse" color-interpolation-filters="sRGB">
<feFlood flood-opacity="0" result="BackgroundImageFix"/>
<feColorMatrix in="SourceAlpha" type="matrix" values="0 0 0 0 0 0 0 0 0 0 0 0 0 0 0 0 0 0 127 0" result="hardAlpha"/>
<feOffset dx="0.4" dy="0.4"/>
<feGaussianBlur stdDeviation="0.2"/>
<feComposite in2="hardAlpha" operator="out"/>
<feColorMatrix type="matrix" values="0 0 0 0 0 0 0 0 0 0 0 0 0 0 0 0 0 0 0.25 0"/>
<feBlend mode="normal" in2="BackgroundImageFix" result="effect1_dropShadow_279_660"/>
<feBlend mode="normal" in="SourceGraphic" in2="effect1_dropShadow_279_660" result="shape"/>
</filter>
</defs>
</svg>
