<svg width="24" height="24" viewBox="0 0 24 24" fill="none" xmlns="http://www.w3.org/2000/svg">
<rect width="24" height="24" rx="6" fill="#32363B"/>
<g filter="url(#filter0_d_279_677)">
<path d="M10.8488 16.8912C8.53486 16.8472 7.59565 16.8084 7.02132 16.7329C6.60015 16.6776 6.39331 16.6236 6.16004 16.5083C5.77475 16.3178 5.53513 16.0522 5.36221 15.6239C5.20411 15.2323 5.13973 14.9213 5.08065 14.2635C5.01398 13.5213 5.00877 13.3869 5.00184 12.2304C4.99369 10.8704 5.0101 10.4248 5.10144 9.52205C5.14933 9.04881 5.21913 8.7343 5.3503 8.40078C5.46975 8.09705 5.57881 7.92943 5.77714 7.74471C6.02641 7.51255 6.30017 7.37142 6.64577 7.29692C7.16161 7.18571 9.49315 7.09998 12.0012 7.09998C14.5093 7.09998 16.8408 7.18571 17.3566 7.29692C17.7297 7.37734 18.0035 7.52589 18.2706 7.7928C18.4797 8.0017 18.5874 8.19152 18.7156 8.57709C18.8476 8.97437 18.8982 9.32597 18.9733 10.3664C19.0089 10.8605 19.0089 13.135 18.9733 13.6288C18.9316 14.2065 18.8804 14.721 18.8464 14.9051C18.7588 15.3784 18.5868 15.8215 18.3929 16.0734C18.2598 16.2463 17.9972 16.4523 17.7775 16.556C17.5551 16.661 17.3433 16.713 17.0017 16.7466C15.9432 16.8506 12.711 16.9266 10.8488 16.8912Z" fill="#B04F58"/>
</g>
<g filter="url(#filter1_d_279_677)">
<path d="M13.5694 11.7411C13.7674 11.857 13.7674 12.1431 13.5694 12.2589L10.8758 13.8357C10.6758 13.9528 10.4242 13.8085 10.4242 13.5768V10.4233C10.4242 10.1915 10.6758 10.0473 10.8758 10.1643L13.5694 11.7411Z" fill="#F4F5F7"/>
</g>
<defs>
<filter id="filter0_d_279_677" x="5" y="7.09998" width="14.8" height="10.6" filterUnits="userSpaceOnUse" color-interpolation-filters="sRGB">
<feFlood flood-opacity="0" result="BackgroundImageFix"/>
<feColorMatrix in="SourceAlpha" type="matrix" values="0 0 0 0 0 0 0 0 0 0 0 0 0 0 0 0 0 0 127 0" result="hardAlpha"/>
<feOffset dx="0.4" dy="0.4"/>
<feGaussianBlur stdDeviation="0.2"/>
<feComposite in2="hardAlpha" operator="out"/>
<feColorMatrix type="matrix" values="0 0 0 0 0 0 0 0 0 0 0 0 0 0 0 0 0 0 0.25 0"/>
<feBlend mode="normal" in2="BackgroundImageFix" result="effect1_dropShadow_279_677"/>
<feBlend mode="normal" in="SourceGraphic" in2="effect1_dropShadow_279_677" result="shape"/>
</filter>
<filter id="filter1_d_279_677" x="10.4238" y="10.1228" width="4.09492" height="4.55439" filterUnits="userSpaceOnUse" color-interpolation-filters="sRGB">
<feFlood flood-opacity="0" result="BackgroundImageFix"/>
<feColorMatrix in="SourceAlpha" type="matrix" values="0 0 0 0 0 0 0 0 0 0 0 0 0 0 0 0 0 0 127 0" result="hardAlpha"/>
<feOffset dx="0.4" dy="0.4"/>
<feGaussianBlur stdDeviation="0.2"/>
<feComposite in2="hardAlpha" operator="out"/>
<feColorMatrix type="matrix" values="0 0 0 0 0 0 0 0 0 0 0 0 0 0 0 0 0 0 0.25 0"/>
<feBlend mode="normal" in2="BackgroundImageFix" result="effect1_dropShadow_279_677"/>
<feBlend mode="normal" in="SourceGraphic" in2="effect1_dropShadow_279_677" result="shape"/>
</filter>
</defs>
</svg>
