<svg width="24" height="24" viewBox="0 0 24 24" fill="none" xmlns="http://www.w3.org/2000/svg">
<rect width="24" height="24" rx="6" fill="#32363B"/>
<g filter="url(#filter0_d_289_1136)">
<path d="M13.2843 6.19995C13.9049 6.19995 14.4696 6.55889 14.733 7.12085L14.8759 7.42544C14.9526 7.58918 15.1557 7.64829 15.3083 7.55132L16.784 6.61392C16.9646 6.4992 17.1684 6.42607 17.3808 6.39985C18.241 6.29368 19 6.96472 19 7.83149V16.1374C19 16.9777 18.2744 17.6342 17.4383 17.5506C17.2045 17.5273 16.9802 17.4462 16.7854 17.3149L15.8 16.65L15.8274 9.84048C15.8274 8.96943 15.2753 8.48875 14.4086 8.57534C14.1717 8.59901 13.944 8.67983 13.7451 8.81079L12.3019 9.76138C12.1416 9.86692 11.9247 9.79689 11.8564 9.61753L11.7907 9.44458C11.5545 8.82389 10.9594 8.41363 10.2953 8.41362H5L5 7.79995C5 6.9163 5.71634 6.19995 6.6 6.19995H13.2843Z" fill="#8A78C8"/>
</g>
<g filter="url(#filter1_d_289_1136)">
<path d="M16.0274 16.8034V9.84061C16.0274 8.96955 15.2753 8.28888 14.4086 8.37548C14.1716 8.39915 13.944 8.47994 13.7451 8.61092L12.3019 9.56144C12.1416 9.66701 11.9247 9.59698 11.8565 9.41759L11.7907 9.24472C11.5545 8.62401 10.9594 8.21375 10.2953 8.21375H5V16.1069C5 16.9906 5.71634 17.7069 6.6 17.7069H13.2299C13.829 17.7069 14.3779 17.3722 14.6523 16.8396L14.866 16.4247C14.9483 16.265 15.1514 16.2129 15.3004 16.3133L16.0274 16.8034Z" fill="#4F5F9F"/>
</g>
<defs>
<filter id="filter0_d_289_1136" x="5" y="6.19995" width="14.8" height="12.1579" filterUnits="userSpaceOnUse" color-interpolation-filters="sRGB">
<feFlood flood-opacity="0" result="BackgroundImageFix"/>
<feColorMatrix in="SourceAlpha" type="matrix" values="0 0 0 0 0 0 0 0 0 0 0 0 0 0 0 0 0 0 127 0" result="hardAlpha"/>
<feOffset dx="0.4" dy="0.4"/>
<feGaussianBlur stdDeviation="0.2"/>
<feComposite in2="hardAlpha" operator="out"/>
<feColorMatrix type="matrix" values="0 0 0 0 0 0 0 0 0 0 0 0 0 0 0 0 0 0 0.25 0"/>
<feBlend mode="normal" in2="BackgroundImageFix" result="effect1_dropShadow_289_1136"/>
<feBlend mode="normal" in="SourceGraphic" in2="effect1_dropShadow_289_1136" result="shape"/>
</filter>
<filter id="filter1_d_289_1136" x="5" y="8.21375" width="11.8273" height="10.2932" filterUnits="userSpaceOnUse" color-interpolation-filters="sRGB">
<feFlood flood-opacity="0" result="BackgroundImageFix"/>
<feColorMatrix in="SourceAlpha" type="matrix" values="0 0 0 0 0 0 0 0 0 0 0 0 0 0 0 0 0 0 127 0" result="hardAlpha"/>
<feOffset dx="0.4" dy="0.4"/>
<feGaussianBlur stdDeviation="0.2"/>
<feComposite in2="hardAlpha" operator="out"/>
<feColorMatrix type="matrix" values="0 0 0 0 0 0 0 0 0 0 0 0 0 0 0 0 0 0 0.3 0"/>
<feBlend mode="normal" in2="BackgroundImageFix" result="effect1_dropShadow_289_1136"/>
<feBlend mode="normal" in="SourceGraphic" in2="effect1_dropShadow_289_1136" result="shape"/>
</filter>
</defs>
</svg>
