<svg width="24" height="24" viewBox="0 0 24 24" fill="none" xmlns="http://www.w3.org/2000/svg">
<rect width="24" height="24" rx="6" fill="#32363B"/>
<g filter="url(#filter0_d_101_1065)">
<path d="M20 12.0085C20 12.7529 19.3966 13.3564 18.6522 13.3564H14L12 9.31245L14.1587 5.57354C14.5309 4.92892 15.3552 4.70804 15.9998 5.08018L16.0001 5.08033C16.6448 5.45249 16.8657 6.27682 16.4935 6.92149L14.3348 10.6607H18.6522C19.3966 10.6607 20 11.2642 20 12.0085Z" fill="#3F79AD"/>
<path d="M16.0005 18.9369L16.0003 18.937C15.3556 19.3092 14.5314 19.0883 14.1592 18.4437L12.0004 14.7047L9.84172 18.4437C9.46954 19.0883 8.64527 19.3092 8.00063 18.937L8.00037 18.9369C7.35568 18.5647 7.13477 17.7404 7.50695 17.0957L9.66566 13.3565L12.0004 13.2695L14.3352 13.3565L16.4939 17.0957C16.8661 17.7404 16.6452 18.5647 16.0005 18.9369Z" fill="#B04F58"/>
<path d="M12.0004 9.31245L11.3917 10.9651L9.66566 10.6607L7.50695 6.92149C7.13477 6.27682 7.35568 5.45249 8.00037 5.08033L8.00063 5.08018C8.64527 4.70804 9.46954 4.92892 9.84172 5.57354L12.0004 9.31245Z" fill="#B8A64F"/>
<path d="M11.6522 10.6611L10.087 13.3568H5.34782C4.60344 13.3568 4 12.7533 4 12.009C4 11.2646 4.60344 10.6611 5.34782 10.6611H11.6522Z" fill="#4F9B7A"/>
<path d="M14.3356 13.3564H9.66602L12.0008 9.3125L14.3356 13.3564Z" fill="#6B58A7"/>
</g>
<defs>
<filter id="filter0_d_101_1065" x="4" y="4.89941" width="16.8" height="15.0188" filterUnits="userSpaceOnUse" color-interpolation-filters="sRGB">
<feFlood flood-opacity="0" result="BackgroundImageFix"/>
<feColorMatrix in="SourceAlpha" type="matrix" values="0 0 0 0 0 0 0 0 0 0 0 0 0 0 0 0 0 0 127 0" result="hardAlpha"/>
<feOffset dx="0.4" dy="0.4"/>
<feGaussianBlur stdDeviation="0.2"/>
<feComposite in2="hardAlpha" operator="out"/>
<feColorMatrix type="matrix" values="0 0 0 0 0 0 0 0 0 0 0 0 0 0 0 0 0 0 0.25 0"/>
<feBlend mode="normal" in2="BackgroundImageFix" result="effect1_dropShadow_101_1065"/>
<feBlend mode="normal" in="SourceGraphic" in2="effect1_dropShadow_101_1065" result="shape"/>
</filter>
</defs>
</svg>
