<svg width="24" height="24" viewBox="0 0 24 24" fill="none" xmlns="http://www.w3.org/2000/svg">
<rect width="24" height="24" rx="6" fill="#32363B"/>
<g filter="url(#filter0_d_279_830)">
<path d="M14.5985 13.3338L13.6263 13.2228C13.3929 13.196 13.1632 13.2764 12.9986 13.441C12.7251 13.7145 12.3024 13.7866 11.9795 13.5736C11.3317 13.1461 10.7748 12.5909 10.3462 11.9425C10.131 11.617 10.2042 11.1907 10.4801 10.9148C10.6447 10.7502 10.7251 10.5205 10.6983 10.2871L10.5873 9.3225C10.5413 8.93592 10.216 8.64502 9.82557 8.64502H9.1634C8.73089 8.64502 8.3711 9.00481 8.39789 9.43733C8.60075 12.7061 11.215 15.3165 14.4799 15.5194C14.9124 15.5461 15.2722 15.1864 15.2722 14.7538V14.0917C15.276 13.7051 14.9851 13.3797 14.5985 13.3338Z" fill="#6FBF9A"/>
</g>
<g filter="url(#filter1_d_279_830)">
<rect x="15.5" y="6.75" width="2.625" height="0.525001" rx="0.2625" fill="#6FBF9A"/>
<rect x="17.0742" y="5.70007" width="2.625" height="0.525" rx="0.2625" transform="rotate(90 17.0742 5.70007)" fill="#6FBF9A"/>
</g>
<g filter="url(#filter2_d_279_830)">
<path d="M7.62789 6.53333C8.92786 5.49365 10.5558 4.95123 12.2196 5.00345C13.1289 5.03199 14.0165 5.23717 14.8356 5.60007C14.9755 5.66208 15.0625 5.80265 15.0625 5.95572V6.43279C15.0625 6.74795 14.7112 6.94419 14.4257 6.81073C13.7265 6.4839 12.963 6.29918 12.1798 6.27459C10.8183 6.23185 9.48603 6.67571 8.42222 7.52651C7.35842 8.37731 6.63258 9.57936 6.37503 10.917C6.12801 12.1999 6.41519 13.7097 7.03188 14.8765C7.08289 14.973 7.10634 15.082 7.09511 15.1906L6.89909 17.0856C6.88134 17.2573 7.03138 17.3991 7.20184 17.3717L9.029 17.078C9.12975 17.0618 9.23265 17.0759 9.32696 17.1149C10.5688 17.6278 12.3603 17.8653 13.6177 17.4951C14.9244 17.1104 16.0513 16.2726 16.7961 15.1321C17.5409 13.9916 17.8549 12.623 17.6818 11.2718C17.6058 10.6793 17.4384 10.1072 17.1892 9.57432C17.0557 9.28882 17.252 8.93753 17.5671 8.93753H18.0442C18.1973 8.93753 18.3379 9.02449 18.3999 9.16444C18.6721 9.77876 18.8565 10.4336 18.9433 11.1102C19.1548 12.7613 18.7711 14.4338 17.861 15.8275C16.9508 17.2212 15.5737 18.245 13.9769 18.7151C12.4284 19.1709 10.7715 19.0772 9.28646 18.4527C9.19539 18.4144 9.09579 18.3999 8.99798 18.4138L5.79782 18.8685C5.62588 18.893 5.47804 18.7467 5.50063 18.5745L5.88771 15.6267C5.90256 15.5136 5.87952 15.3989 5.82576 15.2983C5.07073 13.885 4.82264 12.2534 5.12627 10.6765C5.441 9.04194 6.32792 7.57302 7.62789 6.53333Z" fill="#6FBF9A"/>
</g>
<defs>
<filter id="filter0_d_279_830" x="8.39648" y="8.64502" width="7.675" height="7.67573" filterUnits="userSpaceOnUse" color-interpolation-filters="sRGB">
<feFlood flood-opacity="0" result="BackgroundImageFix"/>
<feColorMatrix in="SourceAlpha" type="matrix" values="0 0 0 0 0 0 0 0 0 0 0 0 0 0 0 0 0 0 127 0" result="hardAlpha"/>
<feOffset dx="0.4" dy="0.4"/>
<feGaussianBlur stdDeviation="0.2"/>
<feComposite in2="hardAlpha" operator="out"/>
<feColorMatrix type="matrix" values="0 0 0 0 0 0 0 0 0 0 0 0 0 0 0 0 0 0 0.25 0"/>
<feBlend mode="normal" in2="BackgroundImageFix" result="effect1_dropShadow_279_830"/>
<feBlend mode="normal" in="SourceGraphic" in2="effect1_dropShadow_279_830" result="shape"/>
</filter>
<filter id="filter1_d_279_830" x="15.5" y="5.70007" width="3.425" height="3.425" filterUnits="userSpaceOnUse" color-interpolation-filters="sRGB">
<feFlood flood-opacity="0" result="BackgroundImageFix"/>
<feColorMatrix in="SourceAlpha" type="matrix" values="0 0 0 0 0 0 0 0 0 0 0 0 0 0 0 0 0 0 127 0" result="hardAlpha"/>
<feOffset dx="0.4" dy="0.4"/>
<feGaussianBlur stdDeviation="0.2"/>
<feComposite in2="hardAlpha" operator="out"/>
<feColorMatrix type="matrix" values="0 0 0 0 0 0 0 0 0 0 0 0 0 0 0 0 0 0 0.25 0"/>
<feBlend mode="normal" in2="BackgroundImageFix" result="effect1_dropShadow_279_830"/>
<feBlend mode="normal" in="SourceGraphic" in2="effect1_dropShadow_279_830" result="shape"/>
</filter>
<filter id="filter2_d_279_830" x="5" y="5" width="14.8" height="14.8" filterUnits="userSpaceOnUse" color-interpolation-filters="sRGB">
<feFlood flood-opacity="0" result="BackgroundImageFix"/>
<feColorMatrix in="SourceAlpha" type="matrix" values="0 0 0 0 0 0 0 0 0 0 0 0 0 0 0 0 0 0 127 0" result="hardAlpha"/>
<feOffset dx="0.4" dy="0.4"/>
<feGaussianBlur stdDeviation="0.2"/>
<feComposite in2="hardAlpha" operator="out"/>
<feColorMatrix type="matrix" values="0 0 0 0 0 0 0 0 0 0 0 0 0 0 0 0 0 0 0.25 0"/>
<feBlend mode="normal" in2="BackgroundImageFix" result="effect1_dropShadow_279_830"/>
<feBlend mode="normal" in="SourceGraphic" in2="effect1_dropShadow_279_830" result="shape"/>
</filter>
</defs>
</svg>
