<svg width="24" height="24" viewBox="0 0 24 24" fill="none" xmlns="http://www.w3.org/2000/svg">
<rect width="24" height="24" rx="6" fill="#32363B"/>
<g filter="url(#filter0_d_291_3337)">
<path d="M5 12.618C5.00001 13.4831 5.69589 14.1872 6.56091 14.1974L7.65641 14.2103V14.5103H16.7154V15.5154C16.7154 16.3877 16.0082 17.0949 15.1359 17.0949H6.86667C5.83574 17.0949 5 16.2592 5 15.2282V12.618Z" fill="#B8A64F"/>
<path d="M17.4206 9.18457C18.2929 9.18457 19 9.89173 19 10.7641V15.2282C19 16.2591 18.1643 17.0948 17.1334 17.0948H14.8359C15.7083 17.0948 16.4154 16.3877 16.4154 15.5153V9.18457H17.4206Z" fill="#B04F58"/>
<path d="M17.1324 6.90002C18.1633 6.90002 18.9991 7.73576 18.9991 8.76669V10.9205H18.9925C18.9199 10.1155 18.2435 9.48464 17.4196 9.48464H7.35547V8.47951C7.35547 7.60718 8.06263 6.90002 8.93496 6.90002H17.1324Z" fill="#3F79AD"/>
<path d="M9.2359 6.90002C8.36357 6.90002 7.65641 7.60718 7.65641 8.47951V14.5103L6.56091 14.4974C5.69589 14.4872 5.00001 13.7831 5 12.918V8.76669C5 7.73576 5.83574 6.90002 6.86667 6.90002H9.2359Z" fill="#4F9B7A"/>
</g>
<defs>
<filter id="filter0_d_291_3337" x="5" y="6.90002" width="14.8" height="10.9948" filterUnits="userSpaceOnUse" color-interpolation-filters="sRGB">
<feFlood flood-opacity="0" result="BackgroundImageFix"/>
<feColorMatrix in="SourceAlpha" type="matrix" values="0 0 0 0 0 0 0 0 0 0 0 0 0 0 0 0 0 0 127 0" result="hardAlpha"/>
<feOffset dx="0.4" dy="0.4"/>
<feGaussianBlur stdDeviation="0.2"/>
<feComposite in2="hardAlpha" operator="out"/>
<feColorMatrix type="matrix" values="0 0 0 0 0 0 0 0 0 0 0 0 0 0 0 0 0 0 0.25 0"/>
<feBlend mode="normal" in2="BackgroundImageFix" result="effect1_dropShadow_291_3337"/>
<feBlend mode="normal" in="SourceGraphic" in2="effect1_dropShadow_291_3337" result="shape"/>
</filter>
</defs>
</svg>
