<svg width="24" height="24" viewBox="0 0 24 24" fill="none" xmlns="http://www.w3.org/2000/svg">
<rect width="24" height="24" rx="6" fill="#32363B"/>
<g filter="url(#filter0_d_214_793)">
<path d="M17.4834 11.2584C16.4047 10.7941 15.461 10.1571 14.6518 9.34824C13.8429 8.53939 13.2059 7.59525 12.7416 6.51665C12.5634 6.10327 12.4202 5.67836 12.3103 5.2427C12.2745 5.10026 12.1468 5 12 5C11.8532 5 11.7255 5.10026 11.6897 5.2427C11.5798 5.67836 11.4366 6.10288 11.2584 6.51665C10.7941 7.59525 10.1571 8.53939 9.34824 9.34824C8.53939 10.1571 7.59525 10.7941 6.51665 11.2584C6.10327 11.4366 5.67836 11.5798 5.2427 11.6897C5.10026 11.7255 5 11.8532 5 12C5 12.1468 5.10026 12.2745 5.2427 12.3103C5.67836 12.4202 6.10288 12.5634 6.51665 12.7416C7.59525 13.2059 8.539 13.8429 9.34824 14.6518C10.1575 15.4606 10.7941 16.4047 11.2584 17.4834C11.4366 17.8967 11.5798 18.3216 11.6897 18.7573C11.7255 18.8997 11.8532 19 12 19C12.1468 19 12.2745 18.8997 12.3103 18.7573C12.4202 18.3216 12.5634 17.8971 12.7416 17.4834C13.2059 16.4047 13.8429 15.461 14.6518 14.6518C15.4606 13.8429 16.4047 13.2059 17.4834 12.7416C17.8967 12.5634 18.3216 12.4202 18.7573 12.3103C18.8998 12.2745 19 12.1468 19 12C19 11.8532 18.8998 11.7255 18.7573 11.6897C18.3216 11.5798 17.8971 11.4366 17.4834 11.2584Z" fill="#F4F5F7"/>
</g>
<defs>
<filter id="filter0_d_214_793" x="5" y="5" width="14.8" height="14.8" filterUnits="userSpaceOnUse" color-interpolation-filters="sRGB">
<feFlood flood-opacity="0" result="BackgroundImageFix"/>
<feColorMatrix in="SourceAlpha" type="matrix" values="0 0 0 0 0 0 0 0 0 0 0 0 0 0 0 0 0 0 127 0" result="hardAlpha"/>
<feOffset dx="0.4" dy="0.4"/>
<feGaussianBlur stdDeviation="0.2"/>
<feComposite in2="hardAlpha" operator="out"/>
<feColorMatrix type="matrix" values="0 0 0 0 0 0 0 0 0 0 0 0 0 0 0 0 0 0 0.25 0"/>
<feBlend mode="normal" in2="BackgroundImageFix" result="effect1_dropShadow_214_793"/>
<feBlend mode="normal" in="SourceGraphic" in2="effect1_dropShadow_214_793" result="shape"/>
</filter>
</defs>
</svg>
