<svg width="24" height="24" viewBox="0 0 24 24" fill="none" xmlns="http://www.w3.org/2000/svg">
<rect width="24" height="24" rx="6" fill="#6B58A7"/>
<g filter="url(#filter0_d_279_723)">
<path d="M15.2247 6.41781C14.284 5.90399 13.2046 5.61255 12.0551 5.61255C10.0557 5.61255 8.26834 6.49429 7.05396 7.89427C6.89535 13.0989 12.7127 18.8216 15.2199 16.9877C16.6421 15.9474 15.7097 9.76801 15.2247 6.41781Z" fill="#9F5F7F"/>
</g>
<g filter="url(#filter1_d_279_723)">
<path d="M14.4056 5L14.3253 5.09896C14.3115 5.11593 14.298 5.13316 14.2839 5.15104C13.9722 5.5602 13.7949 6.02237 13.6086 6.51888C13.5376 6.70937 13.4623 6.99666 13.4205 7.23568C13.3785 7.47535 13.3748 8.00789 13.4139 8.21745C13.5172 8.77257 13.7534 9.29566 14.1001 9.73828C14.502 10.1713 14.9389 10.6485 15.1017 10.9967C15.3256 11.4758 15.4202 11.9023 15.4202 12.4323C15.4202 12.592 15.411 12.7563 15.3972 12.8542C15.0578 14.4242 13.9343 15.6583 12.3575 15.6667C11.3593 15.6704 10.017 15.284 9.83609 14.2638C10.3169 14.3362 10.6773 14.3103 11.0208 14.3079C11.3381 14.3057 11.6409 14.2382 12.0106 14.0441C12.5616 13.753 12.8343 13.6993 12.9851 13.7166C13.2072 13.7421 13.2352 13.7416 13.2838 13.7114C13.3868 13.6475 13.4163 13.6218 13.3568 13.5001C13.2816 13.3465 13.018 13.132 12.7969 13.0444C12.6117 12.971 12.5108 12.9527 12.2889 12.9526C12.063 12.9525 11.8713 12.9632 11.4639 13.0854C11.0572 13.2074 10.8317 13.2257 10.5809 13.1564C9.53767 12.9093 9.00796 12.0419 9.51576 11.372C9.82117 11.3581 10.4415 11.5613 10.6349 11.692C10.8199 11.5121 10.4183 11.2353 10.3539 10.9824C10.3539 10.6667 11.0041 10.4829 11.2711 10.3639C11.447 10.2858 11.6185 10.2056 11.6521 10.1862C11.7249 10.1439 11.8653 10.0091 11.9225 9.9264C12.0097 9.80023 12.067 9.56658 12.0317 9.48239C11.9874 9.37659 11.6897 9.31074 10.9691 9.24737C10.6971 9.22343 10.5111 9.10041 10.3677 8.85023C10.1165 8.27556 11.0061 7.72893 11.3244 7.43943C10.8181 7.166 9.87705 7.68264 9.57554 7.96274C9.47896 8.05731 9.50848 8.05586 9.21564 7.97967C9.1961 7.97457 9.17586 7.97008 9.15511 7.96534C9.1477 7.96368 9.14015 7.96173 9.13273 7.96013C9.11926 7.95713 9.10509 7.95444 9.09128 7.95167C9.08151 7.94967 9.07178 7.94771 9.06167 7.94581C9.05022 7.94381 9.03898 7.94133 9.02746 7.9393C9.01533 7.9373 9.00347 7.93544 8.99127 7.93344C8.98251 7.93211 8.97371 7.93097 8.96495 7.92953C8.8874 7.91743 8.80639 7.90705 8.7248 7.89959C8.63556 7.89145 8.54608 7.88603 8.45964 7.88396C8.4337 7.8833 8.40786 7.8833 8.38266 7.8833C8.35537 7.88324 8.32912 7.88326 8.30305 7.88396C8.29799 7.8841 8.29297 7.88428 8.28791 7.88463C8.26602 7.8853 8.24442 7.88623 8.22343 7.88723C8.22007 7.8874 8.21758 7.88755 8.21488 7.8879C8.19164 7.88923 8.16943 7.89103 8.14777 7.89311C8.1444 7.89327 8.14419 7.89343 8.1425 7.89377C8.12027 7.89577 8.09962 7.89879 8.07934 7.90159H8.07867C8.06957 7.90292 8.05979 7.90399 8.05103 7.90549C7.95452 7.90516 7.86601 7.93223 7.79048 7.96669C7.53702 7.54315 7.47556 6.75748 7.27859 6.33333C6.81788 6.57224 6.50229 7.74635 6.4239 8.1465C6.39392 8.30563 6.35959 8.61462 6.35942 8.72398C6.35939 8.73972 6.35542 8.74585 6.35481 8.75718C5.68916 9.79085 5.30078 11.0168 5.30078 12.3333C5.30078 16.0152 8.31726 19 12.0383 19C15.7593 19 18.7758 16.0152 18.7758 12.3333C18.7758 10 17.7198 8.80116 16.6743 7.16341C16.6743 7.16241 16.6743 7.16181 16.671 7.16081C16.5169 6.93279 16.3835 6.68247 16.2755 6.43425C16.2587 6.37953 16.2387 6.33464 16.2314 6.33464C16.2281 6.33464 16.225 6.3368 16.2209 6.3405C16.0851 6.50299 16.0194 7.13579 15.9465 7.33333C15.4207 6.6126 14.7688 5.89616 14.4253 5.09766L14.4056 5Z" fill="#F4F5F7"/>
</g>
<defs>
<filter id="filter0_d_279_723" x="7.05078" y="5.61255" width="9.72578" height="12.525" filterUnits="userSpaceOnUse" color-interpolation-filters="sRGB">
<feFlood flood-opacity="0" result="BackgroundImageFix"/>
<feColorMatrix in="SourceAlpha" type="matrix" values="0 0 0 0 0 0 0 0 0 0 0 0 0 0 0 0 0 0 127 0" result="hardAlpha"/>
<feOffset dx="0.4" dy="0.4"/>
<feGaussianBlur stdDeviation="0.2"/>
<feComposite in2="hardAlpha" operator="out"/>
<feColorMatrix type="matrix" values="0 0 0 0 0 0 0 0 0 0 0 0 0 0 0 0 0 0 0.25 0"/>
<feBlend mode="normal" in2="BackgroundImageFix" result="effect1_dropShadow_279_723"/>
<feBlend mode="normal" in="SourceGraphic" in2="effect1_dropShadow_279_723" result="shape"/>
</filter>
<filter id="filter1_d_279_723" x="5.30078" y="5" width="14.2746" height="14.8" filterUnits="userSpaceOnUse" color-interpolation-filters="sRGB">
<feFlood flood-opacity="0" result="BackgroundImageFix"/>
<feColorMatrix in="SourceAlpha" type="matrix" values="0 0 0 0 0 0 0 0 0 0 0 0 0 0 0 0 0 0 127 0" result="hardAlpha"/>
<feOffset dx="0.4" dy="0.4"/>
<feGaussianBlur stdDeviation="0.2"/>
<feComposite in2="hardAlpha" operator="out"/>
<feColorMatrix type="matrix" values="0 0 0 0 0 0 0 0 0 0 0 0 0 0 0 0 0 0 0.25 0"/>
<feBlend mode="normal" in2="BackgroundImageFix" result="effect1_dropShadow_279_723"/>
<feBlend mode="normal" in="SourceGraphic" in2="effect1_dropShadow_279_723" result="shape"/>
</filter>
</defs>
</svg>
