<svg width="24" height="24" viewBox="0 0 24 24" fill="none" xmlns="http://www.w3.org/2000/svg">
<rect width="24" height="24" rx="6" fill="#32363B"/>
<g filter="url(#filter0_d_214_819)">
<path d="M17.7992 17.9773V8.55L14.2992 8.5C13.6986 8.5 13.368 7.80347 13.368 7.23864L13.2992 4H7.28672C6.68611 4 6.19922 4.45789 6.19922 5.02273V17.9773C6.19922 18.5421 6.68611 19 7.28672 19H16.7117C17.3123 19 17.7992 18.5421 17.7992 17.9773Z" fill="#4F9B7A"/>
</g>
<g filter="url(#filter1_d_214_819)">
<path d="M13.2982 4C13.6633 4.01431 14.0013 4.16674 14.2606 4.42605L17.4085 7.57395C17.6678 7.83326 17.7839 8.18496 17.7982 8.55L14.38 8.54546C13.7775 8.54546 13.2891 8.05704 13.2891 7.45455L13.2982 4Z" fill="#6FBF9A"/>
</g>
<g filter="url(#filter2_d_214_819)">
<path d="M15.6527 15.0546C15.6527 15.2755 15.4736 15.4546 15.2527 15.4546H8.68906C8.46815 15.4546 8.28906 15.2755 8.28906 15.0546V10.5819C8.28906 10.361 8.46815 10.1819 8.68906 10.1819H15.2527C15.4736 10.1819 15.6527 10.361 15.6527 10.5819V15.0546ZM9.68906 13.2728C9.46815 13.2728 9.28906 13.4519 9.28906 13.6728V14.1455C9.28906 14.3664 9.46815 14.5455 9.68906 14.5455H11.1618C11.3827 14.5455 11.5618 14.3664 11.5618 14.1455V13.6728C11.5618 13.4519 11.3827 13.2728 11.1618 13.2728H9.68906ZM12.4709 14.1455C12.4709 14.3664 12.65 14.5455 12.8709 14.5455H14.3436C14.5645 14.5455 14.7436 14.3664 14.7436 14.1455V13.6728C14.7436 13.4519 14.5645 13.2728 14.3436 13.2728H12.8709C12.65 13.2728 12.4709 13.4519 12.4709 13.6728V14.1455ZM9.28906 11.9637C9.28906 12.1846 9.46815 12.3637 9.68906 12.3637H11.1618C11.3827 12.3637 11.5618 12.1846 11.5618 11.9637V11.491C11.5618 11.2701 11.3827 11.091 11.1618 11.091H9.68906C9.46815 11.091 9.28906 11.2701 9.28906 11.491V11.9637ZM12.4709 11.9637C12.4709 12.1846 12.65 12.3637 12.8709 12.3637H14.3436C14.5645 12.3637 14.7436 12.1846 14.7436 11.9637V11.491C14.7436 11.2701 14.5645 11.091 14.3436 11.091H12.8709C12.65 11.091 12.4709 11.2701 12.4709 11.491V11.9637Z" fill="#F4F5F7"/>
</g>
<defs>
<filter id="filter0_d_214_819" x="6.19922" y="4" width="12.4016" height="15.8" filterUnits="userSpaceOnUse" color-interpolation-filters="sRGB">
<feFlood flood-opacity="0" result="BackgroundImageFix"/>
<feColorMatrix in="SourceAlpha" type="matrix" values="0 0 0 0 0 0 0 0 0 0 0 0 0 0 0 0 0 0 127 0" result="hardAlpha"/>
<feOffset dx="0.4" dy="0.4"/>
<feGaussianBlur stdDeviation="0.2"/>
<feComposite in2="hardAlpha" operator="out"/>
<feColorMatrix type="matrix" values="0 0 0 0 0 0 0 0 0 0 0 0 0 0 0 0 0 0 0.25 0"/>
<feBlend mode="normal" in2="BackgroundImageFix" result="effect1_dropShadow_214_819"/>
<feBlend mode="normal" in="SourceGraphic" in2="effect1_dropShadow_214_819" result="shape"/>
</filter>
<filter id="filter1_d_214_819" x="13.2891" y="4" width="5.30781" height="5.35005" filterUnits="userSpaceOnUse" color-interpolation-filters="sRGB">
<feFlood flood-opacity="0" result="BackgroundImageFix"/>
<feColorMatrix in="SourceAlpha" type="matrix" values="0 0 0 0 0 0 0 0 0 0 0 0 0 0 0 0 0 0 127 0" result="hardAlpha"/>
<feOffset dx="0.4" dy="0.4"/>
<feGaussianBlur stdDeviation="0.2"/>
<feComposite in2="hardAlpha" operator="out"/>
<feColorMatrix type="matrix" values="0 0 0 0 0 0 0 0 0 0 0 0 0 0 0 0 0 0 0.25 0"/>
<feBlend mode="normal" in2="BackgroundImageFix" result="effect1_dropShadow_214_819"/>
<feBlend mode="normal" in="SourceGraphic" in2="effect1_dropShadow_214_819" result="shape"/>
</filter>
<filter id="filter2_d_214_819" x="8.28906" y="10.1819" width="8.16328" height="6.07271" filterUnits="userSpaceOnUse" color-interpolation-filters="sRGB">
<feFlood flood-opacity="0" result="BackgroundImageFix"/>
<feColorMatrix in="SourceAlpha" type="matrix" values="0 0 0 0 0 0 0 0 0 0 0 0 0 0 0 0 0 0 127 0" result="hardAlpha"/>
<feOffset dx="0.4" dy="0.4"/>
<feGaussianBlur stdDeviation="0.2"/>
<feComposite in2="hardAlpha" operator="out"/>
<feColorMatrix type="matrix" values="0 0 0 0 0 0 0 0 0 0 0 0 0 0 0 0 0 0 0.25 0"/>
<feBlend mode="normal" in2="BackgroundImageFix" result="effect1_dropShadow_214_819"/>
<feBlend mode="normal" in="SourceGraphic" in2="effect1_dropShadow_214_819" result="shape"/>
</filter>
</defs>
</svg>
