<svg width="24" height="24" viewBox="0 0 24 24" fill="none" xmlns="http://www.w3.org/2000/svg">
<rect width="24" height="24" rx="6" fill="#F4F5F7"/>
<g filter="url(#filter0_d_101_687)">
<path d="M5.22513 11.9634H18.2335C18.3856 11.9634 18.5199 12.0467 18.596 12.2071L19.9348 15.09C20.0378 15.3158 20.0201 15.589 19.8721 15.8151L17.9872 18.698C17.8842 18.8525 17.75 18.9477 17.5974 18.9477H4.42887C4.16484 18.9477 3.97213 18.6742 4.00331 18.3294L4.70078 12.5812C4.73234 12.2306 4.96052 11.9629 5.22474 11.9629H5.22494L5.22513 11.9634Z" fill="#428AA3"/>
</g>
<g filter="url(#filter1_d_101_687)">
<path fill-rule="evenodd" clip-rule="evenodd" d="M6.14985 11.3095H4.91406L5.62883 5.4245H6.82914L6.78527 5.75188C7.12931 5.4681 7.57939 5.30899 8.07406 5.30899C9.11571 5.30899 9.6718 6.13205 9.6718 7.30931C9.6718 8.68965 8.798 9.95562 7.3677 9.95562C6.90885 9.95562 6.5469 9.78733 6.35276 9.63702L6.14985 11.3095ZM6.73265 6.59142L6.4588 8.76882C6.66171 8.91072 6.93517 8.99027 7.17357 8.99027C7.93296 8.99027 8.38301 8.25554 8.38301 7.39689C8.38301 6.73293 8.09161 6.30762 7.56221 6.29921C7.29751 6.29041 6.99734 6.37914 6.73265 6.59142ZM11.3752 9.95562C10.4842 9.95562 9.90104 9.37084 9.9102 8.65407C9.91897 7.44124 11.1444 7.02628 12.2215 7.02628H12.963C12.9897 6.65414 12.7422 6.30533 12.045 6.30533C11.4625 6.30533 10.8271 6.52104 10.5002 6.6985L10.6242 5.70713C11.0304 5.4417 11.7806 5.2998 12.3985 5.2998C13.9169 5.2998 14.3056 6.26477 14.1641 7.45082L13.8727 9.8493H12.6724L12.7254 9.39798C12.4607 9.69019 12.0022 9.95562 11.3752 9.95562ZM12.2845 7.90099C11.7112 7.90099 11.1551 8.07808 11.1551 8.55616C11.1551 8.83077 11.3836 9.0159 11.7188 9.0159C12.09 9.0159 12.5312 8.81242 12.7784 8.61774L12.8669 7.90099H12.2845Z" fill="#32363B"/>
<path d="M7.32157 14.409L6.91537 17.6486L6.91764 17.6498H5.67271L6.22883 13.2237H7.39365L7.34063 13.6218C7.7377 13.3564 8.24076 13.0994 8.76178 13.0994C9.2828 13.0994 9.65353 13.3204 9.82135 13.7102C10.2184 13.418 10.8099 13.0994 11.366 13.0994C12.169 13.0994 12.6195 13.6302 12.5134 14.5065L12.1247 17.649H10.8798L11.2329 14.7719C11.2856 14.3298 11.1178 14.0728 10.7738 14.0728C10.509 14.0728 10.1913 14.2319 9.91747 14.4178L9.90909 14.5065L9.52042 17.649H8.27549L8.62867 14.7719C8.68131 14.3298 8.51347 14.0728 8.16945 14.0728C7.90398 14.0728 7.59543 14.2231 7.32157 14.409Z" fill="#F4F5F7"/>
<path fill-rule="evenodd" clip-rule="evenodd" d="M15.3965 17.7546C13.7549 17.7546 12.9517 16.7279 12.9691 15.6214C12.9867 13.8957 14.1078 13.1066 15.432 13.1066C16.7562 13.1066 17.4009 13.9569 17.4009 15.1249C17.4009 15.3904 17.3654 15.665 17.3215 15.7801H14.2671C14.4254 16.4173 14.9903 16.6919 15.6173 16.6919C16.0937 16.6919 16.6414 16.5416 17.0031 16.3202L16.9145 17.3648C16.4736 17.6394 15.9788 17.7546 15.3965 17.7546ZM15.3434 14.0984C14.8224 14.0984 14.3994 14.4441 14.2755 15.0282H16.1384C16.1468 14.975 16.1468 14.9131 16.1468 14.8599C16.1468 14.3906 15.8644 14.0984 15.3434 14.0984Z" fill="#F4F5F7"/>
<path fill-rule="evenodd" clip-rule="evenodd" d="M16.575 8.47182L17.9168 5.40899H19.2586L16.3721 11.2956H15.0127L15.7275 9.84373L14.5005 5.40899H15.8778L16.575 8.47182Z" fill="#32363B"/>
</g>
<defs>
<filter id="filter0_d_101_687" x="4" y="11.9629" width="16.8" height="7.78438" filterUnits="userSpaceOnUse" color-interpolation-filters="sRGB">
<feFlood flood-opacity="0" result="BackgroundImageFix"/>
<feColorMatrix in="SourceAlpha" type="matrix" values="0 0 0 0 0 0 0 0 0 0 0 0 0 0 0 0 0 0 127 0" result="hardAlpha"/>
<feOffset dx="0.4" dy="0.4"/>
<feGaussianBlur stdDeviation="0.2"/>
<feComposite in2="hardAlpha" operator="out"/>
<feColorMatrix type="matrix" values="0 0 0 0 0 0 0 0 0 0 0 0 0 0 0 0 0 0 0.25 0"/>
<feBlend mode="normal" in2="BackgroundImageFix" result="effect1_dropShadow_101_687"/>
<feBlend mode="normal" in="SourceGraphic" in2="effect1_dropShadow_101_687" result="shape"/>
</filter>
<filter id="filter1_d_101_687" x="4.91406" y="5.2998" width="15.1438" height="13.2551" filterUnits="userSpaceOnUse" color-interpolation-filters="sRGB">
<feFlood flood-opacity="0" result="BackgroundImageFix"/>
<feColorMatrix in="SourceAlpha" type="matrix" values="0 0 0 0 0 0 0 0 0 0 0 0 0 0 0 0 0 0 127 0" result="hardAlpha"/>
<feOffset dx="0.4" dy="0.4"/>
<feGaussianBlur stdDeviation="0.2"/>
<feComposite in2="hardAlpha" operator="out"/>
<feColorMatrix type="matrix" values="0 0 0 0 0 0 0 0 0 0 0 0 0 0 0 0 0 0 0.25 0"/>
<feBlend mode="normal" in2="BackgroundImageFix" result="effect1_dropShadow_101_687"/>
<feBlend mode="normal" in="SourceGraphic" in2="effect1_dropShadow_101_687" result="shape"/>
</filter>
</defs>
</svg>
