<svg width="240" height="240" viewBox="0 0 240 240" fill="none" xmlns="http://www.w3.org/2000/svg">
<rect width="240" height="240" rx="60" fill="#32363B"/>
<g filter="url(#filter0_d_217_963)">
<path d="M188.757 157.16C188.077 158.654 187.132 160.028 185.95 161.21L161.21 185.95C159.242 187.918 157.16 188.754 157.16 188.754V157.16H188.757Z" fill="#B04F58"/>
<path d="M190 151.434C190 153.429 189.567 155.379 188.757 157.161H157.16V82.8398H190V151.434Z" fill="#B8A64F"/>
<path d="M157.161 188.756C155.379 189.567 153.429 190 151.434 190H82.8398V157.161H157.161V188.756Z" fill="#6FBF9A"/>
<path d="M157.16 50H174C182.836 50 190 57.1634 190 66V82.8395H157.16V50Z" fill="#4F5F9F"/>
<path d="M50 157.16H82.8395V190H66C57.1635 190 50 182.836 50 174V157.16Z" fill="#4F9B7A"/>
<path d="M82.8395 157.16H50V66C50 57.1635 57.1634 50 66 50H157.16V82.8395H82.8395V157.16Z" fill="#3F79AD"/>
</g>
<g filter="url(#filter1_d_217_963)">
<path d="M143.756 99.731C144.861 99.731 145.756 100.626 145.756 101.731V140.469C145.756 141.574 144.861 142.469 143.756 142.469H140.014C138.909 142.469 138.014 141.574 138.014 140.469V110.867C138.014 109.298 136.288 108.34 134.956 109.17L130.825 111.744C129.493 112.575 127.768 111.617 127.768 110.047V107.647C127.768 106.966 128.114 106.332 128.687 105.965L137.896 100.048C138.218 99.8411 138.593 99.731 138.977 99.731H143.756Z" fill="#F4F5F7"/>
<path d="M105.432 143.053C102.427 143.053 99.7557 142.539 97.4185 141.509C95.0951 140.48 93.2587 139.047 91.9092 137.21C90.9576 135.915 90.3208 134.478 89.9987 132.9C89.7724 131.791 90.6986 130.845 91.8303 130.845H95.7231C96.781 130.845 97.6098 131.699 98.0276 132.671C98.2113 133.098 98.4534 133.498 98.754 133.871C99.4497 134.72 100.375 135.381 101.53 135.854C102.684 136.327 103.978 136.563 105.411 136.563C106.941 136.563 108.298 136.299 109.48 135.77C110.663 135.228 111.588 134.476 112.256 133.517C112.924 132.557 113.251 131.451 113.237 130.198C113.251 128.905 112.917 127.764 112.235 126.776C111.553 125.788 110.566 125.016 109.272 124.46C107.992 123.903 106.448 123.625 104.639 123.625H102.862C101.757 123.625 100.862 122.729 100.862 121.625V119.657C100.862 118.552 101.757 117.657 102.862 117.657H104.639C106.128 117.657 107.428 117.399 108.541 116.884C109.668 116.37 110.552 115.646 111.192 114.714C111.832 113.768 112.145 112.676 112.131 111.438C112.145 110.227 111.873 109.177 111.317 108.287C110.774 107.382 110.002 106.68 109 106.179C108.013 105.678 106.851 105.428 105.515 105.428C104.208 105.428 102.997 105.664 101.884 106.137C100.771 106.61 99.874 107.285 99.1923 108.161C98.8991 108.532 98.6651 108.934 98.4903 109.367C98.0867 110.366 97.2531 111.25 96.1757 111.25H92.7042C91.5814 111.25 90.6579 110.319 90.8701 109.216C91.1721 107.648 91.7898 106.225 92.7231 104.948C94.0587 103.125 95.8394 101.706 98.0654 100.691C100.291 99.661 102.789 99.1462 105.557 99.1462C108.409 99.1462 110.886 99.6819 112.986 100.753C115.101 101.81 116.736 103.236 117.89 105.031C119.045 106.826 119.622 108.808 119.622 110.979C119.636 113.385 118.927 115.403 117.494 117.03C116.075 118.658 114.211 119.722 111.901 120.223V120.557C114.906 120.975 117.209 122.088 118.809 123.896C120.422 125.691 121.222 127.924 121.208 130.595C121.208 132.988 120.527 135.13 119.163 137.022C117.814 138.901 115.95 140.375 113.571 141.447C111.206 142.518 108.493 143.053 105.432 143.053Z" fill="#F4F5F7"/>
</g>
<defs>
<filter id="filter0_d_217_963" x="50" y="50" width="148" height="148" filterUnits="userSpaceOnUse" color-interpolation-filters="sRGB">
<feFlood flood-opacity="0" result="BackgroundImageFix"/>
<feColorMatrix in="SourceAlpha" type="matrix" values="0 0 0 0 0 0 0 0 0 0 0 0 0 0 0 0 0 0 127 0" result="hardAlpha"/>
<feOffset dx="4" dy="4"/>
<feGaussianBlur stdDeviation="2"/>
<feComposite in2="hardAlpha" operator="out"/>
<feColorMatrix type="matrix" values="0 0 0 0 0 0 0 0 0 0 0 0 0 0 0 0 0 0 0.25 0"/>
<feBlend mode="normal" in2="BackgroundImageFix" result="effect1_dropShadow_217_963"/>
<feBlend mode="normal" in="SourceGraphic" in2="effect1_dropShadow_217_963" result="shape"/>
</filter>
<filter id="filter1_d_217_963" x="89.9648" y="99.1462" width="63.791" height="51.9072" filterUnits="userSpaceOnUse" color-interpolation-filters="sRGB">
<feFlood flood-opacity="0" result="BackgroundImageFix"/>
<feColorMatrix in="SourceAlpha" type="matrix" values="0 0 0 0 0 0 0 0 0 0 0 0 0 0 0 0 0 0 127 0" result="hardAlpha"/>
<feOffset dx="4" dy="4"/>
<feGaussianBlur stdDeviation="2"/>
<feComposite in2="hardAlpha" operator="out"/>
<feColorMatrix type="matrix" values="0 0 0 0 0 0 0 0 0 0 0 0 0 0 0 0 0 0 0.25 0"/>
<feBlend mode="normal" in2="BackgroundImageFix" result="effect1_dropShadow_217_963"/>
<feBlend mode="normal" in="SourceGraphic" in2="effect1_dropShadow_217_963" result="shape"/>
</filter>
</defs>
</svg>
