<svg width="24" height="24" viewBox="0 0 24 24" fill="none" xmlns="http://www.w3.org/2000/svg">
<rect width="24" height="24" rx="6" fill="#32363B"/>
<g filter="url(#filter0_d_279_772)">
<path d="M5.72348 8.9751C5.72348 8.9751 2.88212 12.3462 4.80846 15.1394C5.34818 15.922 6.12985 16.4929 6.97552 16.9093V18.4921C6.97552 18.8235 7.24414 19.0921 7.57552 19.0921H16.416C16.7474 19.0921 17.016 18.8235 17.016 18.4921V17.0444C17.9691 16.6352 18.8036 16.0559 19.256 15.2357C20.7971 12.4425 18.4373 9.16774 18.4373 9.16774L18.0577 6.03633C17.9633 5.25755 17.1074 4.82506 16.4244 5.21107L14.5364 6.27821C14.5364 6.27821 12.9329 5.88436 11.8877 5.89294C10.8983 5.90107 9.38353 6.27821 9.38353 6.27821L7.7888 5.29103C7.11193 4.87202 6.22789 5.28849 6.11998 6.07721L5.72348 8.9751Z" fill="#4F5F9F"/>
</g>
<g filter="url(#filter1_d_279_772)">
<path d="M16.4246 5.21102C17.1075 4.82517 17.963 5.2575 18.0574 6.03621L18.4373 9.16707C18.4373 9.16707 20.7967 12.4422 19.2556 15.2354C17.7145 18.0285 11.7429 18.0284 11.7429 18.0284C11.7109 18.0278 6.7285 17.923 4.80835 15.1388C2.88226 12.3456 5.72339 8.97469 5.72339 8.97469L6.11988 6.07723C6.22779 5.28851 7.11195 4.87209 7.78882 5.2911L9.38355 6.27743C9.4095 6.27098 10.9066 5.90072 11.8875 5.89266C12.9232 5.88415 14.5073 6.27043 14.5359 6.27743L16.4246 5.21102ZM7.12964 6.63289C7.01038 6.55547 6.85045 6.62411 6.82398 6.76375L6.63648 7.76375C6.62005 7.85265 6.72064 7.91578 6.7937 7.86239L7.72534 7.18172C7.7815 7.14031 7.77904 7.05573 7.72046 7.01766L7.12964 6.63289ZM17.1433 6.76375C17.1168 6.6241 16.9569 6.55538 16.8376 6.63289L16.2468 7.01766C16.1883 7.05586 16.1864 7.14044 16.2429 7.18172L17.1736 7.86239C17.2467 7.91579 17.3473 7.85267 17.3308 7.76375L17.1433 6.76375Z" fill="#8A78C8"/>
</g>
<g filter="url(#filter2_d_279_772)">
<path d="M13.1408 10.6606C13.9455 9.82152 16.0924 9.62889 16.8971 10.468C17.6563 11.2596 17.4155 13.0475 16.6563 13.8391C15.8516 14.6782 13.7443 14.7713 12.9396 13.9322C12.1804 13.1406 12.3816 11.4522 13.1408 10.6606Z" fill="#F4F5F7"/>
</g>
<g filter="url(#filter3_d_279_772)">
<path d="M9.46271 10.6721C8.65799 9.83299 6.51111 9.64036 5.70638 10.4795C4.9472 11.2711 5.188 13.059 5.94718 13.8506C6.7519 14.6896 8.85918 14.7828 9.66391 13.9437C10.4231 13.1521 10.2219 11.4637 9.46271 10.6721Z" fill="#F4F5F7"/>
</g>
<g filter="url(#filter4_d_279_772)">
<path d="M15.1152 10.9014C15.2383 10.9014 15.3543 10.9473 15.459 11.0273C15.3417 11.0801 15.2598 11.198 15.2598 11.335C15.2598 11.521 15.4107 11.6717 15.5967 11.6719C15.6852 11.6719 15.7651 11.6368 15.8252 11.5811C15.8938 11.7783 15.9346 12.0064 15.9346 12.25C15.9345 12.9947 15.5674 13.5986 15.1152 13.5986C14.6632 13.5984 14.2969 12.9945 14.2969 12.25C14.2969 11.5054 14.6632 10.9016 15.1152 10.9014Z" fill="#32363B"/>
</g>
<g filter="url(#filter5_d_279_772)">
<path d="M7.80176 10.9128C7.92457 10.9129 8.03999 10.959 8.14453 11.0388C8.02741 11.0916 7.94629 11.2096 7.94629 11.3464C7.94637 11.5326 8.09707 11.6833 8.2832 11.6833C8.37174 11.6833 8.45159 11.6484 8.51172 11.5925C8.58026 11.7897 8.62012 12.018 8.62012 12.2615C8.62007 13.006 8.25377 13.6099 7.80176 13.6101C7.34963 13.6101 6.98247 13.0061 6.98242 12.2615C6.98242 11.5167 7.3496 10.9128 7.80176 10.9128Z" fill="#32363B"/>
</g>
<g filter="url(#filter6_d_279_772)">
<path d="M10.4434 14.2634C10.4434 14.2135 10.4802 14.1712 10.53 14.168C10.5909 14.164 10.6719 14.1627 10.7323 14.1763C10.8252 14.1971 10.9344 14.2677 11.0027 14.3174C11.0421 14.346 11.0967 14.346 11.1361 14.3174C11.2045 14.2677 11.3136 14.1971 11.4065 14.1763C11.4669 14.1627 11.5479 14.164 11.6088 14.168C11.6586 14.1712 11.6955 14.2135 11.6955 14.2634V14.3071C11.6955 14.345 11.6741 14.3796 11.6402 14.3965L11.3435 14.5449C11.322 14.5556 11.3051 14.5737 11.2959 14.5959L11.1617 14.9179C11.1275 14.9999 11.0113 14.9999 10.9771 14.9179L10.8429 14.5959C10.8337 14.5737 10.8168 14.5556 10.7954 14.5449L10.4986 14.3965C10.4648 14.3796 10.4434 14.345 10.4434 14.3071V14.2634Z" fill="#F4F5F7"/>
</g>
<g filter="url(#filter7_d_279_772)">
<path d="M13.7193 19.7145C13.7193 20.6454 12.772 21.4 11.8411 21.4C10.9102 21.4 9.96289 20.6454 9.96289 19.7145C9.96289 18.7836 10.9102 18.0289 11.8411 18.0289C12.772 18.0289 13.7193 18.7836 13.7193 19.7145Z" fill="#B8A64F"/>
</g>
<g filter="url(#filter8_d_279_772)">
<ellipse cx="11.6484" cy="19.7145" rx="1.68555" ry="1.68555" fill="#D1C06A"/>
</g>
<g filter="url(#filter9_d_279_772)">
<path d="M11.3258 19.5669C11.3175 19.3583 11.4871 19.1847 11.6958 19.1847C11.9045 19.1847 12.0741 19.3583 12.0658 19.5669L12.0613 19.6782C12.0568 19.7909 11.9725 19.8842 11.8609 19.9002V20.1754C11.8609 20.2666 11.787 20.3405 11.6958 20.3405C11.6046 20.3405 11.5307 20.2666 11.5307 20.1754V19.9002C11.4191 19.8842 11.3348 19.7909 11.3303 19.6782L11.3258 19.5669Z" fill="#32363B"/>
</g>
<defs>
<filter id="filter0_d_279_772" x="4.13867" y="5.06763" width="16.4406" height="14.8245" filterUnits="userSpaceOnUse" color-interpolation-filters="sRGB">
<feFlood flood-opacity="0" result="BackgroundImageFix"/>
<feColorMatrix in="SourceAlpha" type="matrix" values="0 0 0 0 0 0 0 0 0 0 0 0 0 0 0 0 0 0 127 0" result="hardAlpha"/>
<feOffset dx="0.4" dy="0.4"/>
<feGaussianBlur stdDeviation="0.2"/>
<feComposite in2="hardAlpha" operator="out"/>
<feColorMatrix type="matrix" values="0 0 0 0 0 0 0 0 0 0 0 0 0 0 0 0 0 0 0.25 0"/>
<feBlend mode="normal" in2="BackgroundImageFix" result="effect1_dropShadow_279_772"/>
<feBlend mode="normal" in="SourceGraphic" in2="effect1_dropShadow_279_772" result="shape"/>
</filter>
<filter id="filter1_d_279_772" x="4.13867" y="5.06763" width="16.4387" height="13.7608" filterUnits="userSpaceOnUse" color-interpolation-filters="sRGB">
<feFlood flood-opacity="0" result="BackgroundImageFix"/>
<feColorMatrix in="SourceAlpha" type="matrix" values="0 0 0 0 0 0 0 0 0 0 0 0 0 0 0 0 0 0 127 0" result="hardAlpha"/>
<feOffset dx="0.4" dy="0.4"/>
<feGaussianBlur stdDeviation="0.2"/>
<feComposite in2="hardAlpha" operator="out"/>
<feColorMatrix type="matrix" values="0 0 0 0 0 0 0 0 0 0 0 0 0 0 0 0 0 0 0.25 0"/>
<feBlend mode="normal" in2="BackgroundImageFix" result="effect1_dropShadow_279_772"/>
<feBlend mode="normal" in="SourceGraphic" in2="effect1_dropShadow_279_772" result="shape"/>
</filter>
<filter id="filter2_d_279_772" x="12.4609" y="9.92676" width="5.69844" height="5.39009" filterUnits="userSpaceOnUse" color-interpolation-filters="sRGB">
<feFlood flood-opacity="0" result="BackgroundImageFix"/>
<feColorMatrix in="SourceAlpha" type="matrix" values="0 0 0 0 0 0 0 0 0 0 0 0 0 0 0 0 0 0 127 0" result="hardAlpha"/>
<feOffset dx="0.4" dy="0.4"/>
<feGaussianBlur stdDeviation="0.2"/>
<feComposite in2="hardAlpha" operator="out"/>
<feColorMatrix type="matrix" values="0 0 0 0 0 0 0 0 0 0 0 0 0 0 0 0 0 0 0.25 0"/>
<feBlend mode="normal" in2="BackgroundImageFix" result="effect1_dropShadow_279_772"/>
<feBlend mode="normal" in="SourceGraphic" in2="effect1_dropShadow_279_772" result="shape"/>
</filter>
<filter id="filter3_d_279_772" x="5.24414" y="9.93823" width="5.69844" height="5.39009" filterUnits="userSpaceOnUse" color-interpolation-filters="sRGB">
<feFlood flood-opacity="0" result="BackgroundImageFix"/>
<feColorMatrix in="SourceAlpha" type="matrix" values="0 0 0 0 0 0 0 0 0 0 0 0 0 0 0 0 0 0 127 0" result="hardAlpha"/>
<feOffset dx="0.4" dy="0.4"/>
<feGaussianBlur stdDeviation="0.2"/>
<feComposite in2="hardAlpha" operator="out"/>
<feColorMatrix type="matrix" values="0 0 0 0 0 0 0 0 0 0 0 0 0 0 0 0 0 0 0.25 0"/>
<feBlend mode="normal" in2="BackgroundImageFix" result="effect1_dropShadow_279_772"/>
<feBlend mode="normal" in="SourceGraphic" in2="effect1_dropShadow_279_772" result="shape"/>
</filter>
<filter id="filter4_d_279_772" x="14.2969" y="10.9014" width="2.43672" height="3.49727" filterUnits="userSpaceOnUse" color-interpolation-filters="sRGB">
<feFlood flood-opacity="0" result="BackgroundImageFix"/>
<feColorMatrix in="SourceAlpha" type="matrix" values="0 0 0 0 0 0 0 0 0 0 0 0 0 0 0 0 0 0 127 0" result="hardAlpha"/>
<feOffset dx="0.4" dy="0.4"/>
<feGaussianBlur stdDeviation="0.2"/>
<feComposite in2="hardAlpha" operator="out"/>
<feColorMatrix type="matrix" values="0 0 0 0 0 0 0 0 0 0 0 0 0 0 0 0 0 0 0.25 0"/>
<feBlend mode="normal" in2="BackgroundImageFix" result="effect1_dropShadow_279_772"/>
<feBlend mode="normal" in="SourceGraphic" in2="effect1_dropShadow_279_772" result="shape"/>
</filter>
<filter id="filter5_d_279_772" x="6.98242" y="10.9128" width="2.43867" height="3.49727" filterUnits="userSpaceOnUse" color-interpolation-filters="sRGB">
<feFlood flood-opacity="0" result="BackgroundImageFix"/>
<feColorMatrix in="SourceAlpha" type="matrix" values="0 0 0 0 0 0 0 0 0 0 0 0 0 0 0 0 0 0 127 0" result="hardAlpha"/>
<feOffset dx="0.4" dy="0.4"/>
<feGaussianBlur stdDeviation="0.2"/>
<feComposite in2="hardAlpha" operator="out"/>
<feColorMatrix type="matrix" values="0 0 0 0 0 0 0 0 0 0 0 0 0 0 0 0 0 0 0.25 0"/>
<feBlend mode="normal" in2="BackgroundImageFix" result="effect1_dropShadow_279_772"/>
<feBlend mode="normal" in="SourceGraphic" in2="effect1_dropShadow_279_772" result="shape"/>
</filter>
<filter id="filter6_d_279_772" x="10.4434" y="14.1653" width="2.05195" height="1.61421" filterUnits="userSpaceOnUse" color-interpolation-filters="sRGB">
<feFlood flood-opacity="0" result="BackgroundImageFix"/>
<feColorMatrix in="SourceAlpha" type="matrix" values="0 0 0 0 0 0 0 0 0 0 0 0 0 0 0 0 0 0 127 0" result="hardAlpha"/>
<feOffset dx="0.4" dy="0.4"/>
<feGaussianBlur stdDeviation="0.2"/>
<feComposite in2="hardAlpha" operator="out"/>
<feColorMatrix type="matrix" values="0 0 0 0 0 0 0 0 0 0 0 0 0 0 0 0 0 0 0.25 0"/>
<feBlend mode="normal" in2="BackgroundImageFix" result="effect1_dropShadow_279_772"/>
<feBlend mode="normal" in="SourceGraphic" in2="effect1_dropShadow_279_772" result="shape"/>
</filter>
<filter id="filter7_d_279_772" x="9.96289" y="18.0289" width="4.55586" height="4.17109" filterUnits="userSpaceOnUse" color-interpolation-filters="sRGB">
<feFlood flood-opacity="0" result="BackgroundImageFix"/>
<feColorMatrix in="SourceAlpha" type="matrix" values="0 0 0 0 0 0 0 0 0 0 0 0 0 0 0 0 0 0 127 0" result="hardAlpha"/>
<feOffset dx="0.4" dy="0.4"/>
<feGaussianBlur stdDeviation="0.2"/>
<feComposite in2="hardAlpha" operator="out"/>
<feColorMatrix type="matrix" values="0 0 0 0 0 0 0 0 0 0 0 0 0 0 0 0 0 0 0.25 0"/>
<feBlend mode="normal" in2="BackgroundImageFix" result="effect1_dropShadow_279_772"/>
<feBlend mode="normal" in="SourceGraphic" in2="effect1_dropShadow_279_772" result="shape"/>
</filter>
<filter id="filter8_d_279_772" x="9.96289" y="18.0289" width="4.17109" height="4.17109" filterUnits="userSpaceOnUse" color-interpolation-filters="sRGB">
<feFlood flood-opacity="0" result="BackgroundImageFix"/>
<feColorMatrix in="SourceAlpha" type="matrix" values="0 0 0 0 0 0 0 0 0 0 0 0 0 0 0 0 0 0 127 0" result="hardAlpha"/>
<feOffset dx="0.4" dy="0.4"/>
<feGaussianBlur stdDeviation="0.2"/>
<feComposite in2="hardAlpha" operator="out"/>
<feColorMatrix type="matrix" values="0 0 0 0 0 0 0 0 0 0 0 0 0 0 0 0 0 0 0.25 0"/>
<feBlend mode="normal" in2="BackgroundImageFix" result="effect1_dropShadow_279_772"/>
<feBlend mode="normal" in="SourceGraphic" in2="effect1_dropShadow_279_772" result="shape"/>
</filter>
<filter id="filter9_d_279_772" x="11.3262" y="19.1847" width="1.54023" height="1.95576" filterUnits="userSpaceOnUse" color-interpolation-filters="sRGB">
<feFlood flood-opacity="0" result="BackgroundImageFix"/>
<feColorMatrix in="SourceAlpha" type="matrix" values="0 0 0 0 0 0 0 0 0 0 0 0 0 0 0 0 0 0 127 0" result="hardAlpha"/>
<feOffset dx="0.4" dy="0.4"/>
<feGaussianBlur stdDeviation="0.2"/>
<feComposite in2="hardAlpha" operator="out"/>
<feColorMatrix type="matrix" values="0 0 0 0 0 0 0 0 0 0 0 0 0 0 0 0 0 0 0.25 0"/>
<feBlend mode="normal" in2="BackgroundImageFix" result="effect1_dropShadow_279_772"/>
<feBlend mode="normal" in="SourceGraphic" in2="effect1_dropShadow_279_772" result="shape"/>
</filter>
</defs>
</svg>
