<svg width="24" height="24" viewBox="0 0 24 24" fill="none" xmlns="http://www.w3.org/2000/svg">
<rect width="24" height="24" rx="6" fill="#32363B"/>
<g filter="url(#filter0_d_189_154)">
<path d="M6.90039 5.51065C6.9004 5.08499 7.41201 4.84685 7.76043 5.11034L9.64358 6.53446C10.0035 6.80661 10.2135 7.22202 10.2135 7.66168V18.9823C8.35309 18.8041 6.90043 17.2976 6.90043 15.4656C6.90043 15.4623 6.9004 15.459 6.90039 15.4556V5.51065Z" fill="#4F5F9F"/>
</g>
<g filter="url(#filter1_d_189_154)">
<path d="M16.4987 12.4468C16.8794 12.9219 17.1066 13.5221 17.1066 14.1746C17.1066 15.1329 16.6165 15.9783 15.87 16.4806C14.7588 17.158 13.5281 18.4389 11.7006 18.8328C11.2281 18.9346 10.7423 18.9999 10.4743 18.9999C9.2798 18.9999 8.22174 18.4238 7.57031 17.5381L7.57122 17.5126L16.3862 12.4949C16.423 12.4739 16.4607 12.458 16.4987 12.4468Z" fill="#3F79AD"/>
</g>
<g filter="url(#filter2_d_189_154)">
<path d="M12.0374 9.79939C12.0253 9.39502 12.4005 9.13295 12.702 9.33526L15.6607 11.331C16.5248 11.8623 17.1073 12.871 17.1073 14.0191C17.1073 14.6465 17 15.179 16.6346 15.7172C15.9356 15.4026 12.7249 13.0611 12.7223 13.0592C12.3496 12.8091 12.1141 12.3534 12.0991 11.8534L12.0374 9.79939Z" fill="#5F97C9"/>
</g>
<defs>
<filter id="filter0_d_189_154" x="6.90039" y="5" width="4.1125" height="14.7824" filterUnits="userSpaceOnUse" color-interpolation-filters="sRGB">
<feFlood flood-opacity="0" result="BackgroundImageFix"/>
<feColorMatrix in="SourceAlpha" type="matrix" values="0 0 0 0 0 0 0 0 0 0 0 0 0 0 0 0 0 0 127 0" result="hardAlpha"/>
<feOffset dx="0.4" dy="0.4"/>
<feGaussianBlur stdDeviation="0.2"/>
<feComposite in2="hardAlpha" operator="out"/>
<feColorMatrix type="matrix" values="0 0 0 0 0 0 0 0 0 0 0 0 0 0 0 0 0 0 0.25 0"/>
<feBlend mode="normal" in2="BackgroundImageFix" result="effect1_dropShadow_189_154"/>
<feBlend mode="normal" in="SourceGraphic" in2="effect1_dropShadow_189_154" result="shape"/>
</filter>
<filter id="filter1_d_189_154" x="7.57031" y="12.4468" width="10.3371" height="7.35322" filterUnits="userSpaceOnUse" color-interpolation-filters="sRGB">
<feFlood flood-opacity="0" result="BackgroundImageFix"/>
<feColorMatrix in="SourceAlpha" type="matrix" values="0 0 0 0 0 0 0 0 0 0 0 0 0 0 0 0 0 0 127 0" result="hardAlpha"/>
<feOffset dx="0.4" dy="0.4"/>
<feGaussianBlur stdDeviation="0.2"/>
<feComposite in2="hardAlpha" operator="out"/>
<feColorMatrix type="matrix" values="0 0 0 0 0 0 0 0 0 0 0 0 0 0 0 0 0 0 0.25 0"/>
<feBlend mode="normal" in2="BackgroundImageFix" result="effect1_dropShadow_189_154"/>
<feBlend mode="normal" in="SourceGraphic" in2="effect1_dropShadow_189_154" result="shape"/>
</filter>
<filter id="filter2_d_189_154" x="12.0371" y="9.26538" width="5.87031" height="7.2519" filterUnits="userSpaceOnUse" color-interpolation-filters="sRGB">
<feFlood flood-opacity="0" result="BackgroundImageFix"/>
<feColorMatrix in="SourceAlpha" type="matrix" values="0 0 0 0 0 0 0 0 0 0 0 0 0 0 0 0 0 0 127 0" result="hardAlpha"/>
<feOffset dx="0.4" dy="0.4"/>
<feGaussianBlur stdDeviation="0.2"/>
<feComposite in2="hardAlpha" operator="out"/>
<feColorMatrix type="matrix" values="0 0 0 0 0 0 0 0 0 0 0 0 0 0 0 0 0 0 0.25 0"/>
<feBlend mode="normal" in2="BackgroundImageFix" result="effect1_dropShadow_189_154"/>
<feBlend mode="normal" in="SourceGraphic" in2="effect1_dropShadow_189_154" result="shape"/>
</filter>
</defs>
</svg>
