<svg width="24" height="24" viewBox="0 0 24 24" fill="none" xmlns="http://www.w3.org/2000/svg">
<rect width="24" height="24" rx="6" fill="#32363B"/>
<g filter="url(#filter0_d_288_461)">
<path d="M7.32432 5.00024C7.49166 5.00425 7.65534 5.04986 7.80029 5.13285L13.0506 8.13754L15.7642 9.69057L18.3008 11.1423C18.4526 11.2293 18.5787 11.3544 18.6663 11.505C18.754 11.6556 18.8001 11.8265 18.8001 12.0003C18.8001 12.1742 18.754 12.345 18.6663 12.4956C18.5787 12.6462 18.4526 12.7713 18.3008 12.8583L15.7366 14.3258L15.7365 14.3257L13.0504 15.8631L7.8002 18.8678C7.62295 18.9689 7.41867 19.0138 7.21494 18.9962C7.0112 18.9787 6.81775 18.8997 6.66074 18.7698L6.66094 18.7695C6.55913 18.6855 6.47494 18.5821 6.41357 18.4651C6.33981 18.3245 6.3011 18.1683 6.30078 18.0098V14.7999H8.82295C9.03302 14.7999 9.23471 14.8826 9.38438 15.03L11.2664 16.8839L13.0504 15.8631L13.5117 15.599L12.8299 11.2157C12.6404 9.99799 11.5919 9.09994 10.3596 9.09994H6.30078V5.99086C6.30087 5.84384 6.33397 5.69864 6.39766 5.56586C6.46134 5.43308 6.55406 5.31597 6.66904 5.22309L6.66973 5.22377C6.85376 5.07465 7.08578 4.99507 7.32432 5.00024ZM9.15078 12.5499C9.56498 12.5499 9.90076 12.8857 9.90078 13.2999C9.90078 13.7142 9.56499 14.0499 9.15078 14.0499C8.73657 14.0499 8.40078 13.7142 8.40078 13.2999C8.4008 12.8857 8.73658 12.5499 9.15078 12.5499ZM7.85078 11.1999C8.26498 11.1999 8.60076 11.5357 8.60078 11.9499C8.60078 12.3642 8.26499 12.6999 7.85078 12.6999C7.43657 12.6999 7.10078 12.3642 7.10078 11.9499C7.1008 11.5357 7.43658 11.1999 7.85078 11.1999ZM10.4508 11.1999C10.865 11.1999 11.2008 11.5357 11.2008 11.9499C11.2008 12.3642 10.865 12.6999 10.4508 12.6999C10.0366 12.6999 9.70078 12.3642 9.70078 11.9499C9.7008 11.5357 10.0366 11.1999 10.4508 11.1999ZM9.15078 9.79994C9.56498 9.79994 9.90076 10.1357 9.90078 10.5499C9.90078 10.9642 9.56499 11.2999 9.15078 11.2999C8.73657 11.2999 8.40078 10.9642 8.40078 10.5499C8.4008 10.1357 8.73658 9.79994 9.15078 9.79994Z" fill="#4F9B7A"/>
</g>
<g filter="url(#filter1_d_288_461)">
<path d="M10.3596 9.1001C11.5919 9.1001 12.6405 9.99812 12.8299 11.2158L13.5117 15.5991L13.0504 15.8632L11.2664 16.8841L9.38438 15.0302C9.23471 14.8827 9.03303 14.8001 8.82295 14.8001H6.30078V9.1001H10.3596ZM9.15078 12.5501C8.73657 12.5501 8.40078 12.8859 8.40078 13.3001C8.40078 13.7143 8.73657 14.0501 9.15078 14.0501C9.56499 14.0501 9.90078 13.7143 9.90078 13.3001C9.90078 12.8859 9.56499 12.5501 9.15078 12.5501ZM7.85078 11.2001C7.43657 11.2001 7.10078 11.5359 7.10078 11.9501C7.10078 12.3643 7.43657 12.7001 7.85078 12.7001C8.26499 12.7001 8.60078 12.3643 8.60078 11.9501C8.60078 11.5359 8.26499 11.2001 7.85078 11.2001ZM10.4508 11.2001C10.0366 11.2001 9.70078 11.5359 9.70078 11.9501C9.70078 12.3643 10.0366 12.7001 10.4508 12.7001C10.865 12.7001 11.2008 12.3643 11.2008 11.9501C11.2008 11.5359 10.865 11.2001 10.4508 11.2001ZM9.15078 9.8001C8.73657 9.8001 8.40078 10.1359 8.40078 10.5501C8.40078 10.9643 8.73657 11.3001 9.15078 11.3001C9.56499 11.3001 9.90078 10.9643 9.90078 10.5501C9.90078 10.1359 9.56499 9.8001 9.15078 9.8001Z" fill="#F4F5F7"/>
</g>
<defs>
<filter id="filter0_d_288_461" x="6.30078" y="5" width="13.3" height="14.8" filterUnits="userSpaceOnUse" color-interpolation-filters="sRGB">
<feFlood flood-opacity="0" result="BackgroundImageFix"/>
<feColorMatrix in="SourceAlpha" type="matrix" values="0 0 0 0 0 0 0 0 0 0 0 0 0 0 0 0 0 0 127 0" result="hardAlpha"/>
<feOffset dx="0.4" dy="0.4"/>
<feGaussianBlur stdDeviation="0.2"/>
<feComposite in2="hardAlpha" operator="out"/>
<feColorMatrix type="matrix" values="0 0 0 0 0 0 0 0 0 0 0 0 0 0 0 0 0 0 0.25 0"/>
<feBlend mode="normal" in2="BackgroundImageFix" result="effect1_dropShadow_288_461"/>
<feBlend mode="normal" in="SourceGraphic" in2="effect1_dropShadow_288_461" result="shape"/>
</filter>
<filter id="filter1_d_288_461" x="6.30078" y="9.1001" width="8.01094" height="8.58394" filterUnits="userSpaceOnUse" color-interpolation-filters="sRGB">
<feFlood flood-opacity="0" result="BackgroundImageFix"/>
<feColorMatrix in="SourceAlpha" type="matrix" values="0 0 0 0 0 0 0 0 0 0 0 0 0 0 0 0 0 0 127 0" result="hardAlpha"/>
<feOffset dx="0.4" dy="0.4"/>
<feGaussianBlur stdDeviation="0.2"/>
<feComposite in2="hardAlpha" operator="out"/>
<feColorMatrix type="matrix" values="0 0 0 0 0 0 0 0 0 0 0 0 0 0 0 0 0 0 0.25 0"/>
<feBlend mode="normal" in2="BackgroundImageFix" result="effect1_dropShadow_288_461"/>
<feBlend mode="normal" in="SourceGraphic" in2="effect1_dropShadow_288_461" result="shape"/>
</filter>
</defs>
</svg>
