<svg width="24" height="24" viewBox="0 0 24 24" fill="none" xmlns="http://www.w3.org/2000/svg">
<rect width="24" height="24" rx="6" fill="#32363B"/>
<g filter="url(#filter0_d_291_3366)">
<path d="M9.63351 14.3333C9.01484 14.3333 8.4215 14.5791 7.98402 15.0166C7.54655 15.454 7.30078 16.0474 7.30078 16.6661C7.30063 16.9725 7.36085 17.276 7.47801 17.5591C7.59517 17.8423 7.76698 18.0996 7.98361 18.3163C8.20024 18.5331 8.45745 18.705 8.74054 18.8223C9.02364 18.9396 9.32708 19 9.63351 19C9.94005 19.0002 10.2436 18.9399 10.5268 18.8227C10.8101 18.7054 11.0674 18.5335 11.2842 18.3168C11.5009 18.1 11.6728 17.8426 11.7901 17.5594C11.9073 17.2762 11.9676 16.9726 11.9674 16.6661V14.3333L10.8005 14.0333L9.63351 14.3333Z" fill="#4F9B7A"/>
<path d="M9.63352 9.6667L10.8005 9.3667L11.9674 9.6667V14.3334H9.63352C9.32701 14.334 9.02339 14.2741 8.74009 14.1571C8.45679 14.0401 8.19938 13.8682 7.98265 13.6515C7.76591 13.4348 7.5941 13.1774 7.47709 12.8941C7.36008 12.6108 7.30017 12.3071 7.30079 12.0006C7.30079 10.7073 8.34134 9.6667 9.63352 9.6667Z" fill="#6B58A7"/>
<path d="M14.2995 14.3321C15.5879 14.3321 16.6323 13.2877 16.6323 11.9994C16.6323 10.711 15.5879 9.66663 14.2995 9.66663C13.0112 9.66663 11.9668 10.711 11.9668 11.9994C11.9668 13.2877 13.0112 14.3321 14.2995 14.3321Z" fill="#5F97C9"/>
<path d="M9.63352 5C9.32691 4.99938 9.02319 5.05934 8.73982 5.17642C8.45644 5.29351 8.19898 5.46542 7.98223 5.68228C7.76548 5.89915 7.5937 6.15669 7.47676 6.44013C7.35981 6.72357 7.30001 7.02731 7.30079 7.33393C7.30017 7.64044 7.36008 7.94406 7.47709 8.22736C7.59411 8.51067 7.76591 8.76807 7.98265 8.98481C8.19939 9.20155 8.45679 9.37336 8.74009 9.49037C9.02339 9.60738 9.32701 9.6673 9.63352 9.66668H11.9674L12.2674 7.33334L11.9674 5H9.63352Z" fill="#B0733F"/>
<path d="M11.9668 5H14.2995C15.5929 5 16.6323 6.04057 16.6323 7.33392C16.6329 7.64044 16.573 7.94406 16.456 8.22736C16.3389 8.51066 16.1671 8.76807 15.9504 8.98481C15.7337 9.20155 15.4763 9.37335 15.193 9.49036C14.9097 9.60738 14.606 9.66729 14.2995 9.66667H11.9668V5Z" fill="#D2945A"/>
</g>
<defs>
<filter id="filter0_d_291_3366" x="7.30078" y="5" width="10.132" height="14.8" filterUnits="userSpaceOnUse" color-interpolation-filters="sRGB">
<feFlood flood-opacity="0" result="BackgroundImageFix"/>
<feColorMatrix in="SourceAlpha" type="matrix" values="0 0 0 0 0 0 0 0 0 0 0 0 0 0 0 0 0 0 127 0" result="hardAlpha"/>
<feOffset dx="0.4" dy="0.4"/>
<feGaussianBlur stdDeviation="0.2"/>
<feComposite in2="hardAlpha" operator="out"/>
<feColorMatrix type="matrix" values="0 0 0 0 0 0 0 0 0 0 0 0 0 0 0 0 0 0 0.25 0"/>
<feBlend mode="normal" in2="BackgroundImageFix" result="effect1_dropShadow_291_3366"/>
<feBlend mode="normal" in="SourceGraphic" in2="effect1_dropShadow_291_3366" result="shape"/>
</filter>
</defs>
</svg>
