<svg width="24" height="24" viewBox="0 0 24 24" fill="none" xmlns="http://www.w3.org/2000/svg">
<rect width="24" height="24" rx="6" fill="#32363B"/>
<g filter="url(#filter0_d_239_423)">
<path d="M10.2125 7.26651C10.8265 6.3131 12.0641 5.97442 12.9989 6.5199L13.0971 6.57656C14.0216 7.15966 14.3734 8.40062 13.8437 9.36295L9.65079 16.6252C9.08752 17.6008 7.84001 17.9351 6.8644 17.3718L6.76626 17.3152C5.79065 16.7519 5.45639 15.5044 6.01965 14.5288L10.2125 7.26651Z" fill="#B8A64F"/>
<path d="M9.65075 14.4623C9.08748 13.4867 7.83997 13.1524 6.86436 13.7157L6.76622 13.7723C5.79061 14.3356 5.45634 15.5831 6.01961 16.5587L6.07627 16.6569C6.63954 17.6325 7.88705 17.9668 8.86266 17.4035L8.9608 17.3468C9.93641 16.7836 10.2707 15.536 9.70741 14.5604L9.65075 14.4623Z" fill="#4F9B7A"/>
<path d="M13.7875 7.2665C13.2242 6.29089 11.9767 5.95662 11.0011 6.51989L10.9029 6.57655C9.92733 7.13982 9.59306 8.38732 10.1563 9.36293L14.3492 16.6252C14.9125 17.6008 16.16 17.9351 17.1356 17.3718L17.2337 17.3152C18.2093 16.7519 18.5436 15.5044 17.9803 14.5288L13.7875 7.2665Z" fill="#3F79AD"/>
</g>
<defs>
<filter id="filter0_d_239_423" x="5.74609" y="6.24634" width="13.3078" height="12.2307" filterUnits="userSpaceOnUse" color-interpolation-filters="sRGB">
<feFlood flood-opacity="0" result="BackgroundImageFix"/>
<feColorMatrix in="SourceAlpha" type="matrix" values="0 0 0 0 0 0 0 0 0 0 0 0 0 0 0 0 0 0 127 0" result="hardAlpha"/>
<feOffset dx="0.4" dy="0.4"/>
<feGaussianBlur stdDeviation="0.2"/>
<feComposite in2="hardAlpha" operator="out"/>
<feColorMatrix type="matrix" values="0 0 0 0 0 0 0 0 0 0 0 0 0 0 0 0 0 0 0.25 0"/>
<feBlend mode="normal" in2="BackgroundImageFix" result="effect1_dropShadow_239_423"/>
<feBlend mode="normal" in="SourceGraphic" in2="effect1_dropShadow_239_423" result="shape"/>
</filter>
</defs>
</svg>
