<svg width="24" height="24" viewBox="0 0 24 24" fill="none" xmlns="http://www.w3.org/2000/svg">
<g clip-path="url(#clip0_279_735)">
<rect width="24" height="24" rx="6" fill="#32363B"/>
<path d="M18 0C21.3137 0 24 2.68629 24 6V18C24 21.3137 21.3137 24 18 24H15.6804C14.1631 12.1068 3.80154 12.7969 0 12.1001V12.0893C3.8472 11.415 11.1052 12.6374 15.6995 0.0804688C15.7094 0.053511 15.719 0.0266552 15.7284 0H18Z" fill="#C07FA0"/>
<path d="M0 12.1C3.81216 12.7987 14.2211 12.1028 15.6929 24.0999H6C2.68629 24.0999 0 21.4136 0 18.0999V12.1Z" fill="#D2945A"/>
<path d="M-0.000195312 12.1C0.0381782 12.093 -0.0392633 12.1066 -0.000195312 12.1C-0.0395714 12.0933 0.0378801 12.107 -0.000195312 12.1ZM15.7282 0C15.7188 0.0266473 15.7092 0.0535191 15.6993 0.0804688C11.105 12.6374 3.84699 11.415 -0.000212844 12.0893V6C-0.000212844 2.68629 2.68608 0 5.99979 0H15.7282Z" fill="#6B58A7"/>
<g filter="url(#filter0_d_279_735)">
<path d="M14.4004 5C16.9406 5.00021 18.9998 7.05941 19 9.59961V14.4004C18.9998 16.9406 16.9406 18.9998 14.4004 19H9.59961C7.05941 18.9998 5.00021 16.9406 5 14.4004V9.59961C5.00021 7.05941 7.05941 5.00021 9.59961 5H14.4004ZM9.4502 6.25C7.68288 6.25 6.25 7.68288 6.25 9.4502V14.5498C6.25 16.3171 7.68288 17.75 9.4502 17.75H14.5498C14.7155 17.75 14.8782 17.7372 15.0371 17.7129C15.1962 17.6886 15.3515 17.6532 15.502 17.6064C15.6522 17.5597 15.7977 17.502 15.9375 17.4346C16.0774 17.3672 16.2112 17.2894 16.3389 17.2031C16.6793 16.9731 16.9731 16.6793 17.2031 16.3389C17.2894 16.2112 17.3672 16.0774 17.4346 15.9375C17.502 15.7977 17.5597 15.6522 17.6064 15.502C17.6376 15.4018 17.6633 15.2994 17.6846 15.1953C17.7273 14.9868 17.75 14.7709 17.75 14.5498V9.4502C17.75 9.39491 17.7489 9.33975 17.7461 9.28516C17.7378 9.12143 17.7166 8.96102 17.6846 8.80469C17.6633 8.70061 17.6376 8.59818 17.6064 8.49805C17.5597 8.34781 17.502 8.20234 17.4346 8.0625C17.3672 7.92264 17.2894 7.78878 17.2031 7.66113C16.9731 7.32066 16.6793 7.02691 16.3389 6.79688C16.2112 6.71064 16.0774 6.63282 15.9375 6.56543C15.7977 6.49803 15.6522 6.44031 15.502 6.39355C15.4018 6.3624 15.2994 6.33674 15.1953 6.31543C14.9868 6.27271 14.7709 6.25 14.5498 6.25H9.4502Z" fill="#F4F5F7"/>
<path d="M15.5827 12C15.5827 13.979 13.9784 15.5833 11.9993 15.5833C10.0203 15.5833 8.41602 13.979 8.41602 12C8.41602 10.0209 10.0203 8.41663 11.9993 8.41663C13.9784 8.41663 15.5827 10.0209 15.5827 12ZM9.66005 12C9.66005 13.2919 10.7074 14.3393 11.9993 14.3393C13.2913 14.3393 14.3387 13.2919 14.3387 12C14.3387 10.708 13.2913 9.66066 11.9993 9.66066C10.7074 9.66066 9.66005 10.708 9.66005 12Z" fill="#F4F5F7"/>
<circle cx="15.7493" cy="8.24996" r="0.833333" fill="#F4F5F7"/>
</g>
</g>
<defs>
<filter id="filter0_d_279_735" x="5" y="5" width="14.8" height="14.8" filterUnits="userSpaceOnUse" color-interpolation-filters="sRGB">
<feFlood flood-opacity="0" result="BackgroundImageFix"/>
<feColorMatrix in="SourceAlpha" type="matrix" values="0 0 0 0 0 0 0 0 0 0 0 0 0 0 0 0 0 0 127 0" result="hardAlpha"/>
<feOffset dx="0.4" dy="0.4"/>
<feGaussianBlur stdDeviation="0.2"/>
<feComposite in2="hardAlpha" operator="out"/>
<feColorMatrix type="matrix" values="0 0 0 0 0 0 0 0 0 0 0 0 0 0 0 0 0 0 0.25 0"/>
<feBlend mode="normal" in2="BackgroundImageFix" result="effect1_dropShadow_279_735"/>
<feBlend mode="normal" in="SourceGraphic" in2="effect1_dropShadow_279_735" result="shape"/>
</filter>
<clipPath id="clip0_279_735">
<rect width="24" height="24" rx="6" fill="white"/>
</clipPath>
</defs>
</svg>
