<svg width="24" height="24" viewBox="0 0 24 24" fill="none" xmlns="http://www.w3.org/2000/svg">
<rect width="24" height="24" rx="6" fill="#4F5F9F"/>
<g filter="url(#filter0_d_279_758)">
<path d="M12.1422 5.09998C8.35486 5.09998 5.28437 8.16696 5.28437 11.95C5.28437 13.1676 5.59861 14.3087 6.15061 15.2928C6.15061 15.2928 6.46127 15.6602 5.30361 16.583C4.55611 17.1803 5.33407 17.7929 6.0739 17.881C6.58373 17.9422 7.75305 17.8811 8.27054 17.6093C9.37454 18.3597 10.7046 18.8 12.1383 18.8C15.9256 18.8 19 15.733 19 11.95C19 8.16696 15.9295 5.09998 12.1422 5.09998ZM12.1247 6.09634C15.3634 6.09634 17.9811 8.71869 17.9811 11.95C17.9811 15.1813 15.3557 17.8036 12.1208 17.8036C10.7528 17.8036 9.49558 17.3354 8.49727 16.5513C8.4325 16.5513 7.12929 16.9358 6.51201 16.7265C7.49889 15.9843 7.11401 14.9909 7.11401 14.9909C6.57675 14.1041 6.26434 13.0613 6.26434 11.95C6.26434 8.71869 8.88968 6.09634 12.1247 6.09634ZM8.5053 9.8327C8.27947 9.8327 8.1311 9.99543 8.13465 10.21C8.13111 10.4134 8.27934 10.58 8.50165 10.58C8.73455 10.58 8.88278 10.4134 8.88278 10.21C8.87571 9.99543 8.73114 9.8327 8.5053 9.8327ZM8.28418 11.0782C8.13084 11.0782 8.13465 11.2365 8.13465 11.2365V13.3759C8.13465 13.5613 8.26567 13.5691 8.26567 13.5691H8.7106C8.89385 13.5691 8.88253 13.345 8.88253 13.345V11.2713C8.88253 11.0782 8.71815 11.0782 8.71815 11.0782H8.28418ZM12.5423 11.0782C12.3589 11.0782 12.2101 11.1196 12.0725 11.1986C11.9579 11.2701 11.8469 11.368 11.7552 11.4922H11.7438C11.6368 11.2401 11.3846 11.082 11.0675 11.082C10.6434 11.082 10.4295 11.3114 10.3225 11.4657H10.3072L10.2882 11.3474C10.2882 11.3474 10.2613 11.2008 10.1085 11.2008H9.78749C9.62702 11.2008 9.6309 11.3474 9.6309 11.3474C9.6309 11.3474 9.64624 11.6764 9.64624 11.9135V13.3056C9.64624 13.3056 9.64621 13.5654 9.89075 13.5654H10.2193C10.418 13.5654 10.3788 13.3056 10.3788 13.3056V12.1507C10.3788 12.0905 10.3827 12.0226 10.4095 11.9624C10.4553 11.8382 10.5862 11.6877 10.7811 11.6877C11.0218 11.6877 11.1272 11.8947 11.1272 12.2032V13.3056C11.1272 13.5502 11.3273 13.5654 11.3273 13.5654H11.6675C11.8815 13.5654 11.8775 13.3282 11.8775 13.3282V12.1468C11.8775 12.0903 11.889 12.0113 11.9082 11.9548C11.9578 11.8119 12.0838 11.6914 12.2596 11.6914C12.5079 11.6914 12.6234 11.8947 12.6234 12.2484V13.2905C12.6234 13.2905 12.5844 13.5691 12.7793 13.5691H13.192C13.192 13.5691 13.3677 13.5541 13.3715 13.302V12.1317C13.3715 11.4055 13.0161 11.0782 12.5423 11.0782ZM15.2696 11.0782C14.5026 11.0782 13.995 11.5703 13.995 12.3402C13.995 13.11 14.5323 13.5691 15.2289 13.5691C15.87 13.5691 16.4887 13.1693 16.4887 12.2995C16.4887 11.5815 16.0033 11.0782 15.2696 11.0782ZM15.2496 11.5763C15.5987 11.5763 15.7367 11.95 15.7406 12.3236C15.7406 12.7704 15.5489 13.0709 15.2496 13.0709C14.9197 13.0709 14.7431 12.7512 14.7431 12.3236C14.7431 11.9577 14.8813 11.5763 15.2496 11.5763Z" fill="#F4F5F7"/>
</g>
<defs>
<filter id="filter0_d_279_758" x="5" y="5.09998" width="14.8" height="14.5" filterUnits="userSpaceOnUse" color-interpolation-filters="sRGB">
<feFlood flood-opacity="0" result="BackgroundImageFix"/>
<feColorMatrix in="SourceAlpha" type="matrix" values="0 0 0 0 0 0 0 0 0 0 0 0 0 0 0 0 0 0 127 0" result="hardAlpha"/>
<feOffset dx="0.4" dy="0.4"/>
<feGaussianBlur stdDeviation="0.2"/>
<feComposite in2="hardAlpha" operator="out"/>
<feColorMatrix type="matrix" values="0 0 0 0 0 0 0 0 0 0 0 0 0 0 0 0 0 0 0.25 0"/>
<feBlend mode="normal" in2="BackgroundImageFix" result="effect1_dropShadow_279_758"/>
<feBlend mode="normal" in="SourceGraphic" in2="effect1_dropShadow_279_758" result="shape"/>
</filter>
</defs>
</svg>
