<svg width="24" height="24" viewBox="0 0 24 24" fill="none" xmlns="http://www.w3.org/2000/svg">
<g clip-path="url(#clip0_214_884)">
<rect width="24" height="24" rx="6" fill="#3F79AD"/>
<path d="M6.8457 16.656C8.1649 18.0935 10.0714 18.9998 12.1494 18.9998C13.7924 18.9998 15.2757 18.434 16.4424 17.4841L22.293 22.1931C21.2035 23.3079 19.6828 23.9998 18.001 23.9998H6.00098C4.21695 23.9997 2.61462 23.2211 1.51562 21.9851L6.8457 16.656Z" fill="#4F9B7A"/>
<path d="M5.93555 8.57153C5.8765 8.67286 5.81957 8.77576 5.76562 8.88013C5.28099 9.82008 5 10.8803 5 12.0002C5.00004 13.1602 5.30114 14.2503 5.81641 15.2102C6.09676 15.734 6.44436 16.2181 6.84473 16.6545L1.51465 21.9856C0.572449 20.9259 7.30317e-05 19.5297 0 18.0002V6.00024C0 5.44961 0.0739905 4.91596 0.212891 4.40942L5.93555 8.57153Z" fill="#B8A64F"/>
<path d="M17.998 0C19.4902 0 20.8555 0.544888 21.9053 1.44629L16.834 6.87012C15.6202 5.71321 13.9804 5 12.1465 5C9.52622 5 7.17575 6.43984 5.93359 8.57129L0.210938 4.40918C0.907998 1.86754 3.23514 8.80503e-05 5.99805 0H17.998Z" fill="#B04F58"/>
<g filter="url(#filter0_d_214_884)">
<path d="M18.9316 10.9766L18.9258 11.0166C18.9702 11.3383 19 11.664 19 12C19 14.065 18.1424 15.93 16.7598 17.21L16.7028 17.2619C15.5004 18.3459 13.9163 19 12.1484 19C9.43925 19 7.02049 17.46 5.81641 15.21C5.3011 14.25 5 13.16 5 12C5 10.88 5.28093 9.81988 5.76563 8.87988C6.9544 6.57988 9.40354 5 12.1484 5C13.9852 5 15.6275 5.715 16.8418 6.875L14.75 9.10156C14.0081 8.39595 13.0239 8.0017 12 8C11.1911 8.00088 10.4014 8.24698 9.73525 8.70586C9.06908 9.16474 8.55768 9.81482 8.26855 10.5703C8.0924 11.0265 8.00138 11.511 8 12C8.00022 12.5039 8.09564 13.0032 8.28125 13.4717C8.57661 14.2164 9.09082 14.8583 9.75352 15.3086C10.4162 15.7588 11.1988 15.9997 12 16C12.8096 15.9984 13.5996 15.7512 14.2656 15.291L14.2665 15.2916C14.9103 14.8479 15.4104 14.2252 15.7041 13.5H12V10.5H18.8496L18.9316 10.9766Z" fill="#F4F5F7"/>
</g>
</g>
<defs>
<filter id="filter0_d_214_884" x="5" y="5" width="14.8" height="14.8" filterUnits="userSpaceOnUse" color-interpolation-filters="sRGB">
<feFlood flood-opacity="0" result="BackgroundImageFix"/>
<feColorMatrix in="SourceAlpha" type="matrix" values="0 0 0 0 0 0 0 0 0 0 0 0 0 0 0 0 0 0 127 0" result="hardAlpha"/>
<feOffset dx="0.4" dy="0.4"/>
<feGaussianBlur stdDeviation="0.2"/>
<feComposite in2="hardAlpha" operator="out"/>
<feColorMatrix type="matrix" values="0 0 0 0 0 0 0 0 0 0 0 0 0 0 0 0 0 0 0.25 0"/>
<feBlend mode="normal" in2="BackgroundImageFix" result="effect1_dropShadow_214_884"/>
<feBlend mode="normal" in="SourceGraphic" in2="effect1_dropShadow_214_884" result="shape"/>
</filter>
<clipPath id="clip0_214_884">
<rect width="24" height="24" rx="6" fill="white"/>
</clipPath>
</defs>
</svg>
