<svg width="24" height="24" viewBox="0 0 24 24" fill="none" xmlns="http://www.w3.org/2000/svg">
<rect width="24" height="24" rx="6" fill="#32363B"/>
<g filter="url(#filter0_d_101_1076)">
<path d="M18.7707 19.6089C19.3415 19.6089 19.8092 19.1488 19.8092 18.5853V8.14466C19.8092 7.58123 19.3415 7.12109 18.7707 7.12109H8.63477L13.1792 14.1954L12.7026 19.6089H18.7707Z" fill="#F4F5F7"/>
</g>
<g filter="url(#filter1_d_101_1076)">
<path d="M15.3737 16.4873L11.7422 16.4873L12.7025 19.6093L15.3737 16.4873Z" fill="#3F79AD"/>
</g>
<g filter="url(#filter2_d_101_1076)">
<path d="M14.7374 9.85352V10.634H12.8594V11.4153H13.1764V11.4145H15.5179V11.4153H16.6033C16.4031 12.1102 15.9602 12.781 15.5286 13.291C14.987 12.6591 14.8302 12.3336 14.7832 12.195H13.9874C14.0459 12.3736 14.2641 12.8497 15.072 13.7826C14.7233 14.134 14.4592 14.3421 14.4592 14.3421L14.7031 15.0944C14.7031 15.0944 15.0718 14.7817 15.5332 14.2994C15.9961 14.794 16.5936 15.3886 17.3662 16.0974L17.8685 15.6028C17.0412 14.8631 16.4347 14.2763 15.9889 13.8047C16.5864 13.1082 17.193 12.2166 17.3213 11.4137H18.6391V11.4153H18.6406V10.634H15.5179V9.85352H14.7374Z" fill="#6B7078"/>
</g>
<g filter="url(#filter3_d_101_1076)">
<path d="M5.23768 4C4.66684 4 4.19922 4.46103 4.19922 5.02536V15.464C4.19922 16.0268 4.66684 16.4878 5.23768 16.4878H15.3736L11.3058 4H5.23768Z" fill="#5F97C9"/>
</g>
<g filter="url(#filter4_d_101_1076)">
<path d="M8.53911 8.29199C7.2206 8.29199 6.15039 9.34115 6.15039 10.6335C6.15039 11.9258 7.2206 12.9749 8.53911 12.9749C9.92041 12.9749 10.8333 12.0249 10.8333 10.6845C10.8333 10.4924 10.8091 10.3873 10.7769 10.2432H10.0033H8.49185V11.0229L9.21289 11.0237H10.0002C9.94888 11.2176 9.86064 11.3998 9.74033 11.5603C9.73139 11.5737 9.72172 11.5867 9.71213 11.5999C9.70242 11.6128 9.69251 11.6255 9.6824 11.638C9.5998 11.7431 9.49663 11.8412 9.36838 11.9216C9.11016 12.0983 8.80477 12.1934 8.49185 12.1944C8.07786 12.1944 7.68082 12.03 7.38808 11.7372C7.09534 11.4445 6.93088 11.0475 6.93088 10.6335C6.93088 10.2195 7.09534 9.82242 7.38808 9.52968C7.68082 9.23694 8.07786 9.07248 8.49185 9.07248C8.87651 9.07269 9.24754 9.21491 9.53377 9.47187L10.1397 8.90175C9.72472 8.52651 9.18382 8.29199 8.53911 8.29199Z" fill="#F4F5F7"/>
</g>
<defs>
<filter id="filter0_d_101_1076" x="8.63477" y="7.12109" width="11.9738" height="13.2883" filterUnits="userSpaceOnUse" color-interpolation-filters="sRGB">
<feFlood flood-opacity="0" result="BackgroundImageFix"/>
<feColorMatrix in="SourceAlpha" type="matrix" values="0 0 0 0 0 0 0 0 0 0 0 0 0 0 0 0 0 0 127 0" result="hardAlpha"/>
<feOffset dx="0.4" dy="0.4"/>
<feGaussianBlur stdDeviation="0.2"/>
<feComposite in2="hardAlpha" operator="out"/>
<feColorMatrix type="matrix" values="0 0 0 0 0 0 0 0 0 0 0 0 0 0 0 0 0 0 0.25 0"/>
<feBlend mode="normal" in2="BackgroundImageFix" result="effect1_dropShadow_101_1076"/>
<feBlend mode="normal" in="SourceGraphic" in2="effect1_dropShadow_101_1076" result="shape"/>
</filter>
<filter id="filter1_d_101_1076" x="11.7422" y="16.4873" width="4.43086" height="3.92207" filterUnits="userSpaceOnUse" color-interpolation-filters="sRGB">
<feFlood flood-opacity="0" result="BackgroundImageFix"/>
<feColorMatrix in="SourceAlpha" type="matrix" values="0 0 0 0 0 0 0 0 0 0 0 0 0 0 0 0 0 0 127 0" result="hardAlpha"/>
<feOffset dx="0.4" dy="0.4"/>
<feGaussianBlur stdDeviation="0.2"/>
<feComposite in2="hardAlpha" operator="out"/>
<feColorMatrix type="matrix" values="0 0 0 0 0 0 0 0 0 0 0 0 0 0 0 0 0 0 0.25 0"/>
<feBlend mode="normal" in2="BackgroundImageFix" result="effect1_dropShadow_101_1076"/>
<feBlend mode="normal" in="SourceGraphic" in2="effect1_dropShadow_101_1076" result="shape"/>
</filter>
<filter id="filter2_d_101_1076" x="12.8594" y="9.85352" width="6.58125" height="7.04414" filterUnits="userSpaceOnUse" color-interpolation-filters="sRGB">
<feFlood flood-opacity="0" result="BackgroundImageFix"/>
<feColorMatrix in="SourceAlpha" type="matrix" values="0 0 0 0 0 0 0 0 0 0 0 0 0 0 0 0 0 0 127 0" result="hardAlpha"/>
<feOffset dx="0.4" dy="0.4"/>
<feGaussianBlur stdDeviation="0.2"/>
<feComposite in2="hardAlpha" operator="out"/>
<feColorMatrix type="matrix" values="0 0 0 0 0 0 0 0 0 0 0 0 0 0 0 0 0 0 0.25 0"/>
<feBlend mode="normal" in2="BackgroundImageFix" result="effect1_dropShadow_101_1076"/>
<feBlend mode="normal" in="SourceGraphic" in2="effect1_dropShadow_101_1076" result="shape"/>
</filter>
<filter id="filter3_d_101_1076" x="4.19922" y="4" width="11.9738" height="13.2883" filterUnits="userSpaceOnUse" color-interpolation-filters="sRGB">
<feFlood flood-opacity="0" result="BackgroundImageFix"/>
<feColorMatrix in="SourceAlpha" type="matrix" values="0 0 0 0 0 0 0 0 0 0 0 0 0 0 0 0 0 0 127 0" result="hardAlpha"/>
<feOffset dx="0.4" dy="0.4"/>
<feGaussianBlur stdDeviation="0.2"/>
<feComposite in2="hardAlpha" operator="out"/>
<feColorMatrix type="matrix" values="0 0 0 0 0 0 0 0 0 0 0 0 0 0 0 0 0 0 0.25 0"/>
<feBlend mode="normal" in2="BackgroundImageFix" result="effect1_dropShadow_101_1076"/>
<feBlend mode="normal" in="SourceGraphic" in2="effect1_dropShadow_101_1076" result="shape"/>
</filter>
<filter id="filter4_d_101_1076" x="6.15039" y="8.29199" width="5.48359" height="5.48262" filterUnits="userSpaceOnUse" color-interpolation-filters="sRGB">
<feFlood flood-opacity="0" result="BackgroundImageFix"/>
<feColorMatrix in="SourceAlpha" type="matrix" values="0 0 0 0 0 0 0 0 0 0 0 0 0 0 0 0 0 0 127 0" result="hardAlpha"/>
<feOffset dx="0.4" dy="0.4"/>
<feGaussianBlur stdDeviation="0.2"/>
<feComposite in2="hardAlpha" operator="out"/>
<feColorMatrix type="matrix" values="0 0 0 0 0 0 0 0 0 0 0 0 0 0 0 0 0 0 0.25 0"/>
<feBlend mode="normal" in2="BackgroundImageFix" result="effect1_dropShadow_101_1076"/>
<feBlend mode="normal" in="SourceGraphic" in2="effect1_dropShadow_101_1076" result="shape"/>
</filter>
</defs>
</svg>
