<svg width="24" height="24" viewBox="0 0 24 24" fill="none" xmlns="http://www.w3.org/2000/svg">
<rect width="24" height="24" rx="6" fill="#32363B"/>
<g filter="url(#filter0_d_101_1105)">
<path d="M16.135 11.9824L11.9992 16.3186L9.52637 13.726L7.71094 15.5544C7.71263 15.5561 7.71393 15.5576 7.71562 15.5593C8.52534 16.3846 9.31377 17.1801 9.99121 17.8585C10.1365 18.0037 10.3025 18.1711 10.4322 18.2999C10.6686 18.5349 10.8865 18.7506 11.0576 18.9171C11.1076 18.9657 11.1685 19.0256 11.2117 19.067C11.2601 19.1136 11.3001 19.1514 11.3395 19.1886C11.4512 19.2937 11.5438 19.3789 11.5707 19.3959C11.6789 19.4644 11.8392 19.498 11.9992 19.5C12.1592 19.498 12.3195 19.4644 12.4277 19.3959C12.5523 19.3172 13.6732 18.205 15.0014 16.8631C16.0105 15.8436 17.0668 14.7618 17.9689 13.8295L16.135 11.9824Z" fill="#4F9B7A"/>
<path d="M10.2785 9.55078L7.86523 11.9813L6.03125 13.8284C6.56068 14.3755 7.0969 14.9261 7.7125 15.5535L9.52813 13.7249L11.9756 11.26L10.2785 9.55078Z" fill="#D1C06A"/>
<path d="M7.7579 5.39952C7.62944 5.40043 7.5018 5.40719 7.37547 5.41978C7.12289 5.44497 6.87506 5.49313 6.63485 5.56259C6.39457 5.63207 6.1619 5.72294 5.93915 5.83346C5.71639 5.94398 5.50368 6.07424 5.3036 6.22254C5.15265 6.33443 5.01153 6.4598 4.87606 6.59157C4.83199 6.63443 4.78611 6.67515 4.74383 6.72002C4.57157 6.90286 4.41437 7.10212 4.27508 7.31624C4.13579 7.53036 4.01434 7.75923 3.91317 8.00137V8.00157C3.89958 8.03409 3.8893 8.0687 3.87645 8.1017C3.74584 8.43714 3.6507 8.79503 3.60379 9.17474C3.59622 9.41324 3.59899 9.63412 3.61161 9.8402C3.63684 10.2524 3.70161 10.6052 3.80243 10.9213C3.90324 11.2374 4.04015 11.5167 4.20965 11.7815C4.46392 12.1788 4.79151 12.5436 5.18094 12.9515C5.4098 13.1911 5.74489 13.534 6.02997 13.8286L7.86395 11.9816L7.12 11.2016C7.12 11.2016 6.69671 10.8039 6.52469 10.618C6.25515 10.3243 6.10084 9.93646 6.09969 9.52861C6.10141 8.78514 6.60794 8.13937 7.32567 7.96557C7.36094 7.95639 7.3968 7.9485 7.43348 7.94197C7.45528 7.93803 7.47716 7.93456 7.49911 7.93154C7.5642 7.92298 7.63061 7.91718 7.69969 7.91718C7.71832 7.91731 7.73694 7.91777 7.75555 7.91856C7.76229 7.91827 7.7687 7.91739 7.77547 7.91718C8.72654 7.93261 9.48773 8.831 10.2772 9.55103L11.9997 7.81647C11.9801 7.82177 11.5731 7.42115 11.0995 6.97554C10.6388 6.54211 10.3202 6.26331 10.0389 6.06577H10.0387C9.89809 5.967 9.76685 5.88849 9.63172 5.82106C9.49659 5.75363 9.35766 5.69736 9.20184 5.64285C8.96043 5.55839 8.71806 5.49671 8.47664 5.45656C8.35596 5.43649 8.2356 5.42177 8.1157 5.41231C7.99581 5.40284 7.87647 5.39868 7.7579 5.39952Z" fill="#B04F58"/>
<path d="M16.2416 5.39952C15.8859 5.397 15.523 5.44011 15.1602 5.53308C15.0392 5.56407 14.9183 5.60063 14.7977 5.64285C14.6418 5.69736 14.5029 5.75363 14.3678 5.82106C14.2326 5.88849 14.1014 5.96699 13.9607 6.06577H13.9605C13.6793 6.26331 13.3607 6.54211 12.9 6.97554C12.5448 7.30975 12.227 7.61865 12.082 7.74998C12.0337 7.79375 12.0047 7.81779 11.9998 7.81646C11.9843 7.82066 11.7007 7.54741 11.3596 7.2226L11.9744 7.84184L10.2773 9.55103L11.9744 11.2602L13.3531 9.87186C13.3531 9.87186 15.1257 7.935 16.224 7.91718C16.2308 7.91739 16.2372 7.91828 16.2439 7.91856C16.2626 7.91777 16.2812 7.91731 16.2998 7.91718C16.3689 7.91718 16.4353 7.92298 16.5004 7.93154C16.5223 7.93456 16.5442 7.93803 16.566 7.94196C16.6027 7.9485 16.6386 7.95639 16.6738 7.96557C17.3916 8.13936 17.8981 8.78514 17.8998 9.52861C17.8987 9.93646 17.7443 10.3243 17.4748 10.618C17.3028 10.8039 16.8795 11.2016 16.8795 11.2016L16.1355 11.9817L17.9695 13.8288C18.2547 13.5342 18.5897 13.1911 18.8186 12.9515C19.208 12.5436 19.5356 12.1787 19.7898 11.7815C19.9594 11.5167 20.0963 11.2374 20.1971 10.9213C20.2979 10.6052 20.3627 10.2524 20.3879 9.84019C20.4005 9.63411 20.4033 9.41323 20.3957 9.17473C20.3488 8.79502 20.2537 8.43713 20.123 8.10169C20.1102 8.06863 20.0999 8.03395 20.0863 8.00137C19.9851 7.75923 19.8637 7.53035 19.7244 7.31624C19.5851 7.10212 19.4279 6.90285 19.2557 6.72002C19.2134 6.67515 19.1675 6.63443 19.1234 6.59157C18.988 6.4598 18.8468 6.33443 18.6959 6.22254C18.4958 6.07424 18.2831 5.94397 18.0604 5.83345C17.8376 5.72294 17.6049 5.63207 17.3646 5.56259C17.1244 5.49313 16.8766 5.44497 16.624 5.41978H16.6238C16.4975 5.40719 16.3701 5.40043 16.2416 5.39952Z" fill="#3F79AD"/>
</g>
<defs>
<filter id="filter0_d_101_1105" x="3.59961" y="5.39941" width="17.6008" height="14.9006" filterUnits="userSpaceOnUse" color-interpolation-filters="sRGB">
<feFlood flood-opacity="0" result="BackgroundImageFix"/>
<feColorMatrix in="SourceAlpha" type="matrix" values="0 0 0 0 0 0 0 0 0 0 0 0 0 0 0 0 0 0 127 0" result="hardAlpha"/>
<feOffset dx="0.4" dy="0.4"/>
<feGaussianBlur stdDeviation="0.2"/>
<feComposite in2="hardAlpha" operator="out"/>
<feColorMatrix type="matrix" values="0 0 0 0 0 0 0 0 0 0 0 0 0 0 0 0 0 0 0.25 0"/>
<feBlend mode="normal" in2="BackgroundImageFix" result="effect1_dropShadow_101_1105"/>
<feBlend mode="normal" in="SourceGraphic" in2="effect1_dropShadow_101_1105" result="shape"/>
</filter>
</defs>
</svg>
