<svg width="24" height="24" viewBox="0 0 24 24" fill="none" xmlns="http://www.w3.org/2000/svg">
<rect width="24" height="24" rx="6" fill="#32363B"/>
<g filter="url(#filter0_d_101_1111)">
<path d="M6.39961 4C5.95641 4 5.59961 4.3568 5.59961 4.8V19.2C5.59961 19.6432 5.95641 20 6.39961 20H17.5996C18.0428 20 18.3996 19.6432 18.3996 19.2V8.8L13.9996 8.4L13.5996 4H6.39961Z" fill="#4F9B7A"/>
</g>
<g filter="url(#filter1_d_101_1111)">
<path d="M13.5996 4V8C13.5996 8.44184 13.9578 8.8 14.3996 8.8H18.3996L13.5996 4Z" fill="#6FBF9A"/>
</g>
<g filter="url(#filter2_d_101_1111)">
<path d="M8.40039 16.3996C8.40039 16.8414 8.75856 17.1996 9.20039 17.1996H14.8004C15.2422 17.1996 15.6004 16.8414 15.6004 16.3996V12.3996C15.6004 11.9578 15.2422 11.5996 14.8004 11.5996H9.20039C8.75856 11.5996 8.40039 11.9578 8.40039 12.3996V16.3996ZM9.20039 12.7996C9.20039 12.5787 9.37948 12.3996 9.60039 12.3996H11.2004C11.4213 12.3996 11.6004 12.5787 11.6004 12.7996C11.6004 13.0205 11.4213 13.1996 11.2004 13.1996H9.60039C9.37948 13.1996 9.20039 13.0205 9.20039 12.7996ZM12.4004 12.7996C12.4004 12.5787 12.5795 12.3996 12.8004 12.3996H14.4004C14.6213 12.3996 14.8004 12.5787 14.8004 12.7996C14.8004 13.0205 14.6213 13.1996 14.4004 13.1996H12.8004C12.5795 13.1996 12.4004 13.0205 12.4004 12.7996ZM9.20039 14.3996C9.20039 14.1787 9.37948 13.9996 9.60039 13.9996H11.2004C11.4213 13.9996 11.6004 14.1787 11.6004 14.3996C11.6004 14.6205 11.4213 14.7996 11.2004 14.7996H9.60039C9.37948 14.7996 9.20039 14.6205 9.20039 14.3996ZM12.4004 14.3996C12.4004 14.1787 12.5795 13.9996 12.8004 13.9996H14.4004C14.6213 13.9996 14.8004 14.1787 14.8004 14.3996C14.8004 14.6205 14.6213 14.7996 14.4004 14.7996H12.8004C12.5795 14.7996 12.4004 14.6205 12.4004 14.3996ZM9.20039 15.9996C9.20039 15.7787 9.37948 15.5996 9.60039 15.5996H11.2004C11.4213 15.5996 11.6004 15.7787 11.6004 15.9996C11.6004 16.2205 11.4213 16.3996 11.2004 16.3996H9.60039C9.37948 16.3996 9.20039 16.2205 9.20039 15.9996ZM12.4004 15.9996C12.4004 15.7787 12.5795 15.5996 12.8004 15.5996H14.4004C14.6213 15.5996 14.8004 15.7787 14.8004 15.9996C14.8004 16.2205 14.6213 16.3996 14.4004 16.3996H12.8004C12.5795 16.3996 12.4004 16.2205 12.4004 15.9996Z" fill="#F4F5F7"/>
</g>
<defs>
<filter id="filter0_d_101_1111" x="5.59961" y="4" width="13.6008" height="16.8" filterUnits="userSpaceOnUse" color-interpolation-filters="sRGB">
<feFlood flood-opacity="0" result="BackgroundImageFix"/>
<feColorMatrix in="SourceAlpha" type="matrix" values="0 0 0 0 0 0 0 0 0 0 0 0 0 0 0 0 0 0 127 0" result="hardAlpha"/>
<feOffset dx="0.4" dy="0.4"/>
<feGaussianBlur stdDeviation="0.2"/>
<feComposite in2="hardAlpha" operator="out"/>
<feColorMatrix type="matrix" values="0 0 0 0 0 0 0 0 0 0 0 0 0 0 0 0 0 0 0.25 0"/>
<feBlend mode="normal" in2="BackgroundImageFix" result="effect1_dropShadow_101_1111"/>
<feBlend mode="normal" in="SourceGraphic" in2="effect1_dropShadow_101_1111" result="shape"/>
</filter>
<filter id="filter1_d_101_1111" x="13.5996" y="4" width="5.60078" height="5.5998" filterUnits="userSpaceOnUse" color-interpolation-filters="sRGB">
<feFlood flood-opacity="0" result="BackgroundImageFix"/>
<feColorMatrix in="SourceAlpha" type="matrix" values="0 0 0 0 0 0 0 0 0 0 0 0 0 0 0 0 0 0 127 0" result="hardAlpha"/>
<feOffset dx="0.4" dy="0.4"/>
<feGaussianBlur stdDeviation="0.2"/>
<feComposite in2="hardAlpha" operator="out"/>
<feColorMatrix type="matrix" values="0 0 0 0 0 0 0 0 0 0 0 0 0 0 0 0 0 0 0.25 0"/>
<feBlend mode="normal" in2="BackgroundImageFix" result="effect1_dropShadow_101_1111"/>
<feBlend mode="normal" in="SourceGraphic" in2="effect1_dropShadow_101_1111" result="shape"/>
</filter>
<filter id="filter2_d_101_1111" x="8.40039" y="11.5996" width="7.99922" height="6.39961" filterUnits="userSpaceOnUse" color-interpolation-filters="sRGB">
<feFlood flood-opacity="0" result="BackgroundImageFix"/>
<feColorMatrix in="SourceAlpha" type="matrix" values="0 0 0 0 0 0 0 0 0 0 0 0 0 0 0 0 0 0 127 0" result="hardAlpha"/>
<feOffset dx="0.4" dy="0.4"/>
<feGaussianBlur stdDeviation="0.2"/>
<feComposite in2="hardAlpha" operator="out"/>
<feColorMatrix type="matrix" values="0 0 0 0 0 0 0 0 0 0 0 0 0 0 0 0 0 0 0.25 0"/>
<feBlend mode="normal" in2="BackgroundImageFix" result="effect1_dropShadow_101_1111"/>
<feBlend mode="normal" in="SourceGraphic" in2="effect1_dropShadow_101_1111" result="shape"/>
</filter>
</defs>
</svg>
