<svg width="24" height="24" viewBox="0 0 24 24" fill="none" xmlns="http://www.w3.org/2000/svg">
<rect width="24" height="24" rx="6" fill="#32363B"/>
<g filter="url(#filter0_d_101_1099)">
<path d="M8.83019 13.3596C10.9455 13.3596 12.6604 11.6448 12.6604 9.52941C12.6604 7.41405 10.9455 5.69922 8.83019 5.69922C6.71483 5.69922 5 7.41405 5 9.52941C5 11.6448 6.71483 13.3596 8.83019 13.3596Z" fill="#428AA3"/>
<path d="M15.1691 18.3792C16.4091 18.3792 17.4144 17.374 17.4144 16.134C17.4144 14.8939 16.4091 13.8887 15.1691 13.8887C13.9291 13.8887 12.9238 14.8939 12.9238 16.134C12.9238 17.374 13.9291 18.3792 15.1691 18.3792Z" fill="#B8A64F"/>
<path d="M15.1266 13.3596C16.1964 13.3596 17.0637 12.4923 17.0637 11.4225C17.0637 10.3526 16.1964 9.48535 15.1266 9.48535C14.0567 9.48535 13.1895 10.3526 13.1895 11.4225C13.1895 12.4923 14.0567 13.3596 15.1266 13.3596Z" fill="#B04F58"/>
<path d="M18.0311 10.19C18.566 10.19 18.9996 9.7564 18.9996 9.22148C18.9996 8.68657 18.566 8.25293 18.0311 8.25293C17.4961 8.25293 17.0625 8.68657 17.0625 9.22148C17.0625 9.7564 17.4961 10.19 18.0311 10.19Z" fill="#4F9B7A"/>
</g>
<defs>
<filter id="filter0_d_101_1099" x="5" y="5.69922" width="14.8" height="13.4797" filterUnits="userSpaceOnUse" color-interpolation-filters="sRGB">
<feFlood flood-opacity="0" result="BackgroundImageFix"/>
<feColorMatrix in="SourceAlpha" type="matrix" values="0 0 0 0 0 0 0 0 0 0 0 0 0 0 0 0 0 0 127 0" result="hardAlpha"/>
<feOffset dx="0.4" dy="0.4"/>
<feGaussianBlur stdDeviation="0.2"/>
<feComposite in2="hardAlpha" operator="out"/>
<feColorMatrix type="matrix" values="0 0 0 0 0 0 0 0 0 0 0 0 0 0 0 0 0 0 0.25 0"/>
<feBlend mode="normal" in2="BackgroundImageFix" result="effect1_dropShadow_101_1099"/>
<feBlend mode="normal" in="SourceGraphic" in2="effect1_dropShadow_101_1099" result="shape"/>
</filter>
</defs>
</svg>
