<svg width="24" height="24" viewBox="0 0 24 24" fill="none" xmlns="http://www.w3.org/2000/svg">
<rect width="24" height="24" rx="6" fill="#32363B"/>
<g filter="url(#filter0_d_101_1121)">
<path d="M9.51772 13.6656C6.79044 10.0574 3.99043 12.7992 4.72134 15.321C5.9768 18.0801 8.77863 19.9992 11.9977 19.9992C14.8523 19.9992 17.3205 18.511 18.7223 16.3447C16.6132 18.3183 12.785 17.9883 9.51772 13.6656Z" fill="#4F5F9F"/>
</g>
<g filter="url(#filter1_d_101_1121)">
<path d="M11.9555 11.1814C8.20456 5.49233 4 8.52416 4 12.0014C4 13.1942 4.26 14.3196 4.72637 15.336C4.22818 12.9805 6.93456 11.1642 9.45457 14.5451C13.1137 19.4542 16.7046 18.5906 18.7137 16.3569C19.2564 15.5478 19.7855 14.3069 19.9337 13.0733L19.9309 13.0887C19.071 15.7633 15.2637 16.1987 11.9555 11.1814Z" fill="#3F79AD"/>
</g>
<g filter="url(#filter2_d_101_1121)">
<path d="M14.5264 8.63576C11.7409 4.04029 8.20911 4.45393 5.82092 6.91666C4.68546 8.29758 4 10.0676 4 11.9994C4.25 8.63212 8.3182 6.29484 12 11.9994C15.2773 17.0767 19.3501 15.754 19.9301 13.1012L19.9337 13.0758C19.9919 12.7112 19.9982 12.363 19.9982 11.9885C19.9982 11.8676 20.0028 11.7476 19.9973 11.6285C18.5773 12.6358 16.7137 12.244 14.5264 8.63576Z" fill="#5F97C9"/>
</g>
<g filter="url(#filter3_d_101_1121)">
<path d="M14.5457 9.45393C17.0966 13.5549 19.2957 12.5058 19.9975 11.6285C19.9702 11.003 19.8684 10.3976 19.7048 9.81848C18.5157 9.84302 18.2384 9.64484 17.0729 7.86302C15.2802 5.1221 13.0275 3.27391 9.09474 4.54391C7.80746 5.04664 6.682 5.8721 5.81836 6.92029C8.52291 4.43119 11.8411 5.10664 14.5457 9.45393Z" fill="#63A8C2"/>
</g>
<g filter="url(#filter4_d_101_1121)">
<path d="M16.8936 8.21547C18.0591 9.99729 18.7691 10.0918 19.7046 9.81911C18.7527 6.45637 15.6673 4 11.9973 4C10.9727 4 9.9918 4.19546 9.0918 4.54546C12.6073 3.43636 15.1009 5.47455 16.8936 8.21547Z" fill="#F4F5F7"/>
</g>
<defs>
<filter id="filter0_d_101_1121" x="4.60352" y="11.9287" width="14.9191" height="8.87031" filterUnits="userSpaceOnUse" color-interpolation-filters="sRGB">
<feFlood flood-opacity="0" result="BackgroundImageFix"/>
<feColorMatrix in="SourceAlpha" type="matrix" values="0 0 0 0 0 0 0 0 0 0 0 0 0 0 0 0 0 0 127 0" result="hardAlpha"/>
<feOffset dx="0.4" dy="0.4"/>
<feGaussianBlur stdDeviation="0.2"/>
<feComposite in2="hardAlpha" operator="out"/>
<feColorMatrix type="matrix" values="0 0 0 0 0 0 0 0 0 0 0 0 0 0 0 0 0 0 0.25 0"/>
<feBlend mode="normal" in2="BackgroundImageFix" result="effect1_dropShadow_101_1121"/>
<feBlend mode="normal" in="SourceGraphic" in2="effect1_dropShadow_101_1121" result="shape"/>
</filter>
<filter id="filter1_d_101_1121" x="4" y="8.01074" width="16.7336" height="10.9309" filterUnits="userSpaceOnUse" color-interpolation-filters="sRGB">
<feFlood flood-opacity="0" result="BackgroundImageFix"/>
<feColorMatrix in="SourceAlpha" type="matrix" values="0 0 0 0 0 0 0 0 0 0 0 0 0 0 0 0 0 0 127 0" result="hardAlpha"/>
<feOffset dx="0.4" dy="0.4"/>
<feGaussianBlur stdDeviation="0.2"/>
<feComposite in2="hardAlpha" operator="out"/>
<feColorMatrix type="matrix" values="0 0 0 0 0 0 0 0 0 0 0 0 0 0 0 0 0 0 0.25 0"/>
<feBlend mode="normal" in2="BackgroundImageFix" result="effect1_dropShadow_101_1121"/>
<feBlend mode="normal" in="SourceGraphic" in2="effect1_dropShadow_101_1121" result="shape"/>
</filter>
<filter id="filter2_d_101_1121" x="4" y="5.10645" width="16.8" height="11.1428" filterUnits="userSpaceOnUse" color-interpolation-filters="sRGB">
<feFlood flood-opacity="0" result="BackgroundImageFix"/>
<feColorMatrix in="SourceAlpha" type="matrix" values="0 0 0 0 0 0 0 0 0 0 0 0 0 0 0 0 0 0 127 0" result="hardAlpha"/>
<feOffset dx="0.4" dy="0.4"/>
<feGaussianBlur stdDeviation="0.2"/>
<feComposite in2="hardAlpha" operator="out"/>
<feColorMatrix type="matrix" values="0 0 0 0 0 0 0 0 0 0 0 0 0 0 0 0 0 0 0.25 0"/>
<feBlend mode="normal" in2="BackgroundImageFix" result="effect1_dropShadow_101_1121"/>
<feBlend mode="normal" in="SourceGraphic" in2="effect1_dropShadow_101_1121" result="shape"/>
</filter>
<filter id="filter3_d_101_1121" x="5.81836" y="4.13477" width="14.9797" height="9.09785" filterUnits="userSpaceOnUse" color-interpolation-filters="sRGB">
<feFlood flood-opacity="0" result="BackgroundImageFix"/>
<feColorMatrix in="SourceAlpha" type="matrix" values="0 0 0 0 0 0 0 0 0 0 0 0 0 0 0 0 0 0 127 0" result="hardAlpha"/>
<feOffset dx="0.4" dy="0.4"/>
<feGaussianBlur stdDeviation="0.2"/>
<feComposite in2="hardAlpha" operator="out"/>
<feColorMatrix type="matrix" values="0 0 0 0 0 0 0 0 0 0 0 0 0 0 0 0 0 0 0.25 0"/>
<feBlend mode="normal" in2="BackgroundImageFix" result="effect1_dropShadow_101_1121"/>
<feBlend mode="normal" in="SourceGraphic" in2="effect1_dropShadow_101_1121" result="shape"/>
</filter>
<filter id="filter4_d_101_1121" x="9.0918" y="4" width="11.4133" height="6.73457" filterUnits="userSpaceOnUse" color-interpolation-filters="sRGB">
<feFlood flood-opacity="0" result="BackgroundImageFix"/>
<feColorMatrix in="SourceAlpha" type="matrix" values="0 0 0 0 0 0 0 0 0 0 0 0 0 0 0 0 0 0 127 0" result="hardAlpha"/>
<feOffset dx="0.4" dy="0.4"/>
<feGaussianBlur stdDeviation="0.2"/>
<feComposite in2="hardAlpha" operator="out"/>
<feColorMatrix type="matrix" values="0 0 0 0 0 0 0 0 0 0 0 0 0 0 0 0 0 0 0.25 0"/>
<feBlend mode="normal" in2="BackgroundImageFix" result="effect1_dropShadow_101_1121"/>
<feBlend mode="normal" in="SourceGraphic" in2="effect1_dropShadow_101_1121" result="shape"/>
</filter>
</defs>
</svg>
