<svg width="24" height="24" viewBox="0 0 24 24" fill="none" xmlns="http://www.w3.org/2000/svg">
<rect width="24" height="24" rx="6" fill="#32363B"/>
<g filter="url(#filter0_d_101_775)">
<path d="M18.4584 9.86969C17.8392 8.7147 16.6276 7.9956 15.3099 8.00002H5.34068C5.27336 8.0003 5.2076 8.0205 5.15161 8.05811C5.09561 8.09573 5.05186 8.14909 5.02579 8.21155C5.0001 8.27361 4.99341 8.34197 5.00658 8.40788C5.01974 8.47379 5.05216 8.53424 5.09967 8.5815L7.27138 10.7499C7.46313 10.9419 7.72437 11.0495 7.99616 11.0495H15.0241C15.525 11.0442 15.9345 11.4433 15.9397 11.9403C15.945 12.4372 15.5435 12.8444 15.0426 12.8492H10.1973C10.13 12.8493 10.0641 12.8692 10.0079 12.9067C9.95177 12.9442 9.90782 12.9974 9.88156 13.0599C9.85563 13.122 9.84877 13.1905 9.86185 13.2566C9.87494 13.3227 9.90739 13.3833 9.95501 13.4307L12.128 15.6009C12.321 15.7928 12.5815 15.9003 12.8528 15.9H15.0443C17.8955 15.9 20.0514 12.8731 18.4584 9.86837" fill="#B04F58"/>
</g>
<defs>
<filter id="filter0_d_101_775" x="5" y="8" width="14.8" height="8.70039" filterUnits="userSpaceOnUse" color-interpolation-filters="sRGB">
<feFlood flood-opacity="0" result="BackgroundImageFix"/>
<feColorMatrix in="SourceAlpha" type="matrix" values="0 0 0 0 0 0 0 0 0 0 0 0 0 0 0 0 0 0 127 0" result="hardAlpha"/>
<feOffset dx="0.4" dy="0.4"/>
<feGaussianBlur stdDeviation="0.2"/>
<feComposite in2="hardAlpha" operator="out"/>
<feColorMatrix type="matrix" values="0 0 0 0 0 0 0 0 0 0 0 0 0 0 0 0 0 0 0.25 0"/>
<feBlend mode="normal" in2="BackgroundImageFix" result="effect1_dropShadow_101_775"/>
<feBlend mode="normal" in="SourceGraphic" in2="effect1_dropShadow_101_775" result="shape"/>
</filter>
</defs>
</svg>
