<svg width="24" height="24" viewBox="0 0 24 24" fill="none" xmlns="http://www.w3.org/2000/svg">
<rect width="24" height="24" rx="6" fill="#32363B"/>
<g filter="url(#filter0_d_101_786)">
<path d="M10.6844 17.5893C8.03984 17.5391 6.96645 17.4947 6.31008 17.4085C5.82874 17.3453 5.59236 17.2836 5.32576 17.1518C4.88543 16.9341 4.61158 16.6305 4.41395 16.141C4.23326 15.6935 4.15969 15.338 4.09217 14.5863C4.01598 13.7381 4.01002 13.5845 4.00211 12.2628C3.99279 10.7085 4.01155 10.1992 4.11593 9.1675C4.17066 8.62665 4.25044 8.26721 4.40034 7.88605C4.53686 7.53893 4.66149 7.34736 4.88816 7.13625C5.17304 6.87093 5.48591 6.70964 5.88088 6.62449C6.47041 6.4974 9.13502 6.39941 12.0014 6.39941C14.8677 6.39941 17.5323 6.4974 18.1219 6.62449C18.5482 6.7164 18.8611 6.88617 19.1664 7.19121C19.4054 7.42996 19.5285 7.6469 19.6749 8.08755C19.8258 8.54158 19.8837 8.9434 19.9695 10.1325C20.0102 10.6972 20.0102 13.2965 19.9695 13.8609C19.9218 14.5212 19.8634 15.1092 19.8244 15.3195C19.7243 15.8604 19.5278 16.3669 19.3061 16.6548C19.1541 16.8524 18.8539 17.0877 18.6029 17.2063C18.3487 17.3263 18.1066 17.3858 17.7162 17.4241C16.5065 17.543 12.8125 17.6298 10.6844 17.5893Z" fill="#B04F58"/>
</g>
<g filter="url(#filter1_d_101_786)">
<path d="M12.1813 13.3587C14.4491 12.0039 14.4003 12.0336 14.4003 12.0064C14.4003 11.981 10.4309 9.58589 10.4115 9.59967C10.3985 9.60898 10.396 14.3802 10.4089 14.3953C10.4137 14.4009 10.4275 14.4011 10.4394 14.3957C10.4514 14.3904 11.2351 13.9237 12.1811 13.3586L12.1813 13.3587Z" fill="#F4F5F7"/>
</g>
<defs>
<filter id="filter0_d_101_786" x="4" y="6.39941" width="16.8" height="12.0002" filterUnits="userSpaceOnUse" color-interpolation-filters="sRGB">
<feFlood flood-opacity="0" result="BackgroundImageFix"/>
<feColorMatrix in="SourceAlpha" type="matrix" values="0 0 0 0 0 0 0 0 0 0 0 0 0 0 0 0 0 0 127 0" result="hardAlpha"/>
<feOffset dx="0.4" dy="0.4"/>
<feGaussianBlur stdDeviation="0.2"/>
<feComposite in2="hardAlpha" operator="out"/>
<feColorMatrix type="matrix" values="0 0 0 0 0 0 0 0 0 0 0 0 0 0 0 0 0 0 0.25 0"/>
<feBlend mode="normal" in2="BackgroundImageFix" result="effect1_dropShadow_101_786"/>
<feBlend mode="normal" in="SourceGraphic" in2="effect1_dropShadow_101_786" result="shape"/>
</filter>
<filter id="filter1_d_101_786" x="10.4004" y="9.59961" width="4.8" height="5.5998" filterUnits="userSpaceOnUse" color-interpolation-filters="sRGB">
<feFlood flood-opacity="0" result="BackgroundImageFix"/>
<feColorMatrix in="SourceAlpha" type="matrix" values="0 0 0 0 0 0 0 0 0 0 0 0 0 0 0 0 0 0 127 0" result="hardAlpha"/>
<feOffset dx="0.4" dy="0.4"/>
<feGaussianBlur stdDeviation="0.2"/>
<feComposite in2="hardAlpha" operator="out"/>
<feColorMatrix type="matrix" values="0 0 0 0 0 0 0 0 0 0 0 0 0 0 0 0 0 0 0.25 0"/>
<feBlend mode="normal" in2="BackgroundImageFix" result="effect1_dropShadow_101_786"/>
<feBlend mode="normal" in="SourceGraphic" in2="effect1_dropShadow_101_786" result="shape"/>
</filter>
</defs>
</svg>
