<svg width="24" height="24" viewBox="0 0 24 24" fill="none" xmlns="http://www.w3.org/2000/svg">
<rect width="24" height="24" rx="6" fill="#3F79AD"/>
<g filter="url(#filter0_d_101_753)">
<path d="M11.9677 5.00006C11.9384 4.99979 11.9087 5.0004 11.8787 5.00185C11.4401 5.0229 11.1081 5.23102 11.0423 5.52553C11.0313 5.57488 11.0322 5.72419 11.0447 5.85782C11.0799 6.23267 11.194 7.53143 11.235 8.0239C11.3179 9.02096 11.3431 9.22921 11.3931 9.31558C11.533 9.55759 11.9869 9.64261 12.3032 9.48618C12.5085 9.38465 12.5553 9.28947 12.5861 8.9084C12.5994 8.74371 12.6446 8.22571 12.6864 7.75759C12.8843 5.54276 12.8797 5.60621 12.846 5.49254C12.7586 5.19815 12.4073 5.00413 11.9677 5.00006ZM6.62108 7.89164C6.37277 7.899 6.10662 8.07666 5.91279 8.37758C5.89644 8.40294 5.88112 8.42837 5.86664 8.45396C5.64944 8.83783 5.6421 9.24046 5.85473 9.46418C5.93683 9.55057 5.87914 9.52278 7.90816 10.4634C8.337 10.6622 8.81106 10.8832 8.96122 10.9544C9.30866 11.1191 9.41485 11.1263 9.6064 10.999C9.90153 10.8028 10.0554 10.3659 9.91484 10.1228C9.86467 10.036 9.69595 9.90955 8.86893 9.33668C8.46045 9.05373 7.38614 8.30215 7.0772 8.08334C6.96707 8.00535 6.83752 7.92944 6.789 7.91423C6.7347 7.8972 6.67838 7.88994 6.62108 7.89164ZM17.2774 7.89164C17.2201 7.88994 17.1637 7.8972 17.1094 7.91423C17.0609 7.92944 16.9314 8.00535 16.8212 8.08334C16.5123 8.30215 15.438 9.05373 15.0295 9.33668C14.2025 9.90955 14.0338 10.036 13.9836 10.1228C13.843 10.3659 13.9969 10.8028 14.292 10.999C14.4836 11.1263 14.5898 11.1191 14.9372 10.9544C15.0874 10.8832 15.5614 10.6622 15.9903 10.4634C18.0193 9.52278 17.9616 9.55057 18.0437 9.46418C18.2563 9.24046 18.249 8.83783 18.0318 8.45396C18.0173 8.42837 18.002 8.40294 17.9857 8.37758C17.7918 8.07666 17.5257 7.899 17.2774 7.89164ZM9.35928 12.913C9.25886 12.913 9.06469 12.9958 8.15349 13.4245C7.70343 13.6363 6.51339 14.1893 6.16883 14.3471C6.04601 14.4033 5.91515 14.4774 5.87765 14.5117C5.65387 14.7167 5.63924 15.1094 5.84133 15.5009C5.85522 15.5276 5.86951 15.554 5.8845 15.5793C6.10902 15.959 6.45503 16.1664 6.75565 16.0944C6.87173 16.0666 6.81866 16.1026 8.65069 14.8185C9.0379 14.547 9.46678 14.2475 9.60372 14.1533C9.92059 13.9352 9.98012 13.847 9.96546 13.6177C9.95699 13.4853 9.90931 13.3532 9.83803 13.2397C9.71923 13.0505 9.53516 12.913 9.35928 12.913ZM14.5392 12.913C14.3633 12.913 14.1792 13.0505 14.0604 13.2397C13.9891 13.3532 13.9415 13.4853 13.933 13.6177C13.9183 13.847 13.9778 13.9352 14.2947 14.1533C14.4317 14.2475 14.8605 14.547 15.2477 14.8185C17.0798 16.1026 17.0267 16.0666 17.1428 16.0944C17.4434 16.1664 17.7894 15.959 18.0139 15.5793C18.0289 15.554 18.0432 15.5276 18.0571 15.5009C18.2592 15.1094 18.2446 14.7167 18.0208 14.5117C17.9833 14.4774 17.8524 14.4033 17.7296 14.3471C17.385 14.1893 16.195 13.6363 15.745 13.4245C14.8337 12.9958 14.6396 12.913 14.5392 12.913ZM11.9635 14.4351C11.9467 14.4347 11.9299 14.4347 11.9132 14.4354C11.6907 14.4433 11.4805 14.5332 11.3931 14.6844C11.3431 14.7708 11.3179 14.979 11.235 15.9761C11.194 16.4686 11.0799 17.7673 11.0447 18.1422C11.0322 18.2758 11.0313 18.4251 11.0423 18.4745C11.1081 18.769 11.4401 18.9771 11.8787 18.9982C11.9087 18.9995 11.9384 19.0002 11.9677 18.9999C12.4073 18.9959 12.7586 18.8018 12.846 18.5074C12.8797 18.3938 12.8843 18.4572 12.6864 16.2424C12.6446 15.7743 12.5993 15.2563 12.5861 15.0916C12.5553 14.7105 12.5085 14.6153 12.3032 14.5138C12.1994 14.4625 12.081 14.4374 11.9635 14.4351Z" fill="#D1C06A"/>
</g>
<defs>
<filter id="filter0_d_101_753" x="5.69922" y="5" width="13.3" height="14.8" filterUnits="userSpaceOnUse" color-interpolation-filters="sRGB">
<feFlood flood-opacity="0" result="BackgroundImageFix"/>
<feColorMatrix in="SourceAlpha" type="matrix" values="0 0 0 0 0 0 0 0 0 0 0 0 0 0 0 0 0 0 127 0" result="hardAlpha"/>
<feOffset dx="0.4" dy="0.4"/>
<feGaussianBlur stdDeviation="0.2"/>
<feComposite in2="hardAlpha" operator="out"/>
<feColorMatrix type="matrix" values="0 0 0 0 0 0 0 0 0 0 0 0 0 0 0 0 0 0 0.25 0"/>
<feBlend mode="normal" in2="BackgroundImageFix" result="effect1_dropShadow_101_753"/>
<feBlend mode="normal" in="SourceGraphic" in2="effect1_dropShadow_101_753" result="shape"/>
</filter>
</defs>
</svg>
