<svg width="24" height="24" viewBox="0 0 24 24" fill="none" xmlns="http://www.w3.org/2000/svg">
<rect width="24" height="24" rx="6" fill="#4F5F9F"/>
<g filter="url(#filter0_d_101_1166)">
<path d="M12.1625 4.2002C7.83412 4.2002 4.32499 7.71492 4.32499 12.0502C4.32499 13.4455 4.68413 14.7533 5.31498 15.881C5.31498 15.881 5.67003 16.3021 4.34698 17.3595C3.4927 18.0441 4.38179 18.7461 5.22731 18.847C5.80998 18.9172 7.14634 18.8472 7.73776 18.5356C8.99947 19.3957 10.5196 19.9002 12.158 19.9002C16.4864 19.9002 20 16.3855 20 12.0502C20 7.71492 16.4909 4.2002 12.1625 4.2002ZM12.1425 5.34201C15.8439 5.34201 18.8355 8.34719 18.8355 12.0502C18.8355 15.7532 15.8351 18.7584 12.138 18.7584C10.5747 18.7584 9.1378 18.2218 7.99688 17.3233C7.92285 17.3233 6.43347 17.7639 5.72801 17.524C6.85587 16.6735 6.41602 15.535 6.41602 15.535C5.802 14.5188 5.44496 13.3238 5.44496 12.0502C5.44496 8.34719 8.44534 5.34201 12.1425 5.34201ZM8.00606 9.62383C7.74797 9.62383 7.5784 9.81031 7.58246 10.0562C7.57841 10.2894 7.74782 10.4802 8.00189 10.4802C8.26805 10.4802 8.43746 10.2894 8.43746 10.0562C8.42938 9.81031 8.26415 9.62383 8.00606 9.62383ZM7.75335 11.0511C7.5781 11.0511 7.58246 11.2326 7.58246 11.2326V13.6843C7.58246 13.8968 7.73219 13.9056 7.73219 13.9056H8.24068C8.45012 13.9056 8.43718 13.6489 8.43718 13.6489V11.2724C8.43718 11.0512 8.24931 11.0511 8.24931 11.0511H7.75335ZM12.6198 11.0511C12.4102 11.0511 12.2401 11.0986 12.0829 11.1891C11.9519 11.271 11.8251 11.3833 11.7202 11.5256H11.7072C11.5849 11.2367 11.2967 11.0556 10.9343 11.0556C10.4496 11.0556 10.2052 11.3184 10.0829 11.4952H10.0654L10.0436 11.3597C10.0436 11.3597 10.0129 11.1916 9.83824 11.1916H9.47142C9.28802 11.1916 9.29246 11.3597 9.29246 11.3597C9.29246 11.3597 9.30999 11.7367 9.30999 12.0084V13.6037C9.30999 13.6037 9.30996 13.9015 9.58943 13.9015H9.96488C10.192 13.9015 10.1472 13.6037 10.1472 13.6037V12.2802C10.1472 12.2112 10.1517 12.1334 10.1822 12.0644C10.2347 11.9221 10.3843 11.7497 10.607 11.7497C10.8821 11.7497 11.0025 11.9868 11.0025 12.3404V13.6037C11.0025 13.884 11.2312 13.9015 11.2312 13.9015H11.6201C11.8646 13.9015 11.86 13.6297 11.86 13.6297V12.2757C11.86 12.2111 11.8732 12.1205 11.895 12.0558C11.9518 11.8919 12.0958 11.7539 12.2966 11.7539C12.5805 11.7539 12.7125 11.9869 12.7125 12.3922V13.5865C12.7125 13.5865 12.6679 13.9056 12.8906 13.9056H13.3623C13.3623 13.9056 13.5631 13.8885 13.5675 13.5996V12.2584C13.5675 11.4262 13.1613 11.0511 12.6198 11.0511ZM15.7367 11.0511C14.8601 11.0511 14.28 11.6151 14.28 12.4973C14.28 13.3796 14.8941 13.9056 15.6902 13.9056C16.4228 13.9056 17.13 13.4475 17.13 12.4508C17.13 11.6279 16.5752 11.0511 15.7367 11.0511ZM15.7139 11.622C16.1128 11.622 16.2706 12.0502 16.275 12.4784C16.275 12.9904 16.0558 13.3347 15.7139 13.3347C15.3368 13.3347 15.135 12.9683 15.135 12.4784C15.135 12.059 15.2929 11.622 15.7139 11.622Z" fill="#F4F5F7"/>
</g>
<defs>
<filter id="filter0_d_101_1166" x="4" y="4.2002" width="16.8" height="16.5002" filterUnits="userSpaceOnUse" color-interpolation-filters="sRGB">
<feFlood flood-opacity="0" result="BackgroundImageFix"/>
<feColorMatrix in="SourceAlpha" type="matrix" values="0 0 0 0 0 0 0 0 0 0 0 0 0 0 0 0 0 0 127 0" result="hardAlpha"/>
<feOffset dx="0.4" dy="0.4"/>
<feGaussianBlur stdDeviation="0.2"/>
<feComposite in2="hardAlpha" operator="out"/>
<feColorMatrix type="matrix" values="0 0 0 0 0 0 0 0 0 0 0 0 0 0 0 0 0 0 0.25 0"/>
<feBlend mode="normal" in2="BackgroundImageFix" result="effect1_dropShadow_101_1166"/>
<feBlend mode="normal" in="SourceGraphic" in2="effect1_dropShadow_101_1166" result="shape"/>
</filter>
</defs>
</svg>
