<svg width="24" height="24" viewBox="0 0 24 24" fill="none" xmlns="http://www.w3.org/2000/svg">
<rect width="24" height="24" rx="6" fill="#32363B"/>
<g filter="url(#filter0_d_260_1359)">
<path d="M6.56746 5.22314C6.45247 5.31603 6.35977 5.4331 6.29608 5.56589C6.23239 5.69867 6.19931 5.84384 6.19922 5.99087V18.0098C6.19954 18.1683 6.2382 18.3245 6.31198 18.4651C6.38575 18.6057 6.49247 18.7268 6.62319 18.8181L13.4513 12.0498V11.9382L6.56746 5.22314Z" fill="#3F79AD"/>
<path d="M15.6621 9.69043L13.3945 11.9381V12.1054L15.6345 14.3257L18.1986 12.8582C18.3505 12.7711 18.4765 12.6461 18.5642 12.4954C18.6518 12.3448 18.698 12.174 18.698 12.0002C18.698 11.8263 18.6518 11.6555 18.5642 11.5049C18.4765 11.3543 18.3505 11.2292 18.1986 11.1422L15.6621 9.69043Z" fill="#B8A64F"/>
<path d="M13.3944 11.9941L6.55859 18.7699C6.71561 18.8998 6.90903 18.9788 7.11277 18.9964C7.31651 19.0139 7.52078 18.9691 7.69803 18.868L12.9483 15.8632L15.7057 14.2851L13.3944 11.9941Z" fill="#B04F58"/>
<path d="M7.22515 5.00024C6.97281 4.99476 6.72772 5.08409 6.53906 5.25028L13.3975 11.994L15.7007 9.71107L12.9514 8.1376L7.70111 5.13285C7.55616 5.04985 7.3925 5.00425 7.22515 5.00024Z" fill="#4F9B7A"/>
</g>
<defs>
<filter id="filter0_d_260_1359" x="6.19922" y="5" width="13.3" height="14.8" filterUnits="userSpaceOnUse" color-interpolation-filters="sRGB">
<feFlood flood-opacity="0" result="BackgroundImageFix"/>
<feColorMatrix in="SourceAlpha" type="matrix" values="0 0 0 0 0 0 0 0 0 0 0 0 0 0 0 0 0 0 127 0" result="hardAlpha"/>
<feOffset dx="0.4" dy="0.4"/>
<feGaussianBlur stdDeviation="0.2"/>
<feComposite in2="hardAlpha" operator="out"/>
<feColorMatrix type="matrix" values="0 0 0 0 0 0 0 0 0 0 0 0 0 0 0 0 0 0 0.25 0"/>
<feBlend mode="normal" in2="BackgroundImageFix" result="effect1_dropShadow_260_1359"/>
<feBlend mode="normal" in="SourceGraphic" in2="effect1_dropShadow_260_1359" result="shape"/>
</filter>
</defs>
</svg>
