<svg width="24" height="24" viewBox="0 0 24 24" fill="none" xmlns="http://www.w3.org/2000/svg">
<rect width="24" height="24" rx="6" fill="#9F5F7F"/>
<g filter="url(#filter0_d_279_727)">
<path d="M12 4H16.8C18.5673 4 20 5.43269 20 7.2V12H12V4Z" fill="#3F79AD"/>
<path d="M12 12H20V16.8C20 18.5673 18.5673 20 16.8 20H12V12Z" fill="#428AA3"/>
<path d="M4 12H12V20H7.2C5.43269 20 4 18.5673 4 16.8V12Z" fill="#F4F5F7"/>
<path d="M4 7.2C4 5.43269 5.43269 4 7.2 4H12V12H4V7.2Z" fill="#5F97C9"/>
<g filter="url(#filter1_d_279_727)">
<path d="M11.9994 16.1429C11.9994 17.1686 11.168 18.0001 10.1423 18.0001C9.11663 18.0001 8.28516 17.1686 8.28516 16.1429C8.28516 15.1172 9.11663 14.2858 10.1423 14.2858C11.168 14.2858 11.9994 15.1172 11.9994 16.1429Z" fill="#428AA3"/>
</g>
<g filter="url(#filter2_d_279_727)">
<path d="M15.7143 7.85714C15.7143 8.88281 14.8828 9.71429 13.8571 9.71429C12.8315 9.71429 12 8.88281 12 7.85714C12 6.83147 12.8315 6 13.8571 6C14.8828 6 15.7143 6.83147 15.7143 7.85714Z" fill="#5F97C9"/>
</g>
</g>
<defs>
<filter id="filter0_d_279_727" x="4" y="4" width="16.8" height="16.8" filterUnits="userSpaceOnUse" color-interpolation-filters="sRGB">
<feFlood flood-opacity="0" result="BackgroundImageFix"/>
<feColorMatrix in="SourceAlpha" type="matrix" values="0 0 0 0 0 0 0 0 0 0 0 0 0 0 0 0 0 0 127 0" result="hardAlpha"/>
<feOffset dx="0.4" dy="0.4"/>
<feGaussianBlur stdDeviation="0.2"/>
<feComposite in2="hardAlpha" operator="out"/>
<feColorMatrix type="matrix" values="0 0 0 0 0 0 0 0 0 0 0 0 0 0 0 0 0 0 0.25 0"/>
<feBlend mode="normal" in2="BackgroundImageFix" result="effect1_dropShadow_279_727"/>
<feBlend mode="normal" in="SourceGraphic" in2="effect1_dropShadow_279_727" result="shape"/>
</filter>
<filter id="filter1_d_279_727" x="8.28516" y="14.2858" width="4.51484" height="4.51423" filterUnits="userSpaceOnUse" color-interpolation-filters="sRGB">
<feFlood flood-opacity="0" result="BackgroundImageFix"/>
<feColorMatrix in="SourceAlpha" type="matrix" values="0 0 0 0 0 0 0 0 0 0 0 0 0 0 0 0 0 0 127 0" result="hardAlpha"/>
<feOffset dx="0.4" dy="0.4"/>
<feGaussianBlur stdDeviation="0.2"/>
<feComposite in2="hardAlpha" operator="out"/>
<feColorMatrix type="matrix" values="0 0 0 0 0 0 0 0 0 0 0 0 0 0 0 0 0 0 0.25 0"/>
<feBlend mode="normal" in2="BackgroundImageFix" result="effect1_dropShadow_279_727"/>
<feBlend mode="normal" in="SourceGraphic" in2="effect1_dropShadow_279_727" result="shape"/>
</filter>
<filter id="filter2_d_279_727" x="12" y="6" width="4.51484" height="4.51423" filterUnits="userSpaceOnUse" color-interpolation-filters="sRGB">
<feFlood flood-opacity="0" result="BackgroundImageFix"/>
<feColorMatrix in="SourceAlpha" type="matrix" values="0 0 0 0 0 0 0 0 0 0 0 0 0 0 0 0 0 0 127 0" result="hardAlpha"/>
<feOffset dx="0.4" dy="0.4"/>
<feGaussianBlur stdDeviation="0.2"/>
<feComposite in2="hardAlpha" operator="out"/>
<feColorMatrix type="matrix" values="0 0 0 0 0 0 0 0 0 0 0 0 0 0 0 0 0 0 0.25 0"/>
<feBlend mode="normal" in2="BackgroundImageFix" result="effect1_dropShadow_279_727"/>
<feBlend mode="normal" in="SourceGraphic" in2="effect1_dropShadow_279_727" result="shape"/>
</filter>
</defs>
</svg>
