<svg width="24" height="24" viewBox="0 0 24 24" fill="none" xmlns="http://www.w3.org/2000/svg">
<rect width="24" height="24" rx="6" fill="#32363B"/>
<g filter="url(#filter0_d_227_341)">
<path d="M5 11.1541C5 10.562 5.47998 10.082 6.07207 10.082H17.9279C18.52 10.082 19 10.562 19 11.1541V17.9019C19 18.4939 18.52 18.9739 17.9279 18.9739H6.07207C5.47998 18.9739 5 18.4939 5 17.9019V11.1541Z" fill="#3F79AD"/>
</g>
<g filter="url(#filter1_d_227_341)">
<path d="M15.3411 16.3253C15.55 16.3253 15.7195 16.4947 15.7195 16.7037V17.3343C15.7195 17.5433 15.55 17.7127 15.3411 17.7127H8.65639C8.44742 17.7127 8.27801 17.5433 8.27801 17.3343V16.7037C8.27801 16.4947 8.44742 16.3253 8.65639 16.3253H15.3411ZM7.89963 14.1181C8.10861 14.1181 8.27801 14.2875 8.27801 14.4965V15.1271C8.27801 15.3361 8.10861 15.5055 7.89963 15.5055H7.269C7.06003 15.5055 6.89063 15.3361 6.89062 15.1271V14.4965C6.89062 14.2875 7.06003 14.1181 7.269 14.1181H7.89963ZM10.1068 14.1181C10.3158 14.1181 10.4852 14.2875 10.4852 14.4965V15.1271C10.4852 15.3361 10.3158 15.5055 10.1068 15.5055H9.47621C9.26724 15.5055 9.09783 15.3361 9.09783 15.1271V14.4965C9.09783 14.2875 9.26724 14.1181 9.47621 14.1181H10.1068ZM12.314 14.1181C12.523 14.1181 12.6924 14.2875 12.6924 14.4965V15.1271C12.6924 15.3361 12.523 15.5055 12.314 15.5055H11.6834C11.4744 15.5055 11.305 15.3361 11.305 15.1271V14.4965C11.305 14.2875 11.4744 14.1181 11.6834 14.1181H12.314ZM14.5213 14.1181C14.7302 14.1181 14.8996 14.2875 14.8996 14.4965V15.1271C14.8996 15.3361 14.7302 15.5055 14.5213 15.5055H13.8906C13.6817 15.5055 13.5122 15.3361 13.5122 15.1271V14.4965C13.5122 14.2875 13.6817 14.1181 13.8906 14.1181H14.5213ZM16.7285 14.1181C16.9374 14.1181 17.1068 14.2875 17.1068 14.4965V15.1271C17.1068 15.3361 16.9374 15.5055 16.7285 15.5055H16.0978C15.8889 15.5055 15.7195 15.3361 15.7195 15.1271V14.4965C15.7195 14.2875 15.8889 14.1181 16.0978 14.1181H16.7285ZM7.89963 11.9109C8.10861 11.9109 8.27801 12.0803 8.27801 12.2893V12.9199C8.27801 13.1289 8.10861 13.2983 7.89963 13.2983H7.269C7.06003 13.2983 6.89063 13.1289 6.89062 12.9199V12.2893C6.89062 12.0803 7.06003 11.9109 7.269 11.9109H7.89963ZM10.1068 11.9109C10.3158 11.9109 10.4852 12.0803 10.4852 12.2893V12.9199C10.4852 13.1289 10.3158 13.2983 10.1068 13.2983H9.47621C9.26724 13.2983 9.09783 13.1289 9.09783 12.9199V12.2893C9.09783 12.0803 9.26724 11.9109 9.47621 11.9109H10.1068ZM12.314 11.9109C12.523 11.9109 12.6924 12.0803 12.6924 12.2893V12.9199C12.6924 13.1289 12.523 13.2983 12.314 13.2983H11.6834C11.4744 13.2983 11.305 13.1289 11.305 12.9199V12.2893C11.305 12.0803 11.4744 11.9109 11.6834 11.9109H12.314ZM14.5213 11.9109C14.7302 11.9109 14.8996 12.0803 14.8996 12.2893V12.9199C14.8996 13.1289 14.7302 13.2983 14.5213 13.2983H13.8906C13.6817 13.2983 13.5122 13.1289 13.5122 12.9199V12.2893C13.5122 12.0803 13.6817 11.9109 13.8906 11.9109H14.5213ZM16.7285 11.9109C16.9374 11.9109 17.1068 12.0803 17.1068 12.2893V12.9199C17.1068 13.1289 16.9374 13.2983 16.7285 13.2983H16.0978C15.8889 13.2983 15.7195 13.1289 15.7195 12.9199V12.2893C15.7195 12.0803 15.8889 11.9109 16.0978 11.9109H16.7285Z" fill="#63A8C2"/>
</g>
<g filter="url(#filter2_d_227_341)">
<path d="M7.83594 6.10911C7.83594 5.55185 8.28769 5.1001 8.84495 5.1001H15.1513C15.7085 5.1001 16.1603 5.55185 16.1603 6.10911V11.0599C16.1603 11.3594 16.0273 11.6434 15.7972 11.8351L12.6441 14.4627C12.2699 14.7745 11.7263 14.7745 11.3521 14.4627L8.19899 11.8351C7.96895 11.6434 7.83594 11.3594 7.83594 11.0599L7.83594 6.10911Z" fill="#F4F5F7"/>
</g>
<g filter="url(#filter3_d_227_341)">
<path d="M12.5405 8.46924C12.242 8.46924 12 8.71125 12 9.00978C12 9.30831 12.242 9.55032 12.5405 9.55032H13.3348C13.2275 9.81535 13.0437 10.0425 12.8069 10.2028L13.7152 10.8872C14.2135 10.426 14.5225 9.75392 14.5225 9.00978C14.5225 8.8887 14.5118 8.77133 14.4958 8.6554C14.48 8.54846 14.3882 8.46924 14.2802 8.46924H14.0457H12.5405Z" fill="#3F79AD"/>
<path d="M12.0523 6.4873C11.0631 6.4873 10.1823 7.05663 9.75391 7.88546L10.6541 8.49462C10.7583 8.22238 10.9426 7.98811 11.1826 7.82275C11.4227 7.65739 11.7073 7.5687 11.9988 7.56839C12.1806 7.56869 12.3591 7.60337 12.5252 7.66891C12.8096 7.78106 13.1601 7.78403 13.3694 7.56126C13.5765 7.34076 13.5694 6.9878 13.3098 6.83238C12.9442 6.61344 12.5154 6.4873 12.0523 6.4873Z" fill="#B04F58"/>
<path d="M9.75246 7.8855C9.5778 8.22424 9.47656 8.60626 9.47656 9.00986C9.47656 9.42788 9.58331 9.82066 9.769 10.1666L10.659 9.5402C10.5921 9.37138 10.5577 9.19145 10.5576 9.00986C10.5581 8.83366 10.5909 8.65904 10.6544 8.49466L10.3556 8.29266L9.75246 7.8855Z" fill="#B8A64F"/>
<path d="M10.6624 9.54126L9.77344 10.1666C10.2073 10.9774 11.079 11.5324 12.0553 11.5324C12.7024 11.5324 13.2812 11.2891 13.717 10.8873L12.8182 10.1958C12.5782 10.3616 12.2935 10.4507 12.0018 10.4513C11.713 10.4512 11.431 10.3644 11.1922 10.2021C10.9534 10.0399 10.7688 9.80964 10.6624 9.54126Z" fill="#4F9B7A"/>
</g>
<defs>
<filter id="filter0_d_227_341" x="5" y="10.082" width="14.8" height="9.69185" filterUnits="userSpaceOnUse" color-interpolation-filters="sRGB">
<feFlood flood-opacity="0" result="BackgroundImageFix"/>
<feColorMatrix in="SourceAlpha" type="matrix" values="0 0 0 0 0 0 0 0 0 0 0 0 0 0 0 0 0 0 127 0" result="hardAlpha"/>
<feOffset dx="0.4" dy="0.4"/>
<feGaussianBlur stdDeviation="0.2"/>
<feComposite in2="hardAlpha" operator="out"/>
<feColorMatrix type="matrix" values="0 0 0 0 0 0 0 0 0 0 0 0 0 0 0 0 0 0 0.25 0"/>
<feBlend mode="normal" in2="BackgroundImageFix" result="effect1_dropShadow_227_341"/>
<feBlend mode="normal" in="SourceGraphic" in2="effect1_dropShadow_227_341" result="shape"/>
</filter>
<filter id="filter1_d_227_341" x="6.89062" y="11.9109" width="11.0148" height="6.60176" filterUnits="userSpaceOnUse" color-interpolation-filters="sRGB">
<feFlood flood-opacity="0" result="BackgroundImageFix"/>
<feColorMatrix in="SourceAlpha" type="matrix" values="0 0 0 0 0 0 0 0 0 0 0 0 0 0 0 0 0 0 127 0" result="hardAlpha"/>
<feOffset dx="0.4" dy="0.4"/>
<feGaussianBlur stdDeviation="0.2"/>
<feComposite in2="hardAlpha" operator="out"/>
<feColorMatrix type="matrix" values="0 0 0 0 0 0 0 0 0 0 0 0 0 0 0 0 0 0 0.25 0"/>
<feBlend mode="normal" in2="BackgroundImageFix" result="effect1_dropShadow_227_341"/>
<feBlend mode="normal" in="SourceGraphic" in2="effect1_dropShadow_227_341" result="shape"/>
</filter>
<filter id="filter2_d_227_341" x="7.83594" y="5.1001" width="9.12422" height="10.3964" filterUnits="userSpaceOnUse" color-interpolation-filters="sRGB">
<feFlood flood-opacity="0" result="BackgroundImageFix"/>
<feColorMatrix in="SourceAlpha" type="matrix" values="0 0 0 0 0 0 0 0 0 0 0 0 0 0 0 0 0 0 127 0" result="hardAlpha"/>
<feOffset dx="0.4" dy="0.4"/>
<feGaussianBlur stdDeviation="0.2"/>
<feComposite in2="hardAlpha" operator="out"/>
<feColorMatrix type="matrix" values="0 0 0 0 0 0 0 0 0 0 0 0 0 0 0 0 0 0 0.25 0"/>
<feBlend mode="normal" in2="BackgroundImageFix" result="effect1_dropShadow_227_341"/>
<feBlend mode="normal" in="SourceGraphic" in2="effect1_dropShadow_227_341" result="shape"/>
</filter>
<filter id="filter3_d_227_341" x="9.47656" y="6.4873" width="5.84688" height="5.84517" filterUnits="userSpaceOnUse" color-interpolation-filters="sRGB">
<feFlood flood-opacity="0" result="BackgroundImageFix"/>
<feColorMatrix in="SourceAlpha" type="matrix" values="0 0 0 0 0 0 0 0 0 0 0 0 0 0 0 0 0 0 127 0" result="hardAlpha"/>
<feOffset dx="0.4" dy="0.4"/>
<feGaussianBlur stdDeviation="0.2"/>
<feComposite in2="hardAlpha" operator="out"/>
<feColorMatrix type="matrix" values="0 0 0 0 0 0 0 0 0 0 0 0 0 0 0 0 0 0 0.25 0"/>
<feBlend mode="normal" in2="BackgroundImageFix" result="effect1_dropShadow_227_341"/>
<feBlend mode="normal" in="SourceGraphic" in2="effect1_dropShadow_227_341" result="shape"/>
</filter>
</defs>
</svg>
