<svg width="24" height="24" viewBox="0 0 24 24" fill="none" xmlns="http://www.w3.org/2000/svg">
<rect width="24" height="24" rx="6" fill="#32363B"/>
<g filter="url(#filter0_d_272_75)">
<path d="M13.6279 6.40002C13.7574 6.40002 13.8817 6.45162 13.9732 6.54346C14.0648 6.63529 14.1163 6.75985 14.1163 6.88973V17.0103C14.1163 17.1402 14.0648 17.2648 13.9732 17.3566C13.8817 17.4484 13.7574 17.5 13.6279 17.5C13.4984 17.5 13.3742 17.4484 13.2826 17.3566C13.191 17.2648 13.1395 17.1402 13.1395 17.0103V6.88973C13.1395 6.75985 13.191 6.63529 13.2826 6.54346C13.3742 6.45162 13.4984 6.40002 13.6279 6.40002ZM15.2558 9.01179C15.3853 9.01179 15.5096 9.06338 15.6011 9.15522C15.6927 9.24706 15.7442 9.37162 15.7442 9.5015V14.3986C15.7442 14.5284 15.6927 14.653 15.6011 14.7448C15.5096 14.8367 15.3853 14.8883 15.2558 14.8883C15.1263 14.8883 15.0021 14.8367 14.9105 14.7448C14.8189 14.653 14.7674 14.5284 14.7674 14.3986V9.5015C14.7674 9.37162 14.8189 9.24706 14.9105 9.15522C15.0021 9.06338 15.1263 9.01179 15.2558 9.01179ZM12 9.01179C12.1295 9.01179 12.2537 9.06338 12.3453 9.15522C12.4369 9.24706 12.4884 9.37162 12.4884 9.5015V14.3986C12.4884 14.5284 12.4369 14.653 12.3453 14.7448C12.2537 14.8367 12.1295 14.8883 12 14.8883C11.8705 14.8883 11.7463 14.8367 11.6547 14.7448C11.5631 14.653 11.5116 14.5284 11.5116 14.3986V9.5015C11.5116 9.37162 11.5631 9.24706 11.6547 9.15522C11.7463 9.06338 11.8705 9.01179 12 9.01179ZM8.74419 9.01179C8.87371 9.01179 8.99793 9.06338 9.08952 9.15522C9.18111 9.24706 9.23256 9.37162 9.23256 9.5015V14.3986C9.23256 14.5284 9.18111 14.653 9.08952 14.7448C8.99793 14.8367 8.87371 14.8883 8.74419 14.8883C8.61466 14.8883 8.49044 14.8367 8.39885 14.7448C8.30727 14.653 8.25581 14.5284 8.25581 14.3986V9.5015C8.25581 9.37162 8.30727 9.24706 8.39885 9.15522C8.49044 9.06338 8.61466 9.01179 8.74419 9.01179ZM16.8837 10.6441C17.0132 10.6441 17.1375 10.6957 17.2291 10.7876C17.3206 10.8794 17.3721 11.004 17.3721 11.1338V12.7662C17.3721 12.8961 17.3206 13.0206 17.2291 13.1125C17.1375 13.2043 17.0132 13.2559 16.8837 13.2559C16.7542 13.2559 16.63 13.2043 16.5384 13.1125C16.4468 13.0206 16.3953 12.8961 16.3953 12.7662V11.1338C16.3953 11.004 16.4468 10.8794 16.5384 10.7876C16.63 10.6957 16.7542 10.6441 16.8837 10.6441ZM10.3721 10.0275C10.5016 10.0275 10.6258 10.0791 10.7174 10.1709C10.809 10.2627 10.8605 10.3873 10.8605 10.5172V13.2595C10.8605 13.3894 10.809 13.514 10.7174 13.6058C10.6258 13.6976 10.5016 13.7492 10.3721 13.7492C10.2426 13.7492 10.1183 13.6976 10.0268 13.6058C9.93517 13.514 9.88372 13.3894 9.88372 13.2595V10.5172C9.88372 10.3873 9.93517 10.2627 10.0268 10.1709C10.1183 10.0791 10.2426 10.0275 10.3721 10.0275ZM7.11628 10.6441C7.2458 10.6441 7.37002 10.6957 7.46161 10.7876C7.5532 10.8794 7.60465 11.004 7.60465 11.1338V12.7662C7.60465 12.8961 7.5532 13.0206 7.46161 13.1125C7.37002 13.2043 7.2458 13.2559 7.11628 13.2559C6.98676 13.2559 6.86254 13.2043 6.77095 13.1125C6.67936 13.0206 6.62791 12.8961 6.62791 12.7662V11.1338C6.62791 11.004 6.67936 10.8794 6.77095 10.7876C6.86254 10.6957 6.98676 10.6441 7.11628 10.6441ZM18.5116 11.4603C18.6412 11.4603 18.7654 11.5119 18.857 11.6037C18.9485 11.6956 19 11.8201 19 11.95C19 12.0799 18.9485 12.2045 18.857 12.2963C18.7654 12.3881 18.6412 12.4397 18.5116 12.4397C18.3821 12.4397 18.2579 12.3881 18.1663 12.2963C18.0747 12.2045 18.0233 12.0799 18.0233 11.95C18.0233 11.8201 18.0747 11.6956 18.1663 11.6037C18.2579 11.5119 18.3821 11.4603 18.5116 11.4603ZM5.48837 11.4603C5.6179 11.4603 5.74212 11.5119 5.8337 11.6037C5.92529 11.6956 5.97674 11.8201 5.97674 11.95C5.97674 12.0799 5.92529 12.2045 5.8337 12.2963C5.74212 12.3881 5.6179 12.4397 5.48837 12.4397C5.35885 12.4397 5.23463 12.3881 5.14304 12.2963C5.05145 12.2045 5 12.0799 5 11.95C5 11.8201 5.05145 11.6956 5.14304 11.6037C5.23463 11.5119 5.35885 11.4603 5.48837 11.4603Z" fill="#F4F5F7"/>
</g>
<defs>
<filter id="filter0_d_272_75" x="5" y="6.40002" width="14.8" height="11.9" filterUnits="userSpaceOnUse" color-interpolation-filters="sRGB">
<feFlood flood-opacity="0" result="BackgroundImageFix"/>
<feColorMatrix in="SourceAlpha" type="matrix" values="0 0 0 0 0 0 0 0 0 0 0 0 0 0 0 0 0 0 127 0" result="hardAlpha"/>
<feOffset dx="0.4" dy="0.4"/>
<feGaussianBlur stdDeviation="0.2"/>
<feComposite in2="hardAlpha" operator="out"/>
<feColorMatrix type="matrix" values="0 0 0 0 0 0 0 0 0 0 0 0 0 0 0 0 0 0 0.25 0"/>
<feBlend mode="normal" in2="BackgroundImageFix" result="effect1_dropShadow_272_75"/>
<feBlend mode="normal" in="SourceGraphic" in2="effect1_dropShadow_272_75" result="shape"/>
</filter>
</defs>
</svg>
