<svg width="24" height="24" viewBox="0 0 24 24" fill="none" xmlns="http://www.w3.org/2000/svg">
<rect width="24" height="24" rx="6" fill="#32363B"/>
<g filter="url(#filter0_d_214_895)">
<path d="M17.9531 11.9546C17.9531 12.7425 17.7979 13.5227 17.4964 14.2507C17.1949 14.9786 16.7529 15.6401 16.1958 16.1972C15.6386 16.7544 14.9772 17.1963 14.2492 17.4979C13.5213 17.7994 12.7411 17.9546 11.9531 17.9546L11.9531 14.3546C12.2683 14.3546 12.5804 14.2925 12.8716 14.1719C13.1627 14.0513 13.4273 13.8745 13.6502 13.6516C13.873 13.4288 14.0498 13.1642 14.1704 12.873C14.291 12.5818 14.3531 12.2698 14.3531 11.9546H17.9531Z" fill="#6FBF9A"/>
<path d="M5.95312 11.9546C5.95312 11.1667 6.10832 10.3864 6.40985 9.65849C6.71138 8.93054 7.15333 8.2691 7.71048 7.71195C8.26764 7.1548 8.92907 6.71284 9.65702 6.41131C10.385 6.10978 11.1652 5.95459 11.9531 5.95459L11.9531 9.55459C11.638 9.55459 11.3259 9.61667 11.0347 9.73728C10.7435 9.85789 10.4789 10.0347 10.2561 10.2575C10.0332 10.4804 9.85643 10.745 9.73581 11.0361C9.6152 11.3273 9.55312 11.6394 9.55312 11.9546H5.95312Z" fill="#5F97C9"/>
<path d="M11.9531 5.95459C12.7411 5.95459 13.5213 6.10978 14.2492 6.41131C14.9772 6.71284 15.6386 7.1548 16.1958 7.71195C16.7529 8.2691 17.1949 8.93054 17.4964 9.65849C17.7979 10.3864 17.9531 11.1667 17.9531 11.9546L14.3531 11.9546C14.3531 11.6394 14.291 11.3273 14.1704 11.0361C14.0498 10.745 13.873 10.4804 13.6502 10.2575C13.4273 10.0347 13.1627 9.85789 12.8716 9.73728C12.5804 9.61667 12.2683 9.55459 11.9531 9.55459V5.95459Z" fill="#3F79AD"/>
<path d="M11.9531 17.9546C11.1652 17.9546 10.385 17.7994 9.65702 17.4979C8.92907 17.1963 8.26764 16.7544 7.71048 16.1972C7.15333 15.6401 6.71138 14.9786 6.40985 14.2507C6.10832 13.5227 5.95312 12.7425 5.95313 11.9546L9.55312 11.9546C9.55312 12.2698 9.6152 12.5818 9.73581 12.873C9.85643 13.1642 10.0332 13.4288 10.2561 13.6516C10.4789 13.8745 10.7435 14.0513 11.0347 14.1719C11.3259 14.2925 11.638 14.3546 11.9531 14.3546V17.9546Z" fill="#4F9B7A"/>
<path d="M11.9531 4.85453C11.9532 4.3575 12.3574 3.94932 12.8513 4.00512C13.5935 4.08897 14.3218 4.27656 15.0146 4.56352C15.9851 4.96555 16.8671 5.55484 17.61 6.2977C18.3528 7.04056 18.9421 7.92251 19.3441 8.89311C19.6311 9.58592 19.8187 10.3143 19.9025 11.0565C19.9583 11.5504 19.5502 11.9546 19.0531 11.9546H17.9531C17.9531 11.1667 17.7979 10.3864 17.4964 9.65844C17.1949 8.93051 16.7529 8.26909 16.1958 7.71195C15.6386 7.1548 14.9772 6.7128 14.2492 6.41127C13.544 6.11917 12.7898 5.96441 12.027 5.95502L11.9531 5.95463V4.85453Z" fill="#B04F58"/>
<path d="M5.95453 11.9546C5.95453 12.7425 6.10974 13.5227 6.41127 14.2507C6.7128 14.9786 7.1547 15.6401 7.71186 16.1973C8.26901 16.7544 8.93049 17.1963 9.65844 17.4979C10.3864 17.7994 11.1666 17.9546 11.9545 17.9546V19.0546C11.9545 19.5516 11.5503 19.9598 11.0564 19.904C10.3142 19.8201 9.5859 19.6326 8.89311 19.3456C7.9225 18.9436 7.04057 18.3543 6.2977 17.6114C5.55483 16.8686 4.96555 15.9866 4.56352 15.016C4.27655 14.3232 4.08897 13.5949 4.00512 12.8527C3.94932 12.3588 4.35748 11.9546 4.85453 11.9546H5.95453Z" fill="#B0733F"/>
</g>
<defs>
<filter id="filter0_d_214_895" x="4" y="4" width="16.7063" height="16.7092" filterUnits="userSpaceOnUse" color-interpolation-filters="sRGB">
<feFlood flood-opacity="0" result="BackgroundImageFix"/>
<feColorMatrix in="SourceAlpha" type="matrix" values="0 0 0 0 0 0 0 0 0 0 0 0 0 0 0 0 0 0 127 0" result="hardAlpha"/>
<feOffset dx="0.4" dy="0.4"/>
<feGaussianBlur stdDeviation="0.2"/>
<feComposite in2="hardAlpha" operator="out"/>
<feColorMatrix type="matrix" values="0 0 0 0 0 0 0 0 0 0 0 0 0 0 0 0 0 0 0.25 0"/>
<feBlend mode="normal" in2="BackgroundImageFix" result="effect1_dropShadow_214_895"/>
<feBlend mode="normal" in="SourceGraphic" in2="effect1_dropShadow_214_895" result="shape"/>
</filter>
</defs>
</svg>
