<svg width="24" height="24" viewBox="0 0 24 24" fill="none" xmlns="http://www.w3.org/2000/svg">
<rect width="24" height="24" rx="6" fill="#32363B"/>
<g filter="url(#filter0_d_289_1107)">
<path d="M11.3735 11.8082C9.67889 11.8082 8.6051 13.182 8.60508 14.8767V18.2329C8.6051 18.6566 8.64853 19 9.07217 19H6.8667C6.44306 19 6.09963 18.6566 6.09961 18.2329V16.411C6.09962 13.8689 8.16033 11.8082 10.7023 11.8082H11.3735ZM14.9215 11.8082C16.6162 11.8082 17.99 13.182 17.99 14.8767V15.9316C17.99 17.6262 16.6162 19 14.9215 19H12.8119C14.5066 19 14.7496 17.5496 14.7496 15.8549V14.8C14.7496 13.1054 14.5066 11.8082 12.8119 11.8082H14.9215Z" fill="#5F97C9"/>
</g>
<g filter="url(#filter1_d_289_1107)">
<path d="M8.30469 14.8767C8.30469 13.182 9.6785 11.8082 11.3732 11.8082H12.8115C14.5062 11.8082 15.88 13.182 15.88 14.8767V15.9315C15.88 17.6262 14.5062 19 12.8115 19H10.9417H9.07181C8.64814 19 8.30469 18.6566 8.30469 18.2329V14.8767Z" fill="#3F79AD"/>
<circle cx="12.0445" cy="7.78082" r="2.78082" fill="#3F79AD"/>
</g>
<defs>
<filter id="filter0_d_289_1107" x="6.09961" y="11.8082" width="12.6906" height="7.99177" filterUnits="userSpaceOnUse" color-interpolation-filters="sRGB">
<feFlood flood-opacity="0" result="BackgroundImageFix"/>
<feColorMatrix in="SourceAlpha" type="matrix" values="0 0 0 0 0 0 0 0 0 0 0 0 0 0 0 0 0 0 127 0" result="hardAlpha"/>
<feOffset dx="0.4" dy="0.4"/>
<feGaussianBlur stdDeviation="0.2"/>
<feComposite in2="hardAlpha" operator="out"/>
<feColorMatrix type="matrix" values="0 0 0 0 0 0 0 0 0 0 0 0 0 0 0 0 0 0 0.25 0"/>
<feBlend mode="normal" in2="BackgroundImageFix" result="effect1_dropShadow_289_1107"/>
<feBlend mode="normal" in="SourceGraphic" in2="effect1_dropShadow_289_1107" result="shape"/>
</filter>
<filter id="filter1_d_289_1107" x="8.30469" y="5" width="8.37617" height="14.8" filterUnits="userSpaceOnUse" color-interpolation-filters="sRGB">
<feFlood flood-opacity="0" result="BackgroundImageFix"/>
<feColorMatrix in="SourceAlpha" type="matrix" values="0 0 0 0 0 0 0 0 0 0 0 0 0 0 0 0 0 0 127 0" result="hardAlpha"/>
<feOffset dx="0.4" dy="0.4"/>
<feGaussianBlur stdDeviation="0.2"/>
<feComposite in2="hardAlpha" operator="out"/>
<feColorMatrix type="matrix" values="0 0 0 0 0 0 0 0 0 0 0 0 0 0 0 0 0 0 0.25 0"/>
<feBlend mode="normal" in2="BackgroundImageFix" result="effect1_dropShadow_289_1107"/>
<feBlend mode="normal" in="SourceGraphic" in2="effect1_dropShadow_289_1107" result="shape"/>
</filter>
</defs>
</svg>
