<svg width="24" height="24" viewBox="0 0 24 24" fill="none" xmlns="http://www.w3.org/2000/svg">
<rect width="24" height="24" rx="6" fill="#32363B"/>
<g filter="url(#filter0_d_272_7)">
<rect x="5" y="5" width="14" height="14" rx="2" fill="#F4F5F7"/>
</g>
<g filter="url(#filter1_d_272_7)">
<path d="M5 7C5 5.89543 5.89543 5 7 5H17C18.1046 5 19 5.89543 19 7V8.74325H5V7Z" fill="#6B7078"/>
</g>
<g filter="url(#filter2_d_272_7)">
<path d="M12.4782 16.8545C12.255 16.8545 12.11 16.6195 12.2101 16.42L14.2965 12.2622C14.3966 12.0627 14.2516 11.8277 14.0284 11.8277H11.8645C11.6988 11.8277 11.5645 11.6934 11.5645 11.5277V10.9C11.5645 10.7343 11.6988 10.6 11.8645 10.6H15.7782C15.9439 10.6 16.0782 10.7343 16.0782 10.9V11.7564C16.0782 11.8033 16.0673 11.8495 16.0462 11.8913L13.6296 16.6895C13.5786 16.7907 13.475 16.8545 13.3617 16.8545H12.4782Z" fill="#32363B"/>
</g>
<g filter="url(#filter3_d_272_7)">
<path d="M10.5444 10.6C10.7101 10.6 10.8444 10.7343 10.8444 10.9V16.5545C10.8444 16.7202 10.7101 16.8545 10.5444 16.8545H9.63576C9.47007 16.8545 9.33576 16.7202 9.33576 16.5545V12.5388C9.33576 12.3061 9.08219 12.162 8.88222 12.2811L8.35393 12.5958C8.15396 12.715 7.90039 12.5709 7.90039 12.3381V11.7257C7.90039 11.622 7.95393 11.5256 8.04198 11.4709L9.3699 10.6452C9.41745 10.6156 9.47232 10.6 9.52831 10.6H10.5444Z" fill="#32363B"/>
</g>
<defs>
<filter id="filter0_d_272_7" x="5" y="5" width="14.8" height="14.8" filterUnits="userSpaceOnUse" color-interpolation-filters="sRGB">
<feFlood flood-opacity="0" result="BackgroundImageFix"/>
<feColorMatrix in="SourceAlpha" type="matrix" values="0 0 0 0 0 0 0 0 0 0 0 0 0 0 0 0 0 0 127 0" result="hardAlpha"/>
<feOffset dx="0.4" dy="0.4"/>
<feGaussianBlur stdDeviation="0.2"/>
<feComposite in2="hardAlpha" operator="out"/>
<feColorMatrix type="matrix" values="0 0 0 0 0 0 0 0 0 0 0 0 0 0 0 0 0 0 0.25 0"/>
<feBlend mode="normal" in2="BackgroundImageFix" result="effect1_dropShadow_272_7"/>
<feBlend mode="normal" in="SourceGraphic" in2="effect1_dropShadow_272_7" result="shape"/>
</filter>
<filter id="filter1_d_272_7" x="5" y="5" width="14.8" height="4.54329" filterUnits="userSpaceOnUse" color-interpolation-filters="sRGB">
<feFlood flood-opacity="0" result="BackgroundImageFix"/>
<feColorMatrix in="SourceAlpha" type="matrix" values="0 0 0 0 0 0 0 0 0 0 0 0 0 0 0 0 0 0 127 0" result="hardAlpha"/>
<feOffset dx="0.4" dy="0.4"/>
<feGaussianBlur stdDeviation="0.2"/>
<feComposite in2="hardAlpha" operator="out"/>
<feColorMatrix type="matrix" values="0 0 0 0 0 0 0 0 0 0 0 0 0 0 0 0 0 0 0.25 0"/>
<feBlend mode="normal" in2="BackgroundImageFix" result="effect1_dropShadow_272_7"/>
<feBlend mode="normal" in="SourceGraphic" in2="effect1_dropShadow_272_7" result="shape"/>
</filter>
<filter id="filter2_d_272_7" x="11.5645" y="10.6" width="5.31367" height="7.05452" filterUnits="userSpaceOnUse" color-interpolation-filters="sRGB">
<feFlood flood-opacity="0" result="BackgroundImageFix"/>
<feColorMatrix in="SourceAlpha" type="matrix" values="0 0 0 0 0 0 0 0 0 0 0 0 0 0 0 0 0 0 127 0" result="hardAlpha"/>
<feOffset dx="0.4" dy="0.4"/>
<feGaussianBlur stdDeviation="0.2"/>
<feComposite in2="hardAlpha" operator="out"/>
<feColorMatrix type="matrix" values="0 0 0 0 0 0 0 0 0 0 0 0 0 0 0 0 0 0 0.25 0"/>
<feBlend mode="normal" in2="BackgroundImageFix" result="effect1_dropShadow_272_7"/>
<feBlend mode="normal" in="SourceGraphic" in2="effect1_dropShadow_272_7" result="shape"/>
</filter>
<filter id="filter3_d_272_7" x="7.90039" y="10.6" width="3.74336" height="7.05452" filterUnits="userSpaceOnUse" color-interpolation-filters="sRGB">
<feFlood flood-opacity="0" result="BackgroundImageFix"/>
<feColorMatrix in="SourceAlpha" type="matrix" values="0 0 0 0 0 0 0 0 0 0 0 0 0 0 0 0 0 0 127 0" result="hardAlpha"/>
<feOffset dx="0.4" dy="0.4"/>
<feGaussianBlur stdDeviation="0.2"/>
<feComposite in2="hardAlpha" operator="out"/>
<feColorMatrix type="matrix" values="0 0 0 0 0 0 0 0 0 0 0 0 0 0 0 0 0 0 0.25 0"/>
<feBlend mode="normal" in2="BackgroundImageFix" result="effect1_dropShadow_272_7"/>
<feBlend mode="normal" in="SourceGraphic" in2="effect1_dropShadow_272_7" result="shape"/>
</filter>
</defs>
</svg>
