<svg width="24" height="24" viewBox="0 0 24 24" fill="none" xmlns="http://www.w3.org/2000/svg">
<rect width="24" height="24" rx="6" fill="#32363B"/>
<g filter="url(#filter0_d_272_97)">
<path d="M18.3254 5.08284C18.4938 4.9584 18.7279 4.97583 18.8759 5.12387C19.0239 5.27189 19.0413 5.50592 18.9169 5.67426L13.382 13.1627C13.3534 13.2015 13.3218 13.2381 13.2878 13.2721C13.2538 13.3061 13.2172 13.3377 13.1783 13.3664L5.68993 18.9013C5.52158 19.0257 5.28757 19.0082 5.13953 18.8602C4.99152 18.7122 4.97399 18.4782 5.09839 18.3098L10.6333 10.8214C10.662 10.7826 10.6935 10.746 10.7275 10.712L10.7535 10.687C10.78 10.6624 10.8078 10.6393 10.837 10.6177L18.3254 5.08284ZM12.6945 11.3053C12.3151 10.926 11.7002 10.926 11.3209 11.3053L11.2865 11.3415C10.9419 11.7228 10.9534 12.3114 11.3209 12.6789C11.7002 13.0582 12.3152 13.0582 12.6945 12.6789L12.729 12.6426C13.0734 12.2614 13.0619 11.6728 12.6945 11.3053Z" fill="#8A8F98"/>
<path d="M10.5577 10.8994C10.6403 10.7938 10.7888 10.7888 10.8837 10.8837L11.1336 11.1335C11.2284 11.2284 11.225 11.3811 11.1565 11.4964C10.935 11.8692 10.9846 12.3582 11.3053 12.6789C11.6259 12.9995 12.115 13.0491 12.4878 12.8277C12.6031 12.7592 12.7558 12.7558 12.8506 12.8506L13.0891 13.0891C13.187 13.187 13.1787 13.3481 13.0712 13.4354L5.67431 18.9013C5.50596 19.0257 5.27194 19.0083 5.1239 18.8603C4.97586 18.7122 4.95838 18.4781 5.08282 18.3098L10.5215 10.9464C10.5286 10.9369 10.5416 10.92 10.5577 10.8994Z" fill="#F4F5F7"/>
</g>
<defs>
<filter id="filter0_d_272_97" x="5" y="5" width="14.8" height="14.7841" filterUnits="userSpaceOnUse" color-interpolation-filters="sRGB">
<feFlood flood-opacity="0" result="BackgroundImageFix"/>
<feColorMatrix in="SourceAlpha" type="matrix" values="0 0 0 0 0 0 0 0 0 0 0 0 0 0 0 0 0 0 127 0" result="hardAlpha"/>
<feOffset dx="0.4" dy="0.4"/>
<feGaussianBlur stdDeviation="0.2"/>
<feComposite in2="hardAlpha" operator="out"/>
<feColorMatrix type="matrix" values="0 0 0 0 0 0 0 0 0 0 0 0 0 0 0 0 0 0 0.25 0"/>
<feBlend mode="normal" in2="BackgroundImageFix" result="effect1_dropShadow_272_97"/>
<feBlend mode="normal" in="SourceGraphic" in2="effect1_dropShadow_272_97" result="shape"/>
</filter>
</defs>
</svg>
