<svg width="24" height="24" viewBox="0 0 24 24" fill="none" xmlns="http://www.w3.org/2000/svg">
<rect width="24" height="24" rx="6" fill="#32363B"/>
<g filter="url(#filter0_d_272_51)">
<path d="M12 19C8.135 19 5 15.865 5 12C5 8.135 8.135 5 12 5C15.865 5 19 8.135 19 12C19 15.865 15.865 19 12 19Z" fill="#F4F5F7"/>
<g filter="url(#filter1_i_272_51)">
<path d="M12 17.5C8.963 17.5 6.5 15.037 6.5 12C6.5 8.963 8.963 6.5 12 6.5C15.037 6.5 17.5 8.963 17.5 12C17.5 15.037 15.037 17.5 12 17.5Z" fill="#32363B"/>
</g>
<g filter="url(#filter2_d_272_51)">
<path d="M16 12C16 9.791 14.209 8 12 8C9.791 8 8 9.791 8 12C8 14.209 9.791 16 12 16C14.209 16 16 14.209 16 12ZM15 12C15 13.6565 13.656 15 12 15C10.3435 15 9 13.656 9 12C9 10.3435 10.344 9 12 9C13.6565 9 15 10.344 15 12Z" fill="#6B7078"/>
</g>
</g>
<g filter="url(#filter3_d_272_51)">
<path d="M19.6658 5.33328C19.0764 5.33328 18.5991 4.85595 18.5991 4.26662C18.5991 3.67728 19.0764 3.19995 19.6658 3.19995C20.2551 3.19995 20.7324 3.67728 20.7324 4.26662C20.7324 4.85595 20.2551 5.33328 19.6658 5.33328Z" fill="#8A8F98"/>
</g>
<defs>
<filter id="filter0_d_272_51" x="5" y="5" width="14.8" height="14.8" filterUnits="userSpaceOnUse" color-interpolation-filters="sRGB">
<feFlood flood-opacity="0" result="BackgroundImageFix"/>
<feColorMatrix in="SourceAlpha" type="matrix" values="0 0 0 0 0 0 0 0 0 0 0 0 0 0 0 0 0 0 127 0" result="hardAlpha"/>
<feOffset dx="0.4" dy="0.4"/>
<feGaussianBlur stdDeviation="0.2"/>
<feComposite in2="hardAlpha" operator="out"/>
<feColorMatrix type="matrix" values="0 0 0 0 0 0 0 0 0 0 0 0 0 0 0 0 0 0 0.25 0"/>
<feBlend mode="normal" in2="BackgroundImageFix" result="effect1_dropShadow_272_51"/>
<feBlend mode="normal" in="SourceGraphic" in2="effect1_dropShadow_272_51" result="shape"/>
</filter>
<filter id="filter1_i_272_51" x="6.5" y="6.5" width="11.4" height="11.4" filterUnits="userSpaceOnUse" color-interpolation-filters="sRGB">
<feFlood flood-opacity="0" result="BackgroundImageFix"/>
<feBlend mode="normal" in="SourceGraphic" in2="BackgroundImageFix" result="shape"/>
<feColorMatrix in="SourceAlpha" type="matrix" values="0 0 0 0 0 0 0 0 0 0 0 0 0 0 0 0 0 0 127 0" result="hardAlpha"/>
<feOffset dx="0.4" dy="0.4"/>
<feGaussianBlur stdDeviation="0.2"/>
<feComposite in2="hardAlpha" operator="arithmetic" k2="-1" k3="1"/>
<feColorMatrix type="matrix" values="0 0 0 0 0 0 0 0 0 0 0 0 0 0 0 0 0 0 0.25 0"/>
<feBlend mode="normal" in2="shape" result="effect1_innerShadow_272_51"/>
</filter>
<filter id="filter2_d_272_51" x="8" y="8" width="8.8" height="8.8" filterUnits="userSpaceOnUse" color-interpolation-filters="sRGB">
<feFlood flood-opacity="0" result="BackgroundImageFix"/>
<feColorMatrix in="SourceAlpha" type="matrix" values="0 0 0 0 0 0 0 0 0 0 0 0 0 0 0 0 0 0 127 0" result="hardAlpha"/>
<feOffset dx="0.4" dy="0.4"/>
<feGaussianBlur stdDeviation="0.2"/>
<feComposite in2="hardAlpha" operator="out"/>
<feColorMatrix type="matrix" values="0 0 0 0 0 0 0 0 0 0 0 0 0 0 0 0 0 0 0.25 0"/>
<feBlend mode="normal" in2="BackgroundImageFix" result="effect1_dropShadow_272_51"/>
<feBlend mode="normal" in="SourceGraphic" in2="effect1_dropShadow_272_51" result="shape"/>
</filter>
<filter id="filter3_d_272_51" x="18.5996" y="3.19995" width="2.93281" height="2.9333" filterUnits="userSpaceOnUse" color-interpolation-filters="sRGB">
<feFlood flood-opacity="0" result="BackgroundImageFix"/>
<feColorMatrix in="SourceAlpha" type="matrix" values="0 0 0 0 0 0 0 0 0 0 0 0 0 0 0 0 0 0 127 0" result="hardAlpha"/>
<feOffset dx="0.4" dy="0.4"/>
<feGaussianBlur stdDeviation="0.2"/>
<feComposite in2="hardAlpha" operator="out"/>
<feColorMatrix type="matrix" values="0 0 0 0 0 0 0 0 0 0 0 0 0 0 0 0 0 0 0.25 0"/>
<feBlend mode="normal" in2="BackgroundImageFix" result="effect1_dropShadow_272_51"/>
<feBlend mode="normal" in="SourceGraphic" in2="effect1_dropShadow_272_51" result="shape"/>
</filter>
</defs>
</svg>
