<svg width="24" height="24" viewBox="0 0 24 24" fill="none" xmlns="http://www.w3.org/2000/svg">
<rect width="24" height="24" rx="6" fill="#32363B"/>
<path d="M7.80078 7.24C7.80078 6.00288 8.80366 5 10.0408 5H16.7608C17.9979 5 19.0008 6.00288 19.0008 7.24V13.96C19.0008 15.1971 17.9979 16.2 16.7608 16.2H10.0408C8.80366 16.2 7.80078 15.1971 7.80078 13.96V7.24Z" fill="#6B7078"/>
<path d="M6.40039 8.64002C6.40039 7.40291 7.40327 6.40002 8.64039 6.40002H15.3604C16.5975 6.40002 17.6004 7.40291 17.6004 8.64002V15.36C17.6004 16.5971 16.5975 17.6 15.3604 17.6H8.64039C7.40327 17.6 6.40039 16.5971 6.40039 15.36V8.64002Z" fill="#8A8F98"/>
<path d="M5 10.04C5 8.80293 6.00288 7.80005 7.24 7.80005H13.96C15.1971 7.80005 16.2 8.80293 16.2 10.04V16.76C16.2 17.9972 15.1971 19 13.96 19H7.24C6.00288 19 5 17.9972 5 16.76V10.04Z" fill="#F4F5F7"/>
</svg>
