<svg width="24" height="24" viewBox="0 0 24 24" fill="none" xmlns="http://www.w3.org/2000/svg">
<rect width="24" height="24" rx="6" fill="#32363B"/>
<g filter="url(#filter0_d_279_691)">
<path d="M17.2807 12C17.2807 12.6934 17.1441 13.3799 16.8788 14.0205C16.6135 14.6611 16.2245 15.2432 15.7342 15.7335C15.2439 16.2238 14.6619 16.6127 14.0213 16.8781C13.3807 17.1434 12.6941 17.28 12.0007 17.28L12.0007 14.112C12.2781 14.112 12.5527 14.0574 12.8089 13.9512C13.0652 13.8451 13.298 13.6895 13.4941 13.4934C13.6902 13.2973 13.8458 13.0644 13.9519 12.8082C14.0581 12.552 14.1127 12.2773 14.1127 12H17.2807Z" fill="#6FBF9A"/>
<path d="M6.71929 12C6.71929 11.3066 6.85586 10.6201 7.1212 9.97945C7.38655 9.33885 7.77547 8.75679 8.26576 8.2665C8.75606 7.7762 9.33812 7.38728 9.97872 7.12193C10.6193 6.85659 11.3059 6.72002 11.9993 6.72002L11.9993 9.88802C11.7219 9.88802 11.4473 9.94265 11.1911 10.0488C10.9348 10.1549 10.702 10.3105 10.5059 10.5066C10.3098 10.7027 10.1542 10.9356 10.0481 11.1918C9.94192 11.448 9.88729 11.7227 9.88729 12H6.71929Z" fill="#5F97C9"/>
<path d="M12.0007 6.72002C12.6941 6.72002 13.3807 6.85659 14.0213 7.12193C14.6619 7.38728 15.2439 7.7762 15.7342 8.2665C16.2245 8.75679 16.6135 9.33885 16.8788 9.97945C17.1441 10.6201 17.2807 11.3066 17.2807 12L14.1127 12C14.1127 11.7227 14.0581 11.448 13.9519 11.1918C13.8458 10.9356 13.6902 10.7027 13.4941 10.5066C13.298 10.3105 13.0652 10.1549 12.8089 10.0488C12.5527 9.94265 12.2781 9.88802 12.0007 9.88802V6.72002Z" fill="#3F79AD"/>
<path d="M11.9993 17.28C11.3059 17.28 10.6193 17.1434 9.97872 16.8781C9.33812 16.6127 8.75606 16.2238 8.26576 15.7335C7.77547 15.2432 7.38655 14.6611 7.1212 14.0205C6.85586 13.3799 6.71928 12.6934 6.71929 12L9.88729 12C9.88729 12.2773 9.94192 12.552 10.0481 12.8082C10.1542 13.0644 10.3098 13.2973 10.5059 13.4934C10.702 13.6895 10.9348 13.8451 11.1911 13.9512C11.4473 14.0574 11.7219 14.112 11.9993 14.112V17.28Z" fill="#4F9B7A"/>
<path d="M12 5.75199C12 5.3146 12.3557 4.9554 12.7904 5.0045C13.4435 5.0783 14.0844 5.24337 14.6941 5.49589C15.5482 5.84968 16.3243 6.36826 16.978 7.02197C17.6317 7.6757 18.1503 8.45181 18.5041 9.30594C18.7566 9.91562 18.9217 10.5566 18.9955 11.2097C19.0446 11.6444 18.6854 12.0001 18.248 12.0001H17.28C17.28 11.3067 17.1434 10.62 16.8781 9.97943C16.6127 9.33885 16.2238 8.7568 15.7336 8.26652C15.2433 7.77623 14.6612 7.38727 14.0206 7.12192C13.4 6.86487 12.7362 6.72868 12.065 6.72042L12 6.72008V5.75199Z" fill="#B04F58"/>
<path d="M6.71999 12C6.71999 12.6934 6.85658 13.38 7.12192 14.0206C7.38727 14.6612 7.77614 15.2433 8.26644 15.7336C8.75673 16.2239 9.33883 16.6127 9.97943 16.8781C10.62 17.1434 11.3066 17.28 12 17.28V18.248C12 18.6854 11.6443 19.0446 11.2096 18.9955C10.5565 18.9217 9.9156 18.7566 9.30594 18.5041C8.45181 18.1503 7.6757 17.6317 7.02198 16.978C6.36825 16.3243 5.84969 15.5482 5.4959 14.6941C5.24337 14.0844 5.0783 13.4435 5.0045 12.7904C4.9554 12.3557 5.31458 12 5.75199 12H6.71999Z" fill="#B0733F"/>
</g>
<defs>
<filter id="filter0_d_279_691" x="5" y="5" width="14.8" height="14.8" filterUnits="userSpaceOnUse" color-interpolation-filters="sRGB">
<feFlood flood-opacity="0" result="BackgroundImageFix"/>
<feColorMatrix in="SourceAlpha" type="matrix" values="0 0 0 0 0 0 0 0 0 0 0 0 0 0 0 0 0 0 127 0" result="hardAlpha"/>
<feOffset dx="0.4" dy="0.4"/>
<feGaussianBlur stdDeviation="0.2"/>
<feComposite in2="hardAlpha" operator="out"/>
<feColorMatrix type="matrix" values="0 0 0 0 0 0 0 0 0 0 0 0 0 0 0 0 0 0 0.25 0"/>
<feBlend mode="normal" in2="BackgroundImageFix" result="effect1_dropShadow_279_691"/>
<feBlend mode="normal" in="SourceGraphic" in2="effect1_dropShadow_279_691" result="shape"/>
</filter>
</defs>
</svg>
