<svg width="24" height="24" viewBox="0 0 24 24" fill="none" xmlns="http://www.w3.org/2000/svg">
<rect width="24" height="24" rx="6" fill="#32363B"/>
<g filter="url(#filter0_d_291_3443)">
<path d="M18.3259 5.08283C18.4942 4.9584 18.7283 4.97584 18.8764 5.12384C19.0244 5.27187 19.0418 5.50589 18.9174 5.67423L13.3825 13.1627C13.3538 13.2015 13.3223 13.2381 13.2883 13.2721C13.2543 13.3061 13.2176 13.3377 13.1788 13.3664L13.0715 13.4355L12.5486 12.799C12.6002 12.7644 12.6493 12.7245 12.6949 12.6789L12.7295 12.6427C13.074 12.2614 13.0623 11.6727 12.6949 11.3053C12.3156 10.926 11.7007 10.926 11.3214 11.3053L11.2869 11.3415C11.2332 11.401 11.1754 11.4609 11.1754 11.4609L10.6133 10.849L10.6338 10.8214C10.6625 10.7826 10.694 10.7461 10.728 10.712L10.754 10.687C10.7805 10.6624 10.8084 10.6393 10.8375 10.6178L18.3259 5.08283Z" fill="#8A8F98"/>
<path d="M10.5577 10.8994C10.6403 10.7938 10.7888 10.7888 10.8837 10.8837L11.1336 11.1335C11.2284 11.2284 11.225 11.3811 11.1565 11.4964C10.935 11.8692 10.9846 12.3582 11.3053 12.6789C11.6259 12.9995 12.115 13.0491 12.4878 12.8277C12.6031 12.7592 12.7558 12.7558 12.8506 12.8506L13.0891 13.0891C13.187 13.187 13.1787 13.3481 13.0712 13.4354L5.67431 18.9013C5.50596 19.0257 5.27194 19.0083 5.1239 18.8603C4.97586 18.7122 4.95838 18.4781 5.08282 18.3098L10.5215 10.9464C10.5286 10.9369 10.5416 10.92 10.5577 10.8994Z" fill="#F4F5F7"/>
</g>
<defs>
<filter id="filter0_d_291_3443" x="5" y="5" width="14.8" height="14.7841" filterUnits="userSpaceOnUse" color-interpolation-filters="sRGB">
<feFlood flood-opacity="0" result="BackgroundImageFix"/>
<feColorMatrix in="SourceAlpha" type="matrix" values="0 0 0 0 0 0 0 0 0 0 0 0 0 0 0 0 0 0 127 0" result="hardAlpha"/>
<feOffset dx="0.4" dy="0.4"/>
<feGaussianBlur stdDeviation="0.2"/>
<feComposite in2="hardAlpha" operator="out"/>
<feColorMatrix type="matrix" values="0 0 0 0 0 0 0 0 0 0 0 0 0 0 0 0 0 0 0.25 0"/>
<feBlend mode="normal" in2="BackgroundImageFix" result="effect1_dropShadow_291_3443"/>
<feBlend mode="normal" in="SourceGraphic" in2="effect1_dropShadow_291_3443" result="shape"/>
</filter>
</defs>
</svg>
