<svg width="24" height="24" viewBox="0 0 24 24" fill="none" xmlns="http://www.w3.org/2000/svg">
<rect width="24" height="24" rx="6" fill="#32363B"/>
<g filter="url(#filter0_d_277_80)">
<path d="M12.0004 4C16.4187 4 20.0004 7.58172 20.0004 12C20.0004 16.4183 16.8187 20 12.4004 20C7.98211 20 4.40039 16.4183 4.40039 12C4.40039 7.58172 7.58211 4 12.0004 4ZM11.4004 13.8C10.9586 13.8 10.6004 14.1582 10.6004 14.6V16.8C10.6004 17.2418 10.9586 17.6 11.4004 17.6H12.4004C12.8422 17.6 13.2004 17.2418 13.2004 16.8V14.6C13.2004 14.1582 12.8422 13.8 12.4004 13.8H11.4004ZM7.20039 10.7C6.75856 10.7 6.40039 11.0582 6.40039 11.5V12.5C6.40039 12.9418 6.75856 13.3 7.20039 13.3H9.40039C9.84222 13.3 10.2004 12.9418 10.2004 12.5V11.5C10.2004 11.0582 9.84222 10.7 9.40039 10.7H7.20039ZM14.6004 10.7C14.1586 10.7 13.8004 11.0582 13.8004 11.5V12.5C13.8004 12.9418 14.1586 13.3 14.6004 13.3H16.8004C17.2422 13.3 17.6004 12.9418 17.6004 12.5V11.5C17.6004 11.0582 17.2422 10.7 16.8004 10.7H14.6004ZM11.5004 6.4C11.0586 6.4 10.7004 6.75817 10.7004 7.2V9.4C10.7004 9.84183 11.0586 10.2 11.5004 10.2H12.5004C12.9422 10.2 13.3004 9.84183 13.3004 9.4V7.2C13.3004 6.75817 12.9422 6.4 12.5004 6.4H11.5004Z" fill="#F4F5F7"/>
</g>
<defs>
<filter id="filter0_d_277_80" x="4.40039" y="4" width="16.3996" height="16.8" filterUnits="userSpaceOnUse" color-interpolation-filters="sRGB">
<feFlood flood-opacity="0" result="BackgroundImageFix"/>
<feColorMatrix in="SourceAlpha" type="matrix" values="0 0 0 0 0 0 0 0 0 0 0 0 0 0 0 0 0 0 127 0" result="hardAlpha"/>
<feOffset dx="0.4" dy="0.4"/>
<feGaussianBlur stdDeviation="0.2"/>
<feComposite in2="hardAlpha" operator="out"/>
<feColorMatrix type="matrix" values="0 0 0 0 0 0 0 0 0 0 0 0 0 0 0 0 0 0 0.25 0"/>
<feBlend mode="normal" in2="BackgroundImageFix" result="effect1_dropShadow_277_80"/>
<feBlend mode="normal" in="SourceGraphic" in2="effect1_dropShadow_277_80" result="shape"/>
</filter>
</defs>
</svg>
