<svg width="24" height="24" viewBox="0 0 24 24" fill="none" xmlns="http://www.w3.org/2000/svg">
<rect width="24" height="24" rx="6" fill="#32363B"/>
<g filter="url(#filter0_d_272_28)">
<rect x="6.69922" y="7.94739" width="2.94737" height="10.5921" rx="1" transform="rotate(-90 6.69922 7.94739)" fill="#8A8F98"/>
</g>
<g filter="url(#filter1_d_272_28)">
<path d="M7.79297 11.6316C7.24069 11.6316 6.79297 11.1839 6.79297 10.6316L6.79297 9.68422C6.79297 9.13194 7.24068 8.68422 7.79297 8.68422L8.74034 8.68422C9.29262 8.68422 9.74034 9.13194 9.74034 9.68422L9.74034 10.6316C9.74034 11.1839 9.29262 11.6316 8.74034 11.6316L7.79297 11.6316Z" fill="#F4F5F7"/>
</g>
<g filter="url(#filter2_d_272_28)">
<path d="M7.79297 15.3158C7.24069 15.3158 6.79297 14.8681 6.79297 14.3158L6.79297 13.3684C6.79297 12.8161 7.24068 12.3684 7.79297 12.3684L8.74034 12.3684C9.29262 12.3684 9.74034 12.8161 9.74034 13.3684L9.74034 14.3158C9.74034 14.8681 9.29262 15.3158 8.74034 15.3158L7.79297 15.3158Z" fill="#F4F5F7"/>
</g>
<g filter="url(#filter3_d_272_28)">
<path d="M7.79297 19C7.24069 19 6.79297 18.5523 6.79297 18L6.79297 17.0526C6.79297 16.5003 7.24068 16.0526 7.79297 16.0526L8.74034 16.0526C9.29262 16.0526 9.74034 16.5003 9.74034 17.0526L9.74034 18C9.74034 18.5523 9.29262 19 8.74034 19L7.79297 19Z" fill="#F4F5F7"/>
</g>
<g filter="url(#filter4_d_272_28)">
<path d="M11.4766 11.6316C10.9243 11.6316 10.4766 11.1839 10.4766 10.6316L10.4766 9.68422C10.4766 9.13194 10.9243 8.68422 11.4766 8.68422L12.4239 8.68422C12.9762 8.68422 13.4239 9.13194 13.4239 9.68422L13.4239 10.6316C13.4239 11.1839 12.9762 11.6316 12.4239 11.6316L11.4766 11.6316Z" fill="#F4F5F7"/>
</g>
<g filter="url(#filter5_d_272_28)">
<path d="M11.4766 15.3158C10.9243 15.3158 10.4766 14.8681 10.4766 14.3158L10.4766 13.3684C10.4766 12.8161 10.9243 12.3684 11.4766 12.3684L12.4239 12.3684C12.9762 12.3684 13.4239 12.8161 13.4239 13.3684L13.4239 14.3158C13.4239 14.8681 12.9762 15.3158 12.4239 15.3158L11.4766 15.3158Z" fill="#F4F5F7"/>
</g>
<g filter="url(#filter6_d_272_28)">
<path d="M11.4766 19C10.9243 19 10.4766 18.5523 10.4766 18L10.4766 17.0526C10.4766 16.5003 10.9243 16.0526 11.4766 16.0526L12.4239 16.0526C12.9762 16.0526 13.4239 16.5003 13.4239 17.0526L13.4239 18C13.4239 18.5523 12.9762 19 12.4239 19L11.4766 19Z" fill="#F4F5F7"/>
</g>
<g filter="url(#filter7_d_272_28)">
<path d="M15.1602 11.6316C14.6079 11.6316 14.1602 11.1839 14.1602 10.6316L14.1602 9.68422C14.1602 9.13194 14.6079 8.68422 15.1602 8.68422L16.1075 8.68422C16.6598 8.68422 17.1075 9.13194 17.1075 9.68422L17.1075 10.6316C17.1075 11.1839 16.6598 11.6316 16.1075 11.6316L15.1602 11.6316Z" fill="#F4F5F7"/>
</g>
<g filter="url(#filter8_d_272_28)">
<path d="M15.1602 15.3158C14.6079 15.3158 14.1602 14.8681 14.1602 14.3158L14.1602 13.3684C14.1602 12.8161 14.6079 12.3684 15.1602 12.3684L16.1075 12.3684C16.6598 12.3684 17.1075 12.8161 17.1075 13.3684L17.1075 14.3158C17.1075 14.8681 16.6598 15.3158 16.1075 15.3158L15.1602 15.3158Z" fill="#F4F5F7"/>
</g>
<g filter="url(#filter9_d_272_28)">
<path d="M15.1602 19C14.6079 19 14.1602 18.5523 14.1602 18L14.1602 17.0526C14.1602 16.5003 14.6079 16.0526 15.1602 16.0526L16.1075 16.0526C16.6598 16.0526 17.1075 16.5003 17.1075 17.0526L17.1075 18C17.1075 18.5523 16.6598 19 16.1075 19L15.1602 19Z" fill="#F4F5F7"/>
</g>
<defs>
<filter id="filter0_d_272_28" x="6.69922" y="5" width="11.3918" height="3.74739" filterUnits="userSpaceOnUse" color-interpolation-filters="sRGB">
<feFlood flood-opacity="0" result="BackgroundImageFix"/>
<feColorMatrix in="SourceAlpha" type="matrix" values="0 0 0 0 0 0 0 0 0 0 0 0 0 0 0 0 0 0 127 0" result="hardAlpha"/>
<feOffset dx="0.4" dy="0.4"/>
<feGaussianBlur stdDeviation="0.2"/>
<feComposite in2="hardAlpha" operator="out"/>
<feColorMatrix type="matrix" values="0 0 0 0 0 0 0 0 0 0 0 0 0 0 0 0 0 0 0.25 0"/>
<feBlend mode="normal" in2="BackgroundImageFix" result="effect1_dropShadow_272_28"/>
<feBlend mode="normal" in="SourceGraphic" in2="effect1_dropShadow_272_28" result="shape"/>
</filter>
<filter id="filter1_d_272_28" x="6.79297" y="8.6842" width="3.74727" height="3.74739" filterUnits="userSpaceOnUse" color-interpolation-filters="sRGB">
<feFlood flood-opacity="0" result="BackgroundImageFix"/>
<feColorMatrix in="SourceAlpha" type="matrix" values="0 0 0 0 0 0 0 0 0 0 0 0 0 0 0 0 0 0 127 0" result="hardAlpha"/>
<feOffset dx="0.4" dy="0.4"/>
<feGaussianBlur stdDeviation="0.2"/>
<feComposite in2="hardAlpha" operator="out"/>
<feColorMatrix type="matrix" values="0 0 0 0 0 0 0 0 0 0 0 0 0 0 0 0 0 0 0.25 0"/>
<feBlend mode="normal" in2="BackgroundImageFix" result="effect1_dropShadow_272_28"/>
<feBlend mode="normal" in="SourceGraphic" in2="effect1_dropShadow_272_28" result="shape"/>
</filter>
<filter id="filter2_d_272_28" x="6.79297" y="12.3684" width="3.74727" height="3.74739" filterUnits="userSpaceOnUse" color-interpolation-filters="sRGB">
<feFlood flood-opacity="0" result="BackgroundImageFix"/>
<feColorMatrix in="SourceAlpha" type="matrix" values="0 0 0 0 0 0 0 0 0 0 0 0 0 0 0 0 0 0 127 0" result="hardAlpha"/>
<feOffset dx="0.4" dy="0.4"/>
<feGaussianBlur stdDeviation="0.2"/>
<feComposite in2="hardAlpha" operator="out"/>
<feColorMatrix type="matrix" values="0 0 0 0 0 0 0 0 0 0 0 0 0 0 0 0 0 0 0.25 0"/>
<feBlend mode="normal" in2="BackgroundImageFix" result="effect1_dropShadow_272_28"/>
<feBlend mode="normal" in="SourceGraphic" in2="effect1_dropShadow_272_28" result="shape"/>
</filter>
<filter id="filter3_d_272_28" x="6.79297" y="16.0526" width="3.74727" height="3.74739" filterUnits="userSpaceOnUse" color-interpolation-filters="sRGB">
<feFlood flood-opacity="0" result="BackgroundImageFix"/>
<feColorMatrix in="SourceAlpha" type="matrix" values="0 0 0 0 0 0 0 0 0 0 0 0 0 0 0 0 0 0 127 0" result="hardAlpha"/>
<feOffset dx="0.4" dy="0.4"/>
<feGaussianBlur stdDeviation="0.2"/>
<feComposite in2="hardAlpha" operator="out"/>
<feColorMatrix type="matrix" values="0 0 0 0 0 0 0 0 0 0 0 0 0 0 0 0 0 0 0.25 0"/>
<feBlend mode="normal" in2="BackgroundImageFix" result="effect1_dropShadow_272_28"/>
<feBlend mode="normal" in="SourceGraphic" in2="effect1_dropShadow_272_28" result="shape"/>
</filter>
<filter id="filter4_d_272_28" x="10.4766" y="8.6842" width="3.74727" height="3.74739" filterUnits="userSpaceOnUse" color-interpolation-filters="sRGB">
<feFlood flood-opacity="0" result="BackgroundImageFix"/>
<feColorMatrix in="SourceAlpha" type="matrix" values="0 0 0 0 0 0 0 0 0 0 0 0 0 0 0 0 0 0 127 0" result="hardAlpha"/>
<feOffset dx="0.4" dy="0.4"/>
<feGaussianBlur stdDeviation="0.2"/>
<feComposite in2="hardAlpha" operator="out"/>
<feColorMatrix type="matrix" values="0 0 0 0 0 0 0 0 0 0 0 0 0 0 0 0 0 0 0.25 0"/>
<feBlend mode="normal" in2="BackgroundImageFix" result="effect1_dropShadow_272_28"/>
<feBlend mode="normal" in="SourceGraphic" in2="effect1_dropShadow_272_28" result="shape"/>
</filter>
<filter id="filter5_d_272_28" x="10.4766" y="12.3684" width="3.74727" height="3.74739" filterUnits="userSpaceOnUse" color-interpolation-filters="sRGB">
<feFlood flood-opacity="0" result="BackgroundImageFix"/>
<feColorMatrix in="SourceAlpha" type="matrix" values="0 0 0 0 0 0 0 0 0 0 0 0 0 0 0 0 0 0 127 0" result="hardAlpha"/>
<feOffset dx="0.4" dy="0.4"/>
<feGaussianBlur stdDeviation="0.2"/>
<feComposite in2="hardAlpha" operator="out"/>
<feColorMatrix type="matrix" values="0 0 0 0 0 0 0 0 0 0 0 0 0 0 0 0 0 0 0.25 0"/>
<feBlend mode="normal" in2="BackgroundImageFix" result="effect1_dropShadow_272_28"/>
<feBlend mode="normal" in="SourceGraphic" in2="effect1_dropShadow_272_28" result="shape"/>
</filter>
<filter id="filter6_d_272_28" x="10.4766" y="16.0526" width="3.74727" height="3.74739" filterUnits="userSpaceOnUse" color-interpolation-filters="sRGB">
<feFlood flood-opacity="0" result="BackgroundImageFix"/>
<feColorMatrix in="SourceAlpha" type="matrix" values="0 0 0 0 0 0 0 0 0 0 0 0 0 0 0 0 0 0 127 0" result="hardAlpha"/>
<feOffset dx="0.4" dy="0.4"/>
<feGaussianBlur stdDeviation="0.2"/>
<feComposite in2="hardAlpha" operator="out"/>
<feColorMatrix type="matrix" values="0 0 0 0 0 0 0 0 0 0 0 0 0 0 0 0 0 0 0.25 0"/>
<feBlend mode="normal" in2="BackgroundImageFix" result="effect1_dropShadow_272_28"/>
<feBlend mode="normal" in="SourceGraphic" in2="effect1_dropShadow_272_28" result="shape"/>
</filter>
<filter id="filter7_d_272_28" x="14.1602" y="8.6842" width="3.74727" height="3.74739" filterUnits="userSpaceOnUse" color-interpolation-filters="sRGB">
<feFlood flood-opacity="0" result="BackgroundImageFix"/>
<feColorMatrix in="SourceAlpha" type="matrix" values="0 0 0 0 0 0 0 0 0 0 0 0 0 0 0 0 0 0 127 0" result="hardAlpha"/>
<feOffset dx="0.4" dy="0.4"/>
<feGaussianBlur stdDeviation="0.2"/>
<feComposite in2="hardAlpha" operator="out"/>
<feColorMatrix type="matrix" values="0 0 0 0 0 0 0 0 0 0 0 0 0 0 0 0 0 0 0.25 0"/>
<feBlend mode="normal" in2="BackgroundImageFix" result="effect1_dropShadow_272_28"/>
<feBlend mode="normal" in="SourceGraphic" in2="effect1_dropShadow_272_28" result="shape"/>
</filter>
<filter id="filter8_d_272_28" x="14.1602" y="12.3684" width="3.74727" height="3.74739" filterUnits="userSpaceOnUse" color-interpolation-filters="sRGB">
<feFlood flood-opacity="0" result="BackgroundImageFix"/>
<feColorMatrix in="SourceAlpha" type="matrix" values="0 0 0 0 0 0 0 0 0 0 0 0 0 0 0 0 0 0 127 0" result="hardAlpha"/>
<feOffset dx="0.4" dy="0.4"/>
<feGaussianBlur stdDeviation="0.2"/>
<feComposite in2="hardAlpha" operator="out"/>
<feColorMatrix type="matrix" values="0 0 0 0 0 0 0 0 0 0 0 0 0 0 0 0 0 0 0.25 0"/>
<feBlend mode="normal" in2="BackgroundImageFix" result="effect1_dropShadow_272_28"/>
<feBlend mode="normal" in="SourceGraphic" in2="effect1_dropShadow_272_28" result="shape"/>
</filter>
<filter id="filter9_d_272_28" x="14.1602" y="16.0526" width="3.74727" height="3.74739" filterUnits="userSpaceOnUse" color-interpolation-filters="sRGB">
<feFlood flood-opacity="0" result="BackgroundImageFix"/>
<feColorMatrix in="SourceAlpha" type="matrix" values="0 0 0 0 0 0 0 0 0 0 0 0 0 0 0 0 0 0 127 0" result="hardAlpha"/>
<feOffset dx="0.4" dy="0.4"/>
<feGaussianBlur stdDeviation="0.2"/>
<feComposite in2="hardAlpha" operator="out"/>
<feColorMatrix type="matrix" values="0 0 0 0 0 0 0 0 0 0 0 0 0 0 0 0 0 0 0.25 0"/>
<feBlend mode="normal" in2="BackgroundImageFix" result="effect1_dropShadow_272_28"/>
<feBlend mode="normal" in="SourceGraphic" in2="effect1_dropShadow_272_28" result="shape"/>
</filter>
</defs>
</svg>
