<svg width="24" height="24" viewBox="0 0 24 24" fill="none" xmlns="http://www.w3.org/2000/svg">
<rect width="24" height="24" rx="6" fill="#32363B"/>
<g filter="url(#filter0_d_272_64)">
<path d="M19 14.4791C19 15.5837 18.1046 16.4791 17 16.4791H7.84766C6.74309 16.4791 5.84766 15.5837 5.84766 14.4791V8.07158C5.84766 7.42456 6.37217 6.90005 7.01919 6.90005C7.25825 6.90005 7.49159 6.97318 7.68788 7.10963L8.82654 7.90115C9.16164 8.13409 9.55999 8.25894 9.9681 8.25894H17C18.1046 8.25894 19 9.15437 19 10.2589V14.4791Z" fill="#8A8F98"/>
</g>
<g filter="url(#filter1_d_272_64)">
<path d="M18.1523 15.1572C18.1523 16.2618 17.2569 17.1572 16.1523 17.1572H7C5.89543 17.1572 5 16.2618 5 15.1572V8.74968C5 8.10266 5.52452 7.57815 6.17154 7.57815C6.41059 7.57815 6.64393 7.65128 6.84022 7.78773L7.97888 8.57925C8.31399 8.81219 8.71233 8.93704 9.12044 8.93704H16.1523C17.2569 8.93704 18.1523 9.83248 18.1523 10.937V15.1572Z" fill="#F4F5F7"/>
</g>
<defs>
<filter id="filter0_d_272_64" x="5.84766" y="6.90002" width="13.9523" height="10.3791" filterUnits="userSpaceOnUse" color-interpolation-filters="sRGB">
<feFlood flood-opacity="0" result="BackgroundImageFix"/>
<feColorMatrix in="SourceAlpha" type="matrix" values="0 0 0 0 0 0 0 0 0 0 0 0 0 0 0 0 0 0 127 0" result="hardAlpha"/>
<feOffset dx="0.4" dy="0.4"/>
<feGaussianBlur stdDeviation="0.2"/>
<feComposite in2="hardAlpha" operator="out"/>
<feColorMatrix type="matrix" values="0 0 0 0 0 0 0 0 0 0 0 0 0 0 0 0 0 0 0.25 0"/>
<feBlend mode="normal" in2="BackgroundImageFix" result="effect1_dropShadow_272_64"/>
<feBlend mode="normal" in="SourceGraphic" in2="effect1_dropShadow_272_64" result="shape"/>
</filter>
<filter id="filter1_d_272_64" x="5" y="7.57812" width="13.9523" height="10.3791" filterUnits="userSpaceOnUse" color-interpolation-filters="sRGB">
<feFlood flood-opacity="0" result="BackgroundImageFix"/>
<feColorMatrix in="SourceAlpha" type="matrix" values="0 0 0 0 0 0 0 0 0 0 0 0 0 0 0 0 0 0 127 0" result="hardAlpha"/>
<feOffset dx="0.4" dy="0.4"/>
<feGaussianBlur stdDeviation="0.2"/>
<feComposite in2="hardAlpha" operator="out"/>
<feColorMatrix type="matrix" values="0 0 0 0 0 0 0 0 0 0 0 0 0 0 0 0 0 0 0.25 0"/>
<feBlend mode="normal" in2="BackgroundImageFix" result="effect1_dropShadow_272_64"/>
<feBlend mode="normal" in="SourceGraphic" in2="effect1_dropShadow_272_64" result="shape"/>
</filter>
</defs>
</svg>
