<svg width="24" height="24" viewBox="0 0 24 24" fill="none" xmlns="http://www.w3.org/2000/svg">
<rect width="24" height="24" rx="6" fill="#32363B"/>
<g filter="url(#filter0_d_276_223)">
<path d="M19 12C19 13.8565 18.2625 15.637 16.9497 16.9497C15.637 18.2625 13.8565 19 12 19C10.1435 19 8.36301 18.2625 7.05025 16.9497C5.7375 15.637 5 13.8565 5 12H7.45C7.45 13.2067 7.92937 14.364 8.78266 15.2173C9.63596 16.0706 10.7933 16.55 12 16.55C13.2067 16.55 14.364 16.0706 15.2173 15.2173C16.0706 14.364 16.55 13.2067 16.55 12H19Z" fill="#F4F5F7"/>
<path d="M5 12C5 10.1435 5.7375 8.36301 7.05025 7.05025C8.36301 5.7375 10.1435 5 12 5C13.8565 5 15.637 5.7375 16.9497 7.05025C18.2625 8.36301 19 10.1435 19 12H16.55C16.55 10.7933 16.0706 9.63595 15.2173 8.78266C14.364 7.92937 13.2067 7.45 12 7.45C10.7933 7.45 9.63595 7.92937 8.78266 8.78266C7.92937 9.63596 7.45 10.7933 7.45 12H5Z" fill="#8A8F98"/>
</g>
<g filter="url(#filter1_d_276_223)">
<path d="M12 7C11.3434 7 10.6932 7.12933 10.0866 7.3806C9.47995 7.63188 8.92876 8.00017 8.46447 8.46447C8.00017 8.92876 7.63188 9.47995 7.3806 10.0866C7.12933 10.6932 7 11.3434 7 12C7 12.6566 7.12933 13.3068 7.3806 13.9134C7.63188 14.52 8.00017 15.0712 8.46447 15.5355C8.92876 15.9998 9.47996 16.3681 10.0866 16.6194C10.6932 16.8707 11.3434 17 12 17L12 12V7Z" fill="#F4F5F7"/>
<path d="M12 17C12.6566 17 13.3068 16.8707 13.9134 16.6194C14.52 16.3681 15.0712 15.9998 15.5355 15.5355C15.9998 15.0712 16.3681 14.52 16.6194 13.9134C16.8707 13.3068 17 12.6566 17 12C17 11.3434 16.8707 10.6932 16.6194 10.0866C16.3681 9.47995 15.9998 8.92876 15.5355 8.46447C15.0712 8.00017 14.52 7.63188 13.9134 7.3806C13.3068 7.12933 12.6566 7 12 7L12 12V17Z" fill="#8A8F98"/>
</g>
<g filter="url(#filter2_d_276_223)">
<path d="M9 12C9 10.3431 10.3431 9 12 9C13.6569 9 15 10.3431 15 12C15 13.6569 13.6569 15 12 15C10.3431 15 9 13.6569 9 12Z" fill="#6B7078"/>
</g>
<defs>
<filter id="filter0_d_276_223" x="5" y="5" width="14.8" height="14.8" filterUnits="userSpaceOnUse" color-interpolation-filters="sRGB">
<feFlood flood-opacity="0" result="BackgroundImageFix"/>
<feColorMatrix in="SourceAlpha" type="matrix" values="0 0 0 0 0 0 0 0 0 0 0 0 0 0 0 0 0 0 127 0" result="hardAlpha"/>
<feOffset dx="0.4" dy="0.4"/>
<feGaussianBlur stdDeviation="0.2"/>
<feComposite in2="hardAlpha" operator="out"/>
<feColorMatrix type="matrix" values="0 0 0 0 0 0 0 0 0 0 0 0 0 0 0 0 0 0 0.25 0"/>
<feBlend mode="normal" in2="BackgroundImageFix" result="effect1_dropShadow_276_223"/>
<feBlend mode="normal" in="SourceGraphic" in2="effect1_dropShadow_276_223" result="shape"/>
</filter>
<filter id="filter1_d_276_223" x="7" y="7" width="10.8" height="10.8" filterUnits="userSpaceOnUse" color-interpolation-filters="sRGB">
<feFlood flood-opacity="0" result="BackgroundImageFix"/>
<feColorMatrix in="SourceAlpha" type="matrix" values="0 0 0 0 0 0 0 0 0 0 0 0 0 0 0 0 0 0 127 0" result="hardAlpha"/>
<feOffset dx="0.4" dy="0.4"/>
<feGaussianBlur stdDeviation="0.2"/>
<feComposite in2="hardAlpha" operator="out"/>
<feColorMatrix type="matrix" values="0 0 0 0 0 0 0 0 0 0 0 0 0 0 0 0 0 0 0.25 0"/>
<feBlend mode="normal" in2="BackgroundImageFix" result="effect1_dropShadow_276_223"/>
<feBlend mode="normal" in="SourceGraphic" in2="effect1_dropShadow_276_223" result="shape"/>
</filter>
<filter id="filter2_d_276_223" x="9" y="9" width="6.8" height="6.8" filterUnits="userSpaceOnUse" color-interpolation-filters="sRGB">
<feFlood flood-opacity="0" result="BackgroundImageFix"/>
<feColorMatrix in="SourceAlpha" type="matrix" values="0 0 0 0 0 0 0 0 0 0 0 0 0 0 0 0 0 0 127 0" result="hardAlpha"/>
<feOffset dx="0.4" dy="0.4"/>
<feGaussianBlur stdDeviation="0.2"/>
<feComposite in2="hardAlpha" operator="out"/>
<feColorMatrix type="matrix" values="0 0 0 0 0 0 0 0 0 0 0 0 0 0 0 0 0 0 0.25 0"/>
<feBlend mode="normal" in2="BackgroundImageFix" result="effect1_dropShadow_276_223"/>
<feBlend mode="normal" in="SourceGraphic" in2="effect1_dropShadow_276_223" result="shape"/>
</filter>
</defs>
</svg>
