<svg width="24" height="24" viewBox="0 0 24 24" fill="none" xmlns="http://www.w3.org/2000/svg">
<rect width="24" height="24" rx="6" fill="#32363B"/>
<g filter="url(#filter0_d_260_1353)">
<path d="M8.83019 13.3606C10.9455 13.3606 12.6604 11.6457 12.6604 9.53038C12.6604 7.41503 10.9455 5.7002 8.83019 5.7002C6.71483 5.7002 5 7.41503 5 9.53038C5 11.6457 6.71483 13.3606 8.83019 13.3606Z" fill="#428AA3"/>
<path d="M15.1711 18.3792C16.4111 18.3792 17.4163 17.374 17.4163 16.134C17.4163 14.8939 16.4111 13.8887 15.1711 13.8887C13.931 13.8887 12.9258 14.8939 12.9258 16.134C12.9258 17.374 13.931 18.3792 15.1711 18.3792Z" fill="#B8A64F"/>
<path d="M15.1246 13.3605C16.1944 13.3605 17.0617 12.4933 17.0617 11.4234C17.0617 10.3536 16.1944 9.48633 15.1246 9.48633C14.0548 9.48633 13.1875 10.3536 13.1875 11.4234C13.1875 12.4933 14.0548 13.3605 15.1246 13.3605Z" fill="#B04F58"/>
<path d="M18.0311 10.1905C18.566 10.1905 18.9996 9.75689 18.9996 9.22197C18.9996 8.68705 18.566 8.25342 18.0311 8.25342C17.4961 8.25342 17.0625 8.68705 17.0625 9.22197C17.0625 9.75689 17.4961 10.1905 18.0311 10.1905Z" fill="#4F9B7A"/>
</g>
<defs>
<filter id="filter0_d_260_1353" x="5" y="5.7002" width="14.8" height="13.4792" filterUnits="userSpaceOnUse" color-interpolation-filters="sRGB">
<feFlood flood-opacity="0" result="BackgroundImageFix"/>
<feColorMatrix in="SourceAlpha" type="matrix" values="0 0 0 0 0 0 0 0 0 0 0 0 0 0 0 0 0 0 127 0" result="hardAlpha"/>
<feOffset dx="0.4" dy="0.4"/>
<feGaussianBlur stdDeviation="0.2"/>
<feComposite in2="hardAlpha" operator="out"/>
<feColorMatrix type="matrix" values="0 0 0 0 0 0 0 0 0 0 0 0 0 0 0 0 0 0 0.25 0"/>
<feBlend mode="normal" in2="BackgroundImageFix" result="effect1_dropShadow_260_1353"/>
<feBlend mode="normal" in="SourceGraphic" in2="effect1_dropShadow_260_1353" result="shape"/>
</filter>
</defs>
</svg>
