<svg width="24" height="24" viewBox="0 0 24 24" fill="none" xmlns="http://www.w3.org/2000/svg">
<rect width="24" height="24" rx="6" fill="#32363B"/>
<g filter="url(#filter0_d_291_3390)">
<path d="M6.56746 5.22314C6.45247 5.31603 6.35977 5.4331 6.29608 5.56589C6.23239 5.69867 6.19931 5.84384 6.19922 5.99087V18.0098C6.19954 18.1683 6.2382 18.3245 6.31198 18.4651C6.38575 18.6057 6.49247 18.7268 6.62319 18.8181L10.2373 15.5339L13.4513 12.0498V11.9382L10.2094 8.4807L6.56746 5.22314Z" fill="#3F79AD"/>
<path d="M15.664 9.69067L14.4303 10.6145L13.3965 11.9383V12.1056L14.3165 13.3158L15.6364 14.3259L18.2006 12.8584C18.3524 12.7714 18.4785 12.6463 18.5661 12.4957C18.6538 12.3451 18.6999 12.1743 18.6999 12.0004C18.6999 11.8265 18.6538 11.6557 18.5661 11.5051C18.4785 11.3545 18.3524 11.2294 18.2006 11.1424L15.664 9.69067Z" fill="#B8A64F"/>
<path d="M13.3963 11.994L6.56055 18.7698C6.71756 18.8997 6.91098 18.9787 7.11472 18.9962C7.31847 19.0138 7.52273 18.969 7.69998 18.8678L12.9502 15.8631L15.7076 14.285L13.3963 11.994Z" fill="#B04F58"/>
<path d="M7.22319 5.00024C6.97086 4.99476 6.72577 5.08409 6.53711 5.25028L13.3955 11.994L15.6987 9.71107L12.9494 8.1376L7.69916 5.13285C7.55421 5.04985 7.39055 5.00425 7.22319 5.00024Z" fill="#4F9B7A"/>
</g>
<defs>
<filter id="filter0_d_291_3390" x="6.19922" y="5" width="13.3" height="14.8" filterUnits="userSpaceOnUse" color-interpolation-filters="sRGB">
<feFlood flood-opacity="0" result="BackgroundImageFix"/>
<feColorMatrix in="SourceAlpha" type="matrix" values="0 0 0 0 0 0 0 0 0 0 0 0 0 0 0 0 0 0 127 0" result="hardAlpha"/>
<feOffset dx="0.4" dy="0.4"/>
<feGaussianBlur stdDeviation="0.2"/>
<feComposite in2="hardAlpha" operator="out"/>
<feColorMatrix type="matrix" values="0 0 0 0 0 0 0 0 0 0 0 0 0 0 0 0 0 0 0.25 0"/>
<feBlend mode="normal" in2="BackgroundImageFix" result="effect1_dropShadow_291_3390"/>
<feBlend mode="normal" in="SourceGraphic" in2="effect1_dropShadow_291_3390" result="shape"/>
</filter>
</defs>
</svg>
