<svg width="24" height="24" viewBox="0 0 24 24" fill="none" xmlns="http://www.w3.org/2000/svg">
<rect width="24" height="24" rx="6" fill="#32363B"/>
<g filter="url(#filter0_d_272_95)">
<path d="M16.4 5C17.2837 5 18 5.71634 18 6.6V17.4C18 18.2837 17.2837 19 16.4 19H7.6C6.71634 19 6 18.2837 6 17.4V6.6C6 5.71634 6.71634 5 7.6 5H16.4ZM8.9 7C8.45817 7 8.1 7.35817 8.1 7.8V16.2C8.1 16.6418 8.45817 17 8.9 17C9.34183 17 9.7 16.6418 9.7 16.2V7.8C9.7 7.35817 9.34183 7 8.9 7ZM15.1 7C14.6582 7 14.3 7.35817 14.3 7.8V16.2C14.3 16.6418 14.6582 17 15.1 17C15.5418 17 15.9 16.6418 15.9 16.2V7.8C15.9 7.35817 15.5418 7 15.1 7ZM12 8.5C11.5582 8.5 11.2 8.85817 11.2 9.3V14.7C11.2 15.1418 11.5582 15.5 12 15.5C12.4418 15.5 12.8 15.1418 12.8 14.7V9.3C12.8 8.85817 12.4418 8.5 12 8.5Z" fill="#F4F5F7"/>
</g>
<defs>
<filter id="filter0_d_272_95" x="6" y="5" width="12.8" height="14.8" filterUnits="userSpaceOnUse" color-interpolation-filters="sRGB">
<feFlood flood-opacity="0" result="BackgroundImageFix"/>
<feColorMatrix in="SourceAlpha" type="matrix" values="0 0 0 0 0 0 0 0 0 0 0 0 0 0 0 0 0 0 127 0" result="hardAlpha"/>
<feOffset dx="0.4" dy="0.4"/>
<feGaussianBlur stdDeviation="0.2"/>
<feComposite in2="hardAlpha" operator="out"/>
<feColorMatrix type="matrix" values="0 0 0 0 0 0 0 0 0 0 0 0 0 0 0 0 0 0 0.25 0"/>
<feBlend mode="normal" in2="BackgroundImageFix" result="effect1_dropShadow_272_95"/>
<feBlend mode="normal" in="SourceGraphic" in2="effect1_dropShadow_272_95" result="shape"/>
</filter>
</defs>
</svg>
