<svg width="24" height="24" viewBox="0 0 24 24" fill="none" xmlns="http://www.w3.org/2000/svg">
<rect width="24" height="24" rx="6" fill="#32363B"/>
<g filter="url(#filter0_d_272_77)">
<path d="M12 6.80005C12.1733 6.80005 12.3137 6.94115 12.3137 7.1152V11.1178L15.2714 13.3693C15.5449 13.5978 15.8776 13.7435 16.2304 13.7892C16.5832 13.835 16.9416 13.779 17.2639 13.6278C17.5862 13.4766 17.8592 13.2365 18.0507 12.9353C18.2422 12.6342 18.3445 12.2844 18.3456 11.9271C18.3467 11.5698 18.2466 11.2195 18.057 10.9172C17.8673 10.6149 17.596 10.3729 17.2747 10.2196C16.9533 10.0664 16.5952 10.0082 16.2422 10.0517C16.0982 10.0695 15.9574 10.1039 15.8226 10.1538C15.4974 10.274 15.1024 10.2475 14.8825 9.97849L14.629 9.66842C14.4091 9.3994 14.446 8.99639 14.7485 8.82653C15.146 8.60328 15.5846 8.45835 16.0406 8.40212C16.7052 8.32018 17.3793 8.42991 17.9842 8.71835C18.5891 9.00681 19.0999 9.4622 19.4568 10.0313C19.8137 10.6004 20.0021 11.2599 20 11.9325C19.9979 12.6051 19.8053 13.2632 19.4448 13.83C19.0843 14.3968 18.5707 14.8491 17.964 15.1337C17.3573 15.4183 16.6824 15.5237 16.0184 15.4375C15.3543 15.3513 14.7283 15.0771 14.2135 14.647L12.3137 13.2009V16.8849C12.3137 17.059 12.1733 17.2 12 17.2C11.8267 17.2 11.6863 17.059 11.6863 16.8849V12.7235L8.71937 10.4655C8.44446 10.2388 8.11088 10.0953 7.75782 10.0517C7.40479 10.0082 7.04667 10.0664 6.72535 10.2196C6.40401 10.3729 6.13265 10.6149 5.94303 10.9172C5.75343 11.2195 5.65333 11.5698 5.65443 11.9271C5.65555 12.2844 5.75781 12.6342 5.94931 12.9353C6.14082 13.2365 6.41378 13.4766 6.73607 13.6278C7.05837 13.779 7.41683 13.835 7.76962 13.7892C7.9135 13.7706 8.05405 13.7353 8.18858 13.6846C8.51296 13.5623 8.90814 13.5863 9.12975 13.8539L9.38527 14.1624C9.60685 14.43 9.5725 14.8333 9.27114 15.0051C8.87501 15.2308 8.43723 15.3784 7.98163 15.4375C7.31756 15.5236 6.6427 15.4183 6.03601 15.1337C5.42933 14.8491 4.91566 14.3968 4.55516 13.83C4.19472 13.2632 4.00215 12.6051 4.00002 11.9325C3.99792 11.2599 4.1863 10.6004 4.54321 10.0313C4.90014 9.46219 5.41092 9.00681 6.01579 8.71835C6.62066 8.4299 7.29483 8.32018 7.95941 8.40212C8.624 8.48407 9.25183 8.75438 9.76931 9.18123L11.6863 10.6403V7.1152C11.6863 6.94115 11.8267 6.80005 12 6.80005Z" fill="#F4F5F7"/>
</g>
<defs>
<filter id="filter0_d_272_77" x="4" y="6.80005" width="16.8" height="11.2" filterUnits="userSpaceOnUse" color-interpolation-filters="sRGB">
<feFlood flood-opacity="0" result="BackgroundImageFix"/>
<feColorMatrix in="SourceAlpha" type="matrix" values="0 0 0 0 0 0 0 0 0 0 0 0 0 0 0 0 0 0 127 0" result="hardAlpha"/>
<feOffset dx="0.4" dy="0.4"/>
<feGaussianBlur stdDeviation="0.2"/>
<feComposite in2="hardAlpha" operator="out"/>
<feColorMatrix type="matrix" values="0 0 0 0 0 0 0 0 0 0 0 0 0 0 0 0 0 0 0.25 0"/>
<feBlend mode="normal" in2="BackgroundImageFix" result="effect1_dropShadow_272_77"/>
<feBlend mode="normal" in="SourceGraphic" in2="effect1_dropShadow_272_77" result="shape"/>
</filter>
</defs>
</svg>
