<svg width="24" height="24" viewBox="0 0 24 24" fill="none" xmlns="http://www.w3.org/2000/svg">
<rect width="24" height="24" rx="6" fill="#32363B"/>
<g filter="url(#filter0_d_272_40)">
<path d="M12.4004 5C12.9525 5.00021 13.4004 5.44785 13.4004 6V7.65443C13.4004 8.01079 13.8312 8.18926 14.0832 7.93727L15.2529 6.76758C15.6435 6.37705 16.2765 6.37705 16.667 6.76758L17.2324 7.33301C17.6229 7.72353 17.6229 8.35655 17.2324 8.74707L16.0627 9.91677C15.8107 10.1688 15.9892 10.5996 16.3456 10.5996H18C18.5522 10.5996 18.9998 11.0475 19 11.5996V12.4004C18.9998 12.9525 18.5522 13.4004 18 13.4004H16.3465C15.9902 13.4004 15.8117 13.8312 16.0637 14.0832L17.2227 15.2422C17.6129 15.6326 17.6127 16.2657 17.2227 16.6562L16.6562 17.2227C16.2657 17.6128 15.6326 17.613 15.2422 17.2227L14.0832 16.0637C13.8312 15.8117 13.4004 15.9902 13.4004 16.3465V18C13.4004 18.5522 12.9525 18.9998 12.4004 19H11.5996C11.0475 18.9998 10.5996 18.5522 10.5996 18V16.3456C10.5996 15.9892 10.1688 15.8107 9.91677 16.0627L8.74707 17.2324C8.35654 17.6228 7.7235 17.6229 7.33301 17.2324L6.76758 16.667C6.37709 16.2765 6.37716 15.6435 6.76758 15.2529L7.93727 14.0832C8.18926 13.8312 8.01079 13.4004 7.65443 13.4004H6C5.44785 13.4004 5.00021 12.9525 5 12.4004V11.5996C5.00021 11.0475 5.44785 10.5996 6 10.5996H7.65346C8.00982 10.5996 8.18828 10.1688 7.9363 9.91677L6.75684 8.7373C6.36642 8.34689 6.36663 7.71379 6.75684 7.32324L7.32227 6.75684C7.71279 6.36631 8.34678 6.36631 8.7373 6.75684L9.91677 7.9363C10.1688 8.18828 10.5996 8.00982 10.5996 7.65346V6C10.5996 5.44785 11.0475 5.00021 11.5996 5H12.4004Z" fill="#F4F5F7"/>
</g>
<g filter="url(#filter1_i_272_40)">
<path d="M11.45 13.75C10.7873 13.75 10.25 13.2127 10.25 12.55L10.25 11.45C10.25 10.7873 10.7873 10.25 11.45 10.25L12.55 10.25C13.2127 10.25 13.75 10.7873 13.75 11.45L13.75 12.55C13.75 13.2127 13.2127 13.75 12.55 13.75L11.45 13.75Z" fill="#32363B"/>
</g>
<defs>
<filter id="filter0_d_272_40" x="5" y="5" width="14.8" height="14.8" filterUnits="userSpaceOnUse" color-interpolation-filters="sRGB">
<feFlood flood-opacity="0" result="BackgroundImageFix"/>
<feColorMatrix in="SourceAlpha" type="matrix" values="0 0 0 0 0 0 0 0 0 0 0 0 0 0 0 0 0 0 127 0" result="hardAlpha"/>
<feOffset dx="0.4" dy="0.4"/>
<feGaussianBlur stdDeviation="0.2"/>
<feComposite in2="hardAlpha" operator="out"/>
<feColorMatrix type="matrix" values="0 0 0 0 0 0 0 0 0 0 0 0 0 0 0 0 0 0 0.25 0"/>
<feBlend mode="normal" in2="BackgroundImageFix" result="effect1_dropShadow_272_40"/>
<feBlend mode="normal" in="SourceGraphic" in2="effect1_dropShadow_272_40" result="shape"/>
</filter>
<filter id="filter1_i_272_40" x="10.25" y="10.25" width="3.9" height="3.9" filterUnits="userSpaceOnUse" color-interpolation-filters="sRGB">
<feFlood flood-opacity="0" result="BackgroundImageFix"/>
<feBlend mode="normal" in="SourceGraphic" in2="BackgroundImageFix" result="shape"/>
<feColorMatrix in="SourceAlpha" type="matrix" values="0 0 0 0 0 0 0 0 0 0 0 0 0 0 0 0 0 0 127 0" result="hardAlpha"/>
<feOffset dx="0.4" dy="0.4"/>
<feGaussianBlur stdDeviation="0.2"/>
<feComposite in2="hardAlpha" operator="arithmetic" k2="-1" k3="1"/>
<feColorMatrix type="matrix" values="0 0 0 0 0 0 0 0 0 0 0 0 0 0 0 0 0 0 0.25 0"/>
<feBlend mode="normal" in2="shape" result="effect1_innerShadow_272_40"/>
</filter>
</defs>
</svg>
