<svg width="24" height="24" viewBox="0 0 24 24" fill="none" xmlns="http://www.w3.org/2000/svg">
<rect width="24" height="24" rx="6" fill="#4F5F9F"/>
<g filter="url(#filter0_d_101_946)">
<path fill-rule="evenodd" clip-rule="evenodd" d="M13.5333 12.2071C13.5333 12.1414 13.5848 11.5136 14.27 11.5136C14.7245 11.5136 14.8886 11.7732 14.9749 12.2071H13.5333ZM14.2949 10.8389C13.2743 10.8389 12.6465 11.621 12.6465 12.5587C12.6465 13.3687 13.1063 14.267 14.2949 14.267C15.3732 14.267 15.6796 13.5682 15.8044 13.1773H15.2417C15.1127 13.1773 15.0182 13.2292 14.9304 13.3387C14.8934 13.3812 14.7048 13.5986 14.3262 13.5986C13.559 13.5986 13.5479 12.984 13.5333 12.7738H15.8608C15.9266 11.8301 15.4321 10.8389 14.2949 10.8389Z" fill="#F4F5F7"/>
</g>
<g filter="url(#filter1_d_101_946)">
<path fill-rule="evenodd" clip-rule="evenodd" d="M16.4102 9.7002V13.3667C16.4172 13.9844 16.5298 14.1992 17.2912 14.1992L17.2905 10.4234C17.2846 9.81501 17.1684 9.7002 16.4102 9.7002Z" fill="#F4F5F7"/>
</g>
<g filter="url(#filter2_d_101_946)">
<path fill-rule="evenodd" clip-rule="evenodd" d="M18.1192 9.7002V13.3667C18.1258 13.9844 18.2384 14.1992 19 14.1992L18.9995 10.4234C18.9935 9.81501 18.8766 9.7002 18.1192 9.7002Z" fill="#F4F5F7"/>
</g>
<g filter="url(#filter3_d_101_946)">
<path fill-rule="evenodd" clip-rule="evenodd" d="M11.6787 12.9379C11.6787 12.9379 11.477 12.9305 11.3992 13.145C11.2893 13.4505 11.088 13.5986 10.7448 13.5986C10.2119 13.5986 10.0087 13.0859 10.0087 12.5591C10.0087 12.0587 10.2175 11.5136 10.7642 11.5136C11.1051 11.5136 11.2859 11.6678 11.3631 11.8671C11.4053 11.9764 11.468 12.0746 11.6637 12.0746H12.2863C12.2392 11.2329 11.5231 10.8389 10.7694 10.8389C9.65868 10.8389 9.12305 11.6518 9.12305 12.5977C9.12305 13.6568 9.85015 14.2671 10.7508 14.2671C11.5372 14.2671 12.1813 13.8684 12.3049 12.938L11.6787 12.9379Z" fill="#F4F5F7"/>
</g>
<g filter="url(#filter4_d_101_946)">
<path fill-rule="evenodd" clip-rule="evenodd" d="M8.58183 12.5621C8.58183 13.7085 7.91105 14.2671 6.78795 14.2671C5.65838 14.2671 5 13.715 5 12.5621V9.70023C5.7903 9.70023 5.9164 9.91132 5.92441 10.5168L5.9234 12.562C5.9234 13.0253 6.04095 13.4826 6.78798 13.4826C7.44668 13.4826 7.65851 13.1916 7.65851 12.562V9.7002C8.4486 9.7002 8.57459 9.91129 8.58288 10.5168L8.58183 12.5621Z" fill="#F4F5F7"/>
</g>
<defs>
<filter id="filter0_d_101_946" x="12.6465" y="10.8389" width="4.0207" height="4.22773" filterUnits="userSpaceOnUse" color-interpolation-filters="sRGB">
<feFlood flood-opacity="0" result="BackgroundImageFix"/>
<feColorMatrix in="SourceAlpha" type="matrix" values="0 0 0 0 0 0 0 0 0 0 0 0 0 0 0 0 0 0 127 0" result="hardAlpha"/>
<feOffset dx="0.4" dy="0.4"/>
<feGaussianBlur stdDeviation="0.2"/>
<feComposite in2="hardAlpha" operator="out"/>
<feColorMatrix type="matrix" values="0 0 0 0 0 0 0 0 0 0 0 0 0 0 0 0 0 0 0.25 0"/>
<feBlend mode="normal" in2="BackgroundImageFix" result="effect1_dropShadow_101_946"/>
<feBlend mode="normal" in="SourceGraphic" in2="effect1_dropShadow_101_946" result="shape"/>
</filter>
<filter id="filter1_d_101_946" x="16.4102" y="9.7002" width="1.68086" height="5.29902" filterUnits="userSpaceOnUse" color-interpolation-filters="sRGB">
<feFlood flood-opacity="0" result="BackgroundImageFix"/>
<feColorMatrix in="SourceAlpha" type="matrix" values="0 0 0 0 0 0 0 0 0 0 0 0 0 0 0 0 0 0 127 0" result="hardAlpha"/>
<feOffset dx="0.4" dy="0.4"/>
<feGaussianBlur stdDeviation="0.2"/>
<feComposite in2="hardAlpha" operator="out"/>
<feColorMatrix type="matrix" values="0 0 0 0 0 0 0 0 0 0 0 0 0 0 0 0 0 0 0.25 0"/>
<feBlend mode="normal" in2="BackgroundImageFix" result="effect1_dropShadow_101_946"/>
<feBlend mode="normal" in="SourceGraphic" in2="effect1_dropShadow_101_946" result="shape"/>
</filter>
<filter id="filter2_d_101_946" x="18.1191" y="9.7002" width="1.68086" height="5.29902" filterUnits="userSpaceOnUse" color-interpolation-filters="sRGB">
<feFlood flood-opacity="0" result="BackgroundImageFix"/>
<feColorMatrix in="SourceAlpha" type="matrix" values="0 0 0 0 0 0 0 0 0 0 0 0 0 0 0 0 0 0 127 0" result="hardAlpha"/>
<feOffset dx="0.4" dy="0.4"/>
<feGaussianBlur stdDeviation="0.2"/>
<feComposite in2="hardAlpha" operator="out"/>
<feColorMatrix type="matrix" values="0 0 0 0 0 0 0 0 0 0 0 0 0 0 0 0 0 0 0.25 0"/>
<feBlend mode="normal" in2="BackgroundImageFix" result="effect1_dropShadow_101_946"/>
<feBlend mode="normal" in="SourceGraphic" in2="effect1_dropShadow_101_946" result="shape"/>
</filter>
<filter id="filter3_d_101_946" x="9.12305" y="10.8389" width="3.98164" height="4.22773" filterUnits="userSpaceOnUse" color-interpolation-filters="sRGB">
<feFlood flood-opacity="0" result="BackgroundImageFix"/>
<feColorMatrix in="SourceAlpha" type="matrix" values="0 0 0 0 0 0 0 0 0 0 0 0 0 0 0 0 0 0 127 0" result="hardAlpha"/>
<feOffset dx="0.4" dy="0.4"/>
<feGaussianBlur stdDeviation="0.2"/>
<feComposite in2="hardAlpha" operator="out"/>
<feColorMatrix type="matrix" values="0 0 0 0 0 0 0 0 0 0 0 0 0 0 0 0 0 0 0.25 0"/>
<feBlend mode="normal" in2="BackgroundImageFix" result="effect1_dropShadow_101_946"/>
<feBlend mode="normal" in="SourceGraphic" in2="effect1_dropShadow_101_946" result="shape"/>
</filter>
<filter id="filter4_d_101_946" x="5" y="9.7002" width="4.38203" height="5.36641" filterUnits="userSpaceOnUse" color-interpolation-filters="sRGB">
<feFlood flood-opacity="0" result="BackgroundImageFix"/>
<feColorMatrix in="SourceAlpha" type="matrix" values="0 0 0 0 0 0 0 0 0 0 0 0 0 0 0 0 0 0 127 0" result="hardAlpha"/>
<feOffset dx="0.4" dy="0.4"/>
<feGaussianBlur stdDeviation="0.2"/>
<feComposite in2="hardAlpha" operator="out"/>
<feColorMatrix type="matrix" values="0 0 0 0 0 0 0 0 0 0 0 0 0 0 0 0 0 0 0.25 0"/>
<feBlend mode="normal" in2="BackgroundImageFix" result="effect1_dropShadow_101_946"/>
<feBlend mode="normal" in="SourceGraphic" in2="effect1_dropShadow_101_946" result="shape"/>
</filter>
</defs>
</svg>
