<svg width="24" height="24" viewBox="0 0 24 24" fill="none" xmlns="http://www.w3.org/2000/svg">
<rect width="24" height="24" rx="6" fill="#F4F5F7"/>
<g filter="url(#filter0_d_101_989)">
<path d="M18.823 10.6791C19.4047 10.2765 19.8504 9.75591 19.9683 9.0404C20.032 8.65605 19.9867 8.21772 19.9455 7.95017C19.9316 7.86044 19.8101 7.83619 19.7548 7.90818C19.4679 8.28156 18.7235 9.09795 17.2441 9.84905C16.63 10.1609 15.917 10.3748 15.4392 10.4974C15.3887 10.5104 15.3363 10.4797 15.3187 10.4306C15.2996 10.3773 15.3273 10.3191 15.3808 10.3006C15.6868 10.1945 16.0878 10.0506 16.4771 9.8959C16.917 9.7212 18.4383 8.88306 18.9247 7.99573C19.3948 7.13849 19.3285 6.38883 19.2286 5.96599C19.1335 5.56442 18.8964 5.27217 18.7462 5.11984C18.6913 5.06423 18.5939 5.09807 18.5681 5.17179C18.4477 5.51588 18.0198 6.3891 16.5207 7.90087C15.8243 8.60297 14.8462 9.27083 14.0099 9.77887C13.9578 9.81054 13.9457 9.88089 13.9821 9.92983C14.2856 10.3379 14.4653 10.8427 14.4653 11.3894C14.4653 12.3748 13.8822 13.2233 13.041 13.6141C13.0159 13.6257 12.9871 13.6259 12.9616 13.615C12.9153 13.5952 12.8681 13.5743 12.8226 13.5528C12.4012 13.3555 12.231 12.8818 12.2833 12.588C12.3784 12.0494 12.6826 11.8143 13.2791 11.881C13.3405 11.8878 13.3902 11.8412 13.3689 11.7832C13.3046 11.6087 13.0887 11.2478 12.3629 10.7936C12.069 10.6096 11.6852 10.3513 11.5065 10.144C11.4555 10.0848 11.3486 10.0707 11.3126 10.1401C11.2583 10.2451 11.2198 10.3783 11.2187 10.5333C11.2176 10.734 11.3187 10.999 11.4849 11.0782C11.556 11.1119 11.6089 11.1318 11.6601 11.1477C11.7461 11.1745 11.7596 11.2904 11.6842 11.3397C11.0561 11.7512 10.6409 12.4739 10.7371 13.2988C10.7472 13.3851 10.6551 13.4509 10.5839 13.4012C9.94747 12.9574 9.53179 12.222 9.53179 11.39C9.53179 10.8426 9.71204 10.3378 10.0161 9.92924C10.0525 9.88031 10.0405 9.80995 9.98834 9.77828C9.15212 9.27028 8.17517 8.60296 7.47933 7.90087C5.98017 6.3891 5.55232 5.51588 5.43189 5.17179C5.40609 5.09807 5.30869 5.06423 5.25385 5.11984C5.1036 5.27216 4.86652 5.56441 4.77142 5.96599C4.67147 6.38883 4.60522 7.13849 5.07533 7.99573C5.56171 8.88248 7.08362 9.72064 7.52293 9.8959C7.91194 10.0505 8.3132 10.1943 8.61873 10.3004C8.67239 10.319 8.70014 10.3775 8.68102 10.431C8.66346 10.4801 8.61127 10.5104 8.56077 10.4974C8.08303 10.3748 7.36997 10.1609 6.75587 9.84905C5.27646 9.09795 4.53207 8.28156 4.24521 7.90818C4.18989 7.83619 4.06838 7.86044 4.05454 7.95017C4.01328 8.21772 3.968 8.65605 4.03168 9.0404C4.14964 9.75591 4.59592 10.2765 5.17702 10.6791C5.84587 11.1424 7.28176 11.589 7.97559 11.6827C8.10971 11.701 8.22577 11.715 8.32622 11.7257C8.37903 11.7314 8.41849 11.7763 8.41683 11.8294C8.41503 11.8869 8.3657 11.9324 8.30847 11.9266C7.88499 11.8838 7.37636 11.7994 6.90231 11.6746C5.39435 11.2786 4.56303 10.6481 4.22126 10.333C4.15306 10.2701 4.03284 10.3173 4.03689 10.4099C4.0482 10.669 4.08676 11.0695 4.21065 11.405C4.45007 12.0529 4.93006 12.4156 5.54602 12.688C6.25497 13.0015 7.71352 13.1126 8.37831 13.0762C8.40277 13.0747 8.42877 13.0735 8.45418 13.0723C8.49768 13.0704 8.53596 13.1007 8.54306 13.1437C8.55252 13.201 8.50908 13.2564 8.45109 13.2591C8.24735 13.2686 8.02101 13.2872 7.82334 13.2838C7.33465 13.2751 6.31249 13.1751 5.80112 13.0698C5.31952 12.9706 4.91552 12.7555 4.66833 12.5985C4.58551 12.5459 4.46969 12.6268 4.49972 12.7202C4.58886 12.9974 4.72999 13.3955 4.86962 13.621C5.08521 13.9693 5.3531 14.211 5.70698 14.373C6.03415 14.5228 6.53389 14.5656 7.21203 14.5124C7.60616 14.4818 8.51556 14.3461 8.93244 14.282C8.9728 14.2758 9.01247 14.2948 9.03383 14.3296C9.03568 14.3327 9.03754 14.3357 9.0394 14.3387C9.07512 14.3965 9.04699 14.4736 8.98131 14.4911C8.68075 14.5714 8.12665 14.7041 7.47295 14.7889C6.81832 14.8739 6.25863 14.8467 5.95085 14.8179C5.86023 14.8094 5.79928 14.9161 5.85742 14.9861C5.98995 15.1457 6.18155 15.3653 6.34096 15.5039C6.67859 15.7977 6.94473 15.9041 7.60195 15.8798C8.34048 15.8523 9.22761 15.4036 9.64742 15.2033C9.68471 15.1855 9.72864 15.193 9.75873 15.2214C9.76387 15.2262 9.76907 15.2311 9.77432 15.236C9.82232 15.2809 9.81548 15.3589 9.75884 15.3923C9.48893 15.5515 9.01591 15.8021 8.72232 15.9215C8.22818 16.1221 7.6537 16.2291 7.36916 16.2735C7.29155 16.2856 7.25733 16.3753 7.31408 16.4296C7.51062 16.6176 7.92973 16.9426 8.48522 16.95C9.29586 16.9609 9.75087 16.6017 9.98795 16.4403C10.1151 16.3541 10.3143 16.1571 10.4718 15.9922C10.5091 15.9532 10.5704 15.9502 10.6108 15.9858C10.6176 15.9918 10.6244 15.9978 10.6312 16.0038C10.6688 16.0369 10.6764 16.0926 10.6477 16.1336C10.4857 16.3651 10.2088 16.6988 9.83337 16.9251C9.49014 17.1323 9.23215 17.2404 9.05377 17.2968C8.9607 17.3262 8.92429 17.4823 9.00859 17.5315C9.27829 17.6888 9.71142 17.8845 10.0954 17.8026C10.6177 17.6912 11.0619 17.1085 11.2928 16.7467C11.3266 16.6938 11.3998 16.6827 11.4464 16.7247C11.4529 16.7305 11.4594 16.7363 11.4658 16.7421C11.4974 16.7706 11.5076 16.816 11.4901 16.8548C11.4505 16.9426 11.4004 17.0426 11.3384 17.1466C10.9712 17.7649 10.6005 18.084 10.4302 18.2094C10.3808 18.2458 10.3708 18.3157 10.4176 18.3554C10.5463 18.4649 10.8428 18.6745 11.4395 18.9149C11.6485 18.999 11.835 19.0556 11.9887 19.0949C11.9897 19.0952 11.9904 19.0961 11.9904 19.0972C11.9904 19.0986 11.9917 19.0997 11.9932 19.0993C11.9947 19.0989 11.9963 19.0984 11.9979 19.098C11.9987 19.0978 11.9996 19.0978 12.0004 19.098C12.0019 19.0984 12.0035 19.0989 12.0051 19.0993C12.0065 19.0997 12.0078 19.0986 12.0078 19.0972C12.0078 19.0961 12.0085 19.0952 12.0096 19.0949C12.1632 19.0556 12.3497 18.999 12.5587 18.9149C13.1555 18.6745 13.452 18.4649 13.5807 18.3554C13.6274 18.3157 13.6175 18.2458 13.5681 18.2094C13.3977 18.084 13.0271 17.7649 12.6598 17.1466C12.5979 17.0427 12.5482 16.9428 12.5085 16.8551C12.4908 16.8161 12.501 16.7705 12.5327 16.7418C12.5391 16.736 12.5457 16.7301 12.5522 16.7241C12.5987 16.6822 12.6715 16.6934 12.7051 16.7461C12.936 17.1079 13.3808 17.6912 13.9028 17.8026C14.2868 17.8845 14.7199 17.6889 14.9896 17.5315C15.0739 17.4823 15.0375 17.3261 14.9445 17.2967C14.7661 17.2403 14.5082 17.1322 14.1649 16.9251C13.7895 16.6984 13.5122 16.3646 13.3505 16.1336C13.3218 16.0926 13.3294 16.0369 13.367 16.0038C13.3738 15.9978 13.3806 15.9918 13.3874 15.9858C13.4279 15.9502 13.4892 15.9532 13.5264 15.9922C13.684 16.1571 13.8831 16.3541 14.0103 16.4403C14.2474 16.6012 14.703 16.9609 15.513 16.95C16.0681 16.9426 16.4874 16.6177 16.684 16.4296C16.7408 16.3753 16.7066 16.2856 16.629 16.2735C16.3444 16.2291 15.77 16.1221 15.2759 15.9215C14.9824 15.8021 14.5093 15.5515 14.2394 15.3923C14.1828 15.3589 14.1759 15.2809 14.2239 15.236C14.2292 15.2311 14.2344 15.2262 14.2395 15.2213C14.2696 15.193 14.3135 15.1855 14.3508 15.2033C14.7706 15.4036 15.6578 15.8523 16.3963 15.8798C17.0529 15.9041 17.3191 15.7977 17.6567 15.5039C17.8158 15.3654 18.0074 15.1459 18.14 14.9862C18.1982 14.9162 18.1372 14.8094 18.0466 14.8179C17.7387 14.8467 17.1792 14.8738 16.5247 14.7889C15.8708 14.7041 15.3166 14.5709 15.0161 14.4908C14.9505 14.4734 14.922 14.3965 14.9577 14.3388C14.9598 14.3354 14.9619 14.332 14.964 14.3287C14.9852 14.2943 15.0244 14.2757 15.0643 14.2818C15.4808 14.3453 16.3912 14.4812 16.7856 14.5124C17.4638 14.5656 17.9635 14.5228 18.2907 14.373C18.6446 14.211 18.9125 13.9693 19.1281 13.621C19.2676 13.3956 19.4087 12.9977 19.4979 12.7204C19.5279 12.627 19.412 12.5461 19.3292 12.5987C19.0821 12.7557 18.6783 12.9706 18.1965 13.0698C17.6846 13.1751 16.663 13.2751 16.1743 13.2838C15.9766 13.2872 15.7502 13.2686 15.5464 13.2591C15.4887 13.2564 15.4455 13.2009 15.4548 13.1438C15.4617 13.1009 15.5002 13.0708 15.5436 13.0728C15.5689 13.0739 15.5947 13.075 15.6194 13.0762C16.2842 13.1126 17.7427 13.0015 18.4516 12.688C19.0676 12.4156 19.5476 12.0523 19.787 11.405C19.9109 11.0695 19.9495 10.6689 19.9608 10.4099C19.9648 10.3172 19.8446 10.2701 19.7764 10.333C19.4346 10.6481 18.6033 11.2786 17.0954 11.6746C16.6213 11.7988 16.1127 11.8833 15.6892 11.9265C15.632 11.9323 15.5826 11.8866 15.5809 11.8291C15.5792 11.7761 15.6186 11.7314 15.6714 11.7257C15.7719 11.715 15.8879 11.701 16.0221 11.6827C16.7176 11.589 18.1535 11.1424 18.823 10.6791Z" fill="#3F79AD"/>
</g>
<defs>
<filter id="filter0_d_101_989" x="3.8" y="4.8918" width="16.8" height="14.8078" filterUnits="userSpaceOnUse" color-interpolation-filters="sRGB">
<feFlood flood-opacity="0" result="BackgroundImageFix"/>
<feColorMatrix in="SourceAlpha" type="matrix" values="0 0 0 0 0 0 0 0 0 0 0 0 0 0 0 0 0 0 127 0" result="hardAlpha"/>
<feOffset dx="0.2" dy="0.2"/>
<feGaussianBlur stdDeviation="0.2"/>
<feComposite in2="hardAlpha" operator="out"/>
<feColorMatrix type="matrix" values="0 0 0 0 0 0 0 0 0 0 0 0 0 0 0 0 0 0 0.25 0"/>
<feBlend mode="normal" in2="BackgroundImageFix" result="effect1_dropShadow_101_989"/>
<feBlend mode="normal" in="SourceGraphic" in2="effect1_dropShadow_101_989" result="shape"/>
</filter>
</defs>
</svg>
