<svg width="24" height="24" viewBox="0 0 24 24" fill="none" xmlns="http://www.w3.org/2000/svg">
<rect width="24" height="24" rx="6" fill="#32363B"/>
<g filter="url(#filter0_d_104_1217)">
<path fill-rule="evenodd" clip-rule="evenodd" d="M18.8972 4C18.8972 4 17.3553 4.9898 16.5554 6.01806ZM16.5554 6.01806C16.5554 6.01806 15.105 5.79834 14.0063 6.89691C13.3707 7.53235 13.3822 7.38907 12.4065 8.00427C11.8579 8.35018 9.85631 10.034 8.81148 11.2709C7.55252 12.7613 6.58759 14.0785 5.65499 16.1996C5.65499 16.1996 6.55685 13.2588 8.96521 10.6459C10.4259 9.06118 10.5639 8.57606 13.7307 6.68043C13.7307 6.68043 11.2916 5.96317 8.35031 9.34457C5.40903 12.726 4.55842 17.4497 4.85562 18.8022C4.85562 18.8022 6.64908 14.8368 9.46738 12.5108C12.2857 10.1848 13.372 8.99618 13.8947 7.79732C14.4173 6.59846 15.0015 6.48575 16.1698 6.41402C16.1698 6.41402 12.3012 9.93028 11.3779 17.6234C11.3779 17.6234 11.2699 18.3653 11.2107 19.8452C11.2107 19.8452 11.3661 20.1782 11.6252 19.8674C11.6252 19.8674 11.6252 17.4996 12.2394 17.026C12.2394 17.026 12.3578 16.7004 13.1423 16.3823C13.4848 16.2433 16.0993 15.6343 16.7494 14.4321C17.6871 12.6981 17.1966 9.49741 16.2543 8.53923C16.2543 8.53923 16.8823 11.37 15.1142 13.0619C13.3461 14.7538 13.2854 14.4959 12.997 15.7933C12.997 15.7933 16.2368 14.6981 16.7289 11.5269C16.7289 11.5269 16.7591 14.3045 13.5874 15.8863C13.5874 15.8863 12.9062 16.0604 11.9297 16.8399C11.9297 16.8399 12.9965 10.5867 15.4275 7.95664C15.4275 7.95664 16.9121 5.89323 19.041 4.32958C19.041 4.32958 19.2434 4.03141 18.8972 4" fill="#438F86"/>
</g>
<defs>
<filter id="filter0_d_104_1217" x="4.7998" y="4" width="15.0998" height="16.8" filterUnits="userSpaceOnUse" color-interpolation-filters="sRGB">
<feFlood flood-opacity="0" result="BackgroundImageFix"/>
<feColorMatrix in="SourceAlpha" type="matrix" values="0 0 0 0 0 0 0 0 0 0 0 0 0 0 0 0 0 0 127 0" result="hardAlpha"/>
<feOffset dx="0.4" dy="0.4"/>
<feGaussianBlur stdDeviation="0.2"/>
<feComposite in2="hardAlpha" operator="out"/>
<feColorMatrix type="matrix" values="0 0 0 0 0 0 0 0 0 0 0 0 0 0 0 0 0 0 0.25 0"/>
<feBlend mode="normal" in2="BackgroundImageFix" result="effect1_dropShadow_104_1217"/>
<feBlend mode="normal" in="SourceGraphic" in2="effect1_dropShadow_104_1217" result="shape"/>
</filter>
</defs>
</svg>
