<svg width="24" height="24" viewBox="0 0 24 24" fill="none" xmlns="http://www.w3.org/2000/svg">
<g clip-path="url(#clip0_112_195)">
<rect width="24" height="24" rx="6" fill="#32363B"/>
<g filter="url(#filter0_d_112_195)">
<path d="M6.90039 19.7001V4.24045C6.90039 4.12999 6.98993 4.04045 7.10039 4.04045H9.41384C9.5243 4.04045 9.61384 4.12999 9.61384 4.24045V9.1289C9.61384 9.323 9.8625 9.40332 9.97605 9.2459L13.6709 4.12345C13.7085 4.07133 13.7689 4.04045 13.8331 4.04045H16.6318C16.8078 4.04045 16.898 4.25127 16.7765 4.37854L12.1895 9.18397C12.0294 9.35171 12.2352 9.61186 12.4353 9.49462L23.8993 2.77656C24.0326 2.69843 24.2004 2.79458 24.2004 2.94911V5.51312C24.2004 5.5911 24.1551 5.66197 24.0843 5.69468L13.3246 10.6656C13.1244 10.7581 13.1994 11.0591 13.4196 11.0469L23.9893 10.4615C24.104 10.4551 24.2004 10.5464 24.2004 10.6612V13.1858C24.2004 13.3006 24.104 13.3918 23.9893 13.3855L13.6417 12.8124C13.4141 12.7998 13.3461 13.1168 13.5588 13.1987L24.0723 17.2502C24.1495 17.2799 24.2004 17.3541 24.2004 17.4368V19.8786C24.2004 20.0267 24.0449 20.1235 23.912 20.058L12.3676 14.369C12.1667 14.27 11.9798 14.5255 12.135 14.687L16.8205 19.5615C16.9427 19.6886 16.8526 19.9001 16.6763 19.9001H13.9263C13.8623 19.9001 13.8021 19.8694 13.7645 19.8176L9.9757 14.5975C9.86187 14.4407 9.61384 14.5212 9.61384 14.715V19.7001C9.61384 19.8106 9.5243 19.9001 9.41384 19.9001H7.10039C6.98993 19.9001 6.90039 19.8106 6.90039 19.7001Z" fill="#D2945A"/>
</g>
</g>
<defs>
<filter id="filter0_d_112_195" x="6.90039" y="2.74902" width="18.1008" height="18.1296" filterUnits="userSpaceOnUse" color-interpolation-filters="sRGB">
<feFlood flood-opacity="0" result="BackgroundImageFix"/>
<feColorMatrix in="SourceAlpha" type="matrix" values="0 0 0 0 0 0 0 0 0 0 0 0 0 0 0 0 0 0 127 0" result="hardAlpha"/>
<feOffset dx="0.4" dy="0.4"/>
<feGaussianBlur stdDeviation="0.2"/>
<feComposite in2="hardAlpha" operator="out"/>
<feColorMatrix type="matrix" values="0 0 0 0 0 0 0 0 0 0 0 0 0 0 0 0 0 0 0.25 0"/>
<feBlend mode="normal" in2="BackgroundImageFix" result="effect1_dropShadow_112_195"/>
<feBlend mode="normal" in="SourceGraphic" in2="effect1_dropShadow_112_195" result="shape"/>
</filter>
<clipPath id="clip0_112_195">
<rect width="24" height="24" rx="6" fill="white"/>
</clipPath>
</defs>
</svg>
