<svg width="192" height="192" viewBox="0 0 192 192" fill="none" xmlns="http://www.w3.org/2000/svg">
<rect x="12" y="12" width="168" height="168" rx="42" fill="#32363B"/>
<g filter="url(#filter0_d_370_2827)">
<path d="M120.124 97.3962L95.9989 122.69L81.5742 107.567L70.9844 118.233C70.9942 118.243 71.0018 118.251 71.0117 118.261C75.735 123.075 80.3341 127.716 84.2857 131.673C85.1331 132.52 86.1016 133.496 86.8583 134.247C88.2372 135.619 89.5083 136.877 90.5064 137.848C90.798 138.131 91.1534 138.481 91.4053 138.722C91.6875 138.994 91.9206 139.215 92.1504 139.432C92.8021 140.045 93.3426 140.542 93.4993 140.641C94.1305 141.04 95.0655 141.236 95.9989 141.248C96.9324 141.236 97.8674 141.04 98.4986 140.641C99.225 140.182 105.764 133.694 113.511 125.867C119.398 119.919 125.56 113.609 130.822 108.171L120.124 97.3962Z" fill="#4F9B7A"/>
<path d="M85.953 83.2174L71.8758 97.3952L61.1777 108.17C64.266 111.361 67.3939 114.573 70.9849 118.233L81.5758 107.566L95.8525 93.1875L85.953 83.2174Z" fill="#D1C06A"/>
<path d="M71.2563 59.0006C70.507 59.0059 69.7624 59.0454 69.0255 59.1188C67.5521 59.2657 66.1065 59.5467 64.7053 59.9518C63.3037 60.3571 61.9465 60.8872 60.6471 61.5319C59.3477 62.1766 58.1069 62.9364 56.9398 63.8015C56.0593 64.4542 55.2361 65.1855 54.4458 65.9541C54.1888 66.2041 53.9211 66.4417 53.6745 66.7034C52.6697 67.7699 51.7527 68.9323 50.9402 70.1813C50.1277 71.4303 49.4192 72.7654 48.8291 74.1778V74.179C48.7498 74.3687 48.6898 74.5706 48.6149 74.7631C47.853 76.7198 47.298 78.8074 47.0244 81.0223C46.9802 82.4136 46.9964 83.702 47.07 84.9041C47.2172 87.3084 47.595 89.3666 48.1831 91.2105C48.7712 93.0543 49.5698 94.6834 50.5585 96.2282C52.0417 98.5455 53.9526 100.674 56.2243 103.053C57.5593 104.451 59.5139 106.451 61.1768 108.17L71.8749 97.3952L67.5353 92.8456C67.5353 92.8456 65.0662 90.5259 64.0627 89.4411C62.4904 87.728 61.5903 85.4657 61.5836 83.0866C61.5936 78.7497 64.5483 74.9828 68.735 73.969C68.9407 73.9155 69.1499 73.8694 69.3639 73.8313C69.4911 73.8084 69.6187 73.7881 69.7467 73.7705C70.1264 73.7206 70.5138 73.6867 70.9168 73.6867C71.0254 73.6875 71.134 73.6902 71.2426 73.6948C71.2819 73.6931 71.3193 73.688 71.3588 73.6867C76.9066 73.7767 81.3468 79.0173 85.9522 83.2174L95.9997 73.0992C95.8854 73.1302 93.5115 70.7933 90.7486 68.1939C88.0614 65.6656 86.203 64.0393 84.5622 62.887H84.561C83.7405 62.3108 82.975 61.8529 82.1867 61.4596C81.3985 61.0663 80.5881 60.738 79.6791 60.42C78.2709 59.9273 76.8572 59.5675 75.4489 59.3334C74.7449 59.2163 74.0428 59.1304 73.3435 59.0752C72.6441 59.02 71.9479 58.9957 71.2563 59.0006Z" fill="#B04F58"/>
<path d="M120.744 59.0006C118.669 58.9859 116.552 59.2374 114.436 59.7797C113.73 59.9605 113.025 60.1737 112.321 60.42C111.412 60.738 110.602 61.0662 109.814 61.4596C109.025 61.8529 108.26 62.3108 107.439 62.887H107.438C105.797 64.0393 103.939 65.6656 101.252 68.1939C99.1795 70.1434 97.3257 71.9454 96.4803 72.7114C96.1986 72.9667 96.0292 73.107 96.0007 73.0992C95.9103 73.1237 94.2562 71.5298 92.266 69.6351L95.8525 73.2472L85.9531 83.2174L95.8525 93.1875L103.895 85.0888C103.895 85.0888 114.235 73.7906 120.642 73.6867C120.681 73.6879 120.718 73.6931 120.758 73.6947C120.866 73.6902 120.975 73.6875 121.084 73.6867C121.487 73.6867 121.874 73.7206 122.254 73.7705C122.382 73.7881 122.509 73.8084 122.636 73.8313C122.85 73.8694 123.06 73.9154 123.265 73.969C127.452 74.9828 130.407 78.7497 130.417 83.0866C130.41 85.4657 129.51 87.728 127.938 89.4411C126.934 90.5259 124.465 92.8456 124.465 92.8456L120.125 97.3963L130.823 108.171C132.487 106.452 134.441 104.451 135.776 103.053C138.048 100.674 139.959 98.5454 141.442 96.2282C142.431 94.6834 143.229 93.0543 143.817 91.2104C144.405 89.3666 144.783 87.3084 144.93 84.9041C145.004 83.702 145.02 82.4135 144.976 81.0223C144.702 78.8074 144.147 76.7197 143.385 74.763C143.31 74.5702 143.251 74.3679 143.171 74.1778C142.581 72.7653 141.873 71.4303 141.06 70.1813C140.248 68.9323 139.331 67.7699 138.326 66.7034C138.079 66.4417 137.812 66.2041 137.554 65.9541C136.764 65.1855 135.941 64.4541 135.061 63.8015C133.893 62.9364 132.653 62.1765 131.353 61.5319C130.054 60.8872 128.697 60.3571 127.295 59.9518C125.894 59.5467 124.448 59.2657 122.975 59.1188H122.974C122.237 59.0453 121.493 59.0059 120.744 59.0006Z" fill="#3F79AD"/>
</g>
<defs>
<filter id="filter0_d_370_2827" x="47" y="59" width="105" height="89.248" filterUnits="userSpaceOnUse" color-interpolation-filters="sRGB">
<feFlood flood-opacity="0" result="BackgroundImageFix"/>
<feColorMatrix in="SourceAlpha" type="matrix" values="0 0 0 0 0 0 0 0 0 0 0 0 0 0 0 0 0 0 127 0" result="hardAlpha"/>
<feOffset dx="4" dy="4"/>
<feGaussianBlur stdDeviation="1.5"/>
<feComposite in2="hardAlpha" operator="out"/>
<feColorMatrix type="matrix" values="0 0 0 0 0 0 0 0 0 0 0 0 0 0 0 0 0 0 0.25 0"/>
<feBlend mode="normal" in2="BackgroundImageFix" result="effect1_dropShadow_370_2827"/>
<feBlend mode="normal" in="SourceGraphic" in2="effect1_dropShadow_370_2827" result="shape"/>
</filter>
</defs>
</svg>
