<svg width="192" height="192" viewBox="0 0 192 192" fill="none" xmlns="http://www.w3.org/2000/svg">
<rect x="12" y="12" width="168" height="168" rx="42" fill="#32363B"/>
<g filter="url(#filter0_d_370_2899)">
<path d="M111.941 147.751C116.552 149.011 121.203 145.314 121.833 140.561C122.357 136.033 123.692 131.637 125.774 127.582C123.846 115.314 115.503 107.494 108.618 104.914C101.305 102.193 91.903 104.172 84.0519 108.163C82.6911 116.631 81.0546 127.422 77.877 141.109C78.6894 141.475 79.5223 141.719 80.416 141.78C80.416 141.78 85.3722 142.186 91.3035 142.612C97.1941 143.019 106.01 146.086 111.941 147.731V147.751Z" fill="#6B58A7"/>
</g>
<g filter="url(#filter1_d_370_2899)">
<path d="M77.877 141.109C84.7715 127.121 85.8496 116.381 84.0441 108.175C83.6474 106.372 84.6881 104.252 84.0441 102.686C82.5355 91.6193 74.6798 87.243 68.2489 86.876C68.127 87.3432 67.9848 87.7697 67.802 88.1963L56.488 113.424C55.9169 114.687 55.7394 116.094 55.9785 117.459C56.2176 118.825 56.8623 120.087 57.8286 121.082L75.927 139.708C76.4885 140.293 77.1486 140.774 77.877 141.13V141.109Z" fill="#8A78C8"/>
</g>
<g filter="url(#filter2_d_370_2899)">
<path d="M100.726 106.477C103.001 106.721 105.236 107.208 107.389 108.021C114.295 110.6 120.592 116.389 125.772 127.581C126.137 126.951 126.503 126.322 126.909 125.712C130.072 121.016 133.106 116.234 136.009 111.372C136.364 110.771 136.529 110.077 136.482 109.381C136.435 108.685 136.178 108.019 135.745 107.472C133.511 104.507 129.245 98.4941 126.909 92.9489C124.512 87.2209 124.167 78.3242 124.147 74.018C124.147 72.3727 123.618 70.7681 122.603 69.4681L104.626 46.6373C104.529 46.5188 104.427 46.4037 104.322 46.292C104.159 49.9426 103.418 53.6409 102.5 57.2605C101.63 60.1831 100.43 62.9975 98.9251 65.6494L97.4626 68.5338C95.1177 72.9979 93.7731 77.9191 93.522 82.9554C93.2782 88.9271 96.7248 96.4426 100.726 106.477Z" fill="#3F79AD"/>
</g>
<g filter="url(#filter3_d_370_2899)">
<path d="M100.728 106.477C96.7268 96.4429 95.4878 88.9274 95.7518 82.9353C96.0029 77.8991 97.3476 72.9779 99.6924 68.5137C100.16 67.5388 100.667 66.5841 101.155 65.6497C102.597 62.8264 103.999 60.1655 104.73 57.2405C105.648 53.6209 105.507 49.8138 104.324 46.272C103.091 44.9139 101.371 44.1 99.5393 44.0086C97.7078 43.9172 95.9148 44.5559 94.5534 45.7845L73.1441 65.0404C71.95 66.1163 71.1673 67.574 70.9301 69.1637L68.3301 86.429L68.2285 86.8962C73.0629 90.0446 79.1972 95.1023 82.4675 103.146C83.1434 104.775 83.3532 106.535 83.7315 108.257C89.419 106.876 95.3659 105.949 100.728 106.497V106.477Z" fill="#5F97C9"/>
</g>
<defs>
<filter id="filter0_d_370_2899" x="77.877" y="103.657" width="54.8965" height="51.3425" filterUnits="userSpaceOnUse" color-interpolation-filters="sRGB">
<feFlood flood-opacity="0" result="BackgroundImageFix"/>
<feColorMatrix in="SourceAlpha" type="matrix" values="0 0 0 0 0 0 0 0 0 0 0 0 0 0 0 0 0 0 127 0" result="hardAlpha"/>
<feOffset dx="4" dy="4"/>
<feGaussianBlur stdDeviation="1.5"/>
<feComposite in2="hardAlpha" operator="out"/>
<feColorMatrix type="matrix" values="0 0 0 0 0 0 0 0 0 0 0 0 0 0 0 0 0 0 0.25 0"/>
<feBlend mode="normal" in2="BackgroundImageFix" result="effect1_dropShadow_370_2899"/>
<feBlend mode="normal" in="SourceGraphic" in2="effect1_dropShadow_370_2899" result="shape"/>
</filter>
<filter id="filter1_d_370_2899" x="55.875" y="86.876" width="35.9434" height="61.2537" filterUnits="userSpaceOnUse" color-interpolation-filters="sRGB">
<feFlood flood-opacity="0" result="BackgroundImageFix"/>
<feColorMatrix in="SourceAlpha" type="matrix" values="0 0 0 0 0 0 0 0 0 0 0 0 0 0 0 0 0 0 127 0" result="hardAlpha"/>
<feOffset dx="4" dy="4"/>
<feGaussianBlur stdDeviation="1.5"/>
<feComposite in2="hardAlpha" operator="out"/>
<feColorMatrix type="matrix" values="0 0 0 0 0 0 0 0 0 0 0 0 0 0 0 0 0 0 0.25 0"/>
<feBlend mode="normal" in2="BackgroundImageFix" result="effect1_dropShadow_370_2899"/>
<feBlend mode="normal" in="SourceGraphic" in2="effect1_dropShadow_370_2899" result="shape"/>
</filter>
<filter id="filter2_d_370_2899" x="93.5098" y="46.292" width="49.9805" height="88.2891" filterUnits="userSpaceOnUse" color-interpolation-filters="sRGB">
<feFlood flood-opacity="0" result="BackgroundImageFix"/>
<feColorMatrix in="SourceAlpha" type="matrix" values="0 0 0 0 0 0 0 0 0 0 0 0 0 0 0 0 0 0 127 0" result="hardAlpha"/>
<feOffset dx="4" dy="4"/>
<feGaussianBlur stdDeviation="1.5"/>
<feComposite in2="hardAlpha" operator="out"/>
<feColorMatrix type="matrix" values="0 0 0 0 0 0 0 0 0 0 0 0 0 0 0 0 0 0 0.25 0"/>
<feBlend mode="normal" in2="BackgroundImageFix" result="effect1_dropShadow_370_2899"/>
<feBlend mode="normal" in="SourceGraphic" in2="effect1_dropShadow_370_2899" result="shape"/>
</filter>
<filter id="filter3_d_370_2899" x="68.2285" y="44" width="44.0996" height="71.2571" filterUnits="userSpaceOnUse" color-interpolation-filters="sRGB">
<feFlood flood-opacity="0" result="BackgroundImageFix"/>
<feColorMatrix in="SourceAlpha" type="matrix" values="0 0 0 0 0 0 0 0 0 0 0 0 0 0 0 0 0 0 127 0" result="hardAlpha"/>
<feOffset dx="4" dy="4"/>
<feGaussianBlur stdDeviation="1.5"/>
<feComposite in2="hardAlpha" operator="out"/>
<feColorMatrix type="matrix" values="0 0 0 0 0 0 0 0 0 0 0 0 0 0 0 0 0 0 0.25 0"/>
<feBlend mode="normal" in2="BackgroundImageFix" result="effect1_dropShadow_370_2899"/>
<feBlend mode="normal" in="SourceGraphic" in2="effect1_dropShadow_370_2899" result="shape"/>
</filter>
</defs>
</svg>
