<svg width="24" height="24" viewBox="0 0 24 24" fill="none" xmlns="http://www.w3.org/2000/svg">
<rect width="24" height="24" rx="6" fill="#32363B"/>
<g filter="url(#filter0_d_101_682)">
<path d="M13.5094 6.80078C13.6295 6.80078 13.7447 6.84866 13.8296 6.93388C13.9146 7.01909 13.9623 7.13468 13.9623 7.25519V16.6464C13.9623 16.7669 13.9146 16.8825 13.8296 16.9677C13.7447 17.0529 13.6295 17.1008 13.5094 17.1008C13.3893 17.1008 13.2742 17.0529 13.1892 16.9677C13.1043 16.8825 13.0566 16.7669 13.0566 16.6464V7.25519C13.0566 7.13468 13.1043 7.01909 13.1892 6.93388C13.2742 6.84866 13.3893 6.80078 13.5094 6.80078ZM15.0189 9.22431C15.139 9.22431 15.2541 9.27219 15.3391 9.3574C15.424 9.44262 15.4717 9.55821 15.4717 9.67872V14.2228C15.4717 14.3434 15.424 14.4589 15.3391 14.5442C15.2541 14.6294 15.139 14.6773 15.0189 14.6773C14.8988 14.6773 14.7836 14.6294 14.6987 14.5442C14.6137 14.4589 14.566 14.3434 14.566 14.2228V9.67872C14.566 9.55821 14.6137 9.44262 14.6987 9.3574C14.7836 9.27219 14.8988 9.22431 15.0189 9.22431ZM12 9.22431C12.1201 9.22431 12.2353 9.27219 12.3202 9.3574C12.4051 9.44262 12.4528 9.55821 12.4528 9.67872V14.2228C12.4528 14.3434 12.4051 14.4589 12.3202 14.5442C12.2353 14.6294 12.1201 14.6773 12 14.6773C11.8799 14.6773 11.7647 14.6294 11.6798 14.5442C11.5949 14.4589 11.5472 14.3434 11.5472 14.2228V9.67872C11.5472 9.55821 11.5949 9.44262 11.6798 9.3574C11.7647 9.27219 11.8799 9.22431 12 9.22431ZM8.98113 9.22431C9.10123 9.22431 9.21641 9.27219 9.30133 9.3574C9.38625 9.44262 9.43396 9.55821 9.43396 9.67872V14.2228C9.43396 14.3434 9.38625 14.4589 9.30133 14.5442C9.21641 14.6294 9.10123 14.6773 8.98113 14.6773C8.86103 14.6773 8.74585 14.6294 8.66093 14.5442C8.57601 14.4589 8.5283 14.3434 8.5283 14.2228V9.67872C8.5283 9.55821 8.57601 9.44262 8.66093 9.3574C8.74585 9.27219 8.86103 9.22431 8.98113 9.22431ZM16.5283 10.739C16.6484 10.739 16.7636 10.7869 16.8485 10.8721C16.9334 10.9573 16.9811 11.0729 16.9811 11.1934V12.7081C16.9811 12.8287 16.9334 12.9442 16.8485 13.0295C16.7636 13.1147 16.6484 13.1625 16.5283 13.1625C16.4082 13.1625 16.293 13.1147 16.2081 13.0295C16.1232 12.9442 16.0755 12.8287 16.0755 12.7081V11.1934C16.0755 11.0729 16.1232 10.9573 16.2081 10.8721C16.293 10.7869 16.4082 10.739 16.5283 10.739ZM10.4906 10.1668C10.6107 10.1668 10.7258 10.2147 10.8108 10.2999C10.8957 10.3851 10.9434 10.5007 10.9434 10.6212V13.1659C10.9434 13.2864 10.8957 13.402 10.8108 13.4872C10.7258 13.5724 10.6107 13.6203 10.4906 13.6203C10.3705 13.6203 10.2553 13.5724 10.1704 13.4872C10.0854 13.402 10.0377 13.2864 10.0377 13.1659V10.6212C10.0377 10.5007 10.0854 10.3851 10.1704 10.2999C10.2553 10.2147 10.3705 10.1668 10.4906 10.1668ZM7.4717 10.739C7.5918 10.739 7.70697 10.7869 7.7919 10.8721C7.87682 10.9573 7.92453 11.0729 7.92453 11.1934V12.7081C7.92453 12.8287 7.87682 12.9442 7.7919 13.0295C7.70697 13.1147 7.5918 13.1625 7.4717 13.1625C7.3516 13.1625 7.23642 13.1147 7.1515 13.0295C7.06658 12.9442 7.01887 12.8287 7.01887 12.7081V11.1934C7.01887 11.0729 7.06658 10.9573 7.1515 10.8721C7.23642 10.7869 7.3516 10.739 7.4717 10.739ZM19.5472 11.4964C19.6673 11.4964 19.7824 11.5442 19.8674 11.6295C19.9523 11.7147 20 11.8303 20 11.9508C20 12.0713 19.9523 12.1869 19.8674 12.2721C19.7824 12.3573 19.6673 12.4052 19.5472 12.4052C19.4271 12.4052 19.3119 12.3573 19.227 12.2721C19.142 12.1869 19.0943 12.0713 19.0943 11.9508C19.0943 11.8303 19.142 11.7147 19.227 11.6295C19.3119 11.5442 19.4271 11.4964 19.5472 11.4964ZM18.0377 11.4964C18.1578 11.4964 18.273 11.5442 18.3579 11.6295C18.4429 11.7147 18.4906 11.8303 18.4906 11.9508C18.4906 12.0713 18.4429 12.1869 18.3579 12.2721C18.273 12.3573 18.1578 12.4052 18.0377 12.4052C17.9176 12.4052 17.8025 12.3573 17.7175 12.2721C17.6326 12.1869 17.5849 12.0713 17.5849 11.9508C17.5849 11.8303 17.6326 11.7147 17.7175 11.6295C17.8025 11.5442 17.9176 11.4964 18.0377 11.4964ZM5.96226 11.4964C6.08236 11.4964 6.19754 11.5442 6.28246 11.6295C6.36738 11.7147 6.41509 11.8303 6.41509 11.9508C6.41509 12.0713 6.36738 12.1869 6.28246 12.2721C6.19754 12.3573 6.08236 12.4052 5.96226 12.4052C5.84217 12.4052 5.72699 12.3573 5.64206 12.2721C5.55714 12.1869 5.50943 12.0713 5.50943 11.9508C5.50943 11.8303 5.55714 11.7147 5.64206 11.6295C5.72699 11.5442 5.84217 11.4964 5.96226 11.4964ZM4.45283 11.4964C4.57293 11.4964 4.68811 11.5442 4.77303 11.6295C4.85795 11.7147 4.90566 11.8303 4.90566 11.9508C4.90566 12.0713 4.85795 12.1869 4.77303 12.2721C4.68811 12.3573 4.57293 12.4052 4.45283 12.4052C4.33273 12.4052 4.21755 12.3573 4.13263 12.2721C4.04771 12.1869 4 12.0713 4 11.9508C4 11.8303 4.04771 11.7147 4.13263 11.6295C4.21755 11.5442 4.33273 11.4964 4.45283 11.4964Z" fill="#F4F5F7"/>
</g>
<defs>
<filter id="filter0_d_101_682" x="4" y="6.80078" width="16.8" height="11.0998" filterUnits="userSpaceOnUse" color-interpolation-filters="sRGB">
<feFlood flood-opacity="0" result="BackgroundImageFix"/>
<feColorMatrix in="SourceAlpha" type="matrix" values="0 0 0 0 0 0 0 0 0 0 0 0 0 0 0 0 0 0 127 0" result="hardAlpha"/>
<feOffset dx="0.4" dy="0.4"/>
<feGaussianBlur stdDeviation="0.2"/>
<feComposite in2="hardAlpha" operator="out"/>
<feColorMatrix type="matrix" values="0 0 0 0 0 0 0 0 0 0 0 0 0 0 0 0 0 0 0.25 0"/>
<feBlend mode="normal" in2="BackgroundImageFix" result="effect1_dropShadow_101_682"/>
<feBlend mode="normal" in="SourceGraphic" in2="effect1_dropShadow_101_682" result="shape"/>
</filter>
</defs>
</svg>
