<svg width="24" height="24" viewBox="0 0 24 24" fill="none" xmlns="http://www.w3.org/2000/svg">
<rect width="24" height="24" rx="6" fill="#32363B"/>
<g filter="url(#filter0_d_101_636)">
<rect x="6.19922" y="7.60059" width="3.2" height="11.5" rx="1.2" transform="rotate(-90 6.19922 7.60059)" fill="#8A8F98"/>
</g>
<g filter="url(#filter1_d_101_636)">
<path d="M7.50078 11.6006C6.83804 11.6006 6.30078 11.0633 6.30078 10.4006L6.30078 9.60059C6.30078 8.93785 6.83804 8.40059 7.50078 8.40059L8.30078 8.40059C8.96352 8.40059 9.50078 8.93784 9.50078 9.60059L9.50078 10.4006C9.50078 11.0633 8.96352 11.6006 8.30078 11.6006L7.50078 11.6006Z" fill="#F4F5F7"/>
</g>
<g filter="url(#filter2_d_101_636)">
<path d="M7.50078 15.6006C6.83804 15.6006 6.30078 15.0633 6.30078 14.4006L6.30078 13.6006C6.30078 12.9378 6.83804 12.4006 7.50078 12.4006L8.30078 12.4006C8.96352 12.4006 9.50078 12.9378 9.50078 13.6006L9.50078 14.4006C9.50078 15.0633 8.96352 15.6006 8.30078 15.6006L7.50078 15.6006Z" fill="#F4F5F7"/>
</g>
<g filter="url(#filter3_d_101_636)">
<path d="M7.50078 19.6006C6.83804 19.6006 6.30078 19.0633 6.30078 18.4006L6.30078 17.6006C6.30078 16.9378 6.83804 16.4006 7.50078 16.4006L8.30078 16.4006C8.96352 16.4006 9.50078 16.9378 9.50078 17.6006L9.50078 18.4006C9.50078 19.0633 8.96352 19.6006 8.30078 19.6006L7.50078 19.6006Z" fill="#F4F5F7"/>
</g>
<g filter="url(#filter4_d_101_636)">
<path d="M11.5008 11.6006C10.838 11.6006 10.3008 11.0633 10.3008 10.4006L10.3008 9.60059C10.3008 8.93785 10.838 8.40059 11.5008 8.40059L12.3008 8.40059C12.9635 8.40059 13.5008 8.93784 13.5008 9.60059L13.5008 10.4006C13.5008 11.0633 12.9635 11.6006 12.3008 11.6006L11.5008 11.6006Z" fill="#F4F5F7"/>
</g>
<g filter="url(#filter5_d_101_636)">
<path d="M11.5008 15.6006C10.838 15.6006 10.3008 15.0633 10.3008 14.4006L10.3008 13.6006C10.3008 12.9378 10.838 12.4006 11.5008 12.4006L12.3008 12.4006C12.9635 12.4006 13.5008 12.9378 13.5008 13.6006L13.5008 14.4006C13.5008 15.0633 12.9635 15.6006 12.3008 15.6006L11.5008 15.6006Z" fill="#F4F5F7"/>
</g>
<g filter="url(#filter6_d_101_636)">
<path d="M11.5008 19.6006C10.838 19.6006 10.3008 19.0633 10.3008 18.4006L10.3008 17.6006C10.3008 16.9378 10.838 16.4006 11.5008 16.4006L12.3008 16.4006C12.9635 16.4006 13.5008 16.9378 13.5008 17.6006L13.5008 18.4006C13.5008 19.0633 12.9635 19.6006 12.3008 19.6006L11.5008 19.6006Z" fill="#F4F5F7"/>
</g>
<g filter="url(#filter7_d_101_636)">
<path d="M15.5008 11.6006C14.838 11.6006 14.3008 11.0633 14.3008 10.4006L14.3008 9.60059C14.3008 8.93785 14.838 8.40059 15.5008 8.40059L16.3008 8.40059C16.9635 8.40059 17.5008 8.93784 17.5008 9.60059L17.5008 10.4006C17.5008 11.0633 16.9635 11.6006 16.3008 11.6006L15.5008 11.6006Z" fill="#F4F5F7"/>
</g>
<g filter="url(#filter8_d_101_636)">
<path d="M15.5008 15.6006C14.838 15.6006 14.3008 15.0633 14.3008 14.4006L14.3008 13.6006C14.3008 12.9378 14.838 12.4006 15.5008 12.4006L16.3008 12.4006C16.9635 12.4006 17.5008 12.9378 17.5008 13.6006L17.5008 14.4006C17.5008 15.0633 16.9635 15.6006 16.3008 15.6006L15.5008 15.6006Z" fill="#F4F5F7"/>
</g>
<g filter="url(#filter9_d_101_636)">
<path d="M15.5008 19.6006C14.838 19.6006 14.3008 19.0633 14.3008 18.4006L14.3008 17.6006C14.3008 16.9378 14.838 16.4006 15.5008 16.4006L16.3008 16.4006C16.9635 16.4006 17.5008 16.9378 17.5008 17.6006L17.5008 18.4006C17.5008 19.0633 16.9635 19.6006 16.3008 19.6006L15.5008 19.6006Z" fill="#F4F5F7"/>
</g>
<defs>
<filter id="filter0_d_101_636" x="6.19922" y="4.40039" width="12.3" height="4.0002" filterUnits="userSpaceOnUse" color-interpolation-filters="sRGB">
<feFlood flood-opacity="0" result="BackgroundImageFix"/>
<feColorMatrix in="SourceAlpha" type="matrix" values="0 0 0 0 0 0 0 0 0 0 0 0 0 0 0 0 0 0 127 0" result="hardAlpha"/>
<feOffset dx="0.4" dy="0.4"/>
<feGaussianBlur stdDeviation="0.2"/>
<feComposite in2="hardAlpha" operator="out"/>
<feColorMatrix type="matrix" values="0 0 0 0 0 0 0 0 0 0 0 0 0 0 0 0 0 0 0.25 0"/>
<feBlend mode="normal" in2="BackgroundImageFix" result="effect1_dropShadow_101_636"/>
<feBlend mode="normal" in="SourceGraphic" in2="effect1_dropShadow_101_636" result="shape"/>
</filter>
<filter id="filter1_d_101_636" x="6.30078" y="8.40039" width="3.99922" height="4.0002" filterUnits="userSpaceOnUse" color-interpolation-filters="sRGB">
<feFlood flood-opacity="0" result="BackgroundImageFix"/>
<feColorMatrix in="SourceAlpha" type="matrix" values="0 0 0 0 0 0 0 0 0 0 0 0 0 0 0 0 0 0 127 0" result="hardAlpha"/>
<feOffset dx="0.4" dy="0.4"/>
<feGaussianBlur stdDeviation="0.2"/>
<feComposite in2="hardAlpha" operator="out"/>
<feColorMatrix type="matrix" values="0 0 0 0 0 0 0 0 0 0 0 0 0 0 0 0 0 0 0.25 0"/>
<feBlend mode="normal" in2="BackgroundImageFix" result="effect1_dropShadow_101_636"/>
<feBlend mode="normal" in="SourceGraphic" in2="effect1_dropShadow_101_636" result="shape"/>
</filter>
<filter id="filter2_d_101_636" x="6.30078" y="12.4004" width="3.99922" height="4.0002" filterUnits="userSpaceOnUse" color-interpolation-filters="sRGB">
<feFlood flood-opacity="0" result="BackgroundImageFix"/>
<feColorMatrix in="SourceAlpha" type="matrix" values="0 0 0 0 0 0 0 0 0 0 0 0 0 0 0 0 0 0 127 0" result="hardAlpha"/>
<feOffset dx="0.4" dy="0.4"/>
<feGaussianBlur stdDeviation="0.2"/>
<feComposite in2="hardAlpha" operator="out"/>
<feColorMatrix type="matrix" values="0 0 0 0 0 0 0 0 0 0 0 0 0 0 0 0 0 0 0.25 0"/>
<feBlend mode="normal" in2="BackgroundImageFix" result="effect1_dropShadow_101_636"/>
<feBlend mode="normal" in="SourceGraphic" in2="effect1_dropShadow_101_636" result="shape"/>
</filter>
<filter id="filter3_d_101_636" x="6.30078" y="16.4004" width="3.99922" height="4.0002" filterUnits="userSpaceOnUse" color-interpolation-filters="sRGB">
<feFlood flood-opacity="0" result="BackgroundImageFix"/>
<feColorMatrix in="SourceAlpha" type="matrix" values="0 0 0 0 0 0 0 0 0 0 0 0 0 0 0 0 0 0 127 0" result="hardAlpha"/>
<feOffset dx="0.4" dy="0.4"/>
<feGaussianBlur stdDeviation="0.2"/>
<feComposite in2="hardAlpha" operator="out"/>
<feColorMatrix type="matrix" values="0 0 0 0 0 0 0 0 0 0 0 0 0 0 0 0 0 0 0.25 0"/>
<feBlend mode="normal" in2="BackgroundImageFix" result="effect1_dropShadow_101_636"/>
<feBlend mode="normal" in="SourceGraphic" in2="effect1_dropShadow_101_636" result="shape"/>
</filter>
<filter id="filter4_d_101_636" x="10.3008" y="8.40039" width="3.99922" height="4.0002" filterUnits="userSpaceOnUse" color-interpolation-filters="sRGB">
<feFlood flood-opacity="0" result="BackgroundImageFix"/>
<feColorMatrix in="SourceAlpha" type="matrix" values="0 0 0 0 0 0 0 0 0 0 0 0 0 0 0 0 0 0 127 0" result="hardAlpha"/>
<feOffset dx="0.4" dy="0.4"/>
<feGaussianBlur stdDeviation="0.2"/>
<feComposite in2="hardAlpha" operator="out"/>
<feColorMatrix type="matrix" values="0 0 0 0 0 0 0 0 0 0 0 0 0 0 0 0 0 0 0.25 0"/>
<feBlend mode="normal" in2="BackgroundImageFix" result="effect1_dropShadow_101_636"/>
<feBlend mode="normal" in="SourceGraphic" in2="effect1_dropShadow_101_636" result="shape"/>
</filter>
<filter id="filter5_d_101_636" x="10.3008" y="12.4004" width="3.99922" height="4.0002" filterUnits="userSpaceOnUse" color-interpolation-filters="sRGB">
<feFlood flood-opacity="0" result="BackgroundImageFix"/>
<feColorMatrix in="SourceAlpha" type="matrix" values="0 0 0 0 0 0 0 0 0 0 0 0 0 0 0 0 0 0 127 0" result="hardAlpha"/>
<feOffset dx="0.4" dy="0.4"/>
<feGaussianBlur stdDeviation="0.2"/>
<feComposite in2="hardAlpha" operator="out"/>
<feColorMatrix type="matrix" values="0 0 0 0 0 0 0 0 0 0 0 0 0 0 0 0 0 0 0.25 0"/>
<feBlend mode="normal" in2="BackgroundImageFix" result="effect1_dropShadow_101_636"/>
<feBlend mode="normal" in="SourceGraphic" in2="effect1_dropShadow_101_636" result="shape"/>
</filter>
<filter id="filter6_d_101_636" x="10.3008" y="16.4004" width="3.99922" height="4.0002" filterUnits="userSpaceOnUse" color-interpolation-filters="sRGB">
<feFlood flood-opacity="0" result="BackgroundImageFix"/>
<feColorMatrix in="SourceAlpha" type="matrix" values="0 0 0 0 0 0 0 0 0 0 0 0 0 0 0 0 0 0 127 0" result="hardAlpha"/>
<feOffset dx="0.4" dy="0.4"/>
<feGaussianBlur stdDeviation="0.2"/>
<feComposite in2="hardAlpha" operator="out"/>
<feColorMatrix type="matrix" values="0 0 0 0 0 0 0 0 0 0 0 0 0 0 0 0 0 0 0.25 0"/>
<feBlend mode="normal" in2="BackgroundImageFix" result="effect1_dropShadow_101_636"/>
<feBlend mode="normal" in="SourceGraphic" in2="effect1_dropShadow_101_636" result="shape"/>
</filter>
<filter id="filter7_d_101_636" x="14.3008" y="8.40039" width="3.99922" height="4.0002" filterUnits="userSpaceOnUse" color-interpolation-filters="sRGB">
<feFlood flood-opacity="0" result="BackgroundImageFix"/>
<feColorMatrix in="SourceAlpha" type="matrix" values="0 0 0 0 0 0 0 0 0 0 0 0 0 0 0 0 0 0 127 0" result="hardAlpha"/>
<feOffset dx="0.4" dy="0.4"/>
<feGaussianBlur stdDeviation="0.2"/>
<feComposite in2="hardAlpha" operator="out"/>
<feColorMatrix type="matrix" values="0 0 0 0 0 0 0 0 0 0 0 0 0 0 0 0 0 0 0.25 0"/>
<feBlend mode="normal" in2="BackgroundImageFix" result="effect1_dropShadow_101_636"/>
<feBlend mode="normal" in="SourceGraphic" in2="effect1_dropShadow_101_636" result="shape"/>
</filter>
<filter id="filter8_d_101_636" x="14.3008" y="12.4004" width="3.99922" height="4.0002" filterUnits="userSpaceOnUse" color-interpolation-filters="sRGB">
<feFlood flood-opacity="0" result="BackgroundImageFix"/>
<feColorMatrix in="SourceAlpha" type="matrix" values="0 0 0 0 0 0 0 0 0 0 0 0 0 0 0 0 0 0 127 0" result="hardAlpha"/>
<feOffset dx="0.4" dy="0.4"/>
<feGaussianBlur stdDeviation="0.2"/>
<feComposite in2="hardAlpha" operator="out"/>
<feColorMatrix type="matrix" values="0 0 0 0 0 0 0 0 0 0 0 0 0 0 0 0 0 0 0.25 0"/>
<feBlend mode="normal" in2="BackgroundImageFix" result="effect1_dropShadow_101_636"/>
<feBlend mode="normal" in="SourceGraphic" in2="effect1_dropShadow_101_636" result="shape"/>
</filter>
<filter id="filter9_d_101_636" x="14.3008" y="16.4004" width="3.99922" height="4.0002" filterUnits="userSpaceOnUse" color-interpolation-filters="sRGB">
<feFlood flood-opacity="0" result="BackgroundImageFix"/>
<feColorMatrix in="SourceAlpha" type="matrix" values="0 0 0 0 0 0 0 0 0 0 0 0 0 0 0 0 0 0 127 0" result="hardAlpha"/>
<feOffset dx="0.4" dy="0.4"/>
<feGaussianBlur stdDeviation="0.2"/>
<feComposite in2="hardAlpha" operator="out"/>
<feColorMatrix type="matrix" values="0 0 0 0 0 0 0 0 0 0 0 0 0 0 0 0 0 0 0.25 0"/>
<feBlend mode="normal" in2="BackgroundImageFix" result="effect1_dropShadow_101_636"/>
<feBlend mode="normal" in="SourceGraphic" in2="effect1_dropShadow_101_636" result="shape"/>
</filter>
</defs>
</svg>
