<svg width="24" height="24" viewBox="0 0 24 24" fill="none" xmlns="http://www.w3.org/2000/svg">
<rect width="24" height="24" rx="6" fill="#32363B"/>
<g filter="url(#filter0_d_101_647)">
<path d="M12.5996 4C13.1518 4 13.5994 4.44789 13.5996 5V6.68917C13.5996 7.22371 14.2459 7.49141 14.6239 7.11343L15.8184 5.91895C16.2088 5.52864 16.8419 5.52874 17.2324 5.91895L18.0811 6.76758C18.4715 7.15806 18.4715 7.79111 18.0811 8.18164L16.8866 9.37613C16.5086 9.75411 16.7763 10.4004 17.3108 10.4004H19C19.5523 10.4004 20 10.8481 20 11.4004V12.6006C19.9999 13.1528 19.5522 13.6006 19 13.6006H17.3118C16.7773 13.6006 16.5096 14.2469 16.8875 14.6249L18.0693 15.8066C18.4599 16.1972 18.4599 16.8312 18.0693 17.2217L17.2207 18.0693C16.8302 18.4599 16.1972 18.4599 15.8066 18.0693L14.6239 16.8866C14.2459 16.5086 13.5996 16.7763 13.5996 17.3108V19C13.5996 19.5523 13.1519 20 12.5996 20H11.4004C10.8481 20 10.4004 19.5523 10.4004 19V17.3108C10.4004 16.7763 9.75411 16.5086 9.37613 16.8866L8.18164 18.0811C7.79112 18.4716 7.1581 18.4716 6.76758 18.0811L5.91895 17.2334C5.52842 16.8429 5.52842 16.2089 5.91895 15.8184L7.11245 14.6249C7.49043 14.2469 7.22273 13.6006 6.68819 13.6006H5C4.44778 13.6006 4.00011 13.1528 4 12.6006V11.4004C4 10.8481 4.44772 10.4004 5 10.4004H6.68917C7.22371 10.4004 7.49141 9.75411 7.11343 9.37613L5.90723 8.16992C5.51679 7.77939 5.51673 7.14635 5.90723 6.75586L6.75586 5.90723C7.14638 5.51701 7.77948 5.51688 8.16992 5.90723L9.37613 7.11343C9.75411 7.49141 10.4004 7.22371 10.4004 6.68917V5C10.4006 4.44789 10.8482 4 11.4004 4H12.5996Z" fill="#F4F5F7"/>
</g>
<g filter="url(#filter1_i_101_647)">
<path d="M11.4 14C10.6268 14 10 13.3732 10 12.6L10 11.4C10 10.6268 10.6268 10 11.4 10L12.6 10C13.3732 10 14 10.6268 14 11.4L14 12.6C14 13.3732 13.3732 14 12.6 14L11.4 14Z" fill="#32363B"/>
</g>
<defs>
<filter id="filter0_d_101_647" x="4" y="4" width="16.8" height="16.8" filterUnits="userSpaceOnUse" color-interpolation-filters="sRGB">
<feFlood flood-opacity="0" result="BackgroundImageFix"/>
<feColorMatrix in="SourceAlpha" type="matrix" values="0 0 0 0 0 0 0 0 0 0 0 0 0 0 0 0 0 0 127 0" result="hardAlpha"/>
<feOffset dx="0.4" dy="0.4"/>
<feGaussianBlur stdDeviation="0.2"/>
<feComposite in2="hardAlpha" operator="out"/>
<feColorMatrix type="matrix" values="0 0 0 0 0 0 0 0 0 0 0 0 0 0 0 0 0 0 0.25 0"/>
<feBlend mode="normal" in2="BackgroundImageFix" result="effect1_dropShadow_101_647"/>
<feBlend mode="normal" in="SourceGraphic" in2="effect1_dropShadow_101_647" result="shape"/>
</filter>
<filter id="filter1_i_101_647" x="10" y="10" width="4.4" height="4.4" filterUnits="userSpaceOnUse" color-interpolation-filters="sRGB">
<feFlood flood-opacity="0" result="BackgroundImageFix"/>
<feBlend mode="normal" in="SourceGraphic" in2="BackgroundImageFix" result="shape"/>
<feColorMatrix in="SourceAlpha" type="matrix" values="0 0 0 0 0 0 0 0 0 0 0 0 0 0 0 0 0 0 127 0" result="hardAlpha"/>
<feOffset dx="0.4" dy="0.4"/>
<feGaussianBlur stdDeviation="0.2"/>
<feComposite in2="hardAlpha" operator="arithmetic" k2="-1" k3="1"/>
<feColorMatrix type="matrix" values="0 0 0 0 0 0 0 0 0 0 0 0 0 0 0 0 0 0 0.25 0"/>
<feBlend mode="normal" in2="shape" result="effect1_innerShadow_101_647"/>
</filter>
</defs>
</svg>
