<svg width="24" height="24" viewBox="0 0 24 24" fill="none" xmlns="http://www.w3.org/2000/svg">
<rect width="24" height="24" rx="6" fill="#32363B"/>
<path d="M4.92053 13.1671C4.98815 13.3465 5.08176 13.5 5.20138 13.6274C5.32101 13.7548 5.46273 13.8523 5.62654 13.9199C5.79037 13.9875 5.96849 14.0213 6.16093 14.0213C6.34817 14.0213 6.52368 13.9862 6.68751 13.916C6.85135 13.8458 6.99436 13.747 7.11657 13.6196C7.23879 13.4921 7.33371 13.34 7.40132 13.1632C7.46894 12.9864 7.50274 12.7888 7.50274 12.5703V9.2002H8.32186V14.661H7.51054V14.1539C7.32851 14.3464 7.11397 14.4946 6.86693 14.5986C6.61988 14.7026 6.35336 14.7546 6.06732 14.7546C5.77606 14.7546 5.50433 14.7039 5.25208 14.6025C4.99985 14.5011 4.7814 14.3568 4.59679 14.1695C4.41218 13.9823 4.26654 13.7574 4.15993 13.4947C4.0533 13.2321 4 12.9396 4 12.6171V9.2002H4.81912V12.5703C4.81912 12.7888 4.85292 12.9877 4.92053 13.1671Z" fill="#F4F5F7"/>
<path d="M9.73322 9.2002V11.1895C9.91525 11.0075 10.1259 10.8632 10.3651 10.7565C10.6044 10.6499 10.8644 10.5966 11.1452 10.5966C11.4365 10.5966 11.7095 10.6512 11.9644 10.7604C12.2192 10.8696 12.4402 11.0179 12.6274 11.2051C12.8147 11.3923 12.9629 11.6134 13.0721 11.8682C13.1813 12.123 13.2359 12.3935 13.2359 12.6795C13.2359 12.9656 13.1813 13.2347 13.0721 13.4869C12.9629 13.7392 12.8147 13.9589 12.6274 14.1461C12.4402 14.3334 12.2192 14.4816 11.9644 14.5908C11.7095 14.7 11.4365 14.7546 11.1452 14.7546C10.8644 14.7546 10.6031 14.7013 10.3612 14.5947C10.1194 14.4881 9.90745 14.3437 9.72542 14.1617V14.661H8.94531V9.2002H9.73322ZM9.82293 13.2178C9.89314 13.3842 9.99067 13.5299 10.1155 13.6547C10.2403 13.7795 10.3859 13.8783 10.5523 13.9511C10.7188 14.0239 10.8982 14.0603 11.0906 14.0603C11.2779 14.0603 11.4547 14.0239 11.6211 13.9511C11.7875 13.8783 11.9318 13.7795 12.0541 13.6547C12.1763 13.5299 12.2738 13.3842 12.3466 13.2178C12.4194 13.0514 12.4558 12.872 12.4558 12.6795C12.4558 12.4871 12.4194 12.3064 12.3466 12.1373C12.2738 11.9683 12.1763 11.8214 12.0541 11.6966C11.9319 11.5718 11.7875 11.4742 11.6211 11.404C11.4547 11.3338 11.2779 11.2987 11.0906 11.2987C10.9034 11.2987 10.7266 11.3338 10.5602 11.404C10.3937 11.4743 10.2481 11.5718 10.1233 11.6966C9.99849 11.8214 9.89966 11.9683 9.82685 12.1373C9.75404 12.3064 9.71764 12.4871 9.71764 12.6795C9.71762 12.872 9.75273 13.0514 9.82293 13.2178Z" fill="#F4F5F7"/>
<path d="M13.6814 11.8761C13.7854 11.6264 13.9284 11.4067 14.1104 11.2169C14.2925 11.027 14.5083 10.8775 14.7579 10.7683C15.0076 10.6591 15.278 10.6045 15.5693 10.6045C15.8553 10.6045 16.1206 10.6565 16.365 10.7605C16.6094 10.8645 16.8201 11.0088 16.9969 11.1935C17.1737 11.3781 17.3115 11.5965 17.4103 11.8488C17.5092 12.101 17.5586 12.3754 17.5586 12.6718V12.9293H14.3211C14.3471 13.0905 14.3991 13.24 14.4771 13.3778C14.5551 13.5156 14.6526 13.6352 14.7697 13.7367C14.8867 13.8381 15.0193 13.9174 15.1675 13.9746C15.3157 14.0318 15.4731 14.0604 15.6395 14.0604C16.1128 14.0604 16.495 13.8654 16.7863 13.4753L17.3558 13.8966C17.1581 14.1618 16.9137 14.3698 16.6225 14.5207C16.3312 14.6715 16.0036 14.7469 15.6395 14.7469C15.3431 14.7469 15.0661 14.6949 14.8087 14.5909C14.5512 14.4869 14.3276 14.3412 14.1378 14.154C13.948 13.9668 13.7984 13.747 13.6892 13.4948C13.58 13.2426 13.5254 12.9682 13.5254 12.6718C13.5254 12.3909 13.5774 12.1257 13.6814 11.8761ZM14.7775 11.5679C14.5564 11.7525 14.4095 11.9983 14.3367 12.3051H16.7629C16.6952 11.9983 16.5509 11.7525 16.3299 11.5679C16.1089 11.3833 15.8501 11.291 15.5537 11.291C15.2572 11.291 14.9985 11.3833 14.7775 11.5679Z" fill="#F4F5F7"/>
<path d="M19.0337 11.6577C18.8672 11.8398 18.784 12.0868 18.784 12.3988V14.6612H17.9961V10.6826H18.7762V11.1741C18.875 11.0128 19.0037 10.8854 19.1624 10.7918C19.321 10.6982 19.5095 10.6514 19.728 10.6514H20.001V11.3847H19.6733C19.4133 11.3847 19.2001 11.4757 19.0337 11.6577Z" fill="#F4F5F7"/>
</svg>
