<svg width="24" height="24" viewBox="0 0 24 24" fill="none" xmlns="http://www.w3.org/2000/svg">
<rect width="24" height="24" rx="6" fill="#3F79AD"/>
<g filter="url(#filter0_d_101_761)">
<path fill-rule="evenodd" clip-rule="evenodd" d="M4.65999 11.8411C5.60058 11.6865 6.54068 12.2311 6.87761 13.1256C7.33286 14.3342 6.57825 15.6456 5.30719 15.8543C4.3666 16.0089 3.42642 15.4644 3.0896 14.5699C2.63421 13.3612 3.38896 12.0499 4.65999 11.8411ZM5.39793 14.8496C5.84698 14.6658 6.12142 14.1888 6.05571 13.7068C5.95911 12.9996 5.22808 12.5761 4.56928 12.8459C4.12023 13.0297 3.84568 13.5067 3.9115 13.9888C4.00811 14.6959 4.73913 15.1194 5.39793 14.8496ZM10.3449 10.401C10.4537 10.3719 10.5491 10.4802 10.5066 10.5847L9.22691 13.7388L10.7802 13.3226C11.0633 13.2468 11.3555 13.4453 11.3756 13.7555C11.3904 13.9828 11.228 14.1844 11.0084 14.2432L7.89625 15.0771C7.7885 15.106 7.694 14.9988 7.73601 14.8951L9.01678 11.7388L7.74182 12.0804C7.52235 12.1392 7.28095 12.0458 7.18 11.8415C7.04237 11.5629 7.19613 11.2447 7.47923 11.1689L10.3449 10.401ZM19.9183 7.84707C20.1971 7.70547 20.5177 7.86013 20.5942 8.14561L21.4411 11.3062C21.4706 11.4165 21.3601 11.5121 21.2555 11.4666L18.2564 10.1624L18.6686 11.7007C18.7451 11.9861 18.5449 12.2803 18.2325 12.2972C18.0086 12.3092 17.8102 12.1504 17.752 11.9332L16.9081 8.78398C16.8786 8.67376 16.989 8.57814 17.0936 8.6236L20.0927 9.92799L19.684 8.40256C19.6258 8.18541 19.7183 7.94862 19.9183 7.84707ZM13.4553 9.47375C14.9688 9.06821 16.4312 9.61807 16.7216 10.702C17.012 11.7858 16.0205 12.9932 14.507 13.3988C12.9935 13.8043 11.5312 13.2544 11.2408 12.1706C10.9503 11.0867 11.9418 9.87928 13.4553 9.47375ZM12.1543 11.9258C12.2866 12.4198 13.2159 12.763 14.2615 12.4828C15.3072 12.2026 15.9404 11.4408 15.808 10.9468C15.6756 10.4528 14.7463 10.1096 13.7007 10.3897C12.6551 10.6699 12.0219 11.4317 12.1543 11.9258Z" fill="#F4F5F7"/>
</g>
<defs>
<filter id="filter0_d_101_761" x="2.95508" y="7.79395" width="19.2902" height="8.88691" filterUnits="userSpaceOnUse" color-interpolation-filters="sRGB">
<feFlood flood-opacity="0" result="BackgroundImageFix"/>
<feColorMatrix in="SourceAlpha" type="matrix" values="0 0 0 0 0 0 0 0 0 0 0 0 0 0 0 0 0 0 127 0" result="hardAlpha"/>
<feOffset dx="0.4" dy="0.4"/>
<feGaussianBlur stdDeviation="0.2"/>
<feComposite in2="hardAlpha" operator="out"/>
<feColorMatrix type="matrix" values="0 0 0 0 0 0 0 0 0 0 0 0 0 0 0 0 0 0 0.25 0"/>
<feBlend mode="normal" in2="BackgroundImageFix" result="effect1_dropShadow_101_761"/>
<feBlend mode="normal" in="SourceGraphic" in2="effect1_dropShadow_101_761" result="shape"/>
</filter>
</defs>
</svg>
