<svg width="24" height="24" viewBox="0 0 24 24" fill="none" xmlns="http://www.w3.org/2000/svg">
<rect width="24" height="24" rx="6" fill="#6B58A7"/>
<g filter="url(#filter0_d_101_755)">
<path d="M16.2418 7.41895C16.6917 7.518 17.1271 7.60259 17.5543 7.7119C18.0082 7.82746 18.458 7.96782 18.9079 8.09364C18.9718 8.1122 18.9966 8.13701 18.9966 8.2092C18.9945 9.61446 19.009 11.0218 18.9904 12.427C18.9698 13.9375 18.4931 15.3035 17.5749 16.5044C16.5514 17.8436 15.2121 18.7061 13.5738 19.0982C12.9279 19.253 12.2697 19.3045 11.6073 19.2654C10.0328 19.1725 8.63792 18.6174 7.44522 17.5878C6.21539 16.5292 5.43952 15.1962 5.12793 13.599C5.03921 13.1451 5.00413 12.6849 5.00413 12.2227C5.00206 10.8917 5.00413 9.56288 5 8.23196C5 8.14316 5.02889 8.1122 5.10937 8.08748C5.96778 7.813 6.84272 7.59634 7.72792 7.43545C7.73622 7.43331 7.74442 7.43545 7.76504 7.43331C7.76504 7.46847 7.76504 7.50354 7.76504 7.53655C7.76504 9.20585 7.75888 10.8773 7.76923 12.5467C7.77539 13.3886 7.8889 14.2202 8.17569 15.0187C8.4027 15.6522 8.73903 16.2176 9.24043 16.6757C9.71096 17.1029 10.2619 17.3732 10.8789 17.5052C11.7517 17.693 12.6225 17.6785 13.4789 17.4082C14.49 17.0905 15.1915 16.4177 15.6414 15.4706C15.8828 14.9651 16.0273 14.4285 16.118 13.8776C16.2192 13.2647 16.244 12.6457 16.244 12.0266C16.244 10.5369 16.244 9.04497 16.244 7.55512C16.2418 7.51585 16.2418 7.47873 16.2418 7.41895Z" fill="#F4F5F7"/>
<path d="M13.2271 10.5146C12.4038 10.5146 11.5887 10.5146 10.7695 10.5146C10.7695 8.59567 10.7695 6.67866 10.7695 4.76374C11.0254 4.68326 12.7402 4.67707 13.2271 4.75755C13.2271 6.67661 13.2271 8.59567 13.2271 10.5146Z" fill="#F4F5F7"/>
</g>
<defs>
<filter id="filter0_d_101_755" x="5" y="4.7002" width="14.8" height="15.3781" filterUnits="userSpaceOnUse" color-interpolation-filters="sRGB">
<feFlood flood-opacity="0" result="BackgroundImageFix"/>
<feColorMatrix in="SourceAlpha" type="matrix" values="0 0 0 0 0 0 0 0 0 0 0 0 0 0 0 0 0 0 127 0" result="hardAlpha"/>
<feOffset dx="0.4" dy="0.4"/>
<feGaussianBlur stdDeviation="0.2"/>
<feComposite in2="hardAlpha" operator="out"/>
<feColorMatrix type="matrix" values="0 0 0 0 0 0 0 0 0 0 0 0 0 0 0 0 0 0 0.25 0"/>
<feBlend mode="normal" in2="BackgroundImageFix" result="effect1_dropShadow_101_755"/>
<feBlend mode="normal" in="SourceGraphic" in2="effect1_dropShadow_101_755" result="shape"/>
</filter>
</defs>
</svg>
