<svg width="24" height="24" viewBox="0 0 24 24" fill="none" xmlns="http://www.w3.org/2000/svg">
<rect width="24" height="24" rx="6" fill="#32363B"/>
<g filter="url(#filter0_d_101_1033)">
<path d="M6.56746 5.22266C6.45247 5.31554 6.35977 5.43261 6.29608 5.5654C6.23239 5.69818 6.19931 5.84335 6.19922 5.99038V18.0094C6.19954 18.1679 6.2382 18.324 6.31198 18.4646C6.38575 18.6052 6.49247 18.7263 6.62319 18.8176L13.4513 12.0493V11.9378L6.56746 5.22266Z" fill="#3F79AD"/>
<path d="M15.664 9.69043L13.3965 11.9381V12.1054L15.6364 14.3257L18.2006 12.8582C18.3524 12.7711 18.4785 12.6461 18.5661 12.4954C18.6538 12.3448 18.6999 12.174 18.6999 12.0002C18.6999 11.8263 18.6538 11.6555 18.5661 11.5049C18.4785 11.3543 18.3524 11.2292 18.2006 11.1422L15.664 9.69043Z" fill="#B8A64F"/>
<path d="M13.3963 11.9941L6.56055 18.7699C6.71756 18.8998 6.91098 18.9788 7.11472 18.9964C7.31847 19.0139 7.52273 18.9691 7.69998 18.868L12.9502 15.8632L15.7076 14.2851L13.3963 11.9941Z" fill="#B04F58"/>
<path d="M7.22319 5.00024C6.97086 4.99476 6.72577 5.08409 6.53711 5.25028L13.3955 11.994L15.6987 9.71107L12.9494 8.1376L7.69916 5.13285C7.55421 5.04985 7.39055 5.00425 7.22319 5.00024Z" fill="#4F9B7A"/>
</g>
<defs>
<filter id="filter0_d_101_1033" x="6.19922" y="5" width="13.3" height="14.8" filterUnits="userSpaceOnUse" color-interpolation-filters="sRGB">
<feFlood flood-opacity="0" result="BackgroundImageFix"/>
<feColorMatrix in="SourceAlpha" type="matrix" values="0 0 0 0 0 0 0 0 0 0 0 0 0 0 0 0 0 0 127 0" result="hardAlpha"/>
<feOffset dx="0.4" dy="0.4"/>
<feGaussianBlur stdDeviation="0.2"/>
<feComposite in2="hardAlpha" operator="out"/>
<feColorMatrix type="matrix" values="0 0 0 0 0 0 0 0 0 0 0 0 0 0 0 0 0 0 0.25 0"/>
<feBlend mode="normal" in2="BackgroundImageFix" result="effect1_dropShadow_101_1033"/>
<feBlend mode="normal" in="SourceGraphic" in2="effect1_dropShadow_101_1033" result="shape"/>
</filter>
</defs>
</svg>
