<svg width="24" height="24" viewBox="0 0 24 24" fill="none" xmlns="http://www.w3.org/2000/svg">
<rect width="24" height="24" rx="6" fill="#32363B"/>
<g filter="url(#filter0_d_101_1007)">
<path d="M11.999 4C9.19249 4 6.73865 5.4376 5.31145 7.61248C5.26102 10.8712 7.33381 12.0069 8.83645 13.7125C8.56005 13.2025 8.39885 12.6233 8.39885 12.0001C8.39885 10.0057 10.0168 9.42184 11.9988 9.20008L19.1488 8.40008C17.8364 5.78432 15.1356 4.00008 11.9988 4.00008L11.999 4Z" fill="#B04F58"/>
</g>
<g filter="url(#filter1_d_101_1007)">
<path d="M5.07947 16.0224C6.48275 18.4529 8.95471 19.8593 11.5519 20.0077C14.3211 18.4812 15.7891 16.5406 15.0721 13.9049C14.7685 14.3994 14.3475 14.8284 13.8078 15.14C12.9501 15.6352 12.156 15.1147 11.272 14.8828C10.3758 14.6477 9.39211 14.6918 8.89011 13.8223L5.31471 7.62988C3.70571 10.0747 3.51087 13.3055 5.07919 16.0223L5.07947 16.0224Z" fill="#4F9B7A"/>
</g>
<g filter="url(#filter2_d_101_1007)">
<path d="M18.9499 16.0009C20.3532 13.5704 20.3352 10.7265 19.1651 8.40332L12.1199 8.40612C12.7 8.4218 13.282 8.57186 13.8218 8.88348C14.7448 9.4164 14.6581 10.4694 14.8622 11.4319C15.0401 12.2704 15.6037 12.997 15.1395 13.8012L11.5645 19.9932C14.4861 20.1644 17.3817 18.7176 18.9501 16.0008L18.9499 16.0009Z" fill="#B8A64F"/>
</g>
<g filter="url(#filter3_d_101_1007)">
<path d="M11.9996 8.40742C13.9878 8.40742 15.5996 10.0192 15.5996 12.0074C15.5996 13.9956 13.9878 15.6074 11.9996 15.6074C10.0114 15.6074 8.39961 13.9956 8.39961 12.0074C8.39961 10.0192 10.0114 8.40742 11.9996 8.40742Z" fill="#F4F5F7"/>
</g>
<g filter="url(#filter4_d_101_1007)">
<path d="M11.9988 9.20762C13.5452 9.20762 14.7988 10.4612 14.7988 12.0076C14.7988 13.554 13.5452 14.8076 11.9988 14.8076C10.4524 14.8076 9.19883 13.554 9.19883 12.0076C9.19883 10.4612 10.4524 9.20762 11.9988 9.20762Z" fill="#3F79AD"/>
</g>
<defs>
<filter id="filter0_d_101_1007" x="5.31055" y="4" width="14.6379" height="10.5129" filterUnits="userSpaceOnUse" color-interpolation-filters="sRGB">
<feFlood flood-opacity="0" result="BackgroundImageFix"/>
<feColorMatrix in="SourceAlpha" type="matrix" values="0 0 0 0 0 0 0 0 0 0 0 0 0 0 0 0 0 0 127 0" result="hardAlpha"/>
<feOffset dx="0.4" dy="0.4"/>
<feGaussianBlur stdDeviation="0.2"/>
<feComposite in2="hardAlpha" operator="out"/>
<feColorMatrix type="matrix" values="0 0 0 0 0 0 0 0 0 0 0 0 0 0 0 0 0 0 0.25 0"/>
<feBlend mode="normal" in2="BackgroundImageFix" result="effect1_dropShadow_101_1007"/>
<feBlend mode="normal" in="SourceGraphic" in2="effect1_dropShadow_101_1007" result="shape"/>
</filter>
<filter id="filter1_d_101_1007" x="4" y="7.62988" width="12.052" height="13.1779" filterUnits="userSpaceOnUse" color-interpolation-filters="sRGB">
<feFlood flood-opacity="0" result="BackgroundImageFix"/>
<feColorMatrix in="SourceAlpha" type="matrix" values="0 0 0 0 0 0 0 0 0 0 0 0 0 0 0 0 0 0 127 0" result="hardAlpha"/>
<feOffset dx="0.4" dy="0.4"/>
<feGaussianBlur stdDeviation="0.2"/>
<feComposite in2="hardAlpha" operator="out"/>
<feColorMatrix type="matrix" values="0 0 0 0 0 0 0 0 0 0 0 0 0 0 0 0 0 0 0.25 0"/>
<feBlend mode="normal" in2="BackgroundImageFix" result="effect1_dropShadow_101_1007"/>
<feBlend mode="normal" in="SourceGraphic" in2="effect1_dropShadow_101_1007" result="shape"/>
</filter>
<filter id="filter2_d_101_1007" x="11.5645" y="8.40332" width="9.25898" height="12.4035" filterUnits="userSpaceOnUse" color-interpolation-filters="sRGB">
<feFlood flood-opacity="0" result="BackgroundImageFix"/>
<feColorMatrix in="SourceAlpha" type="matrix" values="0 0 0 0 0 0 0 0 0 0 0 0 0 0 0 0 0 0 127 0" result="hardAlpha"/>
<feOffset dx="0.4" dy="0.4"/>
<feGaussianBlur stdDeviation="0.2"/>
<feComposite in2="hardAlpha" operator="out"/>
<feColorMatrix type="matrix" values="0 0 0 0 0 0 0 0 0 0 0 0 0 0 0 0 0 0 0.25 0"/>
<feBlend mode="normal" in2="BackgroundImageFix" result="effect1_dropShadow_101_1007"/>
<feBlend mode="normal" in="SourceGraphic" in2="effect1_dropShadow_101_1007" result="shape"/>
</filter>
<filter id="filter3_d_101_1007" x="8.40039" y="8.40723" width="7.99922" height="8.0002" filterUnits="userSpaceOnUse" color-interpolation-filters="sRGB">
<feFlood flood-opacity="0" result="BackgroundImageFix"/>
<feColorMatrix in="SourceAlpha" type="matrix" values="0 0 0 0 0 0 0 0 0 0 0 0 0 0 0 0 0 0 127 0" result="hardAlpha"/>
<feOffset dx="0.4" dy="0.4"/>
<feGaussianBlur stdDeviation="0.2"/>
<feComposite in2="hardAlpha" operator="out"/>
<feColorMatrix type="matrix" values="0 0 0 0 0 0 0 0 0 0 0 0 0 0 0 0 0 0 0.25 0"/>
<feBlend mode="normal" in2="BackgroundImageFix" result="effect1_dropShadow_101_1007"/>
<feBlend mode="normal" in="SourceGraphic" in2="effect1_dropShadow_101_1007" result="shape"/>
</filter>
<filter id="filter4_d_101_1007" x="9.19922" y="9.20801" width="6.39961" height="6.39961" filterUnits="userSpaceOnUse" color-interpolation-filters="sRGB">
<feFlood flood-opacity="0" result="BackgroundImageFix"/>
<feColorMatrix in="SourceAlpha" type="matrix" values="0 0 0 0 0 0 0 0 0 0 0 0 0 0 0 0 0 0 127 0" result="hardAlpha"/>
<feOffset dx="0.4" dy="0.4"/>
<feGaussianBlur stdDeviation="0.2"/>
<feComposite in2="hardAlpha" operator="out"/>
<feColorMatrix type="matrix" values="0 0 0 0 0 0 0 0 0 0 0 0 0 0 0 0 0 0 0.25 0"/>
<feBlend mode="normal" in2="BackgroundImageFix" result="effect1_dropShadow_101_1007"/>
<feBlend mode="normal" in="SourceGraphic" in2="effect1_dropShadow_101_1007" result="shape"/>
</filter>
</defs>
</svg>
