<svg width="24" height="24" viewBox="0 0 24 24" fill="none" xmlns="http://www.w3.org/2000/svg">
<rect width="24" height="24" rx="6" fill="#32363B"/>
<g filter="url(#filter0_d_101_1039)">
<path d="M16.5518 12.725H16.5557C16.5557 12.725 15.0845 14.8831 13.8474 16.487C12.7781 17.8723 12.4659 19.0587 12.3762 19.6323C12.341 19.8431 12.1693 19.9992 11.9625 19.9992C11.7557 19.9992 11.584 19.8431 11.5489 19.6323C11.4591 19.0587 11.1469 17.8723 10.0776 16.487C9.91373 16.2723 9.74593 16.0499 9.57812 15.8236L13.6171 11.0236L16.8679 7.16797C17.2269 7.92114 17.4259 8.76406 17.4259 9.65772C17.4259 10.7894 17.102 11.8392 16.5518 12.725Z" fill="#4F9B7A"/>
<path d="M13.6186 11.0237L9.57957 15.8237C8.47908 14.3486 7.37079 12.7252 7.37079 12.7252H7.37469C7.25762 12.5378 7.15226 12.3466 7.0625 12.1476L10.3093 8.29199C10.001 8.66272 9.81762 9.13882 9.81762 9.65784C9.81762 10.8442 10.7776 11.8042 11.964 11.8042C12.6313 11.8042 13.2283 11.4998 13.6186 11.0237Z" fill="#B8A64F"/>
<path d="M13.6179 11.0237C13.9262 10.653 14.1096 10.1769 14.1096 9.65783C14.1096 8.47149 13.1496 7.51149 11.9632 7.51149C11.2959 7.51149 10.6988 7.81588 10.3086 8.29198L13.6803 4.28809C15.0813 4.76418 16.2286 5.81394 16.8686 7.16808L13.6179 11.0237Z" fill="#428AA3"/>
<path d="M13.6798 4.28878L10.3354 8.26146L7.77539 6.02926C8.77441 4.78829 10.2808 4 11.9627 4C12.5637 4 13.1412 4.10146 13.6798 4.28878Z" fill="#3F79AD"/>
<path d="M10.3361 8.26149L10.3088 8.29271L7.06195 12.1483C6.70293 11.3951 6.5 10.5522 6.5 9.65856C6.5 8.2771 6.98 7.00881 7.7761 6.0293L10.3361 8.26149Z" fill="#B04F58"/>
</g>
<defs>
<filter id="filter0_d_101_1039" x="6.5" y="4" width="11.7258" height="16.799" filterUnits="userSpaceOnUse" color-interpolation-filters="sRGB">
<feFlood flood-opacity="0" result="BackgroundImageFix"/>
<feColorMatrix in="SourceAlpha" type="matrix" values="0 0 0 0 0 0 0 0 0 0 0 0 0 0 0 0 0 0 127 0" result="hardAlpha"/>
<feOffset dx="0.4" dy="0.4"/>
<feGaussianBlur stdDeviation="0.2"/>
<feComposite in2="hardAlpha" operator="out"/>
<feColorMatrix type="matrix" values="0 0 0 0 0 0 0 0 0 0 0 0 0 0 0 0 0 0 0.25 0"/>
<feBlend mode="normal" in2="BackgroundImageFix" result="effect1_dropShadow_101_1039"/>
<feBlend mode="normal" in="SourceGraphic" in2="effect1_dropShadow_101_1039" result="shape"/>
</filter>
</defs>
</svg>
