<svg width="24" height="24" viewBox="0 0 24 24" fill="none" xmlns="http://www.w3.org/2000/svg">
<rect width="24" height="24" rx="6" fill="#32363B"/>
<g filter="url(#filter0_d_101_1083)">
<path d="M12.8535 12.0049L14.357 13.577L16.2681 14.759L16.5974 12.0145L16.2681 9.33301L14.3215 10.3698L12.8535 12.0049Z" fill="#4F9B7A"/>
<path d="M5 14.3951V16.8423C5 17.3768 5.43533 17.8097 5.9728 17.8097H8.41463L8.94671 16.0425L8.41463 14.3951L6.71051 13.918L5 14.3951Z" fill="#3F79AD"/>
<path d="M8.41463 6.19922L5 9.61385L6.71051 10.091L8.41463 9.61385L8.90442 7.98744L8.41463 6.19922Z" fill="#B04F58"/>
<path d="M8.41463 9.61426H5V14.3947H8.41463V9.61426Z" fill="#428AA3"/>
<path d="M12.8531 12.0049V14.3951H8.41406V17.8098H15.2728C15.8073 17.8098 16.2748 17.3768 16.2677 16.8423V14.759L12.8531 12.0049Z" fill="#6FBF9A"/>
<path d="M18.2545 7.67319L16.2676 9.3326V14.7585L18.2637 16.3427C18.5625 16.5846 18.9993 16.3639 18.9993 15.9704V8.03762C18.9993 7.63942 18.5526 7.42107 18.2545 7.67319Z" fill="#6FBF9A"/>
<path d="M15.2949 6.19922H8.41406V9.61385H12.8531V12.0041L16.2677 9.33224V7.1667C16.2677 6.63217 15.8324 6.19922 15.2949 6.19922Z" fill="#B8A64F"/>
</g>
<defs>
<filter id="filter0_d_101_1083" x="5" y="6.19922" width="14.8" height="12.4104" filterUnits="userSpaceOnUse" color-interpolation-filters="sRGB">
<feFlood flood-opacity="0" result="BackgroundImageFix"/>
<feColorMatrix in="SourceAlpha" type="matrix" values="0 0 0 0 0 0 0 0 0 0 0 0 0 0 0 0 0 0 127 0" result="hardAlpha"/>
<feOffset dx="0.4" dy="0.4"/>
<feGaussianBlur stdDeviation="0.2"/>
<feComposite in2="hardAlpha" operator="out"/>
<feColorMatrix type="matrix" values="0 0 0 0 0 0 0 0 0 0 0 0 0 0 0 0 0 0 0.25 0"/>
<feBlend mode="normal" in2="BackgroundImageFix" result="effect1_dropShadow_101_1083"/>
<feBlend mode="normal" in="SourceGraphic" in2="effect1_dropShadow_101_1083" result="shape"/>
</filter>
</defs>
</svg>
