<svg width="24" height="24" viewBox="0 0 24 24" fill="none" xmlns="http://www.w3.org/2000/svg">
<rect width="24" height="24" rx="6" fill="#32363B"/>
<g filter="url(#filter0_d_101_1072)">
<path d="M6.39961 4C5.95641 4 5.59961 4.3568 5.59961 4.8V19.2C5.59961 19.6432 5.95641 20 6.39961 20H17.5996C18.0428 20 18.3996 19.6432 18.3996 19.2V8.8L13.9996 8.4L13.5996 4H6.39961Z" fill="#428AA3"/>
</g>
<g filter="url(#filter1_d_101_1072)">
<path d="M13.5996 4V8C13.5996 8.44184 13.9578 8.8 14.3996 8.8H18.3996L13.5996 4Z" fill="#63A8C2"/>
</g>
<g filter="url(#filter2_d_101_1072)">
<path d="M8.80039 17.1996C8.57948 17.1996 8.40039 17.0205 8.40039 16.7996C8.40039 16.5787 8.57948 16.3996 8.80039 16.3996H12.8004C13.0213 16.3996 13.2004 16.5787 13.2004 16.7996C13.2004 17.0205 13.0213 17.1996 12.8004 17.1996H8.80039ZM8.80039 15.5996C8.57948 15.5996 8.40039 15.4205 8.40039 15.1996C8.40039 14.9787 8.57948 14.7996 8.80039 14.7996H15.2004C15.4213 14.7996 15.6004 14.9787 15.6004 15.1996C15.6004 15.4205 15.4213 15.5996 15.2004 15.5996H8.80039ZM8.80039 13.9996C8.57948 13.9996 8.40039 13.8205 8.40039 13.5996C8.40039 13.3787 8.57948 13.1996 8.80039 13.1996H15.2004C15.4213 13.1996 15.6004 13.3787 15.6004 13.5996C15.6004 13.8205 15.4213 13.9996 15.2004 13.9996H8.80039ZM8.80039 12.3996C8.57948 12.3996 8.40039 12.2205 8.40039 11.9996C8.40039 11.7787 8.57948 11.5996 8.80039 11.5996H15.2004C15.4213 11.5996 15.6004 11.7787 15.6004 11.9996C15.6004 12.2205 15.4213 12.3996 15.2004 12.3996H8.80039Z" fill="#F4F5F7"/>
</g>
<defs>
<filter id="filter0_d_101_1072" x="5.59961" y="4" width="13.6008" height="16.8" filterUnits="userSpaceOnUse" color-interpolation-filters="sRGB">
<feFlood flood-opacity="0" result="BackgroundImageFix"/>
<feColorMatrix in="SourceAlpha" type="matrix" values="0 0 0 0 0 0 0 0 0 0 0 0 0 0 0 0 0 0 127 0" result="hardAlpha"/>
<feOffset dx="0.4" dy="0.4"/>
<feGaussianBlur stdDeviation="0.2"/>
<feComposite in2="hardAlpha" operator="out"/>
<feColorMatrix type="matrix" values="0 0 0 0 0 0 0 0 0 0 0 0 0 0 0 0 0 0 0.25 0"/>
<feBlend mode="normal" in2="BackgroundImageFix" result="effect1_dropShadow_101_1072"/>
<feBlend mode="normal" in="SourceGraphic" in2="effect1_dropShadow_101_1072" result="shape"/>
</filter>
<filter id="filter1_d_101_1072" x="13.5996" y="4" width="5.60078" height="5.5998" filterUnits="userSpaceOnUse" color-interpolation-filters="sRGB">
<feFlood flood-opacity="0" result="BackgroundImageFix"/>
<feColorMatrix in="SourceAlpha" type="matrix" values="0 0 0 0 0 0 0 0 0 0 0 0 0 0 0 0 0 0 127 0" result="hardAlpha"/>
<feOffset dx="0.4" dy="0.4"/>
<feGaussianBlur stdDeviation="0.2"/>
<feComposite in2="hardAlpha" operator="out"/>
<feColorMatrix type="matrix" values="0 0 0 0 0 0 0 0 0 0 0 0 0 0 0 0 0 0 0.25 0"/>
<feBlend mode="normal" in2="BackgroundImageFix" result="effect1_dropShadow_101_1072"/>
<feBlend mode="normal" in="SourceGraphic" in2="effect1_dropShadow_101_1072" result="shape"/>
</filter>
<filter id="filter2_d_101_1072" x="8.40039" y="11.5996" width="7.99922" height="6.39961" filterUnits="userSpaceOnUse" color-interpolation-filters="sRGB">
<feFlood flood-opacity="0" result="BackgroundImageFix"/>
<feColorMatrix in="SourceAlpha" type="matrix" values="0 0 0 0 0 0 0 0 0 0 0 0 0 0 0 0 0 0 127 0" result="hardAlpha"/>
<feOffset dx="0.4" dy="0.4"/>
<feGaussianBlur stdDeviation="0.2"/>
<feComposite in2="hardAlpha" operator="out"/>
<feColorMatrix type="matrix" values="0 0 0 0 0 0 0 0 0 0 0 0 0 0 0 0 0 0 0.25 0"/>
<feBlend mode="normal" in2="BackgroundImageFix" result="effect1_dropShadow_101_1072"/>
<feBlend mode="normal" in="SourceGraphic" in2="effect1_dropShadow_101_1072" result="shape"/>
</filter>
</defs>
</svg>
