<svg width="24" height="24" viewBox="0 0 24 24" fill="none" xmlns="http://www.w3.org/2000/svg">
<rect width="24" height="24" rx="6" fill="#32363B"/>
<g filter="url(#filter0_d_101_1020)">
<path fill-rule="evenodd" clip-rule="evenodd" d="M9.28666 14.3997L8.97352 14.2952L6.59661 18.6162L6.7616 18.981C6.97353 19.1236 7.22231 19.1997 7.47676 19.1997H16.5225C16.9546 19.1997 17.3581 18.981 17.5979 18.6169L20.1826 14.6896C20.2415 14.5992 20.2891 14.5019 20.3243 14.3997L20.3026 14.0967H15.1405L14.9625 14.3997H9.28666Z" fill="#3F79AD"/>
</g>
<g filter="url(#filter1_d_101_1020)">
<path fill-rule="evenodd" clip-rule="evenodd" d="M9.41493 4.7998C8.95532 4.79974 8.53026 5.04694 8.29856 5.44902L3.77567 13.3037C3.5269 13.7357 3.54282 14.2735 3.81669 14.6896L6.40141 18.617C6.49647 18.7613 6.61891 18.8851 6.7616 18.9811L13.8189 6.36015L14.5801 4.9998L9.41493 4.7998Z" fill="#4F9B7A"/>
</g>
<g filter="url(#filter2_d_101_1020)">
<path fill-rule="evenodd" clip-rule="evenodd" d="M9.41493 4.7998C9.39129 4.80018 9.36766 4.80123 9.34408 4.80293L14.6328 14.3998H20.3243C20.4514 14.0372 20.4145 13.6363 20.2236 13.3037L15.7007 5.44902C15.469 5.04694 15.044 4.79974 14.5844 4.7998H9.41493ZM20.3221 14.4053C20.3064 14.4501 20.288 14.4937 20.2676 14.5365C20.2881 14.4938 20.3063 14.45 20.3221 14.4053ZM20.2594 14.5537C20.2364 14.6003 20.211 14.646 20.1826 14.6896C20.2109 14.6459 20.2365 14.6005 20.2594 14.5537Z" fill="#B8A64F"/>
</g>
<defs>
<filter id="filter0_d_101_1020" x="6.5957" y="14.0967" width="14.5285" height="5.90352" filterUnits="userSpaceOnUse" color-interpolation-filters="sRGB">
<feFlood flood-opacity="0" result="BackgroundImageFix"/>
<feColorMatrix in="SourceAlpha" type="matrix" values="0 0 0 0 0 0 0 0 0 0 0 0 0 0 0 0 0 0 127 0" result="hardAlpha"/>
<feOffset dx="0.4" dy="0.4"/>
<feGaussianBlur stdDeviation="0.2"/>
<feComposite in2="hardAlpha" operator="out"/>
<feColorMatrix type="matrix" values="0 0 0 0 0 0 0 0 0 0 0 0 0 0 0 0 0 0 0.25 0"/>
<feBlend mode="normal" in2="BackgroundImageFix" result="effect1_dropShadow_101_1020"/>
<feBlend mode="normal" in="SourceGraphic" in2="effect1_dropShadow_101_1020" result="shape"/>
</filter>
<filter id="filter1_d_101_1020" x="3.59961" y="4.7998" width="11.7805" height="14.9816" filterUnits="userSpaceOnUse" color-interpolation-filters="sRGB">
<feFlood flood-opacity="0" result="BackgroundImageFix"/>
<feColorMatrix in="SourceAlpha" type="matrix" values="0 0 0 0 0 0 0 0 0 0 0 0 0 0 0 0 0 0 127 0" result="hardAlpha"/>
<feOffset dx="0.4" dy="0.4"/>
<feGaussianBlur stdDeviation="0.2"/>
<feComposite in2="hardAlpha" operator="out"/>
<feColorMatrix type="matrix" values="0 0 0 0 0 0 0 0 0 0 0 0 0 0 0 0 0 0 0.25 0"/>
<feBlend mode="normal" in2="BackgroundImageFix" result="effect1_dropShadow_101_1020"/>
<feBlend mode="normal" in="SourceGraphic" in2="effect1_dropShadow_101_1020" result="shape"/>
</filter>
<filter id="filter2_d_101_1020" x="9.34375" y="4.7998" width="11.8547" height="10.6896" filterUnits="userSpaceOnUse" color-interpolation-filters="sRGB">
<feFlood flood-opacity="0" result="BackgroundImageFix"/>
<feColorMatrix in="SourceAlpha" type="matrix" values="0 0 0 0 0 0 0 0 0 0 0 0 0 0 0 0 0 0 127 0" result="hardAlpha"/>
<feOffset dx="0.4" dy="0.4"/>
<feGaussianBlur stdDeviation="0.2"/>
<feComposite in2="hardAlpha" operator="out"/>
<feColorMatrix type="matrix" values="0 0 0 0 0 0 0 0 0 0 0 0 0 0 0 0 0 0 0.25 0"/>
<feBlend mode="normal" in2="BackgroundImageFix" result="effect1_dropShadow_101_1020"/>
<feBlend mode="normal" in="SourceGraphic" in2="effect1_dropShadow_101_1020" result="shape"/>
</filter>
</defs>
</svg>
