<svg width="24" height="24" viewBox="0 0 24 24" fill="none" xmlns="http://www.w3.org/2000/svg">
<rect width="24" height="24" rx="6" fill="#32363B"/>
<g filter="url(#filter0_d_101_834)">
<path d="M9.36717 14.667C8.6601 14.667 7.982 14.9479 7.48202 15.4478C6.98205 15.9478 6.70117 16.6259 6.70117 17.333C6.701 17.6832 6.76982 18.03 6.90372 18.3536C7.03762 18.6772 7.23397 18.9713 7.48155 19.219C7.72913 19.4667 8.02308 19.6632 8.34663 19.7973C8.67017 19.9313 9.01695 20.0003 9.36717 20.0003C9.7175 20.0005 10.0644 19.9316 10.3881 19.7977C10.7118 19.6637 11.0059 19.4672 11.2537 19.2195C11.5014 18.9718 11.6978 18.6776 11.8318 18.3539C11.9658 18.0302 12.0347 17.6833 12.0345 17.333V14.667H9.36717Z" fill="#4F9B7A"/>
<path d="M9.36717 9.33398H12.0345V14.6673H9.36717C9.01687 14.668 8.66988 14.5996 8.3461 14.4658C8.02233 14.3321 7.72815 14.1358 7.48045 13.8881C7.23275 13.6403 7.0364 13.3462 6.90267 13.0224C6.76894 12.6986 6.70047 12.3516 6.70118 12.0013C6.70118 10.5232 7.89039 9.33398 9.36717 9.33398Z" fill="#6B58A7"/>
<path d="M14.6992 14.666C16.1716 14.666 17.3652 13.4724 17.3652 12C17.3652 10.5276 16.1716 9.33398 14.6992 9.33398C13.2268 9.33398 12.0332 10.5276 12.0332 12C12.0332 13.4724 13.2268 14.666 14.6992 14.666Z" fill="#5F97C9"/>
<path d="M9.36718 4.00001C9.01676 3.9993 8.66966 4.06781 8.34579 4.20163C8.02193 4.33544 7.7277 4.53191 7.47998 4.77975C7.23226 5.0276 7.03594 5.32193 6.90229 5.64586C6.76864 5.96979 6.70029 6.31693 6.70118 6.66735C6.70047 7.01765 6.76895 7.36464 6.90267 7.68842C7.0364 8.01219 7.23275 8.30637 7.48045 8.55407C7.72815 8.80177 8.02233 8.99812 8.34611 9.13185C8.66988 9.26558 9.01687 9.33405 9.36718 9.33334H12.0345V4.00001H9.36718Z" fill="#B0733F"/>
<path d="M12.0332 4H14.6992C16.1773 4 17.3652 5.18922 17.3652 6.66734C17.3659 7.01764 17.2974 7.36464 17.1637 7.68841C17.03 8.01219 16.8336 8.30636 16.5859 8.55407C16.3382 8.80177 16.044 8.99812 15.7203 9.13184C15.3965 9.26557 15.0495 9.33405 14.6992 9.33334H12.0332V4Z" fill="#D2945A"/>
</g>
<defs>
<filter id="filter0_d_101_834" x="6.70117" y="4" width="11.4641" height="16.8" filterUnits="userSpaceOnUse" color-interpolation-filters="sRGB">
<feFlood flood-opacity="0" result="BackgroundImageFix"/>
<feColorMatrix in="SourceAlpha" type="matrix" values="0 0 0 0 0 0 0 0 0 0 0 0 0 0 0 0 0 0 127 0" result="hardAlpha"/>
<feOffset dx="0.4" dy="0.4"/>
<feGaussianBlur stdDeviation="0.2"/>
<feComposite in2="hardAlpha" operator="out"/>
<feColorMatrix type="matrix" values="0 0 0 0 0 0 0 0 0 0 0 0 0 0 0 0 0 0 0.25 0"/>
<feBlend mode="normal" in2="BackgroundImageFix" result="effect1_dropShadow_101_834"/>
<feBlend mode="normal" in="SourceGraphic" in2="effect1_dropShadow_101_834" result="shape"/>
</filter>
</defs>
</svg>
