<svg width="24" height="24" viewBox="0 0 24 24" fill="none" xmlns="http://www.w3.org/2000/svg">
<rect width="24" height="24" rx="6" fill="#32363B"/>
<g filter="url(#filter0_d_101_845)">
<path d="M14.4261 19.9623C15.1354 20.156 15.851 19.5873 15.9479 18.8561C16.0286 18.1595 16.2339 17.4831 16.5542 16.8592C15.7542 15.1405 14.7886 14.2468 13.7292 13.8499C12.6042 13.4312 11.3793 13.5687 10.1355 13.8718C10.4136 15.1343 10.248 16.7874 9.18555 18.9404C9.31054 18.9967 9.43867 19.0342 9.57616 19.0436C9.57616 19.0436 10.3387 19.1061 11.2511 19.1717C12.1574 19.2342 13.5136 19.7061 14.4261 19.9592V19.9623Z" fill="#6B58A7"/>
</g>
<g filter="url(#filter1_d_101_845)">
<path d="M9.18565 18.9403C10.4794 16.3153 10.4419 14.4341 9.89189 13.0966C9.38565 11.8592 8.44504 11.081 7.70443 10.5967C7.68568 10.6686 7.66381 10.7342 7.63568 10.7998L5.89509 14.681C5.80723 14.8754 5.77991 15.0917 5.8167 15.3018C5.85348 15.5119 5.95266 15.7061 6.10133 15.8591L8.88566 18.7247C8.97204 18.8146 9.07359 18.8887 9.18565 18.9434V18.9403Z" fill="#8A78C8"/>
</g>
<g filter="url(#filter2_d_101_845)">
<path d="M12.7018 13.6127C13.0518 13.6502 13.3956 13.7252 13.7268 13.8502C14.7893 14.2471 15.758 15.1377 16.5549 16.8595C16.6111 16.7627 16.6674 16.6658 16.7299 16.572C17.2165 15.8495 17.6833 15.1138 18.1299 14.3658C18.1845 14.2734 18.2099 14.1666 18.2026 14.0595C18.1954 13.9524 18.1558 13.85 18.0892 13.7658C17.7455 13.3096 17.0892 12.3846 16.7299 11.5315C16.3611 10.6503 16.308 9.28155 16.3049 8.61906C16.3049 8.36594 16.2236 8.11907 16.0674 7.91907L13.3018 4.40664C13.2868 4.38842 13.2712 4.3707 13.2549 4.35352C13.4369 4.89842 13.4586 5.48411 13.3174 6.04098C13.1836 6.49062 12.999 6.92359 12.7675 7.33159L12.5425 7.77533C12.1817 8.46212 11.9748 9.21923 11.9362 9.99404C11.8987 10.9128 12.0862 12.069 12.7018 13.6127Z" fill="#3F79AD"/>
</g>
<g filter="url(#filter3_d_101_845)">
<path d="M12.7011 13.6119C12.0855 12.0681 11.8948 10.9119 11.9355 9.99005C11.9741 9.21525 12.181 8.45814 12.5417 7.77135C12.6136 7.62135 12.6917 7.47448 12.7667 7.33073C12.9886 6.89636 13.2042 6.487 13.3167 6.037C13.4579 5.48013 13.4362 4.89444 13.2542 4.34953C13.0646 4.14061 12.7999 4.01538 12.5181 4.00133C12.2364 3.98727 11.9605 4.08552 11.7511 4.27454L8.45741 7.23698C8.2737 7.40251 8.15329 7.62677 8.11679 7.87134L7.7168 10.5275L7.70117 10.5994C8.44491 11.0838 9.38864 11.8619 9.89176 13.0994C9.99573 13.35 10.0773 13.6093 10.1355 13.8744C11.0105 13.6619 11.8761 13.5306 12.7011 13.615V13.6119Z" fill="#5F97C9"/>
</g>
<defs>
<filter id="filter0_d_101_845" x="9.18555" y="13.5869" width="8.16914" height="7.21406" filterUnits="userSpaceOnUse" color-interpolation-filters="sRGB">
<feFlood flood-opacity="0" result="BackgroundImageFix"/>
<feColorMatrix in="SourceAlpha" type="matrix" values="0 0 0 0 0 0 0 0 0 0 0 0 0 0 0 0 0 0 127 0" result="hardAlpha"/>
<feOffset dx="0.4" dy="0.4"/>
<feGaussianBlur stdDeviation="0.2"/>
<feComposite in2="hardAlpha" operator="out"/>
<feColorMatrix type="matrix" values="0 0 0 0 0 0 0 0 0 0 0 0 0 0 0 0 0 0 0.25 0"/>
<feBlend mode="normal" in2="BackgroundImageFix" result="effect1_dropShadow_101_845"/>
<feBlend mode="normal" in="SourceGraphic" in2="effect1_dropShadow_101_845" result="shape"/>
</filter>
<filter id="filter1_d_101_845" x="5.80078" y="10.5967" width="5.25313" height="9.14668" filterUnits="userSpaceOnUse" color-interpolation-filters="sRGB">
<feFlood flood-opacity="0" result="BackgroundImageFix"/>
<feColorMatrix in="SourceAlpha" type="matrix" values="0 0 0 0 0 0 0 0 0 0 0 0 0 0 0 0 0 0 127 0" result="hardAlpha"/>
<feOffset dx="0.4" dy="0.4"/>
<feGaussianBlur stdDeviation="0.2"/>
<feComposite in2="hardAlpha" operator="out"/>
<feColorMatrix type="matrix" values="0 0 0 0 0 0 0 0 0 0 0 0 0 0 0 0 0 0 0.25 0"/>
<feBlend mode="normal" in2="BackgroundImageFix" result="effect1_dropShadow_101_845"/>
<feBlend mode="normal" in="SourceGraphic" in2="effect1_dropShadow_101_845" result="shape"/>
</filter>
<filter id="filter2_d_101_845" x="11.9316" y="4.35352" width="7.07148" height="13.3059" filterUnits="userSpaceOnUse" color-interpolation-filters="sRGB">
<feFlood flood-opacity="0" result="BackgroundImageFix"/>
<feColorMatrix in="SourceAlpha" type="matrix" values="0 0 0 0 0 0 0 0 0 0 0 0 0 0 0 0 0 0 127 0" result="hardAlpha"/>
<feOffset dx="0.4" dy="0.4"/>
<feGaussianBlur stdDeviation="0.2"/>
<feComposite in2="hardAlpha" operator="out"/>
<feColorMatrix type="matrix" values="0 0 0 0 0 0 0 0 0 0 0 0 0 0 0 0 0 0 0.25 0"/>
<feBlend mode="normal" in2="BackgroundImageFix" result="effect1_dropShadow_101_845"/>
<feBlend mode="normal" in="SourceGraphic" in2="effect1_dropShadow_101_845" result="shape"/>
</filter>
<filter id="filter3_d_101_845" x="7.70117" y="4" width="6.50703" height="10.674" filterUnits="userSpaceOnUse" color-interpolation-filters="sRGB">
<feFlood flood-opacity="0" result="BackgroundImageFix"/>
<feColorMatrix in="SourceAlpha" type="matrix" values="0 0 0 0 0 0 0 0 0 0 0 0 0 0 0 0 0 0 127 0" result="hardAlpha"/>
<feOffset dx="0.4" dy="0.4"/>
<feGaussianBlur stdDeviation="0.2"/>
<feComposite in2="hardAlpha" operator="out"/>
<feColorMatrix type="matrix" values="0 0 0 0 0 0 0 0 0 0 0 0 0 0 0 0 0 0 0.25 0"/>
<feBlend mode="normal" in2="BackgroundImageFix" result="effect1_dropShadow_101_845"/>
<feBlend mode="normal" in="SourceGraphic" in2="effect1_dropShadow_101_845" result="shape"/>
</filter>
</defs>
</svg>
