<svg width="24" height="24" viewBox="0 0 24 24" fill="none" xmlns="http://www.w3.org/2000/svg">
<rect width="24" height="24" rx="6" fill="#F4F5F7"/>
<g filter="url(#filter0_d_101_871)">
<path d="M12 5.7002C11.6596 5.70019 11.3456 5.88449 11.1787 6.18229L5.12117 16.9906C4.86603 17.4459 5.02694 18.0225 5.48058 18.2786C5.93418 18.5347 6.50875 18.3732 6.76385 17.9179L11.2121 9.9813C11.2121 9.9813 11.8263 8.26489 12.7985 9.99951L17.2362 17.9179C17.4913 18.3732 18.0658 18.5347 18.5194 18.2786C18.9731 18.0225 19.134 17.4459 18.8788 16.9906L12.8213 6.18229C12.6544 5.88449 12.3404 5.70019 12 5.7002ZM11.9453 12.5939C11.7596 12.5781 11.5735 12.6178 11.4103 12.7082C11.1915 12.8293 11.0296 13.0328 10.9602 13.2737C10.8909 13.5146 10.9197 13.7734 11.0404 13.993L13.1941 17.911C13.3149 18.1306 13.5175 18.2931 13.7576 18.3627C13.9977 18.4323 14.2555 18.4034 14.4743 18.2823C14.6931 18.1611 14.8549 17.9577 14.9243 17.7168C14.9937 17.4758 14.9649 17.2171 14.8442 16.9975L12.6904 13.0795C12.5697 12.8598 12.367 12.6973 12.127 12.6277C12.0677 12.6105 12.0068 12.5992 11.9453 12.5939ZM9.85333 16.2383C9.70464 16.2371 9.55779 16.2713 9.42478 16.338C9.31408 16.3936 9.21536 16.4705 9.13427 16.5643C9.05318 16.6581 8.99129 16.7671 8.95216 16.8849C8.91302 17.0027 8.8974 17.1272 8.90618 17.2511C8.91496 17.375 8.94797 17.4959 9.00333 17.607L9.13794 17.8772C9.19328 17.9883 9.26988 18.0874 9.36337 18.1688C9.45686 18.2502 9.56541 18.3123 9.68281 18.3516C9.80022 18.3909 9.92419 18.4065 10.0476 18.3977C10.1711 18.3889 10.2916 18.3558 10.4023 18.3002C10.513 18.2447 10.6117 18.1678 10.6928 18.074C10.7739 17.9801 10.8358 17.8712 10.8749 17.7533C10.914 17.6355 10.9297 17.5111 10.9209 17.3872C10.9121 17.2633 10.8791 17.1423 10.8237 17.0312L10.6891 16.761C10.6338 16.6499 10.5571 16.5509 10.4636 16.4695C10.3701 16.3882 10.2615 16.3261 10.1441 16.2869C10.0503 16.2555 9.95219 16.2391 9.85333 16.2383Z" fill="#3F79AD"/>
</g>
<defs>
<filter id="filter0_d_101_871" x="5" y="5.7002" width="14.8" height="13.5002" filterUnits="userSpaceOnUse" color-interpolation-filters="sRGB">
<feFlood flood-opacity="0" result="BackgroundImageFix"/>
<feColorMatrix in="SourceAlpha" type="matrix" values="0 0 0 0 0 0 0 0 0 0 0 0 0 0 0 0 0 0 127 0" result="hardAlpha"/>
<feOffset dx="0.4" dy="0.4"/>
<feGaussianBlur stdDeviation="0.2"/>
<feComposite in2="hardAlpha" operator="out"/>
<feColorMatrix type="matrix" values="0 0 0 0 0 0 0 0 0 0 0 0 0 0 0 0 0 0 0.25 0"/>
<feBlend mode="normal" in2="BackgroundImageFix" result="effect1_dropShadow_101_871"/>
<feBlend mode="normal" in="SourceGraphic" in2="effect1_dropShadow_101_871" result="shape"/>
</filter>
</defs>
</svg>
