<svg width="24" height="24" viewBox="0 0 24 24" fill="none" xmlns="http://www.w3.org/2000/svg">
<rect width="24" height="24" rx="6" fill="#32363B"/>
<g filter="url(#filter0_d_101_991)">
<path d="M7.22924 6.80078C6.89281 6.80078 6.29022 6.82176 5.7793 7.26223C5.26837 7.70271 5 8.44925 5 9.50067C4.99998 9.77971 5.15873 10.0346 5.40968 10.1586L9.1421 12.0008L5.40968 13.843C5.15873 13.9669 4.99998 14.2219 5 14.5009C5 15.5523 5.26837 16.2989 5.7793 16.7393C6.29022 17.1798 6.89281 17.2008 7.22924 17.2008H14.1712C14.4598 17.2008 15.0625 17.1947 15.6185 16.785C15.9686 16.527 16.2444 16.1214 16.4009 15.5837L18.7801 16.758C18.9663 16.8433 19 16.848 19 16.7035V15.403C19 15.2932 18.9636 15.2099 18.8028 15.1306L12.462 12.0008L18.8028 8.87098C18.9636 8.79162 19 8.70838 19 8.59856V7.29808C19 7.1536 18.9663 7.15822 18.7801 7.24359L16.4009 8.4179C16.2444 7.88018 15.9686 7.47458 15.6185 7.21659C15.0625 6.80687 14.4598 6.80078 14.1712 6.80078H7.22924ZM7.22924 8.26902H14.1712C14.3923 8.26902 14.6075 8.29793 14.742 8.3971C14.8492 8.47608 14.9922 8.62538 15.0467 9.0863L10.8022 11.1814L6.49983 9.05786C6.5516 8.60055 6.67517 8.43187 6.74376 8.37273C6.83138 8.29719 6.97485 8.26902 7.22924 8.26902ZM10.8022 12.8202L15.0467 14.9153C14.9922 15.3762 14.8492 15.5255 14.742 15.6045C14.6075 15.7036 14.3923 15.7325 14.1712 15.7325H7.22924C6.97485 15.7325 6.83138 15.7044 6.74376 15.6288C6.67517 15.5697 6.5516 15.401 6.49983 14.9437L10.8022 12.8202Z" fill="#F4F5F7"/>
</g>
<defs>
<filter id="filter0_d_101_991" x="5" y="6.80078" width="14.8" height="11.2004" filterUnits="userSpaceOnUse" color-interpolation-filters="sRGB">
<feFlood flood-opacity="0" result="BackgroundImageFix"/>
<feColorMatrix in="SourceAlpha" type="matrix" values="0 0 0 0 0 0 0 0 0 0 0 0 0 0 0 0 0 0 127 0" result="hardAlpha"/>
<feOffset dx="0.4" dy="0.4"/>
<feGaussianBlur stdDeviation="0.2"/>
<feComposite in2="hardAlpha" operator="out"/>
<feColorMatrix type="matrix" values="0 0 0 0 0 0 0 0 0 0 0 0 0 0 0 0 0 0 0.25 0"/>
<feBlend mode="normal" in2="BackgroundImageFix" result="effect1_dropShadow_101_991"/>
<feBlend mode="normal" in="SourceGraphic" in2="effect1_dropShadow_101_991" result="shape"/>
</filter>
</defs>
</svg>
