<svg width="24" height="24" viewBox="0 0 24 24" fill="none" xmlns="http://www.w3.org/2000/svg">
<rect width="24" height="24" rx="6" fill="#4F9B7A"/>
<g filter="url(#filter0_d_101_869)">
<path d="M7.58392 12.4957C7.11577 12.5644 6.62422 12.8114 6.17948 12.9693C5.88542 13.0745 5.53431 13.1389 5.26366 13.2967C5.15974 13.3588 5.07963 13.4538 5.03614 13.5667C4.99265 13.6796 4.98828 13.8038 5.02374 13.9195C5.11883 14.2221 5.43776 14.494 5.67037 14.6942C6.41648 15.336 7.39227 15.7087 8.37684 15.7087C8.6548 15.7087 8.94008 15.6693 9.21072 15.6152C9.32776 15.5918 9.50185 15.5085 9.62035 15.5275C9.7725 15.5523 9.94805 15.7906 10.0666 15.8871C10.3504 16.1166 10.6576 16.2949 10.9824 16.4572C12.2259 17.0711 13.8161 17.0317 15.0333 16.3738C16.6703 15.488 17.4984 13.8493 17.4545 12.0279C17.4399 11.7176 17.3874 11.4103 17.298 11.1128C17.2599 10.9812 17.1429 10.778 17.156 10.645C17.1751 10.4623 17.4691 10.1977 17.5671 10.0354C17.8019 9.63733 17.9723 9.20465 18.0719 8.75342C18.2476 7.95102 18.1742 7.11412 17.8612 6.35458C17.7339 6.0476 17.5891 5.66899 17.2102 5.63537C16.881 5.60613 16.6703 5.91311 16.4743 6.13092C16.2432 6.38528 15.9988 6.62794 15.7692 6.8823C15.5834 7.08695 15.4034 7.33253 15.1752 7.49333C15.0596 7.1308 14.729 6.77705 14.5256 6.45545C14.3501 6.1777 14.1833 5.86195 13.9478 5.63098C13.6648 5.36266 13.292 5.20923 12.902 5.20058C12.512 5.19193 12.1328 5.32869 11.8382 5.58421C11.6188 5.78155 11.4666 6.05199 11.3013 6.29319C10.9238 6.84137 10.482 7.52403 9.88368 7.85294C9.33069 8.157 8.64456 8.27248 8.03158 8.39527C7.32497 8.53707 6.68566 8.70225 6.39307 9.44485C5.92492 10.6187 7.13479 11.5352 7.58392 12.4957ZM18.2884 13.6651C17.7983 13.7572 17.7588 14.3375 17.6593 14.7322C17.6154 14.912 17.551 15.0948 17.5862 15.2819C17.6447 15.5859 17.9373 15.8096 18.2489 15.7613C18.7638 15.678 18.8048 15.1269 18.9072 14.7118C18.9511 14.5378 19.0242 14.3449 18.9921 14.1636C18.9801 14.0841 18.9522 14.0078 18.9101 13.9393C18.868 13.8709 18.8125 13.8115 18.747 13.7649C18.6815 13.7182 18.6073 13.6852 18.5287 13.6678C18.4502 13.6505 18.3689 13.649 18.2898 13.6636M12.3063 17.5477C11.8353 17.6369 11.6758 18.2391 12.0064 18.571C12.2449 18.8078 12.7233 18.7946 13.0378 18.8531C13.1856 18.8809 13.3363 18.9203 13.4855 18.8882C13.9361 18.7917 14.1336 18.1967 13.7898 17.8678C13.5469 17.6369 13.1066 17.6456 12.795 17.5872C12.634 17.5579 12.4687 17.517 12.3049 17.5477H12.3063Z" fill="#F4F5F7"/>
</g>
<defs>
<filter id="filter0_d_101_869" x="5" y="5.2002" width="14.8" height="14.5002" filterUnits="userSpaceOnUse" color-interpolation-filters="sRGB">
<feFlood flood-opacity="0" result="BackgroundImageFix"/>
<feColorMatrix in="SourceAlpha" type="matrix" values="0 0 0 0 0 0 0 0 0 0 0 0 0 0 0 0 0 0 127 0" result="hardAlpha"/>
<feOffset dx="0.4" dy="0.4"/>
<feGaussianBlur stdDeviation="0.2"/>
<feComposite in2="hardAlpha" operator="out"/>
<feColorMatrix type="matrix" values="0 0 0 0 0 0 0 0 0 0 0 0 0 0 0 0 0 0 0.25 0"/>
<feBlend mode="normal" in2="BackgroundImageFix" result="effect1_dropShadow_101_869"/>
<feBlend mode="normal" in="SourceGraphic" in2="effect1_dropShadow_101_869" result="shape"/>
</filter>
</defs>
</svg>
