<svg width="24" height="24" viewBox="0 0 24 24" fill="none" xmlns="http://www.w3.org/2000/svg">
<rect width="24" height="24" rx="6" fill="#3F79AD"/>
<g filter="url(#filter0_d_101_898)">
<path d="M12.2832 9.97167C12.4413 9.71179 12.6445 9.4632 12.8703 9.23721C13.1977 8.90953 13.559 8.64964 13.9542 8.45755C13.4574 8.18637 12.8816 8.00558 12.2832 7.97168V9.97167Z" fill="#D1C06A"/>
<path d="M11.718 11.7123V7.96094C10.5438 8.04003 9.50512 8.6163 8.81641 9.48636C8.97447 9.93833 9.24544 10.3564 9.61802 10.7293C10.2277 11.3282 10.9051 11.6558 11.718 11.7123Z" fill="#D1C06A"/>
<path d="M9.63027 5.98305C8.96414 6.64971 8.63672 7.42937 8.63672 8.35592C8.63672 8.8305 8.71575 9.25987 8.88511 9.65535C8.86253 9.59885 8.83994 9.54236 8.81736 9.48586C9.50607 8.61581 10.5448 8.03954 11.719 7.96044V5C10.9061 5.0565 10.2287 5.38418 9.63027 5.98305Z" fill="#B8A64F"/>
<path d="M12.2949 11.7233H16.0546C15.9756 10.5481 15.3885 9.5086 14.5191 8.81934C14.0675 8.97753 13.6498 9.24871 13.2772 9.62159C12.6788 10.2318 12.3514 10.921 12.2949 11.7233Z" fill="#D1C06A"/>
<path d="M18.0176 9.63302C17.3514 8.96635 16.5724 8.63867 15.6466 8.63867C15.2402 8.63867 14.8676 8.69517 14.5176 8.81946C15.3869 9.50873 15.974 10.5483 16.0531 11.7234H18.9998C18.9434 10.9212 18.616 10.2319 18.0176 9.63302Z" fill="#B8A64F"/>
<path d="M11.7069 12.2881H7.94727C8.0263 13.4632 8.6021 14.5028 9.46017 15.192C9.92307 15.0338 10.3408 14.7627 10.7247 14.3785C11.3231 13.7796 11.6505 13.1016 11.7069 12.2881Z" fill="#D1C06A"/>
<path d="M9.45968 15.192C8.59032 14.5028 8.01452 13.4632 7.94677 12.2881H5C5.05645 13.1016 5.38387 13.7796 5.98226 14.3785C6.64839 15.0451 7.42742 15.3728 8.35323 15.3728C8.95161 15.3728 9.48226 15.2372 9.95645 14.9773C9.79839 15.0564 9.62903 15.1355 9.45968 15.192Z" fill="#B8A64F"/>
<path d="M14.0332 12.2886C14.2929 12.4468 14.5413 12.6502 14.7671 12.8762C15.1058 13.2152 15.3655 13.5768 15.5574 13.9723C15.8397 13.4638 16.009 12.8875 16.0542 12.2773H14.0332V12.2886Z" fill="#D1C06A"/>
<path d="M12.3008 12.3008V16.0748C13.475 15.9957 14.5137 15.4081 15.2024 14.5381C15.0443 14.0748 14.7734 13.6567 14.3895 13.2725C13.7911 12.685 13.1024 12.3573 12.3008 12.3008Z" fill="#D1C06A"/>
<path d="M14.959 14.0508C15.0493 14.209 15.1171 14.3785 15.1848 14.548C14.4961 15.418 13.4574 15.9943 12.2832 16.0847V19.0338C13.0961 18.9773 13.7961 18.6383 14.3719 18.0508C15.038 17.3841 15.3655 16.6044 15.3655 15.6666C15.3655 15.0564 15.23 14.5254 14.959 14.0508Z" fill="#B8A64F"/>
<path d="M9.96866 11.7231C9.70898 11.5649 9.4606 11.3615 9.23479 11.1355C8.90737 10.8078 8.64769 10.4463 8.45576 10.0508C8.1735 10.5593 8.00415 11.1242 7.95898 11.7344H9.96866V11.7231Z" fill="#D1C06A"/>
<path d="M11.7189 14.04C11.5609 14.2999 11.3576 14.5485 11.1318 14.7745C10.7931 15.1135 10.4318 15.3734 10.0254 15.5655C10.5335 15.8479 11.1093 16.0287 11.7189 16.0626V14.04Z" fill="#D1C06A"/>
</g>
<defs>
<filter id="filter0_d_101_898" x="5" y="5" width="14.8" height="14.8342" filterUnits="userSpaceOnUse" color-interpolation-filters="sRGB">
<feFlood flood-opacity="0" result="BackgroundImageFix"/>
<feColorMatrix in="SourceAlpha" type="matrix" values="0 0 0 0 0 0 0 0 0 0 0 0 0 0 0 0 0 0 127 0" result="hardAlpha"/>
<feOffset dx="0.4" dy="0.4"/>
<feGaussianBlur stdDeviation="0.2"/>
<feComposite in2="hardAlpha" operator="out"/>
<feColorMatrix type="matrix" values="0 0 0 0 0 0 0 0 0 0 0 0 0 0 0 0 0 0 0.25 0"/>
<feBlend mode="normal" in2="BackgroundImageFix" result="effect1_dropShadow_101_898"/>
<feBlend mode="normal" in="SourceGraphic" in2="effect1_dropShadow_101_898" result="shape"/>
</filter>
</defs>
</svg>
