<svg width="24" height="24" viewBox="0 0 24 24" fill="none" xmlns="http://www.w3.org/2000/svg">
<rect width="24" height="24" rx="6" fill="#6B7078"/>
<g filter="url(#filter0_d_101_825)">
<path d="M7.60078 4C7.15758 4 6.80078 4.3568 6.80078 4.8V5.6H17.2008V4.8C17.2008 4.3568 16.844 4 16.4008 4H7.60078ZM6.80078 17.6V19.2C6.80078 19.6432 7.15758 20 7.60078 20H16.4008C16.844 20 17.2008 19.6432 17.2008 19.2V17.6H6.80078Z" fill="#E4E4E4"/>
</g>
<path d="M13.0008 4.80078H11.0008C10.8903 4.80078 10.8008 4.89032 10.8008 5.00078C10.8008 5.11124 10.8903 5.20078 11.0008 5.20078H13.0008C13.1112 5.20078 13.2008 5.11124 13.2008 5.00078C13.2008 4.89032 13.1112 4.80078 13.0008 4.80078Z" fill="#32363B"/>
<g filter="url(#filter1_d_101_825)">
<path d="M17.2008 5.60059H6.80078V17.6006H17.2008V5.60059Z" fill="#32363B"/>
</g>
<path d="M12.4012 18H11.6012C11.3803 18 11.2012 18.1791 11.2012 18.4V19.2C11.2012 19.4209 11.3803 19.6 11.6012 19.6H12.4012C12.6221 19.6 12.8012 19.4209 12.8012 19.2V18.4C12.8012 18.1791 12.6221 18 12.4012 18Z" fill="#32363B"/>
<path d="M15.2 18.4004H14.4C14.1791 18.4004 14 18.5795 14 18.8004C14 19.0213 14.1791 19.2004 14.4 19.2004H15.2C15.4209 19.2004 15.6 19.0213 15.6 18.8004C15.6 18.5795 15.4209 18.4004 15.2 18.4004Z" fill="#32363B"/>
<path d="M9.60039 18.4004H8.80039C8.57948 18.4004 8.40039 18.5795 8.40039 18.8004C8.40039 19.0213 8.57948 19.2004 8.80039 19.2004H9.60039C9.8213 19.2004 10.0004 19.0213 10.0004 18.8004C10.0004 18.5795 9.8213 18.4004 9.60039 18.4004Z" fill="#32363B"/>
<path d="M13.7996 5.20078C13.9101 5.20078 13.9996 5.11124 13.9996 5.00078C13.9996 4.89032 13.9101 4.80078 13.7996 4.80078C13.6892 4.80078 13.5996 4.89032 13.5996 5.00078C13.5996 5.11124 13.6892 5.20078 13.7996 5.20078Z" fill="#32363B"/>
<g filter="url(#filter2_d_101_825)">
<path d="M12.8 7.60059L11.2 7.84259V13.6302L12.8 13.2006V10.9646L14.4 13.6006L16 13.0006L14 10.6006L16.0008 8.00139L14.4484 7.60059L12.8 10.2242V7.60059ZM9.542 9.17019C9.5044 9.17019 9.4664 9.18499 9.4376 9.21379L8.8084 9.84259C8.7504 9.90099 8.7644 9.98379 8.8084 10.053L9.4592 11.075C9.4112 11.175 9.3696 11.2778 9.3344 11.3834C9.3328 11.3878 9.3304 11.3922 9.3288 11.3966L8.1484 11.659C8.0684 11.677 8 11.7254 8 11.8078V12.2006V12.5934C8 12.6758 8.0684 12.7242 8.1484 12.7422L9.3288 13.0046C9.3316 13.0122 9.3356 13.0194 9.3384 13.027C9.3724 13.1294 9.4128 13.2298 9.4592 13.327L8.8084 14.3482C8.7644 14.4174 8.7504 14.5002 8.8084 14.5586L9.4376 15.1874C9.4956 15.2454 9.5888 15.2454 9.6468 15.1874L10.6672 14.5374C10.7676 14.5862 10.8708 14.6282 10.9764 14.6638C10.9836 14.6662 10.99 14.6702 10.9968 14.6726L11.2584 15.8522C11.2584 15.9342 11.3248 16.0006 11.4072 16.0006H12.2952C12.3772 16.0006 12.426 15.9322 12.4436 15.8522L12.7056 14.6366C12.8256 14.5914 12.9424 14.5374 13.0548 14.475L14.0508 15.1874C14.1088 15.2454 14.202 15.2454 14.26 15.1874L14.8892 14.5586C14.9472 14.5002 14.9332 14.4174 14.8892 14.3482L14.51 13.7734L14.4704 13.7882C14.3804 13.8218 14.2788 13.787 14.2288 13.7046L13.8304 13.0482C13.4984 13.8422 12.7144 14.4006 11.8 14.4006C10.5848 14.4006 9.6 13.4158 9.6 12.2006C9.6 11.2682 10.1812 10.4734 11 10.153V9.71459L10.9968 9.72859C10.988 9.73179 10.98 9.73659 10.9712 9.73979C10.8668 9.77419 10.7648 9.81539 10.6656 9.86299L9.6468 9.21379C9.618 9.18499 9.58 9.17019 9.542 9.17019Z" fill="white"/>
</g>
<defs>
<filter id="filter0_d_101_825" x="6.80078" y="4" width="11.2004" height="16.8" filterUnits="userSpaceOnUse" color-interpolation-filters="sRGB">
<feFlood flood-opacity="0" result="BackgroundImageFix"/>
<feColorMatrix in="SourceAlpha" type="matrix" values="0 0 0 0 0 0 0 0 0 0 0 0 0 0 0 0 0 0 127 0" result="hardAlpha"/>
<feOffset dx="0.4" dy="0.4"/>
<feGaussianBlur stdDeviation="0.2"/>
<feComposite in2="hardAlpha" operator="out"/>
<feColorMatrix type="matrix" values="0 0 0 0 0 0 0 0 0 0 0 0 0 0 0 0 0 0 0.25 0"/>
<feBlend mode="normal" in2="BackgroundImageFix" result="effect1_dropShadow_101_825"/>
<feBlend mode="normal" in="SourceGraphic" in2="effect1_dropShadow_101_825" result="shape"/>
</filter>
<filter id="filter1_d_101_825" x="6.80078" y="5.20059" width="11.2004" height="12.8" filterUnits="userSpaceOnUse" color-interpolation-filters="sRGB">
<feFlood flood-opacity="0" result="BackgroundImageFix"/>
<feColorMatrix in="SourceAlpha" type="matrix" values="0 0 0 0 0 0 0 0 0 0 0 0 0 0 0 0 0 0 127 0" result="hardAlpha"/>
<feOffset dx="0.4"/>
<feGaussianBlur stdDeviation="0.2"/>
<feComposite in2="hardAlpha" operator="out"/>
<feColorMatrix type="matrix" values="0 0 0 0 0 0 0 0 0 0 0 0 0 0 0 0 0 0 0.25 0"/>
<feBlend mode="normal" in2="BackgroundImageFix" result="effect1_dropShadow_101_825"/>
<feBlend mode="normal" in="SourceGraphic" in2="effect1_dropShadow_101_825" result="shape"/>
</filter>
<filter id="filter2_d_101_825" x="8" y="7.60059" width="8.8" height="9.20039" filterUnits="userSpaceOnUse" color-interpolation-filters="sRGB">
<feFlood flood-opacity="0" result="BackgroundImageFix"/>
<feColorMatrix in="SourceAlpha" type="matrix" values="0 0 0 0 0 0 0 0 0 0 0 0 0 0 0 0 0 0 127 0" result="hardAlpha"/>
<feOffset dx="0.4" dy="0.4"/>
<feGaussianBlur stdDeviation="0.2"/>
<feComposite in2="hardAlpha" operator="out"/>
<feColorMatrix type="matrix" values="0 0 0 0 0 0 0 0 0 0 0 0 0 0 0 0 0 0 0.25 0"/>
<feBlend mode="normal" in2="BackgroundImageFix" result="effect1_dropShadow_101_825"/>
<feBlend mode="normal" in="SourceGraphic" in2="effect1_dropShadow_101_825" result="shape"/>
</filter>
</defs>
</svg>
