<svg width="24" height="24" viewBox="0 0 24 24" fill="none" xmlns="http://www.w3.org/2000/svg">
<rect width="24" height="24" rx="6" fill="#6B58A7"/>
<g filter="url(#filter0_d_101_913)">
<path d="M15.6424 5.62049C14.5673 5.03327 13.3337 4.7002 12.02 4.7002C9.73497 4.7002 7.69228 5.7079 6.30441 7.30788C6.12315 13.2561 12.7715 19.7963 15.637 17.7003C17.2623 16.5115 16.1967 9.44929 15.6424 5.62049Z" fill="#9F5F7F"/>
</g>
<g filter="url(#filter1_d_101_913)">
<path d="M14.7063 4L14.6146 4.1131C14.5988 4.13249 14.5833 4.15218 14.5672 4.17262C14.2109 4.64022 14.0084 5.16842 13.7955 5.73586C13.7143 5.95357 13.6283 6.28189 13.5804 6.55506C13.5325 6.82898 13.5282 7.43759 13.5729 7.67708C13.691 8.31151 13.961 8.90932 14.3572 9.41518C14.8165 9.91003 15.3158 10.4555 15.5019 10.8534C15.7577 11.4009 15.8658 11.8883 15.8658 12.494C15.8658 12.6766 15.8553 12.8643 15.8395 12.9762C15.4517 14.7705 14.1677 16.1809 12.3656 16.1905C11.2248 16.1947 9.69078 15.7531 9.484 14.5872C10.0335 14.67 10.4454 14.6404 10.8379 14.6376C11.2006 14.6351 11.5466 14.558 11.9692 14.3361C12.5988 14.0035 12.9105 13.9421 13.0828 13.9619C13.3367 13.991 13.3687 13.9904 13.4242 13.9559C13.5419 13.8828 13.5757 13.8535 13.5077 13.7144C13.4218 13.5389 13.1204 13.2937 12.8677 13.1936C12.6561 13.1097 12.5408 13.0888 12.2872 13.0887C12.029 13.0885 11.8099 13.1008 11.3443 13.2405C10.8795 13.3799 10.6219 13.4008 10.3352 13.3216C9.14294 13.0392 8.53755 12.0479 9.1179 11.2823C9.46694 11.2664 10.1759 11.4987 10.3969 11.648C10.6083 11.4424 10.1494 11.1261 10.0758 10.837C10.0758 10.4762 10.8188 10.2661 11.124 10.1302C11.3251 10.0409 11.5211 9.94926 11.5594 9.92705C11.6426 9.87877 11.8031 9.72463 11.8684 9.63017C11.9681 9.48598 12.0336 9.21895 11.9933 9.12273C11.9427 9.00182 11.6024 8.92656 10.7789 8.85413C10.468 8.82678 10.2554 8.68618 10.0916 8.40026C9.80452 7.7435 10.8211 7.11877 11.1849 6.78792C10.6063 6.47543 9.5308 7.06587 9.18622 7.38599C9.07584 7.49407 9.10959 7.49241 8.7749 7.40533C8.75257 7.3995 8.72944 7.39437 8.70572 7.38896C8.69725 7.38706 8.68863 7.38484 8.68016 7.38301C8.66476 7.37958 8.64857 7.3765 8.63278 7.37334C8.62162 7.37105 8.6105 7.36881 8.59895 7.36664C8.58586 7.36435 8.57301 7.36152 8.55984 7.3592C8.54598 7.35691 8.53242 7.35479 8.51849 7.3525C8.50848 7.35098 8.49842 7.34968 8.48841 7.34804C8.39978 7.33421 8.30719 7.32235 8.21394 7.31381C8.11196 7.30452 8.0097 7.29832 7.91091 7.29596C7.88126 7.2952 7.85173 7.2952 7.82293 7.2952C7.79174 7.29513 7.76174 7.29516 7.73194 7.29596C7.72617 7.29611 7.72042 7.29633 7.71465 7.29672C7.68962 7.29748 7.66494 7.29855 7.64096 7.29969C7.63711 7.29989 7.63426 7.30006 7.63118 7.30045C7.60462 7.30198 7.57924 7.30403 7.55448 7.30641C7.55063 7.30659 7.55039 7.30677 7.54846 7.30717C7.52305 7.30946 7.49945 7.3129 7.47628 7.3161H7.47551C7.46511 7.31762 7.45394 7.31884 7.44393 7.32056C7.33362 7.32018 7.23247 7.35112 7.14615 7.3905C6.85648 6.90646 6.78624 6.00855 6.56113 5.52381C6.03461 5.79684 5.67393 7.13869 5.58434 7.596C5.55008 7.77786 5.51085 8.13099 5.51065 8.25597C5.51062 8.27396 5.50608 8.28097 5.50539 8.29392C4.74465 9.47526 4.30078 10.8763 4.30078 12.381C4.30078 16.5888 7.74819 20 12.0008 20C16.2534 20 19.7008 16.5888 19.7008 12.381C19.7008 9.71429 18.4939 8.34419 17.299 6.47247C17.299 6.47133 17.2991 6.47064 17.2953 6.46949C17.1192 6.2089 16.9668 5.92282 16.8433 5.63914C16.8241 5.5766 16.8012 5.5253 16.793 5.5253C16.7891 5.5253 16.7855 5.52777 16.7809 5.532C16.6257 5.7177 16.5506 6.44091 16.4674 6.66667C15.8664 5.84297 15.1213 5.02418 14.7289 4.11161L14.7063 4Z" fill="#F4F5F7"/>
</g>
<defs>
<filter id="filter0_d_101_913" x="6.30078" y="4.7002" width="10.9992" height="14.2004" filterUnits="userSpaceOnUse" color-interpolation-filters="sRGB">
<feFlood flood-opacity="0" result="BackgroundImageFix"/>
<feColorMatrix in="SourceAlpha" type="matrix" values="0 0 0 0 0 0 0 0 0 0 0 0 0 0 0 0 0 0 127 0" result="hardAlpha"/>
<feOffset dx="0.4" dy="0.4"/>
<feGaussianBlur stdDeviation="0.2"/>
<feComposite in2="hardAlpha" operator="out"/>
<feColorMatrix type="matrix" values="0 0 0 0 0 0 0 0 0 0 0 0 0 0 0 0 0 0 0.25 0"/>
<feBlend mode="normal" in2="BackgroundImageFix" result="effect1_dropShadow_101_913"/>
<feBlend mode="normal" in="SourceGraphic" in2="effect1_dropShadow_101_913" result="shape"/>
</filter>
<filter id="filter1_d_101_913" x="4.30078" y="4" width="16.2004" height="16.8" filterUnits="userSpaceOnUse" color-interpolation-filters="sRGB">
<feFlood flood-opacity="0" result="BackgroundImageFix"/>
<feColorMatrix in="SourceAlpha" type="matrix" values="0 0 0 0 0 0 0 0 0 0 0 0 0 0 0 0 0 0 127 0" result="hardAlpha"/>
<feOffset dx="0.4" dy="0.4"/>
<feGaussianBlur stdDeviation="0.2"/>
<feComposite in2="hardAlpha" operator="out"/>
<feColorMatrix type="matrix" values="0 0 0 0 0 0 0 0 0 0 0 0 0 0 0 0 0 0 0.25 0"/>
<feBlend mode="normal" in2="BackgroundImageFix" result="effect1_dropShadow_101_913"/>
<feBlend mode="normal" in="SourceGraphic" in2="effect1_dropShadow_101_913" result="shape"/>
</filter>
</defs>
</svg>
