<svg width="24" height="24" viewBox="0 0 24 24" fill="none" xmlns="http://www.w3.org/2000/svg">
<rect width="24" height="24" rx="6" fill="#3F79AD"/>
<g filter="url(#filter0_d_101_933)">
<path fill-rule="evenodd" clip-rule="evenodd" d="M5 13.5771C5.69098 13.3753 6.19851 12.7394 6.19851 11.9811C6.19851 11.229 5.69404 10.59 5 10.3913C5.48307 10.7551 5.79188 11.333 5.79188 11.9811C5.79188 12.6324 5.48307 13.2164 5 13.5771ZM5.58703 14.4271C5.48613 14.4271 5.38524 14.4179 5.29046 14.4118C6.49509 14.2651 7.43066 13.2378 7.43066 11.9903C7.43066 10.7459 6.49509 9.71864 5.29046 9.56883C5.38829 9.5566 5.48613 9.55354 5.58703 9.55354C6.9323 9.55354 8.02686 10.645 8.02686 11.9934C8.02686 13.3417 6.93536 14.4271 5.58703 14.4271ZM6.44311 15.8366C6.28412 15.8366 6.12514 15.8274 5.96921 15.806C7.87399 15.5706 9.34767 13.9471 9.34767 11.9842C9.34767 10.0213 7.87399 8.39172 5.96921 8.16241C6.12514 8.14407 6.28107 8.13184 6.44311 8.13184C8.57108 8.13184 10.2924 9.85929 10.2924 11.9811C10.2985 14.1122 8.57414 15.8366 6.44311 15.8366Z" fill="#F4F5F7"/>
</g>
<g filter="url(#filter1_d_101_933)">
<path fill-rule="evenodd" clip-rule="evenodd" d="M11.9185 19.0655C15.8259 19.0655 18.9995 15.8949 18.9995 11.9845C18.9995 8.07401 15.8259 4.90039 11.9185 4.90039C11.625 4.90039 11.3345 4.91568 11.0471 4.95542C14.5509 5.38347 17.2598 8.36447 17.2598 11.9875C17.2598 15.6014 14.5479 18.5885 11.0471 19.0196C11.3345 19.0533 11.625 19.0655 11.9185 19.0655ZM7.68087 17.1668C7.46991 17.1668 7.25283 17.1546 7.04492 17.1271C9.604 16.8152 11.5852 14.6322 11.5852 11.9875C11.5852 9.34284 9.604 7.15984 7.04492 6.85103C7.25283 6.82352 7.46685 6.80823 7.68087 6.80823C10.5396 6.80823 12.8602 9.12577 12.8602 11.9875C12.8602 14.8493 10.5426 17.1668 7.68087 17.1668ZM9.41443 18.3134C9.15149 18.3134 8.88856 18.2981 8.63785 18.2675C11.7687 17.8853 14.1901 15.2162 14.1901 11.9845C14.1901 8.75276 11.7687 6.08362 8.63785 5.7045C8.89161 5.67392 9.15149 5.65558 9.41443 5.65558C12.9091 5.65558 15.7464 8.49288 15.7464 11.9875C15.7464 15.4822 12.9091 18.3134 9.41443 18.3134Z" fill="#F4F5F7"/>
</g>
<defs>
<filter id="filter0_d_101_933" x="5" y="8.13184" width="6.09297" height="8.50508" filterUnits="userSpaceOnUse" color-interpolation-filters="sRGB">
<feFlood flood-opacity="0" result="BackgroundImageFix"/>
<feColorMatrix in="SourceAlpha" type="matrix" values="0 0 0 0 0 0 0 0 0 0 0 0 0 0 0 0 0 0 127 0" result="hardAlpha"/>
<feOffset dx="0.4" dy="0.4"/>
<feGaussianBlur stdDeviation="0.2"/>
<feComposite in2="hardAlpha" operator="out"/>
<feColorMatrix type="matrix" values="0 0 0 0 0 0 0 0 0 0 0 0 0 0 0 0 0 0 0.25 0"/>
<feBlend mode="normal" in2="BackgroundImageFix" result="effect1_dropShadow_101_933"/>
<feBlend mode="normal" in="SourceGraphic" in2="effect1_dropShadow_101_933" result="shape"/>
</filter>
<filter id="filter1_d_101_933" x="7.04492" y="4.90039" width="12.7551" height="14.965" filterUnits="userSpaceOnUse" color-interpolation-filters="sRGB">
<feFlood flood-opacity="0" result="BackgroundImageFix"/>
<feColorMatrix in="SourceAlpha" type="matrix" values="0 0 0 0 0 0 0 0 0 0 0 0 0 0 0 0 0 0 127 0" result="hardAlpha"/>
<feOffset dx="0.4" dy="0.4"/>
<feGaussianBlur stdDeviation="0.2"/>
<feComposite in2="hardAlpha" operator="out"/>
<feColorMatrix type="matrix" values="0 0 0 0 0 0 0 0 0 0 0 0 0 0 0 0 0 0 0.25 0"/>
<feBlend mode="normal" in2="BackgroundImageFix" result="effect1_dropShadow_101_933"/>
<feBlend mode="normal" in="SourceGraphic" in2="effect1_dropShadow_101_933" result="shape"/>
</filter>
</defs>
</svg>
