<svg width="24" height="24" viewBox="0 0 24 24" fill="none" xmlns="http://www.w3.org/2000/svg">
<rect width="24" height="24" rx="6" fill="#F4F5F7"/>
<g filter="url(#filter0_d_101_965)">
<path d="M11.9744 5.00002C10.4937 5.00688 9.07599 5.59991 8.0314 6.64937C6.98681 7.69883 6.40037 9.11929 6.40039 10.6C6.40039 11.4975 6.61612 12.3819 7.02938 13.1786C7.44264 13.9752 8.04134 14.6609 8.77502 15.1779C9.509 15.7664 10.49 16.5547 11.0914 17.3481C11.5912 18.0075 11.435 19 12.0004 19C12.5657 19 12.4096 18.0075 12.9094 17.3481C13.5106 16.555 14.4911 15.7669 15.2251 15.1784C15.9589 14.6615 16.5578 13.9757 16.9712 13.1789C17.3846 12.3821 17.6004 11.4977 17.6004 10.6C17.6004 9.1148 17.0104 7.69042 15.9602 6.64022C14.91 5.59001 13.4856 5.00002 12.0004 5.00002C11.9917 4.99999 11.9831 4.99999 11.9744 5.00002Z" fill="#B04F58"/>
<path d="M12.0012 12.5258C13.0643 12.5258 13.9262 11.6639 13.9262 10.6008C13.9262 9.53763 13.0643 8.67578 12.0012 8.67578C10.938 8.67578 10.0762 9.53763 10.0762 10.6008C10.0762 11.6639 10.938 12.5258 12.0012 12.5258Z" fill="#F4F5F7"/>
</g>
<defs>
<filter id="filter0_d_101_965" x="6.40039" y="5" width="11.9992" height="14.8" filterUnits="userSpaceOnUse" color-interpolation-filters="sRGB">
<feFlood flood-opacity="0" result="BackgroundImageFix"/>
<feColorMatrix in="SourceAlpha" type="matrix" values="0 0 0 0 0 0 0 0 0 0 0 0 0 0 0 0 0 0 127 0" result="hardAlpha"/>
<feOffset dx="0.4" dy="0.4"/>
<feGaussianBlur stdDeviation="0.2"/>
<feComposite in2="hardAlpha" operator="out"/>
<feColorMatrix type="matrix" values="0 0 0 0 0 0 0 0 0 0 0 0 0 0 0 0 0 0 0.25 0"/>
<feBlend mode="normal" in2="BackgroundImageFix" result="effect1_dropShadow_101_965"/>
<feBlend mode="normal" in="SourceGraphic" in2="effect1_dropShadow_101_965" result="shape"/>
</filter>
</defs>
</svg>
