<svg width="24" height="24" viewBox="0 0 24 24" fill="none" xmlns="http://www.w3.org/2000/svg">
<g clip-path="url(#clip0_101_979)">
<g filter="url(#filter0_d_101_979)">
<path d="M-0.0996094 4.71387V20.6449L24.0107 16.8656V8.49318L-0.0996094 4.71387Z" fill="#4F9B7A"/>
</g>
<g filter="url(#filter1_d_101_979)">
<path d="M0.865908 -1.26562C0.331011 -1.26562 -0.0996094 -0.834994 -0.0996094 -0.300098L-0.0996002 4.39384L24.3107 8.61286V0.299899C24.3107 -0.234997 23.8801 -0.665618 23.3452 -0.665618L0.865908 -1.26562Z" fill="#6FBF9A"/>
<path d="M24.0103 16.8662L0.5 20.9455C0.5 21.4804 0.930621 25.211 1.46552 25.211H23.0448C23.5797 25.211 24.0103 24.7804 24.0103 24.2455V16.8662Z" fill="#6FBF9A"/>
</g>
<g filter="url(#filter2_d_101_979)">
<path d="M-0.0166352 3.83887L-0.0996094 4.80344L23.9278 8.96861C23.9551 8.97446 23.9828 8.97793 24.0107 8.97898V8.00403L-0.0166352 3.83887ZM24.0089 16.3821C23.9816 16.3826 23.9545 16.3855 23.9278 16.3906L0.500391 20.4558V21.4307C0.528296 21.4297 0.556059 21.4262 0.583365 21.4203L24.0107 17.3552V16.3821C24.0101 16.3821 24.0095 16.3821 24.0089 16.3821Z" fill="#F4F5F7"/>
</g>
<g filter="url(#filter3_d_101_979)">
<path d="M10.989 18.7139H12.9201L13.4028 12.9208L15.8166 11.9552H16.2994L16.7821 8.57594L16.2994 6.6449L13.8856 4.71387H10.5063L8.09247 6.16214L7.12695 8.09318L7.60971 11.9552L10.5063 12.9208L10.989 18.7139Z" fill="#5F97C9"/>
<path d="M7.61047 11.9552C7.61047 11.9552 10.2017 12.0048 10.507 12.9208C10.9898 14.369 10.9898 18.7139 10.9898 18.7139H12.9208C12.9208 18.7139 12.9208 14.369 13.4036 12.9208C13.7089 12.0048 16.3001 11.9552 16.3001 11.9552C16.3001 11.9552 18.7139 4.71387 11.9553 4.71387C5.19667 4.71387 7.61047 11.9552 7.61047 11.9552Z" stroke="#F4F5F7" stroke-width="0.8" stroke-linecap="round" stroke-linejoin="round"/>
</g>
</g>
<defs>
<filter id="filter0_d_101_979" x="-0.0996094" y="4.71387" width="24.9094" height="16.7307" filterUnits="userSpaceOnUse" color-interpolation-filters="sRGB">
<feFlood flood-opacity="0" result="BackgroundImageFix"/>
<feColorMatrix in="SourceAlpha" type="matrix" values="0 0 0 0 0 0 0 0 0 0 0 0 0 0 0 0 0 0 127 0" result="hardAlpha"/>
<feOffset dx="0.4" dy="0.4"/>
<feGaussianBlur stdDeviation="0.2"/>
<feComposite in2="hardAlpha" operator="out"/>
<feColorMatrix type="matrix" values="0 0 0 0 0 0 0 0 0 0 0 0 0 0 0 0 0 0 0.25 0"/>
<feBlend mode="normal" in2="BackgroundImageFix" result="effect1_dropShadow_101_979"/>
<feBlend mode="normal" in="SourceGraphic" in2="effect1_dropShadow_101_979" result="shape"/>
</filter>
<filter id="filter1_d_101_979" x="-0.0996094" y="-1.26562" width="25.2102" height="27.2766" filterUnits="userSpaceOnUse" color-interpolation-filters="sRGB">
<feFlood flood-opacity="0" result="BackgroundImageFix"/>
<feColorMatrix in="SourceAlpha" type="matrix" values="0 0 0 0 0 0 0 0 0 0 0 0 0 0 0 0 0 0 127 0" result="hardAlpha"/>
<feOffset dx="0.4" dy="0.4"/>
<feGaussianBlur stdDeviation="0.2"/>
<feComposite in2="hardAlpha" operator="out"/>
<feColorMatrix type="matrix" values="0 0 0 0 0 0 0 0 0 0 0 0 0 0 0 0 0 0 0.25 0"/>
<feBlend mode="normal" in2="BackgroundImageFix" result="effect1_dropShadow_101_979"/>
<feBlend mode="normal" in="SourceGraphic" in2="effect1_dropShadow_101_979" result="shape"/>
</filter>
<filter id="filter2_d_101_979" x="-0.0996094" y="3.83887" width="24.9094" height="18.3918" filterUnits="userSpaceOnUse" color-interpolation-filters="sRGB">
<feFlood flood-opacity="0" result="BackgroundImageFix"/>
<feColorMatrix in="SourceAlpha" type="matrix" values="0 0 0 0 0 0 0 0 0 0 0 0 0 0 0 0 0 0 127 0" result="hardAlpha"/>
<feOffset dx="0.4" dy="0.4"/>
<feGaussianBlur stdDeviation="0.2"/>
<feComposite in2="hardAlpha" operator="out"/>
<feColorMatrix type="matrix" values="0 0 0 0 0 0 0 0 0 0 0 0 0 0 0 0 0 0 0.25 0"/>
<feBlend mode="normal" in2="BackgroundImageFix" result="effect1_dropShadow_101_979"/>
<feBlend mode="normal" in="SourceGraphic" in2="effect1_dropShadow_101_979" result="shape"/>
</filter>
<filter id="filter3_d_101_979" x="6.79102" y="4.31348" width="11.1281" height="15.6008" filterUnits="userSpaceOnUse" color-interpolation-filters="sRGB">
<feFlood flood-opacity="0" result="BackgroundImageFix"/>
<feColorMatrix in="SourceAlpha" type="matrix" values="0 0 0 0 0 0 0 0 0 0 0 0 0 0 0 0 0 0 127 0" result="hardAlpha"/>
<feOffset dx="0.4" dy="0.4"/>
<feGaussianBlur stdDeviation="0.2"/>
<feComposite in2="hardAlpha" operator="out"/>
<feColorMatrix type="matrix" values="0 0 0 0 0 0 0 0 0 0 0 0 0 0 0 0 0 0 0.25 0"/>
<feBlend mode="normal" in2="BackgroundImageFix" result="effect1_dropShadow_101_979"/>
<feBlend mode="normal" in="SourceGraphic" in2="effect1_dropShadow_101_979" result="shape"/>
</filter>
<clipPath id="clip0_101_979">
<rect width="24" height="24" rx="6" fill="white"/>
</clipPath>
</defs>
</svg>
