<svg width="24" height="24" viewBox="0 0 24 24" fill="none" xmlns="http://www.w3.org/2000/svg">
<rect width="24" height="24" rx="6" fill="#C07FA0"/>
<g filter="url(#filter0_d_101_953)">
<path d="M15.8887 5H8.01367C7.26992 5 6.70117 5.56875 6.70117 6.3125V17.6875C6.70117 18.4313 7.26992 19 8.01367 19H15.8887C16.6324 19 17.2012 18.4313 17.2012 17.6875V6.3125C17.2012 5.56875 16.6324 5 15.8887 5ZM9.32617 17.25C8.84492 17.25 8.45117 16.8563 8.45117 16.375C8.45117 15.8937 8.84492 15.5 9.32617 15.5C9.80742 15.5 10.2012 15.8937 10.2012 16.375C10.2012 16.8563 9.80742 17.25 9.32617 17.25ZM9.32617 14.625C8.84492 14.625 8.45117 14.2313 8.45117 13.75C8.45117 13.2687 8.84492 12.875 9.32617 12.875C9.80742 12.875 10.2012 13.2687 10.2012 13.75C10.2012 14.2313 9.80742 14.625 9.32617 14.625ZM9.32617 12C8.84492 12 8.45117 11.6063 8.45117 11.125C8.45117 10.6437 8.84492 10.25 9.32617 10.25C9.80742 10.25 10.2012 10.6437 10.2012 11.125C10.2012 11.6063 9.80742 12 9.32617 12ZM11.9512 17.25C11.4699 17.25 11.0762 16.8563 11.0762 16.375C11.0762 15.8937 11.4699 15.5 11.9512 15.5C12.4324 15.5 12.8262 15.8937 12.8262 16.375C12.8262 16.8563 12.4324 17.25 11.9512 17.25ZM11.9512 14.625C11.4699 14.625 11.0762 14.2313 11.0762 13.75C11.0762 13.2687 11.4699 12.875 11.9512 12.875C12.4324 12.875 12.8262 13.2687 12.8262 13.75C12.8262 14.2313 12.4324 14.625 11.9512 14.625ZM11.9512 12C11.4699 12 11.0762 11.6063 11.0762 11.125C11.0762 10.6437 11.4699 10.25 11.9512 10.25C12.4324 10.25 12.8262 10.6437 12.8262 11.125C12.8262 11.6063 12.4324 12 11.9512 12ZM14.5762 17.25C14.0949 17.25 13.7012 16.8563 13.7012 16.375C13.7012 15.8937 14.0949 15.5 14.5762 15.5C15.0574 15.5 15.4512 15.8937 15.4512 16.375C15.4512 16.8563 15.0574 17.25 14.5762 17.25ZM14.5762 14.625C14.0949 14.625 13.7012 14.2313 13.7012 13.75C13.7012 13.2687 14.0949 12.875 14.5762 12.875C15.0574 12.875 15.4512 13.2687 15.4512 13.75C15.4512 14.2313 15.0574 14.625 14.5762 14.625ZM14.5762 12C14.0949 12 13.7012 11.6063 13.7012 11.125C13.7012 10.6437 14.0949 10.25 14.5762 10.25C15.0574 10.25 15.4512 10.6437 15.4512 11.125C15.4512 11.6063 15.0574 12 14.5762 12ZM15.4512 8.9375C15.4512 9.2 15.2762 9.375 15.0137 9.375H8.88867C8.62617 9.375 8.45117 9.2 8.45117 8.9375V7.1875C8.45117 6.925 8.62617 6.75 8.88867 6.75H15.0137C15.2762 6.75 15.4512 6.925 15.4512 7.1875V8.9375Z" fill="#F4F5F7"/>
</g>
<defs>
<filter id="filter0_d_101_953" x="6.70117" y="5" width="11.3" height="14.8" filterUnits="userSpaceOnUse" color-interpolation-filters="sRGB">
<feFlood flood-opacity="0" result="BackgroundImageFix"/>
<feColorMatrix in="SourceAlpha" type="matrix" values="0 0 0 0 0 0 0 0 0 0 0 0 0 0 0 0 0 0 127 0" result="hardAlpha"/>
<feOffset dx="0.4" dy="0.4"/>
<feGaussianBlur stdDeviation="0.2"/>
<feComposite in2="hardAlpha" operator="out"/>
<feColorMatrix type="matrix" values="0 0 0 0 0 0 0 0 0 0 0 0 0 0 0 0 0 0 0.25 0"/>
<feBlend mode="normal" in2="BackgroundImageFix" result="effect1_dropShadow_101_953"/>
<feBlend mode="normal" in="SourceGraphic" in2="effect1_dropShadow_101_953" result="shape"/>
</filter>
</defs>
</svg>
