<svg width="24" height="24" viewBox="0 0 24 24" fill="none" xmlns="http://www.w3.org/2000/svg">
<g clip-path="url(#clip0_101_741)">
<path d="M26.9004 11.9498C26.9004 3.85883 20.2966 -2.7002 12.1504 -2.7002C4.00419 -2.7002 -2.59961 3.85883 -2.59961 11.9498C-2.59961 20.0408 4.00419 26.5998 12.1504 26.5998C20.2966 26.5998 26.9004 20.0408 26.9004 11.9498Z" fill="#6FBF9A"/>
<g filter="url(#filter0_d_101_741)">
<path d="M25.2188 -1.44542C26.5097 -0.154596 27.1549 0.490831 27.3969 1.23507C27.6095 1.88973 27.6095 2.59492 27.3969 3.24958C27.1549 3.99381 26.5097 4.63923 25.2188 5.93006L14.685 16.4639C13.3941 17.7546 12.7487 18.4001 12.0045 18.6419C11.3498 18.8547 10.6446 18.8547 9.98995 18.6419C9.24571 18.4001 8.6003 17.7546 7.30946 16.4639L3.33955 12.494C2.04871 11.2031 1.4033 10.5577 1.16149 9.81347C0.948773 9.15881 0.948773 8.45362 1.16149 7.79897C1.4033 7.05473 2.04871 6.4093 3.33955 5.11848L13.8734 -5.41533C15.1641 -6.70616 15.8096 -7.35158 16.5539 -7.5934C17.2086 -7.80611 17.9137 -7.80611 18.5684 -7.5934C19.3125 -7.35158 19.958 -6.70616 21.2489 -5.41533L25.2188 -1.44542Z" fill="#6B58A7"/>
<path d="M20.955 11.994C22.2459 13.2849 22.8914 13.9303 23.1332 14.6745C23.3458 15.3292 23.3458 16.0343 23.1332 16.689C22.8914 17.4333 22.2459 18.0786 20.955 19.3695L10.4213 29.9033C9.13045 31.1942 8.48502 31.8396 7.74079 32.0814C7.08613 32.294 6.38094 32.294 5.72628 32.0814C4.98204 31.8396 4.33663 31.1942 3.04579 29.9033L-0.92412 25.9334C-2.21495 24.6427 -2.86037 23.9972 -3.10219 23.2529C-3.3149 22.5982 -3.3149 21.8931 -3.10219 21.2384C-2.86037 20.4942 -2.21495 19.8488 -0.92412 18.5579L9.60969 8.02412C10.9005 6.7333 11.5459 6.08787 12.2902 5.84606C12.9448 5.63334 13.65 5.63334 14.3046 5.84606C15.049 6.08787 15.6944 6.7333 16.9851 8.02412L20.955 11.994Z" fill="#6B58A7"/>
</g>
<g filter="url(#filter1_d_101_741)">
<path d="M16.1021 7.62695C16.5341 7.72206 16.9521 7.80331 17.3623 7.90834C17.7983 8.0193 18.2303 8.15405 18.6623 8.27492C18.7236 8.29275 18.7475 8.31654 18.7475 8.38589C18.7455 9.73534 18.7594 11.0868 18.7416 12.4363C18.7216 13.8868 18.2639 15.1986 17.3821 16.3518C16.3993 17.6379 15.1133 18.4662 13.54 18.8428C12.9197 18.9913 12.2876 19.0409 11.6515 19.0031C10.1396 18.914 8.80011 18.3809 7.65478 17.3922C6.47378 16.3757 5.72872 15.0955 5.4295 13.5618C5.3443 13.1258 5.31061 12.6839 5.31061 12.2401C5.30863 10.9619 5.31061 9.68581 5.30664 8.40768C5.30664 8.32249 5.3344 8.29275 5.41167 8.26898C6.23599 8.00543 7.07617 7.79736 7.92624 7.64279C7.93417 7.64081 7.9421 7.64279 7.96191 7.64082C7.96191 7.6745 7.96191 7.70819 7.96191 7.73989C7.96191 9.343 7.95598 10.9481 7.96588 12.5512C7.97182 13.3597 8.08081 14.1582 8.35625 14.9251C8.57421 15.5335 8.89719 16.0764 9.37872 16.5163C9.83052 16.9266 10.3596 17.1861 10.9521 17.3129C11.7903 17.4932 12.6265 17.4794 13.4488 17.2198C14.4198 16.9147 15.0934 16.2686 15.5254 15.3591C15.7573 14.8735 15.8961 14.3585 15.9831 13.8293C16.0804 13.2408 16.1041 12.6463 16.1041 12.0518C16.1041 10.6211 16.1041 9.18843 16.1041 7.75772C16.1021 7.72008 16.1021 7.68441 16.1021 7.62695Z" fill="#F4F5F7"/>
<path d="M13.2077 10.6003C12.417 10.6003 11.6343 10.6003 10.8477 10.6003C10.8477 8.75743 10.8477 6.91653 10.8477 5.07763C11.0934 5.00034 12.74 4.99439 13.2077 5.07168C13.2077 6.91455 13.2077 8.75743 13.2077 10.6003Z" fill="#F4F5F7"/>
</g>
</g>
<defs>
<filter id="filter0_d_101_741" x="-3.26172" y="-7.75293" width="31.6184" height="40.7941" filterUnits="userSpaceOnUse" color-interpolation-filters="sRGB">
<feFlood flood-opacity="0" result="BackgroundImageFix"/>
<feColorMatrix in="SourceAlpha" type="matrix" values="0 0 0 0 0 0 0 0 0 0 0 0 0 0 0 0 0 0 127 0" result="hardAlpha"/>
<feOffset dx="0.4" dy="0.4"/>
<feGaussianBlur stdDeviation="0.2"/>
<feComposite in2="hardAlpha" operator="out"/>
<feColorMatrix type="matrix" values="0 0 0 0 0 0 0 0 0 0 0 0 0 0 0 0 0 0 0.25 0"/>
<feBlend mode="normal" in2="BackgroundImageFix" result="effect1_dropShadow_101_741"/>
<feBlend mode="normal" in="SourceGraphic" in2="effect1_dropShadow_101_741" result="shape"/>
</filter>
<filter id="filter1_d_101_741" x="5.30664" y="5.0166" width="14.2434" height="14.799" filterUnits="userSpaceOnUse" color-interpolation-filters="sRGB">
<feFlood flood-opacity="0" result="BackgroundImageFix"/>
<feColorMatrix in="SourceAlpha" type="matrix" values="0 0 0 0 0 0 0 0 0 0 0 0 0 0 0 0 0 0 127 0" result="hardAlpha"/>
<feOffset dx="0.4" dy="0.4"/>
<feGaussianBlur stdDeviation="0.2"/>
<feComposite in2="hardAlpha" operator="out"/>
<feColorMatrix type="matrix" values="0 0 0 0 0 0 0 0 0 0 0 0 0 0 0 0 0 0 0.25 0"/>
<feBlend mode="normal" in2="BackgroundImageFix" result="effect1_dropShadow_101_741"/>
<feBlend mode="normal" in="SourceGraphic" in2="effect1_dropShadow_101_741" result="shape"/>
</filter>
<clipPath id="clip0_101_741">
<rect width="24" height="24" rx="6" fill="white"/>
</clipPath>
</defs>
</svg>
