<svg width="24" height="24" viewBox="0 0 24 24" fill="none" xmlns="http://www.w3.org/2000/svg">
<rect width="24" height="24" rx="6" fill="#32363B"/>
<g filter="url(#filter0_d_101_685)">
<path d="M9.57361 18.5761C13.1795 19.8979 17.1666 18.0253 18.4791 14.3935C19.3109 12.0916 18.8687 9.63556 17.5152 7.80884L16.9405 9.39925C17.6365 10.755 17.7892 12.3884 17.23 13.9356C16.1687 16.8727 12.9443 18.3871 10.0282 17.3181C9.85585 17.2548 9.6884 17.184 9.52614 17.1061L11.1273 12.6754H12.2846L11.2831 15.4468L13.5956 15.4526L16.6924 6.88305C16.0293 6.25899 15.2331 5.75631 14.3264 5.42394C10.7205 4.10205 6.73336 5.97465 5.42091 9.60651C4.58909 11.9084 5.03132 14.3645 6.3848 16.1911L6.95953 14.6007C6.26351 13.2451 6.11083 11.6116 6.66996 10.0644C7.73133 7.12733 10.9557 5.61297 13.8718 6.68197C14.0442 6.74516 14.2116 6.81597 14.3739 6.89387L12.7684 11.3367H11.6111L12.6169 8.55325L10.3044 8.54736L7.20757 17.117C7.87073 17.741 8.66696 18.2437 9.57361 18.5761Z" fill="#4F9B7A"/>
</g>
<defs>
<filter id="filter0_d_101_685" x="5" y="5" width="14.7004" height="14.8" filterUnits="userSpaceOnUse" color-interpolation-filters="sRGB">
<feFlood flood-opacity="0" result="BackgroundImageFix"/>
<feColorMatrix in="SourceAlpha" type="matrix" values="0 0 0 0 0 0 0 0 0 0 0 0 0 0 0 0 0 0 127 0" result="hardAlpha"/>
<feOffset dx="0.4" dy="0.4"/>
<feGaussianBlur stdDeviation="0.2"/>
<feComposite in2="hardAlpha" operator="out"/>
<feColorMatrix type="matrix" values="0 0 0 0 0 0 0 0 0 0 0 0 0 0 0 0 0 0 0.25 0"/>
<feBlend mode="normal" in2="BackgroundImageFix" result="effect1_dropShadow_101_685"/>
<feBlend mode="normal" in="SourceGraphic" in2="effect1_dropShadow_101_685" result="shape"/>
</filter>
</defs>
</svg>
