<svg width="24" height="24" viewBox="0 0 24 24" fill="none" xmlns="http://www.w3.org/2000/svg">
<rect width="24" height="24" rx="6" fill="#B04F58"/>
<g filter="url(#filter0_d_101_701)">
<path fill-rule="evenodd" clip-rule="evenodd" d="M12.0004 4C16.4074 4 19.9816 7.53004 20 11.892V11.9605C19.992 13.8999 19.2783 15.6741 18.1025 17.0475C18.0598 17.026 17.982 16.956 17.8411 16.7451C17.6952 16.5332 16.4374 14.5975 16.4374 12.379C16.4374 11.9436 17.0651 11.2634 17.6204 10.6664L17.6323 10.6536C18.043 10.2091 18.4302 9.79024 18.5736 9.4604C18.758 9.03064 18.629 8.73057 18.4249 8.62885C18.2402 8.53845 17.9627 8.6044 17.7682 8.95011C17.4488 9.50956 17.3464 9.6141 16.8805 9.98846C16.422 10.3626 15.6931 10.7393 15.6931 10.2517C15.6931 10.0739 15.8783 9.74435 16.0602 9.42036L16.0604 9.42033C16.1478 9.26455 16.2346 9.11006 16.2996 8.97436C16.5045 8.55183 16.2838 8.24593 15.8608 8.24593C15.0303 8.24593 14.4792 9.3038 14.4792 9.67025C14.4792 9.84639 14.5203 9.94987 14.5629 10.0573C14.609 10.1732 14.6568 10.2937 14.6568 10.5151C14.6568 10.9447 13.7456 11.502 12.8873 11.502C12.0234 11.502 11.5389 11.3192 11.3579 10.7974L11.3005 10.6276L11.291 10.5998C11.0923 10.0191 10.9468 9.59394 10.6966 9.15003C10.5644 8.91652 10.362 8.75315 10.1845 8.60988L10.1732 8.60073C9.93768 8.41784 9.81555 8.24945 9.79007 8.12387C9.76658 7.99928 9.75387 7.76447 10.1564 7.22321C10.5581 6.68504 10.6144 6.27847 10.4134 6.0687C10.3405 5.99406 10.2163 5.94625 10.0568 5.94625C9.7747 5.94625 9.38272 6.09571 8.97873 6.5063C8.48841 7.0087 8.59826 7.49128 8.66998 7.80637C8.69011 7.89482 8.70726 7.97011 8.70726 8.0289C8.70726 8.2969 8.59221 8.44851 8.21535 8.81312C7.83574 9.17937 7.70472 9.49338 7.66131 10.7554C7.64468 11.4056 7.53016 11.7799 7.42735 12.1118C7.33852 12.4027 7.25683 12.6762 7.25242 13.0714C7.24539 13.5092 7.31828 13.7914 7.40334 14.117C7.48684 14.418 7.57555 14.7628 7.63238 15.3396C7.73029 16.307 7.68525 17.1116 7.48314 17.951L7.47289 18.0065L7.47076 18.015C7.43755 18.1489 7.3981 18.3078 7.34515 18.3682C5.32038 16.93 4 14.5814 4 11.9265C4 7.54917 7.58175 4 12.0004 4ZM12.3728 12.5757C11.9745 12.513 11.6812 12.5708 11.4747 12.7454C10.9417 13.1993 10.9508 14.4643 10.9615 15.9314L10.9642 16.3468C10.9704 17.8013 10.9786 19.0589 11.3181 19.6116C11.4264 19.7881 11.631 19.9171 11.9031 19.9944C11.9231 19.995 11.943 19.9956 11.963 19.9964C12.0134 19.9982 12.0639 20 12.115 20C12.7884 20 13.4421 19.9167 14.0676 19.7627C14.3261 19.638 14.5133 19.4885 14.5776 19.3325C14.6161 19.2314 14.6372 19.0473 14.6372 18.8074C14.6372 17.8573 14.3582 16.0449 14.2203 15.1491L14.2162 15.1226L14.1465 14.6584L14.1334 14.567L14.1327 14.5626C14.0159 13.7395 13.8839 12.8089 12.3728 12.5757ZM9.8016 18.4358C9.76152 17.2786 9.56199 15.7523 9.25167 15.7698C8.91715 15.7903 8.78992 17.5315 8.93638 18.6939C8.98436 19.0639 9.05989 19.3463 9.1587 19.5257C9.30678 19.5858 9.45706 19.6411 9.60999 19.6921C9.74512 19.573 9.82974 19.2417 9.8016 18.4358ZM17.0322 18.05C17.1046 17.6816 16.2303 15.5953 15.7425 15.8309C15.3682 16.0166 15.5134 18.1483 15.9001 18.8278C15.9404 18.896 16.0229 18.9069 16.1159 18.8912C16.4077 18.7154 16.6866 18.52 16.9518 18.3071C16.9855 18.2379 17.0128 18.1561 17.0322 18.05Z" fill="#F4F5F7"/>
</g>
<defs>
<filter id="filter0_d_101_701" x="4" y="4" width="16.8" height="16.8" filterUnits="userSpaceOnUse" color-interpolation-filters="sRGB">
<feFlood flood-opacity="0" result="BackgroundImageFix"/>
<feColorMatrix in="SourceAlpha" type="matrix" values="0 0 0 0 0 0 0 0 0 0 0 0 0 0 0 0 0 0 127 0" result="hardAlpha"/>
<feOffset dx="0.4" dy="0.4"/>
<feGaussianBlur stdDeviation="0.2"/>
<feComposite in2="hardAlpha" operator="out"/>
<feColorMatrix type="matrix" values="0 0 0 0 0 0 0 0 0 0 0 0 0 0 0 0 0 0 0.25 0"/>
<feBlend mode="normal" in2="BackgroundImageFix" result="effect1_dropShadow_101_701"/>
<feBlend mode="normal" in="SourceGraphic" in2="effect1_dropShadow_101_701" result="shape"/>
</filter>
</defs>
</svg>
