<svg width="24" height="24" viewBox="0 0 24 24" fill="none" xmlns="http://www.w3.org/2000/svg">
<rect width="24" height="24" rx="6" fill="#F4F5F7"/>
<g filter="url(#filter0_d_101_692)">
<circle cx="12" cy="11.7998" r="9.5" fill="#6FBF9A"/>
</g>
<g filter="url(#filter1_d_101_692)">
<path d="M9.40318 8.71242C9.40318 7.52166 8.63885 6.59961 7.52644 6.59961C6.99373 6.59961 6.55111 6.79311 6.23776 7.12997V6.96546C6.23776 6.78527 6.13592 6.69231 5.95573 6.69231H5.28202C5.10184 6.69231 5 6.78527 5 6.96546V12.3424C5 12.5225 5.10184 12.625 5.28202 12.625H5.95573C6.13592 12.625 6.23776 12.5225 6.23776 12.3424V10.2949C6.55111 10.6317 6.99373 10.8637 7.52644 10.8637C8.63885 10.8637 9.40318 9.90318 9.40318 8.71242ZM8.18449 8.71242C8.18449 9.29213 7.75754 9.73083 7.21309 9.73083C6.66862 9.73083 6.23776 9.29213 6.23776 8.71242C6.23776 8.13662 6.66862 7.69401 7.21309 7.69401C7.75754 7.69401 8.18449 8.13662 8.18449 8.71242Z" fill="#32363B"/>
<path d="M11.4189 7.33203C11.6375 7.33203 11.8269 7.37506 11.9893 7.4502C11.905 7.43541 11.8179 7.42676 11.7285 7.42676C10.8851 7.42693 10.2617 8.11704 10.2617 8.94531C10.262 9.77858 10.8864 10.4627 11.7285 10.4629C11.8327 10.4629 11.9341 10.4525 12.0312 10.4326C11.8525 10.5356 11.6478 10.5957 11.4189 10.5957C10.6461 10.5955 10.0197 9.93161 10.0195 8.94531C10.0195 7.97123 10.6351 7.33224 11.4189 7.33203ZM13.4229 7.4248V10.5039H13.208V9.26758L13.1631 9.31445C13.1911 9.19618 13.208 9.07287 13.208 8.94531C13.208 8.81778 13.1913 8.69376 13.1631 8.5752L13.208 8.62305V7.4248H13.4229Z" fill="#6FBF9A" stroke="#32363B"/>
<path d="M15.2455 12.6251H15.974C16.1346 12.6251 16.2404 12.6251 16.2952 12.3973L18.1855 7.00861C18.2017 6.96283 18.2092 6.92896 18.2092 6.8837C18.2092 6.75825 18.1278 6.69238 17.9677 6.69238H17.247C17.0826 6.69238 16.9768 6.76185 16.9297 6.91852L16.2404 9.14336L15.5628 6.91852C15.5157 6.76185 15.41 6.69238 15.2455 6.69238H14.5248C14.3628 6.69238 14.2695 6.76001 14.2695 6.88816C14.2695 6.92896 14.2781 6.96465 14.2936 7.00861L15.6293 10.7711L15.0262 12.2954C14.9479 12.4952 15.0339 12.6251 15.2455 12.6251Z" fill="#32363B"/>
<path d="M10.0491 13.0889C9.58691 13.0889 9.17603 13.2667 8.90187 13.5996V13.4547C8.90187 13.2745 8.80002 13.1816 8.61984 13.1816H7.92645C7.74627 13.1816 7.64453 13.2745 7.64453 13.4547V16.9486C7.64453 17.1288 7.74627 17.2603 7.92645 17.2603H8.61984C8.80002 17.2603 8.90187 17.1288 8.90187 16.9486V15.0372C8.90187 14.481 9.26571 14.1833 9.67312 14.1833C10.0374 14.1833 10.3272 14.5201 10.3272 14.8844V16.9486C10.3272 17.1288 10.4291 17.2603 10.6093 17.2603H11.3025C11.4827 17.2603 11.5842 17.1288 11.5842 16.9486V14.6846C11.5842 13.725 10.9383 13.0889 10.0491 13.0889Z" fill="#32363B"/>
<path d="M18.1108 15.7614V14.2612H18.71C18.8901 14.2612 18.9997 14.1593 18.9997 13.9791V13.4543C18.9997 13.2741 18.8901 13.1811 18.71 13.1811H18.1108V12.1903C18.1108 12.0317 18.0183 11.9311 17.8661 11.9297C17.8468 11.9295 17.8264 11.931 17.8052 11.934L17.104 12.0337C16.9317 12.0611 16.8455 12.1629 16.8455 12.3353V13.1811H16.52C16.3398 13.1811 16.2188 13.2741 16.2188 13.4543V13.9791C16.2188 14.1593 16.3398 14.2612 16.52 14.2612H16.8455V15.8906C16.8455 16.7994 17.3782 17.3526 18.2439 17.3526C18.4553 17.3526 18.659 17.3186 18.8313 17.2599C18.9802 17.209 18.9997 17.0657 18.9997 16.909V16.5056C18.9997 16.3176 18.9371 16.2275 18.7492 16.2353H18.6278C18.2556 16.2353 18.1108 16.0865 18.1108 15.7614Z" fill="#32363B"/>
<path d="M13.1007 15.5503H15.9033C16.0717 15.5503 16.1899 15.468 16.2056 15.2996C16.2134 15.2448 16.2196 15.186 16.2196 15.1351C16.2196 13.9953 15.306 13.0889 14.0643 13.0889C12.7991 13.0889 11.8164 14.0109 11.8164 15.2017C11.8164 16.3924 12.7757 17.353 14.1779 17.353C14.8986 17.353 15.4546 17.0622 15.8698 16.6745C16.0029 16.5491 15.9951 16.4081 15.8775 16.2749L15.7092 16.0869C15.5917 15.9537 15.4624 15.9498 15.3136 16.0517C15.0001 16.271 14.6284 16.3768 14.1937 16.3768C13.5904 16.3768 13.1909 16.0634 13.1007 15.5503ZM14.0487 14.0266C14.5149 14.0266 14.8553 14.3086 14.9532 14.7551H13.1203C13.2418 14.3008 13.5904 14.0266 14.0487 14.0266Z" fill="#32363B"/>
</g>
<defs>
<filter id="filter0_d_101_692" x="2.5" y="2.2998" width="19.8" height="19.8" filterUnits="userSpaceOnUse" color-interpolation-filters="sRGB">
<feFlood flood-opacity="0" result="BackgroundImageFix"/>
<feColorMatrix in="SourceAlpha" type="matrix" values="0 0 0 0 0 0 0 0 0 0 0 0 0 0 0 0 0 0 127 0" result="hardAlpha"/>
<feOffset dx="0.4" dy="0.4"/>
<feGaussianBlur stdDeviation="0.2"/>
<feComposite in2="hardAlpha" operator="out"/>
<feColorMatrix type="matrix" values="0 0 0 0 0 0 0 0 0 0 0 0 0 0 0 0 0 0 0.25 0"/>
<feBlend mode="normal" in2="BackgroundImageFix" result="effect1_dropShadow_101_692"/>
<feBlend mode="normal" in="SourceGraphic" in2="effect1_dropShadow_101_692" result="shape"/>
</filter>
<filter id="filter1_d_101_692" x="5" y="6.59961" width="14.8" height="11.5529" filterUnits="userSpaceOnUse" color-interpolation-filters="sRGB">
<feFlood flood-opacity="0" result="BackgroundImageFix"/>
<feColorMatrix in="SourceAlpha" type="matrix" values="0 0 0 0 0 0 0 0 0 0 0 0 0 0 0 0 0 0 127 0" result="hardAlpha"/>
<feOffset dx="0.4" dy="0.4"/>
<feGaussianBlur stdDeviation="0.2"/>
<feComposite in2="hardAlpha" operator="out"/>
<feColorMatrix type="matrix" values="0 0 0 0 0 0 0 0 0 0 0 0 0 0 0 0 0 0 0.25 0"/>
<feBlend mode="normal" in2="BackgroundImageFix" result="effect1_dropShadow_101_692"/>
<feBlend mode="normal" in="SourceGraphic" in2="effect1_dropShadow_101_692" result="shape"/>
</filter>
</defs>
</svg>
