<svg width="24" height="24" viewBox="0 0 24 24" fill="none" xmlns="http://www.w3.org/2000/svg">
<rect width="24" height="24" rx="6" fill="#6FBF9A"/>
<g filter="url(#filter0_d_101_778)">
<path d="M10.3001 6.69943C8.81607 6.69924 7.38107 6.85139 6.15753 7.15516C5.52905 7.31119 5.48238 7.32939 5.30762 7.47645C5.09256 7.65742 5.00013 7.85604 5 8.1418C4.99983 8.49568 5.16892 8.76859 5.48763 8.92568C5.74855 9.05425 5.91762 9.04972 6.48793 8.90517C7.0647 8.759 7.88216 8.61876 8.59796 8.54287C9.32585 8.46576 11.6231 8.47856 12.3577 8.56338C14.3491 8.79344 15.7685 9.17185 17.1429 9.83942C17.4945 10.0102 17.843 10.1643 17.9176 10.1812C18.311 10.2712 18.7795 10.0303 18.943 9.65485C19.0244 9.46792 19.017 9.12386 18.9293 8.93934C18.8209 8.71133 18.5995 8.54809 18.011 8.26255C17.0112 7.77722 15.9349 7.41263 14.7344 7.1548C13.3169 6.85088 11.7839 6.69922 10.2999 6.69922L10.3001 6.69943ZM9.96859 10.2029C9.70438 10.2068 9.47661 10.2158 9.3226 10.2314C8.32464 10.332 7.02923 10.6066 6.61786 10.8056C6.1851 11.0148 6.03225 11.6004 6.29885 12.0315C6.40104 12.1967 6.70626 12.3801 6.8799 12.3801C6.94533 12.3801 7.25976 12.3069 7.57944 12.2184C8.51201 11.96 9.13653 11.8755 10.2751 11.8538C11.0131 11.8399 11.3986 11.8518 11.8291 11.9016C13.657 12.1127 15.0008 12.5594 16.5505 13.4716C16.7636 13.597 16.9837 13.6996 17.0404 13.6995C17.5017 13.6984 17.9031 13.2159 17.8243 12.7561C17.7549 12.3542 17.5822 12.1868 16.7895 11.744C15.4764 11.0119 14.0361 10.5429 12.3235 10.2904C12.0301 10.2472 11.4327 10.218 10.8331 10.2064C10.5332 10.2002 10.2325 10.199 9.96833 10.2029L9.96859 10.2029ZM10.3753 13.7029C10.1636 13.7068 9.9813 13.7158 9.85808 13.7314C9.05973 13.832 8.0225 14.1066 7.69338 14.3056C7.34716 14.5148 7.22489 15.1005 7.43818 15.5315C7.51994 15.6967 7.76411 15.8801 7.90302 15.8801C7.95536 15.8801 8.20781 15.8069 8.46356 15.7184C9.20965 15.46 9.70834 15.3755 10.6192 15.3538C11.2095 15.3399 11.5189 15.3518 11.8633 15.4016C13.3255 15.6127 14.3992 16.0594 15.639 16.9716C15.8095 17.097 15.9879 17.1996 16.0332 17.1995C16.4023 17.1984 16.7208 16.7159 16.6576 16.2561C16.6025 15.8545 16.4669 15.6867 15.8327 15.2444C14.7825 14.5119 13.6298 14.0428 12.2598 13.7906C12.025 13.7474 11.5479 13.7183 11.068 13.7063C10.8281 13.7002 10.587 13.699 10.3753 13.7029Z" fill="#32363B"/>
</g>
<defs>
<filter id="filter0_d_101_778" x="5" y="6.69922" width="14.8" height="11.3" filterUnits="userSpaceOnUse" color-interpolation-filters="sRGB">
<feFlood flood-opacity="0" result="BackgroundImageFix"/>
<feColorMatrix in="SourceAlpha" type="matrix" values="0 0 0 0 0 0 0 0 0 0 0 0 0 0 0 0 0 0 127 0" result="hardAlpha"/>
<feOffset dx="0.4" dy="0.4"/>
<feGaussianBlur stdDeviation="0.2"/>
<feComposite in2="hardAlpha" operator="out"/>
<feColorMatrix type="matrix" values="0 0 0 0 0 0 0 0 0 0 0 0 0 0 0 0 0 0 0.25 0"/>
<feBlend mode="normal" in2="BackgroundImageFix" result="effect1_dropShadow_101_778"/>
<feBlend mode="normal" in="SourceGraphic" in2="effect1_dropShadow_101_778" result="shape"/>
</filter>
</defs>
</svg>
